G04 #@! TF.GenerationSoftware,KiCad,Pcbnew,5.0.2-bee76a0~70~ubuntu14.04.1*
G04 #@! TF.CreationDate,2018-12-14T18:36:52-07:00*
G04 #@! TF.ProjectId,breakout,62726561-6b6f-4757-942e-6b696361645f,rev?*
G04 #@! TF.SameCoordinates,Original*
G04 #@! TF.FileFunction,Legend,Top*
G04 #@! TF.FilePolarity,Positive*
%FSLAX46Y46*%
G04 Gerber Fmt 4.6, Leading zero omitted, Abs format (unit mm)*
G04 Created by KiCad (PCBNEW 5.0.2-bee76a0~70~ubuntu14.04.1) date Fri 14 Dec 2018 06:36:52 PM MST*
%MOMM*%
%LPD*%
G01*
G04 APERTURE LIST*
%ADD10C,0.200000*%
%ADD11C,0.150000*%
%ADD12C,0.120000*%
G04 APERTURE END LIST*
D10*
X105156000Y-66294000D02*
X108966000Y-70612000D01*
X107696000Y-66548000D02*
X110490000Y-69342000D01*
X110466208Y-71051547D02*
X110415700Y-70900024D01*
X110264177Y-70748502D01*
X110062147Y-70647486D01*
X109860116Y-70647486D01*
X109708593Y-70697994D01*
X109456055Y-70849517D01*
X109304532Y-71001040D01*
X109153009Y-71253578D01*
X109102502Y-71405101D01*
X109102502Y-71607131D01*
X109203517Y-71809162D01*
X109304532Y-71910177D01*
X109506563Y-72011192D01*
X109607578Y-72011192D01*
X109961131Y-71657639D01*
X109759101Y-71455608D01*
X109961131Y-72566776D02*
X111021791Y-71506116D01*
X110567223Y-73172868D01*
X111627883Y-72112208D01*
X111072299Y-73677944D02*
X112132959Y-72617284D01*
X112385497Y-72869822D01*
X112486513Y-73071852D01*
X112486513Y-73273883D01*
X112436005Y-73425406D01*
X112284482Y-73677944D01*
X112132959Y-73829467D01*
X111880421Y-73980990D01*
X111728898Y-74031497D01*
X111526868Y-74031497D01*
X111324837Y-73930482D01*
X111072299Y-73677944D01*
X110929547Y-70741192D02*
X110323456Y-70135101D01*
X110626502Y-70438147D02*
X111687162Y-69377486D01*
X111434624Y-69427994D01*
X111232593Y-69427994D01*
X111081070Y-69377486D01*
X111485131Y-71094746D02*
X111485131Y-71195761D01*
X111384116Y-71195761D01*
X111384116Y-71094746D01*
X111485131Y-71094746D01*
X111384116Y-71195761D01*
X112646807Y-71246269D02*
X112596299Y-71094746D01*
X112596299Y-70993730D01*
X112646807Y-70842208D01*
X112697314Y-70791700D01*
X112848837Y-70741192D01*
X112949852Y-70741192D01*
X113101375Y-70791700D01*
X113303406Y-70993730D01*
X113353913Y-71145253D01*
X113353913Y-71246269D01*
X113303406Y-71397791D01*
X113252898Y-71448299D01*
X113101375Y-71498807D01*
X113000360Y-71498807D01*
X112848837Y-71448299D01*
X112646807Y-71246269D01*
X112495284Y-71195761D01*
X112394269Y-71195761D01*
X112242746Y-71246269D01*
X112040715Y-71448299D01*
X111990208Y-71599822D01*
X111990208Y-71700837D01*
X112040715Y-71852360D01*
X112242746Y-72054391D01*
X112394269Y-72104898D01*
X112495284Y-72104898D01*
X112646807Y-72054391D01*
X112848837Y-71852360D01*
X112899345Y-71700837D01*
X112899345Y-71599822D01*
X112848837Y-71448299D01*
X113505436Y-71902868D02*
X113050868Y-72862513D01*
X114010513Y-72407944D01*
X111760000Y-79248000D02*
X106172000Y-71628000D01*
X112014000Y-92202000D02*
X105664000Y-91694000D01*
D11*
X112274124Y-88067140D02*
X112274124Y-87067140D01*
X112512220Y-87067140D01*
X112655077Y-87114760D01*
X112750315Y-87209998D01*
X112797934Y-87305236D01*
X112845553Y-87495712D01*
X112845553Y-87638569D01*
X112797934Y-87829045D01*
X112750315Y-87924283D01*
X112655077Y-88019521D01*
X112512220Y-88067140D01*
X112274124Y-88067140D01*
X113702696Y-87400474D02*
X113702696Y-88067140D01*
X113464600Y-87019521D02*
X113226505Y-87733807D01*
X113845553Y-87733807D01*
D10*
X112014000Y-77216000D02*
X105664000Y-68834000D01*
X112014000Y-85852000D02*
X105664000Y-81534000D01*
D11*
X112822599Y-82462120D02*
X112632122Y-82462120D01*
X112536884Y-82509740D01*
X112489265Y-82557359D01*
X112394027Y-82700216D01*
X112346408Y-82890692D01*
X112346408Y-83271644D01*
X112394027Y-83366882D01*
X112441646Y-83414501D01*
X112536884Y-83462120D01*
X112727360Y-83462120D01*
X112822599Y-83414501D01*
X112870218Y-83366882D01*
X112917837Y-83271644D01*
X112917837Y-83033549D01*
X112870218Y-82938311D01*
X112822599Y-82890692D01*
X112727360Y-82843073D01*
X112536884Y-82843073D01*
X112441646Y-82890692D01*
X112394027Y-82938311D01*
X112346408Y-83033549D01*
X113536884Y-82462120D02*
X113632122Y-82462120D01*
X113727360Y-82509740D01*
X113774980Y-82557359D01*
X113822599Y-82652597D01*
X113870218Y-82843073D01*
X113870218Y-83081168D01*
X113822599Y-83271644D01*
X113774980Y-83366882D01*
X113727360Y-83414501D01*
X113632122Y-83462120D01*
X113536884Y-83462120D01*
X113441646Y-83414501D01*
X113394027Y-83366882D01*
X113346408Y-83271644D01*
X113298789Y-83081168D01*
X113298789Y-82843073D01*
X113346408Y-82652597D01*
X113394027Y-82557359D01*
X113441646Y-82509740D01*
X113536884Y-82462120D01*
X114489265Y-82462120D02*
X114584503Y-82462120D01*
X114679741Y-82509740D01*
X114727360Y-82557359D01*
X114774980Y-82652597D01*
X114822599Y-82843073D01*
X114822599Y-83081168D01*
X114774980Y-83271644D01*
X114727360Y-83366882D01*
X114679741Y-83414501D01*
X114584503Y-83462120D01*
X114489265Y-83462120D01*
X114394027Y-83414501D01*
X114346408Y-83366882D01*
X114298789Y-83271644D01*
X114251170Y-83081168D01*
X114251170Y-82843073D01*
X114298789Y-82652597D01*
X114346408Y-82557359D01*
X114394027Y-82509740D01*
X114489265Y-82462120D01*
X115251170Y-83366882D02*
X115298789Y-83414501D01*
X115251170Y-83462120D01*
X115203551Y-83414501D01*
X115251170Y-83366882D01*
X115251170Y-83462120D01*
X116251170Y-83462120D02*
X115679741Y-83462120D01*
X115965456Y-83462120D02*
X115965456Y-82462120D01*
X115870218Y-82604978D01*
X115774980Y-82700216D01*
X115679741Y-82747835D01*
X116584503Y-82462120D02*
X117251170Y-82462120D01*
X116822599Y-83462120D01*
D10*
X112268000Y-105410000D02*
X106426000Y-112522000D01*
X112014000Y-81280000D02*
X105664000Y-73660000D01*
D11*
X112279204Y-94173300D02*
X112279204Y-93173300D01*
X112517300Y-93173300D01*
X112660157Y-93220920D01*
X112755395Y-93316158D01*
X112803014Y-93411396D01*
X112850633Y-93601872D01*
X112850633Y-93744729D01*
X112803014Y-93935205D01*
X112755395Y-94030443D01*
X112660157Y-94125681D01*
X112517300Y-94173300D01*
X112279204Y-94173300D01*
X113422061Y-93601872D02*
X113326823Y-93554253D01*
X113279204Y-93506634D01*
X113231585Y-93411396D01*
X113231585Y-93363777D01*
X113279204Y-93268539D01*
X113326823Y-93220920D01*
X113422061Y-93173300D01*
X113612538Y-93173300D01*
X113707776Y-93220920D01*
X113755395Y-93268539D01*
X113803014Y-93363777D01*
X113803014Y-93411396D01*
X113755395Y-93506634D01*
X113707776Y-93554253D01*
X113612538Y-93601872D01*
X113422061Y-93601872D01*
X113326823Y-93649491D01*
X113279204Y-93697110D01*
X113231585Y-93792348D01*
X113231585Y-93982824D01*
X113279204Y-94078062D01*
X113326823Y-94125681D01*
X113422061Y-94173300D01*
X113612538Y-94173300D01*
X113707776Y-94125681D01*
X113755395Y-94078062D01*
X113803014Y-93982824D01*
X113803014Y-93792348D01*
X113755395Y-93697110D01*
X113707776Y-93649491D01*
X113612538Y-93601872D01*
D10*
X112014000Y-89154000D02*
X105918000Y-86614000D01*
D11*
X112398584Y-80210920D02*
X112398584Y-79210920D01*
X112636680Y-79210920D01*
X112779537Y-79258540D01*
X112874775Y-79353778D01*
X112922394Y-79449016D01*
X112970013Y-79639492D01*
X112970013Y-79782349D01*
X112922394Y-79972825D01*
X112874775Y-80068063D01*
X112779537Y-80163301D01*
X112636680Y-80210920D01*
X112398584Y-80210920D01*
X113922394Y-80210920D02*
X113350965Y-80210920D01*
X113636680Y-80210920D02*
X113636680Y-79210920D01*
X113541441Y-79353778D01*
X113446203Y-79449016D01*
X113350965Y-79496635D01*
X112274124Y-89591140D02*
X112274124Y-88591140D01*
X112512220Y-88591140D01*
X112655077Y-88638760D01*
X112750315Y-88733998D01*
X112797934Y-88829236D01*
X112845553Y-89019712D01*
X112845553Y-89162569D01*
X112797934Y-89353045D01*
X112750315Y-89448283D01*
X112655077Y-89543521D01*
X112512220Y-89591140D01*
X112274124Y-89591140D01*
X113750315Y-88591140D02*
X113274124Y-88591140D01*
X113226505Y-89067331D01*
X113274124Y-89019712D01*
X113369362Y-88972093D01*
X113607458Y-88972093D01*
X113702696Y-89019712D01*
X113750315Y-89067331D01*
X113797934Y-89162569D01*
X113797934Y-89400664D01*
X113750315Y-89495902D01*
X113702696Y-89543521D01*
X113607458Y-89591140D01*
X113369362Y-89591140D01*
X113274124Y-89543521D01*
X113226505Y-89495902D01*
D10*
X112014000Y-95250000D02*
X105664000Y-96774000D01*
X112014000Y-82804000D02*
X105664000Y-76454000D01*
D11*
X112829578Y-84062320D02*
X112353387Y-84062320D01*
X112305768Y-84538511D01*
X112353387Y-84490892D01*
X112448625Y-84443273D01*
X112686720Y-84443273D01*
X112781959Y-84490892D01*
X112829578Y-84538511D01*
X112877197Y-84633749D01*
X112877197Y-84871844D01*
X112829578Y-84967082D01*
X112781959Y-85014701D01*
X112686720Y-85062320D01*
X112448625Y-85062320D01*
X112353387Y-85014701D01*
X112305768Y-84967082D01*
X113496244Y-84062320D02*
X113591482Y-84062320D01*
X113686720Y-84109940D01*
X113734340Y-84157559D01*
X113781959Y-84252797D01*
X113829578Y-84443273D01*
X113829578Y-84681368D01*
X113781959Y-84871844D01*
X113734340Y-84967082D01*
X113686720Y-85014701D01*
X113591482Y-85062320D01*
X113496244Y-85062320D01*
X113401006Y-85014701D01*
X113353387Y-84967082D01*
X113305768Y-84871844D01*
X113258149Y-84681368D01*
X113258149Y-84443273D01*
X113305768Y-84252797D01*
X113353387Y-84157559D01*
X113401006Y-84109940D01*
X113496244Y-84062320D01*
X114448625Y-84062320D02*
X114543863Y-84062320D01*
X114639101Y-84109940D01*
X114686720Y-84157559D01*
X114734340Y-84252797D01*
X114781959Y-84443273D01*
X114781959Y-84681368D01*
X114734340Y-84871844D01*
X114686720Y-84967082D01*
X114639101Y-85014701D01*
X114543863Y-85062320D01*
X114448625Y-85062320D01*
X114353387Y-85014701D01*
X114305768Y-84967082D01*
X114258149Y-84871844D01*
X114210530Y-84681368D01*
X114210530Y-84443273D01*
X114258149Y-84252797D01*
X114305768Y-84157559D01*
X114353387Y-84109940D01*
X114448625Y-84062320D01*
X115210530Y-84967082D02*
X115258149Y-85014701D01*
X115210530Y-85062320D01*
X115162911Y-85014701D01*
X115210530Y-84967082D01*
X115210530Y-85062320D01*
X116210530Y-85062320D02*
X115639101Y-85062320D01*
X115924816Y-85062320D02*
X115924816Y-84062320D01*
X115829578Y-84205178D01*
X115734340Y-84300416D01*
X115639101Y-84348035D01*
X116543863Y-84062320D02*
X117210530Y-84062320D01*
X116781959Y-85062320D01*
X112115268Y-99445819D02*
X112162887Y-99398200D01*
X112258125Y-99350580D01*
X112496220Y-99350580D01*
X112591459Y-99398200D01*
X112639078Y-99445819D01*
X112686697Y-99541057D01*
X112686697Y-99636295D01*
X112639078Y-99779152D01*
X112067649Y-100350580D01*
X112686697Y-100350580D01*
X113305744Y-99350580D02*
X113400982Y-99350580D01*
X113496220Y-99398200D01*
X113543840Y-99445819D01*
X113591459Y-99541057D01*
X113639078Y-99731533D01*
X113639078Y-99969628D01*
X113591459Y-100160104D01*
X113543840Y-100255342D01*
X113496220Y-100302961D01*
X113400982Y-100350580D01*
X113305744Y-100350580D01*
X113210506Y-100302961D01*
X113162887Y-100255342D01*
X113115268Y-100160104D01*
X113067649Y-99969628D01*
X113067649Y-99731533D01*
X113115268Y-99541057D01*
X113162887Y-99445819D01*
X113210506Y-99398200D01*
X113305744Y-99350580D01*
X114258125Y-99350580D02*
X114353363Y-99350580D01*
X114448601Y-99398200D01*
X114496220Y-99445819D01*
X114543840Y-99541057D01*
X114591459Y-99731533D01*
X114591459Y-99969628D01*
X114543840Y-100160104D01*
X114496220Y-100255342D01*
X114448601Y-100302961D01*
X114353363Y-100350580D01*
X114258125Y-100350580D01*
X114162887Y-100302961D01*
X114115268Y-100255342D01*
X114067649Y-100160104D01*
X114020030Y-99969628D01*
X114020030Y-99731533D01*
X114067649Y-99541057D01*
X114115268Y-99445819D01*
X114162887Y-99398200D01*
X114258125Y-99350580D01*
X115020030Y-100255342D02*
X115067649Y-100302961D01*
X115020030Y-100350580D01*
X114972411Y-100302961D01*
X115020030Y-100255342D01*
X115020030Y-100350580D01*
X116020030Y-100350580D02*
X115448601Y-100350580D01*
X115734316Y-100350580D02*
X115734316Y-99350580D01*
X115639078Y-99493438D01*
X115543840Y-99588676D01*
X115448601Y-99636295D01*
X116353363Y-99350580D02*
X117020030Y-99350580D01*
X116591459Y-100350580D01*
D10*
X111760000Y-100076000D02*
X106172000Y-104394000D01*
X111760000Y-98298000D02*
X105918000Y-101854000D01*
D11*
X112279204Y-92636600D02*
X112279204Y-91636600D01*
X112517300Y-91636600D01*
X112660157Y-91684220D01*
X112755395Y-91779458D01*
X112803014Y-91874696D01*
X112850633Y-92065172D01*
X112850633Y-92208029D01*
X112803014Y-92398505D01*
X112755395Y-92493743D01*
X112660157Y-92588981D01*
X112517300Y-92636600D01*
X112279204Y-92636600D01*
X113183966Y-91636600D02*
X113850633Y-91636600D01*
X113422061Y-92636600D01*
X112272060Y-96261940D02*
X112891107Y-96261940D01*
X112557774Y-96642893D01*
X112700631Y-96642893D01*
X112795869Y-96690512D01*
X112843488Y-96738131D01*
X112891107Y-96833369D01*
X112891107Y-97071464D01*
X112843488Y-97166702D01*
X112795869Y-97214321D01*
X112700631Y-97261940D01*
X112414917Y-97261940D01*
X112319679Y-97214321D01*
X112272060Y-97166702D01*
X113510155Y-96261940D02*
X113605393Y-96261940D01*
X113700631Y-96309560D01*
X113748250Y-96357179D01*
X113795869Y-96452417D01*
X113843488Y-96642893D01*
X113843488Y-96880988D01*
X113795869Y-97071464D01*
X113748250Y-97166702D01*
X113700631Y-97214321D01*
X113605393Y-97261940D01*
X113510155Y-97261940D01*
X113414917Y-97214321D01*
X113367298Y-97166702D01*
X113319679Y-97071464D01*
X113272060Y-96880988D01*
X113272060Y-96642893D01*
X113319679Y-96452417D01*
X113367298Y-96357179D01*
X113414917Y-96309560D01*
X113510155Y-96261940D01*
X114462536Y-96261940D02*
X114557774Y-96261940D01*
X114653012Y-96309560D01*
X114700631Y-96357179D01*
X114748250Y-96452417D01*
X114795869Y-96642893D01*
X114795869Y-96880988D01*
X114748250Y-97071464D01*
X114700631Y-97166702D01*
X114653012Y-97214321D01*
X114557774Y-97261940D01*
X114462536Y-97261940D01*
X114367298Y-97214321D01*
X114319679Y-97166702D01*
X114272060Y-97071464D01*
X114224440Y-96880988D01*
X114224440Y-96642893D01*
X114272060Y-96452417D01*
X114319679Y-96357179D01*
X114367298Y-96309560D01*
X114462536Y-96261940D01*
X115224440Y-97166702D02*
X115272060Y-97214321D01*
X115224440Y-97261940D01*
X115176821Y-97214321D01*
X115224440Y-97166702D01*
X115224440Y-97261940D01*
X116224440Y-97261940D02*
X115653012Y-97261940D01*
X115938726Y-97261940D02*
X115938726Y-96261940D01*
X115843488Y-96404798D01*
X115748250Y-96500036D01*
X115653012Y-96547655D01*
D10*
X112014000Y-103378000D02*
X106172000Y-109728000D01*
D11*
X112534534Y-103604320D02*
X112534534Y-102604320D01*
X112772629Y-102604320D01*
X112915486Y-102651940D01*
X113010724Y-102747178D01*
X113058343Y-102842416D01*
X113105962Y-103032892D01*
X113105962Y-103175749D01*
X113058343Y-103366225D01*
X113010724Y-103461463D01*
X112915486Y-103556701D01*
X112772629Y-103604320D01*
X112534534Y-103604320D01*
X114058343Y-103604320D02*
X113486915Y-103604320D01*
X113772629Y-103604320D02*
X113772629Y-102604320D01*
X113677391Y-102747178D01*
X113582153Y-102842416D01*
X113486915Y-102890035D01*
X114677391Y-102604320D02*
X114772629Y-102604320D01*
X114867867Y-102651940D01*
X114915486Y-102699559D01*
X114963105Y-102794797D01*
X115010724Y-102985273D01*
X115010724Y-103223368D01*
X114963105Y-103413844D01*
X114915486Y-103509082D01*
X114867867Y-103556701D01*
X114772629Y-103604320D01*
X114677391Y-103604320D01*
X114582153Y-103556701D01*
X114534534Y-103509082D01*
X114486915Y-103413844D01*
X114439296Y-103223368D01*
X114439296Y-102985273D01*
X114486915Y-102794797D01*
X114534534Y-102699559D01*
X114582153Y-102651940D01*
X114677391Y-102604320D01*
X112684157Y-101874580D02*
X112112728Y-101874580D01*
X112398442Y-101874580D02*
X112398442Y-100874580D01*
X112303204Y-101017438D01*
X112207966Y-101112676D01*
X112112728Y-101160295D01*
X113303204Y-100874580D02*
X113398442Y-100874580D01*
X113493680Y-100922200D01*
X113541300Y-100969819D01*
X113588919Y-101065057D01*
X113636538Y-101255533D01*
X113636538Y-101493628D01*
X113588919Y-101684104D01*
X113541300Y-101779342D01*
X113493680Y-101826961D01*
X113398442Y-101874580D01*
X113303204Y-101874580D01*
X113207966Y-101826961D01*
X113160347Y-101779342D01*
X113112728Y-101684104D01*
X113065109Y-101493628D01*
X113065109Y-101255533D01*
X113112728Y-101065057D01*
X113160347Y-100969819D01*
X113207966Y-100922200D01*
X113303204Y-100874580D01*
X114255585Y-100874580D02*
X114350823Y-100874580D01*
X114446061Y-100922200D01*
X114493680Y-100969819D01*
X114541300Y-101065057D01*
X114588919Y-101255533D01*
X114588919Y-101493628D01*
X114541300Y-101684104D01*
X114493680Y-101779342D01*
X114446061Y-101826961D01*
X114350823Y-101874580D01*
X114255585Y-101874580D01*
X114160347Y-101826961D01*
X114112728Y-101779342D01*
X114065109Y-101684104D01*
X114017490Y-101493628D01*
X114017490Y-101255533D01*
X114065109Y-101065057D01*
X114112728Y-100969819D01*
X114160347Y-100922200D01*
X114255585Y-100874580D01*
X115017490Y-101779342D02*
X115065109Y-101826961D01*
X115017490Y-101874580D01*
X114969871Y-101826961D01*
X115017490Y-101779342D01*
X115017490Y-101874580D01*
X116017490Y-101874580D02*
X115446061Y-101874580D01*
X115731776Y-101874580D02*
X115731776Y-100874580D01*
X115636538Y-101017438D01*
X115541300Y-101112676D01*
X115446061Y-101160295D01*
X116350823Y-100874580D02*
X117017490Y-100874580D01*
X116588919Y-101874580D01*
D10*
X112014000Y-96774000D02*
X105664000Y-99568000D01*
X112014000Y-84582000D02*
X105918000Y-78994000D01*
X112014000Y-93726000D02*
X105410000Y-94234000D01*
X111760000Y-101346000D02*
X106172000Y-107188000D01*
D11*
X112605654Y-105232460D02*
X112605654Y-104232460D01*
X112843749Y-104232460D01*
X112986606Y-104280080D01*
X113081844Y-104375318D01*
X113129463Y-104470556D01*
X113177082Y-104661032D01*
X113177082Y-104803889D01*
X113129463Y-104994365D01*
X113081844Y-105089603D01*
X112986606Y-105184841D01*
X112843749Y-105232460D01*
X112605654Y-105232460D01*
X114129463Y-105232460D02*
X113558035Y-105232460D01*
X113843749Y-105232460D02*
X113843749Y-104232460D01*
X113748511Y-104375318D01*
X113653273Y-104470556D01*
X113558035Y-104518175D01*
X115081844Y-105232460D02*
X114510416Y-105232460D01*
X114796130Y-105232460D02*
X114796130Y-104232460D01*
X114700892Y-104375318D01*
X114605654Y-104470556D01*
X114510416Y-104518175D01*
D10*
X111760000Y-87376000D02*
X105664000Y-84074000D01*
D11*
X112279204Y-98824040D02*
X112279204Y-97824040D01*
X112517300Y-97824040D01*
X112660157Y-97871660D01*
X112755395Y-97966898D01*
X112803014Y-98062136D01*
X112850633Y-98252612D01*
X112850633Y-98395469D01*
X112803014Y-98585945D01*
X112755395Y-98681183D01*
X112660157Y-98776421D01*
X112517300Y-98824040D01*
X112279204Y-98824040D01*
X113326823Y-98824040D02*
X113517300Y-98824040D01*
X113612538Y-98776421D01*
X113660157Y-98728802D01*
X113755395Y-98585945D01*
X113803014Y-98395469D01*
X113803014Y-98014517D01*
X113755395Y-97919279D01*
X113707776Y-97871660D01*
X113612538Y-97824040D01*
X113422061Y-97824040D01*
X113326823Y-97871660D01*
X113279204Y-97919279D01*
X113231585Y-98014517D01*
X113231585Y-98252612D01*
X113279204Y-98347850D01*
X113326823Y-98395469D01*
X113422061Y-98443088D01*
X113612538Y-98443088D01*
X113707776Y-98395469D01*
X113755395Y-98347850D01*
X113803014Y-98252612D01*
X112398584Y-78481180D02*
X112398584Y-77481180D01*
X112636680Y-77481180D01*
X112779537Y-77528800D01*
X112874775Y-77624038D01*
X112922394Y-77719276D01*
X112970013Y-77909752D01*
X112970013Y-78052609D01*
X112922394Y-78243085D01*
X112874775Y-78338323D01*
X112779537Y-78433561D01*
X112636680Y-78481180D01*
X112398584Y-78481180D01*
X113589060Y-77481180D02*
X113684299Y-77481180D01*
X113779537Y-77528800D01*
X113827156Y-77576419D01*
X113874775Y-77671657D01*
X113922394Y-77862133D01*
X113922394Y-78100228D01*
X113874775Y-78290704D01*
X113827156Y-78385942D01*
X113779537Y-78433561D01*
X113684299Y-78481180D01*
X113589060Y-78481180D01*
X113493822Y-78433561D01*
X113446203Y-78385942D01*
X113398584Y-78290704D01*
X113350965Y-78100228D01*
X113350965Y-77862133D01*
X113398584Y-77671657D01*
X113446203Y-77576419D01*
X113493822Y-77528800D01*
X113589060Y-77481180D01*
D10*
X112014000Y-90678000D02*
X105664000Y-89154000D01*
D11*
X112274124Y-91112600D02*
X112274124Y-90112600D01*
X112512220Y-90112600D01*
X112655077Y-90160220D01*
X112750315Y-90255458D01*
X112797934Y-90350696D01*
X112845553Y-90541172D01*
X112845553Y-90684029D01*
X112797934Y-90874505D01*
X112750315Y-90969743D01*
X112655077Y-91064981D01*
X112512220Y-91112600D01*
X112274124Y-91112600D01*
X113702696Y-90112600D02*
X113512220Y-90112600D01*
X113416981Y-90160220D01*
X113369362Y-90207839D01*
X113274124Y-90350696D01*
X113226505Y-90541172D01*
X113226505Y-90922124D01*
X113274124Y-91017362D01*
X113321743Y-91064981D01*
X113416981Y-91112600D01*
X113607458Y-91112600D01*
X113702696Y-91064981D01*
X113750315Y-91017362D01*
X113797934Y-90922124D01*
X113797934Y-90684029D01*
X113750315Y-90588791D01*
X113702696Y-90541172D01*
X113607458Y-90493553D01*
X113416981Y-90493553D01*
X113321743Y-90541172D01*
X113274124Y-90588791D01*
X113226505Y-90684029D01*
X112398584Y-81798420D02*
X112398584Y-80798420D01*
X112636680Y-80798420D01*
X112779537Y-80846040D01*
X112874775Y-80941278D01*
X112922394Y-81036516D01*
X112970013Y-81226992D01*
X112970013Y-81369849D01*
X112922394Y-81560325D01*
X112874775Y-81655563D01*
X112779537Y-81750801D01*
X112636680Y-81798420D01*
X112398584Y-81798420D01*
X113350965Y-80893659D02*
X113398584Y-80846040D01*
X113493822Y-80798420D01*
X113731918Y-80798420D01*
X113827156Y-80846040D01*
X113874775Y-80893659D01*
X113922394Y-80988897D01*
X113922394Y-81084135D01*
X113874775Y-81226992D01*
X113303346Y-81798420D01*
X113922394Y-81798420D01*
X112434144Y-86626960D02*
X112434144Y-85626960D01*
X112672240Y-85626960D01*
X112815097Y-85674580D01*
X112910335Y-85769818D01*
X112957954Y-85865056D01*
X113005573Y-86055532D01*
X113005573Y-86198389D01*
X112957954Y-86388865D01*
X112910335Y-86484103D01*
X112815097Y-86579341D01*
X112672240Y-86626960D01*
X112434144Y-86626960D01*
X113338906Y-85626960D02*
X113957954Y-85626960D01*
X113624620Y-86007913D01*
X113767478Y-86007913D01*
X113862716Y-86055532D01*
X113910335Y-86103151D01*
X113957954Y-86198389D01*
X113957954Y-86436484D01*
X113910335Y-86531722D01*
X113862716Y-86579341D01*
X113767478Y-86626960D01*
X113481763Y-86626960D01*
X113386525Y-86579341D01*
X113338906Y-86531722D01*
X112181949Y-94704920D02*
X112800997Y-94704920D01*
X112467663Y-95085873D01*
X112610520Y-95085873D01*
X112705759Y-95133492D01*
X112753378Y-95181111D01*
X112800997Y-95276349D01*
X112800997Y-95514444D01*
X112753378Y-95609682D01*
X112705759Y-95657301D01*
X112610520Y-95704920D01*
X112324806Y-95704920D01*
X112229568Y-95657301D01*
X112181949Y-95609682D01*
X113420044Y-94704920D02*
X113515282Y-94704920D01*
X113610520Y-94752540D01*
X113658140Y-94800159D01*
X113705759Y-94895397D01*
X113753378Y-95085873D01*
X113753378Y-95323968D01*
X113705759Y-95514444D01*
X113658140Y-95609682D01*
X113610520Y-95657301D01*
X113515282Y-95704920D01*
X113420044Y-95704920D01*
X113324806Y-95657301D01*
X113277187Y-95609682D01*
X113229568Y-95514444D01*
X113181949Y-95323968D01*
X113181949Y-95085873D01*
X113229568Y-94895397D01*
X113277187Y-94800159D01*
X113324806Y-94752540D01*
X113420044Y-94704920D01*
X114372425Y-94704920D02*
X114467663Y-94704920D01*
X114562901Y-94752540D01*
X114610520Y-94800159D01*
X114658140Y-94895397D01*
X114705759Y-95085873D01*
X114705759Y-95323968D01*
X114658140Y-95514444D01*
X114610520Y-95609682D01*
X114562901Y-95657301D01*
X114467663Y-95704920D01*
X114372425Y-95704920D01*
X114277187Y-95657301D01*
X114229568Y-95609682D01*
X114181949Y-95514444D01*
X114134330Y-95323968D01*
X114134330Y-95085873D01*
X114181949Y-94895397D01*
X114229568Y-94800159D01*
X114277187Y-94752540D01*
X114372425Y-94704920D01*
X115134330Y-95609682D02*
X115181949Y-95657301D01*
X115134330Y-95704920D01*
X115086711Y-95657301D01*
X115134330Y-95609682D01*
X115134330Y-95704920D01*
X116134330Y-95704920D02*
X115562901Y-95704920D01*
X115848616Y-95704920D02*
X115848616Y-94704920D01*
X115753378Y-94847778D01*
X115658140Y-94943016D01*
X115562901Y-94990635D01*
X116467663Y-94704920D02*
X117134330Y-94704920D01*
X116705759Y-95704920D01*
D10*
X118110000Y-108204000D02*
X110236000Y-114046000D01*
X130810000Y-108204000D02*
X130302000Y-114554000D01*
D11*
X125668779Y-105338714D02*
X126668779Y-105338714D01*
X126668779Y-105576809D01*
X126621160Y-105719666D01*
X126525921Y-105814904D01*
X126430683Y-105862523D01*
X126240207Y-105910142D01*
X126097350Y-105910142D01*
X125906874Y-105862523D01*
X125811636Y-105814904D01*
X125716398Y-105719666D01*
X125668779Y-105576809D01*
X125668779Y-105338714D01*
X125668779Y-106862523D02*
X125668779Y-106291095D01*
X125668779Y-106576809D02*
X126668779Y-106576809D01*
X126525921Y-106481571D01*
X126430683Y-106386333D01*
X126383064Y-106291095D01*
X126668779Y-107719666D02*
X126668779Y-107529190D01*
X126621160Y-107433952D01*
X126573540Y-107386333D01*
X126430683Y-107291095D01*
X126240207Y-107243476D01*
X125859255Y-107243476D01*
X125764017Y-107291095D01*
X125716398Y-107338714D01*
X125668779Y-107433952D01*
X125668779Y-107624428D01*
X125716398Y-107719666D01*
X125764017Y-107767285D01*
X125859255Y-107814904D01*
X126097350Y-107814904D01*
X126192588Y-107767285D01*
X126240207Y-107719666D01*
X126287826Y-107624428D01*
X126287826Y-107433952D01*
X126240207Y-107338714D01*
X126192588Y-107291095D01*
X126097350Y-107243476D01*
D10*
X116078000Y-108204000D02*
X107442000Y-114554000D01*
X124460000Y-108204000D02*
X120142000Y-114554000D01*
D11*
X122089159Y-104333254D02*
X122089159Y-104428492D01*
X122041540Y-104523730D01*
X121993920Y-104571349D01*
X121898682Y-104618968D01*
X121708206Y-104666587D01*
X121470111Y-104666587D01*
X121279635Y-104618968D01*
X121184397Y-104571349D01*
X121136778Y-104523730D01*
X121089159Y-104428492D01*
X121089159Y-104333254D01*
X121136778Y-104238016D01*
X121184397Y-104190397D01*
X121279635Y-104142778D01*
X121470111Y-104095159D01*
X121708206Y-104095159D01*
X121898682Y-104142778D01*
X121993920Y-104190397D01*
X122041540Y-104238016D01*
X122089159Y-104333254D01*
X122089159Y-105285635D02*
X122089159Y-105380873D01*
X122041540Y-105476111D01*
X121993920Y-105523730D01*
X121898682Y-105571349D01*
X121708206Y-105618968D01*
X121470111Y-105618968D01*
X121279635Y-105571349D01*
X121184397Y-105523730D01*
X121136778Y-105476111D01*
X121089159Y-105380873D01*
X121089159Y-105285635D01*
X121136778Y-105190397D01*
X121184397Y-105142778D01*
X121279635Y-105095159D01*
X121470111Y-105047540D01*
X121708206Y-105047540D01*
X121898682Y-105095159D01*
X121993920Y-105142778D01*
X122041540Y-105190397D01*
X122089159Y-105285635D01*
X121089159Y-106571349D02*
X121089159Y-105999920D01*
X121089159Y-106285635D02*
X122089159Y-106285635D01*
X121946301Y-106190397D01*
X121851063Y-106095159D01*
X121803444Y-105999920D01*
X121184397Y-106999920D02*
X121136778Y-107047540D01*
X121089159Y-106999920D01*
X121136778Y-106952301D01*
X121184397Y-106999920D01*
X121089159Y-106999920D01*
X121089159Y-107999920D02*
X121089159Y-107428492D01*
X121089159Y-107714206D02*
X122089159Y-107714206D01*
X121946301Y-107618968D01*
X121851063Y-107523730D01*
X121803444Y-107428492D01*
D10*
X144018000Y-107950000D02*
X151130000Y-113792000D01*
X119888000Y-108204000D02*
X112268000Y-114554000D01*
D11*
X132835899Y-104193554D02*
X132835899Y-104288792D01*
X132788280Y-104384030D01*
X132740660Y-104431649D01*
X132645422Y-104479268D01*
X132454946Y-104526887D01*
X132216851Y-104526887D01*
X132026375Y-104479268D01*
X131931137Y-104431649D01*
X131883518Y-104384030D01*
X131835899Y-104288792D01*
X131835899Y-104193554D01*
X131883518Y-104098316D01*
X131931137Y-104050697D01*
X132026375Y-104003078D01*
X132216851Y-103955459D01*
X132454946Y-103955459D01*
X132645422Y-104003078D01*
X132740660Y-104050697D01*
X132788280Y-104098316D01*
X132835899Y-104193554D01*
X132835899Y-105145935D02*
X132835899Y-105241173D01*
X132788280Y-105336411D01*
X132740660Y-105384030D01*
X132645422Y-105431649D01*
X132454946Y-105479268D01*
X132216851Y-105479268D01*
X132026375Y-105431649D01*
X131931137Y-105384030D01*
X131883518Y-105336411D01*
X131835899Y-105241173D01*
X131835899Y-105145935D01*
X131883518Y-105050697D01*
X131931137Y-105003078D01*
X132026375Y-104955459D01*
X132216851Y-104907840D01*
X132454946Y-104907840D01*
X132645422Y-104955459D01*
X132740660Y-105003078D01*
X132788280Y-105050697D01*
X132835899Y-105145935D01*
X132407327Y-106050697D02*
X132454946Y-105955459D01*
X132502565Y-105907840D01*
X132597803Y-105860220D01*
X132645422Y-105860220D01*
X132740660Y-105907840D01*
X132788280Y-105955459D01*
X132835899Y-106050697D01*
X132835899Y-106241173D01*
X132788280Y-106336411D01*
X132740660Y-106384030D01*
X132645422Y-106431649D01*
X132597803Y-106431649D01*
X132502565Y-106384030D01*
X132454946Y-106336411D01*
X132407327Y-106241173D01*
X132407327Y-106050697D01*
X132359708Y-105955459D01*
X132312089Y-105907840D01*
X132216851Y-105860220D01*
X132026375Y-105860220D01*
X131931137Y-105907840D01*
X131883518Y-105955459D01*
X131835899Y-106050697D01*
X131835899Y-106241173D01*
X131883518Y-106336411D01*
X131931137Y-106384030D01*
X132026375Y-106431649D01*
X132216851Y-106431649D01*
X132312089Y-106384030D01*
X132359708Y-106336411D01*
X132407327Y-106241173D01*
X131931137Y-106860220D02*
X131883518Y-106907840D01*
X131835899Y-106860220D01*
X131883518Y-106812601D01*
X131931137Y-106860220D01*
X131835899Y-106860220D01*
X132835899Y-107241173D02*
X132835899Y-107860220D01*
X132454946Y-107526887D01*
X132454946Y-107669744D01*
X132407327Y-107764982D01*
X132359708Y-107812601D01*
X132264470Y-107860220D01*
X132026375Y-107860220D01*
X131931137Y-107812601D01*
X131883518Y-107764982D01*
X131835899Y-107669744D01*
X131835899Y-107384030D01*
X131883518Y-107288792D01*
X131931137Y-107241173D01*
D10*
X127762000Y-108204000D02*
X125222000Y-114300000D01*
D11*
X117911619Y-105465714D02*
X118911619Y-105465714D01*
X118911619Y-105703809D01*
X118864000Y-105846666D01*
X118768761Y-105941904D01*
X118673523Y-105989523D01*
X118483047Y-106037142D01*
X118340190Y-106037142D01*
X118149714Y-105989523D01*
X118054476Y-105941904D01*
X117959238Y-105846666D01*
X117911619Y-105703809D01*
X117911619Y-105465714D01*
X117911619Y-106989523D02*
X117911619Y-106418095D01*
X117911619Y-106703809D02*
X118911619Y-106703809D01*
X118768761Y-106608571D01*
X118673523Y-106513333D01*
X118625904Y-106418095D01*
X118911619Y-107322857D02*
X118911619Y-107941904D01*
X118530666Y-107608571D01*
X118530666Y-107751428D01*
X118483047Y-107846666D01*
X118435428Y-107894285D01*
X118340190Y-107941904D01*
X118102095Y-107941904D01*
X118006857Y-107894285D01*
X117959238Y-107846666D01*
X117911619Y-107751428D01*
X117911619Y-107465714D01*
X117959238Y-107370476D01*
X118006857Y-107322857D01*
X127119119Y-105326014D02*
X128119119Y-105326014D01*
X128119119Y-105564109D01*
X128071500Y-105706966D01*
X127976261Y-105802204D01*
X127881023Y-105849823D01*
X127690547Y-105897442D01*
X127547690Y-105897442D01*
X127357214Y-105849823D01*
X127261976Y-105802204D01*
X127166738Y-105706966D01*
X127119119Y-105564109D01*
X127119119Y-105326014D01*
X127119119Y-106849823D02*
X127119119Y-106278395D01*
X127119119Y-106564109D02*
X128119119Y-106564109D01*
X127976261Y-106468871D01*
X127881023Y-106373633D01*
X127833404Y-106278395D01*
X128119119Y-107183157D02*
X128119119Y-107849823D01*
X127119119Y-107421252D01*
D10*
X133858000Y-108204000D02*
X135382000Y-114554000D01*
X121412000Y-108204000D02*
X115062000Y-114554000D01*
D11*
X123785879Y-103351603D02*
X123785879Y-103446841D01*
X123738260Y-103542080D01*
X123690640Y-103589699D01*
X123595402Y-103637318D01*
X123404926Y-103684937D01*
X123166831Y-103684937D01*
X122976355Y-103637318D01*
X122881117Y-103589699D01*
X122833498Y-103542080D01*
X122785879Y-103446841D01*
X122785879Y-103351603D01*
X122833498Y-103256365D01*
X122881117Y-103208746D01*
X122976355Y-103161127D01*
X123166831Y-103113508D01*
X123404926Y-103113508D01*
X123595402Y-103161127D01*
X123690640Y-103208746D01*
X123738260Y-103256365D01*
X123785879Y-103351603D01*
X123785879Y-104303984D02*
X123785879Y-104399222D01*
X123738260Y-104494460D01*
X123690640Y-104542080D01*
X123595402Y-104589699D01*
X123404926Y-104637318D01*
X123166831Y-104637318D01*
X122976355Y-104589699D01*
X122881117Y-104542080D01*
X122833498Y-104494460D01*
X122785879Y-104399222D01*
X122785879Y-104303984D01*
X122833498Y-104208746D01*
X122881117Y-104161127D01*
X122976355Y-104113508D01*
X123166831Y-104065889D01*
X123404926Y-104065889D01*
X123595402Y-104113508D01*
X123690640Y-104161127D01*
X123738260Y-104208746D01*
X123785879Y-104303984D01*
X122785879Y-105589699D02*
X122785879Y-105018270D01*
X122785879Y-105303984D02*
X123785879Y-105303984D01*
X123643021Y-105208746D01*
X123547783Y-105113508D01*
X123500164Y-105018270D01*
X122881117Y-106018270D02*
X122833498Y-106065889D01*
X122785879Y-106018270D01*
X122833498Y-105970651D01*
X122881117Y-106018270D01*
X122785879Y-106018270D01*
X122785879Y-107018270D02*
X122785879Y-106446841D01*
X122785879Y-106732556D02*
X123785879Y-106732556D01*
X123643021Y-106637318D01*
X123547783Y-106542080D01*
X123500164Y-106446841D01*
X123785879Y-107351603D02*
X123785879Y-108018270D01*
X122785879Y-107589699D01*
X136510733Y-105527623D02*
X136510733Y-106003814D01*
X136225019Y-105432385D02*
X137225019Y-105765719D01*
X136225019Y-106099052D01*
X136225019Y-106956195D02*
X136225019Y-106384766D01*
X136225019Y-106670480D02*
X137225019Y-106670480D01*
X137082161Y-106575242D01*
X136986923Y-106480004D01*
X136939304Y-106384766D01*
X137225019Y-107813338D02*
X137225019Y-107622861D01*
X137177400Y-107527623D01*
X137129780Y-107480004D01*
X136986923Y-107384766D01*
X136796447Y-107337147D01*
X136415495Y-107337147D01*
X136320257Y-107384766D01*
X136272638Y-107432385D01*
X136225019Y-107527623D01*
X136225019Y-107718100D01*
X136272638Y-107813338D01*
X136320257Y-107860957D01*
X136415495Y-107908576D01*
X136653590Y-107908576D01*
X136748828Y-107860957D01*
X136796447Y-107813338D01*
X136844066Y-107718100D01*
X136844066Y-107527623D01*
X136796447Y-107432385D01*
X136748828Y-107384766D01*
X136653590Y-107337147D01*
D10*
X138684000Y-108458000D02*
X143002000Y-114046000D01*
X136906000Y-108458000D02*
X140462000Y-114300000D01*
D11*
X131365239Y-104165614D02*
X131365239Y-104260852D01*
X131317620Y-104356090D01*
X131270000Y-104403709D01*
X131174762Y-104451328D01*
X130984286Y-104498947D01*
X130746191Y-104498947D01*
X130555715Y-104451328D01*
X130460477Y-104403709D01*
X130412858Y-104356090D01*
X130365239Y-104260852D01*
X130365239Y-104165614D01*
X130412858Y-104070376D01*
X130460477Y-104022757D01*
X130555715Y-103975138D01*
X130746191Y-103927519D01*
X130984286Y-103927519D01*
X131174762Y-103975138D01*
X131270000Y-104022757D01*
X131317620Y-104070376D01*
X131365239Y-104165614D01*
X131365239Y-105117995D02*
X131365239Y-105213233D01*
X131317620Y-105308471D01*
X131270000Y-105356090D01*
X131174762Y-105403709D01*
X130984286Y-105451328D01*
X130746191Y-105451328D01*
X130555715Y-105403709D01*
X130460477Y-105356090D01*
X130412858Y-105308471D01*
X130365239Y-105213233D01*
X130365239Y-105117995D01*
X130412858Y-105022757D01*
X130460477Y-104975138D01*
X130555715Y-104927519D01*
X130746191Y-104879900D01*
X130984286Y-104879900D01*
X131174762Y-104927519D01*
X131270000Y-104975138D01*
X131317620Y-105022757D01*
X131365239Y-105117995D01*
X130936667Y-106022757D02*
X130984286Y-105927519D01*
X131031905Y-105879900D01*
X131127143Y-105832280D01*
X131174762Y-105832280D01*
X131270000Y-105879900D01*
X131317620Y-105927519D01*
X131365239Y-106022757D01*
X131365239Y-106213233D01*
X131317620Y-106308471D01*
X131270000Y-106356090D01*
X131174762Y-106403709D01*
X131127143Y-106403709D01*
X131031905Y-106356090D01*
X130984286Y-106308471D01*
X130936667Y-106213233D01*
X130936667Y-106022757D01*
X130889048Y-105927519D01*
X130841429Y-105879900D01*
X130746191Y-105832280D01*
X130555715Y-105832280D01*
X130460477Y-105879900D01*
X130412858Y-105927519D01*
X130365239Y-106022757D01*
X130365239Y-106213233D01*
X130412858Y-106308471D01*
X130460477Y-106356090D01*
X130555715Y-106403709D01*
X130746191Y-106403709D01*
X130841429Y-106356090D01*
X130889048Y-106308471D01*
X130936667Y-106213233D01*
X130460477Y-106832280D02*
X130412858Y-106879900D01*
X130365239Y-106832280D01*
X130412858Y-106784661D01*
X130460477Y-106832280D01*
X130365239Y-106832280D01*
X131365239Y-107784661D02*
X131365239Y-107308471D01*
X130889048Y-107260852D01*
X130936667Y-107308471D01*
X130984286Y-107403709D01*
X130984286Y-107641804D01*
X130936667Y-107737042D01*
X130889048Y-107784661D01*
X130793810Y-107832280D01*
X130555715Y-107832280D01*
X130460477Y-107784661D01*
X130412858Y-107737042D01*
X130365239Y-107641804D01*
X130365239Y-107403709D01*
X130412858Y-107308471D01*
X130460477Y-107260852D01*
X142908993Y-105710503D02*
X142908993Y-106186694D01*
X142623279Y-105615265D02*
X143623279Y-105948599D01*
X142623279Y-106281932D01*
X142623279Y-107139075D02*
X142623279Y-106567646D01*
X142623279Y-106853360D02*
X143623279Y-106853360D01*
X143480421Y-106758122D01*
X143385183Y-106662884D01*
X143337564Y-106567646D01*
X143528040Y-107520027D02*
X143575660Y-107567646D01*
X143623279Y-107662884D01*
X143623279Y-107900980D01*
X143575660Y-107996218D01*
X143528040Y-108043837D01*
X143432802Y-108091456D01*
X143337564Y-108091456D01*
X143194707Y-108043837D01*
X142623279Y-107472408D01*
X142623279Y-108091456D01*
D10*
X141732000Y-108204000D02*
X148336000Y-114046000D01*
D11*
X139573973Y-105647003D02*
X139573973Y-106123194D01*
X139288259Y-105551765D02*
X140288259Y-105885099D01*
X139288259Y-106218432D01*
X139288259Y-107075575D02*
X139288259Y-106504146D01*
X139288259Y-106789860D02*
X140288259Y-106789860D01*
X140145401Y-106694622D01*
X140050163Y-106599384D01*
X140002544Y-106504146D01*
X139954925Y-107932718D02*
X139288259Y-107932718D01*
X140335878Y-107694622D02*
X139621592Y-107456527D01*
X139621592Y-108075575D01*
X137981393Y-105619063D02*
X137981393Y-106095254D01*
X137695679Y-105523825D02*
X138695679Y-105857159D01*
X137695679Y-106190492D01*
X137695679Y-107047635D02*
X137695679Y-106476206D01*
X137695679Y-106761920D02*
X138695679Y-106761920D01*
X138552821Y-106666682D01*
X138457583Y-106571444D01*
X138409964Y-106476206D01*
X138695679Y-107952397D02*
X138695679Y-107476206D01*
X138219488Y-107428587D01*
X138267107Y-107476206D01*
X138314726Y-107571444D01*
X138314726Y-107809540D01*
X138267107Y-107904778D01*
X138219488Y-107952397D01*
X138124250Y-108000016D01*
X137886155Y-108000016D01*
X137790917Y-107952397D01*
X137743298Y-107904778D01*
X137695679Y-107809540D01*
X137695679Y-107571444D01*
X137743298Y-107476206D01*
X137790917Y-107428587D01*
D10*
X135382000Y-108204000D02*
X138176000Y-114554000D01*
X123190000Y-108204000D02*
X117602000Y-114300000D01*
X132334000Y-108204000D02*
X132842000Y-114808000D01*
X139954000Y-108458000D02*
X145796000Y-114046000D01*
D11*
X141288473Y-105647003D02*
X141288473Y-106123194D01*
X141002759Y-105551765D02*
X142002759Y-105885099D01*
X141002759Y-106218432D01*
X141002759Y-107075575D02*
X141002759Y-106504146D01*
X141002759Y-106789860D02*
X142002759Y-106789860D01*
X141859901Y-106694622D01*
X141764663Y-106599384D01*
X141717044Y-106504146D01*
X142002759Y-107408908D02*
X142002759Y-108027956D01*
X141621806Y-107694622D01*
X141621806Y-107837480D01*
X141574187Y-107932718D01*
X141526568Y-107980337D01*
X141431330Y-108027956D01*
X141193235Y-108027956D01*
X141097997Y-107980337D01*
X141050378Y-107932718D01*
X141002759Y-107837480D01*
X141002759Y-107551765D01*
X141050378Y-107456527D01*
X141097997Y-107408908D01*
D10*
X125984000Y-108458000D02*
X122682000Y-114554000D01*
D11*
X134946093Y-105497143D02*
X134946093Y-105973334D01*
X134660379Y-105401905D02*
X135660379Y-105735239D01*
X134660379Y-106068572D01*
X134660379Y-106925715D02*
X134660379Y-106354286D01*
X134660379Y-106640000D02*
X135660379Y-106640000D01*
X135517521Y-106544762D01*
X135422283Y-106449524D01*
X135374664Y-106354286D01*
X135660379Y-107259048D02*
X135660379Y-107925715D01*
X134660379Y-107497143D01*
X116387619Y-105465714D02*
X117387619Y-105465714D01*
X117387619Y-105703809D01*
X117340000Y-105846666D01*
X117244761Y-105941904D01*
X117149523Y-105989523D01*
X116959047Y-106037142D01*
X116816190Y-106037142D01*
X116625714Y-105989523D01*
X116530476Y-105941904D01*
X116435238Y-105846666D01*
X116387619Y-105703809D01*
X116387619Y-105465714D01*
X116387619Y-106989523D02*
X116387619Y-106418095D01*
X116387619Y-106703809D02*
X117387619Y-106703809D01*
X117244761Y-106608571D01*
X117149523Y-106513333D01*
X117101904Y-106418095D01*
X117292380Y-107370476D02*
X117340000Y-107418095D01*
X117387619Y-107513333D01*
X117387619Y-107751428D01*
X117340000Y-107846666D01*
X117292380Y-107894285D01*
X117197142Y-107941904D01*
X117101904Y-107941904D01*
X116959047Y-107894285D01*
X116387619Y-107322857D01*
X116387619Y-107941904D01*
D10*
X129286000Y-108204000D02*
X127762000Y-114554000D01*
D11*
X129831079Y-103328743D02*
X129831079Y-103423981D01*
X129783460Y-103519220D01*
X129735840Y-103566839D01*
X129640602Y-103614458D01*
X129450126Y-103662077D01*
X129212031Y-103662077D01*
X129021555Y-103614458D01*
X128926317Y-103566839D01*
X128878698Y-103519220D01*
X128831079Y-103423981D01*
X128831079Y-103328743D01*
X128878698Y-103233505D01*
X128926317Y-103185886D01*
X129021555Y-103138267D01*
X129212031Y-103090648D01*
X129450126Y-103090648D01*
X129640602Y-103138267D01*
X129735840Y-103185886D01*
X129783460Y-103233505D01*
X129831079Y-103328743D01*
X129831079Y-104281124D02*
X129831079Y-104376362D01*
X129783460Y-104471600D01*
X129735840Y-104519220D01*
X129640602Y-104566839D01*
X129450126Y-104614458D01*
X129212031Y-104614458D01*
X129021555Y-104566839D01*
X128926317Y-104519220D01*
X128878698Y-104471600D01*
X128831079Y-104376362D01*
X128831079Y-104281124D01*
X128878698Y-104185886D01*
X128926317Y-104138267D01*
X129021555Y-104090648D01*
X129212031Y-104043029D01*
X129450126Y-104043029D01*
X129640602Y-104090648D01*
X129735840Y-104138267D01*
X129783460Y-104185886D01*
X129831079Y-104281124D01*
X129402507Y-105185886D02*
X129450126Y-105090648D01*
X129497745Y-105043029D01*
X129592983Y-104995410D01*
X129640602Y-104995410D01*
X129735840Y-105043029D01*
X129783460Y-105090648D01*
X129831079Y-105185886D01*
X129831079Y-105376362D01*
X129783460Y-105471600D01*
X129735840Y-105519220D01*
X129640602Y-105566839D01*
X129592983Y-105566839D01*
X129497745Y-105519220D01*
X129450126Y-105471600D01*
X129402507Y-105376362D01*
X129402507Y-105185886D01*
X129354888Y-105090648D01*
X129307269Y-105043029D01*
X129212031Y-104995410D01*
X129021555Y-104995410D01*
X128926317Y-105043029D01*
X128878698Y-105090648D01*
X128831079Y-105185886D01*
X128831079Y-105376362D01*
X128878698Y-105471600D01*
X128926317Y-105519220D01*
X129021555Y-105566839D01*
X129212031Y-105566839D01*
X129307269Y-105519220D01*
X129354888Y-105471600D01*
X129402507Y-105376362D01*
X128926317Y-105995410D02*
X128878698Y-106043029D01*
X128831079Y-105995410D01*
X128878698Y-105947791D01*
X128926317Y-105995410D01*
X128831079Y-105995410D01*
X128831079Y-106995410D02*
X128831079Y-106423981D01*
X128831079Y-106709696D02*
X129831079Y-106709696D01*
X129688221Y-106614458D01*
X129592983Y-106519220D01*
X129545364Y-106423981D01*
X129831079Y-107328743D02*
X129831079Y-107995410D01*
X128831079Y-107566839D01*
X119504199Y-105409834D02*
X120504199Y-105409834D01*
X120504199Y-105647929D01*
X120456580Y-105790786D01*
X120361341Y-105886024D01*
X120266103Y-105933643D01*
X120075627Y-105981262D01*
X119932770Y-105981262D01*
X119742294Y-105933643D01*
X119647056Y-105886024D01*
X119551818Y-105790786D01*
X119504199Y-105647929D01*
X119504199Y-105409834D01*
X119504199Y-106933643D02*
X119504199Y-106362215D01*
X119504199Y-106647929D02*
X120504199Y-106647929D01*
X120361341Y-106552691D01*
X120266103Y-106457453D01*
X120218484Y-106362215D01*
X120170865Y-107790786D02*
X119504199Y-107790786D01*
X120551818Y-107552691D02*
X119837532Y-107314596D01*
X119837532Y-107933643D01*
X124226059Y-105374274D02*
X125226059Y-105374274D01*
X125226059Y-105612369D01*
X125178440Y-105755226D01*
X125083201Y-105850464D01*
X124987963Y-105898083D01*
X124797487Y-105945702D01*
X124654630Y-105945702D01*
X124464154Y-105898083D01*
X124368916Y-105850464D01*
X124273678Y-105755226D01*
X124226059Y-105612369D01*
X124226059Y-105374274D01*
X124226059Y-106898083D02*
X124226059Y-106326655D01*
X124226059Y-106612369D02*
X125226059Y-106612369D01*
X125083201Y-106517131D01*
X124987963Y-106421893D01*
X124940344Y-106326655D01*
X125226059Y-107802845D02*
X125226059Y-107326655D01*
X124749868Y-107279036D01*
X124797487Y-107326655D01*
X124845106Y-107421893D01*
X124845106Y-107659988D01*
X124797487Y-107755226D01*
X124749868Y-107802845D01*
X124654630Y-107850464D01*
X124416535Y-107850464D01*
X124321297Y-107802845D01*
X124273678Y-107755226D01*
X124226059Y-107659988D01*
X124226059Y-107421893D01*
X124273678Y-107326655D01*
X124321297Y-107279036D01*
X134309099Y-104254514D02*
X134309099Y-104349752D01*
X134261480Y-104444990D01*
X134213860Y-104492609D01*
X134118622Y-104540228D01*
X133928146Y-104587847D01*
X133690051Y-104587847D01*
X133499575Y-104540228D01*
X133404337Y-104492609D01*
X133356718Y-104444990D01*
X133309099Y-104349752D01*
X133309099Y-104254514D01*
X133356718Y-104159276D01*
X133404337Y-104111657D01*
X133499575Y-104064038D01*
X133690051Y-104016419D01*
X133928146Y-104016419D01*
X134118622Y-104064038D01*
X134213860Y-104111657D01*
X134261480Y-104159276D01*
X134309099Y-104254514D01*
X134309099Y-105206895D02*
X134309099Y-105302133D01*
X134261480Y-105397371D01*
X134213860Y-105444990D01*
X134118622Y-105492609D01*
X133928146Y-105540228D01*
X133690051Y-105540228D01*
X133499575Y-105492609D01*
X133404337Y-105444990D01*
X133356718Y-105397371D01*
X133309099Y-105302133D01*
X133309099Y-105206895D01*
X133356718Y-105111657D01*
X133404337Y-105064038D01*
X133499575Y-105016419D01*
X133690051Y-104968800D01*
X133928146Y-104968800D01*
X134118622Y-105016419D01*
X134213860Y-105064038D01*
X134261480Y-105111657D01*
X134309099Y-105206895D01*
X133880527Y-106111657D02*
X133928146Y-106016419D01*
X133975765Y-105968800D01*
X134071003Y-105921180D01*
X134118622Y-105921180D01*
X134213860Y-105968800D01*
X134261480Y-106016419D01*
X134309099Y-106111657D01*
X134309099Y-106302133D01*
X134261480Y-106397371D01*
X134213860Y-106444990D01*
X134118622Y-106492609D01*
X134071003Y-106492609D01*
X133975765Y-106444990D01*
X133928146Y-106397371D01*
X133880527Y-106302133D01*
X133880527Y-106111657D01*
X133832908Y-106016419D01*
X133785289Y-105968800D01*
X133690051Y-105921180D01*
X133499575Y-105921180D01*
X133404337Y-105968800D01*
X133356718Y-106016419D01*
X133309099Y-106111657D01*
X133309099Y-106302133D01*
X133356718Y-106397371D01*
X133404337Y-106444990D01*
X133499575Y-106492609D01*
X133690051Y-106492609D01*
X133785289Y-106444990D01*
X133832908Y-106397371D01*
X133880527Y-106302133D01*
X133404337Y-106921180D02*
X133356718Y-106968800D01*
X133309099Y-106921180D01*
X133356718Y-106873561D01*
X133404337Y-106921180D01*
X133309099Y-106921180D01*
X133309099Y-107921180D02*
X133309099Y-107349752D01*
X133309099Y-107635466D02*
X134309099Y-107635466D01*
X134166241Y-107540228D01*
X134071003Y-107444990D01*
X134023384Y-107349752D01*
D10*
X143510000Y-72898000D02*
X150891240Y-66507360D01*
X130556000Y-72898000D02*
X131064000Y-66548000D01*
D11*
X134560060Y-77982485D02*
X134560060Y-77315819D01*
X135560060Y-77744390D01*
X135560060Y-76411057D02*
X135560060Y-76982485D01*
X135560060Y-76696771D02*
X134560060Y-76696771D01*
X134702918Y-76792009D01*
X134798156Y-76887247D01*
X134845775Y-76982485D01*
X134560060Y-76077723D02*
X134560060Y-75458676D01*
X134941013Y-75792009D01*
X134941013Y-75649152D01*
X134988632Y-75553914D01*
X135036251Y-75506295D01*
X135131489Y-75458676D01*
X135369584Y-75458676D01*
X135464822Y-75506295D01*
X135512441Y-75553914D01*
X135560060Y-75649152D01*
X135560060Y-75934866D01*
X135512441Y-76030104D01*
X135464822Y-76077723D01*
X135464822Y-75030104D02*
X135512441Y-74982485D01*
X135560060Y-75030104D01*
X135512441Y-75077723D01*
X135464822Y-75030104D01*
X135560060Y-75030104D01*
X135560060Y-74125342D02*
X135036251Y-74125342D01*
X134941013Y-74172961D01*
X134893394Y-74268200D01*
X134893394Y-74458676D01*
X134941013Y-74553914D01*
X135512441Y-74125342D02*
X135560060Y-74220580D01*
X135560060Y-74458676D01*
X135512441Y-74553914D01*
X135417203Y-74601533D01*
X135321965Y-74601533D01*
X135226727Y-74553914D01*
X135179108Y-74458676D01*
X135179108Y-74220580D01*
X135131489Y-74125342D01*
X135560060Y-73649152D02*
X134893394Y-73649152D01*
X134560060Y-73649152D02*
X134607680Y-73696771D01*
X134655299Y-73649152D01*
X134607680Y-73601533D01*
X134560060Y-73649152D01*
X134655299Y-73649152D01*
D10*
X145293080Y-73403460D02*
X153603960Y-66342260D01*
X136906000Y-72898000D02*
X141224000Y-66548000D01*
D11*
X139152380Y-78192000D02*
X139152380Y-77525333D01*
X140152380Y-77953904D01*
X140152380Y-76620571D02*
X140152380Y-77192000D01*
X140152380Y-76906285D02*
X139152380Y-76906285D01*
X139295238Y-77001523D01*
X139390476Y-77096761D01*
X139438095Y-77192000D01*
X139152380Y-76287238D02*
X139152380Y-75620571D01*
X140152380Y-76049142D01*
X140057142Y-75239619D02*
X140104761Y-75192000D01*
X140152380Y-75239619D01*
X140104761Y-75287238D01*
X140057142Y-75239619D01*
X140152380Y-75239619D01*
X140152380Y-74334857D02*
X139628571Y-74334857D01*
X139533333Y-74382476D01*
X139485714Y-74477714D01*
X139485714Y-74668190D01*
X139533333Y-74763428D01*
X140104761Y-74334857D02*
X140152380Y-74430095D01*
X140152380Y-74668190D01*
X140104761Y-74763428D01*
X140009523Y-74811047D01*
X139914285Y-74811047D01*
X139819047Y-74763428D01*
X139771428Y-74668190D01*
X139771428Y-74430095D01*
X139723809Y-74334857D01*
X139152380Y-73668190D02*
X139152380Y-73477714D01*
X139200000Y-73382476D01*
X139295238Y-73287238D01*
X139485714Y-73239619D01*
X139819047Y-73239619D01*
X140009523Y-73287238D01*
X140104761Y-73382476D01*
X140152380Y-73477714D01*
X140152380Y-73668190D01*
X140104761Y-73763428D01*
X140009523Y-73858666D01*
X139819047Y-73906285D01*
X139485714Y-73906285D01*
X139295238Y-73858666D01*
X139200000Y-73763428D01*
X139152380Y-73668190D01*
D10*
X117348000Y-73152000D02*
X110236000Y-67310000D01*
X141478000Y-72898000D02*
X148229320Y-66608960D01*
D11*
X128481840Y-77168760D02*
X128481840Y-76502093D01*
X129481840Y-76930664D01*
X128481840Y-75930664D02*
X128481840Y-75835426D01*
X128529460Y-75740188D01*
X128577079Y-75692569D01*
X128672317Y-75644950D01*
X128862793Y-75597331D01*
X129100888Y-75597331D01*
X129291364Y-75644950D01*
X129386602Y-75692569D01*
X129434221Y-75740188D01*
X129481840Y-75835426D01*
X129481840Y-75930664D01*
X129434221Y-76025902D01*
X129386602Y-76073521D01*
X129291364Y-76121140D01*
X129100888Y-76168760D01*
X128862793Y-76168760D01*
X128672317Y-76121140D01*
X128577079Y-76073521D01*
X128529460Y-76025902D01*
X128481840Y-75930664D01*
X128910412Y-75025902D02*
X128862793Y-75121140D01*
X128815174Y-75168760D01*
X128719936Y-75216379D01*
X128672317Y-75216379D01*
X128577079Y-75168760D01*
X128529460Y-75121140D01*
X128481840Y-75025902D01*
X128481840Y-74835426D01*
X128529460Y-74740188D01*
X128577079Y-74692569D01*
X128672317Y-74644950D01*
X128719936Y-74644950D01*
X128815174Y-74692569D01*
X128862793Y-74740188D01*
X128910412Y-74835426D01*
X128910412Y-75025902D01*
X128958031Y-75121140D01*
X129005650Y-75168760D01*
X129100888Y-75216379D01*
X129291364Y-75216379D01*
X129386602Y-75168760D01*
X129434221Y-75121140D01*
X129481840Y-75025902D01*
X129481840Y-74835426D01*
X129434221Y-74740188D01*
X129386602Y-74692569D01*
X129291364Y-74644950D01*
X129100888Y-74644950D01*
X129005650Y-74692569D01*
X128958031Y-74740188D01*
X128910412Y-74835426D01*
X129386602Y-74216379D02*
X129434221Y-74168760D01*
X129481840Y-74216379D01*
X129434221Y-74263998D01*
X129386602Y-74216379D01*
X129481840Y-74216379D01*
X129481840Y-73216379D02*
X129481840Y-73787807D01*
X129481840Y-73502093D02*
X128481840Y-73502093D01*
X128624698Y-73597331D01*
X128719936Y-73692569D01*
X128767555Y-73787807D01*
D10*
X133604000Y-72898000D02*
X136144000Y-66802000D01*
D11*
X143168666Y-75136285D02*
X143168666Y-74660095D01*
X143454380Y-75231523D02*
X142454380Y-74898190D01*
X143454380Y-74564857D01*
X142454380Y-74041047D02*
X142454380Y-73945809D01*
X142502000Y-73850571D01*
X142549619Y-73802952D01*
X142644857Y-73755333D01*
X142835333Y-73707714D01*
X143073428Y-73707714D01*
X143263904Y-73755333D01*
X143359142Y-73802952D01*
X143406761Y-73850571D01*
X143454380Y-73945809D01*
X143454380Y-74041047D01*
X143406761Y-74136285D01*
X143359142Y-74183904D01*
X143263904Y-74231523D01*
X143073428Y-74279142D01*
X142835333Y-74279142D01*
X142644857Y-74231523D01*
X142549619Y-74183904D01*
X142502000Y-74136285D01*
X142454380Y-74041047D01*
X133097020Y-77908825D02*
X133097020Y-77242159D01*
X134097020Y-77670730D01*
X133097020Y-76670730D02*
X133097020Y-76575492D01*
X133144640Y-76480254D01*
X133192259Y-76432635D01*
X133287497Y-76385016D01*
X133477973Y-76337397D01*
X133716068Y-76337397D01*
X133906544Y-76385016D01*
X134001782Y-76432635D01*
X134049401Y-76480254D01*
X134097020Y-76575492D01*
X134097020Y-76670730D01*
X134049401Y-76765968D01*
X134001782Y-76813587D01*
X133906544Y-76861206D01*
X133716068Y-76908825D01*
X133477973Y-76908825D01*
X133287497Y-76861206D01*
X133192259Y-76813587D01*
X133144640Y-76765968D01*
X133097020Y-76670730D01*
X134097020Y-75861206D02*
X134097020Y-75670730D01*
X134049401Y-75575492D01*
X134001782Y-75527873D01*
X133858925Y-75432635D01*
X133668449Y-75385016D01*
X133287497Y-75385016D01*
X133192259Y-75432635D01*
X133144640Y-75480254D01*
X133097020Y-75575492D01*
X133097020Y-75765968D01*
X133144640Y-75861206D01*
X133192259Y-75908825D01*
X133287497Y-75956444D01*
X133525592Y-75956444D01*
X133620830Y-75908825D01*
X133668449Y-75861206D01*
X133716068Y-75765968D01*
X133716068Y-75575492D01*
X133668449Y-75480254D01*
X133620830Y-75432635D01*
X133525592Y-75385016D01*
X134001782Y-74956444D02*
X134049401Y-74908825D01*
X134097020Y-74956444D01*
X134049401Y-75004063D01*
X134001782Y-74956444D01*
X134097020Y-74956444D01*
X134097020Y-74051682D02*
X133573211Y-74051682D01*
X133477973Y-74099301D01*
X133430354Y-74194540D01*
X133430354Y-74385016D01*
X133477973Y-74480254D01*
X134049401Y-74051682D02*
X134097020Y-74146920D01*
X134097020Y-74385016D01*
X134049401Y-74480254D01*
X133954163Y-74527873D01*
X133858925Y-74527873D01*
X133763687Y-74480254D01*
X133716068Y-74385016D01*
X133716068Y-74146920D01*
X133668449Y-74051682D01*
X134097020Y-73575492D02*
X133430354Y-73575492D01*
X133097020Y-73575492D02*
X133144640Y-73623111D01*
X133192259Y-73575492D01*
X133144640Y-73527873D01*
X133097020Y-73575492D01*
X133192259Y-73575492D01*
D10*
X127508000Y-72898000D02*
X125984000Y-66548000D01*
X139954000Y-72898000D02*
X146044920Y-66403220D01*
D11*
X137628380Y-78168190D02*
X137628380Y-77501523D01*
X138628380Y-77930095D01*
X138628380Y-76596761D02*
X138628380Y-77168190D01*
X138628380Y-76882476D02*
X137628380Y-76882476D01*
X137771238Y-76977714D01*
X137866476Y-77072952D01*
X137914095Y-77168190D01*
X137628380Y-75692000D02*
X137628380Y-76168190D01*
X138104571Y-76215809D01*
X138056952Y-76168190D01*
X138009333Y-76072952D01*
X138009333Y-75834857D01*
X138056952Y-75739619D01*
X138104571Y-75692000D01*
X138199809Y-75644380D01*
X138437904Y-75644380D01*
X138533142Y-75692000D01*
X138580761Y-75739619D01*
X138628380Y-75834857D01*
X138628380Y-76072952D01*
X138580761Y-76168190D01*
X138533142Y-76215809D01*
X138533142Y-75215809D02*
X138580761Y-75168190D01*
X138628380Y-75215809D01*
X138580761Y-75263428D01*
X138533142Y-75215809D01*
X138628380Y-75215809D01*
X138628380Y-74215809D02*
X138628380Y-74787238D01*
X138628380Y-74501523D02*
X137628380Y-74501523D01*
X137771238Y-74596761D01*
X137866476Y-74692000D01*
X137914095Y-74787238D01*
X137628380Y-73882476D02*
X137628380Y-73215809D01*
X138628380Y-73644380D01*
X122388380Y-78168190D02*
X122388380Y-77501523D01*
X123388380Y-77930095D01*
X122388380Y-76930095D02*
X122388380Y-76834857D01*
X122436000Y-76739619D01*
X122483619Y-76692000D01*
X122578857Y-76644380D01*
X122769333Y-76596761D01*
X123007428Y-76596761D01*
X123197904Y-76644380D01*
X123293142Y-76692000D01*
X123340761Y-76739619D01*
X123388380Y-76834857D01*
X123388380Y-76930095D01*
X123340761Y-77025333D01*
X123293142Y-77072952D01*
X123197904Y-77120571D01*
X123007428Y-77168190D01*
X122769333Y-77168190D01*
X122578857Y-77120571D01*
X122483619Y-77072952D01*
X122436000Y-77025333D01*
X122388380Y-76930095D01*
X122388380Y-75692000D02*
X122388380Y-76168190D01*
X122864571Y-76215809D01*
X122816952Y-76168190D01*
X122769333Y-76072952D01*
X122769333Y-75834857D01*
X122816952Y-75739619D01*
X122864571Y-75692000D01*
X122959809Y-75644380D01*
X123197904Y-75644380D01*
X123293142Y-75692000D01*
X123340761Y-75739619D01*
X123388380Y-75834857D01*
X123388380Y-76072952D01*
X123340761Y-76168190D01*
X123293142Y-76215809D01*
X123293142Y-75215809D02*
X123340761Y-75168190D01*
X123388380Y-75215809D01*
X123340761Y-75263428D01*
X123293142Y-75215809D01*
X123388380Y-75215809D01*
X123388380Y-74215809D02*
X123388380Y-74787238D01*
X123388380Y-74501523D02*
X122388380Y-74501523D01*
X122531238Y-74596761D01*
X122626476Y-74692000D01*
X122674095Y-74787238D01*
X122388380Y-73882476D02*
X122388380Y-73215809D01*
X123388380Y-73644380D01*
D10*
X122682000Y-72644000D02*
X118364000Y-67056000D01*
X124460000Y-72644000D02*
X120904000Y-66802000D01*
D11*
X130170940Y-78208830D02*
X130170940Y-77542163D01*
X131170940Y-77970735D01*
X130170940Y-76970735D02*
X130170940Y-76875497D01*
X130218560Y-76780259D01*
X130266179Y-76732640D01*
X130361417Y-76685020D01*
X130551893Y-76637401D01*
X130789988Y-76637401D01*
X130980464Y-76685020D01*
X131075702Y-76732640D01*
X131123321Y-76780259D01*
X131170940Y-76875497D01*
X131170940Y-76970735D01*
X131123321Y-77065973D01*
X131075702Y-77113592D01*
X130980464Y-77161211D01*
X130789988Y-77208830D01*
X130551893Y-77208830D01*
X130361417Y-77161211D01*
X130266179Y-77113592D01*
X130218560Y-77065973D01*
X130170940Y-76970735D01*
X130599512Y-76065973D02*
X130551893Y-76161211D01*
X130504274Y-76208830D01*
X130409036Y-76256449D01*
X130361417Y-76256449D01*
X130266179Y-76208830D01*
X130218560Y-76161211D01*
X130170940Y-76065973D01*
X130170940Y-75875497D01*
X130218560Y-75780259D01*
X130266179Y-75732640D01*
X130361417Y-75685020D01*
X130409036Y-75685020D01*
X130504274Y-75732640D01*
X130551893Y-75780259D01*
X130599512Y-75875497D01*
X130599512Y-76065973D01*
X130647131Y-76161211D01*
X130694750Y-76208830D01*
X130789988Y-76256449D01*
X130980464Y-76256449D01*
X131075702Y-76208830D01*
X131123321Y-76161211D01*
X131170940Y-76065973D01*
X131170940Y-75875497D01*
X131123321Y-75780259D01*
X131075702Y-75732640D01*
X130980464Y-75685020D01*
X130789988Y-75685020D01*
X130694750Y-75732640D01*
X130647131Y-75780259D01*
X130599512Y-75875497D01*
X131075702Y-75256449D02*
X131123321Y-75208830D01*
X131170940Y-75256449D01*
X131123321Y-75304068D01*
X131075702Y-75256449D01*
X131170940Y-75256449D01*
X131170940Y-74256449D02*
X131170940Y-74827878D01*
X131170940Y-74542163D02*
X130170940Y-74542163D01*
X130313798Y-74637401D01*
X130409036Y-74732640D01*
X130456655Y-74827878D01*
X130170940Y-73923116D02*
X130170940Y-73256449D01*
X131170940Y-73685020D01*
X125436380Y-77438000D02*
X125436380Y-76771333D01*
X126436380Y-77199904D01*
X125436380Y-76199904D02*
X125436380Y-76104666D01*
X125484000Y-76009428D01*
X125531619Y-75961809D01*
X125626857Y-75914190D01*
X125817333Y-75866571D01*
X126055428Y-75866571D01*
X126245904Y-75914190D01*
X126341142Y-75961809D01*
X126388761Y-76009428D01*
X126436380Y-76104666D01*
X126436380Y-76199904D01*
X126388761Y-76295142D01*
X126341142Y-76342761D01*
X126245904Y-76390380D01*
X126055428Y-76438000D01*
X125817333Y-76438000D01*
X125626857Y-76390380D01*
X125531619Y-76342761D01*
X125484000Y-76295142D01*
X125436380Y-76199904D01*
X125436380Y-74961809D02*
X125436380Y-75438000D01*
X125912571Y-75485619D01*
X125864952Y-75438000D01*
X125817333Y-75342761D01*
X125817333Y-75104666D01*
X125864952Y-75009428D01*
X125912571Y-74961809D01*
X126007809Y-74914190D01*
X126245904Y-74914190D01*
X126341142Y-74961809D01*
X126388761Y-75009428D01*
X126436380Y-75104666D01*
X126436380Y-75342761D01*
X126388761Y-75438000D01*
X126341142Y-75485619D01*
X126341142Y-74485619D02*
X126388761Y-74438000D01*
X126436380Y-74485619D01*
X126388761Y-74533238D01*
X126341142Y-74485619D01*
X126436380Y-74485619D01*
X125436380Y-74104666D02*
X125436380Y-73485619D01*
X125817333Y-73818952D01*
X125817333Y-73676095D01*
X125864952Y-73580857D01*
X125912571Y-73533238D01*
X126007809Y-73485619D01*
X126245904Y-73485619D01*
X126341142Y-73533238D01*
X126388761Y-73580857D01*
X126436380Y-73676095D01*
X126436380Y-73961809D01*
X126388761Y-74057047D01*
X126341142Y-74104666D01*
D10*
X119380000Y-72644000D02*
X113030000Y-67056000D01*
D11*
X119256560Y-77130660D02*
X119256560Y-76463993D01*
X120256560Y-76892564D01*
X119256560Y-75892564D02*
X119256560Y-75797326D01*
X119304180Y-75702088D01*
X119351799Y-75654469D01*
X119447037Y-75606850D01*
X119637513Y-75559231D01*
X119875608Y-75559231D01*
X120066084Y-75606850D01*
X120161322Y-75654469D01*
X120208941Y-75702088D01*
X120256560Y-75797326D01*
X120256560Y-75892564D01*
X120208941Y-75987802D01*
X120161322Y-76035421D01*
X120066084Y-76083040D01*
X119875608Y-76130660D01*
X119637513Y-76130660D01*
X119447037Y-76083040D01*
X119351799Y-76035421D01*
X119304180Y-75987802D01*
X119256560Y-75892564D01*
X120256560Y-74606850D02*
X120256560Y-75178279D01*
X120256560Y-74892564D02*
X119256560Y-74892564D01*
X119399418Y-74987802D01*
X119494656Y-75083040D01*
X119542275Y-75178279D01*
X120161322Y-74178279D02*
X120208941Y-74130660D01*
X120256560Y-74178279D01*
X120208941Y-74225898D01*
X120161322Y-74178279D01*
X120256560Y-74178279D01*
X120256560Y-73178279D02*
X120256560Y-73749707D01*
X120256560Y-73463993D02*
X119256560Y-73463993D01*
X119399418Y-73559231D01*
X119494656Y-73654469D01*
X119542275Y-73749707D01*
X120864380Y-77914190D02*
X120864380Y-77247523D01*
X121864380Y-77676095D01*
X120864380Y-76676095D02*
X120864380Y-76580857D01*
X120912000Y-76485619D01*
X120959619Y-76438000D01*
X121054857Y-76390380D01*
X121245333Y-76342761D01*
X121483428Y-76342761D01*
X121673904Y-76390380D01*
X121769142Y-76438000D01*
X121816761Y-76485619D01*
X121864380Y-76580857D01*
X121864380Y-76676095D01*
X121816761Y-76771333D01*
X121769142Y-76818952D01*
X121673904Y-76866571D01*
X121483428Y-76914190D01*
X121245333Y-76914190D01*
X121054857Y-76866571D01*
X120959619Y-76818952D01*
X120912000Y-76771333D01*
X120864380Y-76676095D01*
X121864380Y-75390380D02*
X121864380Y-75961809D01*
X121864380Y-75676095D02*
X120864380Y-75676095D01*
X121007238Y-75771333D01*
X121102476Y-75866571D01*
X121150095Y-75961809D01*
X121769142Y-74961809D02*
X121816761Y-74914190D01*
X121864380Y-74961809D01*
X121816761Y-75009428D01*
X121769142Y-74961809D01*
X121864380Y-74961809D01*
X121864380Y-73961809D02*
X121864380Y-74533238D01*
X121864380Y-74247523D02*
X120864380Y-74247523D01*
X121007238Y-74342761D01*
X121102476Y-74438000D01*
X121150095Y-74533238D01*
X120864380Y-73628476D02*
X120864380Y-72961809D01*
X121864380Y-73390380D01*
D10*
X125984000Y-72898000D02*
X123190000Y-66548000D01*
X138176000Y-72898000D02*
X143449040Y-66540380D01*
X129032000Y-72898000D02*
X128524000Y-66294000D01*
X121412000Y-72644000D02*
X115570000Y-67056000D01*
D11*
X118679220Y-76882760D02*
X118203030Y-77216094D01*
X118679220Y-77454189D02*
X117679220Y-77454189D01*
X117679220Y-77073237D01*
X117726840Y-76977999D01*
X117774459Y-76930380D01*
X117869697Y-76882760D01*
X118012554Y-76882760D01*
X118107792Y-76930380D01*
X118155411Y-76977999D01*
X118203030Y-77073237D01*
X118203030Y-77454189D01*
X118155411Y-76454189D02*
X118155411Y-76120856D01*
X118679220Y-75977999D02*
X118679220Y-76454189D01*
X117679220Y-76454189D01*
X117679220Y-75977999D01*
X118631601Y-75597046D02*
X118679220Y-75454189D01*
X118679220Y-75216094D01*
X118631601Y-75120856D01*
X118583982Y-75073237D01*
X118488744Y-75025618D01*
X118393506Y-75025618D01*
X118298268Y-75073237D01*
X118250649Y-75120856D01*
X118203030Y-75216094D01*
X118155411Y-75406570D01*
X118107792Y-75501808D01*
X118060173Y-75549427D01*
X117964935Y-75597046D01*
X117869697Y-75597046D01*
X117774459Y-75549427D01*
X117726840Y-75501808D01*
X117679220Y-75406570D01*
X117679220Y-75168475D01*
X117726840Y-75025618D01*
X118155411Y-74597046D02*
X118155411Y-74263713D01*
X118679220Y-74120856D02*
X118679220Y-74597046D01*
X117679220Y-74597046D01*
X117679220Y-74120856D01*
X117679220Y-73835141D02*
X117679220Y-73263713D01*
X118679220Y-73549427D02*
X117679220Y-73549427D01*
D10*
X135219440Y-72956420D02*
X138684000Y-66548000D01*
D11*
X123907300Y-77168760D02*
X123907300Y-76502093D01*
X124907300Y-76930664D01*
X123907300Y-75930664D02*
X123907300Y-75835426D01*
X123954920Y-75740188D01*
X124002539Y-75692569D01*
X124097777Y-75644950D01*
X124288253Y-75597331D01*
X124526348Y-75597331D01*
X124716824Y-75644950D01*
X124812062Y-75692569D01*
X124859681Y-75740188D01*
X124907300Y-75835426D01*
X124907300Y-75930664D01*
X124859681Y-76025902D01*
X124812062Y-76073521D01*
X124716824Y-76121140D01*
X124526348Y-76168760D01*
X124288253Y-76168760D01*
X124097777Y-76121140D01*
X124002539Y-76073521D01*
X123954920Y-76025902D01*
X123907300Y-75930664D01*
X123907300Y-74692569D02*
X123907300Y-75168760D01*
X124383491Y-75216379D01*
X124335872Y-75168760D01*
X124288253Y-75073521D01*
X124288253Y-74835426D01*
X124335872Y-74740188D01*
X124383491Y-74692569D01*
X124478729Y-74644950D01*
X124716824Y-74644950D01*
X124812062Y-74692569D01*
X124859681Y-74740188D01*
X124907300Y-74835426D01*
X124907300Y-75073521D01*
X124859681Y-75168760D01*
X124812062Y-75216379D01*
X124812062Y-74216379D02*
X124859681Y-74168760D01*
X124907300Y-74216379D01*
X124859681Y-74263998D01*
X124812062Y-74216379D01*
X124907300Y-74216379D01*
X123907300Y-73263998D02*
X123907300Y-73740188D01*
X124383491Y-73787807D01*
X124335872Y-73740188D01*
X124288253Y-73644950D01*
X124288253Y-73406855D01*
X124335872Y-73311617D01*
X124383491Y-73263998D01*
X124478729Y-73216379D01*
X124716824Y-73216379D01*
X124812062Y-73263998D01*
X124859681Y-73311617D01*
X124907300Y-73406855D01*
X124907300Y-73644950D01*
X124859681Y-73740188D01*
X124812062Y-73787807D01*
X144692666Y-75136285D02*
X144692666Y-74660095D01*
X144978380Y-75231523D02*
X143978380Y-74898190D01*
X144978380Y-74564857D01*
X144978380Y-73707714D02*
X144978380Y-74279142D01*
X144978380Y-73993428D02*
X143978380Y-73993428D01*
X144121238Y-74088666D01*
X144216476Y-74183904D01*
X144264095Y-74279142D01*
D10*
X132080000Y-72898000D02*
X133604000Y-66548000D01*
D11*
X131595880Y-78232640D02*
X131595880Y-77565973D01*
X132595880Y-77994544D01*
X131595880Y-76994544D02*
X131595880Y-76899306D01*
X131643500Y-76804068D01*
X131691119Y-76756449D01*
X131786357Y-76708830D01*
X131976833Y-76661211D01*
X132214928Y-76661211D01*
X132405404Y-76708830D01*
X132500642Y-76756449D01*
X132548261Y-76804068D01*
X132595880Y-76899306D01*
X132595880Y-76994544D01*
X132548261Y-77089782D01*
X132500642Y-77137401D01*
X132405404Y-77185020D01*
X132214928Y-77232640D01*
X131976833Y-77232640D01*
X131786357Y-77185020D01*
X131691119Y-77137401D01*
X131643500Y-77089782D01*
X131595880Y-76994544D01*
X132595880Y-76185020D02*
X132595880Y-75994544D01*
X132548261Y-75899306D01*
X132500642Y-75851687D01*
X132357785Y-75756449D01*
X132167309Y-75708830D01*
X131786357Y-75708830D01*
X131691119Y-75756449D01*
X131643500Y-75804068D01*
X131595880Y-75899306D01*
X131595880Y-76089782D01*
X131643500Y-76185020D01*
X131691119Y-76232640D01*
X131786357Y-76280259D01*
X132024452Y-76280259D01*
X132119690Y-76232640D01*
X132167309Y-76185020D01*
X132214928Y-76089782D01*
X132214928Y-75899306D01*
X132167309Y-75804068D01*
X132119690Y-75756449D01*
X132024452Y-75708830D01*
X132500642Y-75280259D02*
X132548261Y-75232640D01*
X132595880Y-75280259D01*
X132548261Y-75327878D01*
X132500642Y-75280259D01*
X132595880Y-75280259D01*
X132595880Y-74375497D02*
X132072071Y-74375497D01*
X131976833Y-74423116D01*
X131929214Y-74518354D01*
X131929214Y-74708830D01*
X131976833Y-74804068D01*
X132548261Y-74375497D02*
X132595880Y-74470735D01*
X132595880Y-74708830D01*
X132548261Y-74804068D01*
X132453023Y-74851687D01*
X132357785Y-74851687D01*
X132262547Y-74804068D01*
X132214928Y-74708830D01*
X132214928Y-74470735D01*
X132167309Y-74375497D01*
X131595880Y-73708830D02*
X131595880Y-73518354D01*
X131643500Y-73423116D01*
X131738738Y-73327878D01*
X131929214Y-73280259D01*
X132262547Y-73280259D01*
X132453023Y-73327878D01*
X132548261Y-73423116D01*
X132595880Y-73518354D01*
X132595880Y-73708830D01*
X132548261Y-73804068D01*
X132453023Y-73899306D01*
X132262547Y-73946925D01*
X131929214Y-73946925D01*
X131738738Y-73899306D01*
X131643500Y-73804068D01*
X131595880Y-73708830D01*
X140676380Y-77906285D02*
X140676380Y-77239619D01*
X141676380Y-77668190D01*
X141676380Y-76334857D02*
X141676380Y-76906285D01*
X141676380Y-76620571D02*
X140676380Y-76620571D01*
X140819238Y-76715809D01*
X140914476Y-76811047D01*
X140962095Y-76906285D01*
X140676380Y-76001523D02*
X140676380Y-75334857D01*
X141676380Y-75763428D01*
X141581142Y-74953904D02*
X141628761Y-74906285D01*
X141676380Y-74953904D01*
X141628761Y-75001523D01*
X141581142Y-74953904D01*
X141676380Y-74953904D01*
X141676380Y-74049142D02*
X141152571Y-74049142D01*
X141057333Y-74096761D01*
X141009714Y-74192000D01*
X141009714Y-74382476D01*
X141057333Y-74477714D01*
X141628761Y-74049142D02*
X141676380Y-74144380D01*
X141676380Y-74382476D01*
X141628761Y-74477714D01*
X141533523Y-74525333D01*
X141438285Y-74525333D01*
X141343047Y-74477714D01*
X141295428Y-74382476D01*
X141295428Y-74144380D01*
X141247809Y-74049142D01*
X141676380Y-73572952D02*
X141009714Y-73572952D01*
X140676380Y-73572952D02*
X140724000Y-73620571D01*
X140771619Y-73572952D01*
X140724000Y-73525333D01*
X140676380Y-73572952D01*
X140771619Y-73572952D01*
X136104380Y-78192000D02*
X136104380Y-77525333D01*
X137104380Y-77953904D01*
X137104380Y-76620571D02*
X137104380Y-77192000D01*
X137104380Y-76906285D02*
X136104380Y-76906285D01*
X136247238Y-77001523D01*
X136342476Y-77096761D01*
X136390095Y-77192000D01*
X136104380Y-76287238D02*
X136104380Y-75668190D01*
X136485333Y-76001523D01*
X136485333Y-75858666D01*
X136532952Y-75763428D01*
X136580571Y-75715809D01*
X136675809Y-75668190D01*
X136913904Y-75668190D01*
X137009142Y-75715809D01*
X137056761Y-75763428D01*
X137104380Y-75858666D01*
X137104380Y-76144380D01*
X137056761Y-76239619D01*
X137009142Y-76287238D01*
X137009142Y-75239619D02*
X137056761Y-75192000D01*
X137104380Y-75239619D01*
X137056761Y-75287238D01*
X137009142Y-75239619D01*
X137104380Y-75239619D01*
X137104380Y-74334857D02*
X136580571Y-74334857D01*
X136485333Y-74382476D01*
X136437714Y-74477714D01*
X136437714Y-74668190D01*
X136485333Y-74763428D01*
X137056761Y-74334857D02*
X137104380Y-74430095D01*
X137104380Y-74668190D01*
X137056761Y-74763428D01*
X136961523Y-74811047D01*
X136866285Y-74811047D01*
X136771047Y-74763428D01*
X136723428Y-74668190D01*
X136723428Y-74430095D01*
X136675809Y-74334857D01*
X136104380Y-73668190D02*
X136104380Y-73477714D01*
X136152000Y-73382476D01*
X136247238Y-73287238D01*
X136437714Y-73239619D01*
X136771047Y-73239619D01*
X136961523Y-73287238D01*
X137056761Y-73382476D01*
X137104380Y-73477714D01*
X137104380Y-73668190D01*
X137056761Y-73763428D01*
X136961523Y-73858666D01*
X136771047Y-73906285D01*
X136437714Y-73906285D01*
X136247238Y-73858666D01*
X136152000Y-73763428D01*
X136104380Y-73668190D01*
X127056900Y-77244960D02*
X127056900Y-76578293D01*
X128056900Y-77006864D01*
X127056900Y-76006864D02*
X127056900Y-75911626D01*
X127104520Y-75816388D01*
X127152139Y-75768769D01*
X127247377Y-75721150D01*
X127437853Y-75673531D01*
X127675948Y-75673531D01*
X127866424Y-75721150D01*
X127961662Y-75768769D01*
X128009281Y-75816388D01*
X128056900Y-75911626D01*
X128056900Y-76006864D01*
X128009281Y-76102102D01*
X127961662Y-76149721D01*
X127866424Y-76197340D01*
X127675948Y-76244960D01*
X127437853Y-76244960D01*
X127247377Y-76197340D01*
X127152139Y-76149721D01*
X127104520Y-76102102D01*
X127056900Y-76006864D01*
X127056900Y-74768769D02*
X127056900Y-75244960D01*
X127533091Y-75292579D01*
X127485472Y-75244960D01*
X127437853Y-75149721D01*
X127437853Y-74911626D01*
X127485472Y-74816388D01*
X127533091Y-74768769D01*
X127628329Y-74721150D01*
X127866424Y-74721150D01*
X127961662Y-74768769D01*
X128009281Y-74816388D01*
X128056900Y-74911626D01*
X128056900Y-75149721D01*
X128009281Y-75244960D01*
X127961662Y-75292579D01*
X127961662Y-74292579D02*
X128009281Y-74244960D01*
X128056900Y-74292579D01*
X128009281Y-74340198D01*
X127961662Y-74292579D01*
X128056900Y-74292579D01*
X128056900Y-73292579D02*
X128056900Y-73864007D01*
X128056900Y-73578293D02*
X127056900Y-73578293D01*
X127199758Y-73673531D01*
X127294996Y-73768769D01*
X127342615Y-73864007D01*
D10*
X146812000Y-103886000D02*
X153416000Y-112268000D01*
X147066000Y-101600000D02*
X152908000Y-109474000D01*
X147066000Y-99822000D02*
X153416000Y-107442000D01*
X147066000Y-98298000D02*
X153416000Y-104648000D01*
X147066000Y-96520000D02*
X153162000Y-102108000D01*
X147066000Y-95250000D02*
X153416000Y-99568000D01*
X147320000Y-93726000D02*
X153416000Y-97028000D01*
X147066000Y-91948000D02*
X153162000Y-94488000D01*
X147066000Y-90424000D02*
X153416000Y-91948000D01*
X147066000Y-88900000D02*
X153416000Y-89408000D01*
X147066000Y-87376000D02*
X153670000Y-86868000D01*
X147066000Y-85852000D02*
X153416000Y-84328000D01*
X147066000Y-84328000D02*
X153416000Y-81534000D01*
X147320000Y-82804000D02*
X153162000Y-79248000D01*
X147320000Y-81026000D02*
X152908000Y-76708000D01*
X147320000Y-79756000D02*
X152908000Y-73914000D01*
X147320000Y-77724000D02*
X152908000Y-71374000D01*
X147066000Y-75692000D02*
X153111200Y-68930520D01*
D11*
X144351523Y-103036666D02*
X144827714Y-103036666D01*
X144256285Y-103322380D02*
X144589619Y-102322380D01*
X144922952Y-103322380D01*
X145780095Y-103322380D02*
X145208666Y-103322380D01*
X145494380Y-103322380D02*
X145494380Y-102322380D01*
X145399142Y-102465238D01*
X145303904Y-102560476D01*
X145208666Y-102608095D01*
X146732476Y-103322380D02*
X146161047Y-103322380D01*
X146446761Y-103322380D02*
X146446761Y-102322380D01*
X146351523Y-102465238D01*
X146256285Y-102560476D01*
X146161047Y-102608095D01*
X142676761Y-100020380D02*
X142105333Y-100020380D01*
X142391047Y-100020380D02*
X142391047Y-99020380D01*
X142295809Y-99163238D01*
X142200571Y-99258476D01*
X142105333Y-99306095D01*
X143629142Y-100020380D02*
X143057714Y-100020380D01*
X143343428Y-100020380D02*
X143343428Y-99020380D01*
X143248190Y-99163238D01*
X143152952Y-99258476D01*
X143057714Y-99306095D01*
X143962476Y-99020380D02*
X144629142Y-99020380D01*
X144200571Y-100020380D01*
X145010095Y-99925142D02*
X145057714Y-99972761D01*
X145010095Y-100020380D01*
X144962476Y-99972761D01*
X145010095Y-99925142D01*
X145010095Y-100020380D01*
X145914857Y-100020380D02*
X145914857Y-99496571D01*
X145867238Y-99401333D01*
X145772000Y-99353714D01*
X145581523Y-99353714D01*
X145486285Y-99401333D01*
X145914857Y-99972761D02*
X145819619Y-100020380D01*
X145581523Y-100020380D01*
X145486285Y-99972761D01*
X145438666Y-99877523D01*
X145438666Y-99782285D01*
X145486285Y-99687047D01*
X145581523Y-99639428D01*
X145819619Y-99639428D01*
X145914857Y-99591809D01*
X146391047Y-100020380D02*
X146391047Y-99353714D01*
X146391047Y-99020380D02*
X146343428Y-99068000D01*
X146391047Y-99115619D01*
X146438666Y-99068000D01*
X146391047Y-99020380D01*
X146391047Y-99115619D01*
X144351523Y-101512666D02*
X144827714Y-101512666D01*
X144256285Y-101798380D02*
X144589619Y-100798380D01*
X144922952Y-101798380D01*
X145780095Y-101798380D02*
X145208666Y-101798380D01*
X145494380Y-101798380D02*
X145494380Y-100798380D01*
X145399142Y-100941238D01*
X145303904Y-101036476D01*
X145208666Y-101084095D01*
X146399142Y-100798380D02*
X146494380Y-100798380D01*
X146589619Y-100846000D01*
X146637238Y-100893619D01*
X146684857Y-100988857D01*
X146732476Y-101179333D01*
X146732476Y-101417428D01*
X146684857Y-101607904D01*
X146637238Y-101703142D01*
X146589619Y-101750761D01*
X146494380Y-101798380D01*
X146399142Y-101798380D01*
X146303904Y-101750761D01*
X146256285Y-101703142D01*
X146208666Y-101607904D01*
X146161047Y-101417428D01*
X146161047Y-101179333D01*
X146208666Y-100988857D01*
X146256285Y-100893619D01*
X146303904Y-100846000D01*
X146399142Y-100798380D01*
X142391047Y-98496380D02*
X141819619Y-98496380D01*
X142105333Y-98496380D02*
X142105333Y-97496380D01*
X142010095Y-97639238D01*
X141914857Y-97734476D01*
X141819619Y-97782095D01*
X143343428Y-98496380D02*
X142772000Y-98496380D01*
X143057714Y-98496380D02*
X143057714Y-97496380D01*
X142962476Y-97639238D01*
X142867238Y-97734476D01*
X142772000Y-97782095D01*
X143676761Y-97496380D02*
X144343428Y-97496380D01*
X143914857Y-98496380D01*
X144724380Y-98401142D02*
X144772000Y-98448761D01*
X144724380Y-98496380D01*
X144676761Y-98448761D01*
X144724380Y-98401142D01*
X144724380Y-98496380D01*
X145629142Y-98496380D02*
X145629142Y-97972571D01*
X145581523Y-97877333D01*
X145486285Y-97829714D01*
X145295809Y-97829714D01*
X145200571Y-97877333D01*
X145629142Y-98448761D02*
X145533904Y-98496380D01*
X145295809Y-98496380D01*
X145200571Y-98448761D01*
X145152952Y-98353523D01*
X145152952Y-98258285D01*
X145200571Y-98163047D01*
X145295809Y-98115428D01*
X145533904Y-98115428D01*
X145629142Y-98067809D01*
X146295809Y-97496380D02*
X146486285Y-97496380D01*
X146581523Y-97544000D01*
X146676761Y-97639238D01*
X146724380Y-97829714D01*
X146724380Y-98163047D01*
X146676761Y-98353523D01*
X146581523Y-98448761D01*
X146486285Y-98496380D01*
X146295809Y-98496380D01*
X146200571Y-98448761D01*
X146105333Y-98353523D01*
X146057714Y-98163047D01*
X146057714Y-97829714D01*
X146105333Y-97639238D01*
X146200571Y-97544000D01*
X146295809Y-97496380D01*
X145335714Y-92114666D02*
X145811904Y-92114666D01*
X145240476Y-92400380D02*
X145573809Y-91400380D01*
X145907142Y-92400380D01*
X146383333Y-91828952D02*
X146288095Y-91781333D01*
X146240476Y-91733714D01*
X146192857Y-91638476D01*
X146192857Y-91590857D01*
X146240476Y-91495619D01*
X146288095Y-91448000D01*
X146383333Y-91400380D01*
X146573809Y-91400380D01*
X146669047Y-91448000D01*
X146716666Y-91495619D01*
X146764285Y-91590857D01*
X146764285Y-91638476D01*
X146716666Y-91733714D01*
X146669047Y-91781333D01*
X146573809Y-91828952D01*
X146383333Y-91828952D01*
X146288095Y-91876571D01*
X146240476Y-91924190D01*
X146192857Y-92019428D01*
X146192857Y-92209904D01*
X146240476Y-92305142D01*
X146288095Y-92352761D01*
X146383333Y-92400380D01*
X146573809Y-92400380D01*
X146669047Y-92352761D01*
X146716666Y-92305142D01*
X146764285Y-92209904D01*
X146764285Y-92019428D01*
X146716666Y-91924190D01*
X146669047Y-91876571D01*
X146573809Y-91828952D01*
X141795809Y-94448380D02*
X142414857Y-94448380D01*
X142081523Y-94829333D01*
X142224380Y-94829333D01*
X142319619Y-94876952D01*
X142367238Y-94924571D01*
X142414857Y-95019809D01*
X142414857Y-95257904D01*
X142367238Y-95353142D01*
X142319619Y-95400761D01*
X142224380Y-95448380D01*
X141938666Y-95448380D01*
X141843428Y-95400761D01*
X141795809Y-95353142D01*
X143367238Y-95448380D02*
X142795809Y-95448380D01*
X143081523Y-95448380D02*
X143081523Y-94448380D01*
X142986285Y-94591238D01*
X142891047Y-94686476D01*
X142795809Y-94734095D01*
X143700571Y-94448380D02*
X144367238Y-94448380D01*
X143938666Y-95448380D01*
X144748190Y-95353142D02*
X144795809Y-95400761D01*
X144748190Y-95448380D01*
X144700571Y-95400761D01*
X144748190Y-95353142D01*
X144748190Y-95448380D01*
X145748190Y-95448380D02*
X145176761Y-95448380D01*
X145462476Y-95448380D02*
X145462476Y-94448380D01*
X145367238Y-94591238D01*
X145272000Y-94686476D01*
X145176761Y-94734095D01*
X146081523Y-94448380D02*
X146748190Y-94448380D01*
X146319619Y-95448380D01*
X145335714Y-89066666D02*
X145811904Y-89066666D01*
X145240476Y-89352380D02*
X145573809Y-88352380D01*
X145907142Y-89352380D01*
X146669047Y-88352380D02*
X146478571Y-88352380D01*
X146383333Y-88400000D01*
X146335714Y-88447619D01*
X146240476Y-88590476D01*
X146192857Y-88780952D01*
X146192857Y-89161904D01*
X146240476Y-89257142D01*
X146288095Y-89304761D01*
X146383333Y-89352380D01*
X146573809Y-89352380D01*
X146669047Y-89304761D01*
X146716666Y-89257142D01*
X146764285Y-89161904D01*
X146764285Y-88923809D01*
X146716666Y-88828571D01*
X146669047Y-88780952D01*
X146573809Y-88733333D01*
X146383333Y-88733333D01*
X146288095Y-88780952D01*
X146240476Y-88828571D01*
X146192857Y-88923809D01*
X145335714Y-90590666D02*
X145811904Y-90590666D01*
X145240476Y-90876380D02*
X145573809Y-89876380D01*
X145907142Y-90876380D01*
X146145238Y-89876380D02*
X146811904Y-89876380D01*
X146383333Y-90876380D01*
X145335714Y-87542666D02*
X145811904Y-87542666D01*
X145240476Y-87828380D02*
X145573809Y-86828380D01*
X145907142Y-87828380D01*
X146716666Y-86828380D02*
X146240476Y-86828380D01*
X146192857Y-87304571D01*
X146240476Y-87256952D01*
X146335714Y-87209333D01*
X146573809Y-87209333D01*
X146669047Y-87256952D01*
X146716666Y-87304571D01*
X146764285Y-87399809D01*
X146764285Y-87637904D01*
X146716666Y-87733142D01*
X146669047Y-87780761D01*
X146573809Y-87828380D01*
X146335714Y-87828380D01*
X146240476Y-87780761D01*
X146192857Y-87733142D01*
X145335714Y-93638666D02*
X145811904Y-93638666D01*
X145240476Y-93924380D02*
X145573809Y-92924380D01*
X145907142Y-93924380D01*
X146288095Y-93924380D02*
X146478571Y-93924380D01*
X146573809Y-93876761D01*
X146621428Y-93829142D01*
X146716666Y-93686285D01*
X146764285Y-93495809D01*
X146764285Y-93114857D01*
X146716666Y-93019619D01*
X146669047Y-92972000D01*
X146573809Y-92924380D01*
X146383333Y-92924380D01*
X146288095Y-92972000D01*
X146240476Y-93019619D01*
X146192857Y-93114857D01*
X146192857Y-93352952D01*
X146240476Y-93448190D01*
X146288095Y-93495809D01*
X146383333Y-93543428D01*
X146573809Y-93543428D01*
X146669047Y-93495809D01*
X146716666Y-93448190D01*
X146764285Y-93352952D01*
X141843428Y-96067619D02*
X141891047Y-96020000D01*
X141986285Y-95972380D01*
X142224380Y-95972380D01*
X142319619Y-96020000D01*
X142367238Y-96067619D01*
X142414857Y-96162857D01*
X142414857Y-96258095D01*
X142367238Y-96400952D01*
X141795809Y-96972380D01*
X142414857Y-96972380D01*
X143367238Y-96972380D02*
X142795809Y-96972380D01*
X143081523Y-96972380D02*
X143081523Y-95972380D01*
X142986285Y-96115238D01*
X142891047Y-96210476D01*
X142795809Y-96258095D01*
X143700571Y-95972380D02*
X144367238Y-95972380D01*
X143938666Y-96972380D01*
X144748190Y-96877142D02*
X144795809Y-96924761D01*
X144748190Y-96972380D01*
X144700571Y-96924761D01*
X144748190Y-96877142D01*
X144748190Y-96972380D01*
X145748190Y-96972380D02*
X145176761Y-96972380D01*
X145462476Y-96972380D02*
X145462476Y-95972380D01*
X145367238Y-96115238D01*
X145272000Y-96210476D01*
X145176761Y-96258095D01*
X146081523Y-95972380D02*
X146748190Y-95972380D01*
X146319619Y-96972380D01*
X145335714Y-86018666D02*
X145811904Y-86018666D01*
X145240476Y-86304380D02*
X145573809Y-85304380D01*
X145907142Y-86304380D01*
X146669047Y-85637714D02*
X146669047Y-86304380D01*
X146430952Y-85256761D02*
X146192857Y-85971047D01*
X146811904Y-85971047D01*
X142573619Y-84113714D02*
X142573619Y-84780380D01*
X142335523Y-83732761D02*
X142097428Y-84447047D01*
X142716476Y-84447047D01*
X143621238Y-84780380D02*
X143049809Y-84780380D01*
X143335523Y-84780380D02*
X143335523Y-83780380D01*
X143240285Y-83923238D01*
X143145047Y-84018476D01*
X143049809Y-84066095D01*
X143954571Y-83780380D02*
X144621238Y-83780380D01*
X144192666Y-84780380D01*
X145002190Y-84685142D02*
X145049809Y-84732761D01*
X145002190Y-84780380D01*
X144954571Y-84732761D01*
X145002190Y-84685142D01*
X145002190Y-84780380D01*
X146002190Y-84780380D02*
X145430761Y-84780380D01*
X145716476Y-84780380D02*
X145716476Y-83780380D01*
X145621238Y-83923238D01*
X145526000Y-84018476D01*
X145430761Y-84066095D01*
X146335523Y-83780380D02*
X147002190Y-83780380D01*
X146573619Y-84780380D01*
X142621238Y-82256380D02*
X142145047Y-82256380D01*
X142097428Y-82732571D01*
X142145047Y-82684952D01*
X142240285Y-82637333D01*
X142478380Y-82637333D01*
X142573619Y-82684952D01*
X142621238Y-82732571D01*
X142668857Y-82827809D01*
X142668857Y-83065904D01*
X142621238Y-83161142D01*
X142573619Y-83208761D01*
X142478380Y-83256380D01*
X142240285Y-83256380D01*
X142145047Y-83208761D01*
X142097428Y-83161142D01*
X143621238Y-83256380D02*
X143049809Y-83256380D01*
X143335523Y-83256380D02*
X143335523Y-82256380D01*
X143240285Y-82399238D01*
X143145047Y-82494476D01*
X143049809Y-82542095D01*
X143954571Y-82256380D02*
X144621238Y-82256380D01*
X144192666Y-83256380D01*
X145002190Y-83161142D02*
X145049809Y-83208761D01*
X145002190Y-83256380D01*
X144954571Y-83208761D01*
X145002190Y-83161142D01*
X145002190Y-83256380D01*
X146002190Y-83256380D02*
X145430761Y-83256380D01*
X145716476Y-83256380D02*
X145716476Y-82256380D01*
X145621238Y-82399238D01*
X145526000Y-82494476D01*
X145430761Y-82542095D01*
X146335523Y-82256380D02*
X147002190Y-82256380D01*
X146573619Y-83256380D01*
X142581523Y-80732380D02*
X142391047Y-80732380D01*
X142295809Y-80780000D01*
X142248190Y-80827619D01*
X142152952Y-80970476D01*
X142105333Y-81160952D01*
X142105333Y-81541904D01*
X142152952Y-81637142D01*
X142200571Y-81684761D01*
X142295809Y-81732380D01*
X142486285Y-81732380D01*
X142581523Y-81684761D01*
X142629142Y-81637142D01*
X142676761Y-81541904D01*
X142676761Y-81303809D01*
X142629142Y-81208571D01*
X142581523Y-81160952D01*
X142486285Y-81113333D01*
X142295809Y-81113333D01*
X142200571Y-81160952D01*
X142152952Y-81208571D01*
X142105333Y-81303809D01*
X143629142Y-81732380D02*
X143057714Y-81732380D01*
X143343428Y-81732380D02*
X143343428Y-80732380D01*
X143248190Y-80875238D01*
X143152952Y-80970476D01*
X143057714Y-81018095D01*
X143962476Y-80732380D02*
X144629142Y-80732380D01*
X144200571Y-81732380D01*
X145010095Y-81637142D02*
X145057714Y-81684761D01*
X145010095Y-81732380D01*
X144962476Y-81684761D01*
X145010095Y-81637142D01*
X145010095Y-81732380D01*
X145914857Y-81732380D02*
X145914857Y-81208571D01*
X145867238Y-81113333D01*
X145772000Y-81065714D01*
X145581523Y-81065714D01*
X145486285Y-81113333D01*
X145914857Y-81684761D02*
X145819619Y-81732380D01*
X145581523Y-81732380D01*
X145486285Y-81684761D01*
X145438666Y-81589523D01*
X145438666Y-81494285D01*
X145486285Y-81399047D01*
X145581523Y-81351428D01*
X145819619Y-81351428D01*
X145914857Y-81303809D01*
X146391047Y-81732380D02*
X146391047Y-81065714D01*
X146391047Y-80732380D02*
X146343428Y-80780000D01*
X146391047Y-80827619D01*
X146438666Y-80780000D01*
X146391047Y-80732380D01*
X146391047Y-80827619D01*
X142549809Y-79208380D02*
X142359333Y-79208380D01*
X142264095Y-79256000D01*
X142216476Y-79303619D01*
X142121238Y-79446476D01*
X142073619Y-79636952D01*
X142073619Y-80017904D01*
X142121238Y-80113142D01*
X142168857Y-80160761D01*
X142264095Y-80208380D01*
X142454571Y-80208380D01*
X142549809Y-80160761D01*
X142597428Y-80113142D01*
X142645047Y-80017904D01*
X142645047Y-79779809D01*
X142597428Y-79684571D01*
X142549809Y-79636952D01*
X142454571Y-79589333D01*
X142264095Y-79589333D01*
X142168857Y-79636952D01*
X142121238Y-79684571D01*
X142073619Y-79779809D01*
X143597428Y-80208380D02*
X143026000Y-80208380D01*
X143311714Y-80208380D02*
X143311714Y-79208380D01*
X143216476Y-79351238D01*
X143121238Y-79446476D01*
X143026000Y-79494095D01*
X143930761Y-79208380D02*
X144597428Y-79208380D01*
X144168857Y-80208380D01*
X144978380Y-80113142D02*
X145026000Y-80160761D01*
X144978380Y-80208380D01*
X144930761Y-80160761D01*
X144978380Y-80113142D01*
X144978380Y-80208380D01*
X145883142Y-80208380D02*
X145883142Y-79684571D01*
X145835523Y-79589333D01*
X145740285Y-79541714D01*
X145549809Y-79541714D01*
X145454571Y-79589333D01*
X145883142Y-80160761D02*
X145787904Y-80208380D01*
X145549809Y-80208380D01*
X145454571Y-80160761D01*
X145406952Y-80065523D01*
X145406952Y-79970285D01*
X145454571Y-79875047D01*
X145549809Y-79827428D01*
X145787904Y-79827428D01*
X145883142Y-79779809D01*
X146549809Y-79208380D02*
X146740285Y-79208380D01*
X146835523Y-79256000D01*
X146930761Y-79351238D01*
X146978380Y-79541714D01*
X146978380Y-79875047D01*
X146930761Y-80065523D01*
X146835523Y-80160761D01*
X146740285Y-80208380D01*
X146549809Y-80208380D01*
X146454571Y-80160761D01*
X146359333Y-80065523D01*
X146311714Y-79875047D01*
X146311714Y-79541714D01*
X146359333Y-79351238D01*
X146454571Y-79256000D01*
X146549809Y-79208380D01*
X145335714Y-78398666D02*
X145811904Y-78398666D01*
X145240476Y-78684380D02*
X145573809Y-77684380D01*
X145907142Y-78684380D01*
X146145238Y-77684380D02*
X146764285Y-77684380D01*
X146430952Y-78065333D01*
X146573809Y-78065333D01*
X146669047Y-78112952D01*
X146716666Y-78160571D01*
X146764285Y-78255809D01*
X146764285Y-78493904D01*
X146716666Y-78589142D01*
X146669047Y-78636761D01*
X146573809Y-78684380D01*
X146288095Y-78684380D01*
X146192857Y-78636761D01*
X146145238Y-78589142D01*
X145335714Y-76874666D02*
X145811904Y-76874666D01*
X145240476Y-77160380D02*
X145573809Y-76160380D01*
X145907142Y-77160380D01*
X146192857Y-76255619D02*
X146240476Y-76208000D01*
X146335714Y-76160380D01*
X146573809Y-76160380D01*
X146669047Y-76208000D01*
X146716666Y-76255619D01*
X146764285Y-76350857D01*
X146764285Y-76446095D01*
X146716666Y-76588952D01*
X146145238Y-77160380D01*
X146764285Y-77160380D01*
D12*
G04 #@! TO.C,C3*
X121084659Y-87266240D02*
X120759101Y-87266240D01*
X121084659Y-86246240D02*
X120759101Y-86246240D01*
G04 #@! TO.C,C4*
X126490000Y-98160721D02*
X126490000Y-98486279D01*
X127510000Y-98160721D02*
X127510000Y-98486279D01*
G04 #@! TO.C,C5*
X121061599Y-92342240D02*
X120736041Y-92342240D01*
X121061599Y-93362240D02*
X120736041Y-93362240D01*
G04 #@! TO.C,C6*
X130480340Y-81562059D02*
X130480340Y-81236501D01*
X131500340Y-81562059D02*
X131500340Y-81236501D01*
G04 #@! TO.C,C7*
X137533061Y-93855000D02*
X137858619Y-93855000D01*
X137533061Y-92835000D02*
X137858619Y-92835000D01*
G04 #@! TO.C,J5*
X106386940Y-67882460D02*
X103726940Y-67882460D01*
X106386940Y-111122460D02*
X106386940Y-67882460D01*
X103726940Y-111122460D02*
X103726940Y-67882460D01*
X106386940Y-111122460D02*
X103726940Y-111122460D01*
X106386940Y-112392460D02*
X106386940Y-113722460D01*
X106386940Y-113722460D02*
X105056940Y-113722460D01*
G04 #@! TO.C,J7*
X152160280Y-113638020D02*
X152160280Y-114968020D01*
X150830280Y-113638020D02*
X152160280Y-113638020D01*
X149560280Y-113638020D02*
X149560280Y-116298020D01*
X149560280Y-116298020D02*
X106320280Y-116298020D01*
X149560280Y-113638020D02*
X106320280Y-113638020D01*
X106320280Y-113638020D02*
X106320280Y-116298020D01*
G04 #@! TO.C,J8*
X152129180Y-67684340D02*
X153459180Y-67684340D01*
X152129180Y-69014340D02*
X152129180Y-67684340D01*
X152129180Y-70284340D02*
X154789180Y-70284340D01*
X154789180Y-70284340D02*
X154789180Y-113524340D01*
X152129180Y-70284340D02*
X152129180Y-113524340D01*
X152129180Y-113524340D02*
X154789180Y-113524340D01*
D11*
G04 #@! TO.C,U1*
X123827421Y-85970000D02*
G75*
G03X123827421Y-85970000I-141421J0D01*
G01*
X124086000Y-85670000D02*
X124786000Y-84970000D01*
X124786000Y-84970000D02*
X134486000Y-84970000D01*
X134486000Y-84970000D02*
X134486000Y-95370000D01*
X134486000Y-95370000D02*
X124086000Y-95370000D01*
X124086000Y-95370000D02*
X124086000Y-85670000D01*
D12*
G04 #@! TO.C,J1*
X154746000Y-67624000D02*
X154746000Y-64964000D01*
X106426000Y-67624000D02*
X154746000Y-67624000D01*
X106426000Y-64964000D02*
X154746000Y-64964000D01*
X106426000Y-67624000D02*
X106426000Y-64964000D01*
X105156000Y-67624000D02*
X103826000Y-67624000D01*
X103826000Y-67624000D02*
X103826000Y-66294000D01*
G04 #@! TO.C,C3*
D11*
X120755213Y-88543382D02*
X120707594Y-88591001D01*
X120564737Y-88638620D01*
X120469499Y-88638620D01*
X120326641Y-88591001D01*
X120231403Y-88495763D01*
X120183784Y-88400525D01*
X120136165Y-88210049D01*
X120136165Y-88067192D01*
X120183784Y-87876716D01*
X120231403Y-87781478D01*
X120326641Y-87686240D01*
X120469499Y-87638620D01*
X120564737Y-87638620D01*
X120707594Y-87686240D01*
X120755213Y-87733859D01*
X121088546Y-87638620D02*
X121707594Y-87638620D01*
X121374260Y-88019573D01*
X121517118Y-88019573D01*
X121612356Y-88067192D01*
X121659975Y-88114811D01*
X121707594Y-88210049D01*
X121707594Y-88448144D01*
X121659975Y-88543382D01*
X121612356Y-88591001D01*
X121517118Y-88638620D01*
X121231403Y-88638620D01*
X121136165Y-88591001D01*
X121088546Y-88543382D01*
G04 #@! TO.C,C4*
X128787142Y-98490166D02*
X128834761Y-98537785D01*
X128882380Y-98680642D01*
X128882380Y-98775880D01*
X128834761Y-98918738D01*
X128739523Y-99013976D01*
X128644285Y-99061595D01*
X128453809Y-99109214D01*
X128310952Y-99109214D01*
X128120476Y-99061595D01*
X128025238Y-99013976D01*
X127930000Y-98918738D01*
X127882380Y-98775880D01*
X127882380Y-98680642D01*
X127930000Y-98537785D01*
X127977619Y-98490166D01*
X128215714Y-97633023D02*
X128882380Y-97633023D01*
X127834761Y-97871119D02*
X128549047Y-98109214D01*
X128549047Y-97490166D01*
G04 #@! TO.C,C5*
X120732153Y-94639382D02*
X120684534Y-94687001D01*
X120541677Y-94734620D01*
X120446439Y-94734620D01*
X120303581Y-94687001D01*
X120208343Y-94591763D01*
X120160724Y-94496525D01*
X120113105Y-94306049D01*
X120113105Y-94163192D01*
X120160724Y-93972716D01*
X120208343Y-93877478D01*
X120303581Y-93782240D01*
X120446439Y-93734620D01*
X120541677Y-93734620D01*
X120684534Y-93782240D01*
X120732153Y-93829859D01*
X121636915Y-93734620D02*
X121160724Y-93734620D01*
X121113105Y-94210811D01*
X121160724Y-94163192D01*
X121255962Y-94115573D01*
X121494058Y-94115573D01*
X121589296Y-94163192D01*
X121636915Y-94210811D01*
X121684534Y-94306049D01*
X121684534Y-94544144D01*
X121636915Y-94639382D01*
X121589296Y-94687001D01*
X121494058Y-94734620D01*
X121255962Y-94734620D01*
X121160724Y-94687001D01*
X121113105Y-94639382D01*
G04 #@! TO.C,C6*
X129917482Y-81565946D02*
X129965101Y-81613565D01*
X130012720Y-81756422D01*
X130012720Y-81851660D01*
X129965101Y-81994518D01*
X129869863Y-82089756D01*
X129774625Y-82137375D01*
X129584149Y-82184994D01*
X129441292Y-82184994D01*
X129250816Y-82137375D01*
X129155578Y-82089756D01*
X129060340Y-81994518D01*
X129012720Y-81851660D01*
X129012720Y-81756422D01*
X129060340Y-81613565D01*
X129107959Y-81565946D01*
X129012720Y-80708803D02*
X129012720Y-80899280D01*
X129060340Y-80994518D01*
X129107959Y-81042137D01*
X129250816Y-81137375D01*
X129441292Y-81184994D01*
X129822244Y-81184994D01*
X129917482Y-81137375D01*
X129965101Y-81089756D01*
X130012720Y-80994518D01*
X130012720Y-80804041D01*
X129965101Y-80708803D01*
X129917482Y-80661184D01*
X129822244Y-80613565D01*
X129584149Y-80613565D01*
X129488911Y-80661184D01*
X129441292Y-80708803D01*
X129393673Y-80804041D01*
X129393673Y-80994518D01*
X129441292Y-81089756D01*
X129488911Y-81137375D01*
X129584149Y-81184994D01*
G04 #@! TO.C,C7*
X137529173Y-92272142D02*
X137481554Y-92319761D01*
X137338697Y-92367380D01*
X137243459Y-92367380D01*
X137100601Y-92319761D01*
X137005363Y-92224523D01*
X136957744Y-92129285D01*
X136910125Y-91938809D01*
X136910125Y-91795952D01*
X136957744Y-91605476D01*
X137005363Y-91510238D01*
X137100601Y-91415000D01*
X137243459Y-91367380D01*
X137338697Y-91367380D01*
X137481554Y-91415000D01*
X137529173Y-91462619D01*
X137862506Y-91367380D02*
X138529173Y-91367380D01*
X138100601Y-92367380D01*
G04 #@! TO.C,J5*
X104723606Y-114174840D02*
X104723606Y-114889126D01*
X104675987Y-115031983D01*
X104580749Y-115127221D01*
X104437892Y-115174840D01*
X104342654Y-115174840D01*
X105675987Y-114174840D02*
X105199797Y-114174840D01*
X105152178Y-114651031D01*
X105199797Y-114603412D01*
X105295035Y-114555793D01*
X105533130Y-114555793D01*
X105628368Y-114603412D01*
X105675987Y-114651031D01*
X105723606Y-114746269D01*
X105723606Y-114984364D01*
X105675987Y-115079602D01*
X105628368Y-115127221D01*
X105533130Y-115174840D01*
X105295035Y-115174840D01*
X105199797Y-115127221D01*
X105152178Y-115079602D01*
G04 #@! TO.C,J7*
X152612660Y-115301353D02*
X153326946Y-115301353D01*
X153469803Y-115348972D01*
X153565041Y-115444210D01*
X153612660Y-115587067D01*
X153612660Y-115682305D01*
X152612660Y-114920400D02*
X152612660Y-114253734D01*
X153612660Y-114682305D01*
G04 #@! TO.C,J8*
X153125846Y-66136720D02*
X153125846Y-66851006D01*
X153078227Y-66993863D01*
X152982989Y-67089101D01*
X152840132Y-67136720D01*
X152744894Y-67136720D01*
X153744894Y-66565292D02*
X153649656Y-66517673D01*
X153602037Y-66470054D01*
X153554418Y-66374816D01*
X153554418Y-66327197D01*
X153602037Y-66231959D01*
X153649656Y-66184340D01*
X153744894Y-66136720D01*
X153935370Y-66136720D01*
X154030608Y-66184340D01*
X154078227Y-66231959D01*
X154125846Y-66327197D01*
X154125846Y-66374816D01*
X154078227Y-66470054D01*
X154030608Y-66517673D01*
X153935370Y-66565292D01*
X153744894Y-66565292D01*
X153649656Y-66612911D01*
X153602037Y-66660530D01*
X153554418Y-66755768D01*
X153554418Y-66946244D01*
X153602037Y-67041482D01*
X153649656Y-67089101D01*
X153744894Y-67136720D01*
X153935370Y-67136720D01*
X154030608Y-67089101D01*
X154078227Y-67041482D01*
X154125846Y-66946244D01*
X154125846Y-66755768D01*
X154078227Y-66660530D01*
X154030608Y-66612911D01*
X153935370Y-66565292D01*
G04 #@! TO.C,J1*
X102278380Y-66627333D02*
X102992666Y-66627333D01*
X103135523Y-66674952D01*
X103230761Y-66770190D01*
X103278380Y-66913047D01*
X103278380Y-67008285D01*
X103278380Y-65627333D02*
X103278380Y-66198761D01*
X103278380Y-65913047D02*
X102278380Y-65913047D01*
X102421238Y-66008285D01*
X102516476Y-66103523D01*
X102564095Y-66198761D01*
G04 #@! TD*
M02*
