G04 #@! TF.GenerationSoftware,KiCad,Pcbnew,5.0.2-bee76a0~70~ubuntu14.04.1*
G04 #@! TF.CreationDate,2018-12-14T18:36:52-07:00*
G04 #@! TF.ProjectId,breakout,62726561-6b6f-4757-942e-6b696361645f,rev?*
G04 #@! TF.SameCoordinates,Original*
G04 #@! TF.FileFunction,Copper,L2,Bot*
G04 #@! TF.FilePolarity,Positive*
%FSLAX46Y46*%
G04 Gerber Fmt 4.6, Leading zero omitted, Abs format (unit mm)*
G04 Created by KiCad (PCBNEW 5.0.2-bee76a0~70~ubuntu14.04.1) date Fri 14 Dec 2018 06:36:52 PM MST*
%MOMM*%
%LPD*%
G01*
G04 APERTURE LIST*
G04 #@! TA.AperFunction,ComponentPad*
%ADD10R,1.700000X1.700000*%
G04 #@! TD*
G04 #@! TA.AperFunction,ComponentPad*
%ADD11O,1.700000X1.700000*%
G04 #@! TD*
G04 #@! TA.AperFunction,ViaPad*
%ADD12C,0.800000*%
G04 #@! TD*
G04 #@! TA.AperFunction,Conductor*
%ADD13C,0.160000*%
G04 #@! TD*
G04 APERTURE END LIST*
D10*
G04 #@! TO.P,J5,1*
G04 #@! TO.N,d11*
X105056940Y-112392460D03*
D11*
G04 #@! TO.P,J5,2*
G04 #@! TO.N,d10*
X105056940Y-109852460D03*
G04 #@! TO.P,J5,3*
G04 #@! TO.N,100.17*
X105056940Y-107312460D03*
G04 #@! TO.P,J5,4*
G04 #@! TO.N,200.17*
X105056940Y-104772460D03*
G04 #@! TO.P,J5,5*
G04 #@! TO.N,d9*
X105056940Y-102232460D03*
G04 #@! TO.P,J5,6*
G04 #@! TO.N,300.1*
X105056940Y-99692460D03*
G04 #@! TO.P,J5,7*
G04 #@! TO.N,300.17*
X105056940Y-97152460D03*
G04 #@! TO.P,J5,8*
G04 #@! TO.N,d8*
X105056940Y-94612460D03*
G04 #@! TO.P,J5,9*
G04 #@! TO.N,d7*
X105056940Y-92072460D03*
G04 #@! TO.P,J5,10*
G04 #@! TO.N,d6*
X105056940Y-89532460D03*
G04 #@! TO.P,J5,11*
G04 #@! TO.N,d5*
X105056940Y-86992460D03*
G04 #@! TO.P,J5,12*
G04 #@! TO.N,d4*
X105056940Y-84452460D03*
G04 #@! TO.P,J5,13*
G04 #@! TO.N,d3*
X105056940Y-81912460D03*
G04 #@! TO.P,J5,14*
G04 #@! TO.N,500.17*
X105056940Y-79372460D03*
G04 #@! TO.P,J5,15*
G04 #@! TO.N,600.17*
X105056940Y-76832460D03*
G04 #@! TO.P,J5,16*
G04 #@! TO.N,d2*
X105056940Y-74292460D03*
G04 #@! TO.P,J5,17*
G04 #@! TO.N,d1*
X105056940Y-71752460D03*
G04 #@! TO.P,J5,18*
G04 #@! TO.N,d0*
X105056940Y-69212460D03*
G04 #@! TD*
G04 #@! TO.P,J7,18*
G04 #@! TO.N,d12*
X107650280Y-114968020D03*
G04 #@! TO.P,J7,17*
G04 #@! TO.N,d13*
X110190280Y-114968020D03*
G04 #@! TO.P,J7,16*
G04 #@! TO.N,d14*
X112730280Y-114968020D03*
G04 #@! TO.P,J7,15*
G04 #@! TO.N,001.1*
X115270280Y-114968020D03*
G04 #@! TO.P,J7,14*
G04 #@! TO.N,001.17*
X117810280Y-114968020D03*
G04 #@! TO.P,J7,13*
G04 #@! TO.N,d15*
X120350280Y-114968020D03*
G04 #@! TO.P,J7,12*
G04 #@! TO.N,d16*
X122890280Y-114968020D03*
G04 #@! TO.P,J7,11*
G04 #@! TO.N,d17*
X125430280Y-114968020D03*
G04 #@! TO.P,J7,10*
G04 #@! TO.N,008.17*
X127970280Y-114968020D03*
G04 #@! TO.P,J7,9*
G04 #@! TO.N,008.5*
X130510280Y-114968020D03*
G04 #@! TO.P,J7,8*
G04 #@! TO.N,008.3*
X133050280Y-114968020D03*
G04 #@! TO.P,J7,7*
G04 #@! TO.N,008.1*
X135590280Y-114968020D03*
G04 #@! TO.P,J7,6*
G04 #@! TO.N,a17*
X138130280Y-114968020D03*
G04 #@! TO.P,J7,5*
G04 #@! TO.N,a16*
X140670280Y-114968020D03*
G04 #@! TO.P,J7,4*
G04 #@! TO.N,a15*
X143210280Y-114968020D03*
G04 #@! TO.P,J7,3*
G04 #@! TO.N,a14*
X145750280Y-114968020D03*
G04 #@! TO.P,J7,2*
G04 #@! TO.N,a13*
X148290280Y-114968020D03*
D10*
G04 #@! TO.P,J7,1*
G04 #@! TO.N,a12*
X150830280Y-114968020D03*
G04 #@! TD*
D11*
G04 #@! TO.P,J8,18*
G04 #@! TO.N,a11*
X153459180Y-112194340D03*
G04 #@! TO.P,J8,17*
G04 #@! TO.N,a10*
X153459180Y-109654340D03*
G04 #@! TO.P,J8,16*
G04 #@! TO.N,117.ai*
X153459180Y-107114340D03*
G04 #@! TO.P,J8,15*
G04 #@! TO.N,117.ao*
X153459180Y-104574340D03*
G04 #@! TO.P,J8,14*
G04 #@! TO.N,217.17*
X153459180Y-102034340D03*
G04 #@! TO.P,J8,13*
G04 #@! TO.N,317.17*
X153459180Y-99494340D03*
G04 #@! TO.P,J8,12*
G04 #@! TO.N,a9*
X153459180Y-96954340D03*
G04 #@! TO.P,J8,11*
G04 #@! TO.N,a8*
X153459180Y-94414340D03*
G04 #@! TO.P,J8,10*
G04 #@! TO.N,a7*
X153459180Y-91874340D03*
G04 #@! TO.P,J8,9*
G04 #@! TO.N,a6*
X153459180Y-89334340D03*
G04 #@! TO.P,J8,8*
G04 #@! TO.N,a5*
X153459180Y-86794340D03*
G04 #@! TO.P,J8,7*
G04 #@! TO.N,a4*
X153459180Y-84254340D03*
G04 #@! TO.P,J8,6*
G04 #@! TO.N,417.17*
X153459180Y-81714340D03*
G04 #@! TO.P,J8,5*
G04 #@! TO.N,517.17*
X153459180Y-79174340D03*
G04 #@! TO.P,J8,4*
G04 #@! TO.N,617.a1*
X153459180Y-76634340D03*
G04 #@! TO.P,J8,3*
G04 #@! TO.N,617.ao*
X153459180Y-74094340D03*
G04 #@! TO.P,J8,2*
G04 #@! TO.N,a3*
X153459180Y-71554340D03*
D10*
G04 #@! TO.P,J8,1*
G04 #@! TO.N,a2*
X153459180Y-69014340D03*
G04 #@! TD*
G04 #@! TO.P,J1,1*
G04 #@! TO.N,GND*
X105156000Y-66294000D03*
D11*
G04 #@! TO.P,J1,2*
G04 #@! TO.N,1.8v*
X107696000Y-66294000D03*
G04 #@! TO.P,J1,3*
G04 #@! TO.N,RESET*
X110236000Y-66294000D03*
G04 #@! TO.P,J1,4*
G04 #@! TO.N,701.1*
X112776000Y-66294000D03*
G04 #@! TO.P,J1,5*
G04 #@! TO.N,701.17*
X115316000Y-66294000D03*
G04 #@! TO.P,J1,6*
G04 #@! TO.N,705.17*
X117856000Y-66294000D03*
G04 #@! TO.P,J1,7*
G04 #@! TO.N,705.5*
X120396000Y-66294000D03*
G04 #@! TO.P,J1,8*
G04 #@! TO.N,705.3*
X122936000Y-66294000D03*
G04 #@! TO.P,J1,9*
G04 #@! TO.N,705.1*
X125476000Y-66294000D03*
G04 #@! TO.P,J1,10*
G04 #@! TO.N,708.1*
X128016000Y-66294000D03*
G04 #@! TO.P,J1,11*
G04 #@! TO.N,708.17*
X130556000Y-66294000D03*
G04 #@! TO.P,J1,12*
G04 #@! TO.N,709.ao*
X133096000Y-66294000D03*
G04 #@! TO.P,J1,13*
G04 #@! TO.N,709.ai*
X135636000Y-66294000D03*
G04 #@! TO.P,J1,14*
G04 #@! TO.N,713ai*
X138176000Y-66294000D03*
G04 #@! TO.P,J1,15*
G04 #@! TO.N,713.ao*
X140716000Y-66294000D03*
G04 #@! TO.P,J1,16*
G04 #@! TO.N,715.17*
X143256000Y-66294000D03*
G04 #@! TO.P,J1,17*
G04 #@! TO.N,717.ao*
X145796000Y-66294000D03*
G04 #@! TO.P,J1,18*
G04 #@! TO.N,717.ai*
X148336000Y-66294000D03*
G04 #@! TO.P,J1,19*
G04 #@! TO.N,a0*
X150876000Y-66294000D03*
G04 #@! TO.P,J1,20*
G04 #@! TO.N,a1*
X153416000Y-66294000D03*
G04 #@! TD*
D12*
G04 #@! TO.N,GND*
X120129300Y-86715600D03*
X130860800Y-88577420D03*
X127439420Y-88452960D03*
X125765560Y-91922600D03*
X125798580Y-88392000D03*
X132796280Y-91922600D03*
X132765800Y-88455500D03*
X132765800Y-90030300D03*
X129265680Y-89809320D03*
X125735080Y-90030300D03*
X132859780Y-93718380D03*
X132826760Y-86657180D03*
X125735080Y-86626700D03*
X125735080Y-93718380D03*
X130990340Y-80622140D03*
X120086120Y-92847160D03*
X126992380Y-99108260D03*
X138488420Y-93329760D03*
G04 #@! TD*
D13*
G04 #@! TO.N,GND*
G36*
X154981408Y-64714083D02*
X155114424Y-116545428D01*
X103469968Y-116562993D01*
X103472437Y-114968020D01*
X106498142Y-114968020D01*
X106585843Y-115408924D01*
X106835595Y-115782705D01*
X107209376Y-116032457D01*
X107538984Y-116098020D01*
X107761576Y-116098020D01*
X108091184Y-116032457D01*
X108464965Y-115782705D01*
X108714717Y-115408924D01*
X108802418Y-114968020D01*
X109038142Y-114968020D01*
X109125843Y-115408924D01*
X109375595Y-115782705D01*
X109749376Y-116032457D01*
X110078984Y-116098020D01*
X110301576Y-116098020D01*
X110631184Y-116032457D01*
X111004965Y-115782705D01*
X111254717Y-115408924D01*
X111342418Y-114968020D01*
X111578142Y-114968020D01*
X111665843Y-115408924D01*
X111915595Y-115782705D01*
X112289376Y-116032457D01*
X112618984Y-116098020D01*
X112841576Y-116098020D01*
X113171184Y-116032457D01*
X113544965Y-115782705D01*
X113794717Y-115408924D01*
X113882418Y-114968020D01*
X114118142Y-114968020D01*
X114205843Y-115408924D01*
X114455595Y-115782705D01*
X114829376Y-116032457D01*
X115158984Y-116098020D01*
X115381576Y-116098020D01*
X115711184Y-116032457D01*
X116084965Y-115782705D01*
X116334717Y-115408924D01*
X116422418Y-114968020D01*
X116658142Y-114968020D01*
X116745843Y-115408924D01*
X116995595Y-115782705D01*
X117369376Y-116032457D01*
X117698984Y-116098020D01*
X117921576Y-116098020D01*
X118251184Y-116032457D01*
X118624965Y-115782705D01*
X118874717Y-115408924D01*
X118962418Y-114968020D01*
X119198142Y-114968020D01*
X119285843Y-115408924D01*
X119535595Y-115782705D01*
X119909376Y-116032457D01*
X120238984Y-116098020D01*
X120461576Y-116098020D01*
X120791184Y-116032457D01*
X121164965Y-115782705D01*
X121414717Y-115408924D01*
X121502418Y-114968020D01*
X121738142Y-114968020D01*
X121825843Y-115408924D01*
X122075595Y-115782705D01*
X122449376Y-116032457D01*
X122778984Y-116098020D01*
X123001576Y-116098020D01*
X123331184Y-116032457D01*
X123704965Y-115782705D01*
X123954717Y-115408924D01*
X124042418Y-114968020D01*
X124278142Y-114968020D01*
X124365843Y-115408924D01*
X124615595Y-115782705D01*
X124989376Y-116032457D01*
X125318984Y-116098020D01*
X125541576Y-116098020D01*
X125871184Y-116032457D01*
X126244965Y-115782705D01*
X126494717Y-115408924D01*
X126582418Y-114968020D01*
X126818142Y-114968020D01*
X126905843Y-115408924D01*
X127155595Y-115782705D01*
X127529376Y-116032457D01*
X127858984Y-116098020D01*
X128081576Y-116098020D01*
X128411184Y-116032457D01*
X128784965Y-115782705D01*
X129034717Y-115408924D01*
X129122418Y-114968020D01*
X129358142Y-114968020D01*
X129445843Y-115408924D01*
X129695595Y-115782705D01*
X130069376Y-116032457D01*
X130398984Y-116098020D01*
X130621576Y-116098020D01*
X130951184Y-116032457D01*
X131324965Y-115782705D01*
X131574717Y-115408924D01*
X131662418Y-114968020D01*
X131898142Y-114968020D01*
X131985843Y-115408924D01*
X132235595Y-115782705D01*
X132609376Y-116032457D01*
X132938984Y-116098020D01*
X133161576Y-116098020D01*
X133491184Y-116032457D01*
X133864965Y-115782705D01*
X134114717Y-115408924D01*
X134202418Y-114968020D01*
X134438142Y-114968020D01*
X134525843Y-115408924D01*
X134775595Y-115782705D01*
X135149376Y-116032457D01*
X135478984Y-116098020D01*
X135701576Y-116098020D01*
X136031184Y-116032457D01*
X136404965Y-115782705D01*
X136654717Y-115408924D01*
X136742418Y-114968020D01*
X136978142Y-114968020D01*
X137065843Y-115408924D01*
X137315595Y-115782705D01*
X137689376Y-116032457D01*
X138018984Y-116098020D01*
X138241576Y-116098020D01*
X138571184Y-116032457D01*
X138944965Y-115782705D01*
X139194717Y-115408924D01*
X139282418Y-114968020D01*
X139518142Y-114968020D01*
X139605843Y-115408924D01*
X139855595Y-115782705D01*
X140229376Y-116032457D01*
X140558984Y-116098020D01*
X140781576Y-116098020D01*
X141111184Y-116032457D01*
X141484965Y-115782705D01*
X141734717Y-115408924D01*
X141822418Y-114968020D01*
X142058142Y-114968020D01*
X142145843Y-115408924D01*
X142395595Y-115782705D01*
X142769376Y-116032457D01*
X143098984Y-116098020D01*
X143321576Y-116098020D01*
X143651184Y-116032457D01*
X144024965Y-115782705D01*
X144274717Y-115408924D01*
X144362418Y-114968020D01*
X144598142Y-114968020D01*
X144685843Y-115408924D01*
X144935595Y-115782705D01*
X145309376Y-116032457D01*
X145638984Y-116098020D01*
X145861576Y-116098020D01*
X146191184Y-116032457D01*
X146564965Y-115782705D01*
X146814717Y-115408924D01*
X146902418Y-114968020D01*
X147138142Y-114968020D01*
X147225843Y-115408924D01*
X147475595Y-115782705D01*
X147849376Y-116032457D01*
X148178984Y-116098020D01*
X148401576Y-116098020D01*
X148731184Y-116032457D01*
X149104965Y-115782705D01*
X149354717Y-115408924D01*
X149442418Y-114968020D01*
X149354717Y-114527116D01*
X149104965Y-114153335D01*
X149052113Y-114118020D01*
X149694795Y-114118020D01*
X149694795Y-115818020D01*
X149716526Y-115927270D01*
X149778412Y-116019888D01*
X149871030Y-116081774D01*
X149980280Y-116103505D01*
X151680280Y-116103505D01*
X151789530Y-116081774D01*
X151882148Y-116019888D01*
X151944034Y-115927270D01*
X151965765Y-115818020D01*
X151965765Y-114118020D01*
X151944034Y-114008770D01*
X151882148Y-113916152D01*
X151789530Y-113854266D01*
X151680280Y-113832535D01*
X149980280Y-113832535D01*
X149871030Y-113854266D01*
X149778412Y-113916152D01*
X149716526Y-114008770D01*
X149694795Y-114118020D01*
X149052113Y-114118020D01*
X148731184Y-113903583D01*
X148401576Y-113838020D01*
X148178984Y-113838020D01*
X147849376Y-113903583D01*
X147475595Y-114153335D01*
X147225843Y-114527116D01*
X147138142Y-114968020D01*
X146902418Y-114968020D01*
X146814717Y-114527116D01*
X146564965Y-114153335D01*
X146191184Y-113903583D01*
X145861576Y-113838020D01*
X145638984Y-113838020D01*
X145309376Y-113903583D01*
X144935595Y-114153335D01*
X144685843Y-114527116D01*
X144598142Y-114968020D01*
X144362418Y-114968020D01*
X144274717Y-114527116D01*
X144024965Y-114153335D01*
X143651184Y-113903583D01*
X143321576Y-113838020D01*
X143098984Y-113838020D01*
X142769376Y-113903583D01*
X142395595Y-114153335D01*
X142145843Y-114527116D01*
X142058142Y-114968020D01*
X141822418Y-114968020D01*
X141734717Y-114527116D01*
X141484965Y-114153335D01*
X141111184Y-113903583D01*
X140781576Y-113838020D01*
X140558984Y-113838020D01*
X140229376Y-113903583D01*
X139855595Y-114153335D01*
X139605843Y-114527116D01*
X139518142Y-114968020D01*
X139282418Y-114968020D01*
X139194717Y-114527116D01*
X138944965Y-114153335D01*
X138571184Y-113903583D01*
X138241576Y-113838020D01*
X138018984Y-113838020D01*
X137689376Y-113903583D01*
X137315595Y-114153335D01*
X137065843Y-114527116D01*
X136978142Y-114968020D01*
X136742418Y-114968020D01*
X136654717Y-114527116D01*
X136404965Y-114153335D01*
X136031184Y-113903583D01*
X135701576Y-113838020D01*
X135478984Y-113838020D01*
X135149376Y-113903583D01*
X134775595Y-114153335D01*
X134525843Y-114527116D01*
X134438142Y-114968020D01*
X134202418Y-114968020D01*
X134114717Y-114527116D01*
X133864965Y-114153335D01*
X133491184Y-113903583D01*
X133161576Y-113838020D01*
X132938984Y-113838020D01*
X132609376Y-113903583D01*
X132235595Y-114153335D01*
X131985843Y-114527116D01*
X131898142Y-114968020D01*
X131662418Y-114968020D01*
X131574717Y-114527116D01*
X131324965Y-114153335D01*
X130951184Y-113903583D01*
X130621576Y-113838020D01*
X130398984Y-113838020D01*
X130069376Y-113903583D01*
X129695595Y-114153335D01*
X129445843Y-114527116D01*
X129358142Y-114968020D01*
X129122418Y-114968020D01*
X129034717Y-114527116D01*
X128784965Y-114153335D01*
X128411184Y-113903583D01*
X128081576Y-113838020D01*
X127858984Y-113838020D01*
X127529376Y-113903583D01*
X127155595Y-114153335D01*
X126905843Y-114527116D01*
X126818142Y-114968020D01*
X126582418Y-114968020D01*
X126494717Y-114527116D01*
X126244965Y-114153335D01*
X125871184Y-113903583D01*
X125541576Y-113838020D01*
X125318984Y-113838020D01*
X124989376Y-113903583D01*
X124615595Y-114153335D01*
X124365843Y-114527116D01*
X124278142Y-114968020D01*
X124042418Y-114968020D01*
X123954717Y-114527116D01*
X123704965Y-114153335D01*
X123331184Y-113903583D01*
X123001576Y-113838020D01*
X122778984Y-113838020D01*
X122449376Y-113903583D01*
X122075595Y-114153335D01*
X121825843Y-114527116D01*
X121738142Y-114968020D01*
X121502418Y-114968020D01*
X121414717Y-114527116D01*
X121164965Y-114153335D01*
X120791184Y-113903583D01*
X120461576Y-113838020D01*
X120238984Y-113838020D01*
X119909376Y-113903583D01*
X119535595Y-114153335D01*
X119285843Y-114527116D01*
X119198142Y-114968020D01*
X118962418Y-114968020D01*
X118874717Y-114527116D01*
X118624965Y-114153335D01*
X118251184Y-113903583D01*
X117921576Y-113838020D01*
X117698984Y-113838020D01*
X117369376Y-113903583D01*
X116995595Y-114153335D01*
X116745843Y-114527116D01*
X116658142Y-114968020D01*
X116422418Y-114968020D01*
X116334717Y-114527116D01*
X116084965Y-114153335D01*
X115711184Y-113903583D01*
X115381576Y-113838020D01*
X115158984Y-113838020D01*
X114829376Y-113903583D01*
X114455595Y-114153335D01*
X114205843Y-114527116D01*
X114118142Y-114968020D01*
X113882418Y-114968020D01*
X113794717Y-114527116D01*
X113544965Y-114153335D01*
X113171184Y-113903583D01*
X112841576Y-113838020D01*
X112618984Y-113838020D01*
X112289376Y-113903583D01*
X111915595Y-114153335D01*
X111665843Y-114527116D01*
X111578142Y-114968020D01*
X111342418Y-114968020D01*
X111254717Y-114527116D01*
X111004965Y-114153335D01*
X110631184Y-113903583D01*
X110301576Y-113838020D01*
X110078984Y-113838020D01*
X109749376Y-113903583D01*
X109375595Y-114153335D01*
X109125843Y-114527116D01*
X109038142Y-114968020D01*
X108802418Y-114968020D01*
X108714717Y-114527116D01*
X108464965Y-114153335D01*
X108091184Y-113903583D01*
X107761576Y-113838020D01*
X107538984Y-113838020D01*
X107209376Y-113903583D01*
X106835595Y-114153335D01*
X106585843Y-114527116D01*
X106498142Y-114968020D01*
X103472437Y-114968020D01*
X103477740Y-111542460D01*
X103921455Y-111542460D01*
X103921455Y-113242460D01*
X103943186Y-113351710D01*
X104005072Y-113444328D01*
X104097690Y-113506214D01*
X104206940Y-113527945D01*
X105906940Y-113527945D01*
X106016190Y-113506214D01*
X106108808Y-113444328D01*
X106170694Y-113351710D01*
X106192425Y-113242460D01*
X106192425Y-112194340D01*
X152307042Y-112194340D01*
X152394743Y-112635244D01*
X152644495Y-113009025D01*
X153018276Y-113258777D01*
X153347884Y-113324340D01*
X153570476Y-113324340D01*
X153900084Y-113258777D01*
X154273865Y-113009025D01*
X154523617Y-112635244D01*
X154611318Y-112194340D01*
X154523617Y-111753436D01*
X154273865Y-111379655D01*
X153900084Y-111129903D01*
X153570476Y-111064340D01*
X153347884Y-111064340D01*
X153018276Y-111129903D01*
X152644495Y-111379655D01*
X152394743Y-111753436D01*
X152307042Y-112194340D01*
X106192425Y-112194340D01*
X106192425Y-111542460D01*
X106170694Y-111433210D01*
X106108808Y-111340592D01*
X106016190Y-111278706D01*
X105906940Y-111256975D01*
X104206940Y-111256975D01*
X104097690Y-111278706D01*
X104005072Y-111340592D01*
X103943186Y-111433210D01*
X103921455Y-111542460D01*
X103477740Y-111542460D01*
X103480357Y-109852460D01*
X103904802Y-109852460D01*
X103992503Y-110293364D01*
X104242255Y-110667145D01*
X104616036Y-110916897D01*
X104945644Y-110982460D01*
X105168236Y-110982460D01*
X105497844Y-110916897D01*
X105871625Y-110667145D01*
X106121377Y-110293364D01*
X106209078Y-109852460D01*
X106169670Y-109654340D01*
X152307042Y-109654340D01*
X152394743Y-110095244D01*
X152644495Y-110469025D01*
X153018276Y-110718777D01*
X153347884Y-110784340D01*
X153570476Y-110784340D01*
X153900084Y-110718777D01*
X154273865Y-110469025D01*
X154523617Y-110095244D01*
X154611318Y-109654340D01*
X154523617Y-109213436D01*
X154273865Y-108839655D01*
X153900084Y-108589903D01*
X153570476Y-108524340D01*
X153347884Y-108524340D01*
X153018276Y-108589903D01*
X152644495Y-108839655D01*
X152394743Y-109213436D01*
X152307042Y-109654340D01*
X106169670Y-109654340D01*
X106121377Y-109411556D01*
X105871625Y-109037775D01*
X105497844Y-108788023D01*
X105168236Y-108722460D01*
X104945644Y-108722460D01*
X104616036Y-108788023D01*
X104242255Y-109037775D01*
X103992503Y-109411556D01*
X103904802Y-109852460D01*
X103480357Y-109852460D01*
X103484289Y-107312460D01*
X103904802Y-107312460D01*
X103992503Y-107753364D01*
X104242255Y-108127145D01*
X104616036Y-108376897D01*
X104945644Y-108442460D01*
X105168236Y-108442460D01*
X105497844Y-108376897D01*
X105871625Y-108127145D01*
X106121377Y-107753364D01*
X106209078Y-107312460D01*
X106169670Y-107114340D01*
X152307042Y-107114340D01*
X152394743Y-107555244D01*
X152644495Y-107929025D01*
X153018276Y-108178777D01*
X153347884Y-108244340D01*
X153570476Y-108244340D01*
X153900084Y-108178777D01*
X154273865Y-107929025D01*
X154523617Y-107555244D01*
X154611318Y-107114340D01*
X154523617Y-106673436D01*
X154273865Y-106299655D01*
X153900084Y-106049903D01*
X153570476Y-105984340D01*
X153347884Y-105984340D01*
X153018276Y-106049903D01*
X152644495Y-106299655D01*
X152394743Y-106673436D01*
X152307042Y-107114340D01*
X106169670Y-107114340D01*
X106121377Y-106871556D01*
X105871625Y-106497775D01*
X105497844Y-106248023D01*
X105168236Y-106182460D01*
X104945644Y-106182460D01*
X104616036Y-106248023D01*
X104242255Y-106497775D01*
X103992503Y-106871556D01*
X103904802Y-107312460D01*
X103484289Y-107312460D01*
X103488221Y-104772460D01*
X103904802Y-104772460D01*
X103992503Y-105213364D01*
X104242255Y-105587145D01*
X104616036Y-105836897D01*
X104945644Y-105902460D01*
X105168236Y-105902460D01*
X105497844Y-105836897D01*
X105871625Y-105587145D01*
X106121377Y-105213364D01*
X106209078Y-104772460D01*
X106169670Y-104574340D01*
X152307042Y-104574340D01*
X152394743Y-105015244D01*
X152644495Y-105389025D01*
X153018276Y-105638777D01*
X153347884Y-105704340D01*
X153570476Y-105704340D01*
X153900084Y-105638777D01*
X154273865Y-105389025D01*
X154523617Y-105015244D01*
X154611318Y-104574340D01*
X154523617Y-104133436D01*
X154273865Y-103759655D01*
X153900084Y-103509903D01*
X153570476Y-103444340D01*
X153347884Y-103444340D01*
X153018276Y-103509903D01*
X152644495Y-103759655D01*
X152394743Y-104133436D01*
X152307042Y-104574340D01*
X106169670Y-104574340D01*
X106121377Y-104331556D01*
X105871625Y-103957775D01*
X105497844Y-103708023D01*
X105168236Y-103642460D01*
X104945644Y-103642460D01*
X104616036Y-103708023D01*
X104242255Y-103957775D01*
X103992503Y-104331556D01*
X103904802Y-104772460D01*
X103488221Y-104772460D01*
X103492153Y-102232460D01*
X103904802Y-102232460D01*
X103992503Y-102673364D01*
X104242255Y-103047145D01*
X104616036Y-103296897D01*
X104945644Y-103362460D01*
X105168236Y-103362460D01*
X105497844Y-103296897D01*
X105871625Y-103047145D01*
X106121377Y-102673364D01*
X106209078Y-102232460D01*
X106169670Y-102034340D01*
X152307042Y-102034340D01*
X152394743Y-102475244D01*
X152644495Y-102849025D01*
X153018276Y-103098777D01*
X153347884Y-103164340D01*
X153570476Y-103164340D01*
X153900084Y-103098777D01*
X154273865Y-102849025D01*
X154523617Y-102475244D01*
X154611318Y-102034340D01*
X154523617Y-101593436D01*
X154273865Y-101219655D01*
X153900084Y-100969903D01*
X153570476Y-100904340D01*
X153347884Y-100904340D01*
X153018276Y-100969903D01*
X152644495Y-101219655D01*
X152394743Y-101593436D01*
X152307042Y-102034340D01*
X106169670Y-102034340D01*
X106121377Y-101791556D01*
X105871625Y-101417775D01*
X105497844Y-101168023D01*
X105168236Y-101102460D01*
X104945644Y-101102460D01*
X104616036Y-101168023D01*
X104242255Y-101417775D01*
X103992503Y-101791556D01*
X103904802Y-102232460D01*
X103492153Y-102232460D01*
X103496085Y-99692460D01*
X103904802Y-99692460D01*
X103992503Y-100133364D01*
X104242255Y-100507145D01*
X104616036Y-100756897D01*
X104945644Y-100822460D01*
X105168236Y-100822460D01*
X105497844Y-100756897D01*
X105871625Y-100507145D01*
X106121377Y-100133364D01*
X106209078Y-99692460D01*
X106169670Y-99494340D01*
X152307042Y-99494340D01*
X152394743Y-99935244D01*
X152644495Y-100309025D01*
X153018276Y-100558777D01*
X153347884Y-100624340D01*
X153570476Y-100624340D01*
X153900084Y-100558777D01*
X154273865Y-100309025D01*
X154523617Y-99935244D01*
X154611318Y-99494340D01*
X154523617Y-99053436D01*
X154273865Y-98679655D01*
X153900084Y-98429903D01*
X153570476Y-98364340D01*
X153347884Y-98364340D01*
X153018276Y-98429903D01*
X152644495Y-98679655D01*
X152394743Y-99053436D01*
X152307042Y-99494340D01*
X106169670Y-99494340D01*
X106121377Y-99251556D01*
X105871625Y-98877775D01*
X105497844Y-98628023D01*
X105168236Y-98562460D01*
X104945644Y-98562460D01*
X104616036Y-98628023D01*
X104242255Y-98877775D01*
X103992503Y-99251556D01*
X103904802Y-99692460D01*
X103496085Y-99692460D01*
X103500017Y-97152460D01*
X103904802Y-97152460D01*
X103992503Y-97593364D01*
X104242255Y-97967145D01*
X104616036Y-98216897D01*
X104945644Y-98282460D01*
X105168236Y-98282460D01*
X105497844Y-98216897D01*
X105871625Y-97967145D01*
X106121377Y-97593364D01*
X106209078Y-97152460D01*
X106169670Y-96954340D01*
X152307042Y-96954340D01*
X152394743Y-97395244D01*
X152644495Y-97769025D01*
X153018276Y-98018777D01*
X153347884Y-98084340D01*
X153570476Y-98084340D01*
X153900084Y-98018777D01*
X154273865Y-97769025D01*
X154523617Y-97395244D01*
X154611318Y-96954340D01*
X154523617Y-96513436D01*
X154273865Y-96139655D01*
X153900084Y-95889903D01*
X153570476Y-95824340D01*
X153347884Y-95824340D01*
X153018276Y-95889903D01*
X152644495Y-96139655D01*
X152394743Y-96513436D01*
X152307042Y-96954340D01*
X106169670Y-96954340D01*
X106121377Y-96711556D01*
X105871625Y-96337775D01*
X105497844Y-96088023D01*
X105168236Y-96022460D01*
X104945644Y-96022460D01*
X104616036Y-96088023D01*
X104242255Y-96337775D01*
X103992503Y-96711556D01*
X103904802Y-97152460D01*
X103500017Y-97152460D01*
X103503949Y-94612460D01*
X103904802Y-94612460D01*
X103992503Y-95053364D01*
X104242255Y-95427145D01*
X104616036Y-95676897D01*
X104945644Y-95742460D01*
X105168236Y-95742460D01*
X105497844Y-95676897D01*
X105871625Y-95427145D01*
X106121377Y-95053364D01*
X106209078Y-94612460D01*
X106169670Y-94414340D01*
X152307042Y-94414340D01*
X152394743Y-94855244D01*
X152644495Y-95229025D01*
X153018276Y-95478777D01*
X153347884Y-95544340D01*
X153570476Y-95544340D01*
X153900084Y-95478777D01*
X154273865Y-95229025D01*
X154523617Y-94855244D01*
X154611318Y-94414340D01*
X154523617Y-93973436D01*
X154273865Y-93599655D01*
X153900084Y-93349903D01*
X153570476Y-93284340D01*
X153347884Y-93284340D01*
X153018276Y-93349903D01*
X152644495Y-93599655D01*
X152394743Y-93973436D01*
X152307042Y-94414340D01*
X106169670Y-94414340D01*
X106121377Y-94171556D01*
X105871625Y-93797775D01*
X105497844Y-93548023D01*
X105168236Y-93482460D01*
X104945644Y-93482460D01*
X104616036Y-93548023D01*
X104242255Y-93797775D01*
X103992503Y-94171556D01*
X103904802Y-94612460D01*
X103503949Y-94612460D01*
X103507882Y-92072460D01*
X103904802Y-92072460D01*
X103992503Y-92513364D01*
X104242255Y-92887145D01*
X104616036Y-93136897D01*
X104945644Y-93202460D01*
X105168236Y-93202460D01*
X105497844Y-93136897D01*
X105871625Y-92887145D01*
X106121377Y-92513364D01*
X106209078Y-92072460D01*
X106169670Y-91874340D01*
X152307042Y-91874340D01*
X152394743Y-92315244D01*
X152644495Y-92689025D01*
X153018276Y-92938777D01*
X153347884Y-93004340D01*
X153570476Y-93004340D01*
X153900084Y-92938777D01*
X154273865Y-92689025D01*
X154523617Y-92315244D01*
X154611318Y-91874340D01*
X154523617Y-91433436D01*
X154273865Y-91059655D01*
X153900084Y-90809903D01*
X153570476Y-90744340D01*
X153347884Y-90744340D01*
X153018276Y-90809903D01*
X152644495Y-91059655D01*
X152394743Y-91433436D01*
X152307042Y-91874340D01*
X106169670Y-91874340D01*
X106121377Y-91631556D01*
X105871625Y-91257775D01*
X105497844Y-91008023D01*
X105168236Y-90942460D01*
X104945644Y-90942460D01*
X104616036Y-91008023D01*
X104242255Y-91257775D01*
X103992503Y-91631556D01*
X103904802Y-92072460D01*
X103507882Y-92072460D01*
X103511815Y-89532460D01*
X103904802Y-89532460D01*
X103992503Y-89973364D01*
X104242255Y-90347145D01*
X104616036Y-90596897D01*
X104945644Y-90662460D01*
X105168236Y-90662460D01*
X105497844Y-90596897D01*
X105871625Y-90347145D01*
X106121377Y-89973364D01*
X106209078Y-89532460D01*
X106169670Y-89334340D01*
X152307042Y-89334340D01*
X152394743Y-89775244D01*
X152644495Y-90149025D01*
X153018276Y-90398777D01*
X153347884Y-90464340D01*
X153570476Y-90464340D01*
X153900084Y-90398777D01*
X154273865Y-90149025D01*
X154523617Y-89775244D01*
X154611318Y-89334340D01*
X154523617Y-88893436D01*
X154273865Y-88519655D01*
X153900084Y-88269903D01*
X153570476Y-88204340D01*
X153347884Y-88204340D01*
X153018276Y-88269903D01*
X152644495Y-88519655D01*
X152394743Y-88893436D01*
X152307042Y-89334340D01*
X106169670Y-89334340D01*
X106121377Y-89091556D01*
X105871625Y-88717775D01*
X105497844Y-88468023D01*
X105168236Y-88402460D01*
X104945644Y-88402460D01*
X104616036Y-88468023D01*
X104242255Y-88717775D01*
X103992503Y-89091556D01*
X103904802Y-89532460D01*
X103511815Y-89532460D01*
X103515748Y-86992460D01*
X103904802Y-86992460D01*
X103992503Y-87433364D01*
X104242255Y-87807145D01*
X104616036Y-88056897D01*
X104945644Y-88122460D01*
X105168236Y-88122460D01*
X105497844Y-88056897D01*
X105871625Y-87807145D01*
X106121377Y-87433364D01*
X106209078Y-86992460D01*
X106169670Y-86794340D01*
X152307042Y-86794340D01*
X152394743Y-87235244D01*
X152644495Y-87609025D01*
X153018276Y-87858777D01*
X153347884Y-87924340D01*
X153570476Y-87924340D01*
X153900084Y-87858777D01*
X154273865Y-87609025D01*
X154523617Y-87235244D01*
X154611318Y-86794340D01*
X154523617Y-86353436D01*
X154273865Y-85979655D01*
X153900084Y-85729903D01*
X153570476Y-85664340D01*
X153347884Y-85664340D01*
X153018276Y-85729903D01*
X152644495Y-85979655D01*
X152394743Y-86353436D01*
X152307042Y-86794340D01*
X106169670Y-86794340D01*
X106121377Y-86551556D01*
X105871625Y-86177775D01*
X105497844Y-85928023D01*
X105168236Y-85862460D01*
X104945644Y-85862460D01*
X104616036Y-85928023D01*
X104242255Y-86177775D01*
X103992503Y-86551556D01*
X103904802Y-86992460D01*
X103515748Y-86992460D01*
X103519681Y-84452460D01*
X103904802Y-84452460D01*
X103992503Y-84893364D01*
X104242255Y-85267145D01*
X104616036Y-85516897D01*
X104945644Y-85582460D01*
X105168236Y-85582460D01*
X105497844Y-85516897D01*
X105871625Y-85267145D01*
X106121377Y-84893364D01*
X106209078Y-84452460D01*
X106169670Y-84254340D01*
X152307042Y-84254340D01*
X152394743Y-84695244D01*
X152644495Y-85069025D01*
X153018276Y-85318777D01*
X153347884Y-85384340D01*
X153570476Y-85384340D01*
X153900084Y-85318777D01*
X154273865Y-85069025D01*
X154523617Y-84695244D01*
X154611318Y-84254340D01*
X154523617Y-83813436D01*
X154273865Y-83439655D01*
X153900084Y-83189903D01*
X153570476Y-83124340D01*
X153347884Y-83124340D01*
X153018276Y-83189903D01*
X152644495Y-83439655D01*
X152394743Y-83813436D01*
X152307042Y-84254340D01*
X106169670Y-84254340D01*
X106121377Y-84011556D01*
X105871625Y-83637775D01*
X105497844Y-83388023D01*
X105168236Y-83322460D01*
X104945644Y-83322460D01*
X104616036Y-83388023D01*
X104242255Y-83637775D01*
X103992503Y-84011556D01*
X103904802Y-84452460D01*
X103519681Y-84452460D01*
X103523614Y-81912460D01*
X103904802Y-81912460D01*
X103992503Y-82353364D01*
X104242255Y-82727145D01*
X104616036Y-82976897D01*
X104945644Y-83042460D01*
X105168236Y-83042460D01*
X105497844Y-82976897D01*
X105871625Y-82727145D01*
X106121377Y-82353364D01*
X106209078Y-81912460D01*
X106169670Y-81714340D01*
X152307042Y-81714340D01*
X152394743Y-82155244D01*
X152644495Y-82529025D01*
X153018276Y-82778777D01*
X153347884Y-82844340D01*
X153570476Y-82844340D01*
X153900084Y-82778777D01*
X154273865Y-82529025D01*
X154523617Y-82155244D01*
X154611318Y-81714340D01*
X154523617Y-81273436D01*
X154273865Y-80899655D01*
X153900084Y-80649903D01*
X153570476Y-80584340D01*
X153347884Y-80584340D01*
X153018276Y-80649903D01*
X152644495Y-80899655D01*
X152394743Y-81273436D01*
X152307042Y-81714340D01*
X106169670Y-81714340D01*
X106121377Y-81471556D01*
X105871625Y-81097775D01*
X105497844Y-80848023D01*
X105168236Y-80782460D01*
X104945644Y-80782460D01*
X104616036Y-80848023D01*
X104242255Y-81097775D01*
X103992503Y-81471556D01*
X103904802Y-81912460D01*
X103523614Y-81912460D01*
X103527547Y-79372460D01*
X103904802Y-79372460D01*
X103992503Y-79813364D01*
X104242255Y-80187145D01*
X104616036Y-80436897D01*
X104945644Y-80502460D01*
X105168236Y-80502460D01*
X105497844Y-80436897D01*
X105871625Y-80187145D01*
X106121377Y-79813364D01*
X106209078Y-79372460D01*
X106169670Y-79174340D01*
X152307042Y-79174340D01*
X152394743Y-79615244D01*
X152644495Y-79989025D01*
X153018276Y-80238777D01*
X153347884Y-80304340D01*
X153570476Y-80304340D01*
X153900084Y-80238777D01*
X154273865Y-79989025D01*
X154523617Y-79615244D01*
X154611318Y-79174340D01*
X154523617Y-78733436D01*
X154273865Y-78359655D01*
X153900084Y-78109903D01*
X153570476Y-78044340D01*
X153347884Y-78044340D01*
X153018276Y-78109903D01*
X152644495Y-78359655D01*
X152394743Y-78733436D01*
X152307042Y-79174340D01*
X106169670Y-79174340D01*
X106121377Y-78931556D01*
X105871625Y-78557775D01*
X105497844Y-78308023D01*
X105168236Y-78242460D01*
X104945644Y-78242460D01*
X104616036Y-78308023D01*
X104242255Y-78557775D01*
X103992503Y-78931556D01*
X103904802Y-79372460D01*
X103527547Y-79372460D01*
X103531480Y-76832460D01*
X103904802Y-76832460D01*
X103992503Y-77273364D01*
X104242255Y-77647145D01*
X104616036Y-77896897D01*
X104945644Y-77962460D01*
X105168236Y-77962460D01*
X105497844Y-77896897D01*
X105871625Y-77647145D01*
X106121377Y-77273364D01*
X106209078Y-76832460D01*
X106169670Y-76634340D01*
X152307042Y-76634340D01*
X152394743Y-77075244D01*
X152644495Y-77449025D01*
X153018276Y-77698777D01*
X153347884Y-77764340D01*
X153570476Y-77764340D01*
X153900084Y-77698777D01*
X154273865Y-77449025D01*
X154523617Y-77075244D01*
X154611318Y-76634340D01*
X154523617Y-76193436D01*
X154273865Y-75819655D01*
X153900084Y-75569903D01*
X153570476Y-75504340D01*
X153347884Y-75504340D01*
X153018276Y-75569903D01*
X152644495Y-75819655D01*
X152394743Y-76193436D01*
X152307042Y-76634340D01*
X106169670Y-76634340D01*
X106121377Y-76391556D01*
X105871625Y-76017775D01*
X105497844Y-75768023D01*
X105168236Y-75702460D01*
X104945644Y-75702460D01*
X104616036Y-75768023D01*
X104242255Y-76017775D01*
X103992503Y-76391556D01*
X103904802Y-76832460D01*
X103531480Y-76832460D01*
X103535413Y-74292460D01*
X103904802Y-74292460D01*
X103992503Y-74733364D01*
X104242255Y-75107145D01*
X104616036Y-75356897D01*
X104945644Y-75422460D01*
X105168236Y-75422460D01*
X105497844Y-75356897D01*
X105871625Y-75107145D01*
X106121377Y-74733364D01*
X106209078Y-74292460D01*
X106169670Y-74094340D01*
X152307042Y-74094340D01*
X152394743Y-74535244D01*
X152644495Y-74909025D01*
X153018276Y-75158777D01*
X153347884Y-75224340D01*
X153570476Y-75224340D01*
X153900084Y-75158777D01*
X154273865Y-74909025D01*
X154523617Y-74535244D01*
X154611318Y-74094340D01*
X154523617Y-73653436D01*
X154273865Y-73279655D01*
X153900084Y-73029903D01*
X153570476Y-72964340D01*
X153347884Y-72964340D01*
X153018276Y-73029903D01*
X152644495Y-73279655D01*
X152394743Y-73653436D01*
X152307042Y-74094340D01*
X106169670Y-74094340D01*
X106121377Y-73851556D01*
X105871625Y-73477775D01*
X105497844Y-73228023D01*
X105168236Y-73162460D01*
X104945644Y-73162460D01*
X104616036Y-73228023D01*
X104242255Y-73477775D01*
X103992503Y-73851556D01*
X103904802Y-74292460D01*
X103535413Y-74292460D01*
X103539346Y-71752460D01*
X103904802Y-71752460D01*
X103992503Y-72193364D01*
X104242255Y-72567145D01*
X104616036Y-72816897D01*
X104945644Y-72882460D01*
X105168236Y-72882460D01*
X105497844Y-72816897D01*
X105871625Y-72567145D01*
X106121377Y-72193364D01*
X106209078Y-71752460D01*
X106169670Y-71554340D01*
X152307042Y-71554340D01*
X152394743Y-71995244D01*
X152644495Y-72369025D01*
X153018276Y-72618777D01*
X153347884Y-72684340D01*
X153570476Y-72684340D01*
X153900084Y-72618777D01*
X154273865Y-72369025D01*
X154523617Y-71995244D01*
X154611318Y-71554340D01*
X154523617Y-71113436D01*
X154273865Y-70739655D01*
X153900084Y-70489903D01*
X153570476Y-70424340D01*
X153347884Y-70424340D01*
X153018276Y-70489903D01*
X152644495Y-70739655D01*
X152394743Y-71113436D01*
X152307042Y-71554340D01*
X106169670Y-71554340D01*
X106121377Y-71311556D01*
X105871625Y-70937775D01*
X105497844Y-70688023D01*
X105168236Y-70622460D01*
X104945644Y-70622460D01*
X104616036Y-70688023D01*
X104242255Y-70937775D01*
X103992503Y-71311556D01*
X103904802Y-71752460D01*
X103539346Y-71752460D01*
X103543279Y-69212460D01*
X103904802Y-69212460D01*
X103992503Y-69653364D01*
X104242255Y-70027145D01*
X104616036Y-70276897D01*
X104945644Y-70342460D01*
X105168236Y-70342460D01*
X105497844Y-70276897D01*
X105871625Y-70027145D01*
X106121377Y-69653364D01*
X106209078Y-69212460D01*
X106121377Y-68771556D01*
X105871625Y-68397775D01*
X105522265Y-68164340D01*
X152323695Y-68164340D01*
X152323695Y-69864340D01*
X152345426Y-69973590D01*
X152407312Y-70066208D01*
X152499930Y-70128094D01*
X152609180Y-70149825D01*
X154309180Y-70149825D01*
X154418430Y-70128094D01*
X154511048Y-70066208D01*
X154572934Y-69973590D01*
X154594665Y-69864340D01*
X154594665Y-68164340D01*
X154572934Y-68055090D01*
X154511048Y-67962472D01*
X154418430Y-67900586D01*
X154309180Y-67878855D01*
X152609180Y-67878855D01*
X152499930Y-67900586D01*
X152407312Y-67962472D01*
X152345426Y-68055090D01*
X152323695Y-68164340D01*
X105522265Y-68164340D01*
X105497844Y-68148023D01*
X105168236Y-68082460D01*
X104945644Y-68082460D01*
X104616036Y-68148023D01*
X104242255Y-68397775D01*
X103992503Y-68771556D01*
X103904802Y-69212460D01*
X103543279Y-69212460D01*
X103547435Y-66528000D01*
X104066000Y-66528000D01*
X104066000Y-67191739D01*
X104102538Y-67279949D01*
X104170051Y-67347462D01*
X104258261Y-67384000D01*
X104922000Y-67384000D01*
X104982000Y-67324000D01*
X104982000Y-66468000D01*
X105330000Y-66468000D01*
X105330000Y-67324000D01*
X105390000Y-67384000D01*
X106053739Y-67384000D01*
X106141949Y-67347462D01*
X106209462Y-67279949D01*
X106246000Y-67191739D01*
X106246000Y-66528000D01*
X106186000Y-66468000D01*
X105330000Y-66468000D01*
X104982000Y-66468000D01*
X104126000Y-66468000D01*
X104066000Y-66528000D01*
X103547435Y-66528000D01*
X103547797Y-66294000D01*
X106543862Y-66294000D01*
X106631563Y-66734904D01*
X106881315Y-67108685D01*
X107255096Y-67358437D01*
X107584704Y-67424000D01*
X107807296Y-67424000D01*
X108136904Y-67358437D01*
X108510685Y-67108685D01*
X108760437Y-66734904D01*
X108848138Y-66294000D01*
X109083862Y-66294000D01*
X109171563Y-66734904D01*
X109421315Y-67108685D01*
X109795096Y-67358437D01*
X110124704Y-67424000D01*
X110347296Y-67424000D01*
X110676904Y-67358437D01*
X111050685Y-67108685D01*
X111300437Y-66734904D01*
X111388138Y-66294000D01*
X111623862Y-66294000D01*
X111711563Y-66734904D01*
X111961315Y-67108685D01*
X112335096Y-67358437D01*
X112664704Y-67424000D01*
X112887296Y-67424000D01*
X113216904Y-67358437D01*
X113590685Y-67108685D01*
X113840437Y-66734904D01*
X113928138Y-66294000D01*
X114163862Y-66294000D01*
X114251563Y-66734904D01*
X114501315Y-67108685D01*
X114875096Y-67358437D01*
X115204704Y-67424000D01*
X115427296Y-67424000D01*
X115756904Y-67358437D01*
X116130685Y-67108685D01*
X116380437Y-66734904D01*
X116468138Y-66294000D01*
X116703862Y-66294000D01*
X116791563Y-66734904D01*
X117041315Y-67108685D01*
X117415096Y-67358437D01*
X117744704Y-67424000D01*
X117967296Y-67424000D01*
X118296904Y-67358437D01*
X118670685Y-67108685D01*
X118920437Y-66734904D01*
X119008138Y-66294000D01*
X119243862Y-66294000D01*
X119331563Y-66734904D01*
X119581315Y-67108685D01*
X119955096Y-67358437D01*
X120284704Y-67424000D01*
X120507296Y-67424000D01*
X120836904Y-67358437D01*
X121210685Y-67108685D01*
X121460437Y-66734904D01*
X121548138Y-66294000D01*
X121783862Y-66294000D01*
X121871563Y-66734904D01*
X122121315Y-67108685D01*
X122495096Y-67358437D01*
X122824704Y-67424000D01*
X123047296Y-67424000D01*
X123376904Y-67358437D01*
X123750685Y-67108685D01*
X124000437Y-66734904D01*
X124088138Y-66294000D01*
X124323862Y-66294000D01*
X124411563Y-66734904D01*
X124661315Y-67108685D01*
X125035096Y-67358437D01*
X125364704Y-67424000D01*
X125587296Y-67424000D01*
X125916904Y-67358437D01*
X126290685Y-67108685D01*
X126540437Y-66734904D01*
X126628138Y-66294000D01*
X126863862Y-66294000D01*
X126951563Y-66734904D01*
X127201315Y-67108685D01*
X127575096Y-67358437D01*
X127904704Y-67424000D01*
X128127296Y-67424000D01*
X128456904Y-67358437D01*
X128830685Y-67108685D01*
X129080437Y-66734904D01*
X129168138Y-66294000D01*
X129403862Y-66294000D01*
X129491563Y-66734904D01*
X129741315Y-67108685D01*
X130115096Y-67358437D01*
X130444704Y-67424000D01*
X130667296Y-67424000D01*
X130996904Y-67358437D01*
X131370685Y-67108685D01*
X131620437Y-66734904D01*
X131708138Y-66294000D01*
X131943862Y-66294000D01*
X132031563Y-66734904D01*
X132281315Y-67108685D01*
X132655096Y-67358437D01*
X132984704Y-67424000D01*
X133207296Y-67424000D01*
X133536904Y-67358437D01*
X133910685Y-67108685D01*
X134160437Y-66734904D01*
X134248138Y-66294000D01*
X134483862Y-66294000D01*
X134571563Y-66734904D01*
X134821315Y-67108685D01*
X135195096Y-67358437D01*
X135524704Y-67424000D01*
X135747296Y-67424000D01*
X136076904Y-67358437D01*
X136450685Y-67108685D01*
X136700437Y-66734904D01*
X136788138Y-66294000D01*
X137023862Y-66294000D01*
X137111563Y-66734904D01*
X137361315Y-67108685D01*
X137735096Y-67358437D01*
X138064704Y-67424000D01*
X138287296Y-67424000D01*
X138616904Y-67358437D01*
X138990685Y-67108685D01*
X139240437Y-66734904D01*
X139328138Y-66294000D01*
X139563862Y-66294000D01*
X139651563Y-66734904D01*
X139901315Y-67108685D01*
X140275096Y-67358437D01*
X140604704Y-67424000D01*
X140827296Y-67424000D01*
X141156904Y-67358437D01*
X141530685Y-67108685D01*
X141780437Y-66734904D01*
X141868138Y-66294000D01*
X142103862Y-66294000D01*
X142191563Y-66734904D01*
X142441315Y-67108685D01*
X142815096Y-67358437D01*
X143144704Y-67424000D01*
X143367296Y-67424000D01*
X143696904Y-67358437D01*
X144070685Y-67108685D01*
X144320437Y-66734904D01*
X144408138Y-66294000D01*
X144643862Y-66294000D01*
X144731563Y-66734904D01*
X144981315Y-67108685D01*
X145355096Y-67358437D01*
X145684704Y-67424000D01*
X145907296Y-67424000D01*
X146236904Y-67358437D01*
X146610685Y-67108685D01*
X146860437Y-66734904D01*
X146948138Y-66294000D01*
X147183862Y-66294000D01*
X147271563Y-66734904D01*
X147521315Y-67108685D01*
X147895096Y-67358437D01*
X148224704Y-67424000D01*
X148447296Y-67424000D01*
X148776904Y-67358437D01*
X149150685Y-67108685D01*
X149400437Y-66734904D01*
X149488138Y-66294000D01*
X149723862Y-66294000D01*
X149811563Y-66734904D01*
X150061315Y-67108685D01*
X150435096Y-67358437D01*
X150764704Y-67424000D01*
X150987296Y-67424000D01*
X151316904Y-67358437D01*
X151690685Y-67108685D01*
X151940437Y-66734904D01*
X152028138Y-66294000D01*
X152263862Y-66294000D01*
X152351563Y-66734904D01*
X152601315Y-67108685D01*
X152975096Y-67358437D01*
X153304704Y-67424000D01*
X153527296Y-67424000D01*
X153856904Y-67358437D01*
X154230685Y-67108685D01*
X154480437Y-66734904D01*
X154568138Y-66294000D01*
X154480437Y-65853096D01*
X154230685Y-65479315D01*
X153856904Y-65229563D01*
X153527296Y-65164000D01*
X153304704Y-65164000D01*
X152975096Y-65229563D01*
X152601315Y-65479315D01*
X152351563Y-65853096D01*
X152263862Y-66294000D01*
X152028138Y-66294000D01*
X151940437Y-65853096D01*
X151690685Y-65479315D01*
X151316904Y-65229563D01*
X150987296Y-65164000D01*
X150764704Y-65164000D01*
X150435096Y-65229563D01*
X150061315Y-65479315D01*
X149811563Y-65853096D01*
X149723862Y-66294000D01*
X149488138Y-66294000D01*
X149400437Y-65853096D01*
X149150685Y-65479315D01*
X148776904Y-65229563D01*
X148447296Y-65164000D01*
X148224704Y-65164000D01*
X147895096Y-65229563D01*
X147521315Y-65479315D01*
X147271563Y-65853096D01*
X147183862Y-66294000D01*
X146948138Y-66294000D01*
X146860437Y-65853096D01*
X146610685Y-65479315D01*
X146236904Y-65229563D01*
X145907296Y-65164000D01*
X145684704Y-65164000D01*
X145355096Y-65229563D01*
X144981315Y-65479315D01*
X144731563Y-65853096D01*
X144643862Y-66294000D01*
X144408138Y-66294000D01*
X144320437Y-65853096D01*
X144070685Y-65479315D01*
X143696904Y-65229563D01*
X143367296Y-65164000D01*
X143144704Y-65164000D01*
X142815096Y-65229563D01*
X142441315Y-65479315D01*
X142191563Y-65853096D01*
X142103862Y-66294000D01*
X141868138Y-66294000D01*
X141780437Y-65853096D01*
X141530685Y-65479315D01*
X141156904Y-65229563D01*
X140827296Y-65164000D01*
X140604704Y-65164000D01*
X140275096Y-65229563D01*
X139901315Y-65479315D01*
X139651563Y-65853096D01*
X139563862Y-66294000D01*
X139328138Y-66294000D01*
X139240437Y-65853096D01*
X138990685Y-65479315D01*
X138616904Y-65229563D01*
X138287296Y-65164000D01*
X138064704Y-65164000D01*
X137735096Y-65229563D01*
X137361315Y-65479315D01*
X137111563Y-65853096D01*
X137023862Y-66294000D01*
X136788138Y-66294000D01*
X136700437Y-65853096D01*
X136450685Y-65479315D01*
X136076904Y-65229563D01*
X135747296Y-65164000D01*
X135524704Y-65164000D01*
X135195096Y-65229563D01*
X134821315Y-65479315D01*
X134571563Y-65853096D01*
X134483862Y-66294000D01*
X134248138Y-66294000D01*
X134160437Y-65853096D01*
X133910685Y-65479315D01*
X133536904Y-65229563D01*
X133207296Y-65164000D01*
X132984704Y-65164000D01*
X132655096Y-65229563D01*
X132281315Y-65479315D01*
X132031563Y-65853096D01*
X131943862Y-66294000D01*
X131708138Y-66294000D01*
X131620437Y-65853096D01*
X131370685Y-65479315D01*
X130996904Y-65229563D01*
X130667296Y-65164000D01*
X130444704Y-65164000D01*
X130115096Y-65229563D01*
X129741315Y-65479315D01*
X129491563Y-65853096D01*
X129403862Y-66294000D01*
X129168138Y-66294000D01*
X129080437Y-65853096D01*
X128830685Y-65479315D01*
X128456904Y-65229563D01*
X128127296Y-65164000D01*
X127904704Y-65164000D01*
X127575096Y-65229563D01*
X127201315Y-65479315D01*
X126951563Y-65853096D01*
X126863862Y-66294000D01*
X126628138Y-66294000D01*
X126540437Y-65853096D01*
X126290685Y-65479315D01*
X125916904Y-65229563D01*
X125587296Y-65164000D01*
X125364704Y-65164000D01*
X125035096Y-65229563D01*
X124661315Y-65479315D01*
X124411563Y-65853096D01*
X124323862Y-66294000D01*
X124088138Y-66294000D01*
X124000437Y-65853096D01*
X123750685Y-65479315D01*
X123376904Y-65229563D01*
X123047296Y-65164000D01*
X122824704Y-65164000D01*
X122495096Y-65229563D01*
X122121315Y-65479315D01*
X121871563Y-65853096D01*
X121783862Y-66294000D01*
X121548138Y-66294000D01*
X121460437Y-65853096D01*
X121210685Y-65479315D01*
X120836904Y-65229563D01*
X120507296Y-65164000D01*
X120284704Y-65164000D01*
X119955096Y-65229563D01*
X119581315Y-65479315D01*
X119331563Y-65853096D01*
X119243862Y-66294000D01*
X119008138Y-66294000D01*
X118920437Y-65853096D01*
X118670685Y-65479315D01*
X118296904Y-65229563D01*
X117967296Y-65164000D01*
X117744704Y-65164000D01*
X117415096Y-65229563D01*
X117041315Y-65479315D01*
X116791563Y-65853096D01*
X116703862Y-66294000D01*
X116468138Y-66294000D01*
X116380437Y-65853096D01*
X116130685Y-65479315D01*
X115756904Y-65229563D01*
X115427296Y-65164000D01*
X115204704Y-65164000D01*
X114875096Y-65229563D01*
X114501315Y-65479315D01*
X114251563Y-65853096D01*
X114163862Y-66294000D01*
X113928138Y-66294000D01*
X113840437Y-65853096D01*
X113590685Y-65479315D01*
X113216904Y-65229563D01*
X112887296Y-65164000D01*
X112664704Y-65164000D01*
X112335096Y-65229563D01*
X111961315Y-65479315D01*
X111711563Y-65853096D01*
X111623862Y-66294000D01*
X111388138Y-66294000D01*
X111300437Y-65853096D01*
X111050685Y-65479315D01*
X110676904Y-65229563D01*
X110347296Y-65164000D01*
X110124704Y-65164000D01*
X109795096Y-65229563D01*
X109421315Y-65479315D01*
X109171563Y-65853096D01*
X109083862Y-66294000D01*
X108848138Y-66294000D01*
X108760437Y-65853096D01*
X108510685Y-65479315D01*
X108136904Y-65229563D01*
X107807296Y-65164000D01*
X107584704Y-65164000D01*
X107255096Y-65229563D01*
X106881315Y-65479315D01*
X106631563Y-65853096D01*
X106543862Y-66294000D01*
X103547797Y-66294000D01*
X103549187Y-65396261D01*
X104066000Y-65396261D01*
X104066000Y-66060000D01*
X104126000Y-66120000D01*
X104982000Y-66120000D01*
X104982000Y-65264000D01*
X105330000Y-65264000D01*
X105330000Y-66120000D01*
X106186000Y-66120000D01*
X106246000Y-66060000D01*
X106246000Y-65396261D01*
X106209462Y-65308051D01*
X106141949Y-65240538D01*
X106053739Y-65204000D01*
X105390000Y-65204000D01*
X105330000Y-65264000D01*
X104982000Y-65264000D01*
X104922000Y-65204000D01*
X104258261Y-65204000D01*
X104170051Y-65240538D01*
X104102538Y-65308051D01*
X104066000Y-65396261D01*
X103549187Y-65396261D01*
X103550264Y-64701538D01*
X154981408Y-64714083D01*
X154981408Y-64714083D01*
G37*
X154981408Y-64714083D02*
X155114424Y-116545428D01*
X103469968Y-116562993D01*
X103472437Y-114968020D01*
X106498142Y-114968020D01*
X106585843Y-115408924D01*
X106835595Y-115782705D01*
X107209376Y-116032457D01*
X107538984Y-116098020D01*
X107761576Y-116098020D01*
X108091184Y-116032457D01*
X108464965Y-115782705D01*
X108714717Y-115408924D01*
X108802418Y-114968020D01*
X109038142Y-114968020D01*
X109125843Y-115408924D01*
X109375595Y-115782705D01*
X109749376Y-116032457D01*
X110078984Y-116098020D01*
X110301576Y-116098020D01*
X110631184Y-116032457D01*
X111004965Y-115782705D01*
X111254717Y-115408924D01*
X111342418Y-114968020D01*
X111578142Y-114968020D01*
X111665843Y-115408924D01*
X111915595Y-115782705D01*
X112289376Y-116032457D01*
X112618984Y-116098020D01*
X112841576Y-116098020D01*
X113171184Y-116032457D01*
X113544965Y-115782705D01*
X113794717Y-115408924D01*
X113882418Y-114968020D01*
X114118142Y-114968020D01*
X114205843Y-115408924D01*
X114455595Y-115782705D01*
X114829376Y-116032457D01*
X115158984Y-116098020D01*
X115381576Y-116098020D01*
X115711184Y-116032457D01*
X116084965Y-115782705D01*
X116334717Y-115408924D01*
X116422418Y-114968020D01*
X116658142Y-114968020D01*
X116745843Y-115408924D01*
X116995595Y-115782705D01*
X117369376Y-116032457D01*
X117698984Y-116098020D01*
X117921576Y-116098020D01*
X118251184Y-116032457D01*
X118624965Y-115782705D01*
X118874717Y-115408924D01*
X118962418Y-114968020D01*
X119198142Y-114968020D01*
X119285843Y-115408924D01*
X119535595Y-115782705D01*
X119909376Y-116032457D01*
X120238984Y-116098020D01*
X120461576Y-116098020D01*
X120791184Y-116032457D01*
X121164965Y-115782705D01*
X121414717Y-115408924D01*
X121502418Y-114968020D01*
X121738142Y-114968020D01*
X121825843Y-115408924D01*
X122075595Y-115782705D01*
X122449376Y-116032457D01*
X122778984Y-116098020D01*
X123001576Y-116098020D01*
X123331184Y-116032457D01*
X123704965Y-115782705D01*
X123954717Y-115408924D01*
X124042418Y-114968020D01*
X124278142Y-114968020D01*
X124365843Y-115408924D01*
X124615595Y-115782705D01*
X124989376Y-116032457D01*
X125318984Y-116098020D01*
X125541576Y-116098020D01*
X125871184Y-116032457D01*
X126244965Y-115782705D01*
X126494717Y-115408924D01*
X126582418Y-114968020D01*
X126818142Y-114968020D01*
X126905843Y-115408924D01*
X127155595Y-115782705D01*
X127529376Y-116032457D01*
X127858984Y-116098020D01*
X128081576Y-116098020D01*
X128411184Y-116032457D01*
X128784965Y-115782705D01*
X129034717Y-115408924D01*
X129122418Y-114968020D01*
X129358142Y-114968020D01*
X129445843Y-115408924D01*
X129695595Y-115782705D01*
X130069376Y-116032457D01*
X130398984Y-116098020D01*
X130621576Y-116098020D01*
X130951184Y-116032457D01*
X131324965Y-115782705D01*
X131574717Y-115408924D01*
X131662418Y-114968020D01*
X131898142Y-114968020D01*
X131985843Y-115408924D01*
X132235595Y-115782705D01*
X132609376Y-116032457D01*
X132938984Y-116098020D01*
X133161576Y-116098020D01*
X133491184Y-116032457D01*
X133864965Y-115782705D01*
X134114717Y-115408924D01*
X134202418Y-114968020D01*
X134438142Y-114968020D01*
X134525843Y-115408924D01*
X134775595Y-115782705D01*
X135149376Y-116032457D01*
X135478984Y-116098020D01*
X135701576Y-116098020D01*
X136031184Y-116032457D01*
X136404965Y-115782705D01*
X136654717Y-115408924D01*
X136742418Y-114968020D01*
X136978142Y-114968020D01*
X137065843Y-115408924D01*
X137315595Y-115782705D01*
X137689376Y-116032457D01*
X138018984Y-116098020D01*
X138241576Y-116098020D01*
X138571184Y-116032457D01*
X138944965Y-115782705D01*
X139194717Y-115408924D01*
X139282418Y-114968020D01*
X139518142Y-114968020D01*
X139605843Y-115408924D01*
X139855595Y-115782705D01*
X140229376Y-116032457D01*
X140558984Y-116098020D01*
X140781576Y-116098020D01*
X141111184Y-116032457D01*
X141484965Y-115782705D01*
X141734717Y-115408924D01*
X141822418Y-114968020D01*
X142058142Y-114968020D01*
X142145843Y-115408924D01*
X142395595Y-115782705D01*
X142769376Y-116032457D01*
X143098984Y-116098020D01*
X143321576Y-116098020D01*
X143651184Y-116032457D01*
X144024965Y-115782705D01*
X144274717Y-115408924D01*
X144362418Y-114968020D01*
X144598142Y-114968020D01*
X144685843Y-115408924D01*
X144935595Y-115782705D01*
X145309376Y-116032457D01*
X145638984Y-116098020D01*
X145861576Y-116098020D01*
X146191184Y-116032457D01*
X146564965Y-115782705D01*
X146814717Y-115408924D01*
X146902418Y-114968020D01*
X147138142Y-114968020D01*
X147225843Y-115408924D01*
X147475595Y-115782705D01*
X147849376Y-116032457D01*
X148178984Y-116098020D01*
X148401576Y-116098020D01*
X148731184Y-116032457D01*
X149104965Y-115782705D01*
X149354717Y-115408924D01*
X149442418Y-114968020D01*
X149354717Y-114527116D01*
X149104965Y-114153335D01*
X149052113Y-114118020D01*
X149694795Y-114118020D01*
X149694795Y-115818020D01*
X149716526Y-115927270D01*
X149778412Y-116019888D01*
X149871030Y-116081774D01*
X149980280Y-116103505D01*
X151680280Y-116103505D01*
X151789530Y-116081774D01*
X151882148Y-116019888D01*
X151944034Y-115927270D01*
X151965765Y-115818020D01*
X151965765Y-114118020D01*
X151944034Y-114008770D01*
X151882148Y-113916152D01*
X151789530Y-113854266D01*
X151680280Y-113832535D01*
X149980280Y-113832535D01*
X149871030Y-113854266D01*
X149778412Y-113916152D01*
X149716526Y-114008770D01*
X149694795Y-114118020D01*
X149052113Y-114118020D01*
X148731184Y-113903583D01*
X148401576Y-113838020D01*
X148178984Y-113838020D01*
X147849376Y-113903583D01*
X147475595Y-114153335D01*
X147225843Y-114527116D01*
X147138142Y-114968020D01*
X146902418Y-114968020D01*
X146814717Y-114527116D01*
X146564965Y-114153335D01*
X146191184Y-113903583D01*
X145861576Y-113838020D01*
X145638984Y-113838020D01*
X145309376Y-113903583D01*
X144935595Y-114153335D01*
X144685843Y-114527116D01*
X144598142Y-114968020D01*
X144362418Y-114968020D01*
X144274717Y-114527116D01*
X144024965Y-114153335D01*
X143651184Y-113903583D01*
X143321576Y-113838020D01*
X143098984Y-113838020D01*
X142769376Y-113903583D01*
X142395595Y-114153335D01*
X142145843Y-114527116D01*
X142058142Y-114968020D01*
X141822418Y-114968020D01*
X141734717Y-114527116D01*
X141484965Y-114153335D01*
X141111184Y-113903583D01*
X140781576Y-113838020D01*
X140558984Y-113838020D01*
X140229376Y-113903583D01*
X139855595Y-114153335D01*
X139605843Y-114527116D01*
X139518142Y-114968020D01*
X139282418Y-114968020D01*
X139194717Y-114527116D01*
X138944965Y-114153335D01*
X138571184Y-113903583D01*
X138241576Y-113838020D01*
X138018984Y-113838020D01*
X137689376Y-113903583D01*
X137315595Y-114153335D01*
X137065843Y-114527116D01*
X136978142Y-114968020D01*
X136742418Y-114968020D01*
X136654717Y-114527116D01*
X136404965Y-114153335D01*
X136031184Y-113903583D01*
X135701576Y-113838020D01*
X135478984Y-113838020D01*
X135149376Y-113903583D01*
X134775595Y-114153335D01*
X134525843Y-114527116D01*
X134438142Y-114968020D01*
X134202418Y-114968020D01*
X134114717Y-114527116D01*
X133864965Y-114153335D01*
X133491184Y-113903583D01*
X133161576Y-113838020D01*
X132938984Y-113838020D01*
X132609376Y-113903583D01*
X132235595Y-114153335D01*
X131985843Y-114527116D01*
X131898142Y-114968020D01*
X131662418Y-114968020D01*
X131574717Y-114527116D01*
X131324965Y-114153335D01*
X130951184Y-113903583D01*
X130621576Y-113838020D01*
X130398984Y-113838020D01*
X130069376Y-113903583D01*
X129695595Y-114153335D01*
X129445843Y-114527116D01*
X129358142Y-114968020D01*
X129122418Y-114968020D01*
X129034717Y-114527116D01*
X128784965Y-114153335D01*
X128411184Y-113903583D01*
X128081576Y-113838020D01*
X127858984Y-113838020D01*
X127529376Y-113903583D01*
X127155595Y-114153335D01*
X126905843Y-114527116D01*
X126818142Y-114968020D01*
X126582418Y-114968020D01*
X126494717Y-114527116D01*
X126244965Y-114153335D01*
X125871184Y-113903583D01*
X125541576Y-113838020D01*
X125318984Y-113838020D01*
X124989376Y-113903583D01*
X124615595Y-114153335D01*
X124365843Y-114527116D01*
X124278142Y-114968020D01*
X124042418Y-114968020D01*
X123954717Y-114527116D01*
X123704965Y-114153335D01*
X123331184Y-113903583D01*
X123001576Y-113838020D01*
X122778984Y-113838020D01*
X122449376Y-113903583D01*
X122075595Y-114153335D01*
X121825843Y-114527116D01*
X121738142Y-114968020D01*
X121502418Y-114968020D01*
X121414717Y-114527116D01*
X121164965Y-114153335D01*
X120791184Y-113903583D01*
X120461576Y-113838020D01*
X120238984Y-113838020D01*
X119909376Y-113903583D01*
X119535595Y-114153335D01*
X119285843Y-114527116D01*
X119198142Y-114968020D01*
X118962418Y-114968020D01*
X118874717Y-114527116D01*
X118624965Y-114153335D01*
X118251184Y-113903583D01*
X117921576Y-113838020D01*
X117698984Y-113838020D01*
X117369376Y-113903583D01*
X116995595Y-114153335D01*
X116745843Y-114527116D01*
X116658142Y-114968020D01*
X116422418Y-114968020D01*
X116334717Y-114527116D01*
X116084965Y-114153335D01*
X115711184Y-113903583D01*
X115381576Y-113838020D01*
X115158984Y-113838020D01*
X114829376Y-113903583D01*
X114455595Y-114153335D01*
X114205843Y-114527116D01*
X114118142Y-114968020D01*
X113882418Y-114968020D01*
X113794717Y-114527116D01*
X113544965Y-114153335D01*
X113171184Y-113903583D01*
X112841576Y-113838020D01*
X112618984Y-113838020D01*
X112289376Y-113903583D01*
X111915595Y-114153335D01*
X111665843Y-114527116D01*
X111578142Y-114968020D01*
X111342418Y-114968020D01*
X111254717Y-114527116D01*
X111004965Y-114153335D01*
X110631184Y-113903583D01*
X110301576Y-113838020D01*
X110078984Y-113838020D01*
X109749376Y-113903583D01*
X109375595Y-114153335D01*
X109125843Y-114527116D01*
X109038142Y-114968020D01*
X108802418Y-114968020D01*
X108714717Y-114527116D01*
X108464965Y-114153335D01*
X108091184Y-113903583D01*
X107761576Y-113838020D01*
X107538984Y-113838020D01*
X107209376Y-113903583D01*
X106835595Y-114153335D01*
X106585843Y-114527116D01*
X106498142Y-114968020D01*
X103472437Y-114968020D01*
X103477740Y-111542460D01*
X103921455Y-111542460D01*
X103921455Y-113242460D01*
X103943186Y-113351710D01*
X104005072Y-113444328D01*
X104097690Y-113506214D01*
X104206940Y-113527945D01*
X105906940Y-113527945D01*
X106016190Y-113506214D01*
X106108808Y-113444328D01*
X106170694Y-113351710D01*
X106192425Y-113242460D01*
X106192425Y-112194340D01*
X152307042Y-112194340D01*
X152394743Y-112635244D01*
X152644495Y-113009025D01*
X153018276Y-113258777D01*
X153347884Y-113324340D01*
X153570476Y-113324340D01*
X153900084Y-113258777D01*
X154273865Y-113009025D01*
X154523617Y-112635244D01*
X154611318Y-112194340D01*
X154523617Y-111753436D01*
X154273865Y-111379655D01*
X153900084Y-111129903D01*
X153570476Y-111064340D01*
X153347884Y-111064340D01*
X153018276Y-111129903D01*
X152644495Y-111379655D01*
X152394743Y-111753436D01*
X152307042Y-112194340D01*
X106192425Y-112194340D01*
X106192425Y-111542460D01*
X106170694Y-111433210D01*
X106108808Y-111340592D01*
X106016190Y-111278706D01*
X105906940Y-111256975D01*
X104206940Y-111256975D01*
X104097690Y-111278706D01*
X104005072Y-111340592D01*
X103943186Y-111433210D01*
X103921455Y-111542460D01*
X103477740Y-111542460D01*
X103480357Y-109852460D01*
X103904802Y-109852460D01*
X103992503Y-110293364D01*
X104242255Y-110667145D01*
X104616036Y-110916897D01*
X104945644Y-110982460D01*
X105168236Y-110982460D01*
X105497844Y-110916897D01*
X105871625Y-110667145D01*
X106121377Y-110293364D01*
X106209078Y-109852460D01*
X106169670Y-109654340D01*
X152307042Y-109654340D01*
X152394743Y-110095244D01*
X152644495Y-110469025D01*
X153018276Y-110718777D01*
X153347884Y-110784340D01*
X153570476Y-110784340D01*
X153900084Y-110718777D01*
X154273865Y-110469025D01*
X154523617Y-110095244D01*
X154611318Y-109654340D01*
X154523617Y-109213436D01*
X154273865Y-108839655D01*
X153900084Y-108589903D01*
X153570476Y-108524340D01*
X153347884Y-108524340D01*
X153018276Y-108589903D01*
X152644495Y-108839655D01*
X152394743Y-109213436D01*
X152307042Y-109654340D01*
X106169670Y-109654340D01*
X106121377Y-109411556D01*
X105871625Y-109037775D01*
X105497844Y-108788023D01*
X105168236Y-108722460D01*
X104945644Y-108722460D01*
X104616036Y-108788023D01*
X104242255Y-109037775D01*
X103992503Y-109411556D01*
X103904802Y-109852460D01*
X103480357Y-109852460D01*
X103484289Y-107312460D01*
X103904802Y-107312460D01*
X103992503Y-107753364D01*
X104242255Y-108127145D01*
X104616036Y-108376897D01*
X104945644Y-108442460D01*
X105168236Y-108442460D01*
X105497844Y-108376897D01*
X105871625Y-108127145D01*
X106121377Y-107753364D01*
X106209078Y-107312460D01*
X106169670Y-107114340D01*
X152307042Y-107114340D01*
X152394743Y-107555244D01*
X152644495Y-107929025D01*
X153018276Y-108178777D01*
X153347884Y-108244340D01*
X153570476Y-108244340D01*
X153900084Y-108178777D01*
X154273865Y-107929025D01*
X154523617Y-107555244D01*
X154611318Y-107114340D01*
X154523617Y-106673436D01*
X154273865Y-106299655D01*
X153900084Y-106049903D01*
X153570476Y-105984340D01*
X153347884Y-105984340D01*
X153018276Y-106049903D01*
X152644495Y-106299655D01*
X152394743Y-106673436D01*
X152307042Y-107114340D01*
X106169670Y-107114340D01*
X106121377Y-106871556D01*
X105871625Y-106497775D01*
X105497844Y-106248023D01*
X105168236Y-106182460D01*
X104945644Y-106182460D01*
X104616036Y-106248023D01*
X104242255Y-106497775D01*
X103992503Y-106871556D01*
X103904802Y-107312460D01*
X103484289Y-107312460D01*
X103488221Y-104772460D01*
X103904802Y-104772460D01*
X103992503Y-105213364D01*
X104242255Y-105587145D01*
X104616036Y-105836897D01*
X104945644Y-105902460D01*
X105168236Y-105902460D01*
X105497844Y-105836897D01*
X105871625Y-105587145D01*
X106121377Y-105213364D01*
X106209078Y-104772460D01*
X106169670Y-104574340D01*
X152307042Y-104574340D01*
X152394743Y-105015244D01*
X152644495Y-105389025D01*
X153018276Y-105638777D01*
X153347884Y-105704340D01*
X153570476Y-105704340D01*
X153900084Y-105638777D01*
X154273865Y-105389025D01*
X154523617Y-105015244D01*
X154611318Y-104574340D01*
X154523617Y-104133436D01*
X154273865Y-103759655D01*
X153900084Y-103509903D01*
X153570476Y-103444340D01*
X153347884Y-103444340D01*
X153018276Y-103509903D01*
X152644495Y-103759655D01*
X152394743Y-104133436D01*
X152307042Y-104574340D01*
X106169670Y-104574340D01*
X106121377Y-104331556D01*
X105871625Y-103957775D01*
X105497844Y-103708023D01*
X105168236Y-103642460D01*
X104945644Y-103642460D01*
X104616036Y-103708023D01*
X104242255Y-103957775D01*
X103992503Y-104331556D01*
X103904802Y-104772460D01*
X103488221Y-104772460D01*
X103492153Y-102232460D01*
X103904802Y-102232460D01*
X103992503Y-102673364D01*
X104242255Y-103047145D01*
X104616036Y-103296897D01*
X104945644Y-103362460D01*
X105168236Y-103362460D01*
X105497844Y-103296897D01*
X105871625Y-103047145D01*
X106121377Y-102673364D01*
X106209078Y-102232460D01*
X106169670Y-102034340D01*
X152307042Y-102034340D01*
X152394743Y-102475244D01*
X152644495Y-102849025D01*
X153018276Y-103098777D01*
X153347884Y-103164340D01*
X153570476Y-103164340D01*
X153900084Y-103098777D01*
X154273865Y-102849025D01*
X154523617Y-102475244D01*
X154611318Y-102034340D01*
X154523617Y-101593436D01*
X154273865Y-101219655D01*
X153900084Y-100969903D01*
X153570476Y-100904340D01*
X153347884Y-100904340D01*
X153018276Y-100969903D01*
X152644495Y-101219655D01*
X152394743Y-101593436D01*
X152307042Y-102034340D01*
X106169670Y-102034340D01*
X106121377Y-101791556D01*
X105871625Y-101417775D01*
X105497844Y-101168023D01*
X105168236Y-101102460D01*
X104945644Y-101102460D01*
X104616036Y-101168023D01*
X104242255Y-101417775D01*
X103992503Y-101791556D01*
X103904802Y-102232460D01*
X103492153Y-102232460D01*
X103496085Y-99692460D01*
X103904802Y-99692460D01*
X103992503Y-100133364D01*
X104242255Y-100507145D01*
X104616036Y-100756897D01*
X104945644Y-100822460D01*
X105168236Y-100822460D01*
X105497844Y-100756897D01*
X105871625Y-100507145D01*
X106121377Y-100133364D01*
X106209078Y-99692460D01*
X106169670Y-99494340D01*
X152307042Y-99494340D01*
X152394743Y-99935244D01*
X152644495Y-100309025D01*
X153018276Y-100558777D01*
X153347884Y-100624340D01*
X153570476Y-100624340D01*
X153900084Y-100558777D01*
X154273865Y-100309025D01*
X154523617Y-99935244D01*
X154611318Y-99494340D01*
X154523617Y-99053436D01*
X154273865Y-98679655D01*
X153900084Y-98429903D01*
X153570476Y-98364340D01*
X153347884Y-98364340D01*
X153018276Y-98429903D01*
X152644495Y-98679655D01*
X152394743Y-99053436D01*
X152307042Y-99494340D01*
X106169670Y-99494340D01*
X106121377Y-99251556D01*
X105871625Y-98877775D01*
X105497844Y-98628023D01*
X105168236Y-98562460D01*
X104945644Y-98562460D01*
X104616036Y-98628023D01*
X104242255Y-98877775D01*
X103992503Y-99251556D01*
X103904802Y-99692460D01*
X103496085Y-99692460D01*
X103500017Y-97152460D01*
X103904802Y-97152460D01*
X103992503Y-97593364D01*
X104242255Y-97967145D01*
X104616036Y-98216897D01*
X104945644Y-98282460D01*
X105168236Y-98282460D01*
X105497844Y-98216897D01*
X105871625Y-97967145D01*
X106121377Y-97593364D01*
X106209078Y-97152460D01*
X106169670Y-96954340D01*
X152307042Y-96954340D01*
X152394743Y-97395244D01*
X152644495Y-97769025D01*
X153018276Y-98018777D01*
X153347884Y-98084340D01*
X153570476Y-98084340D01*
X153900084Y-98018777D01*
X154273865Y-97769025D01*
X154523617Y-97395244D01*
X154611318Y-96954340D01*
X154523617Y-96513436D01*
X154273865Y-96139655D01*
X153900084Y-95889903D01*
X153570476Y-95824340D01*
X153347884Y-95824340D01*
X153018276Y-95889903D01*
X152644495Y-96139655D01*
X152394743Y-96513436D01*
X152307042Y-96954340D01*
X106169670Y-96954340D01*
X106121377Y-96711556D01*
X105871625Y-96337775D01*
X105497844Y-96088023D01*
X105168236Y-96022460D01*
X104945644Y-96022460D01*
X104616036Y-96088023D01*
X104242255Y-96337775D01*
X103992503Y-96711556D01*
X103904802Y-97152460D01*
X103500017Y-97152460D01*
X103503949Y-94612460D01*
X103904802Y-94612460D01*
X103992503Y-95053364D01*
X104242255Y-95427145D01*
X104616036Y-95676897D01*
X104945644Y-95742460D01*
X105168236Y-95742460D01*
X105497844Y-95676897D01*
X105871625Y-95427145D01*
X106121377Y-95053364D01*
X106209078Y-94612460D01*
X106169670Y-94414340D01*
X152307042Y-94414340D01*
X152394743Y-94855244D01*
X152644495Y-95229025D01*
X153018276Y-95478777D01*
X153347884Y-95544340D01*
X153570476Y-95544340D01*
X153900084Y-95478777D01*
X154273865Y-95229025D01*
X154523617Y-94855244D01*
X154611318Y-94414340D01*
X154523617Y-93973436D01*
X154273865Y-93599655D01*
X153900084Y-93349903D01*
X153570476Y-93284340D01*
X153347884Y-93284340D01*
X153018276Y-93349903D01*
X152644495Y-93599655D01*
X152394743Y-93973436D01*
X152307042Y-94414340D01*
X106169670Y-94414340D01*
X106121377Y-94171556D01*
X105871625Y-93797775D01*
X105497844Y-93548023D01*
X105168236Y-93482460D01*
X104945644Y-93482460D01*
X104616036Y-93548023D01*
X104242255Y-93797775D01*
X103992503Y-94171556D01*
X103904802Y-94612460D01*
X103503949Y-94612460D01*
X103507882Y-92072460D01*
X103904802Y-92072460D01*
X103992503Y-92513364D01*
X104242255Y-92887145D01*
X104616036Y-93136897D01*
X104945644Y-93202460D01*
X105168236Y-93202460D01*
X105497844Y-93136897D01*
X105871625Y-92887145D01*
X106121377Y-92513364D01*
X106209078Y-92072460D01*
X106169670Y-91874340D01*
X152307042Y-91874340D01*
X152394743Y-92315244D01*
X152644495Y-92689025D01*
X153018276Y-92938777D01*
X153347884Y-93004340D01*
X153570476Y-93004340D01*
X153900084Y-92938777D01*
X154273865Y-92689025D01*
X154523617Y-92315244D01*
X154611318Y-91874340D01*
X154523617Y-91433436D01*
X154273865Y-91059655D01*
X153900084Y-90809903D01*
X153570476Y-90744340D01*
X153347884Y-90744340D01*
X153018276Y-90809903D01*
X152644495Y-91059655D01*
X152394743Y-91433436D01*
X152307042Y-91874340D01*
X106169670Y-91874340D01*
X106121377Y-91631556D01*
X105871625Y-91257775D01*
X105497844Y-91008023D01*
X105168236Y-90942460D01*
X104945644Y-90942460D01*
X104616036Y-91008023D01*
X104242255Y-91257775D01*
X103992503Y-91631556D01*
X103904802Y-92072460D01*
X103507882Y-92072460D01*
X103511815Y-89532460D01*
X103904802Y-89532460D01*
X103992503Y-89973364D01*
X104242255Y-90347145D01*
X104616036Y-90596897D01*
X104945644Y-90662460D01*
X105168236Y-90662460D01*
X105497844Y-90596897D01*
X105871625Y-90347145D01*
X106121377Y-89973364D01*
X106209078Y-89532460D01*
X106169670Y-89334340D01*
X152307042Y-89334340D01*
X152394743Y-89775244D01*
X152644495Y-90149025D01*
X153018276Y-90398777D01*
X153347884Y-90464340D01*
X153570476Y-90464340D01*
X153900084Y-90398777D01*
X154273865Y-90149025D01*
X154523617Y-89775244D01*
X154611318Y-89334340D01*
X154523617Y-88893436D01*
X154273865Y-88519655D01*
X153900084Y-88269903D01*
X153570476Y-88204340D01*
X153347884Y-88204340D01*
X153018276Y-88269903D01*
X152644495Y-88519655D01*
X152394743Y-88893436D01*
X152307042Y-89334340D01*
X106169670Y-89334340D01*
X106121377Y-89091556D01*
X105871625Y-88717775D01*
X105497844Y-88468023D01*
X105168236Y-88402460D01*
X104945644Y-88402460D01*
X104616036Y-88468023D01*
X104242255Y-88717775D01*
X103992503Y-89091556D01*
X103904802Y-89532460D01*
X103511815Y-89532460D01*
X103515748Y-86992460D01*
X103904802Y-86992460D01*
X103992503Y-87433364D01*
X104242255Y-87807145D01*
X104616036Y-88056897D01*
X104945644Y-88122460D01*
X105168236Y-88122460D01*
X105497844Y-88056897D01*
X105871625Y-87807145D01*
X106121377Y-87433364D01*
X106209078Y-86992460D01*
X106169670Y-86794340D01*
X152307042Y-86794340D01*
X152394743Y-87235244D01*
X152644495Y-87609025D01*
X153018276Y-87858777D01*
X153347884Y-87924340D01*
X153570476Y-87924340D01*
X153900084Y-87858777D01*
X154273865Y-87609025D01*
X154523617Y-87235244D01*
X154611318Y-86794340D01*
X154523617Y-86353436D01*
X154273865Y-85979655D01*
X153900084Y-85729903D01*
X153570476Y-85664340D01*
X153347884Y-85664340D01*
X153018276Y-85729903D01*
X152644495Y-85979655D01*
X152394743Y-86353436D01*
X152307042Y-86794340D01*
X106169670Y-86794340D01*
X106121377Y-86551556D01*
X105871625Y-86177775D01*
X105497844Y-85928023D01*
X105168236Y-85862460D01*
X104945644Y-85862460D01*
X104616036Y-85928023D01*
X104242255Y-86177775D01*
X103992503Y-86551556D01*
X103904802Y-86992460D01*
X103515748Y-86992460D01*
X103519681Y-84452460D01*
X103904802Y-84452460D01*
X103992503Y-84893364D01*
X104242255Y-85267145D01*
X104616036Y-85516897D01*
X104945644Y-85582460D01*
X105168236Y-85582460D01*
X105497844Y-85516897D01*
X105871625Y-85267145D01*
X106121377Y-84893364D01*
X106209078Y-84452460D01*
X106169670Y-84254340D01*
X152307042Y-84254340D01*
X152394743Y-84695244D01*
X152644495Y-85069025D01*
X153018276Y-85318777D01*
X153347884Y-85384340D01*
X153570476Y-85384340D01*
X153900084Y-85318777D01*
X154273865Y-85069025D01*
X154523617Y-84695244D01*
X154611318Y-84254340D01*
X154523617Y-83813436D01*
X154273865Y-83439655D01*
X153900084Y-83189903D01*
X153570476Y-83124340D01*
X153347884Y-83124340D01*
X153018276Y-83189903D01*
X152644495Y-83439655D01*
X152394743Y-83813436D01*
X152307042Y-84254340D01*
X106169670Y-84254340D01*
X106121377Y-84011556D01*
X105871625Y-83637775D01*
X105497844Y-83388023D01*
X105168236Y-83322460D01*
X104945644Y-83322460D01*
X104616036Y-83388023D01*
X104242255Y-83637775D01*
X103992503Y-84011556D01*
X103904802Y-84452460D01*
X103519681Y-84452460D01*
X103523614Y-81912460D01*
X103904802Y-81912460D01*
X103992503Y-82353364D01*
X104242255Y-82727145D01*
X104616036Y-82976897D01*
X104945644Y-83042460D01*
X105168236Y-83042460D01*
X105497844Y-82976897D01*
X105871625Y-82727145D01*
X106121377Y-82353364D01*
X106209078Y-81912460D01*
X106169670Y-81714340D01*
X152307042Y-81714340D01*
X152394743Y-82155244D01*
X152644495Y-82529025D01*
X153018276Y-82778777D01*
X153347884Y-82844340D01*
X153570476Y-82844340D01*
X153900084Y-82778777D01*
X154273865Y-82529025D01*
X154523617Y-82155244D01*
X154611318Y-81714340D01*
X154523617Y-81273436D01*
X154273865Y-80899655D01*
X153900084Y-80649903D01*
X153570476Y-80584340D01*
X153347884Y-80584340D01*
X153018276Y-80649903D01*
X152644495Y-80899655D01*
X152394743Y-81273436D01*
X152307042Y-81714340D01*
X106169670Y-81714340D01*
X106121377Y-81471556D01*
X105871625Y-81097775D01*
X105497844Y-80848023D01*
X105168236Y-80782460D01*
X104945644Y-80782460D01*
X104616036Y-80848023D01*
X104242255Y-81097775D01*
X103992503Y-81471556D01*
X103904802Y-81912460D01*
X103523614Y-81912460D01*
X103527547Y-79372460D01*
X103904802Y-79372460D01*
X103992503Y-79813364D01*
X104242255Y-80187145D01*
X104616036Y-80436897D01*
X104945644Y-80502460D01*
X105168236Y-80502460D01*
X105497844Y-80436897D01*
X105871625Y-80187145D01*
X106121377Y-79813364D01*
X106209078Y-79372460D01*
X106169670Y-79174340D01*
X152307042Y-79174340D01*
X152394743Y-79615244D01*
X152644495Y-79989025D01*
X153018276Y-80238777D01*
X153347884Y-80304340D01*
X153570476Y-80304340D01*
X153900084Y-80238777D01*
X154273865Y-79989025D01*
X154523617Y-79615244D01*
X154611318Y-79174340D01*
X154523617Y-78733436D01*
X154273865Y-78359655D01*
X153900084Y-78109903D01*
X153570476Y-78044340D01*
X153347884Y-78044340D01*
X153018276Y-78109903D01*
X152644495Y-78359655D01*
X152394743Y-78733436D01*
X152307042Y-79174340D01*
X106169670Y-79174340D01*
X106121377Y-78931556D01*
X105871625Y-78557775D01*
X105497844Y-78308023D01*
X105168236Y-78242460D01*
X104945644Y-78242460D01*
X104616036Y-78308023D01*
X104242255Y-78557775D01*
X103992503Y-78931556D01*
X103904802Y-79372460D01*
X103527547Y-79372460D01*
X103531480Y-76832460D01*
X103904802Y-76832460D01*
X103992503Y-77273364D01*
X104242255Y-77647145D01*
X104616036Y-77896897D01*
X104945644Y-77962460D01*
X105168236Y-77962460D01*
X105497844Y-77896897D01*
X105871625Y-77647145D01*
X106121377Y-77273364D01*
X106209078Y-76832460D01*
X106169670Y-76634340D01*
X152307042Y-76634340D01*
X152394743Y-77075244D01*
X152644495Y-77449025D01*
X153018276Y-77698777D01*
X153347884Y-77764340D01*
X153570476Y-77764340D01*
X153900084Y-77698777D01*
X154273865Y-77449025D01*
X154523617Y-77075244D01*
X154611318Y-76634340D01*
X154523617Y-76193436D01*
X154273865Y-75819655D01*
X153900084Y-75569903D01*
X153570476Y-75504340D01*
X153347884Y-75504340D01*
X153018276Y-75569903D01*
X152644495Y-75819655D01*
X152394743Y-76193436D01*
X152307042Y-76634340D01*
X106169670Y-76634340D01*
X106121377Y-76391556D01*
X105871625Y-76017775D01*
X105497844Y-75768023D01*
X105168236Y-75702460D01*
X104945644Y-75702460D01*
X104616036Y-75768023D01*
X104242255Y-76017775D01*
X103992503Y-76391556D01*
X103904802Y-76832460D01*
X103531480Y-76832460D01*
X103535413Y-74292460D01*
X103904802Y-74292460D01*
X103992503Y-74733364D01*
X104242255Y-75107145D01*
X104616036Y-75356897D01*
X104945644Y-75422460D01*
X105168236Y-75422460D01*
X105497844Y-75356897D01*
X105871625Y-75107145D01*
X106121377Y-74733364D01*
X106209078Y-74292460D01*
X106169670Y-74094340D01*
X152307042Y-74094340D01*
X152394743Y-74535244D01*
X152644495Y-74909025D01*
X153018276Y-75158777D01*
X153347884Y-75224340D01*
X153570476Y-75224340D01*
X153900084Y-75158777D01*
X154273865Y-74909025D01*
X154523617Y-74535244D01*
X154611318Y-74094340D01*
X154523617Y-73653436D01*
X154273865Y-73279655D01*
X153900084Y-73029903D01*
X153570476Y-72964340D01*
X153347884Y-72964340D01*
X153018276Y-73029903D01*
X152644495Y-73279655D01*
X152394743Y-73653436D01*
X152307042Y-74094340D01*
X106169670Y-74094340D01*
X106121377Y-73851556D01*
X105871625Y-73477775D01*
X105497844Y-73228023D01*
X105168236Y-73162460D01*
X104945644Y-73162460D01*
X104616036Y-73228023D01*
X104242255Y-73477775D01*
X103992503Y-73851556D01*
X103904802Y-74292460D01*
X103535413Y-74292460D01*
X103539346Y-71752460D01*
X103904802Y-71752460D01*
X103992503Y-72193364D01*
X104242255Y-72567145D01*
X104616036Y-72816897D01*
X104945644Y-72882460D01*
X105168236Y-72882460D01*
X105497844Y-72816897D01*
X105871625Y-72567145D01*
X106121377Y-72193364D01*
X106209078Y-71752460D01*
X106169670Y-71554340D01*
X152307042Y-71554340D01*
X152394743Y-71995244D01*
X152644495Y-72369025D01*
X153018276Y-72618777D01*
X153347884Y-72684340D01*
X153570476Y-72684340D01*
X153900084Y-72618777D01*
X154273865Y-72369025D01*
X154523617Y-71995244D01*
X154611318Y-71554340D01*
X154523617Y-71113436D01*
X154273865Y-70739655D01*
X153900084Y-70489903D01*
X153570476Y-70424340D01*
X153347884Y-70424340D01*
X153018276Y-70489903D01*
X152644495Y-70739655D01*
X152394743Y-71113436D01*
X152307042Y-71554340D01*
X106169670Y-71554340D01*
X106121377Y-71311556D01*
X105871625Y-70937775D01*
X105497844Y-70688023D01*
X105168236Y-70622460D01*
X104945644Y-70622460D01*
X104616036Y-70688023D01*
X104242255Y-70937775D01*
X103992503Y-71311556D01*
X103904802Y-71752460D01*
X103539346Y-71752460D01*
X103543279Y-69212460D01*
X103904802Y-69212460D01*
X103992503Y-69653364D01*
X104242255Y-70027145D01*
X104616036Y-70276897D01*
X104945644Y-70342460D01*
X105168236Y-70342460D01*
X105497844Y-70276897D01*
X105871625Y-70027145D01*
X106121377Y-69653364D01*
X106209078Y-69212460D01*
X106121377Y-68771556D01*
X105871625Y-68397775D01*
X105522265Y-68164340D01*
X152323695Y-68164340D01*
X152323695Y-69864340D01*
X152345426Y-69973590D01*
X152407312Y-70066208D01*
X152499930Y-70128094D01*
X152609180Y-70149825D01*
X154309180Y-70149825D01*
X154418430Y-70128094D01*
X154511048Y-70066208D01*
X154572934Y-69973590D01*
X154594665Y-69864340D01*
X154594665Y-68164340D01*
X154572934Y-68055090D01*
X154511048Y-67962472D01*
X154418430Y-67900586D01*
X154309180Y-67878855D01*
X152609180Y-67878855D01*
X152499930Y-67900586D01*
X152407312Y-67962472D01*
X152345426Y-68055090D01*
X152323695Y-68164340D01*
X105522265Y-68164340D01*
X105497844Y-68148023D01*
X105168236Y-68082460D01*
X104945644Y-68082460D01*
X104616036Y-68148023D01*
X104242255Y-68397775D01*
X103992503Y-68771556D01*
X103904802Y-69212460D01*
X103543279Y-69212460D01*
X103547435Y-66528000D01*
X104066000Y-66528000D01*
X104066000Y-67191739D01*
X104102538Y-67279949D01*
X104170051Y-67347462D01*
X104258261Y-67384000D01*
X104922000Y-67384000D01*
X104982000Y-67324000D01*
X104982000Y-66468000D01*
X105330000Y-66468000D01*
X105330000Y-67324000D01*
X105390000Y-67384000D01*
X106053739Y-67384000D01*
X106141949Y-67347462D01*
X106209462Y-67279949D01*
X106246000Y-67191739D01*
X106246000Y-66528000D01*
X106186000Y-66468000D01*
X105330000Y-66468000D01*
X104982000Y-66468000D01*
X104126000Y-66468000D01*
X104066000Y-66528000D01*
X103547435Y-66528000D01*
X103547797Y-66294000D01*
X106543862Y-66294000D01*
X106631563Y-66734904D01*
X106881315Y-67108685D01*
X107255096Y-67358437D01*
X107584704Y-67424000D01*
X107807296Y-67424000D01*
X108136904Y-67358437D01*
X108510685Y-67108685D01*
X108760437Y-66734904D01*
X108848138Y-66294000D01*
X109083862Y-66294000D01*
X109171563Y-66734904D01*
X109421315Y-67108685D01*
X109795096Y-67358437D01*
X110124704Y-67424000D01*
X110347296Y-67424000D01*
X110676904Y-67358437D01*
X111050685Y-67108685D01*
X111300437Y-66734904D01*
X111388138Y-66294000D01*
X111623862Y-66294000D01*
X111711563Y-66734904D01*
X111961315Y-67108685D01*
X112335096Y-67358437D01*
X112664704Y-67424000D01*
X112887296Y-67424000D01*
X113216904Y-67358437D01*
X113590685Y-67108685D01*
X113840437Y-66734904D01*
X113928138Y-66294000D01*
X114163862Y-66294000D01*
X114251563Y-66734904D01*
X114501315Y-67108685D01*
X114875096Y-67358437D01*
X115204704Y-67424000D01*
X115427296Y-67424000D01*
X115756904Y-67358437D01*
X116130685Y-67108685D01*
X116380437Y-66734904D01*
X116468138Y-66294000D01*
X116703862Y-66294000D01*
X116791563Y-66734904D01*
X117041315Y-67108685D01*
X117415096Y-67358437D01*
X117744704Y-67424000D01*
X117967296Y-67424000D01*
X118296904Y-67358437D01*
X118670685Y-67108685D01*
X118920437Y-66734904D01*
X119008138Y-66294000D01*
X119243862Y-66294000D01*
X119331563Y-66734904D01*
X119581315Y-67108685D01*
X119955096Y-67358437D01*
X120284704Y-67424000D01*
X120507296Y-67424000D01*
X120836904Y-67358437D01*
X121210685Y-67108685D01*
X121460437Y-66734904D01*
X121548138Y-66294000D01*
X121783862Y-66294000D01*
X121871563Y-66734904D01*
X122121315Y-67108685D01*
X122495096Y-67358437D01*
X122824704Y-67424000D01*
X123047296Y-67424000D01*
X123376904Y-67358437D01*
X123750685Y-67108685D01*
X124000437Y-66734904D01*
X124088138Y-66294000D01*
X124323862Y-66294000D01*
X124411563Y-66734904D01*
X124661315Y-67108685D01*
X125035096Y-67358437D01*
X125364704Y-67424000D01*
X125587296Y-67424000D01*
X125916904Y-67358437D01*
X126290685Y-67108685D01*
X126540437Y-66734904D01*
X126628138Y-66294000D01*
X126863862Y-66294000D01*
X126951563Y-66734904D01*
X127201315Y-67108685D01*
X127575096Y-67358437D01*
X127904704Y-67424000D01*
X128127296Y-67424000D01*
X128456904Y-67358437D01*
X128830685Y-67108685D01*
X129080437Y-66734904D01*
X129168138Y-66294000D01*
X129403862Y-66294000D01*
X129491563Y-66734904D01*
X129741315Y-67108685D01*
X130115096Y-67358437D01*
X130444704Y-67424000D01*
X130667296Y-67424000D01*
X130996904Y-67358437D01*
X131370685Y-67108685D01*
X131620437Y-66734904D01*
X131708138Y-66294000D01*
X131943862Y-66294000D01*
X132031563Y-66734904D01*
X132281315Y-67108685D01*
X132655096Y-67358437D01*
X132984704Y-67424000D01*
X133207296Y-67424000D01*
X133536904Y-67358437D01*
X133910685Y-67108685D01*
X134160437Y-66734904D01*
X134248138Y-66294000D01*
X134483862Y-66294000D01*
X134571563Y-66734904D01*
X134821315Y-67108685D01*
X135195096Y-67358437D01*
X135524704Y-67424000D01*
X135747296Y-67424000D01*
X136076904Y-67358437D01*
X136450685Y-67108685D01*
X136700437Y-66734904D01*
X136788138Y-66294000D01*
X137023862Y-66294000D01*
X137111563Y-66734904D01*
X137361315Y-67108685D01*
X137735096Y-67358437D01*
X138064704Y-67424000D01*
X138287296Y-67424000D01*
X138616904Y-67358437D01*
X138990685Y-67108685D01*
X139240437Y-66734904D01*
X139328138Y-66294000D01*
X139563862Y-66294000D01*
X139651563Y-66734904D01*
X139901315Y-67108685D01*
X140275096Y-67358437D01*
X140604704Y-67424000D01*
X140827296Y-67424000D01*
X141156904Y-67358437D01*
X141530685Y-67108685D01*
X141780437Y-66734904D01*
X141868138Y-66294000D01*
X142103862Y-66294000D01*
X142191563Y-66734904D01*
X142441315Y-67108685D01*
X142815096Y-67358437D01*
X143144704Y-67424000D01*
X143367296Y-67424000D01*
X143696904Y-67358437D01*
X144070685Y-67108685D01*
X144320437Y-66734904D01*
X144408138Y-66294000D01*
X144643862Y-66294000D01*
X144731563Y-66734904D01*
X144981315Y-67108685D01*
X145355096Y-67358437D01*
X145684704Y-67424000D01*
X145907296Y-67424000D01*
X146236904Y-67358437D01*
X146610685Y-67108685D01*
X146860437Y-66734904D01*
X146948138Y-66294000D01*
X147183862Y-66294000D01*
X147271563Y-66734904D01*
X147521315Y-67108685D01*
X147895096Y-67358437D01*
X148224704Y-67424000D01*
X148447296Y-67424000D01*
X148776904Y-67358437D01*
X149150685Y-67108685D01*
X149400437Y-66734904D01*
X149488138Y-66294000D01*
X149723862Y-66294000D01*
X149811563Y-66734904D01*
X150061315Y-67108685D01*
X150435096Y-67358437D01*
X150764704Y-67424000D01*
X150987296Y-67424000D01*
X151316904Y-67358437D01*
X151690685Y-67108685D01*
X151940437Y-66734904D01*
X152028138Y-66294000D01*
X152263862Y-66294000D01*
X152351563Y-66734904D01*
X152601315Y-67108685D01*
X152975096Y-67358437D01*
X153304704Y-67424000D01*
X153527296Y-67424000D01*
X153856904Y-67358437D01*
X154230685Y-67108685D01*
X154480437Y-66734904D01*
X154568138Y-66294000D01*
X154480437Y-65853096D01*
X154230685Y-65479315D01*
X153856904Y-65229563D01*
X153527296Y-65164000D01*
X153304704Y-65164000D01*
X152975096Y-65229563D01*
X152601315Y-65479315D01*
X152351563Y-65853096D01*
X152263862Y-66294000D01*
X152028138Y-66294000D01*
X151940437Y-65853096D01*
X151690685Y-65479315D01*
X151316904Y-65229563D01*
X150987296Y-65164000D01*
X150764704Y-65164000D01*
X150435096Y-65229563D01*
X150061315Y-65479315D01*
X149811563Y-65853096D01*
X149723862Y-66294000D01*
X149488138Y-66294000D01*
X149400437Y-65853096D01*
X149150685Y-65479315D01*
X148776904Y-65229563D01*
X148447296Y-65164000D01*
X148224704Y-65164000D01*
X147895096Y-65229563D01*
X147521315Y-65479315D01*
X147271563Y-65853096D01*
X147183862Y-66294000D01*
X146948138Y-66294000D01*
X146860437Y-65853096D01*
X146610685Y-65479315D01*
X146236904Y-65229563D01*
X145907296Y-65164000D01*
X145684704Y-65164000D01*
X145355096Y-65229563D01*
X144981315Y-65479315D01*
X144731563Y-65853096D01*
X144643862Y-66294000D01*
X144408138Y-66294000D01*
X144320437Y-65853096D01*
X144070685Y-65479315D01*
X143696904Y-65229563D01*
X143367296Y-65164000D01*
X143144704Y-65164000D01*
X142815096Y-65229563D01*
X142441315Y-65479315D01*
X142191563Y-65853096D01*
X142103862Y-66294000D01*
X141868138Y-66294000D01*
X141780437Y-65853096D01*
X141530685Y-65479315D01*
X141156904Y-65229563D01*
X140827296Y-65164000D01*
X140604704Y-65164000D01*
X140275096Y-65229563D01*
X139901315Y-65479315D01*
X139651563Y-65853096D01*
X139563862Y-66294000D01*
X139328138Y-66294000D01*
X139240437Y-65853096D01*
X138990685Y-65479315D01*
X138616904Y-65229563D01*
X138287296Y-65164000D01*
X138064704Y-65164000D01*
X137735096Y-65229563D01*
X137361315Y-65479315D01*
X137111563Y-65853096D01*
X137023862Y-66294000D01*
X136788138Y-66294000D01*
X136700437Y-65853096D01*
X136450685Y-65479315D01*
X136076904Y-65229563D01*
X135747296Y-65164000D01*
X135524704Y-65164000D01*
X135195096Y-65229563D01*
X134821315Y-65479315D01*
X134571563Y-65853096D01*
X134483862Y-66294000D01*
X134248138Y-66294000D01*
X134160437Y-65853096D01*
X133910685Y-65479315D01*
X133536904Y-65229563D01*
X133207296Y-65164000D01*
X132984704Y-65164000D01*
X132655096Y-65229563D01*
X132281315Y-65479315D01*
X132031563Y-65853096D01*
X131943862Y-66294000D01*
X131708138Y-66294000D01*
X131620437Y-65853096D01*
X131370685Y-65479315D01*
X130996904Y-65229563D01*
X130667296Y-65164000D01*
X130444704Y-65164000D01*
X130115096Y-65229563D01*
X129741315Y-65479315D01*
X129491563Y-65853096D01*
X129403862Y-66294000D01*
X129168138Y-66294000D01*
X129080437Y-65853096D01*
X128830685Y-65479315D01*
X128456904Y-65229563D01*
X128127296Y-65164000D01*
X127904704Y-65164000D01*
X127575096Y-65229563D01*
X127201315Y-65479315D01*
X126951563Y-65853096D01*
X126863862Y-66294000D01*
X126628138Y-66294000D01*
X126540437Y-65853096D01*
X126290685Y-65479315D01*
X125916904Y-65229563D01*
X125587296Y-65164000D01*
X125364704Y-65164000D01*
X125035096Y-65229563D01*
X124661315Y-65479315D01*
X124411563Y-65853096D01*
X124323862Y-66294000D01*
X124088138Y-66294000D01*
X124000437Y-65853096D01*
X123750685Y-65479315D01*
X123376904Y-65229563D01*
X123047296Y-65164000D01*
X122824704Y-65164000D01*
X122495096Y-65229563D01*
X122121315Y-65479315D01*
X121871563Y-65853096D01*
X121783862Y-66294000D01*
X121548138Y-66294000D01*
X121460437Y-65853096D01*
X121210685Y-65479315D01*
X120836904Y-65229563D01*
X120507296Y-65164000D01*
X120284704Y-65164000D01*
X119955096Y-65229563D01*
X119581315Y-65479315D01*
X119331563Y-65853096D01*
X119243862Y-66294000D01*
X119008138Y-66294000D01*
X118920437Y-65853096D01*
X118670685Y-65479315D01*
X118296904Y-65229563D01*
X117967296Y-65164000D01*
X117744704Y-65164000D01*
X117415096Y-65229563D01*
X117041315Y-65479315D01*
X116791563Y-65853096D01*
X116703862Y-66294000D01*
X116468138Y-66294000D01*
X116380437Y-65853096D01*
X116130685Y-65479315D01*
X115756904Y-65229563D01*
X115427296Y-65164000D01*
X115204704Y-65164000D01*
X114875096Y-65229563D01*
X114501315Y-65479315D01*
X114251563Y-65853096D01*
X114163862Y-66294000D01*
X113928138Y-66294000D01*
X113840437Y-65853096D01*
X113590685Y-65479315D01*
X113216904Y-65229563D01*
X112887296Y-65164000D01*
X112664704Y-65164000D01*
X112335096Y-65229563D01*
X111961315Y-65479315D01*
X111711563Y-65853096D01*
X111623862Y-66294000D01*
X111388138Y-66294000D01*
X111300437Y-65853096D01*
X111050685Y-65479315D01*
X110676904Y-65229563D01*
X110347296Y-65164000D01*
X110124704Y-65164000D01*
X109795096Y-65229563D01*
X109421315Y-65479315D01*
X109171563Y-65853096D01*
X109083862Y-66294000D01*
X108848138Y-66294000D01*
X108760437Y-65853096D01*
X108510685Y-65479315D01*
X108136904Y-65229563D01*
X107807296Y-65164000D01*
X107584704Y-65164000D01*
X107255096Y-65229563D01*
X106881315Y-65479315D01*
X106631563Y-65853096D01*
X106543862Y-66294000D01*
X103547797Y-66294000D01*
X103549187Y-65396261D01*
X104066000Y-65396261D01*
X104066000Y-66060000D01*
X104126000Y-66120000D01*
X104982000Y-66120000D01*
X104982000Y-65264000D01*
X105330000Y-65264000D01*
X105330000Y-66120000D01*
X106186000Y-66120000D01*
X106246000Y-66060000D01*
X106246000Y-65396261D01*
X106209462Y-65308051D01*
X106141949Y-65240538D01*
X106053739Y-65204000D01*
X105390000Y-65204000D01*
X105330000Y-65264000D01*
X104982000Y-65264000D01*
X104922000Y-65204000D01*
X104258261Y-65204000D01*
X104170051Y-65240538D01*
X104102538Y-65308051D01*
X104066000Y-65396261D01*
X103549187Y-65396261D01*
X103550264Y-64701538D01*
X154981408Y-64714083D01*
G04 #@! TD*
M02*
