M48
;DRILL file {KiCad 5.0.2-bee76a0~70~ubuntu14.04.1} date Fri 14 Dec 2018 06:36:55 PM MST
;FORMAT={-:-/ absolute / inch / decimal}
FMAT,2
INCH,TZ
T1C0.0157
T2C0.0394
%
G90
G05
T1
X4.7278Y-3.6554
X4.7295Y-3.414
X4.9502Y-3.4105
X4.9502Y-3.5445
X4.9502Y-3.6897
X4.9514Y-3.619
X4.9527Y-3.48
X4.9997Y-3.9019
X5.0173Y-3.4824
X5.0892Y-3.5358
X5.152Y-3.4873
X5.1571Y-3.1741
X5.227Y-3.4825
X5.227Y-3.5445
X5.2282Y-3.619
X5.2294Y-3.4117
X5.2307Y-3.6897
X5.4523Y-3.6744
T2
X6.0417Y-2.7171
X6.0417Y-2.8171
X6.0417Y-2.9171
X6.0417Y-3.0171
X6.0417Y-3.1171
X6.0417Y-3.2171
X6.0417Y-3.3171
X6.0417Y-3.4171
X6.0417Y-3.5171
X6.0417Y-3.6171
X6.0417Y-3.7171
X6.0417Y-3.8171
X6.0417Y-3.9171
X6.0417Y-4.0171
X6.0417Y-4.1171
X6.0417Y-4.2171
X6.0417Y-4.3171
X6.0417Y-4.4171
X4.1361Y-2.7249
X4.1361Y-2.8249
X4.1361Y-2.9249
X4.1361Y-3.0249
X4.1361Y-3.1249
X4.1361Y-3.2249
X4.1361Y-3.3249
X4.1361Y-3.4249
X4.1361Y-3.5249
X4.1361Y-3.6249
X4.1361Y-3.7249
X4.1361Y-3.8249
X4.1361Y-3.9249
X4.1361Y-4.0249
X4.1361Y-4.1249
X4.1361Y-4.2249
X4.1361Y-4.3249
X4.1361Y-4.4249
X4.14Y-2.61
X4.24Y-2.61
X4.34Y-2.61
X4.44Y-2.61
X4.54Y-2.61
X4.64Y-2.61
X4.74Y-2.61
X4.84Y-2.61
X4.94Y-2.61
X5.04Y-2.61
X5.14Y-2.61
X5.24Y-2.61
X5.34Y-2.61
X5.44Y-2.61
X5.54Y-2.61
X5.64Y-2.61
X5.74Y-2.61
X5.84Y-2.61
X5.94Y-2.61
X6.04Y-2.61
X4.2382Y-4.5263
X4.3382Y-4.5263
X4.4382Y-4.5263
X4.5382Y-4.5263
X4.6382Y-4.5263
X4.7382Y-4.5263
X4.8382Y-4.5263
X4.9382Y-4.5263
X5.0382Y-4.5263
X5.1382Y-4.5263
X5.2382Y-4.5263
X5.3382Y-4.5263
X5.4382Y-4.5263
X5.5382Y-4.5263
X5.6382Y-4.5263
X5.7382Y-4.5263
X5.8382Y-4.5263
X5.9382Y-4.5263
T0
M30
