G04 #@! TF.GenerationSoftware,KiCad,Pcbnew,5.0.2-bee76a0~70~ubuntu14.04.1*
G04 #@! TF.CreationDate,2018-12-14T16:37:15-07:00*
G04 #@! TF.ProjectId,ga4-evalboard,6761342d-6576-4616-9c62-6f6172642e6b,rev?*
G04 #@! TF.SameCoordinates,Original*
G04 #@! TF.FileFunction,Soldermask,Top*
G04 #@! TF.FilePolarity,Negative*
%FSLAX46Y46*%
G04 Gerber Fmt 4.6, Leading zero omitted, Abs format (unit mm)*
G04 Created by KiCad (PCBNEW 5.0.2-bee76a0~70~ubuntu14.04.1) date Fri 14 Dec 2018 04:37:15 PM MST*
%MOMM*%
%LPD*%
G01*
G04 APERTURE LIST*
%ADD10C,0.100000*%
G04 APERTURE END LIST*
D10*
G36*
X143876000Y-111951000D02*
X142074000Y-111951000D01*
X142074000Y-110149000D01*
X143876000Y-110149000D01*
X143876000Y-111951000D01*
X143876000Y-111951000D01*
G37*
G36*
X138005442Y-110155518D02*
X138071627Y-110162037D01*
X138184853Y-110196384D01*
X138241467Y-110213557D01*
X138380087Y-110287652D01*
X138397991Y-110297222D01*
X138422101Y-110317009D01*
X138535186Y-110409814D01*
X138618448Y-110511271D01*
X138647778Y-110547009D01*
X138647779Y-110547011D01*
X138731443Y-110703533D01*
X138731443Y-110703534D01*
X138782963Y-110873373D01*
X138800359Y-111050000D01*
X138782963Y-111226627D01*
X138753732Y-111322989D01*
X138731443Y-111396467D01*
X138697384Y-111460186D01*
X138647778Y-111552991D01*
X138631539Y-111572778D01*
X138535186Y-111690186D01*
X138433729Y-111773448D01*
X138397991Y-111802778D01*
X138397989Y-111802779D01*
X138241467Y-111886443D01*
X138184853Y-111903616D01*
X138071627Y-111937963D01*
X138005443Y-111944481D01*
X137939260Y-111951000D01*
X137850740Y-111951000D01*
X137784557Y-111944481D01*
X137718373Y-111937963D01*
X137605147Y-111903616D01*
X137548533Y-111886443D01*
X137392011Y-111802779D01*
X137392009Y-111802778D01*
X137356271Y-111773448D01*
X137254814Y-111690186D01*
X137158461Y-111572778D01*
X137142222Y-111552991D01*
X137092616Y-111460186D01*
X137058557Y-111396467D01*
X137036268Y-111322989D01*
X137007037Y-111226627D01*
X136989641Y-111050000D01*
X137007037Y-110873373D01*
X137058557Y-110703534D01*
X137058557Y-110703533D01*
X137142221Y-110547011D01*
X137142222Y-110547009D01*
X137171552Y-110511271D01*
X137254814Y-110409814D01*
X137367899Y-110317009D01*
X137392009Y-110297222D01*
X137409913Y-110287652D01*
X137548533Y-110213557D01*
X137605147Y-110196384D01*
X137718373Y-110162037D01*
X137784558Y-110155518D01*
X137850740Y-110149000D01*
X137939260Y-110149000D01*
X138005442Y-110155518D01*
X138005442Y-110155518D01*
G37*
G36*
X135465442Y-110155518D02*
X135531627Y-110162037D01*
X135644853Y-110196384D01*
X135701467Y-110213557D01*
X135840087Y-110287652D01*
X135857991Y-110297222D01*
X135882101Y-110317009D01*
X135995186Y-110409814D01*
X136078448Y-110511271D01*
X136107778Y-110547009D01*
X136107779Y-110547011D01*
X136191443Y-110703533D01*
X136191443Y-110703534D01*
X136242963Y-110873373D01*
X136260359Y-111050000D01*
X136242963Y-111226627D01*
X136213732Y-111322989D01*
X136191443Y-111396467D01*
X136157384Y-111460186D01*
X136107778Y-111552991D01*
X136091539Y-111572778D01*
X135995186Y-111690186D01*
X135893729Y-111773448D01*
X135857991Y-111802778D01*
X135857989Y-111802779D01*
X135701467Y-111886443D01*
X135644853Y-111903616D01*
X135531627Y-111937963D01*
X135465443Y-111944481D01*
X135399260Y-111951000D01*
X135310740Y-111951000D01*
X135244557Y-111944481D01*
X135178373Y-111937963D01*
X135065147Y-111903616D01*
X135008533Y-111886443D01*
X134852011Y-111802779D01*
X134852009Y-111802778D01*
X134816271Y-111773448D01*
X134714814Y-111690186D01*
X134618461Y-111572778D01*
X134602222Y-111552991D01*
X134552616Y-111460186D01*
X134518557Y-111396467D01*
X134496268Y-111322989D01*
X134467037Y-111226627D01*
X134449641Y-111050000D01*
X134467037Y-110873373D01*
X134518557Y-110703534D01*
X134518557Y-110703533D01*
X134602221Y-110547011D01*
X134602222Y-110547009D01*
X134631552Y-110511271D01*
X134714814Y-110409814D01*
X134827899Y-110317009D01*
X134852009Y-110297222D01*
X134869913Y-110287652D01*
X135008533Y-110213557D01*
X135065147Y-110196384D01*
X135178373Y-110162037D01*
X135244558Y-110155518D01*
X135310740Y-110149000D01*
X135399260Y-110149000D01*
X135465442Y-110155518D01*
X135465442Y-110155518D01*
G37*
G36*
X140545442Y-110155518D02*
X140611627Y-110162037D01*
X140724853Y-110196384D01*
X140781467Y-110213557D01*
X140920087Y-110287652D01*
X140937991Y-110297222D01*
X140962101Y-110317009D01*
X141075186Y-110409814D01*
X141158448Y-110511271D01*
X141187778Y-110547009D01*
X141187779Y-110547011D01*
X141271443Y-110703533D01*
X141271443Y-110703534D01*
X141322963Y-110873373D01*
X141340359Y-111050000D01*
X141322963Y-111226627D01*
X141293732Y-111322989D01*
X141271443Y-111396467D01*
X141237384Y-111460186D01*
X141187778Y-111552991D01*
X141171539Y-111572778D01*
X141075186Y-111690186D01*
X140973729Y-111773448D01*
X140937991Y-111802778D01*
X140937989Y-111802779D01*
X140781467Y-111886443D01*
X140724853Y-111903616D01*
X140611627Y-111937963D01*
X140545443Y-111944481D01*
X140479260Y-111951000D01*
X140390740Y-111951000D01*
X140324557Y-111944481D01*
X140258373Y-111937963D01*
X140145147Y-111903616D01*
X140088533Y-111886443D01*
X139932011Y-111802779D01*
X139932009Y-111802778D01*
X139896271Y-111773448D01*
X139794814Y-111690186D01*
X139698461Y-111572778D01*
X139682222Y-111552991D01*
X139632616Y-111460186D01*
X139598557Y-111396467D01*
X139576268Y-111322989D01*
X139547037Y-111226627D01*
X139529641Y-111050000D01*
X139547037Y-110873373D01*
X139598557Y-110703534D01*
X139598557Y-110703533D01*
X139682221Y-110547011D01*
X139682222Y-110547009D01*
X139711552Y-110511271D01*
X139794814Y-110409814D01*
X139907899Y-110317009D01*
X139932009Y-110297222D01*
X139949913Y-110287652D01*
X140088533Y-110213557D01*
X140145147Y-110196384D01*
X140258373Y-110162037D01*
X140324558Y-110155518D01*
X140390740Y-110149000D01*
X140479260Y-110149000D01*
X140545442Y-110155518D01*
X140545442Y-110155518D01*
G37*
G36*
X152860443Y-109925519D02*
X152926627Y-109932037D01*
X153039853Y-109966384D01*
X153096467Y-109983557D01*
X153235087Y-110057652D01*
X153252991Y-110067222D01*
X153288729Y-110096552D01*
X153390186Y-110179814D01*
X153473448Y-110281271D01*
X153502778Y-110317009D01*
X153502779Y-110317011D01*
X153586443Y-110473533D01*
X153586443Y-110473534D01*
X153637963Y-110643373D01*
X153655359Y-110820000D01*
X153637963Y-110996627D01*
X153603616Y-111109853D01*
X153586443Y-111166467D01*
X153554287Y-111226625D01*
X153502778Y-111322991D01*
X153473448Y-111358729D01*
X153390186Y-111460186D01*
X153288729Y-111543448D01*
X153252991Y-111572778D01*
X153252989Y-111572779D01*
X153096467Y-111656443D01*
X153039853Y-111673616D01*
X152926627Y-111707963D01*
X152860443Y-111714481D01*
X152794260Y-111721000D01*
X152705740Y-111721000D01*
X152639557Y-111714481D01*
X152573373Y-111707963D01*
X152460147Y-111673616D01*
X152403533Y-111656443D01*
X152247011Y-111572779D01*
X152247009Y-111572778D01*
X152211271Y-111543448D01*
X152109814Y-111460186D01*
X152026552Y-111358729D01*
X151997222Y-111322991D01*
X151945713Y-111226625D01*
X151913557Y-111166467D01*
X151896384Y-111109853D01*
X151862037Y-110996627D01*
X151844641Y-110820000D01*
X151862037Y-110643373D01*
X151913557Y-110473534D01*
X151913557Y-110473533D01*
X151997221Y-110317011D01*
X151997222Y-110317009D01*
X152026552Y-110281271D01*
X152109814Y-110179814D01*
X152211271Y-110096552D01*
X152247009Y-110067222D01*
X152264913Y-110057652D01*
X152403533Y-109983557D01*
X152460147Y-109966384D01*
X152573373Y-109932037D01*
X152639557Y-109925519D01*
X152705740Y-109919000D01*
X152794260Y-109919000D01*
X152860443Y-109925519D01*
X152860443Y-109925519D01*
G37*
G36*
X152860442Y-107385518D02*
X152926627Y-107392037D01*
X153039853Y-107426384D01*
X153096467Y-107443557D01*
X153235087Y-107517652D01*
X153252991Y-107527222D01*
X153288729Y-107556552D01*
X153390186Y-107639814D01*
X153473448Y-107741271D01*
X153502778Y-107777009D01*
X153502779Y-107777011D01*
X153586443Y-107933533D01*
X153586443Y-107933534D01*
X153637963Y-108103373D01*
X153655359Y-108280000D01*
X153637963Y-108456627D01*
X153603616Y-108569853D01*
X153586443Y-108626467D01*
X153512348Y-108765087D01*
X153502778Y-108782991D01*
X153473448Y-108818729D01*
X153390186Y-108920186D01*
X153288729Y-109003448D01*
X153252991Y-109032778D01*
X153252989Y-109032779D01*
X153096467Y-109116443D01*
X153039853Y-109133616D01*
X152926627Y-109167963D01*
X152860443Y-109174481D01*
X152794260Y-109181000D01*
X152705740Y-109181000D01*
X152639557Y-109174481D01*
X152573373Y-109167963D01*
X152460147Y-109133616D01*
X152403533Y-109116443D01*
X152247011Y-109032779D01*
X152247009Y-109032778D01*
X152211271Y-109003448D01*
X152109814Y-108920186D01*
X152026552Y-108818729D01*
X151997222Y-108782991D01*
X151987652Y-108765087D01*
X151913557Y-108626467D01*
X151896384Y-108569853D01*
X151862037Y-108456627D01*
X151844641Y-108280000D01*
X151862037Y-108103373D01*
X151913557Y-107933534D01*
X151913557Y-107933533D01*
X151997221Y-107777011D01*
X151997222Y-107777009D01*
X152026552Y-107741271D01*
X152109814Y-107639814D01*
X152211271Y-107556552D01*
X152247009Y-107527222D01*
X152264913Y-107517652D01*
X152403533Y-107443557D01*
X152460147Y-107426384D01*
X152573373Y-107392037D01*
X152639558Y-107385518D01*
X152705740Y-107379000D01*
X152794260Y-107379000D01*
X152860442Y-107385518D01*
X152860442Y-107385518D01*
G37*
G36*
X152860443Y-104845519D02*
X152926627Y-104852037D01*
X153039853Y-104886384D01*
X153096467Y-104903557D01*
X153235087Y-104977652D01*
X153252991Y-104987222D01*
X153288729Y-105016552D01*
X153390186Y-105099814D01*
X153473448Y-105201271D01*
X153502778Y-105237009D01*
X153502779Y-105237011D01*
X153586443Y-105393533D01*
X153586443Y-105393534D01*
X153637963Y-105563373D01*
X153655359Y-105740000D01*
X153637963Y-105916627D01*
X153603616Y-106029853D01*
X153586443Y-106086467D01*
X153512348Y-106225087D01*
X153502778Y-106242991D01*
X153473448Y-106278729D01*
X153390186Y-106380186D01*
X153288729Y-106463448D01*
X153252991Y-106492778D01*
X153252989Y-106492779D01*
X153096467Y-106576443D01*
X153039853Y-106593616D01*
X152926627Y-106627963D01*
X152860442Y-106634482D01*
X152794260Y-106641000D01*
X152705740Y-106641000D01*
X152639558Y-106634482D01*
X152573373Y-106627963D01*
X152460147Y-106593616D01*
X152403533Y-106576443D01*
X152247011Y-106492779D01*
X152247009Y-106492778D01*
X152211271Y-106463448D01*
X152109814Y-106380186D01*
X152026552Y-106278729D01*
X151997222Y-106242991D01*
X151987652Y-106225087D01*
X151913557Y-106086467D01*
X151896384Y-106029853D01*
X151862037Y-105916627D01*
X151844641Y-105740000D01*
X151862037Y-105563373D01*
X151913557Y-105393534D01*
X151913557Y-105393533D01*
X151997221Y-105237011D01*
X151997222Y-105237009D01*
X152026552Y-105201271D01*
X152109814Y-105099814D01*
X152211271Y-105016552D01*
X152247009Y-104987222D01*
X152264913Y-104977652D01*
X152403533Y-104903557D01*
X152460147Y-104886384D01*
X152573373Y-104852037D01*
X152639557Y-104845519D01*
X152705740Y-104839000D01*
X152794260Y-104839000D01*
X152860443Y-104845519D01*
X152860443Y-104845519D01*
G37*
G36*
X153651000Y-104101000D02*
X151849000Y-104101000D01*
X151849000Y-102299000D01*
X153651000Y-102299000D01*
X153651000Y-104101000D01*
X153651000Y-104101000D01*
G37*
G36*
X141542091Y-102853085D02*
X141576069Y-102863393D01*
X141607387Y-102880133D01*
X141634839Y-102902661D01*
X141657367Y-102930113D01*
X141674107Y-102961431D01*
X141684415Y-102995409D01*
X141688500Y-103036890D01*
X141688500Y-103713110D01*
X141684415Y-103754591D01*
X141674107Y-103788569D01*
X141657367Y-103819887D01*
X141634839Y-103847339D01*
X141607387Y-103869867D01*
X141576069Y-103886607D01*
X141542091Y-103896915D01*
X141500610Y-103901000D01*
X140899390Y-103901000D01*
X140857909Y-103896915D01*
X140823931Y-103886607D01*
X140792613Y-103869867D01*
X140765161Y-103847339D01*
X140742633Y-103819887D01*
X140725893Y-103788569D01*
X140715585Y-103754591D01*
X140711500Y-103713110D01*
X140711500Y-103036890D01*
X140715585Y-102995409D01*
X140725893Y-102961431D01*
X140742633Y-102930113D01*
X140765161Y-102902661D01*
X140792613Y-102880133D01*
X140823931Y-102863393D01*
X140857909Y-102853085D01*
X140899390Y-102849000D01*
X141500610Y-102849000D01*
X141542091Y-102853085D01*
X141542091Y-102853085D01*
G37*
G36*
X139967091Y-102853085D02*
X140001069Y-102863393D01*
X140032387Y-102880133D01*
X140059839Y-102902661D01*
X140082367Y-102930113D01*
X140099107Y-102961431D01*
X140109415Y-102995409D01*
X140113500Y-103036890D01*
X140113500Y-103713110D01*
X140109415Y-103754591D01*
X140099107Y-103788569D01*
X140082367Y-103819887D01*
X140059839Y-103847339D01*
X140032387Y-103869867D01*
X140001069Y-103886607D01*
X139967091Y-103896915D01*
X139925610Y-103901000D01*
X139324390Y-103901000D01*
X139282909Y-103896915D01*
X139248931Y-103886607D01*
X139217613Y-103869867D01*
X139190161Y-103847339D01*
X139167633Y-103819887D01*
X139150893Y-103788569D01*
X139140585Y-103754591D01*
X139136500Y-103713110D01*
X139136500Y-103036890D01*
X139140585Y-102995409D01*
X139150893Y-102961431D01*
X139167633Y-102930113D01*
X139190161Y-102902661D01*
X139217613Y-102880133D01*
X139248931Y-102863393D01*
X139282909Y-102853085D01*
X139324390Y-102849000D01*
X139925610Y-102849000D01*
X139967091Y-102853085D01*
X139967091Y-102853085D01*
G37*
G36*
X137376000Y-99694690D02*
X137371554Y-99697066D01*
X137352612Y-99712612D01*
X137337066Y-99731554D01*
X137325515Y-99753165D01*
X137318402Y-99776614D01*
X137316000Y-99801000D01*
X137316000Y-101549000D01*
X137318402Y-101573386D01*
X137325515Y-101596835D01*
X137337066Y-101618446D01*
X137352612Y-101637388D01*
X137371554Y-101652934D01*
X137376000Y-101655310D01*
X137376000Y-102476000D01*
X134774000Y-102476000D01*
X134774000Y-101655310D01*
X134778446Y-101652934D01*
X134797388Y-101637388D01*
X134812934Y-101618446D01*
X134824485Y-101596835D01*
X134831598Y-101573386D01*
X134834000Y-101549000D01*
X134834000Y-99801000D01*
X134831598Y-99776614D01*
X134824485Y-99753165D01*
X134812934Y-99731554D01*
X134797388Y-99712612D01*
X134778446Y-99697066D01*
X134774000Y-99694690D01*
X134774000Y-98874000D01*
X137376000Y-98874000D01*
X137376000Y-99694690D01*
X137376000Y-99694690D01*
G37*
G36*
X145001000Y-101856000D02*
X143349000Y-101856000D01*
X143349000Y-101154000D01*
X145001000Y-101154000D01*
X145001000Y-101856000D01*
X145001000Y-101856000D01*
G37*
G36*
X150401000Y-101856000D02*
X148749000Y-101856000D01*
X148749000Y-101154000D01*
X150401000Y-101154000D01*
X150401000Y-101856000D01*
X150401000Y-101856000D01*
G37*
G36*
X148101000Y-100826000D02*
X145649000Y-100826000D01*
X145649000Y-98374000D01*
X148101000Y-98374000D01*
X148101000Y-100826000D01*
X148101000Y-100826000D01*
G37*
G36*
X145001000Y-100586000D02*
X143349000Y-100586000D01*
X143349000Y-99884000D01*
X145001000Y-99884000D01*
X145001000Y-100586000D01*
X145001000Y-100586000D01*
G37*
G36*
X150401000Y-100586000D02*
X148749000Y-100586000D01*
X148749000Y-99884000D01*
X150401000Y-99884000D01*
X150401000Y-100586000D01*
X150401000Y-100586000D01*
G37*
G36*
X145001000Y-99316000D02*
X143349000Y-99316000D01*
X143349000Y-98614000D01*
X145001000Y-98614000D01*
X145001000Y-99316000D01*
X145001000Y-99316000D01*
G37*
G36*
X150401000Y-99316000D02*
X148749000Y-99316000D01*
X148749000Y-98614000D01*
X150401000Y-98614000D01*
X150401000Y-99316000D01*
X150401000Y-99316000D01*
G37*
G36*
X150401000Y-98046000D02*
X148749000Y-98046000D01*
X148749000Y-97344000D01*
X150401000Y-97344000D01*
X150401000Y-98046000D01*
X150401000Y-98046000D01*
G37*
G36*
X145001000Y-98046000D02*
X143349000Y-98046000D01*
X143349000Y-97344000D01*
X145001000Y-97344000D01*
X145001000Y-98046000D01*
X145001000Y-98046000D01*
G37*
G36*
X139942091Y-96953085D02*
X139976069Y-96963393D01*
X140007387Y-96980133D01*
X140034839Y-97002661D01*
X140057367Y-97030113D01*
X140074107Y-97061431D01*
X140084415Y-97095409D01*
X140088500Y-97136890D01*
X140088500Y-97813110D01*
X140084415Y-97854591D01*
X140074107Y-97888569D01*
X140057367Y-97919887D01*
X140034839Y-97947339D01*
X140007387Y-97969867D01*
X139976069Y-97986607D01*
X139942091Y-97996915D01*
X139900610Y-98001000D01*
X139299390Y-98001000D01*
X139257909Y-97996915D01*
X139223931Y-97986607D01*
X139192613Y-97969867D01*
X139165161Y-97947339D01*
X139142633Y-97919887D01*
X139125893Y-97888569D01*
X139115585Y-97854591D01*
X139111500Y-97813110D01*
X139111500Y-97136890D01*
X139115585Y-97095409D01*
X139125893Y-97061431D01*
X139142633Y-97030113D01*
X139165161Y-97002661D01*
X139192613Y-96980133D01*
X139223931Y-96963393D01*
X139257909Y-96953085D01*
X139299390Y-96949000D01*
X139900610Y-96949000D01*
X139942091Y-96953085D01*
X139942091Y-96953085D01*
G37*
G36*
X141517091Y-96953085D02*
X141551069Y-96963393D01*
X141582387Y-96980133D01*
X141609839Y-97002661D01*
X141632367Y-97030113D01*
X141649107Y-97061431D01*
X141659415Y-97095409D01*
X141663500Y-97136890D01*
X141663500Y-97813110D01*
X141659415Y-97854591D01*
X141649107Y-97888569D01*
X141632367Y-97919887D01*
X141609839Y-97947339D01*
X141582387Y-97969867D01*
X141551069Y-97986607D01*
X141517091Y-97996915D01*
X141475610Y-98001000D01*
X140874390Y-98001000D01*
X140832909Y-97996915D01*
X140798931Y-97986607D01*
X140767613Y-97969867D01*
X140740161Y-97947339D01*
X140717633Y-97919887D01*
X140700893Y-97888569D01*
X140690585Y-97854591D01*
X140686500Y-97813110D01*
X140686500Y-97136890D01*
X140690585Y-97095409D01*
X140700893Y-97061431D01*
X140717633Y-97030113D01*
X140740161Y-97002661D01*
X140767613Y-96980133D01*
X140798931Y-96963393D01*
X140832909Y-96953085D01*
X140874390Y-96949000D01*
X141475610Y-96949000D01*
X141517091Y-96953085D01*
X141517091Y-96953085D01*
G37*
G36*
X152985443Y-95345519D02*
X153051627Y-95352037D01*
X153164853Y-95386384D01*
X153221467Y-95403557D01*
X153360087Y-95477652D01*
X153377991Y-95487222D01*
X153413729Y-95516552D01*
X153515186Y-95599814D01*
X153592098Y-95693533D01*
X153627778Y-95737009D01*
X153627779Y-95737011D01*
X153711443Y-95893533D01*
X153711443Y-95893534D01*
X153762963Y-96063373D01*
X153780359Y-96240000D01*
X153762963Y-96416627D01*
X153728616Y-96529853D01*
X153711443Y-96586467D01*
X153661349Y-96680185D01*
X153627778Y-96742991D01*
X153598448Y-96778729D01*
X153515186Y-96880186D01*
X153426357Y-96953085D01*
X153377991Y-96992778D01*
X153377989Y-96992779D01*
X153221467Y-97076443D01*
X153164853Y-97093616D01*
X153051627Y-97127963D01*
X152985442Y-97134482D01*
X152919260Y-97141000D01*
X152830740Y-97141000D01*
X152764558Y-97134482D01*
X152698373Y-97127963D01*
X152585147Y-97093616D01*
X152528533Y-97076443D01*
X152372011Y-96992779D01*
X152372009Y-96992778D01*
X152323643Y-96953085D01*
X152234814Y-96880186D01*
X152151552Y-96778729D01*
X152122222Y-96742991D01*
X152088651Y-96680185D01*
X152038557Y-96586467D01*
X152021384Y-96529853D01*
X151987037Y-96416627D01*
X151969641Y-96240000D01*
X151987037Y-96063373D01*
X152038557Y-95893534D01*
X152038557Y-95893533D01*
X152122221Y-95737011D01*
X152122222Y-95737009D01*
X152157902Y-95693533D01*
X152234814Y-95599814D01*
X152336271Y-95516552D01*
X152372009Y-95487222D01*
X152389913Y-95477652D01*
X152528533Y-95403557D01*
X152585147Y-95386384D01*
X152698373Y-95352037D01*
X152764557Y-95345519D01*
X152830740Y-95339000D01*
X152919260Y-95339000D01*
X152985443Y-95345519D01*
X152985443Y-95345519D01*
G37*
G36*
X135960443Y-95145519D02*
X136026627Y-95152037D01*
X136139853Y-95186384D01*
X136196467Y-95203557D01*
X136335087Y-95277652D01*
X136352991Y-95287222D01*
X136388729Y-95316552D01*
X136490186Y-95399814D01*
X136561918Y-95487221D01*
X136602778Y-95537009D01*
X136602779Y-95537011D01*
X136686443Y-95693533D01*
X136686443Y-95693534D01*
X136737963Y-95863373D01*
X136755359Y-96040000D01*
X136737963Y-96216627D01*
X136703616Y-96329853D01*
X136686443Y-96386467D01*
X136612348Y-96525087D01*
X136602778Y-96542991D01*
X136573448Y-96578729D01*
X136490186Y-96680186D01*
X136388729Y-96763448D01*
X136352991Y-96792778D01*
X136352989Y-96792779D01*
X136196467Y-96876443D01*
X136139853Y-96893616D01*
X136026627Y-96927963D01*
X135960442Y-96934482D01*
X135894260Y-96941000D01*
X135805740Y-96941000D01*
X135739558Y-96934482D01*
X135673373Y-96927963D01*
X135560147Y-96893616D01*
X135503533Y-96876443D01*
X135347011Y-96792779D01*
X135347009Y-96792778D01*
X135311271Y-96763448D01*
X135209814Y-96680186D01*
X135126552Y-96578729D01*
X135097222Y-96542991D01*
X135087652Y-96525087D01*
X135013557Y-96386467D01*
X134996384Y-96329853D01*
X134962037Y-96216627D01*
X134944641Y-96040000D01*
X134962037Y-95863373D01*
X135013557Y-95693534D01*
X135013557Y-95693533D01*
X135097221Y-95537011D01*
X135097222Y-95537009D01*
X135138082Y-95487221D01*
X135209814Y-95399814D01*
X135311271Y-95316552D01*
X135347009Y-95287222D01*
X135364913Y-95277652D01*
X135503533Y-95203557D01*
X135560147Y-95186384D01*
X135673373Y-95152037D01*
X135739557Y-95145519D01*
X135805740Y-95139000D01*
X135894260Y-95139000D01*
X135960443Y-95145519D01*
X135960443Y-95145519D01*
G37*
G36*
X153776000Y-94601000D02*
X151974000Y-94601000D01*
X151974000Y-92799000D01*
X153776000Y-92799000D01*
X153776000Y-94601000D01*
X153776000Y-94601000D01*
G37*
G36*
X136751000Y-94401000D02*
X134949000Y-94401000D01*
X134949000Y-92599000D01*
X136751000Y-92599000D01*
X136751000Y-94401000D01*
X136751000Y-94401000D01*
G37*
M02*
