G04 #@! TF.GenerationSoftware,KiCad,Pcbnew,5.0.2-bee76a0~70~ubuntu14.04.1*
G04 #@! TF.CreationDate,2018-12-14T16:37:15-07:00*
G04 #@! TF.ProjectId,ga4-evalboard,6761342d-6576-4616-9c62-6f6172642e6b,rev?*
G04 #@! TF.SameCoordinates,Original*
G04 #@! TF.FileFunction,Copper,L1,Top*
G04 #@! TF.FilePolarity,Positive*
%FSLAX46Y46*%
G04 Gerber Fmt 4.6, Leading zero omitted, Abs format (unit mm)*
G04 Created by KiCad (PCBNEW 5.0.2-bee76a0~70~ubuntu14.04.1) date Fri 14 Dec 2018 04:37:15 PM MST*
%MOMM*%
%LPD*%
G01*
G04 APERTURE LIST*
G04 #@! TA.AperFunction,SMDPad,CuDef*
%ADD10R,1.550000X0.600000*%
G04 #@! TD*
G04 #@! TA.AperFunction,SMDPad,CuDef*
%ADD11R,2.350000X2.350000*%
G04 #@! TD*
G04 #@! TA.AperFunction,Conductor*
%ADD12C,0.100000*%
G04 #@! TD*
G04 #@! TA.AperFunction,SMDPad,CuDef*
%ADD13C,0.875000*%
G04 #@! TD*
G04 #@! TA.AperFunction,ComponentPad*
%ADD14O,1.700000X1.700000*%
G04 #@! TD*
G04 #@! TA.AperFunction,ComponentPad*
%ADD15R,1.700000X1.700000*%
G04 #@! TD*
G04 #@! TA.AperFunction,SMDPad,CuDef*
%ADD16R,0.250000X0.700000*%
G04 #@! TD*
G04 #@! TA.AperFunction,SMDPad,CuDef*
%ADD17R,2.380000X1.660000*%
G04 #@! TD*
G04 #@! TA.AperFunction,ViaPad*
%ADD18C,0.800000*%
G04 #@! TD*
G04 #@! TA.AperFunction,Conductor*
%ADD19C,0.250000*%
G04 #@! TD*
G04 #@! TA.AperFunction,Conductor*
%ADD20C,0.160000*%
G04 #@! TD*
G04 APERTURE END LIST*
D10*
G04 #@! TO.P,U4,1*
G04 #@! TO.N,01.03*
X144175000Y-97695000D03*
G04 #@! TO.P,U4,2*
G04 #@! TO.N,01.17*
X144175000Y-98965000D03*
G04 #@! TO.P,U4,3*
G04 #@! TO.N,RESET*
X144175000Y-100235000D03*
G04 #@! TO.P,U4,4*
G04 #@! TO.N,GND*
X144175000Y-101505000D03*
G04 #@! TO.P,U4,5*
G04 #@! TO.N,01.05*
X149575000Y-101505000D03*
G04 #@! TO.P,U4,6*
G04 #@! TO.N,01.01*
X149575000Y-100235000D03*
G04 #@! TO.P,U4,7*
G04 #@! TO.N,RESET*
X149575000Y-98965000D03*
G04 #@! TO.P,U4,8*
X149575000Y-97695000D03*
D11*
G04 #@! TO.P,U4,9*
G04 #@! TO.N,N/C*
X146875000Y-99600000D03*
G04 #@! TD*
D12*
G04 #@! TO.N,GND*
G04 #@! TO.C,C1*
G36*
X141415191Y-97001053D02*
X141436426Y-97004203D01*
X141457250Y-97009419D01*
X141477462Y-97016651D01*
X141496868Y-97025830D01*
X141515281Y-97036866D01*
X141532524Y-97049654D01*
X141548430Y-97064070D01*
X141562846Y-97079976D01*
X141575634Y-97097219D01*
X141586670Y-97115632D01*
X141595849Y-97135038D01*
X141603081Y-97155250D01*
X141608297Y-97176074D01*
X141611447Y-97197309D01*
X141612500Y-97218750D01*
X141612500Y-97731250D01*
X141611447Y-97752691D01*
X141608297Y-97773926D01*
X141603081Y-97794750D01*
X141595849Y-97814962D01*
X141586670Y-97834368D01*
X141575634Y-97852781D01*
X141562846Y-97870024D01*
X141548430Y-97885930D01*
X141532524Y-97900346D01*
X141515281Y-97913134D01*
X141496868Y-97924170D01*
X141477462Y-97933349D01*
X141457250Y-97940581D01*
X141436426Y-97945797D01*
X141415191Y-97948947D01*
X141393750Y-97950000D01*
X140956250Y-97950000D01*
X140934809Y-97948947D01*
X140913574Y-97945797D01*
X140892750Y-97940581D01*
X140872538Y-97933349D01*
X140853132Y-97924170D01*
X140834719Y-97913134D01*
X140817476Y-97900346D01*
X140801570Y-97885930D01*
X140787154Y-97870024D01*
X140774366Y-97852781D01*
X140763330Y-97834368D01*
X140754151Y-97814962D01*
X140746919Y-97794750D01*
X140741703Y-97773926D01*
X140738553Y-97752691D01*
X140737500Y-97731250D01*
X140737500Y-97218750D01*
X140738553Y-97197309D01*
X140741703Y-97176074D01*
X140746919Y-97155250D01*
X140754151Y-97135038D01*
X140763330Y-97115632D01*
X140774366Y-97097219D01*
X140787154Y-97079976D01*
X140801570Y-97064070D01*
X140817476Y-97049654D01*
X140834719Y-97036866D01*
X140853132Y-97025830D01*
X140872538Y-97016651D01*
X140892750Y-97009419D01*
X140913574Y-97004203D01*
X140934809Y-97001053D01*
X140956250Y-97000000D01*
X141393750Y-97000000D01*
X141415191Y-97001053D01*
X141415191Y-97001053D01*
G37*
D13*
G04 #@! TD*
G04 #@! TO.P,C1,2*
G04 #@! TO.N,GND*
X141175000Y-97475000D03*
D12*
G04 #@! TO.N,RESET*
G04 #@! TO.C,C1*
G36*
X139840191Y-97001053D02*
X139861426Y-97004203D01*
X139882250Y-97009419D01*
X139902462Y-97016651D01*
X139921868Y-97025830D01*
X139940281Y-97036866D01*
X139957524Y-97049654D01*
X139973430Y-97064070D01*
X139987846Y-97079976D01*
X140000634Y-97097219D01*
X140011670Y-97115632D01*
X140020849Y-97135038D01*
X140028081Y-97155250D01*
X140033297Y-97176074D01*
X140036447Y-97197309D01*
X140037500Y-97218750D01*
X140037500Y-97731250D01*
X140036447Y-97752691D01*
X140033297Y-97773926D01*
X140028081Y-97794750D01*
X140020849Y-97814962D01*
X140011670Y-97834368D01*
X140000634Y-97852781D01*
X139987846Y-97870024D01*
X139973430Y-97885930D01*
X139957524Y-97900346D01*
X139940281Y-97913134D01*
X139921868Y-97924170D01*
X139902462Y-97933349D01*
X139882250Y-97940581D01*
X139861426Y-97945797D01*
X139840191Y-97948947D01*
X139818750Y-97950000D01*
X139381250Y-97950000D01*
X139359809Y-97948947D01*
X139338574Y-97945797D01*
X139317750Y-97940581D01*
X139297538Y-97933349D01*
X139278132Y-97924170D01*
X139259719Y-97913134D01*
X139242476Y-97900346D01*
X139226570Y-97885930D01*
X139212154Y-97870024D01*
X139199366Y-97852781D01*
X139188330Y-97834368D01*
X139179151Y-97814962D01*
X139171919Y-97794750D01*
X139166703Y-97773926D01*
X139163553Y-97752691D01*
X139162500Y-97731250D01*
X139162500Y-97218750D01*
X139163553Y-97197309D01*
X139166703Y-97176074D01*
X139171919Y-97155250D01*
X139179151Y-97135038D01*
X139188330Y-97115632D01*
X139199366Y-97097219D01*
X139212154Y-97079976D01*
X139226570Y-97064070D01*
X139242476Y-97049654D01*
X139259719Y-97036866D01*
X139278132Y-97025830D01*
X139297538Y-97016651D01*
X139317750Y-97009419D01*
X139338574Y-97004203D01*
X139359809Y-97001053D01*
X139381250Y-97000000D01*
X139818750Y-97000000D01*
X139840191Y-97001053D01*
X139840191Y-97001053D01*
G37*
D13*
G04 #@! TD*
G04 #@! TO.P,C1,1*
G04 #@! TO.N,RESET*
X139600000Y-97475000D03*
D12*
G04 #@! TO.N,GND*
G04 #@! TO.C,C8*
G36*
X139865191Y-102901053D02*
X139886426Y-102904203D01*
X139907250Y-102909419D01*
X139927462Y-102916651D01*
X139946868Y-102925830D01*
X139965281Y-102936866D01*
X139982524Y-102949654D01*
X139998430Y-102964070D01*
X140012846Y-102979976D01*
X140025634Y-102997219D01*
X140036670Y-103015632D01*
X140045849Y-103035038D01*
X140053081Y-103055250D01*
X140058297Y-103076074D01*
X140061447Y-103097309D01*
X140062500Y-103118750D01*
X140062500Y-103631250D01*
X140061447Y-103652691D01*
X140058297Y-103673926D01*
X140053081Y-103694750D01*
X140045849Y-103714962D01*
X140036670Y-103734368D01*
X140025634Y-103752781D01*
X140012846Y-103770024D01*
X139998430Y-103785930D01*
X139982524Y-103800346D01*
X139965281Y-103813134D01*
X139946868Y-103824170D01*
X139927462Y-103833349D01*
X139907250Y-103840581D01*
X139886426Y-103845797D01*
X139865191Y-103848947D01*
X139843750Y-103850000D01*
X139406250Y-103850000D01*
X139384809Y-103848947D01*
X139363574Y-103845797D01*
X139342750Y-103840581D01*
X139322538Y-103833349D01*
X139303132Y-103824170D01*
X139284719Y-103813134D01*
X139267476Y-103800346D01*
X139251570Y-103785930D01*
X139237154Y-103770024D01*
X139224366Y-103752781D01*
X139213330Y-103734368D01*
X139204151Y-103714962D01*
X139196919Y-103694750D01*
X139191703Y-103673926D01*
X139188553Y-103652691D01*
X139187500Y-103631250D01*
X139187500Y-103118750D01*
X139188553Y-103097309D01*
X139191703Y-103076074D01*
X139196919Y-103055250D01*
X139204151Y-103035038D01*
X139213330Y-103015632D01*
X139224366Y-102997219D01*
X139237154Y-102979976D01*
X139251570Y-102964070D01*
X139267476Y-102949654D01*
X139284719Y-102936866D01*
X139303132Y-102925830D01*
X139322538Y-102916651D01*
X139342750Y-102909419D01*
X139363574Y-102904203D01*
X139384809Y-102901053D01*
X139406250Y-102900000D01*
X139843750Y-102900000D01*
X139865191Y-102901053D01*
X139865191Y-102901053D01*
G37*
D13*
G04 #@! TD*
G04 #@! TO.P,C8,1*
G04 #@! TO.N,GND*
X139625000Y-103375000D03*
D12*
G04 #@! TO.N,RESET*
G04 #@! TO.C,C8*
G36*
X141440191Y-102901053D02*
X141461426Y-102904203D01*
X141482250Y-102909419D01*
X141502462Y-102916651D01*
X141521868Y-102925830D01*
X141540281Y-102936866D01*
X141557524Y-102949654D01*
X141573430Y-102964070D01*
X141587846Y-102979976D01*
X141600634Y-102997219D01*
X141611670Y-103015632D01*
X141620849Y-103035038D01*
X141628081Y-103055250D01*
X141633297Y-103076074D01*
X141636447Y-103097309D01*
X141637500Y-103118750D01*
X141637500Y-103631250D01*
X141636447Y-103652691D01*
X141633297Y-103673926D01*
X141628081Y-103694750D01*
X141620849Y-103714962D01*
X141611670Y-103734368D01*
X141600634Y-103752781D01*
X141587846Y-103770024D01*
X141573430Y-103785930D01*
X141557524Y-103800346D01*
X141540281Y-103813134D01*
X141521868Y-103824170D01*
X141502462Y-103833349D01*
X141482250Y-103840581D01*
X141461426Y-103845797D01*
X141440191Y-103848947D01*
X141418750Y-103850000D01*
X140981250Y-103850000D01*
X140959809Y-103848947D01*
X140938574Y-103845797D01*
X140917750Y-103840581D01*
X140897538Y-103833349D01*
X140878132Y-103824170D01*
X140859719Y-103813134D01*
X140842476Y-103800346D01*
X140826570Y-103785930D01*
X140812154Y-103770024D01*
X140799366Y-103752781D01*
X140788330Y-103734368D01*
X140779151Y-103714962D01*
X140771919Y-103694750D01*
X140766703Y-103673926D01*
X140763553Y-103652691D01*
X140762500Y-103631250D01*
X140762500Y-103118750D01*
X140763553Y-103097309D01*
X140766703Y-103076074D01*
X140771919Y-103055250D01*
X140779151Y-103035038D01*
X140788330Y-103015632D01*
X140799366Y-102997219D01*
X140812154Y-102979976D01*
X140826570Y-102964070D01*
X140842476Y-102949654D01*
X140859719Y-102936866D01*
X140878132Y-102925830D01*
X140897538Y-102916651D01*
X140917750Y-102909419D01*
X140938574Y-102904203D01*
X140959809Y-102901053D01*
X140981250Y-102900000D01*
X141418750Y-102900000D01*
X141440191Y-102901053D01*
X141440191Y-102901053D01*
G37*
D13*
G04 #@! TD*
G04 #@! TO.P,C8,2*
G04 #@! TO.N,RESET*
X141200000Y-103375000D03*
D14*
G04 #@! TO.P,J1,2*
G04 #@! TO.N,GND*
X135850000Y-96040000D03*
D15*
G04 #@! TO.P,J1,1*
G04 #@! TO.N,RESET*
X135850000Y-93500000D03*
G04 #@! TD*
G04 #@! TO.P,J2,1*
G04 #@! TO.N,11.ai*
X152875000Y-93700000D03*
D14*
G04 #@! TO.P,J2,2*
G04 #@! TO.N,11.aO*
X152875000Y-96240000D03*
G04 #@! TD*
D16*
G04 #@! TO.P,U1,1*
G04 #@! TO.N,10.17*
X134950000Y-102075000D03*
G04 #@! TO.P,U1,2*
G04 #@! TO.N,10.01*
X135400000Y-102075000D03*
G04 #@! TO.P,U1,3*
G04 #@! TO.N,RESET*
X135850000Y-102075000D03*
G04 #@! TO.P,U1,4*
G04 #@! TO.N,GND*
X136300000Y-102075000D03*
G04 #@! TO.P,U1,5*
G04 #@! TO.N,00.17*
X136750000Y-102075000D03*
G04 #@! TO.P,U1,6*
G04 #@! TO.N,00.01*
X137200000Y-102075000D03*
G04 #@! TO.P,U1,7*
G04 #@! TO.N,01.17*
X137200000Y-99275000D03*
G04 #@! TO.P,U1,8*
G04 #@! TO.N,01.01*
X136750000Y-99275000D03*
G04 #@! TO.P,U1,9*
G04 #@! TO.N,01.03*
X136300000Y-99275000D03*
G04 #@! TO.P,U1,10*
G04 #@! TO.N,01.05*
X135850000Y-99275000D03*
G04 #@! TO.P,U1,11*
G04 #@! TO.N,11.aO*
X135400000Y-99275000D03*
G04 #@! TO.P,U1,12*
G04 #@! TO.N,11.ai*
X134950000Y-99275000D03*
D17*
G04 #@! TO.P,U1,13*
G04 #@! TO.N,N/C*
X136075000Y-100675000D03*
G04 #@! TD*
D15*
G04 #@! TO.P,J3,1*
G04 #@! TO.N,01.05*
X152750000Y-103200000D03*
D14*
G04 #@! TO.P,J3,2*
G04 #@! TO.N,01.03*
X152750000Y-105740000D03*
G04 #@! TO.P,J3,3*
G04 #@! TO.N,01.01*
X152750000Y-108280000D03*
G04 #@! TO.P,J3,4*
G04 #@! TO.N,01.17*
X152750000Y-110820000D03*
G04 #@! TD*
G04 #@! TO.P,J4,4*
G04 #@! TO.N,10.17*
X135355000Y-111050000D03*
G04 #@! TO.P,J4,3*
G04 #@! TO.N,10.01*
X137895000Y-111050000D03*
G04 #@! TO.P,J4,2*
G04 #@! TO.N,00.17*
X140435000Y-111050000D03*
D15*
G04 #@! TO.P,J4,1*
G04 #@! TO.N,00.01*
X142975000Y-111050000D03*
G04 #@! TD*
D18*
G04 #@! TO.N,GND*
X139625000Y-103350000D03*
X141175000Y-97475000D03*
G04 #@! TO.N,RESET*
X139550000Y-97475000D03*
X136125000Y-105800000D03*
X149575000Y-97695000D03*
G04 #@! TO.N,01.03*
X144175000Y-97695000D03*
G04 #@! TO.N,01.01*
X137574840Y-98275160D03*
X149575000Y-100235000D03*
G04 #@! TD*
D19*
G04 #@! TO.N,RESET*
X149575000Y-97695000D02*
X149575000Y-97695000D01*
X135850000Y-105525000D02*
X136125000Y-105800000D01*
X135850000Y-102075000D02*
X135850000Y-105525000D01*
X149575000Y-97695000D02*
X149575000Y-98965000D01*
X148474999Y-99590001D02*
X149100000Y-98965000D01*
X148474999Y-100935003D02*
X148474999Y-99590001D01*
X149100000Y-98965000D02*
X149575000Y-98965000D01*
X148160002Y-101250000D02*
X148474999Y-100935003D01*
X141200000Y-103375000D02*
X146035002Y-103375000D01*
X147910002Y-101500000D02*
X148160002Y-101250000D01*
X146350002Y-101935002D02*
X147475000Y-101935002D01*
X144650000Y-100235000D02*
X146350002Y-101935002D01*
X144175000Y-100235000D02*
X144650000Y-100235000D01*
X147475000Y-101935002D02*
X148160002Y-101250000D01*
X146035002Y-103375000D02*
X147475000Y-101935002D01*
G04 #@! TO.N,11.ai*
X134950000Y-98675000D02*
X134950000Y-99275000D01*
X134050000Y-97775000D02*
X134950000Y-98675000D01*
X134050000Y-92825000D02*
X134050000Y-97775000D01*
X134725000Y-92150000D02*
X134050000Y-92825000D01*
X151275000Y-92150000D02*
X134725000Y-92150000D01*
X152775000Y-93650000D02*
X151275000Y-92150000D01*
G04 #@! TO.N,11.aO*
X135400000Y-98675000D02*
X135400000Y-99275000D01*
X135400000Y-98675000D02*
X135400000Y-97675000D01*
X135050000Y-97325000D02*
X134925000Y-97200000D01*
X135400000Y-97675000D02*
X135050000Y-97325000D01*
X134550000Y-96825000D02*
X135050000Y-97325000D01*
X151334978Y-94749978D02*
X135050022Y-94749978D01*
X134550000Y-95250000D02*
X134550000Y-96825000D01*
X135050022Y-94749978D02*
X134550000Y-95250000D01*
X152775000Y-96190000D02*
X151334978Y-94749978D01*
G04 #@! TO.N,01.05*
X152325000Y-103200000D02*
X152750000Y-103200000D01*
X150630000Y-101505000D02*
X152325000Y-103200000D01*
X149575000Y-101505000D02*
X150630000Y-101505000D01*
X152750000Y-98648000D02*
X152750000Y-103200000D01*
X149301989Y-95199989D02*
X152750000Y-98648000D01*
X138763600Y-95199989D02*
X149301989Y-95199989D01*
X135850000Y-98113589D02*
X138763600Y-95199989D01*
X135850000Y-99275000D02*
X135850000Y-98113589D01*
G04 #@! TO.N,01.03*
X136300000Y-98300000D02*
X136300000Y-99275000D01*
X137870057Y-97370057D02*
X137229943Y-97370057D01*
X137229943Y-97370057D02*
X136300000Y-98300000D01*
X139125000Y-98625000D02*
X137870057Y-97370057D01*
X142220000Y-98625000D02*
X139125000Y-98625000D01*
X143150000Y-97695000D02*
X142220000Y-98625000D01*
X144175000Y-97695000D02*
X143150000Y-97695000D01*
G04 #@! TO.N,01.01*
X136750000Y-98675000D02*
X137149840Y-98275160D01*
X136750000Y-99275000D02*
X136750000Y-98675000D01*
X137149840Y-98275160D02*
X137574840Y-98275160D01*
G04 #@! TO.N,01.17*
X151747919Y-110720000D02*
X152950000Y-110720000D01*
X143865000Y-99275000D02*
X144175000Y-98965000D01*
X138375000Y-99275000D02*
X143865000Y-99275000D01*
X150975000Y-110720000D02*
X151747919Y-110720000D01*
X150454998Y-110720000D02*
X150975000Y-110720000D01*
X138375000Y-99275000D02*
X138425000Y-99275000D01*
X137200000Y-99275000D02*
X137725000Y-99275000D01*
X137725000Y-99275000D02*
X138375000Y-99275000D01*
X145270000Y-110720000D02*
X150975000Y-110720000D01*
X138325000Y-103775000D02*
X145270000Y-110720000D01*
X138325000Y-99875000D02*
X138325000Y-103775000D01*
X137725000Y-99275000D02*
X138325000Y-99875000D01*
G04 #@! TO.N,10.17*
X134950000Y-102675000D02*
X134950000Y-102075000D01*
X134950000Y-109725000D02*
X134950000Y-102675000D01*
X135585000Y-110360000D02*
X134950000Y-109725000D01*
X135585000Y-110950000D02*
X135585000Y-110360000D01*
G04 #@! TO.N,10.01*
X135400000Y-102675000D02*
X135400000Y-102075000D01*
X138125000Y-110950000D02*
X135400000Y-108225000D01*
X135400000Y-108225000D02*
X135400000Y-102675000D01*
G04 #@! TO.N,00.17*
X136750000Y-104362291D02*
X136750000Y-102075000D01*
X140665000Y-108277291D02*
X136750000Y-104362291D01*
X140665000Y-110950000D02*
X140665000Y-108277291D01*
G04 #@! TO.N,00.01*
X137200000Y-103845000D02*
X137200000Y-102075000D01*
X143205000Y-109850000D02*
X137200000Y-103845000D01*
X143205000Y-110950000D02*
X143205000Y-109850000D01*
G04 #@! TD*
D20*
G04 #@! TO.N,GND*
G36*
X154660001Y-112585787D02*
X133740000Y-112634213D01*
X133740000Y-98040030D01*
X133758013Y-98066988D01*
X133791826Y-98089581D01*
X134545000Y-98842757D01*
X134545000Y-98897423D01*
X134539515Y-98925000D01*
X134539515Y-99625000D01*
X134561246Y-99734250D01*
X134607712Y-99803791D01*
X134599515Y-99845000D01*
X134599515Y-101505000D01*
X134607712Y-101546209D01*
X134561246Y-101615750D01*
X134539515Y-101725000D01*
X134539515Y-102425000D01*
X134545000Y-102452577D01*
X134545000Y-102714886D01*
X134545001Y-102714891D01*
X134545000Y-109685117D01*
X134537067Y-109725000D01*
X134545000Y-109764883D01*
X134545000Y-109764886D01*
X134568499Y-109883022D01*
X134658012Y-110016988D01*
X134691828Y-110039584D01*
X134748473Y-110096228D01*
X134540315Y-110235315D01*
X134290563Y-110609096D01*
X134202862Y-111050000D01*
X134290563Y-111490904D01*
X134540315Y-111864685D01*
X134914096Y-112114437D01*
X135243704Y-112180000D01*
X135466296Y-112180000D01*
X135795904Y-112114437D01*
X136169685Y-111864685D01*
X136419437Y-111490904D01*
X136507138Y-111050000D01*
X136419437Y-110609096D01*
X136169685Y-110235315D01*
X135795904Y-109985563D01*
X135780194Y-109982438D01*
X135355000Y-109557245D01*
X135355000Y-108752755D01*
X136983081Y-110380837D01*
X136830563Y-110609096D01*
X136742862Y-111050000D01*
X136830563Y-111490904D01*
X137080315Y-111864685D01*
X137454096Y-112114437D01*
X137783704Y-112180000D01*
X138006296Y-112180000D01*
X138335904Y-112114437D01*
X138709685Y-111864685D01*
X138959437Y-111490904D01*
X139047138Y-111050000D01*
X138959437Y-110609096D01*
X138709685Y-110235315D01*
X138335904Y-109985563D01*
X138006296Y-109920000D01*
X137783704Y-109920000D01*
X137686993Y-109939237D01*
X135805000Y-108057245D01*
X135805000Y-106403478D01*
X135989740Y-106480000D01*
X136260260Y-106480000D01*
X136510189Y-106376476D01*
X136701476Y-106185189D01*
X136805000Y-105935260D01*
X136805000Y-105664740D01*
X136701476Y-105414811D01*
X136510189Y-105223524D01*
X136260260Y-105120000D01*
X136255000Y-105120000D01*
X136255000Y-102452575D01*
X136260485Y-102425000D01*
X136260485Y-101881000D01*
X136339515Y-101881000D01*
X136339515Y-102425000D01*
X136345001Y-102452579D01*
X136345000Y-104322408D01*
X136337067Y-104362291D01*
X136345000Y-104402174D01*
X136345000Y-104402177D01*
X136368499Y-104520313D01*
X136458012Y-104654279D01*
X136491829Y-104676875D01*
X140260001Y-108445048D01*
X140260000Y-109932671D01*
X139994096Y-109985563D01*
X139620315Y-110235315D01*
X139370563Y-110609096D01*
X139282862Y-111050000D01*
X139370563Y-111490904D01*
X139620315Y-111864685D01*
X139994096Y-112114437D01*
X140323704Y-112180000D01*
X140546296Y-112180000D01*
X140875904Y-112114437D01*
X141249685Y-111864685D01*
X141499437Y-111490904D01*
X141587138Y-111050000D01*
X141499437Y-110609096D01*
X141249685Y-110235315D01*
X141070000Y-110115254D01*
X141070000Y-108317173D01*
X141074880Y-108292637D01*
X142696758Y-109914515D01*
X142125000Y-109914515D01*
X142015750Y-109936246D01*
X141923132Y-109998132D01*
X141861246Y-110090750D01*
X141839515Y-110200000D01*
X141839515Y-111900000D01*
X141861246Y-112009250D01*
X141923132Y-112101868D01*
X142015750Y-112163754D01*
X142125000Y-112185485D01*
X143825000Y-112185485D01*
X143934250Y-112163754D01*
X144026868Y-112101868D01*
X144088754Y-112009250D01*
X144110485Y-111900000D01*
X144110485Y-110200000D01*
X144093909Y-110116666D01*
X144955420Y-110978177D01*
X144978012Y-111011988D01*
X145011823Y-111034580D01*
X145011825Y-111034582D01*
X145055151Y-111063531D01*
X145111977Y-111101501D01*
X145230113Y-111125000D01*
X145230118Y-111125000D01*
X145269999Y-111132933D01*
X145309881Y-111125000D01*
X151658530Y-111125000D01*
X151685563Y-111260904D01*
X151935315Y-111634685D01*
X152309096Y-111884437D01*
X152638704Y-111950000D01*
X152861296Y-111950000D01*
X153190904Y-111884437D01*
X153564685Y-111634685D01*
X153814437Y-111260904D01*
X153902138Y-110820000D01*
X153814437Y-110379096D01*
X153564685Y-110005315D01*
X153190904Y-109755563D01*
X152861296Y-109690000D01*
X152638704Y-109690000D01*
X152309096Y-109755563D01*
X151935315Y-110005315D01*
X151728390Y-110315000D01*
X145437757Y-110315000D01*
X143402757Y-108280000D01*
X151597862Y-108280000D01*
X151685563Y-108720904D01*
X151935315Y-109094685D01*
X152309096Y-109344437D01*
X152638704Y-109410000D01*
X152861296Y-109410000D01*
X153190904Y-109344437D01*
X153564685Y-109094685D01*
X153814437Y-108720904D01*
X153902138Y-108280000D01*
X153814437Y-107839096D01*
X153564685Y-107465315D01*
X153190904Y-107215563D01*
X152861296Y-107150000D01*
X152638704Y-107150000D01*
X152309096Y-107215563D01*
X151935315Y-107465315D01*
X151685563Y-107839096D01*
X151597862Y-108280000D01*
X143402757Y-108280000D01*
X140862756Y-105740000D01*
X151597862Y-105740000D01*
X151685563Y-106180904D01*
X151935315Y-106554685D01*
X152309096Y-106804437D01*
X152638704Y-106870000D01*
X152861296Y-106870000D01*
X153190904Y-106804437D01*
X153564685Y-106554685D01*
X153814437Y-106180904D01*
X153902138Y-105740000D01*
X153814437Y-105299096D01*
X153564685Y-104925315D01*
X153190904Y-104675563D01*
X152861296Y-104610000D01*
X152638704Y-104610000D01*
X152309096Y-104675563D01*
X151935315Y-104925315D01*
X151685563Y-105299096D01*
X151597862Y-105740000D01*
X140862756Y-105740000D01*
X139252755Y-104130000D01*
X139381000Y-104130000D01*
X139451000Y-104060000D01*
X139451000Y-103549000D01*
X139799000Y-103549000D01*
X139799000Y-104060000D01*
X139869000Y-104130000D01*
X140118196Y-104130000D01*
X140221108Y-104087372D01*
X140299873Y-104008607D01*
X140342500Y-103905695D01*
X140342500Y-103619000D01*
X140272500Y-103549000D01*
X139799000Y-103549000D01*
X139451000Y-103549000D01*
X138977500Y-103549000D01*
X138907500Y-103619000D01*
X138907500Y-103784745D01*
X138730000Y-103607245D01*
X138730000Y-102844305D01*
X138907500Y-102844305D01*
X138907500Y-103131000D01*
X138977500Y-103201000D01*
X139451000Y-103201000D01*
X139451000Y-102690000D01*
X139799000Y-102690000D01*
X139799000Y-103201000D01*
X140272500Y-103201000D01*
X140342500Y-103131000D01*
X140342500Y-102844305D01*
X140299873Y-102741393D01*
X140221108Y-102662628D01*
X140118196Y-102620000D01*
X139869000Y-102620000D01*
X139799000Y-102690000D01*
X139451000Y-102690000D01*
X139381000Y-102620000D01*
X139131804Y-102620000D01*
X139028892Y-102662628D01*
X138950127Y-102741393D01*
X138907500Y-102844305D01*
X138730000Y-102844305D01*
X138730000Y-101725000D01*
X143120000Y-101725000D01*
X143120000Y-101860695D01*
X143162627Y-101963607D01*
X143241392Y-102042372D01*
X143344304Y-102085000D01*
X143931000Y-102085000D01*
X144001000Y-102015000D01*
X144001000Y-101655000D01*
X144349000Y-101655000D01*
X144349000Y-102015000D01*
X144419000Y-102085000D01*
X145005696Y-102085000D01*
X145108608Y-102042372D01*
X145187373Y-101963607D01*
X145230000Y-101860695D01*
X145230000Y-101725000D01*
X145160000Y-101655000D01*
X144349000Y-101655000D01*
X144001000Y-101655000D01*
X143190000Y-101655000D01*
X143120000Y-101725000D01*
X138730000Y-101725000D01*
X138730000Y-101149305D01*
X143120000Y-101149305D01*
X143120000Y-101285000D01*
X143190000Y-101355000D01*
X144001000Y-101355000D01*
X144001000Y-100995000D01*
X143931000Y-100925000D01*
X143344304Y-100925000D01*
X143241392Y-100967628D01*
X143162627Y-101046393D01*
X143120000Y-101149305D01*
X138730000Y-101149305D01*
X138730000Y-99914881D01*
X138737933Y-99874999D01*
X138730000Y-99835118D01*
X138730000Y-99835113D01*
X138706501Y-99716977D01*
X138681794Y-99680000D01*
X143277649Y-99680000D01*
X143198132Y-99733132D01*
X143136246Y-99825750D01*
X143114515Y-99935000D01*
X143114515Y-100535000D01*
X143136246Y-100644250D01*
X143198132Y-100736868D01*
X143290750Y-100798754D01*
X143400000Y-100820485D01*
X144662730Y-100820485D01*
X144767245Y-100925000D01*
X144419000Y-100925000D01*
X144349000Y-100995000D01*
X144349000Y-101355000D01*
X145160000Y-101355000D01*
X145178622Y-101336378D01*
X146035420Y-102193176D01*
X146058014Y-102226990D01*
X146191979Y-102316503D01*
X146310115Y-102340002D01*
X146310119Y-102340002D01*
X146350002Y-102347935D01*
X146389885Y-102340002D01*
X146497244Y-102340002D01*
X145867247Y-102970000D01*
X141893396Y-102970000D01*
X141884602Y-102925788D01*
X141775298Y-102762202D01*
X141611712Y-102652898D01*
X141418750Y-102614515D01*
X140981250Y-102614515D01*
X140788288Y-102652898D01*
X140624702Y-102762202D01*
X140515398Y-102925788D01*
X140477015Y-103118750D01*
X140477015Y-103631250D01*
X140515398Y-103824212D01*
X140624702Y-103987798D01*
X140788288Y-104097102D01*
X140981250Y-104135485D01*
X141418750Y-104135485D01*
X141611712Y-104097102D01*
X141775298Y-103987798D01*
X141884602Y-103824212D01*
X141893396Y-103780000D01*
X145995119Y-103780000D01*
X146035002Y-103787933D01*
X146074885Y-103780000D01*
X146074889Y-103780000D01*
X146193025Y-103756501D01*
X146326990Y-103666988D01*
X146349586Y-103633171D01*
X147733174Y-102249584D01*
X147766988Y-102226990D01*
X147789584Y-102193173D01*
X148474584Y-101508174D01*
X148474586Y-101508171D01*
X148514515Y-101468242D01*
X148514515Y-101805000D01*
X148536246Y-101914250D01*
X148598132Y-102006868D01*
X148690750Y-102068754D01*
X148800000Y-102090485D01*
X150350000Y-102090485D01*
X150459250Y-102068754D01*
X150551868Y-102006868D01*
X150554770Y-102002525D01*
X151614515Y-103062271D01*
X151614515Y-104050000D01*
X151636246Y-104159250D01*
X151698132Y-104251868D01*
X151790750Y-104313754D01*
X151900000Y-104335485D01*
X153600000Y-104335485D01*
X153709250Y-104313754D01*
X153801868Y-104251868D01*
X153863754Y-104159250D01*
X153885485Y-104050000D01*
X153885485Y-102350000D01*
X153863754Y-102240750D01*
X153801868Y-102148132D01*
X153709250Y-102086246D01*
X153600000Y-102064515D01*
X153155000Y-102064515D01*
X153155000Y-98687883D01*
X153162933Y-98648000D01*
X153155000Y-98608117D01*
X153155000Y-98608113D01*
X153131501Y-98489977D01*
X153064582Y-98389826D01*
X153041988Y-98356012D01*
X153008175Y-98333419D01*
X149829733Y-95154978D01*
X151167223Y-95154978D01*
X151810874Y-95798630D01*
X151810563Y-95799096D01*
X151722862Y-96240000D01*
X151810563Y-96680904D01*
X152060315Y-97054685D01*
X152434096Y-97304437D01*
X152763704Y-97370000D01*
X152986296Y-97370000D01*
X153315904Y-97304437D01*
X153689685Y-97054685D01*
X153939437Y-96680904D01*
X154027138Y-96240000D01*
X153939437Y-95799096D01*
X153689685Y-95425315D01*
X153315904Y-95175563D01*
X152986296Y-95110000D01*
X152763704Y-95110000D01*
X152434096Y-95175563D01*
X152373684Y-95215929D01*
X151985354Y-94827599D01*
X152025000Y-94835485D01*
X153725000Y-94835485D01*
X153834250Y-94813754D01*
X153926868Y-94751868D01*
X153988754Y-94659250D01*
X154010485Y-94550000D01*
X154010485Y-92850000D01*
X153988754Y-92740750D01*
X153926868Y-92648132D01*
X153834250Y-92586246D01*
X153725000Y-92564515D01*
X152262271Y-92564515D01*
X151589584Y-91891829D01*
X151566988Y-91858012D01*
X151465201Y-91790000D01*
X154660000Y-91790000D01*
X154660001Y-112585787D01*
X154660001Y-112585787D01*
G37*
X154660001Y-112585787D02*
X133740000Y-112634213D01*
X133740000Y-98040030D01*
X133758013Y-98066988D01*
X133791826Y-98089581D01*
X134545000Y-98842757D01*
X134545000Y-98897423D01*
X134539515Y-98925000D01*
X134539515Y-99625000D01*
X134561246Y-99734250D01*
X134607712Y-99803791D01*
X134599515Y-99845000D01*
X134599515Y-101505000D01*
X134607712Y-101546209D01*
X134561246Y-101615750D01*
X134539515Y-101725000D01*
X134539515Y-102425000D01*
X134545000Y-102452577D01*
X134545000Y-102714886D01*
X134545001Y-102714891D01*
X134545000Y-109685117D01*
X134537067Y-109725000D01*
X134545000Y-109764883D01*
X134545000Y-109764886D01*
X134568499Y-109883022D01*
X134658012Y-110016988D01*
X134691828Y-110039584D01*
X134748473Y-110096228D01*
X134540315Y-110235315D01*
X134290563Y-110609096D01*
X134202862Y-111050000D01*
X134290563Y-111490904D01*
X134540315Y-111864685D01*
X134914096Y-112114437D01*
X135243704Y-112180000D01*
X135466296Y-112180000D01*
X135795904Y-112114437D01*
X136169685Y-111864685D01*
X136419437Y-111490904D01*
X136507138Y-111050000D01*
X136419437Y-110609096D01*
X136169685Y-110235315D01*
X135795904Y-109985563D01*
X135780194Y-109982438D01*
X135355000Y-109557245D01*
X135355000Y-108752755D01*
X136983081Y-110380837D01*
X136830563Y-110609096D01*
X136742862Y-111050000D01*
X136830563Y-111490904D01*
X137080315Y-111864685D01*
X137454096Y-112114437D01*
X137783704Y-112180000D01*
X138006296Y-112180000D01*
X138335904Y-112114437D01*
X138709685Y-111864685D01*
X138959437Y-111490904D01*
X139047138Y-111050000D01*
X138959437Y-110609096D01*
X138709685Y-110235315D01*
X138335904Y-109985563D01*
X138006296Y-109920000D01*
X137783704Y-109920000D01*
X137686993Y-109939237D01*
X135805000Y-108057245D01*
X135805000Y-106403478D01*
X135989740Y-106480000D01*
X136260260Y-106480000D01*
X136510189Y-106376476D01*
X136701476Y-106185189D01*
X136805000Y-105935260D01*
X136805000Y-105664740D01*
X136701476Y-105414811D01*
X136510189Y-105223524D01*
X136260260Y-105120000D01*
X136255000Y-105120000D01*
X136255000Y-102452575D01*
X136260485Y-102425000D01*
X136260485Y-101881000D01*
X136339515Y-101881000D01*
X136339515Y-102425000D01*
X136345001Y-102452579D01*
X136345000Y-104322408D01*
X136337067Y-104362291D01*
X136345000Y-104402174D01*
X136345000Y-104402177D01*
X136368499Y-104520313D01*
X136458012Y-104654279D01*
X136491829Y-104676875D01*
X140260001Y-108445048D01*
X140260000Y-109932671D01*
X139994096Y-109985563D01*
X139620315Y-110235315D01*
X139370563Y-110609096D01*
X139282862Y-111050000D01*
X139370563Y-111490904D01*
X139620315Y-111864685D01*
X139994096Y-112114437D01*
X140323704Y-112180000D01*
X140546296Y-112180000D01*
X140875904Y-112114437D01*
X141249685Y-111864685D01*
X141499437Y-111490904D01*
X141587138Y-111050000D01*
X141499437Y-110609096D01*
X141249685Y-110235315D01*
X141070000Y-110115254D01*
X141070000Y-108317173D01*
X141074880Y-108292637D01*
X142696758Y-109914515D01*
X142125000Y-109914515D01*
X142015750Y-109936246D01*
X141923132Y-109998132D01*
X141861246Y-110090750D01*
X141839515Y-110200000D01*
X141839515Y-111900000D01*
X141861246Y-112009250D01*
X141923132Y-112101868D01*
X142015750Y-112163754D01*
X142125000Y-112185485D01*
X143825000Y-112185485D01*
X143934250Y-112163754D01*
X144026868Y-112101868D01*
X144088754Y-112009250D01*
X144110485Y-111900000D01*
X144110485Y-110200000D01*
X144093909Y-110116666D01*
X144955420Y-110978177D01*
X144978012Y-111011988D01*
X145011823Y-111034580D01*
X145011825Y-111034582D01*
X145055151Y-111063531D01*
X145111977Y-111101501D01*
X145230113Y-111125000D01*
X145230118Y-111125000D01*
X145269999Y-111132933D01*
X145309881Y-111125000D01*
X151658530Y-111125000D01*
X151685563Y-111260904D01*
X151935315Y-111634685D01*
X152309096Y-111884437D01*
X152638704Y-111950000D01*
X152861296Y-111950000D01*
X153190904Y-111884437D01*
X153564685Y-111634685D01*
X153814437Y-111260904D01*
X153902138Y-110820000D01*
X153814437Y-110379096D01*
X153564685Y-110005315D01*
X153190904Y-109755563D01*
X152861296Y-109690000D01*
X152638704Y-109690000D01*
X152309096Y-109755563D01*
X151935315Y-110005315D01*
X151728390Y-110315000D01*
X145437757Y-110315000D01*
X143402757Y-108280000D01*
X151597862Y-108280000D01*
X151685563Y-108720904D01*
X151935315Y-109094685D01*
X152309096Y-109344437D01*
X152638704Y-109410000D01*
X152861296Y-109410000D01*
X153190904Y-109344437D01*
X153564685Y-109094685D01*
X153814437Y-108720904D01*
X153902138Y-108280000D01*
X153814437Y-107839096D01*
X153564685Y-107465315D01*
X153190904Y-107215563D01*
X152861296Y-107150000D01*
X152638704Y-107150000D01*
X152309096Y-107215563D01*
X151935315Y-107465315D01*
X151685563Y-107839096D01*
X151597862Y-108280000D01*
X143402757Y-108280000D01*
X140862756Y-105740000D01*
X151597862Y-105740000D01*
X151685563Y-106180904D01*
X151935315Y-106554685D01*
X152309096Y-106804437D01*
X152638704Y-106870000D01*
X152861296Y-106870000D01*
X153190904Y-106804437D01*
X153564685Y-106554685D01*
X153814437Y-106180904D01*
X153902138Y-105740000D01*
X153814437Y-105299096D01*
X153564685Y-104925315D01*
X153190904Y-104675563D01*
X152861296Y-104610000D01*
X152638704Y-104610000D01*
X152309096Y-104675563D01*
X151935315Y-104925315D01*
X151685563Y-105299096D01*
X151597862Y-105740000D01*
X140862756Y-105740000D01*
X139252755Y-104130000D01*
X139381000Y-104130000D01*
X139451000Y-104060000D01*
X139451000Y-103549000D01*
X139799000Y-103549000D01*
X139799000Y-104060000D01*
X139869000Y-104130000D01*
X140118196Y-104130000D01*
X140221108Y-104087372D01*
X140299873Y-104008607D01*
X140342500Y-103905695D01*
X140342500Y-103619000D01*
X140272500Y-103549000D01*
X139799000Y-103549000D01*
X139451000Y-103549000D01*
X138977500Y-103549000D01*
X138907500Y-103619000D01*
X138907500Y-103784745D01*
X138730000Y-103607245D01*
X138730000Y-102844305D01*
X138907500Y-102844305D01*
X138907500Y-103131000D01*
X138977500Y-103201000D01*
X139451000Y-103201000D01*
X139451000Y-102690000D01*
X139799000Y-102690000D01*
X139799000Y-103201000D01*
X140272500Y-103201000D01*
X140342500Y-103131000D01*
X140342500Y-102844305D01*
X140299873Y-102741393D01*
X140221108Y-102662628D01*
X140118196Y-102620000D01*
X139869000Y-102620000D01*
X139799000Y-102690000D01*
X139451000Y-102690000D01*
X139381000Y-102620000D01*
X139131804Y-102620000D01*
X139028892Y-102662628D01*
X138950127Y-102741393D01*
X138907500Y-102844305D01*
X138730000Y-102844305D01*
X138730000Y-101725000D01*
X143120000Y-101725000D01*
X143120000Y-101860695D01*
X143162627Y-101963607D01*
X143241392Y-102042372D01*
X143344304Y-102085000D01*
X143931000Y-102085000D01*
X144001000Y-102015000D01*
X144001000Y-101655000D01*
X144349000Y-101655000D01*
X144349000Y-102015000D01*
X144419000Y-102085000D01*
X145005696Y-102085000D01*
X145108608Y-102042372D01*
X145187373Y-101963607D01*
X145230000Y-101860695D01*
X145230000Y-101725000D01*
X145160000Y-101655000D01*
X144349000Y-101655000D01*
X144001000Y-101655000D01*
X143190000Y-101655000D01*
X143120000Y-101725000D01*
X138730000Y-101725000D01*
X138730000Y-101149305D01*
X143120000Y-101149305D01*
X143120000Y-101285000D01*
X143190000Y-101355000D01*
X144001000Y-101355000D01*
X144001000Y-100995000D01*
X143931000Y-100925000D01*
X143344304Y-100925000D01*
X143241392Y-100967628D01*
X143162627Y-101046393D01*
X143120000Y-101149305D01*
X138730000Y-101149305D01*
X138730000Y-99914881D01*
X138737933Y-99874999D01*
X138730000Y-99835118D01*
X138730000Y-99835113D01*
X138706501Y-99716977D01*
X138681794Y-99680000D01*
X143277649Y-99680000D01*
X143198132Y-99733132D01*
X143136246Y-99825750D01*
X143114515Y-99935000D01*
X143114515Y-100535000D01*
X143136246Y-100644250D01*
X143198132Y-100736868D01*
X143290750Y-100798754D01*
X143400000Y-100820485D01*
X144662730Y-100820485D01*
X144767245Y-100925000D01*
X144419000Y-100925000D01*
X144349000Y-100995000D01*
X144349000Y-101355000D01*
X145160000Y-101355000D01*
X145178622Y-101336378D01*
X146035420Y-102193176D01*
X146058014Y-102226990D01*
X146191979Y-102316503D01*
X146310115Y-102340002D01*
X146310119Y-102340002D01*
X146350002Y-102347935D01*
X146389885Y-102340002D01*
X146497244Y-102340002D01*
X145867247Y-102970000D01*
X141893396Y-102970000D01*
X141884602Y-102925788D01*
X141775298Y-102762202D01*
X141611712Y-102652898D01*
X141418750Y-102614515D01*
X140981250Y-102614515D01*
X140788288Y-102652898D01*
X140624702Y-102762202D01*
X140515398Y-102925788D01*
X140477015Y-103118750D01*
X140477015Y-103631250D01*
X140515398Y-103824212D01*
X140624702Y-103987798D01*
X140788288Y-104097102D01*
X140981250Y-104135485D01*
X141418750Y-104135485D01*
X141611712Y-104097102D01*
X141775298Y-103987798D01*
X141884602Y-103824212D01*
X141893396Y-103780000D01*
X145995119Y-103780000D01*
X146035002Y-103787933D01*
X146074885Y-103780000D01*
X146074889Y-103780000D01*
X146193025Y-103756501D01*
X146326990Y-103666988D01*
X146349586Y-103633171D01*
X147733174Y-102249584D01*
X147766988Y-102226990D01*
X147789584Y-102193173D01*
X148474584Y-101508174D01*
X148474586Y-101508171D01*
X148514515Y-101468242D01*
X148514515Y-101805000D01*
X148536246Y-101914250D01*
X148598132Y-102006868D01*
X148690750Y-102068754D01*
X148800000Y-102090485D01*
X150350000Y-102090485D01*
X150459250Y-102068754D01*
X150551868Y-102006868D01*
X150554770Y-102002525D01*
X151614515Y-103062271D01*
X151614515Y-104050000D01*
X151636246Y-104159250D01*
X151698132Y-104251868D01*
X151790750Y-104313754D01*
X151900000Y-104335485D01*
X153600000Y-104335485D01*
X153709250Y-104313754D01*
X153801868Y-104251868D01*
X153863754Y-104159250D01*
X153885485Y-104050000D01*
X153885485Y-102350000D01*
X153863754Y-102240750D01*
X153801868Y-102148132D01*
X153709250Y-102086246D01*
X153600000Y-102064515D01*
X153155000Y-102064515D01*
X153155000Y-98687883D01*
X153162933Y-98648000D01*
X153155000Y-98608117D01*
X153155000Y-98608113D01*
X153131501Y-98489977D01*
X153064582Y-98389826D01*
X153041988Y-98356012D01*
X153008175Y-98333419D01*
X149829733Y-95154978D01*
X151167223Y-95154978D01*
X151810874Y-95798630D01*
X151810563Y-95799096D01*
X151722862Y-96240000D01*
X151810563Y-96680904D01*
X152060315Y-97054685D01*
X152434096Y-97304437D01*
X152763704Y-97370000D01*
X152986296Y-97370000D01*
X153315904Y-97304437D01*
X153689685Y-97054685D01*
X153939437Y-96680904D01*
X154027138Y-96240000D01*
X153939437Y-95799096D01*
X153689685Y-95425315D01*
X153315904Y-95175563D01*
X152986296Y-95110000D01*
X152763704Y-95110000D01*
X152434096Y-95175563D01*
X152373684Y-95215929D01*
X151985354Y-94827599D01*
X152025000Y-94835485D01*
X153725000Y-94835485D01*
X153834250Y-94813754D01*
X153926868Y-94751868D01*
X153988754Y-94659250D01*
X154010485Y-94550000D01*
X154010485Y-92850000D01*
X153988754Y-92740750D01*
X153926868Y-92648132D01*
X153834250Y-92586246D01*
X153725000Y-92564515D01*
X152262271Y-92564515D01*
X151589584Y-91891829D01*
X151566988Y-91858012D01*
X151465201Y-91790000D01*
X154660000Y-91790000D01*
X154660001Y-112585787D01*
G36*
X152345000Y-98815756D02*
X152345001Y-102064515D01*
X151900000Y-102064515D01*
X151790750Y-102086246D01*
X151786705Y-102088949D01*
X150944584Y-101246829D01*
X150921988Y-101213012D01*
X150788023Y-101123499D01*
X150669887Y-101100000D01*
X150669883Y-101100000D01*
X150630000Y-101092067D01*
X150613488Y-101095351D01*
X150551868Y-101003132D01*
X150459250Y-100941246D01*
X150350000Y-100919515D01*
X148884851Y-100919515D01*
X148879999Y-100895121D01*
X148879999Y-100820485D01*
X149211561Y-100820485D01*
X149439740Y-100915000D01*
X149710260Y-100915000D01*
X149938439Y-100820485D01*
X150350000Y-100820485D01*
X150459250Y-100798754D01*
X150551868Y-100736868D01*
X150613754Y-100644250D01*
X150635485Y-100535000D01*
X150635485Y-99935000D01*
X150613754Y-99825750D01*
X150551868Y-99733132D01*
X150459250Y-99671246D01*
X150350000Y-99649515D01*
X149938439Y-99649515D01*
X149710260Y-99555000D01*
X149439740Y-99555000D01*
X149211561Y-99649515D01*
X148988240Y-99649515D01*
X149087271Y-99550485D01*
X150350000Y-99550485D01*
X150459250Y-99528754D01*
X150551868Y-99466868D01*
X150613754Y-99374250D01*
X150635485Y-99265000D01*
X150635485Y-98665000D01*
X150613754Y-98555750D01*
X150551868Y-98463132D01*
X150459250Y-98401246D01*
X150350000Y-98379515D01*
X149980000Y-98379515D01*
X149980000Y-98280485D01*
X150350000Y-98280485D01*
X150459250Y-98258754D01*
X150551868Y-98196868D01*
X150613754Y-98104250D01*
X150635485Y-97995000D01*
X150635485Y-97395000D01*
X150613754Y-97285750D01*
X150551868Y-97193132D01*
X150459250Y-97131246D01*
X150350000Y-97109515D01*
X149938439Y-97109515D01*
X149710260Y-97015000D01*
X149439740Y-97015000D01*
X149211561Y-97109515D01*
X148800000Y-97109515D01*
X148690750Y-97131246D01*
X148598132Y-97193132D01*
X148536246Y-97285750D01*
X148514515Y-97395000D01*
X148514515Y-97995000D01*
X148536246Y-98104250D01*
X148598132Y-98196868D01*
X148690750Y-98258754D01*
X148800000Y-98280485D01*
X149170000Y-98280485D01*
X149170001Y-98379515D01*
X148800000Y-98379515D01*
X148690750Y-98401246D01*
X148598132Y-98463132D01*
X148536246Y-98555750D01*
X148514515Y-98665000D01*
X148514515Y-98977729D01*
X148335485Y-99156760D01*
X148335485Y-98425000D01*
X148313754Y-98315750D01*
X148251868Y-98223132D01*
X148159250Y-98161246D01*
X148050000Y-98139515D01*
X145700000Y-98139515D01*
X145590750Y-98161246D01*
X145498132Y-98223132D01*
X145436246Y-98315750D01*
X145414515Y-98425000D01*
X145414515Y-100426760D01*
X145235485Y-100247730D01*
X145235485Y-99935000D01*
X145213754Y-99825750D01*
X145151868Y-99733132D01*
X145059250Y-99671246D01*
X144950000Y-99649515D01*
X144033478Y-99649515D01*
X144156988Y-99566988D01*
X144168015Y-99550485D01*
X144950000Y-99550485D01*
X145059250Y-99528754D01*
X145151868Y-99466868D01*
X145213754Y-99374250D01*
X145235485Y-99265000D01*
X145235485Y-98665000D01*
X145213754Y-98555750D01*
X145151868Y-98463132D01*
X145059250Y-98401246D01*
X144950000Y-98379515D01*
X143400000Y-98379515D01*
X143290750Y-98401246D01*
X143198132Y-98463132D01*
X143136246Y-98555750D01*
X143114515Y-98665000D01*
X143114515Y-98870000D01*
X142547755Y-98870000D01*
X143211773Y-98205983D01*
X143290750Y-98258754D01*
X143400000Y-98280485D01*
X143811561Y-98280485D01*
X144039740Y-98375000D01*
X144310260Y-98375000D01*
X144538439Y-98280485D01*
X144950000Y-98280485D01*
X145059250Y-98258754D01*
X145151868Y-98196868D01*
X145213754Y-98104250D01*
X145235485Y-97995000D01*
X145235485Y-97395000D01*
X145213754Y-97285750D01*
X145151868Y-97193132D01*
X145059250Y-97131246D01*
X144950000Y-97109515D01*
X144538439Y-97109515D01*
X144310260Y-97015000D01*
X144039740Y-97015000D01*
X143811561Y-97109515D01*
X143400000Y-97109515D01*
X143290750Y-97131246D01*
X143198132Y-97193132D01*
X143136976Y-97284658D01*
X143110117Y-97290000D01*
X143110113Y-97290000D01*
X142991977Y-97313499D01*
X142858012Y-97403012D01*
X142835418Y-97436826D01*
X142052245Y-98220000D01*
X141692338Y-98220000D01*
X141771108Y-98187372D01*
X141849873Y-98108607D01*
X141892500Y-98005695D01*
X141892500Y-97719000D01*
X141822500Y-97649000D01*
X141349000Y-97649000D01*
X141349000Y-97669000D01*
X141001000Y-97669000D01*
X141001000Y-97649000D01*
X140527500Y-97649000D01*
X140457500Y-97719000D01*
X140457500Y-98005695D01*
X140500127Y-98108607D01*
X140578892Y-98187372D01*
X140657662Y-98220000D01*
X139896597Y-98220000D01*
X140011712Y-98197102D01*
X140175298Y-98087798D01*
X140284602Y-97924212D01*
X140322985Y-97731250D01*
X140322985Y-97218750D01*
X140284602Y-97025788D01*
X140230158Y-96944305D01*
X140457500Y-96944305D01*
X140457500Y-97231000D01*
X140527500Y-97301000D01*
X141001000Y-97301000D01*
X141001000Y-96790000D01*
X141349000Y-96790000D01*
X141349000Y-97301000D01*
X141822500Y-97301000D01*
X141892500Y-97231000D01*
X141892500Y-96944305D01*
X141849873Y-96841393D01*
X141771108Y-96762628D01*
X141668196Y-96720000D01*
X141419000Y-96720000D01*
X141349000Y-96790000D01*
X141001000Y-96790000D01*
X140931000Y-96720000D01*
X140681804Y-96720000D01*
X140578892Y-96762628D01*
X140500127Y-96841393D01*
X140457500Y-96944305D01*
X140230158Y-96944305D01*
X140175298Y-96862202D01*
X140011712Y-96752898D01*
X139818750Y-96714515D01*
X139381250Y-96714515D01*
X139188288Y-96752898D01*
X139024702Y-96862202D01*
X138915398Y-97025788D01*
X138877015Y-97218750D01*
X138877015Y-97322804D01*
X138870000Y-97339740D01*
X138870000Y-97610260D01*
X138877015Y-97627196D01*
X138877015Y-97731250D01*
X138895144Y-97822387D01*
X138184641Y-97111885D01*
X138162045Y-97078069D01*
X138028080Y-96988556D01*
X137909944Y-96965057D01*
X137909940Y-96965057D01*
X137870057Y-96957124D01*
X137830174Y-96965057D01*
X137571287Y-96965057D01*
X138931356Y-95604989D01*
X149134234Y-95604989D01*
X152345000Y-98815756D01*
X152345000Y-98815756D01*
G37*
X152345000Y-98815756D02*
X152345001Y-102064515D01*
X151900000Y-102064515D01*
X151790750Y-102086246D01*
X151786705Y-102088949D01*
X150944584Y-101246829D01*
X150921988Y-101213012D01*
X150788023Y-101123499D01*
X150669887Y-101100000D01*
X150669883Y-101100000D01*
X150630000Y-101092067D01*
X150613488Y-101095351D01*
X150551868Y-101003132D01*
X150459250Y-100941246D01*
X150350000Y-100919515D01*
X148884851Y-100919515D01*
X148879999Y-100895121D01*
X148879999Y-100820485D01*
X149211561Y-100820485D01*
X149439740Y-100915000D01*
X149710260Y-100915000D01*
X149938439Y-100820485D01*
X150350000Y-100820485D01*
X150459250Y-100798754D01*
X150551868Y-100736868D01*
X150613754Y-100644250D01*
X150635485Y-100535000D01*
X150635485Y-99935000D01*
X150613754Y-99825750D01*
X150551868Y-99733132D01*
X150459250Y-99671246D01*
X150350000Y-99649515D01*
X149938439Y-99649515D01*
X149710260Y-99555000D01*
X149439740Y-99555000D01*
X149211561Y-99649515D01*
X148988240Y-99649515D01*
X149087271Y-99550485D01*
X150350000Y-99550485D01*
X150459250Y-99528754D01*
X150551868Y-99466868D01*
X150613754Y-99374250D01*
X150635485Y-99265000D01*
X150635485Y-98665000D01*
X150613754Y-98555750D01*
X150551868Y-98463132D01*
X150459250Y-98401246D01*
X150350000Y-98379515D01*
X149980000Y-98379515D01*
X149980000Y-98280485D01*
X150350000Y-98280485D01*
X150459250Y-98258754D01*
X150551868Y-98196868D01*
X150613754Y-98104250D01*
X150635485Y-97995000D01*
X150635485Y-97395000D01*
X150613754Y-97285750D01*
X150551868Y-97193132D01*
X150459250Y-97131246D01*
X150350000Y-97109515D01*
X149938439Y-97109515D01*
X149710260Y-97015000D01*
X149439740Y-97015000D01*
X149211561Y-97109515D01*
X148800000Y-97109515D01*
X148690750Y-97131246D01*
X148598132Y-97193132D01*
X148536246Y-97285750D01*
X148514515Y-97395000D01*
X148514515Y-97995000D01*
X148536246Y-98104250D01*
X148598132Y-98196868D01*
X148690750Y-98258754D01*
X148800000Y-98280485D01*
X149170000Y-98280485D01*
X149170001Y-98379515D01*
X148800000Y-98379515D01*
X148690750Y-98401246D01*
X148598132Y-98463132D01*
X148536246Y-98555750D01*
X148514515Y-98665000D01*
X148514515Y-98977729D01*
X148335485Y-99156760D01*
X148335485Y-98425000D01*
X148313754Y-98315750D01*
X148251868Y-98223132D01*
X148159250Y-98161246D01*
X148050000Y-98139515D01*
X145700000Y-98139515D01*
X145590750Y-98161246D01*
X145498132Y-98223132D01*
X145436246Y-98315750D01*
X145414515Y-98425000D01*
X145414515Y-100426760D01*
X145235485Y-100247730D01*
X145235485Y-99935000D01*
X145213754Y-99825750D01*
X145151868Y-99733132D01*
X145059250Y-99671246D01*
X144950000Y-99649515D01*
X144033478Y-99649515D01*
X144156988Y-99566988D01*
X144168015Y-99550485D01*
X144950000Y-99550485D01*
X145059250Y-99528754D01*
X145151868Y-99466868D01*
X145213754Y-99374250D01*
X145235485Y-99265000D01*
X145235485Y-98665000D01*
X145213754Y-98555750D01*
X145151868Y-98463132D01*
X145059250Y-98401246D01*
X144950000Y-98379515D01*
X143400000Y-98379515D01*
X143290750Y-98401246D01*
X143198132Y-98463132D01*
X143136246Y-98555750D01*
X143114515Y-98665000D01*
X143114515Y-98870000D01*
X142547755Y-98870000D01*
X143211773Y-98205983D01*
X143290750Y-98258754D01*
X143400000Y-98280485D01*
X143811561Y-98280485D01*
X144039740Y-98375000D01*
X144310260Y-98375000D01*
X144538439Y-98280485D01*
X144950000Y-98280485D01*
X145059250Y-98258754D01*
X145151868Y-98196868D01*
X145213754Y-98104250D01*
X145235485Y-97995000D01*
X145235485Y-97395000D01*
X145213754Y-97285750D01*
X145151868Y-97193132D01*
X145059250Y-97131246D01*
X144950000Y-97109515D01*
X144538439Y-97109515D01*
X144310260Y-97015000D01*
X144039740Y-97015000D01*
X143811561Y-97109515D01*
X143400000Y-97109515D01*
X143290750Y-97131246D01*
X143198132Y-97193132D01*
X143136976Y-97284658D01*
X143110117Y-97290000D01*
X143110113Y-97290000D01*
X142991977Y-97313499D01*
X142858012Y-97403012D01*
X142835418Y-97436826D01*
X142052245Y-98220000D01*
X141692338Y-98220000D01*
X141771108Y-98187372D01*
X141849873Y-98108607D01*
X141892500Y-98005695D01*
X141892500Y-97719000D01*
X141822500Y-97649000D01*
X141349000Y-97649000D01*
X141349000Y-97669000D01*
X141001000Y-97669000D01*
X141001000Y-97649000D01*
X140527500Y-97649000D01*
X140457500Y-97719000D01*
X140457500Y-98005695D01*
X140500127Y-98108607D01*
X140578892Y-98187372D01*
X140657662Y-98220000D01*
X139896597Y-98220000D01*
X140011712Y-98197102D01*
X140175298Y-98087798D01*
X140284602Y-97924212D01*
X140322985Y-97731250D01*
X140322985Y-97218750D01*
X140284602Y-97025788D01*
X140230158Y-96944305D01*
X140457500Y-96944305D01*
X140457500Y-97231000D01*
X140527500Y-97301000D01*
X141001000Y-97301000D01*
X141001000Y-96790000D01*
X141349000Y-96790000D01*
X141349000Y-97301000D01*
X141822500Y-97301000D01*
X141892500Y-97231000D01*
X141892500Y-96944305D01*
X141849873Y-96841393D01*
X141771108Y-96762628D01*
X141668196Y-96720000D01*
X141419000Y-96720000D01*
X141349000Y-96790000D01*
X141001000Y-96790000D01*
X140931000Y-96720000D01*
X140681804Y-96720000D01*
X140578892Y-96762628D01*
X140500127Y-96841393D01*
X140457500Y-96944305D01*
X140230158Y-96944305D01*
X140175298Y-96862202D01*
X140011712Y-96752898D01*
X139818750Y-96714515D01*
X139381250Y-96714515D01*
X139188288Y-96752898D01*
X139024702Y-96862202D01*
X138915398Y-97025788D01*
X138877015Y-97218750D01*
X138877015Y-97322804D01*
X138870000Y-97339740D01*
X138870000Y-97610260D01*
X138877015Y-97627196D01*
X138877015Y-97731250D01*
X138895144Y-97822387D01*
X138184641Y-97111885D01*
X138162045Y-97078069D01*
X138028080Y-96988556D01*
X137909944Y-96965057D01*
X137909940Y-96965057D01*
X137870057Y-96957124D01*
X137830174Y-96965057D01*
X137571287Y-96965057D01*
X138931356Y-95604989D01*
X149134234Y-95604989D01*
X152345000Y-98815756D01*
G36*
X136869894Y-96520940D02*
X136925557Y-96386520D01*
X136895621Y-96214000D01*
X136024000Y-96214000D01*
X136024000Y-97086541D01*
X136196523Y-97115575D01*
X136374163Y-97016671D01*
X135796824Y-97594010D01*
X135781501Y-97516977D01*
X135691988Y-97383012D01*
X135658174Y-97360418D01*
X135364584Y-97066829D01*
X135364582Y-97066826D01*
X135300093Y-97002338D01*
X135503477Y-97115575D01*
X135676000Y-97086541D01*
X135676000Y-96214000D01*
X135656000Y-96214000D01*
X135656000Y-95866000D01*
X135676000Y-95866000D01*
X135676000Y-95846000D01*
X136024000Y-95846000D01*
X136024000Y-95866000D01*
X136895621Y-95866000D01*
X136925557Y-95693480D01*
X136855575Y-95524482D01*
X136581750Y-95178907D01*
X136538772Y-95154978D01*
X138235855Y-95154978D01*
X136869894Y-96520940D01*
X136869894Y-96520940D01*
G37*
X136869894Y-96520940D02*
X136925557Y-96386520D01*
X136895621Y-96214000D01*
X136024000Y-96214000D01*
X136024000Y-97086541D01*
X136196523Y-97115575D01*
X136374163Y-97016671D01*
X135796824Y-97594010D01*
X135781501Y-97516977D01*
X135691988Y-97383012D01*
X135658174Y-97360418D01*
X135364584Y-97066829D01*
X135364582Y-97066826D01*
X135300093Y-97002338D01*
X135503477Y-97115575D01*
X135676000Y-97086541D01*
X135676000Y-96214000D01*
X135656000Y-96214000D01*
X135656000Y-95866000D01*
X135676000Y-95866000D01*
X135676000Y-95846000D01*
X136024000Y-95846000D01*
X136024000Y-95866000D01*
X136895621Y-95866000D01*
X136925557Y-95693480D01*
X136855575Y-95524482D01*
X136581750Y-95178907D01*
X136538772Y-95154978D01*
X138235855Y-95154978D01*
X136869894Y-96520940D01*
G04 #@! TD*
M02*
