G04 #@! TF.GenerationSoftware,KiCad,Pcbnew,5.0.1-33cea8e~68~ubuntu14.04.1*
G04 #@! TF.CreationDate,2018-11-21T18:03:04-08:00*
G04 #@! TF.ProjectId,ga4-evalboard,6761342D6576616C626F6172642E6B69,rev?*
G04 #@! TF.SameCoordinates,Original*
G04 #@! TF.FileFunction,Paste,Top*
G04 #@! TF.FilePolarity,Positive*
%FSLAX46Y46*%
G04 Gerber Fmt 4.6, Leading zero omitted, Abs format (unit mm)*
G04 Created by KiCad (PCBNEW 5.0.1-33cea8e~68~ubuntu14.04.1) date Wed 21 Nov 2018 06:03:04 PM PST*
%MOMM*%
%LPD*%
G01*
G04 APERTURE LIST*
%ADD10R,1.550000X0.600000*%
%ADD11R,0.950000X0.950000*%
%ADD12C,0.100000*%
%ADD13C,0.875000*%
%ADD14R,0.250000X0.700000*%
%ADD15R,1.000000X0.640000*%
G04 APERTURE END LIST*
D10*
G04 #@! TO.C,U4*
X144175000Y-97695000D03*
X144175000Y-98965000D03*
X144175000Y-100235000D03*
X144175000Y-101505000D03*
X149575000Y-101505000D03*
X149575000Y-100235000D03*
X149575000Y-98965000D03*
X149575000Y-97695000D03*
D11*
X147462500Y-100187500D03*
X146287500Y-100187500D03*
X146287500Y-99012500D03*
X147462500Y-99012500D03*
G04 #@! TD*
D12*
G04 #@! TO.C,C1*
G36*
X141415191Y-97001053D02*
X141436426Y-97004203D01*
X141457250Y-97009419D01*
X141477462Y-97016651D01*
X141496868Y-97025830D01*
X141515281Y-97036866D01*
X141532524Y-97049654D01*
X141548430Y-97064070D01*
X141562846Y-97079976D01*
X141575634Y-97097219D01*
X141586670Y-97115632D01*
X141595849Y-97135038D01*
X141603081Y-97155250D01*
X141608297Y-97176074D01*
X141611447Y-97197309D01*
X141612500Y-97218750D01*
X141612500Y-97731250D01*
X141611447Y-97752691D01*
X141608297Y-97773926D01*
X141603081Y-97794750D01*
X141595849Y-97814962D01*
X141586670Y-97834368D01*
X141575634Y-97852781D01*
X141562846Y-97870024D01*
X141548430Y-97885930D01*
X141532524Y-97900346D01*
X141515281Y-97913134D01*
X141496868Y-97924170D01*
X141477462Y-97933349D01*
X141457250Y-97940581D01*
X141436426Y-97945797D01*
X141415191Y-97948947D01*
X141393750Y-97950000D01*
X140956250Y-97950000D01*
X140934809Y-97948947D01*
X140913574Y-97945797D01*
X140892750Y-97940581D01*
X140872538Y-97933349D01*
X140853132Y-97924170D01*
X140834719Y-97913134D01*
X140817476Y-97900346D01*
X140801570Y-97885930D01*
X140787154Y-97870024D01*
X140774366Y-97852781D01*
X140763330Y-97834368D01*
X140754151Y-97814962D01*
X140746919Y-97794750D01*
X140741703Y-97773926D01*
X140738553Y-97752691D01*
X140737500Y-97731250D01*
X140737500Y-97218750D01*
X140738553Y-97197309D01*
X140741703Y-97176074D01*
X140746919Y-97155250D01*
X140754151Y-97135038D01*
X140763330Y-97115632D01*
X140774366Y-97097219D01*
X140787154Y-97079976D01*
X140801570Y-97064070D01*
X140817476Y-97049654D01*
X140834719Y-97036866D01*
X140853132Y-97025830D01*
X140872538Y-97016651D01*
X140892750Y-97009419D01*
X140913574Y-97004203D01*
X140934809Y-97001053D01*
X140956250Y-97000000D01*
X141393750Y-97000000D01*
X141415191Y-97001053D01*
X141415191Y-97001053D01*
G37*
D13*
X141175000Y-97475000D03*
D12*
G36*
X139840191Y-97001053D02*
X139861426Y-97004203D01*
X139882250Y-97009419D01*
X139902462Y-97016651D01*
X139921868Y-97025830D01*
X139940281Y-97036866D01*
X139957524Y-97049654D01*
X139973430Y-97064070D01*
X139987846Y-97079976D01*
X140000634Y-97097219D01*
X140011670Y-97115632D01*
X140020849Y-97135038D01*
X140028081Y-97155250D01*
X140033297Y-97176074D01*
X140036447Y-97197309D01*
X140037500Y-97218750D01*
X140037500Y-97731250D01*
X140036447Y-97752691D01*
X140033297Y-97773926D01*
X140028081Y-97794750D01*
X140020849Y-97814962D01*
X140011670Y-97834368D01*
X140000634Y-97852781D01*
X139987846Y-97870024D01*
X139973430Y-97885930D01*
X139957524Y-97900346D01*
X139940281Y-97913134D01*
X139921868Y-97924170D01*
X139902462Y-97933349D01*
X139882250Y-97940581D01*
X139861426Y-97945797D01*
X139840191Y-97948947D01*
X139818750Y-97950000D01*
X139381250Y-97950000D01*
X139359809Y-97948947D01*
X139338574Y-97945797D01*
X139317750Y-97940581D01*
X139297538Y-97933349D01*
X139278132Y-97924170D01*
X139259719Y-97913134D01*
X139242476Y-97900346D01*
X139226570Y-97885930D01*
X139212154Y-97870024D01*
X139199366Y-97852781D01*
X139188330Y-97834368D01*
X139179151Y-97814962D01*
X139171919Y-97794750D01*
X139166703Y-97773926D01*
X139163553Y-97752691D01*
X139162500Y-97731250D01*
X139162500Y-97218750D01*
X139163553Y-97197309D01*
X139166703Y-97176074D01*
X139171919Y-97155250D01*
X139179151Y-97135038D01*
X139188330Y-97115632D01*
X139199366Y-97097219D01*
X139212154Y-97079976D01*
X139226570Y-97064070D01*
X139242476Y-97049654D01*
X139259719Y-97036866D01*
X139278132Y-97025830D01*
X139297538Y-97016651D01*
X139317750Y-97009419D01*
X139338574Y-97004203D01*
X139359809Y-97001053D01*
X139381250Y-97000000D01*
X139818750Y-97000000D01*
X139840191Y-97001053D01*
X139840191Y-97001053D01*
G37*
D13*
X139600000Y-97475000D03*
G04 #@! TD*
D12*
G04 #@! TO.C,C8*
G36*
X139865191Y-102901053D02*
X139886426Y-102904203D01*
X139907250Y-102909419D01*
X139927462Y-102916651D01*
X139946868Y-102925830D01*
X139965281Y-102936866D01*
X139982524Y-102949654D01*
X139998430Y-102964070D01*
X140012846Y-102979976D01*
X140025634Y-102997219D01*
X140036670Y-103015632D01*
X140045849Y-103035038D01*
X140053081Y-103055250D01*
X140058297Y-103076074D01*
X140061447Y-103097309D01*
X140062500Y-103118750D01*
X140062500Y-103631250D01*
X140061447Y-103652691D01*
X140058297Y-103673926D01*
X140053081Y-103694750D01*
X140045849Y-103714962D01*
X140036670Y-103734368D01*
X140025634Y-103752781D01*
X140012846Y-103770024D01*
X139998430Y-103785930D01*
X139982524Y-103800346D01*
X139965281Y-103813134D01*
X139946868Y-103824170D01*
X139927462Y-103833349D01*
X139907250Y-103840581D01*
X139886426Y-103845797D01*
X139865191Y-103848947D01*
X139843750Y-103850000D01*
X139406250Y-103850000D01*
X139384809Y-103848947D01*
X139363574Y-103845797D01*
X139342750Y-103840581D01*
X139322538Y-103833349D01*
X139303132Y-103824170D01*
X139284719Y-103813134D01*
X139267476Y-103800346D01*
X139251570Y-103785930D01*
X139237154Y-103770024D01*
X139224366Y-103752781D01*
X139213330Y-103734368D01*
X139204151Y-103714962D01*
X139196919Y-103694750D01*
X139191703Y-103673926D01*
X139188553Y-103652691D01*
X139187500Y-103631250D01*
X139187500Y-103118750D01*
X139188553Y-103097309D01*
X139191703Y-103076074D01*
X139196919Y-103055250D01*
X139204151Y-103035038D01*
X139213330Y-103015632D01*
X139224366Y-102997219D01*
X139237154Y-102979976D01*
X139251570Y-102964070D01*
X139267476Y-102949654D01*
X139284719Y-102936866D01*
X139303132Y-102925830D01*
X139322538Y-102916651D01*
X139342750Y-102909419D01*
X139363574Y-102904203D01*
X139384809Y-102901053D01*
X139406250Y-102900000D01*
X139843750Y-102900000D01*
X139865191Y-102901053D01*
X139865191Y-102901053D01*
G37*
D13*
X139625000Y-103375000D03*
D12*
G36*
X141440191Y-102901053D02*
X141461426Y-102904203D01*
X141482250Y-102909419D01*
X141502462Y-102916651D01*
X141521868Y-102925830D01*
X141540281Y-102936866D01*
X141557524Y-102949654D01*
X141573430Y-102964070D01*
X141587846Y-102979976D01*
X141600634Y-102997219D01*
X141611670Y-103015632D01*
X141620849Y-103035038D01*
X141628081Y-103055250D01*
X141633297Y-103076074D01*
X141636447Y-103097309D01*
X141637500Y-103118750D01*
X141637500Y-103631250D01*
X141636447Y-103652691D01*
X141633297Y-103673926D01*
X141628081Y-103694750D01*
X141620849Y-103714962D01*
X141611670Y-103734368D01*
X141600634Y-103752781D01*
X141587846Y-103770024D01*
X141573430Y-103785930D01*
X141557524Y-103800346D01*
X141540281Y-103813134D01*
X141521868Y-103824170D01*
X141502462Y-103833349D01*
X141482250Y-103840581D01*
X141461426Y-103845797D01*
X141440191Y-103848947D01*
X141418750Y-103850000D01*
X140981250Y-103850000D01*
X140959809Y-103848947D01*
X140938574Y-103845797D01*
X140917750Y-103840581D01*
X140897538Y-103833349D01*
X140878132Y-103824170D01*
X140859719Y-103813134D01*
X140842476Y-103800346D01*
X140826570Y-103785930D01*
X140812154Y-103770024D01*
X140799366Y-103752781D01*
X140788330Y-103734368D01*
X140779151Y-103714962D01*
X140771919Y-103694750D01*
X140766703Y-103673926D01*
X140763553Y-103652691D01*
X140762500Y-103631250D01*
X140762500Y-103118750D01*
X140763553Y-103097309D01*
X140766703Y-103076074D01*
X140771919Y-103055250D01*
X140779151Y-103035038D01*
X140788330Y-103015632D01*
X140799366Y-102997219D01*
X140812154Y-102979976D01*
X140826570Y-102964070D01*
X140842476Y-102949654D01*
X140859719Y-102936866D01*
X140878132Y-102925830D01*
X140897538Y-102916651D01*
X140917750Y-102909419D01*
X140938574Y-102904203D01*
X140959809Y-102901053D01*
X140981250Y-102900000D01*
X141418750Y-102900000D01*
X141440191Y-102901053D01*
X141440191Y-102901053D01*
G37*
D13*
X141200000Y-103375000D03*
G04 #@! TD*
D14*
G04 #@! TO.C,U1*
X134950000Y-102075000D03*
X135400000Y-102075000D03*
X135850000Y-102075000D03*
X136300000Y-102075000D03*
X136750000Y-102075000D03*
X137200000Y-102075000D03*
X137200000Y-99275000D03*
X136750000Y-99275000D03*
X136300000Y-99275000D03*
X135850000Y-99275000D03*
X135400000Y-99275000D03*
X134950000Y-99275000D03*
D15*
X136670000Y-100260000D03*
X136670000Y-101090000D03*
X135480000Y-100260000D03*
X135480000Y-101090000D03*
G04 #@! TD*
M02*
