G04 #@! TF.GenerationSoftware,KiCad,Pcbnew,5.0.1-33cea8e~68~ubuntu14.04.1*
G04 #@! TF.CreationDate,2018-11-21T18:03:04-08:00*
G04 #@! TF.ProjectId,ga4-evalboard,6761342D6576616C626F6172642E6B69,rev?*
G04 #@! TF.SameCoordinates,Original*
G04 #@! TF.FileFunction,Legend,Top*
G04 #@! TF.FilePolarity,Positive*
%FSLAX46Y46*%
G04 Gerber Fmt 4.6, Leading zero omitted, Abs format (unit mm)*
G04 Created by KiCad (PCBNEW 5.0.1-33cea8e~68~ubuntu14.04.1) date Wed 21 Nov 2018 06:03:04 PM PST*
%MOMM*%
%LPD*%
G01*
G04 APERTURE LIST*
%ADD10C,0.160000*%
%ADD11C,0.250000*%
%ADD12C,0.150000*%
%ADD13C,0.120000*%
G04 APERTURE END LIST*
D10*
X134050000Y-99200000D02*
X142825000Y-99200000D01*
X134000000Y-102100000D02*
X142775000Y-102100000D01*
D11*
X139117857Y-99800000D02*
X138946428Y-99714285D01*
X138689285Y-99714285D01*
X138432142Y-99800000D01*
X138260714Y-99971428D01*
X138175000Y-100142857D01*
X138089285Y-100485714D01*
X138089285Y-100742857D01*
X138175000Y-101085714D01*
X138260714Y-101257142D01*
X138432142Y-101428571D01*
X138689285Y-101514285D01*
X138860714Y-101514285D01*
X139117857Y-101428571D01*
X139203571Y-101342857D01*
X139203571Y-100742857D01*
X138860714Y-100742857D01*
X139889285Y-101000000D02*
X140746428Y-101000000D01*
X139717857Y-101514285D02*
X140317857Y-99714285D01*
X140917857Y-101514285D01*
X142289285Y-100314285D02*
X142289285Y-101514285D01*
X141860714Y-99628571D02*
X141432142Y-100914285D01*
X142546428Y-100914285D01*
X134842857Y-108607142D02*
X134842857Y-108492857D01*
X134900000Y-108378571D01*
X134957142Y-108321428D01*
X135071428Y-108264285D01*
X135300000Y-108207142D01*
X135585714Y-108207142D01*
X135814285Y-108264285D01*
X135928571Y-108321428D01*
X135985714Y-108378571D01*
X136042857Y-108492857D01*
X136042857Y-108607142D01*
X135985714Y-108721428D01*
X135928571Y-108778571D01*
X135814285Y-108835714D01*
X135585714Y-108892857D01*
X135300000Y-108892857D01*
X135071428Y-108835714D01*
X134957142Y-108778571D01*
X134900000Y-108721428D01*
X134842857Y-108607142D01*
X134842857Y-107464285D02*
X134842857Y-107350000D01*
X134900000Y-107235714D01*
X134957142Y-107178571D01*
X135071428Y-107121428D01*
X135300000Y-107064285D01*
X135585714Y-107064285D01*
X135814285Y-107121428D01*
X135928571Y-107178571D01*
X135985714Y-107235714D01*
X136042857Y-107350000D01*
X136042857Y-107464285D01*
X135985714Y-107578571D01*
X135928571Y-107635714D01*
X135814285Y-107692857D01*
X135585714Y-107750000D01*
X135300000Y-107750000D01*
X135071428Y-107692857D01*
X134957142Y-107635714D01*
X134900000Y-107578571D01*
X134842857Y-107464285D01*
X135928571Y-106550000D02*
X135985714Y-106492857D01*
X136042857Y-106550000D01*
X135985714Y-106607142D01*
X135928571Y-106550000D01*
X136042857Y-106550000D01*
X134842857Y-105750000D02*
X134842857Y-105635714D01*
X134900000Y-105521428D01*
X134957142Y-105464285D01*
X135071428Y-105407142D01*
X135300000Y-105350000D01*
X135585714Y-105350000D01*
X135814285Y-105407142D01*
X135928571Y-105464285D01*
X135985714Y-105521428D01*
X136042857Y-105635714D01*
X136042857Y-105750000D01*
X135985714Y-105864285D01*
X135928571Y-105921428D01*
X135814285Y-105978571D01*
X135585714Y-106035714D01*
X135300000Y-106035714D01*
X135071428Y-105978571D01*
X134957142Y-105921428D01*
X134900000Y-105864285D01*
X134842857Y-105750000D01*
X136042857Y-104207142D02*
X136042857Y-104892857D01*
X136042857Y-104550000D02*
X134842857Y-104550000D01*
X135014285Y-104664285D01*
X135128571Y-104778571D01*
X135185714Y-104892857D01*
X146714285Y-96667857D02*
X146028571Y-96667857D01*
X146371428Y-96667857D02*
X146371428Y-95467857D01*
X146257142Y-95639285D01*
X146142857Y-95753571D01*
X146028571Y-95810714D01*
X147857142Y-96667857D02*
X147171428Y-96667857D01*
X147514285Y-96667857D02*
X147514285Y-95467857D01*
X147400000Y-95639285D01*
X147285714Y-95753571D01*
X147171428Y-95810714D01*
X148371428Y-96553571D02*
X148428571Y-96610714D01*
X148371428Y-96667857D01*
X148314285Y-96610714D01*
X148371428Y-96553571D01*
X148371428Y-96667857D01*
X149457142Y-96667857D02*
X149457142Y-96039285D01*
X149400000Y-95925000D01*
X149285714Y-95867857D01*
X149057142Y-95867857D01*
X148942857Y-95925000D01*
X149457142Y-96610714D02*
X149342857Y-96667857D01*
X149057142Y-96667857D01*
X148942857Y-96610714D01*
X148885714Y-96496428D01*
X148885714Y-96382142D01*
X148942857Y-96267857D01*
X149057142Y-96210714D01*
X149342857Y-96210714D01*
X149457142Y-96153571D01*
X150257142Y-95467857D02*
X150485714Y-95467857D01*
X150600000Y-95525000D01*
X150714285Y-95639285D01*
X150771428Y-95867857D01*
X150771428Y-96267857D01*
X150714285Y-96496428D01*
X150600000Y-96610714D01*
X150485714Y-96667857D01*
X150257142Y-96667857D01*
X150142857Y-96610714D01*
X150028571Y-96496428D01*
X149971428Y-96267857D01*
X149971428Y-95867857D01*
X150028571Y-95639285D01*
X150142857Y-95525000D01*
X150257142Y-95467857D01*
X147157142Y-94142857D02*
X146471428Y-94142857D01*
X146814285Y-94142857D02*
X146814285Y-92942857D01*
X146700000Y-93114285D01*
X146585714Y-93228571D01*
X146471428Y-93285714D01*
X148300000Y-94142857D02*
X147614285Y-94142857D01*
X147957142Y-94142857D02*
X147957142Y-92942857D01*
X147842857Y-93114285D01*
X147728571Y-93228571D01*
X147614285Y-93285714D01*
X148814285Y-94028571D02*
X148871428Y-94085714D01*
X148814285Y-94142857D01*
X148757142Y-94085714D01*
X148814285Y-94028571D01*
X148814285Y-94142857D01*
X149900000Y-94142857D02*
X149900000Y-93514285D01*
X149842857Y-93400000D01*
X149728571Y-93342857D01*
X149500000Y-93342857D01*
X149385714Y-93400000D01*
X149900000Y-94085714D02*
X149785714Y-94142857D01*
X149500000Y-94142857D01*
X149385714Y-94085714D01*
X149328571Y-93971428D01*
X149328571Y-93857142D01*
X149385714Y-93742857D01*
X149500000Y-93685714D01*
X149785714Y-93685714D01*
X149900000Y-93628571D01*
X150471428Y-94142857D02*
X150471428Y-93342857D01*
X150471428Y-92942857D02*
X150414285Y-93000000D01*
X150471428Y-93057142D01*
X150528571Y-93000000D01*
X150471428Y-92942857D01*
X150471428Y-93057142D01*
X138710714Y-95525000D02*
X138596428Y-95467857D01*
X138425000Y-95467857D01*
X138253571Y-95525000D01*
X138139285Y-95639285D01*
X138082142Y-95753571D01*
X138025000Y-95982142D01*
X138025000Y-96153571D01*
X138082142Y-96382142D01*
X138139285Y-96496428D01*
X138253571Y-96610714D01*
X138425000Y-96667857D01*
X138539285Y-96667857D01*
X138710714Y-96610714D01*
X138767857Y-96553571D01*
X138767857Y-96153571D01*
X138539285Y-96153571D01*
X139282142Y-96667857D02*
X139282142Y-95467857D01*
X139967857Y-96667857D01*
X139967857Y-95467857D01*
X140539285Y-96667857D02*
X140539285Y-95467857D01*
X140825000Y-95467857D01*
X140996428Y-95525000D01*
X141110714Y-95639285D01*
X141167857Y-95753571D01*
X141225000Y-95982142D01*
X141225000Y-96153571D01*
X141167857Y-96382142D01*
X141110714Y-96496428D01*
X140996428Y-96610714D01*
X140825000Y-96667857D01*
X140539285Y-96667857D01*
X138728571Y-94092857D02*
X138042857Y-94092857D01*
X138385714Y-94092857D02*
X138385714Y-92892857D01*
X138271428Y-93064285D01*
X138157142Y-93178571D01*
X138042857Y-93235714D01*
X139242857Y-93978571D02*
X139300000Y-94035714D01*
X139242857Y-94092857D01*
X139185714Y-94035714D01*
X139242857Y-93978571D01*
X139242857Y-94092857D01*
X139985714Y-93407142D02*
X139871428Y-93350000D01*
X139814285Y-93292857D01*
X139757142Y-93178571D01*
X139757142Y-93121428D01*
X139814285Y-93007142D01*
X139871428Y-92950000D01*
X139985714Y-92892857D01*
X140214285Y-92892857D01*
X140328571Y-92950000D01*
X140385714Y-93007142D01*
X140442857Y-93121428D01*
X140442857Y-93178571D01*
X140385714Y-93292857D01*
X140328571Y-93350000D01*
X140214285Y-93407142D01*
X139985714Y-93407142D01*
X139871428Y-93464285D01*
X139814285Y-93521428D01*
X139757142Y-93635714D01*
X139757142Y-93864285D01*
X139814285Y-93978571D01*
X139871428Y-94035714D01*
X139985714Y-94092857D01*
X140214285Y-94092857D01*
X140328571Y-94035714D01*
X140385714Y-93978571D01*
X140442857Y-93864285D01*
X140442857Y-93635714D01*
X140385714Y-93521428D01*
X140328571Y-93464285D01*
X140214285Y-93407142D01*
X140842857Y-93292857D02*
X141128571Y-94092857D01*
X141414285Y-93292857D01*
X146217857Y-102667857D02*
X146332142Y-102667857D01*
X146446428Y-102725000D01*
X146503571Y-102782142D01*
X146560714Y-102896428D01*
X146617857Y-103125000D01*
X146617857Y-103410714D01*
X146560714Y-103639285D01*
X146503571Y-103753571D01*
X146446428Y-103810714D01*
X146332142Y-103867857D01*
X146217857Y-103867857D01*
X146103571Y-103810714D01*
X146046428Y-103753571D01*
X145989285Y-103639285D01*
X145932142Y-103410714D01*
X145932142Y-103125000D01*
X145989285Y-102896428D01*
X146046428Y-102782142D01*
X146103571Y-102725000D01*
X146217857Y-102667857D01*
X147760714Y-103867857D02*
X147075000Y-103867857D01*
X147417857Y-103867857D02*
X147417857Y-102667857D01*
X147303571Y-102839285D01*
X147189285Y-102953571D01*
X147075000Y-103010714D01*
X148275000Y-103753571D02*
X148332142Y-103810714D01*
X148275000Y-103867857D01*
X148217857Y-103810714D01*
X148275000Y-103753571D01*
X148275000Y-103867857D01*
X149075000Y-102667857D02*
X149189285Y-102667857D01*
X149303571Y-102725000D01*
X149360714Y-102782142D01*
X149417857Y-102896428D01*
X149475000Y-103125000D01*
X149475000Y-103410714D01*
X149417857Y-103639285D01*
X149360714Y-103753571D01*
X149303571Y-103810714D01*
X149189285Y-103867857D01*
X149075000Y-103867857D01*
X148960714Y-103810714D01*
X148903571Y-103753571D01*
X148846428Y-103639285D01*
X148789285Y-103410714D01*
X148789285Y-103125000D01*
X148846428Y-102896428D01*
X148903571Y-102782142D01*
X148960714Y-102725000D01*
X149075000Y-102667857D01*
X150560714Y-102667857D02*
X149989285Y-102667857D01*
X149932142Y-103239285D01*
X149989285Y-103182142D01*
X150103571Y-103125000D01*
X150389285Y-103125000D01*
X150503571Y-103182142D01*
X150560714Y-103239285D01*
X150617857Y-103353571D01*
X150617857Y-103639285D01*
X150560714Y-103753571D01*
X150503571Y-103810714D01*
X150389285Y-103867857D01*
X150103571Y-103867857D01*
X149989285Y-103810714D01*
X149932142Y-103753571D01*
X146267857Y-105117857D02*
X146382142Y-105117857D01*
X146496428Y-105175000D01*
X146553571Y-105232142D01*
X146610714Y-105346428D01*
X146667857Y-105575000D01*
X146667857Y-105860714D01*
X146610714Y-106089285D01*
X146553571Y-106203571D01*
X146496428Y-106260714D01*
X146382142Y-106317857D01*
X146267857Y-106317857D01*
X146153571Y-106260714D01*
X146096428Y-106203571D01*
X146039285Y-106089285D01*
X145982142Y-105860714D01*
X145982142Y-105575000D01*
X146039285Y-105346428D01*
X146096428Y-105232142D01*
X146153571Y-105175000D01*
X146267857Y-105117857D01*
X147810714Y-106317857D02*
X147125000Y-106317857D01*
X147467857Y-106317857D02*
X147467857Y-105117857D01*
X147353571Y-105289285D01*
X147239285Y-105403571D01*
X147125000Y-105460714D01*
X148325000Y-106203571D02*
X148382142Y-106260714D01*
X148325000Y-106317857D01*
X148267857Y-106260714D01*
X148325000Y-106203571D01*
X148325000Y-106317857D01*
X149125000Y-105117857D02*
X149239285Y-105117857D01*
X149353571Y-105175000D01*
X149410714Y-105232142D01*
X149467857Y-105346428D01*
X149525000Y-105575000D01*
X149525000Y-105860714D01*
X149467857Y-106089285D01*
X149410714Y-106203571D01*
X149353571Y-106260714D01*
X149239285Y-106317857D01*
X149125000Y-106317857D01*
X149010714Y-106260714D01*
X148953571Y-106203571D01*
X148896428Y-106089285D01*
X148839285Y-105860714D01*
X148839285Y-105575000D01*
X148896428Y-105346428D01*
X148953571Y-105232142D01*
X149010714Y-105175000D01*
X149125000Y-105117857D01*
X149925000Y-105117857D02*
X150667857Y-105117857D01*
X150267857Y-105575000D01*
X150439285Y-105575000D01*
X150553571Y-105632142D01*
X150610714Y-105689285D01*
X150667857Y-105803571D01*
X150667857Y-106089285D01*
X150610714Y-106203571D01*
X150553571Y-106260714D01*
X150439285Y-106317857D01*
X150096428Y-106317857D01*
X149982142Y-106260714D01*
X149925000Y-106203571D01*
X146217857Y-107692857D02*
X146332142Y-107692857D01*
X146446428Y-107750000D01*
X146503571Y-107807142D01*
X146560714Y-107921428D01*
X146617857Y-108150000D01*
X146617857Y-108435714D01*
X146560714Y-108664285D01*
X146503571Y-108778571D01*
X146446428Y-108835714D01*
X146332142Y-108892857D01*
X146217857Y-108892857D01*
X146103571Y-108835714D01*
X146046428Y-108778571D01*
X145989285Y-108664285D01*
X145932142Y-108435714D01*
X145932142Y-108150000D01*
X145989285Y-107921428D01*
X146046428Y-107807142D01*
X146103571Y-107750000D01*
X146217857Y-107692857D01*
X147760714Y-108892857D02*
X147075000Y-108892857D01*
X147417857Y-108892857D02*
X147417857Y-107692857D01*
X147303571Y-107864285D01*
X147189285Y-107978571D01*
X147075000Y-108035714D01*
X148275000Y-108778571D02*
X148332142Y-108835714D01*
X148275000Y-108892857D01*
X148217857Y-108835714D01*
X148275000Y-108778571D01*
X148275000Y-108892857D01*
X149075000Y-107692857D02*
X149189285Y-107692857D01*
X149303571Y-107750000D01*
X149360714Y-107807142D01*
X149417857Y-107921428D01*
X149475000Y-108150000D01*
X149475000Y-108435714D01*
X149417857Y-108664285D01*
X149360714Y-108778571D01*
X149303571Y-108835714D01*
X149189285Y-108892857D01*
X149075000Y-108892857D01*
X148960714Y-108835714D01*
X148903571Y-108778571D01*
X148846428Y-108664285D01*
X148789285Y-108435714D01*
X148789285Y-108150000D01*
X148846428Y-107921428D01*
X148903571Y-107807142D01*
X148960714Y-107750000D01*
X149075000Y-107692857D01*
X150617857Y-108892857D02*
X149932142Y-108892857D01*
X150275000Y-108892857D02*
X150275000Y-107692857D01*
X150160714Y-107864285D01*
X150046428Y-107978571D01*
X149932142Y-108035714D01*
X146192857Y-110167857D02*
X146307142Y-110167857D01*
X146421428Y-110225000D01*
X146478571Y-110282142D01*
X146535714Y-110396428D01*
X146592857Y-110625000D01*
X146592857Y-110910714D01*
X146535714Y-111139285D01*
X146478571Y-111253571D01*
X146421428Y-111310714D01*
X146307142Y-111367857D01*
X146192857Y-111367857D01*
X146078571Y-111310714D01*
X146021428Y-111253571D01*
X145964285Y-111139285D01*
X145907142Y-110910714D01*
X145907142Y-110625000D01*
X145964285Y-110396428D01*
X146021428Y-110282142D01*
X146078571Y-110225000D01*
X146192857Y-110167857D01*
X147735714Y-111367857D02*
X147050000Y-111367857D01*
X147392857Y-111367857D02*
X147392857Y-110167857D01*
X147278571Y-110339285D01*
X147164285Y-110453571D01*
X147050000Y-110510714D01*
X148250000Y-111253571D02*
X148307142Y-111310714D01*
X148250000Y-111367857D01*
X148192857Y-111310714D01*
X148250000Y-111253571D01*
X148250000Y-111367857D01*
X149450000Y-111367857D02*
X148764285Y-111367857D01*
X149107142Y-111367857D02*
X149107142Y-110167857D01*
X148992857Y-110339285D01*
X148878571Y-110453571D01*
X148764285Y-110510714D01*
X149850000Y-110167857D02*
X150650000Y-110167857D01*
X150135714Y-111367857D01*
X142417857Y-108557142D02*
X142417857Y-108442857D01*
X142475000Y-108328571D01*
X142532142Y-108271428D01*
X142646428Y-108214285D01*
X142875000Y-108157142D01*
X143160714Y-108157142D01*
X143389285Y-108214285D01*
X143503571Y-108271428D01*
X143560714Y-108328571D01*
X143617857Y-108442857D01*
X143617857Y-108557142D01*
X143560714Y-108671428D01*
X143503571Y-108728571D01*
X143389285Y-108785714D01*
X143160714Y-108842857D01*
X142875000Y-108842857D01*
X142646428Y-108785714D01*
X142532142Y-108728571D01*
X142475000Y-108671428D01*
X142417857Y-108557142D01*
X142417857Y-107414285D02*
X142417857Y-107300000D01*
X142475000Y-107185714D01*
X142532142Y-107128571D01*
X142646428Y-107071428D01*
X142875000Y-107014285D01*
X143160714Y-107014285D01*
X143389285Y-107071428D01*
X143503571Y-107128571D01*
X143560714Y-107185714D01*
X143617857Y-107300000D01*
X143617857Y-107414285D01*
X143560714Y-107528571D01*
X143503571Y-107585714D01*
X143389285Y-107642857D01*
X143160714Y-107700000D01*
X142875000Y-107700000D01*
X142646428Y-107642857D01*
X142532142Y-107585714D01*
X142475000Y-107528571D01*
X142417857Y-107414285D01*
X143503571Y-106500000D02*
X143560714Y-106442857D01*
X143617857Y-106500000D01*
X143560714Y-106557142D01*
X143503571Y-106500000D01*
X143617857Y-106500000D01*
X143617857Y-105300000D02*
X143617857Y-105985714D01*
X143617857Y-105642857D02*
X142417857Y-105642857D01*
X142589285Y-105757142D01*
X142703571Y-105871428D01*
X142760714Y-105985714D01*
X142417857Y-104900000D02*
X142417857Y-104100000D01*
X143617857Y-104614285D01*
X140967857Y-108207142D02*
X140967857Y-108892857D01*
X140967857Y-108550000D02*
X139767857Y-108550000D01*
X139939285Y-108664285D01*
X140053571Y-108778571D01*
X140110714Y-108892857D01*
X139767857Y-107464285D02*
X139767857Y-107350000D01*
X139825000Y-107235714D01*
X139882142Y-107178571D01*
X139996428Y-107121428D01*
X140225000Y-107064285D01*
X140510714Y-107064285D01*
X140739285Y-107121428D01*
X140853571Y-107178571D01*
X140910714Y-107235714D01*
X140967857Y-107350000D01*
X140967857Y-107464285D01*
X140910714Y-107578571D01*
X140853571Y-107635714D01*
X140739285Y-107692857D01*
X140510714Y-107750000D01*
X140225000Y-107750000D01*
X139996428Y-107692857D01*
X139882142Y-107635714D01*
X139825000Y-107578571D01*
X139767857Y-107464285D01*
X140853571Y-106550000D02*
X140910714Y-106492857D01*
X140967857Y-106550000D01*
X140910714Y-106607142D01*
X140853571Y-106550000D01*
X140967857Y-106550000D01*
X139767857Y-105750000D02*
X139767857Y-105635714D01*
X139825000Y-105521428D01*
X139882142Y-105464285D01*
X139996428Y-105407142D01*
X140225000Y-105350000D01*
X140510714Y-105350000D01*
X140739285Y-105407142D01*
X140853571Y-105464285D01*
X140910714Y-105521428D01*
X140967857Y-105635714D01*
X140967857Y-105750000D01*
X140910714Y-105864285D01*
X140853571Y-105921428D01*
X140739285Y-105978571D01*
X140510714Y-106035714D01*
X140225000Y-106035714D01*
X139996428Y-105978571D01*
X139882142Y-105921428D01*
X139825000Y-105864285D01*
X139767857Y-105750000D01*
X140967857Y-104207142D02*
X140967857Y-104892857D01*
X140967857Y-104550000D02*
X139767857Y-104550000D01*
X139939285Y-104664285D01*
X140053571Y-104778571D01*
X140110714Y-104892857D01*
X137267857Y-108557142D02*
X137267857Y-108442857D01*
X137325000Y-108328571D01*
X137382142Y-108271428D01*
X137496428Y-108214285D01*
X137725000Y-108157142D01*
X138010714Y-108157142D01*
X138239285Y-108214285D01*
X138353571Y-108271428D01*
X138410714Y-108328571D01*
X138467857Y-108442857D01*
X138467857Y-108557142D01*
X138410714Y-108671428D01*
X138353571Y-108728571D01*
X138239285Y-108785714D01*
X138010714Y-108842857D01*
X137725000Y-108842857D01*
X137496428Y-108785714D01*
X137382142Y-108728571D01*
X137325000Y-108671428D01*
X137267857Y-108557142D01*
X137267857Y-107414285D02*
X137267857Y-107300000D01*
X137325000Y-107185714D01*
X137382142Y-107128571D01*
X137496428Y-107071428D01*
X137725000Y-107014285D01*
X138010714Y-107014285D01*
X138239285Y-107071428D01*
X138353571Y-107128571D01*
X138410714Y-107185714D01*
X138467857Y-107300000D01*
X138467857Y-107414285D01*
X138410714Y-107528571D01*
X138353571Y-107585714D01*
X138239285Y-107642857D01*
X138010714Y-107700000D01*
X137725000Y-107700000D01*
X137496428Y-107642857D01*
X137382142Y-107585714D01*
X137325000Y-107528571D01*
X137267857Y-107414285D01*
X138353571Y-106500000D02*
X138410714Y-106442857D01*
X138467857Y-106500000D01*
X138410714Y-106557142D01*
X138353571Y-106500000D01*
X138467857Y-106500000D01*
X138467857Y-105300000D02*
X138467857Y-105985714D01*
X138467857Y-105642857D02*
X137267857Y-105642857D01*
X137439285Y-105757142D01*
X137553571Y-105871428D01*
X137610714Y-105985714D01*
X137267857Y-104900000D02*
X137267857Y-104100000D01*
X138467857Y-104614285D01*
D12*
G04 #@! TO.C,U4*
X144800000Y-97025000D02*
X144800000Y-97075000D01*
X148950000Y-97025000D02*
X148950000Y-97170000D01*
X148950000Y-102175000D02*
X148950000Y-102030000D01*
X144800000Y-102175000D02*
X144800000Y-102030000D01*
X144800000Y-97025000D02*
X148950000Y-97025000D01*
X144800000Y-102175000D02*
X148950000Y-102175000D01*
X144800000Y-97075000D02*
X143400000Y-97075000D01*
D13*
G04 #@! TO.C,C1*
X140224721Y-97985000D02*
X140550279Y-97985000D01*
X140224721Y-96965000D02*
X140550279Y-96965000D01*
G04 #@! TO.C,C8*
X140249721Y-102865000D02*
X140575279Y-102865000D01*
X140249721Y-103885000D02*
X140575279Y-103885000D01*
G04 #@! TO.C,J1*
X134520000Y-92170000D02*
X135850000Y-92170000D01*
X134520000Y-93500000D02*
X134520000Y-92170000D01*
X134520000Y-94770000D02*
X137180000Y-94770000D01*
X137180000Y-94770000D02*
X137180000Y-97370000D01*
X134520000Y-94770000D02*
X134520000Y-97370000D01*
X134520000Y-97370000D02*
X137180000Y-97370000D01*
G04 #@! TO.C,J2*
X151545000Y-97570000D02*
X154205000Y-97570000D01*
X151545000Y-94970000D02*
X151545000Y-97570000D01*
X154205000Y-94970000D02*
X154205000Y-97570000D01*
X151545000Y-94970000D02*
X154205000Y-94970000D01*
X151545000Y-93700000D02*
X151545000Y-92370000D01*
X151545000Y-92370000D02*
X152875000Y-92370000D01*
D12*
G04 #@! TO.C,U1*
X137700000Y-101725000D02*
X137700000Y-99625000D01*
X134450000Y-102500000D02*
X134450000Y-99625000D01*
D13*
G04 #@! TO.C,J3*
X151420000Y-112150000D02*
X154080000Y-112150000D01*
X151420000Y-104470000D02*
X151420000Y-112150000D01*
X154080000Y-104470000D02*
X154080000Y-112150000D01*
X151420000Y-104470000D02*
X154080000Y-104470000D01*
X151420000Y-103200000D02*
X151420000Y-101870000D01*
X151420000Y-101870000D02*
X152750000Y-101870000D01*
G04 #@! TO.C,J4*
X144305000Y-109720000D02*
X144305000Y-111050000D01*
X142975000Y-109720000D02*
X144305000Y-109720000D01*
X141705000Y-109720000D02*
X141705000Y-112380000D01*
X141705000Y-112380000D02*
X134025000Y-112380000D01*
X141705000Y-109720000D02*
X134025000Y-109720000D01*
X134025000Y-109720000D02*
X134025000Y-112380000D01*
G04 #@! TO.C,U4*
D12*
X146088095Y-98997380D02*
X146088095Y-99806904D01*
X146135714Y-99902142D01*
X146183333Y-99949761D01*
X146278571Y-99997380D01*
X146469047Y-99997380D01*
X146564285Y-99949761D01*
X146611904Y-99902142D01*
X146659523Y-99806904D01*
X146659523Y-98997380D01*
X147564285Y-99330714D02*
X147564285Y-99997380D01*
X147326190Y-98949761D02*
X147088095Y-99664047D01*
X147707142Y-99664047D01*
G04 #@! TO.C,C1*
X140358333Y-97907142D02*
X140310714Y-97954761D01*
X140167857Y-98002380D01*
X140072619Y-98002380D01*
X139929761Y-97954761D01*
X139834523Y-97859523D01*
X139786904Y-97764285D01*
X139739285Y-97573809D01*
X139739285Y-97430952D01*
X139786904Y-97240476D01*
X139834523Y-97145238D01*
X139929761Y-97050000D01*
X140072619Y-97002380D01*
X140167857Y-97002380D01*
X140310714Y-97050000D01*
X140358333Y-97097619D01*
X141310714Y-98002380D02*
X140739285Y-98002380D01*
X141025000Y-98002380D02*
X141025000Y-97002380D01*
X140929761Y-97145238D01*
X140834523Y-97240476D01*
X140739285Y-97288095D01*
G04 #@! TO.C,C8*
X140220833Y-103682142D02*
X140173214Y-103729761D01*
X140030357Y-103777380D01*
X139935119Y-103777380D01*
X139792261Y-103729761D01*
X139697023Y-103634523D01*
X139649404Y-103539285D01*
X139601785Y-103348809D01*
X139601785Y-103205952D01*
X139649404Y-103015476D01*
X139697023Y-102920238D01*
X139792261Y-102825000D01*
X139935119Y-102777380D01*
X140030357Y-102777380D01*
X140173214Y-102825000D01*
X140220833Y-102872619D01*
X140792261Y-103205952D02*
X140697023Y-103158333D01*
X140649404Y-103110714D01*
X140601785Y-103015476D01*
X140601785Y-102967857D01*
X140649404Y-102872619D01*
X140697023Y-102825000D01*
X140792261Y-102777380D01*
X140982738Y-102777380D01*
X141077976Y-102825000D01*
X141125595Y-102872619D01*
X141173214Y-102967857D01*
X141173214Y-103015476D01*
X141125595Y-103110714D01*
X141077976Y-103158333D01*
X140982738Y-103205952D01*
X140792261Y-103205952D01*
X140697023Y-103253571D01*
X140649404Y-103301190D01*
X140601785Y-103396428D01*
X140601785Y-103586904D01*
X140649404Y-103682142D01*
X140697023Y-103729761D01*
X140792261Y-103777380D01*
X140982738Y-103777380D01*
X141077976Y-103729761D01*
X141125595Y-103682142D01*
X141173214Y-103586904D01*
X141173214Y-103396428D01*
X141125595Y-103301190D01*
X141077976Y-103253571D01*
X140982738Y-103205952D01*
G04 #@! TO.C,J1*
X135216666Y-92727380D02*
X135216666Y-93441666D01*
X135169047Y-93584523D01*
X135073809Y-93679761D01*
X134930952Y-93727380D01*
X134835714Y-93727380D01*
X136216666Y-93727380D02*
X135645238Y-93727380D01*
X135930952Y-93727380D02*
X135930952Y-92727380D01*
X135835714Y-92870238D01*
X135740476Y-92965476D01*
X135645238Y-93013095D01*
G04 #@! TO.C,J2*
X152566666Y-92652380D02*
X152566666Y-93366666D01*
X152519047Y-93509523D01*
X152423809Y-93604761D01*
X152280952Y-93652380D01*
X152185714Y-93652380D01*
X152995238Y-92747619D02*
X153042857Y-92700000D01*
X153138095Y-92652380D01*
X153376190Y-92652380D01*
X153471428Y-92700000D01*
X153519047Y-92747619D01*
X153566666Y-92842857D01*
X153566666Y-92938095D01*
X153519047Y-93080952D01*
X152947619Y-93652380D01*
X153566666Y-93652380D01*
G04 #@! TO.C,U1*
X135227380Y-101336904D02*
X136036904Y-101336904D01*
X136132142Y-101289285D01*
X136179761Y-101241666D01*
X136227380Y-101146428D01*
X136227380Y-100955952D01*
X136179761Y-100860714D01*
X136132142Y-100813095D01*
X136036904Y-100765476D01*
X135227380Y-100765476D01*
X136227380Y-99765476D02*
X136227380Y-100336904D01*
X136227380Y-100051190D02*
X135227380Y-100051190D01*
X135370238Y-100146428D01*
X135465476Y-100241666D01*
X135513095Y-100336904D01*
G04 #@! TO.C,J3*
X152566666Y-103052380D02*
X152566666Y-103766666D01*
X152519047Y-103909523D01*
X152423809Y-104004761D01*
X152280952Y-104052380D01*
X152185714Y-104052380D01*
X152947619Y-103052380D02*
X153566666Y-103052380D01*
X153233333Y-103433333D01*
X153376190Y-103433333D01*
X153471428Y-103480952D01*
X153519047Y-103528571D01*
X153566666Y-103623809D01*
X153566666Y-103861904D01*
X153519047Y-103957142D01*
X153471428Y-104004761D01*
X153376190Y-104052380D01*
X153090476Y-104052380D01*
X152995238Y-104004761D01*
X152947619Y-103957142D01*
G04 #@! TO.C,J4*
X142102380Y-111633333D02*
X142816666Y-111633333D01*
X142959523Y-111680952D01*
X143054761Y-111776190D01*
X143102380Y-111919047D01*
X143102380Y-112014285D01*
X142435714Y-110728571D02*
X143102380Y-110728571D01*
X142054761Y-110966666D02*
X142769047Y-111204761D01*
X142769047Y-110585714D01*
G04 #@! TD*
M02*
