M48
;DRILL file {KiCad 5.0.2-bee76a0~70~ubuntu14.04.1} date Fri 14 Dec 2018 04:37:11 PM MST
;FORMAT={-:-/ absolute / inch / decimal}
FMAT,2
INCH,TZ
T1C0.0157
T2C0.0394
%
G90
G05
T1
X5.3593Y-4.1654
X5.4163Y-3.8691
X5.4941Y-3.8376
X5.497Y-4.0689
X5.5581Y-3.8376
X5.6762Y-3.8463
X5.8888Y-3.8463
X5.8888Y-3.9463
T2
X6.0138Y-4.063
X6.0138Y-4.163
X6.0138Y-4.263
X6.0138Y-4.363
X6.0187Y-3.689
X6.0187Y-3.789
X5.3484Y-3.6811
X5.3484Y-3.7811
X5.3289Y-4.372
X5.4289Y-4.372
X5.5289Y-4.372
X5.6289Y-4.372
T0
M30
