M48
;DRILL file {KiCad 5.0.1-33cea8e~68~ubuntu14.04.1} date Wed 21 Nov 2018 01:29:38 AM PST
;FORMAT={-:-/ absolute / inch / decimal}
FMAT,2
INCH,TZ
T1C0.0157
T2C0.0197
T3C0.0394
%
G90
G05
M72
T1
X3.6909Y-2.9299
X3.6909Y-2.9299
X3.6923Y-3.0469
X3.9018Y-3.363
X3.9131Y-3.2832
X3.9201Y-3.3282
X3.9831Y-3.5717
X3.9835Y-3.6334
X4.0449Y-3.7031
X4.0496Y-2.9937
X4.0598Y-3.3268
X4.0598Y-4.1181
X4.0602Y-3.4504
X4.0626Y-3.2157
X4.0904Y-3.5935
X4.1106Y-3.6984
X4.1236Y-2.9944
X4.127Y-3.3898
X4.1388Y-3.2677
X4.1488Y-3.1445
X4.1644Y-3.4929
X4.1843Y-3.3829
X4.2868Y-4.1669
X4.2868Y-4.2118
X4.2874Y-4.1181
X4.4192Y-3.3366
X4.4304Y-3.6898
X4.4338Y-3.6506
X4.4476Y-3.6137
X4.4563Y-3.5753
X4.473Y-3.5095
X4.4811Y-3.4008
X4.5104Y-3.4271
X4.5197Y-3.239
X4.5367Y-3.5091
X4.5568Y-3.2076
X4.5571Y-3.687
X4.5571Y-4.1319
X4.5965Y-3.1701
X4.6035Y-3.297
X4.6063Y-3.7028
X4.6409Y-3.1315
X4.6476Y-3.3406
X4.6516Y-3.7126
X4.6775Y-3.1045
X4.6988Y-3.7279
X4.7293Y-3.4364
X4.7774Y-3.3883
X4.7788Y-3.4859
X4.7956Y-3.1697
X4.8235Y-3.1419
X4.8269Y-3.3388
X4.8269Y-3.4378
X4.8283Y-3.5354
X4.8441Y-3.7075
X4.8586Y-3.1242
X4.8764Y-3.2893
X4.8764Y-3.3883
X4.8764Y-3.4873
X4.8792Y-3.5863
X4.8834Y-3.728
X4.9024Y-3.0929
X4.9244Y-3.7421
X4.9259Y-3.3388
X4.9259Y-3.4378
X4.9273Y-3.2384
X4.9273Y-3.5382
X4.9273Y-3.6344
X4.9754Y-3.3883
X4.9754Y-3.5863
X4.9768Y-3.2879
X4.9768Y-3.4887
X4.9932Y-3.7555
X5.0249Y-3.5368
X5.0263Y-3.3374
X5.0263Y-3.4392
X5.0303Y-3.7697
X5.0697Y-3.7722
X5.0744Y-3.4873
X5.0772Y-3.3883
X5.1197Y-3.1736
X5.1209Y-3.8327
X5.1233Y-3.7792
X5.1253Y-3.4364
X5.166Y-3.1825
X5.1736Y-3.5367
X5.2185Y-3.8287
X5.2321Y-3.5095
X5.2533Y-3.8103
X5.261Y-3.6157
X5.2888Y-3.2657
X5.2888Y-3.324
X5.2953Y-3.8366
X5.324Y-3.5264
X5.3253Y-3.8111
X5.3504Y-3.3252
X5.3552Y-3.739
X5.3579Y-3.5512
X5.3602Y-3.7854
X5.364Y-4.562
X5.3894Y-3.5945
X5.3956Y-3.643
X5.5431Y-3.4469
X5.5431Y-3.6594
X5.5492Y-3.3504
X5.5968Y-3.6618
X5.6431Y-3.4469
X5.6931Y-3.4469
X5.7673Y-3.0681
T2
X5.5709Y-4.1161
X5.6457Y-4.1161
T3
X3.712Y-3.7165
X3.812Y-3.7165
X3.7118Y-4.05
X3.8118Y-4.05
X3.9118Y-4.05
X4.3051Y-3.9803
X4.4051Y-3.9803
X4.5051Y-3.9803
X4.6051Y-3.9803
X4.7051Y-3.9803
X4.8051Y-3.9803
X4.9051Y-3.9803
X5.0051Y-3.9803
X5.1051Y-3.9803
X5.2051Y-3.9803
X5.3051Y-3.9803
X5.4051Y-3.9803
X3.71Y-3.6053
X3.81Y-3.6053
X6.1925Y-2.96
X6.1925Y-3.06
X6.1925Y-3.16
X6.1925Y-3.26
X6.1925Y-3.36
X6.1925Y-3.46
X6.1925Y-3.56
X6.1925Y-3.66
X6.1925Y-3.76
X6.1925Y-3.86
X6.1925Y-3.96
X6.1925Y-4.06
X6.1925Y-4.16
X6.1925Y-4.26
X6.1925Y-4.36
X6.1925Y-4.46
X6.1925Y-4.56
X4.164Y-4.562
X4.264Y-4.562
X4.364Y-4.562
X4.464Y-4.562
X4.564Y-4.562
X4.664Y-4.562
X4.764Y-4.562
X4.864Y-4.562
X4.964Y-4.562
X5.064Y-4.562
X5.164Y-4.562
X5.264Y-4.562
X5.364Y-4.562
X5.464Y-4.562
X5.564Y-4.562
X5.664Y-4.562
X5.764Y-4.562
X5.864Y-4.562
X3.7111Y-3.8288
X3.8111Y-3.8288
X3.9111Y-3.8288
X3.7118Y-3.9398
X3.8118Y-3.9398
X3.9118Y-3.9398
X5.8071Y-3.4587
X5.8071Y-3.5587
X5.8071Y-3.6587
X4.3031Y-2.9606
X4.4031Y-2.9606
X4.5031Y-2.9606
X4.6031Y-2.9606
X4.7031Y-2.9606
X4.8031Y-2.9606
X4.9031Y-2.9606
X5.0031Y-2.9606
X5.1031Y-2.9606
X5.2031Y-2.9606
X5.3031Y-2.9606
X5.4031Y-2.9606
X5.5031Y-2.9606
X5.6031Y-2.9606
X5.7031Y-2.9606
X4.4055Y-3.8701
X4.5055Y-3.8701
X4.6055Y-3.8701
X4.7055Y-3.8701
X4.8055Y-3.8701
X4.9055Y-3.8701
X5.0055Y-3.8701
X3.8169Y-4.3622
X3.8169Y-4.4622
X3.8169Y-4.5622
X4.3051Y-3.0709
X4.3051Y-3.1709
X4.3051Y-3.2709
X4.3051Y-3.3709
X4.3051Y-3.4709
X4.3051Y-3.5709
X4.3051Y-3.6709
X4.3051Y-3.7709
X4.3051Y-3.8709
T0
M30
