G04 #@! TF.GenerationSoftware,KiCad,Pcbnew,5.0.1-33cea8e~68~ubuntu14.04.1*
G04 #@! TF.CreationDate,2018-11-21T01:29:37-08:00*
G04 #@! TF.ProjectId,evalboard1,6576616C626F617264312E6B69636164,rev?*
G04 #@! TF.SameCoordinates,Original*
G04 #@! TF.FileFunction,Copper,L2,Bot,Signal*
G04 #@! TF.FilePolarity,Positive*
%FSLAX46Y46*%
G04 Gerber Fmt 4.6, Leading zero omitted, Abs format (unit mm)*
G04 Created by KiCad (PCBNEW 5.0.1-33cea8e~68~ubuntu14.04.1) date Wed 21 Nov 2018 01:29:37 AM PST*
%MOMM*%
%LPD*%
G01*
G04 APERTURE LIST*
G04 #@! TA.AperFunction,ComponentPad*
%ADD10R,1.700000X1.700000*%
G04 #@! TD*
G04 #@! TA.AperFunction,ComponentPad*
%ADD11O,1.700000X1.700000*%
G04 #@! TD*
G04 #@! TA.AperFunction,ComponentPad*
%ADD12C,1.000000*%
G04 #@! TD*
G04 #@! TA.AperFunction,ViaPad*
%ADD13C,0.800000*%
G04 #@! TD*
G04 #@! TA.AperFunction,Conductor*
%ADD14C,0.160000*%
G04 #@! TD*
G04 #@! TA.AperFunction,Conductor*
%ADD15C,0.250000*%
G04 #@! TD*
G04 #@! TA.AperFunction,Conductor*
%ADD16C,0.200000*%
G04 #@! TD*
G04 APERTURE END LIST*
D10*
G04 #@! TO.P,J9,1*
G04 #@! TO.N,500.17*
X157289500Y-75184000D03*
D11*
G04 #@! TO.P,J9,2*
G04 #@! TO.N,600.17*
X157289500Y-77724000D03*
G04 #@! TO.P,J9,3*
G04 #@! TO.N,701.1*
X157289500Y-80264000D03*
G04 #@! TO.P,J9,4*
G04 #@! TO.N,701.17*
X157289500Y-82804000D03*
G04 #@! TO.P,J9,5*
G04 #@! TO.N,705.17*
X157289500Y-85344000D03*
G04 #@! TO.P,J9,6*
G04 #@! TO.N,705.5*
X157289500Y-87884000D03*
G04 #@! TO.P,J9,7*
G04 #@! TO.N,705.3*
X157289500Y-90424000D03*
G04 #@! TO.P,J9,8*
G04 #@! TO.N,705.1*
X157289500Y-92964000D03*
G04 #@! TO.P,J9,9*
G04 #@! TO.N,708.1*
X157289500Y-95504000D03*
G04 #@! TO.P,J9,10*
G04 #@! TO.N,708.17*
X157289500Y-98044000D03*
G04 #@! TO.P,J9,11*
G04 #@! TO.N,709.ao*
X157289500Y-100584000D03*
G04 #@! TO.P,J9,12*
G04 #@! TO.N,709.ai*
X157289500Y-103124000D03*
G04 #@! TO.P,J9,13*
G04 #@! TO.N,713ai*
X157289500Y-105664000D03*
G04 #@! TO.P,J9,14*
G04 #@! TO.N,713.ao*
X157289500Y-108204000D03*
G04 #@! TO.P,J9,15*
G04 #@! TO.N,715.17*
X157289500Y-110744000D03*
G04 #@! TO.P,J9,16*
G04 #@! TO.N,717.ao*
X157289500Y-113284000D03*
G04 #@! TO.P,J9,17*
G04 #@! TO.N,717.ai*
X157289500Y-115824000D03*
G04 #@! TD*
D12*
G04 #@! TO.P,Y1,1*
G04 #@! TO.N,517.17*
X143400000Y-104550000D03*
G04 #@! TO.P,Y1,2*
G04 #@! TO.N,GND*
X141500000Y-104550000D03*
G04 #@! TD*
D11*
G04 #@! TO.P,J2,2*
G04 #@! TO.N,708.17*
X96775000Y-91575000D03*
D10*
G04 #@! TO.P,J2,1*
G04 #@! TO.N,txd*
X94235000Y-91575000D03*
G04 #@! TD*
G04 #@! TO.P,J3,1*
G04 #@! TO.N,rxd*
X94285000Y-94400000D03*
D11*
G04 #@! TO.P,J3,2*
G04 #@! TO.N,708.1*
X96825000Y-94400000D03*
G04 #@! TD*
D10*
G04 #@! TO.P,J4,1*
G04 #@! TO.N,1.8v*
X94280000Y-102870000D03*
D11*
G04 #@! TO.P,J4,2*
G04 #@! TO.N,vccA*
X96820000Y-102870000D03*
G04 #@! TO.P,J4,3*
G04 #@! TO.N,vin*
X99360000Y-102870000D03*
G04 #@! TD*
G04 #@! TO.P,J5,3*
G04 #@! TO.N,vin*
X99360000Y-100070000D03*
G04 #@! TO.P,J5,2*
G04 #@! TO.N,vccI*
X96820000Y-100070000D03*
D10*
G04 #@! TO.P,J5,1*
G04 #@! TO.N,1.8v*
X94280000Y-100070000D03*
G04 #@! TD*
G04 #@! TO.P,J6,1*
G04 #@! TO.N,1.8v*
X94260800Y-97250400D03*
D11*
G04 #@! TO.P,J6,2*
G04 #@! TO.N,vccC*
X96800800Y-97250400D03*
G04 #@! TO.P,J6,3*
G04 #@! TO.N,vin*
X99340800Y-97250400D03*
G04 #@! TD*
D10*
G04 #@! TO.P,J11,1*
G04 #@! TO.N,617.ao*
X148945600Y-115874800D03*
D11*
G04 #@! TO.P,J11,2*
G04 #@! TO.N,617.a1*
X146405600Y-115874800D03*
G04 #@! TO.P,J11,3*
G04 #@! TO.N,517.17*
X143865600Y-115874800D03*
G04 #@! TO.P,J11,4*
G04 #@! TO.N,417.17*
X141325600Y-115874800D03*
G04 #@! TO.P,J11,5*
G04 #@! TO.N,317.17*
X138785600Y-115874800D03*
G04 #@! TO.P,J11,6*
G04 #@! TO.N,217.17*
X136245600Y-115874800D03*
G04 #@! TO.P,J11,7*
G04 #@! TO.N,117.ao*
X133705600Y-115874800D03*
G04 #@! TO.P,J11,8*
G04 #@! TO.N,117.ai*
X131165600Y-115874800D03*
G04 #@! TO.P,J11,9*
G04 #@! TO.N,008.1*
X128625600Y-115874800D03*
G04 #@! TO.P,J11,10*
G04 #@! TO.N,008.3*
X126085600Y-115874800D03*
G04 #@! TO.P,J11,11*
G04 #@! TO.N,008.5*
X123545600Y-115874800D03*
G04 #@! TO.P,J11,12*
G04 #@! TO.N,008.17*
X121005600Y-115874800D03*
G04 #@! TO.P,J11,13*
G04 #@! TO.N,001.17*
X118465600Y-115874800D03*
G04 #@! TO.P,J11,14*
G04 #@! TO.N,001.1*
X115925600Y-115874800D03*
G04 #@! TO.P,J11,15*
G04 #@! TO.N,100.17*
X113385600Y-115874800D03*
G04 #@! TO.P,J11,16*
G04 #@! TO.N,200.17*
X110845600Y-115874800D03*
G04 #@! TO.P,J11,17*
G04 #@! TO.N,300.1*
X108305600Y-115874800D03*
G04 #@! TO.P,J11,18*
G04 #@! TO.N,300.17*
X105765600Y-115874800D03*
G04 #@! TD*
D10*
G04 #@! TO.P,J7,1*
G04 #@! TO.N,d15*
X109350000Y-78000000D03*
D11*
G04 #@! TO.P,J7,2*
G04 #@! TO.N,d16*
X109350000Y-80540000D03*
G04 #@! TO.P,J7,3*
G04 #@! TO.N,d17*
X109350000Y-83080000D03*
G04 #@! TO.P,J7,4*
G04 #@! TO.N,a17*
X109350000Y-85620000D03*
G04 #@! TO.P,J7,5*
G04 #@! TO.N,a16*
X109350000Y-88160000D03*
G04 #@! TO.P,J7,6*
G04 #@! TO.N,a15*
X109350000Y-90700000D03*
G04 #@! TO.P,J7,7*
G04 #@! TO.N,a14*
X109350000Y-93240000D03*
G04 #@! TO.P,J7,8*
G04 #@! TO.N,a13*
X109350000Y-95780000D03*
G04 #@! TO.P,J7,9*
G04 #@! TO.N,a12*
X109350000Y-98320000D03*
G04 #@! TD*
D10*
G04 #@! TO.P,J12,1*
G04 #@! TO.N,d0*
X144860000Y-75200000D03*
D11*
G04 #@! TO.P,J12,2*
G04 #@! TO.N,d1*
X142320000Y-75200000D03*
G04 #@! TO.P,J12,3*
G04 #@! TO.N,d2*
X139780000Y-75200000D03*
G04 #@! TO.P,J12,4*
G04 #@! TO.N,d3*
X137240000Y-75200000D03*
G04 #@! TO.P,J12,5*
G04 #@! TO.N,d4*
X134700000Y-75200000D03*
G04 #@! TO.P,J12,6*
G04 #@! TO.N,d5*
X132160000Y-75200000D03*
G04 #@! TO.P,J12,7*
G04 #@! TO.N,d6*
X129620000Y-75200000D03*
G04 #@! TO.P,J12,8*
G04 #@! TO.N,d7*
X127080000Y-75200000D03*
G04 #@! TO.P,J12,9*
G04 #@! TO.N,d8*
X124540000Y-75200000D03*
G04 #@! TO.P,J12,10*
G04 #@! TO.N,d9*
X122000000Y-75200000D03*
G04 #@! TO.P,J12,11*
G04 #@! TO.N,d10*
X119460000Y-75200000D03*
G04 #@! TO.P,J12,12*
G04 #@! TO.N,d11*
X116920000Y-75200000D03*
G04 #@! TO.P,J12,13*
G04 #@! TO.N,d12*
X114380000Y-75200000D03*
G04 #@! TO.P,J12,14*
G04 #@! TO.N,d13*
X111840000Y-75200000D03*
G04 #@! TO.P,J12,15*
G04 #@! TO.N,d14*
X109300000Y-75200000D03*
G04 #@! TD*
D10*
G04 #@! TO.P,J10,1*
G04 #@! TO.N,a0*
X137290000Y-101100000D03*
D11*
G04 #@! TO.P,J10,2*
G04 #@! TO.N,a1*
X134750000Y-101100000D03*
G04 #@! TO.P,J10,3*
G04 #@! TO.N,a2*
X132210000Y-101100000D03*
G04 #@! TO.P,J10,4*
G04 #@! TO.N,a3*
X129670000Y-101100000D03*
G04 #@! TO.P,J10,5*
G04 #@! TO.N,a4*
X127130000Y-101100000D03*
G04 #@! TO.P,J10,6*
G04 #@! TO.N,a5*
X124590000Y-101100000D03*
G04 #@! TO.P,J10,7*
G04 #@! TO.N,a6*
X122050000Y-101100000D03*
G04 #@! TO.P,J10,8*
G04 #@! TO.N,a7*
X119510000Y-101100000D03*
G04 #@! TO.P,J10,9*
G04 #@! TO.N,a8*
X116970000Y-101100000D03*
G04 #@! TO.P,J10,10*
G04 #@! TO.N,a9*
X114430000Y-101100000D03*
G04 #@! TO.P,J10,11*
G04 #@! TO.N,a10*
X111890000Y-101100000D03*
G04 #@! TO.P,J10,12*
G04 #@! TO.N,a11*
X109350000Y-101100000D03*
G04 #@! TD*
D10*
G04 #@! TO.P,J13,1*
G04 #@! TO.N,vccC*
X147500000Y-87850000D03*
D11*
G04 #@! TO.P,J13,2*
G04 #@! TO.N,RESET*
X147500000Y-90390000D03*
G04 #@! TO.P,J13,3*
G04 #@! TO.N,GND*
X147500000Y-92930000D03*
G04 #@! TD*
D10*
G04 #@! TO.P,J14,1*
G04 #@! TO.N,GND*
X96950000Y-110800000D03*
D11*
G04 #@! TO.P,J14,2*
G04 #@! TO.N,vin*
X96950000Y-113340000D03*
G04 #@! TO.P,J14,3*
G04 #@! TO.N,vcc*
X96950000Y-115880000D03*
G04 #@! TD*
D10*
G04 #@! TO.P,J8,1*
G04 #@! TO.N,vccC*
X111900000Y-98300000D03*
D11*
G04 #@! TO.P,J8,2*
G04 #@! TO.N,vcc*
X114440000Y-98300000D03*
G04 #@! TO.P,J8,3*
G04 #@! TO.N,GND*
X116980000Y-98300000D03*
G04 #@! TO.P,J8,4*
G04 #@! TO.N,008.17*
X119520000Y-98300000D03*
G04 #@! TO.P,J8,5*
G04 #@! TO.N,008.5*
X122060000Y-98300000D03*
G04 #@! TO.P,J8,6*
G04 #@! TO.N,008.3*
X124600000Y-98300000D03*
G04 #@! TO.P,J8,7*
G04 #@! TO.N,008.1*
X127140000Y-98300000D03*
G04 #@! TD*
D13*
G04 #@! TO.N,usb3*
X104739444Y-76057960D03*
X99571233Y-84535705D03*
G04 #@! TO.N,GND*
X116928900Y-83743800D03*
X101170000Y-90720000D03*
X127632700Y-89834375D03*
X128889936Y-88577140D03*
X126375464Y-91091611D03*
X127668621Y-84769511D03*
X122639678Y-89798454D03*
X125118228Y-87319904D03*
X126375464Y-86062668D03*
X123860993Y-88577140D03*
X126411385Y-83512275D03*
X121382442Y-88541219D03*
X123860993Y-86062668D03*
X128961778Y-86062668D03*
X123932835Y-91091611D03*
X126411385Y-88613061D03*
X140795000Y-87550000D03*
X133630000Y-91840000D03*
X102740000Y-94060000D03*
X113614200Y-89141300D03*
X125154150Y-92312926D03*
X130183093Y-87283983D03*
X123860993Y-83548196D03*
X121346521Y-86062668D03*
X120125206Y-87283983D03*
X125154150Y-82255039D03*
X122603757Y-84805432D03*
X125118228Y-84805432D03*
X122603757Y-87319904D03*
X125154150Y-89870296D03*
X127668621Y-87355825D03*
X135900000Y-84460000D03*
X140950000Y-85100000D03*
X103130000Y-87640000D03*
X103190000Y-81680000D03*
X105125000Y-83000000D03*
X93785009Y-77390000D03*
X105775000Y-88720000D03*
X99105010Y-85420385D03*
G04 #@! TO.N,usb2*
X102860000Y-76040010D03*
X99391630Y-83394422D03*
G04 #@! TO.N,vccA*
X134335000Y-84430000D03*
X114564330Y-87047831D03*
G04 #@! TO.N,vccI*
X118050000Y-84850000D03*
X119350000Y-94689924D03*
X115233072Y-89131737D03*
X131215801Y-80834754D03*
X113820000Y-86380000D03*
X132894556Y-89140289D03*
X124520000Y-78560000D03*
X128770611Y-95814572D03*
G04 #@! TO.N,vccC*
X116750001Y-80520000D03*
X131409988Y-89831233D03*
X112246929Y-84749041D03*
X130040058Y-80610120D03*
X123409506Y-79354924D03*
X134335000Y-82950000D03*
X113190953Y-90812144D03*
X130130622Y-95990503D03*
X130069990Y-97350514D03*
G04 #@! TO.N,txd*
X103120000Y-84500000D03*
G04 #@! TO.N,1.8v*
X103895700Y-91274900D03*
X104825000Y-86100000D03*
G04 #@! TO.N,a17*
X115750000Y-93650000D03*
G04 #@! TO.N,a16*
X116999998Y-94050000D03*
G04 #@! TO.N,a15*
X118149999Y-94300001D03*
G04 #@! TO.N,a14*
X123040000Y-94170001D03*
G04 #@! TO.N,a13*
X124037148Y-94689937D03*
G04 #@! TO.N,a12*
X125080000Y-95049945D03*
G04 #@! TO.N,a11*
X126826261Y-95389959D03*
G04 #@! TO.N,a10*
X127770352Y-95749969D03*
G04 #@! TO.N,a9*
X132550000Y-97250000D03*
G04 #@! TO.N,a8*
X133433798Y-96782107D03*
G04 #@! TO.N,a7*
X134500000Y-97449989D03*
G04 #@! TO.N,a6*
X135262285Y-96802741D03*
G04 #@! TO.N,a5*
X136150000Y-96150000D03*
G04 #@! TO.N,a4*
X136021640Y-94970799D03*
G04 #@! TO.N,a3*
X135230000Y-89570000D03*
G04 #@! TO.N,a2*
X136090000Y-90200000D03*
G04 #@! TO.N,a1*
X136890000Y-91300000D03*
G04 #@! TO.N,a0*
X137047638Y-92532362D03*
G04 #@! TO.N,d15*
X112967975Y-91786980D03*
G04 #@! TO.N,d16*
X112619723Y-92724394D03*
G04 #@! TO.N,d17*
X112532254Y-93720573D03*
G04 #@! TO.N,RESET*
X146490000Y-77930000D03*
X93750000Y-74420000D03*
X93750000Y-74420000D03*
X101180000Y-92287500D03*
G04 #@! TO.N,708.17*
X108885043Y-106980000D03*
G04 #@! TO.N,708.1*
X108885043Y-105840000D03*
G04 #@! TO.N,600.17*
X122515937Y-79803851D03*
G04 #@! TO.N,500.17*
X121808885Y-80511029D03*
G04 #@! TO.N,300.17*
X118808025Y-78854740D03*
G04 #@! TO.N,300.1*
X117880000Y-79540002D03*
G04 #@! TO.N,217.17*
X136245600Y-115874800D03*
G04 #@! TO.N,705.1*
X142157514Y-93009166D03*
G04 #@! TO.N,705.3*
X144605000Y-87550000D03*
G04 #@! TO.N,705.5*
X140795000Y-92950000D03*
G04 #@! TO.N,705.17*
X143335000Y-87550000D03*
G04 #@! TO.N,100.17*
X114799999Y-82269999D03*
G04 #@! TO.N,200.17*
X115741555Y-81472395D03*
G04 #@! TO.N,vcc*
X104410000Y-93940000D03*
X106280000Y-85925000D03*
X105380000Y-79870000D03*
X115750000Y-104950000D03*
X108900000Y-104600000D03*
X103120000Y-104600000D03*
G04 #@! TD*
D14*
G04 #@! TO.N,usb3*
X97220000Y-80320000D02*
X97220000Y-82410000D01*
X99195003Y-78344997D02*
X97220000Y-80320000D01*
X102291096Y-75267500D02*
X99213599Y-78344997D01*
X97220000Y-82410000D02*
X97340000Y-82530000D01*
X99213599Y-78344997D02*
X99195003Y-78344997D01*
X103948984Y-75267500D02*
X102291096Y-75267500D01*
X104739444Y-76057960D02*
X103948984Y-75267500D01*
X99345705Y-84535705D02*
X97220000Y-82410000D01*
X99571233Y-84535705D02*
X99345705Y-84535705D01*
G04 #@! TO.N,GND*
X130449110Y-87550000D02*
X130183093Y-87283983D01*
X133630000Y-90093640D02*
X136173640Y-87550000D01*
X133630000Y-91840000D02*
X133630000Y-90093640D01*
X136173640Y-87550000D02*
X140335000Y-87550000D01*
X140335000Y-87550000D02*
X140795000Y-87550000D01*
D15*
G04 #@! TO.N,usb2*
X102860000Y-76040010D02*
X101700000Y-77200010D01*
X99791629Y-82994423D02*
X99391630Y-83394422D01*
X101700000Y-81086052D02*
X99791629Y-82994423D01*
X101700000Y-77200010D02*
X101700000Y-81086052D01*
D14*
G04 #@! TO.N,vccA*
X117852169Y-87047831D02*
X115130015Y-87047831D01*
X129894868Y-84430000D02*
X126939779Y-81474911D01*
X126939779Y-81474911D02*
X123425089Y-81474911D01*
X123425089Y-81474911D02*
X117852169Y-87047831D01*
X134335000Y-84430000D02*
X129894868Y-84430000D01*
X115130015Y-87047831D02*
X114564330Y-87047831D01*
G04 #@! TO.N,vccI*
X123045100Y-81114900D02*
X119310000Y-84850000D01*
X119310000Y-84850000D02*
X118050000Y-84850000D01*
X130670555Y-81380000D02*
X127354000Y-81380000D01*
X127354000Y-81380000D02*
X127088900Y-81114900D01*
X131215801Y-80834754D02*
X130670555Y-81380000D01*
X127088900Y-81114900D02*
X123045100Y-81114900D01*
X113820000Y-86945685D02*
X113820000Y-86380000D01*
X114219999Y-85980001D02*
X113820000Y-86380000D01*
X113820000Y-87718665D02*
X113820000Y-86945685D01*
X115350000Y-84850000D02*
X114219999Y-85980001D01*
X118050000Y-84850000D02*
X115350000Y-84850000D01*
X115233072Y-89131737D02*
X113820000Y-87718665D01*
X132328871Y-89140289D02*
X132894556Y-89140289D01*
X129100000Y-90000000D02*
X129959711Y-89140289D01*
X129959711Y-89140289D02*
X132328871Y-89140289D01*
D15*
X129506732Y-78560000D02*
X125085685Y-78560000D01*
X131215801Y-80269069D02*
X129506732Y-78560000D01*
X125085685Y-78560000D02*
X124520000Y-78560000D01*
X131215801Y-80834754D02*
X131215801Y-80269069D01*
D14*
X136750000Y-84163640D02*
X136750000Y-84719160D01*
X136750000Y-84719160D02*
X132894556Y-88574604D01*
X134011049Y-83630002D02*
X136216362Y-83630002D01*
X132894556Y-88574604D02*
X132894556Y-89140289D01*
X136216362Y-83630002D02*
X136750000Y-84163640D01*
X131215801Y-80834754D02*
X134011049Y-83630002D01*
X129100000Y-90000000D02*
X125740000Y-93360000D01*
X125740000Y-93360000D02*
X120679924Y-93360000D01*
X120679924Y-93360000D02*
X119749999Y-94289925D01*
X119749999Y-94289925D02*
X119350000Y-94689924D01*
X129100000Y-90000000D02*
X128770611Y-90329389D01*
X128770611Y-95248887D02*
X128770611Y-95814572D01*
X128770611Y-90329389D02*
X128770611Y-95248887D01*
G04 #@! TO.N,vccC*
X115147726Y-83383142D02*
X113612828Y-83383142D01*
X113612828Y-83383142D02*
X112646928Y-84349042D01*
X112646928Y-84349042D02*
X112246929Y-84749041D01*
X116750001Y-81780867D02*
X115147726Y-83383142D01*
X116750001Y-80520000D02*
X116750001Y-81780867D01*
X117459201Y-81229200D02*
X122100915Y-81229200D01*
D15*
X123809505Y-79754923D02*
X123409506Y-79354924D01*
X130040058Y-80610120D02*
X124664702Y-80610120D01*
D14*
X116750001Y-80520000D02*
X117459201Y-81229200D01*
X122100915Y-81229200D02*
X123409506Y-79920609D01*
X123409506Y-79920609D02*
X123409506Y-79354924D01*
D15*
X124664702Y-80610120D02*
X123809505Y-79754923D01*
X134335000Y-82950000D02*
X134335000Y-82375000D01*
X123409506Y-78789239D02*
X123409506Y-79354924D01*
X134872500Y-82950000D02*
X134335000Y-82950000D01*
X133860868Y-88780868D02*
X137270000Y-85371736D01*
X136109132Y-82950000D02*
X134872500Y-82950000D01*
X129694998Y-77734998D02*
X124221998Y-77734998D01*
X137270000Y-84110868D02*
X136109132Y-82950000D01*
X137270000Y-85371736D02*
X137270000Y-84110868D01*
X133860868Y-89290000D02*
X133860868Y-88780868D01*
X133050868Y-90100000D02*
X133860868Y-89290000D01*
X131678755Y-90100000D02*
X133050868Y-90100000D01*
X131409988Y-89831233D02*
X131678755Y-90100000D01*
X134335000Y-82375000D02*
X129694998Y-77734998D01*
X123409506Y-78547490D02*
X123409506Y-78789239D01*
X124221998Y-77734998D02*
X123409506Y-78547490D01*
D14*
X112790954Y-90412145D02*
X113190953Y-90812144D01*
X112246929Y-84749041D02*
X112646928Y-85149040D01*
X112646928Y-85149040D02*
X112646928Y-90268119D01*
X112646928Y-90268119D02*
X112790954Y-90412145D01*
D15*
X130530621Y-95590504D02*
X130130622Y-95990503D01*
X131409988Y-94711137D02*
X130530621Y-95590504D01*
X131409988Y-89831233D02*
X131409988Y-94711137D01*
X130130622Y-97289882D02*
X130069990Y-97350514D01*
X130130622Y-95990503D02*
X130130622Y-97289882D01*
D14*
G04 #@! TO.N,txd*
X102720001Y-84899999D02*
X103120000Y-84500000D01*
X100040000Y-87580000D02*
X102720001Y-84899999D01*
X97220000Y-87580000D02*
X100040000Y-87580000D01*
X94235000Y-90565000D02*
X97220000Y-87580000D01*
X94235000Y-91575000D02*
X94235000Y-90565000D01*
G04 #@! TO.N,1.8v*
X103895700Y-87029300D02*
X104825000Y-86100000D01*
X103895700Y-91274900D02*
X103895700Y-87029300D01*
D15*
G04 #@! TO.N,vin*
X99360000Y-101667919D02*
X99360000Y-100070000D01*
X99360000Y-102870000D02*
X99360000Y-101667919D01*
X99360000Y-97269600D02*
X99340800Y-97250400D01*
X99360000Y-100070000D02*
X99360000Y-97269600D01*
X97799999Y-112490001D02*
X97821999Y-112490001D01*
X96950000Y-113340000D02*
X97799999Y-112490001D01*
X99360000Y-110952000D02*
X99360000Y-102870000D01*
X97821999Y-112490001D02*
X99360000Y-110952000D01*
D14*
G04 #@! TO.N,a17*
X110840012Y-92039350D02*
X111575554Y-92774892D01*
X111844391Y-94534817D02*
X114865183Y-94534817D01*
X111575554Y-92774892D02*
X111575554Y-94265980D01*
X114865183Y-94534817D02*
X115350001Y-94049999D01*
X109350000Y-85620000D02*
X110840012Y-87110012D01*
X110840012Y-87110012D02*
X110840012Y-92039350D01*
X115350001Y-94049999D02*
X115750000Y-93650000D01*
X111575554Y-94265980D02*
X111844391Y-94534817D01*
G04 #@! TO.N,a16*
X110480002Y-92188472D02*
X111215545Y-92924015D01*
X109350000Y-88160000D02*
X110480001Y-89290001D01*
X116434313Y-94050000D02*
X116999998Y-94050000D01*
X116384307Y-94050000D02*
X116434313Y-94050000D01*
X112127912Y-95327470D02*
X115106837Y-95327470D01*
X111215545Y-92924015D02*
X111215545Y-94415103D01*
X110480001Y-89290001D02*
X110480002Y-92188472D01*
X115106837Y-95327470D02*
X116384307Y-94050000D01*
X111215545Y-94415103D02*
X112127912Y-95327470D01*
G04 #@! TO.N,a15*
X110855535Y-94564225D02*
X112007079Y-95715769D01*
X109350000Y-91567602D02*
X110855534Y-93073136D01*
X110855534Y-93073136D02*
X110855535Y-94564225D01*
X112007079Y-95715769D02*
X115384582Y-95715769D01*
X115384582Y-95715769D02*
X116300352Y-94799999D01*
X116300352Y-94799999D02*
X117650001Y-94799999D01*
X117750000Y-94700000D02*
X118149999Y-94300001D01*
X109350000Y-90700000D02*
X109350000Y-91567602D01*
X117650001Y-94799999D02*
X117750000Y-94700000D01*
G04 #@! TO.N,a14*
X118201996Y-95369944D02*
X119796599Y-95369944D01*
X117841984Y-95729954D02*
X118201996Y-95369944D01*
X111872142Y-96089964D02*
X115519519Y-96089964D01*
X115879527Y-95729956D02*
X117841984Y-95729954D01*
X115519519Y-96089964D02*
X115879527Y-95729956D01*
X110199999Y-94417821D02*
X111872142Y-96089964D01*
X119796599Y-95369944D02*
X120996542Y-94170001D01*
X109350000Y-93240000D02*
X110199999Y-94089999D01*
X120996542Y-94170001D02*
X122474315Y-94170001D01*
X122474315Y-94170001D02*
X123040000Y-94170001D01*
X110199999Y-94089999D02*
X110199999Y-94417821D01*
G04 #@! TO.N,a13*
X123758060Y-94969025D02*
X124037148Y-94689937D01*
X120766628Y-94969025D02*
X123758060Y-94969025D01*
X120005698Y-95729955D02*
X120766628Y-94969025D01*
X118351117Y-95729955D02*
X120005698Y-95729955D01*
X117991106Y-96089964D02*
X118351117Y-95729955D01*
X115668641Y-96449974D02*
X116028650Y-96089965D01*
X111222055Y-96449974D02*
X115668641Y-96449974D01*
X110552081Y-95780000D02*
X111222055Y-96449974D01*
X116028650Y-96089965D02*
X117991106Y-96089964D01*
X109350000Y-95780000D02*
X110552081Y-95780000D01*
G04 #@! TO.N,a12*
X120180636Y-96089964D02*
X120900653Y-95369947D01*
X116177770Y-96449977D02*
X118140225Y-96449977D01*
X115817758Y-96809989D02*
X116177770Y-96449977D01*
X110646877Y-96809989D02*
X115817758Y-96809989D01*
X118500236Y-96089966D02*
X120180636Y-96089964D01*
X120900653Y-95369947D02*
X124759998Y-95369947D01*
X109350000Y-98320000D02*
X109350000Y-98106866D01*
X124759998Y-95369947D02*
X125080000Y-95049945D01*
X109350000Y-98106866D02*
X110646877Y-96809989D01*
X118140225Y-96449977D02*
X118500236Y-96089966D01*
G04 #@! TO.N,a11*
X110480001Y-99969999D02*
X110480001Y-97485997D01*
X110795998Y-97170000D02*
X115966879Y-97170000D01*
X109350000Y-101100000D02*
X110480001Y-99969999D01*
X126260576Y-95389959D02*
X126826261Y-95389959D01*
X120329758Y-96449974D02*
X121049774Y-95729958D01*
X118649359Y-96449975D02*
X120329758Y-96449974D01*
X115966879Y-97170000D02*
X116326891Y-96809988D01*
X110480001Y-97485997D02*
X110795998Y-97170000D01*
X125920577Y-95729958D02*
X126260576Y-95389959D01*
X121049774Y-95729958D02*
X125920577Y-95729958D01*
X116326891Y-96809988D02*
X118289347Y-96809987D01*
X118289347Y-96809987D02*
X118649359Y-96449975D01*
G04 #@! TO.N,a10*
X121198898Y-96089966D02*
X126782638Y-96089966D01*
X120478878Y-96809986D02*
X121198898Y-96089966D01*
X127450352Y-96069969D02*
X127770352Y-95749969D01*
X113020001Y-99969999D02*
X114630001Y-99969999D01*
X114630001Y-99969999D02*
X115700000Y-98900000D01*
X126782638Y-96089966D02*
X126802637Y-96069969D01*
X111890000Y-101100000D02*
X113020001Y-99969999D01*
X118798480Y-96809986D02*
X120478878Y-96809986D01*
X126802637Y-96069969D02*
X127450352Y-96069969D01*
X118438466Y-97170000D02*
X118798480Y-96809986D01*
X116476012Y-97169999D02*
X118438466Y-97170000D01*
X115700000Y-98900000D02*
X115700000Y-97946011D01*
X115700000Y-97946011D02*
X116476012Y-97169999D01*
G04 #@! TO.N,a9*
X129743589Y-98030515D02*
X130396391Y-98030515D01*
X116952403Y-99969999D02*
X118300000Y-98622402D01*
X118300000Y-97817600D02*
X118947603Y-97169997D01*
X131984315Y-97250000D02*
X132550000Y-97250000D01*
X129389989Y-97676915D02*
X129743589Y-98030515D01*
X128330010Y-96449977D02*
X129389989Y-97509956D01*
X120628000Y-97169996D02*
X121348019Y-96449977D01*
X118300000Y-98622402D02*
X118300000Y-97817600D01*
X115560001Y-99969999D02*
X116952403Y-99969999D01*
X114430000Y-101100000D02*
X115560001Y-99969999D01*
X129389989Y-97509956D02*
X129389989Y-97676915D01*
X130396391Y-98030515D02*
X131176906Y-97250000D01*
X118947603Y-97169997D02*
X120628000Y-97169996D01*
X121348019Y-96449977D02*
X128330010Y-96449977D01*
X131176906Y-97250000D02*
X131984315Y-97250000D01*
G04 #@! TO.N,a8*
X130545513Y-98390525D02*
X130766096Y-98169942D01*
X132611648Y-98169942D02*
X133433798Y-97347792D01*
X128147405Y-96809988D02*
X129029978Y-97692561D01*
X118100001Y-99969999D02*
X119492403Y-99969999D01*
X129029978Y-97692561D02*
X129029979Y-97826037D01*
X119492403Y-99969999D02*
X120800000Y-98662402D01*
X129029979Y-97826037D02*
X129594468Y-98390526D01*
X130766096Y-98169942D02*
X132611648Y-98169942D01*
X129594468Y-98390526D02*
X130545513Y-98390525D01*
X116970000Y-101100000D02*
X118100001Y-99969999D01*
X133433798Y-97347792D02*
X133433798Y-96782107D01*
X120800000Y-98662402D02*
X120800000Y-97857602D01*
X121847614Y-96809988D02*
X128147405Y-96809988D01*
X120800000Y-97857602D02*
X121847614Y-96809988D01*
G04 #@! TO.N,a7*
X124027599Y-97169999D02*
X126719999Y-97169999D01*
X123310000Y-99100000D02*
X123310000Y-97887599D01*
X122440001Y-99969999D02*
X123310000Y-99100000D01*
X120640001Y-99969999D02*
X122440001Y-99969999D01*
X119510000Y-101100000D02*
X120640001Y-99969999D01*
X123310000Y-97887599D02*
X124027599Y-97169999D01*
X126719999Y-97169999D02*
X127869999Y-97169999D01*
X130694635Y-98750535D02*
X130915217Y-98529953D01*
X127869999Y-97209988D02*
X129410546Y-98750535D01*
X129410546Y-98750535D02*
X130694635Y-98750535D01*
X130915217Y-98529953D02*
X132854351Y-98529953D01*
X132854351Y-98529953D02*
X133934315Y-97449989D01*
X133934315Y-97449989D02*
X134500000Y-97449989D01*
G04 #@! TO.N,a6*
X122050000Y-101100000D02*
X123540012Y-99609988D01*
X130804302Y-99150000D02*
X131064338Y-98889964D01*
X128929335Y-99150000D02*
X130804302Y-99150000D01*
X133298174Y-98889964D02*
X134058139Y-98129999D01*
X134826403Y-98129999D02*
X135262285Y-97694117D01*
X135262285Y-97368426D02*
X135262285Y-96802741D01*
X135262285Y-97694117D02*
X135262285Y-97368426D01*
X134058139Y-98129999D02*
X134826403Y-98129999D01*
X123540012Y-99609988D02*
X128469347Y-99609988D01*
X128469347Y-99609988D02*
X128929335Y-99150000D01*
X131064338Y-98889964D02*
X133298174Y-98889964D01*
G04 #@! TO.N,a5*
X131213457Y-99249977D02*
X133447293Y-99249977D01*
X123890000Y-101800000D02*
X125720001Y-99969999D01*
X128618468Y-99969999D02*
X128978479Y-99609989D01*
X136150000Y-96715685D02*
X136150000Y-96150000D01*
X134207260Y-98490010D02*
X134975525Y-98490009D01*
X133447293Y-99249977D02*
X134207260Y-98490010D01*
X130853445Y-99609989D02*
X131213457Y-99249977D01*
X134975525Y-98490009D02*
X136150000Y-97315534D01*
X128978479Y-99609989D02*
X130853445Y-99609989D01*
X136150000Y-97315534D02*
X136150000Y-96715685D01*
X125720001Y-99969999D02*
X128618468Y-99969999D01*
G04 #@! TO.N,a4*
X127997598Y-101100000D02*
X129127600Y-99969998D01*
X134356381Y-98850021D02*
X135124645Y-98850021D01*
X135124645Y-98850021D02*
X136830001Y-97144665D01*
X136830001Y-97144665D02*
X136830001Y-95779160D01*
X127130000Y-101100000D02*
X127997598Y-101100000D01*
X136421639Y-95370798D02*
X136021640Y-94970799D01*
X131362578Y-99609988D02*
X133596415Y-99609987D01*
X136830001Y-95779160D02*
X136421639Y-95370798D01*
X131002568Y-99969998D02*
X131362578Y-99609988D01*
X129127600Y-99969998D02*
X131002568Y-99969998D01*
X133596415Y-99609987D02*
X134356381Y-98850021D01*
G04 #@! TO.N,a3*
X135273767Y-99210031D02*
X137190012Y-97293786D01*
X135230000Y-92764668D02*
X135230000Y-90135685D01*
X135230000Y-90135685D02*
X135230000Y-89570000D01*
X130381698Y-101100000D02*
X131511700Y-99969998D01*
X131511700Y-99969998D02*
X133745537Y-99969997D01*
X133745537Y-99969997D02*
X134505502Y-99210032D01*
X134505502Y-99210032D02*
X135273767Y-99210031D01*
X137190012Y-94724680D02*
X135230000Y-92764668D01*
X137190012Y-97293786D02*
X137190012Y-94724680D01*
X129670000Y-101100000D02*
X130381698Y-101100000D01*
G04 #@! TO.N,a2*
X135690001Y-90599999D02*
X136090000Y-90200000D01*
X135690001Y-92715537D02*
X135690001Y-90599999D01*
X135422889Y-99570041D02*
X137550022Y-97442908D01*
X132210000Y-101100000D02*
X133148193Y-101100000D01*
X137550022Y-94575558D02*
X135690001Y-92715537D01*
X134678152Y-99570041D02*
X135422889Y-99570041D01*
X133148193Y-101100000D02*
X134678152Y-99570041D01*
X137550022Y-97442908D02*
X137550022Y-94575558D01*
G04 #@! TO.N,a1*
X136231705Y-92748109D02*
X136231705Y-91958295D01*
X138000020Y-94516424D02*
X136231705Y-92748109D01*
X136231705Y-91958295D02*
X136490001Y-91699999D01*
X138000020Y-97849980D02*
X138000020Y-94516424D01*
X136490001Y-91699999D02*
X136890000Y-91300000D01*
X134750000Y-101100000D02*
X138000020Y-97849980D01*
G04 #@! TO.N,a0*
X138360031Y-93844755D02*
X137447637Y-92932361D01*
X138360031Y-99019969D02*
X138360031Y-93844755D01*
X137290000Y-101100000D02*
X137290000Y-100090000D01*
X137290000Y-100090000D02*
X138360031Y-99019969D01*
X137447637Y-92932361D02*
X137047638Y-92532362D01*
G04 #@! TO.N,d15*
X111922143Y-90741148D02*
X112567976Y-91386981D01*
X109350000Y-78000000D02*
X110360000Y-78000000D01*
X111566927Y-79206927D02*
X111566927Y-85073827D01*
X112567976Y-91386981D02*
X112967975Y-91786980D01*
X111922143Y-85429043D02*
X111922143Y-90741148D01*
X110360000Y-78000000D02*
X111566927Y-79206927D01*
X111566927Y-85073827D02*
X111922143Y-85429043D01*
G04 #@! TO.N,d16*
X111562132Y-85579780D02*
X111562132Y-91666803D01*
X111060000Y-85077648D02*
X111562132Y-85579780D01*
X111562132Y-91666803D02*
X112219724Y-92324395D01*
X109350000Y-80540000D02*
X111060000Y-82250000D01*
X111060000Y-82250000D02*
X111060000Y-85077648D01*
X112219724Y-92324395D02*
X112619723Y-92724394D01*
G04 #@! TO.N,d17*
X112132255Y-93320574D02*
X112532254Y-93720573D01*
X111202121Y-85728901D02*
X111202123Y-91892329D01*
X110199999Y-84726779D02*
X111202121Y-85728901D01*
X111935565Y-93123884D02*
X112132255Y-93320574D01*
X110199999Y-83929999D02*
X110199999Y-84726779D01*
X109350000Y-83080000D02*
X110199999Y-83929999D01*
X111202123Y-91892329D02*
X111935565Y-92625771D01*
X111935565Y-92625771D02*
X111935565Y-93123884D01*
G04 #@! TO.N,RESET*
X144290000Y-90390000D02*
X147500000Y-90390000D01*
X142265400Y-88365400D02*
X144290000Y-90390000D01*
X142265400Y-85725000D02*
X142265400Y-88365400D01*
X146490000Y-81500400D02*
X142265400Y-85725000D01*
X146490000Y-77930000D02*
X146490000Y-81500400D01*
X92730000Y-75440000D02*
X93750000Y-74420000D01*
X92730000Y-92274002D02*
X92730000Y-75440000D01*
X93415998Y-92960000D02*
X92730000Y-92274002D01*
X100507500Y-92960000D02*
X93415998Y-92960000D01*
X101180000Y-92287500D02*
X100507500Y-92960000D01*
G04 #@! TO.N,708.17*
X148353500Y-106980000D02*
X109450728Y-106980000D01*
X157289500Y-98044000D02*
X148353500Y-106980000D01*
X109450728Y-106980000D02*
X108885043Y-106980000D01*
G04 #@! TO.N,708.1*
X157289500Y-95504000D02*
X146953500Y-105840000D01*
X146953500Y-105840000D02*
X109450728Y-105840000D01*
X109450728Y-105840000D02*
X108885043Y-105840000D01*
G04 #@! TO.N,600.17*
X122224800Y-79512714D02*
X122515937Y-79803851D01*
X122224800Y-78181200D02*
X122224800Y-79512714D01*
X123156002Y-77249998D02*
X122224800Y-78181200D01*
X150935398Y-77249998D02*
X123156002Y-77249998D01*
X151409400Y-77724000D02*
X150935398Y-77249998D01*
X157289500Y-77724000D02*
X151409400Y-77724000D01*
G04 #@! TO.N,500.17*
X121564400Y-80266544D02*
X121808885Y-80511029D01*
X121564400Y-78016100D02*
X121564400Y-80266544D01*
X122690512Y-76889988D02*
X121564400Y-78016100D01*
X150897212Y-76889988D02*
X122690512Y-76889988D01*
X152603200Y-75184000D02*
X150897212Y-76889988D01*
X157289500Y-75184000D02*
X152603200Y-75184000D01*
G04 #@! TO.N,300.17*
X107125011Y-114515389D02*
X107125011Y-74975857D01*
X118180000Y-78226715D02*
X118408026Y-78454741D01*
X107125011Y-74975857D02*
X108390880Y-73709988D01*
X108390880Y-73709988D02*
X117249989Y-73709989D01*
X117249989Y-73709989D02*
X118180000Y-74640000D01*
X118180000Y-74640000D02*
X118180000Y-78226715D01*
X105765600Y-115874800D02*
X107125011Y-114515389D01*
X118408026Y-78454741D02*
X118808025Y-78854740D01*
G04 #@! TO.N,300.1*
X110610000Y-75642402D02*
X114507600Y-79540002D01*
X114507600Y-79540002D02*
X117314315Y-79540002D01*
X108305600Y-115874800D02*
X108305600Y-114672719D01*
X117314315Y-79540002D02*
X117880000Y-79540002D01*
X110610000Y-74610000D02*
X110610000Y-75642402D01*
X110069999Y-74069999D02*
X110610000Y-74610000D01*
X108540001Y-74069999D02*
X110069999Y-74069999D01*
X107485021Y-75124979D02*
X108540001Y-74069999D01*
X107485021Y-113852140D02*
X107485021Y-75124979D01*
X108305600Y-114672719D02*
X107485021Y-113852140D01*
G04 #@! TO.N,705.1*
X142557513Y-93409165D02*
X142157514Y-93009166D01*
X144028348Y-94880000D02*
X142557513Y-93409165D01*
X155373500Y-94880000D02*
X144028348Y-94880000D01*
X157289500Y-92964000D02*
X155373500Y-94880000D01*
G04 #@! TO.N,705.3*
X144605000Y-87569300D02*
X144605000Y-87550000D01*
X146215700Y-89180000D02*
X144605000Y-87569300D01*
X154843419Y-89180000D02*
X146215700Y-89180000D01*
X156087419Y-90424000D02*
X154843419Y-89180000D01*
X157289500Y-90424000D02*
X156087419Y-90424000D01*
G04 #@! TO.N,705.5*
X140795000Y-92923100D02*
X140795000Y-92950000D01*
X143400000Y-92100000D02*
X141618100Y-92100000D01*
X145360001Y-94060001D02*
X143400000Y-92100000D01*
X150089999Y-94060001D02*
X145360001Y-94060001D01*
X152450000Y-91700000D02*
X150089999Y-94060001D01*
X157940000Y-91700000D02*
X152450000Y-91700000D01*
X158590000Y-91050000D02*
X157940000Y-91700000D01*
X141618100Y-92100000D02*
X140795000Y-92923100D01*
X158590000Y-89184500D02*
X158590000Y-91050000D01*
X157289500Y-87884000D02*
X158590000Y-89184500D01*
G04 #@! TO.N,705.17*
X145541000Y-85344000D02*
X143335000Y-87550000D01*
X157289500Y-85344000D02*
X145541000Y-85344000D01*
G04 #@! TO.N,100.17*
X113385600Y-115874800D02*
X108205042Y-110694242D01*
X108205042Y-110694242D02*
X108205042Y-76940956D01*
X108275999Y-76869999D02*
X110424001Y-76869999D01*
X110424001Y-76869999D02*
X114799999Y-81245997D01*
X114799999Y-81245997D02*
X114799999Y-81704314D01*
X108205042Y-76940956D02*
X108275999Y-76869999D01*
X114799999Y-81704314D02*
X114799999Y-82269999D01*
G04 #@! TO.N,200.17*
X107845031Y-112874231D02*
X107845031Y-76791835D01*
X115341556Y-81072396D02*
X115741555Y-81472395D01*
X110599161Y-76330001D02*
X115341556Y-81072396D01*
X110845600Y-115874800D02*
X107845031Y-112874231D01*
X107845031Y-76791835D02*
X108306865Y-76330001D01*
X108306865Y-76330001D02*
X110599161Y-76330001D01*
G04 #@! TO.N,vcc*
X97695634Y-115740000D02*
X96140000Y-115740000D01*
D15*
X96950000Y-115880000D02*
X103120000Y-109710000D01*
X103120000Y-109710000D02*
X103120000Y-97450000D01*
X104410000Y-93940000D02*
X104410000Y-94200000D01*
X104410000Y-94200000D02*
X103120000Y-95490000D01*
X103120000Y-95490000D02*
X103120000Y-97450000D01*
D14*
X103120000Y-97450000D02*
X103120000Y-97175000D01*
D15*
X106280000Y-80804988D02*
X106280000Y-85359315D01*
X105350012Y-79875000D02*
X106280000Y-80804988D01*
X106280000Y-85359315D02*
X106280000Y-85925000D01*
D16*
X109250000Y-104950000D02*
X108900000Y-104600000D01*
X115750000Y-104950000D02*
X109250000Y-104950000D01*
G04 #@! TD*
G04 #@! TO.N,GND*
G36*
X159164918Y-117805112D02*
X92365082Y-117824889D01*
X92365542Y-115740000D01*
X95752556Y-115740000D01*
X95778937Y-115872629D01*
X95777471Y-115880000D01*
X95866724Y-116328707D01*
X96120897Y-116709103D01*
X96501293Y-116963276D01*
X96836739Y-117030000D01*
X97063261Y-117030000D01*
X97398707Y-116963276D01*
X97779103Y-116709103D01*
X98033276Y-116328707D01*
X98122529Y-115880000D01*
X98121495Y-115874800D01*
X104593071Y-115874800D01*
X104682324Y-116323507D01*
X104936497Y-116703903D01*
X105316893Y-116958076D01*
X105652339Y-117024800D01*
X105878861Y-117024800D01*
X106214307Y-116958076D01*
X106594703Y-116703903D01*
X106848876Y-116323507D01*
X106938129Y-115874800D01*
X106848876Y-115426093D01*
X106809956Y-115367845D01*
X107367253Y-114810549D01*
X107398975Y-114789353D01*
X107420171Y-114757631D01*
X107420174Y-114757628D01*
X107482962Y-114663659D01*
X107482962Y-114663658D01*
X107482963Y-114663657D01*
X107505011Y-114552813D01*
X107505011Y-114552809D01*
X107512454Y-114515390D01*
X107505011Y-114477971D01*
X107505011Y-114409530D01*
X107882008Y-114786528D01*
X107856893Y-114791524D01*
X107476497Y-115045697D01*
X107222324Y-115426093D01*
X107133071Y-115874800D01*
X107222324Y-116323507D01*
X107476497Y-116703903D01*
X107856893Y-116958076D01*
X108192339Y-117024800D01*
X108418861Y-117024800D01*
X108754307Y-116958076D01*
X109134703Y-116703903D01*
X109388876Y-116323507D01*
X109478129Y-115874800D01*
X109388876Y-115426093D01*
X109134703Y-115045697D01*
X108754307Y-114791524D01*
X108685600Y-114777857D01*
X108685600Y-114710138D01*
X108693043Y-114672719D01*
X108685600Y-114635300D01*
X108685600Y-114635295D01*
X108663552Y-114524451D01*
X108579564Y-114398755D01*
X108547838Y-114377557D01*
X107865021Y-113694740D01*
X107865021Y-113431621D01*
X109801244Y-115367845D01*
X109762324Y-115426093D01*
X109673071Y-115874800D01*
X109762324Y-116323507D01*
X110016497Y-116703903D01*
X110396893Y-116958076D01*
X110732339Y-117024800D01*
X110958861Y-117024800D01*
X111294307Y-116958076D01*
X111674703Y-116703903D01*
X111928876Y-116323507D01*
X112018129Y-115874800D01*
X111928876Y-115426093D01*
X111674703Y-115045697D01*
X111294307Y-114791524D01*
X110958861Y-114724800D01*
X110732339Y-114724800D01*
X110396893Y-114791524D01*
X110338645Y-114830444D01*
X108225031Y-112716831D01*
X108225031Y-111251631D01*
X112341244Y-115367846D01*
X112302324Y-115426093D01*
X112213071Y-115874800D01*
X112302324Y-116323507D01*
X112556497Y-116703903D01*
X112936893Y-116958076D01*
X113272339Y-117024800D01*
X113498861Y-117024800D01*
X113834307Y-116958076D01*
X114214703Y-116703903D01*
X114468876Y-116323507D01*
X114558129Y-115874800D01*
X114753071Y-115874800D01*
X114842324Y-116323507D01*
X115096497Y-116703903D01*
X115476893Y-116958076D01*
X115812339Y-117024800D01*
X116038861Y-117024800D01*
X116374307Y-116958076D01*
X116754703Y-116703903D01*
X117008876Y-116323507D01*
X117098129Y-115874800D01*
X117293071Y-115874800D01*
X117382324Y-116323507D01*
X117636497Y-116703903D01*
X118016893Y-116958076D01*
X118352339Y-117024800D01*
X118578861Y-117024800D01*
X118914307Y-116958076D01*
X119294703Y-116703903D01*
X119548876Y-116323507D01*
X119638129Y-115874800D01*
X119833071Y-115874800D01*
X119922324Y-116323507D01*
X120176497Y-116703903D01*
X120556893Y-116958076D01*
X120892339Y-117024800D01*
X121118861Y-117024800D01*
X121454307Y-116958076D01*
X121834703Y-116703903D01*
X122088876Y-116323507D01*
X122178129Y-115874800D01*
X122373071Y-115874800D01*
X122462324Y-116323507D01*
X122716497Y-116703903D01*
X123096893Y-116958076D01*
X123432339Y-117024800D01*
X123658861Y-117024800D01*
X123994307Y-116958076D01*
X124374703Y-116703903D01*
X124628876Y-116323507D01*
X124718129Y-115874800D01*
X124913071Y-115874800D01*
X125002324Y-116323507D01*
X125256497Y-116703903D01*
X125636893Y-116958076D01*
X125972339Y-117024800D01*
X126198861Y-117024800D01*
X126534307Y-116958076D01*
X126914703Y-116703903D01*
X127168876Y-116323507D01*
X127258129Y-115874800D01*
X127453071Y-115874800D01*
X127542324Y-116323507D01*
X127796497Y-116703903D01*
X128176893Y-116958076D01*
X128512339Y-117024800D01*
X128738861Y-117024800D01*
X129074307Y-116958076D01*
X129454703Y-116703903D01*
X129708876Y-116323507D01*
X129798129Y-115874800D01*
X129993071Y-115874800D01*
X130082324Y-116323507D01*
X130336497Y-116703903D01*
X130716893Y-116958076D01*
X131052339Y-117024800D01*
X131278861Y-117024800D01*
X131614307Y-116958076D01*
X131994703Y-116703903D01*
X132248876Y-116323507D01*
X132338129Y-115874800D01*
X132533071Y-115874800D01*
X132622324Y-116323507D01*
X132876497Y-116703903D01*
X133256893Y-116958076D01*
X133592339Y-117024800D01*
X133818861Y-117024800D01*
X134154307Y-116958076D01*
X134534703Y-116703903D01*
X134788876Y-116323507D01*
X134878129Y-115874800D01*
X135073071Y-115874800D01*
X135162324Y-116323507D01*
X135416497Y-116703903D01*
X135796893Y-116958076D01*
X136132339Y-117024800D01*
X136358861Y-117024800D01*
X136694307Y-116958076D01*
X137074703Y-116703903D01*
X137328876Y-116323507D01*
X137418129Y-115874800D01*
X137613071Y-115874800D01*
X137702324Y-116323507D01*
X137956497Y-116703903D01*
X138336893Y-116958076D01*
X138672339Y-117024800D01*
X138898861Y-117024800D01*
X139234307Y-116958076D01*
X139614703Y-116703903D01*
X139868876Y-116323507D01*
X139958129Y-115874800D01*
X140153071Y-115874800D01*
X140242324Y-116323507D01*
X140496497Y-116703903D01*
X140876893Y-116958076D01*
X141212339Y-117024800D01*
X141438861Y-117024800D01*
X141774307Y-116958076D01*
X142154703Y-116703903D01*
X142408876Y-116323507D01*
X142498129Y-115874800D01*
X142693071Y-115874800D01*
X142782324Y-116323507D01*
X143036497Y-116703903D01*
X143416893Y-116958076D01*
X143752339Y-117024800D01*
X143978861Y-117024800D01*
X144314307Y-116958076D01*
X144694703Y-116703903D01*
X144948876Y-116323507D01*
X145038129Y-115874800D01*
X145233071Y-115874800D01*
X145322324Y-116323507D01*
X145576497Y-116703903D01*
X145956893Y-116958076D01*
X146292339Y-117024800D01*
X146518861Y-117024800D01*
X146854307Y-116958076D01*
X147234703Y-116703903D01*
X147488876Y-116323507D01*
X147578129Y-115874800D01*
X147488876Y-115426093D01*
X147234703Y-115045697D01*
X147203429Y-115024800D01*
X147789723Y-115024800D01*
X147789723Y-116724800D01*
X147813007Y-116841854D01*
X147879312Y-116941088D01*
X147978546Y-117007393D01*
X148095600Y-117030677D01*
X149795600Y-117030677D01*
X149912654Y-117007393D01*
X150011888Y-116941088D01*
X150078193Y-116841854D01*
X150101477Y-116724800D01*
X150101477Y-115824000D01*
X156116971Y-115824000D01*
X156206224Y-116272707D01*
X156460397Y-116653103D01*
X156840793Y-116907276D01*
X157176239Y-116974000D01*
X157402761Y-116974000D01*
X157738207Y-116907276D01*
X158118603Y-116653103D01*
X158372776Y-116272707D01*
X158462029Y-115824000D01*
X158372776Y-115375293D01*
X158118603Y-114994897D01*
X157738207Y-114740724D01*
X157402761Y-114674000D01*
X157176239Y-114674000D01*
X156840793Y-114740724D01*
X156460397Y-114994897D01*
X156206224Y-115375293D01*
X156116971Y-115824000D01*
X150101477Y-115824000D01*
X150101477Y-115024800D01*
X150078193Y-114907746D01*
X150011888Y-114808512D01*
X149912654Y-114742207D01*
X149795600Y-114718923D01*
X148095600Y-114718923D01*
X147978546Y-114742207D01*
X147879312Y-114808512D01*
X147813007Y-114907746D01*
X147789723Y-115024800D01*
X147203429Y-115024800D01*
X146854307Y-114791524D01*
X146518861Y-114724800D01*
X146292339Y-114724800D01*
X145956893Y-114791524D01*
X145576497Y-115045697D01*
X145322324Y-115426093D01*
X145233071Y-115874800D01*
X145038129Y-115874800D01*
X144948876Y-115426093D01*
X144694703Y-115045697D01*
X144314307Y-114791524D01*
X143978861Y-114724800D01*
X143752339Y-114724800D01*
X143416893Y-114791524D01*
X143036497Y-115045697D01*
X142782324Y-115426093D01*
X142693071Y-115874800D01*
X142498129Y-115874800D01*
X142408876Y-115426093D01*
X142154703Y-115045697D01*
X141774307Y-114791524D01*
X141438861Y-114724800D01*
X141212339Y-114724800D01*
X140876893Y-114791524D01*
X140496497Y-115045697D01*
X140242324Y-115426093D01*
X140153071Y-115874800D01*
X139958129Y-115874800D01*
X139868876Y-115426093D01*
X139614703Y-115045697D01*
X139234307Y-114791524D01*
X138898861Y-114724800D01*
X138672339Y-114724800D01*
X138336893Y-114791524D01*
X137956497Y-115045697D01*
X137702324Y-115426093D01*
X137613071Y-115874800D01*
X137418129Y-115874800D01*
X137328876Y-115426093D01*
X137074703Y-115045697D01*
X136694307Y-114791524D01*
X136358861Y-114724800D01*
X136132339Y-114724800D01*
X135796893Y-114791524D01*
X135416497Y-115045697D01*
X135162324Y-115426093D01*
X135073071Y-115874800D01*
X134878129Y-115874800D01*
X134788876Y-115426093D01*
X134534703Y-115045697D01*
X134154307Y-114791524D01*
X133818861Y-114724800D01*
X133592339Y-114724800D01*
X133256893Y-114791524D01*
X132876497Y-115045697D01*
X132622324Y-115426093D01*
X132533071Y-115874800D01*
X132338129Y-115874800D01*
X132248876Y-115426093D01*
X131994703Y-115045697D01*
X131614307Y-114791524D01*
X131278861Y-114724800D01*
X131052339Y-114724800D01*
X130716893Y-114791524D01*
X130336497Y-115045697D01*
X130082324Y-115426093D01*
X129993071Y-115874800D01*
X129798129Y-115874800D01*
X129708876Y-115426093D01*
X129454703Y-115045697D01*
X129074307Y-114791524D01*
X128738861Y-114724800D01*
X128512339Y-114724800D01*
X128176893Y-114791524D01*
X127796497Y-115045697D01*
X127542324Y-115426093D01*
X127453071Y-115874800D01*
X127258129Y-115874800D01*
X127168876Y-115426093D01*
X126914703Y-115045697D01*
X126534307Y-114791524D01*
X126198861Y-114724800D01*
X125972339Y-114724800D01*
X125636893Y-114791524D01*
X125256497Y-115045697D01*
X125002324Y-115426093D01*
X124913071Y-115874800D01*
X124718129Y-115874800D01*
X124628876Y-115426093D01*
X124374703Y-115045697D01*
X123994307Y-114791524D01*
X123658861Y-114724800D01*
X123432339Y-114724800D01*
X123096893Y-114791524D01*
X122716497Y-115045697D01*
X122462324Y-115426093D01*
X122373071Y-115874800D01*
X122178129Y-115874800D01*
X122088876Y-115426093D01*
X121834703Y-115045697D01*
X121454307Y-114791524D01*
X121118861Y-114724800D01*
X120892339Y-114724800D01*
X120556893Y-114791524D01*
X120176497Y-115045697D01*
X119922324Y-115426093D01*
X119833071Y-115874800D01*
X119638129Y-115874800D01*
X119548876Y-115426093D01*
X119294703Y-115045697D01*
X118914307Y-114791524D01*
X118578861Y-114724800D01*
X118352339Y-114724800D01*
X118016893Y-114791524D01*
X117636497Y-115045697D01*
X117382324Y-115426093D01*
X117293071Y-115874800D01*
X117098129Y-115874800D01*
X117008876Y-115426093D01*
X116754703Y-115045697D01*
X116374307Y-114791524D01*
X116038861Y-114724800D01*
X115812339Y-114724800D01*
X115476893Y-114791524D01*
X115096497Y-115045697D01*
X114842324Y-115426093D01*
X114753071Y-115874800D01*
X114558129Y-115874800D01*
X114468876Y-115426093D01*
X114214703Y-115045697D01*
X113834307Y-114791524D01*
X113498861Y-114724800D01*
X113272339Y-114724800D01*
X112936893Y-114791524D01*
X112878646Y-114830444D01*
X111332202Y-113284000D01*
X156116971Y-113284000D01*
X156206224Y-113732707D01*
X156460397Y-114113103D01*
X156840793Y-114367276D01*
X157176239Y-114434000D01*
X157402761Y-114434000D01*
X157738207Y-114367276D01*
X158118603Y-114113103D01*
X158372776Y-113732707D01*
X158462029Y-113284000D01*
X158372776Y-112835293D01*
X158118603Y-112454897D01*
X157738207Y-112200724D01*
X157402761Y-112134000D01*
X157176239Y-112134000D01*
X156840793Y-112200724D01*
X156460397Y-112454897D01*
X156206224Y-112835293D01*
X156116971Y-113284000D01*
X111332202Y-113284000D01*
X108792201Y-110744000D01*
X156116971Y-110744000D01*
X156206224Y-111192707D01*
X156460397Y-111573103D01*
X156840793Y-111827276D01*
X157176239Y-111894000D01*
X157402761Y-111894000D01*
X157738207Y-111827276D01*
X158118603Y-111573103D01*
X158372776Y-111192707D01*
X158462029Y-110744000D01*
X158372776Y-110295293D01*
X158118603Y-109914897D01*
X157738207Y-109660724D01*
X157402761Y-109594000D01*
X157176239Y-109594000D01*
X156840793Y-109660724D01*
X156460397Y-109914897D01*
X156206224Y-110295293D01*
X156116971Y-110744000D01*
X108792201Y-110744000D01*
X108585042Y-110536842D01*
X108585042Y-108204000D01*
X156116971Y-108204000D01*
X156206224Y-108652707D01*
X156460397Y-109033103D01*
X156840793Y-109287276D01*
X157176239Y-109354000D01*
X157402761Y-109354000D01*
X157738207Y-109287276D01*
X158118603Y-109033103D01*
X158372776Y-108652707D01*
X158462029Y-108204000D01*
X158372776Y-107755293D01*
X158118603Y-107374897D01*
X157738207Y-107120724D01*
X157402761Y-107054000D01*
X157176239Y-107054000D01*
X156840793Y-107120724D01*
X156460397Y-107374897D01*
X156206224Y-107755293D01*
X156116971Y-108204000D01*
X108585042Y-108204000D01*
X108585042Y-107613410D01*
X108745804Y-107680000D01*
X109024282Y-107680000D01*
X109281561Y-107573432D01*
X109478475Y-107376518D01*
X109485317Y-107360000D01*
X148316081Y-107360000D01*
X148353500Y-107367443D01*
X148390919Y-107360000D01*
X148390924Y-107360000D01*
X148501768Y-107337952D01*
X148627464Y-107253964D01*
X148648664Y-107222236D01*
X150206900Y-105664000D01*
X156116971Y-105664000D01*
X156206224Y-106112707D01*
X156460397Y-106493103D01*
X156840793Y-106747276D01*
X157176239Y-106814000D01*
X157402761Y-106814000D01*
X157738207Y-106747276D01*
X158118603Y-106493103D01*
X158372776Y-106112707D01*
X158462029Y-105664000D01*
X158372776Y-105215293D01*
X158118603Y-104834897D01*
X157738207Y-104580724D01*
X157402761Y-104514000D01*
X157176239Y-104514000D01*
X156840793Y-104580724D01*
X156460397Y-104834897D01*
X156206224Y-105215293D01*
X156116971Y-105664000D01*
X150206900Y-105664000D01*
X152746900Y-103124000D01*
X156116971Y-103124000D01*
X156206224Y-103572707D01*
X156460397Y-103953103D01*
X156840793Y-104207276D01*
X157176239Y-104274000D01*
X157402761Y-104274000D01*
X157738207Y-104207276D01*
X158118603Y-103953103D01*
X158372776Y-103572707D01*
X158462029Y-103124000D01*
X158372776Y-102675293D01*
X158118603Y-102294897D01*
X157738207Y-102040724D01*
X157402761Y-101974000D01*
X157176239Y-101974000D01*
X156840793Y-102040724D01*
X156460397Y-102294897D01*
X156206224Y-102675293D01*
X156116971Y-103124000D01*
X152746900Y-103124000D01*
X155286901Y-100584000D01*
X156116971Y-100584000D01*
X156206224Y-101032707D01*
X156460397Y-101413103D01*
X156840793Y-101667276D01*
X157176239Y-101734000D01*
X157402761Y-101734000D01*
X157738207Y-101667276D01*
X158118603Y-101413103D01*
X158372776Y-101032707D01*
X158462029Y-100584000D01*
X158372776Y-100135293D01*
X158118603Y-99754897D01*
X157738207Y-99500724D01*
X157402761Y-99434000D01*
X157176239Y-99434000D01*
X156840793Y-99500724D01*
X156460397Y-99754897D01*
X156206224Y-100135293D01*
X156116971Y-100584000D01*
X155286901Y-100584000D01*
X156782546Y-99088356D01*
X156840793Y-99127276D01*
X157176239Y-99194000D01*
X157402761Y-99194000D01*
X157738207Y-99127276D01*
X158118603Y-98873103D01*
X158372776Y-98492707D01*
X158462029Y-98044000D01*
X158372776Y-97595293D01*
X158118603Y-97214897D01*
X157738207Y-96960724D01*
X157402761Y-96894000D01*
X157176239Y-96894000D01*
X156840793Y-96960724D01*
X156460397Y-97214897D01*
X156206224Y-97595293D01*
X156116971Y-98044000D01*
X156206224Y-98492707D01*
X156245144Y-98550954D01*
X148196100Y-106600000D01*
X109485317Y-106600000D01*
X109478475Y-106583482D01*
X109304993Y-106410000D01*
X109478475Y-106236518D01*
X109485317Y-106220000D01*
X146916081Y-106220000D01*
X146953500Y-106227443D01*
X146990919Y-106220000D01*
X146990924Y-106220000D01*
X147101768Y-106197952D01*
X147227464Y-106113964D01*
X147248664Y-106082236D01*
X156782546Y-96548356D01*
X156840793Y-96587276D01*
X157176239Y-96654000D01*
X157402761Y-96654000D01*
X157738207Y-96587276D01*
X158118603Y-96333103D01*
X158372776Y-95952707D01*
X158462029Y-95504000D01*
X158372776Y-95055293D01*
X158118603Y-94674897D01*
X157738207Y-94420724D01*
X157402761Y-94354000D01*
X157176239Y-94354000D01*
X156840793Y-94420724D01*
X156460397Y-94674897D01*
X156206224Y-95055293D01*
X156116971Y-95504000D01*
X156206224Y-95952707D01*
X156245144Y-96010954D01*
X146796100Y-105460000D01*
X116229950Y-105460000D01*
X116343432Y-105346518D01*
X116416057Y-105171183D01*
X141096605Y-105171183D01*
X141153771Y-105288543D01*
X141462755Y-105364821D01*
X141777408Y-105317050D01*
X141846229Y-105288543D01*
X141903395Y-105171183D01*
X141500000Y-104767789D01*
X141096605Y-105171183D01*
X116416057Y-105171183D01*
X116450000Y-105089239D01*
X116450000Y-104810761D01*
X116343432Y-104553482D01*
X116302705Y-104512755D01*
X140685179Y-104512755D01*
X140732950Y-104827408D01*
X140761457Y-104896229D01*
X140878817Y-104953395D01*
X141282211Y-104550000D01*
X141717789Y-104550000D01*
X142121183Y-104953395D01*
X142238543Y-104896229D01*
X142314821Y-104587245D01*
X142285008Y-104390870D01*
X142600000Y-104390870D01*
X142600000Y-104709130D01*
X142721793Y-105003164D01*
X142946836Y-105228207D01*
X143240870Y-105350000D01*
X143559130Y-105350000D01*
X143853164Y-105228207D01*
X144078207Y-105003164D01*
X144200000Y-104709130D01*
X144200000Y-104390870D01*
X144078207Y-104096836D01*
X143853164Y-103871793D01*
X143559130Y-103750000D01*
X143240870Y-103750000D01*
X142946836Y-103871793D01*
X142721793Y-104096836D01*
X142600000Y-104390870D01*
X142285008Y-104390870D01*
X142267050Y-104272592D01*
X142238543Y-104203771D01*
X142121183Y-104146605D01*
X141717789Y-104550000D01*
X141282211Y-104550000D01*
X140878817Y-104146605D01*
X140761457Y-104203771D01*
X140685179Y-104512755D01*
X116302705Y-104512755D01*
X116146518Y-104356568D01*
X115889239Y-104250000D01*
X115610761Y-104250000D01*
X115353482Y-104356568D01*
X115160050Y-104550000D01*
X109600000Y-104550000D01*
X109600000Y-104460761D01*
X109493432Y-104203482D01*
X109296518Y-104006568D01*
X109108810Y-103928817D01*
X141096605Y-103928817D01*
X141500000Y-104332211D01*
X141903395Y-103928817D01*
X141846229Y-103811457D01*
X141537245Y-103735179D01*
X141222592Y-103782950D01*
X141153771Y-103811457D01*
X141096605Y-103928817D01*
X109108810Y-103928817D01*
X109039239Y-103900000D01*
X108760761Y-103900000D01*
X108585042Y-103972785D01*
X108585042Y-101971963D01*
X108901293Y-102183276D01*
X109236739Y-102250000D01*
X109463261Y-102250000D01*
X109798707Y-102183276D01*
X110179103Y-101929103D01*
X110433276Y-101548707D01*
X110522529Y-101100000D01*
X110433276Y-100651293D01*
X110394356Y-100593045D01*
X110722241Y-100265160D01*
X110753965Y-100243963D01*
X110775165Y-100212236D01*
X110799398Y-100175969D01*
X110837953Y-100118267D01*
X110860001Y-100007423D01*
X110860001Y-100007418D01*
X110867444Y-99969999D01*
X110860001Y-99932580D01*
X110860001Y-99383853D01*
X110932946Y-99432593D01*
X111050000Y-99455877D01*
X112750000Y-99455877D01*
X112867054Y-99432593D01*
X112966288Y-99366288D01*
X113032593Y-99267054D01*
X113055877Y-99150000D01*
X113055877Y-97550000D01*
X113558042Y-97550000D01*
X113356724Y-97851293D01*
X113267471Y-98300000D01*
X113356724Y-98748707D01*
X113610897Y-99129103D01*
X113991293Y-99383276D01*
X114326739Y-99450000D01*
X114553261Y-99450000D01*
X114627334Y-99435266D01*
X114472601Y-99589999D01*
X113057420Y-99589999D01*
X113020001Y-99582556D01*
X112982582Y-99589999D01*
X112982577Y-99589999D01*
X112871733Y-99612047D01*
X112833760Y-99637420D01*
X112777765Y-99674835D01*
X112746037Y-99696035D01*
X112724839Y-99727760D01*
X112396955Y-100055644D01*
X112338707Y-100016724D01*
X112003261Y-99950000D01*
X111776739Y-99950000D01*
X111441293Y-100016724D01*
X111060897Y-100270897D01*
X110806724Y-100651293D01*
X110717471Y-101100000D01*
X110806724Y-101548707D01*
X111060897Y-101929103D01*
X111441293Y-102183276D01*
X111776739Y-102250000D01*
X112003261Y-102250000D01*
X112338707Y-102183276D01*
X112719103Y-101929103D01*
X112973276Y-101548707D01*
X113062529Y-101100000D01*
X112973276Y-100651293D01*
X112934356Y-100593045D01*
X113177402Y-100349999D01*
X113548043Y-100349999D01*
X113346724Y-100651293D01*
X113257471Y-101100000D01*
X113346724Y-101548707D01*
X113600897Y-101929103D01*
X113981293Y-102183276D01*
X114316739Y-102250000D01*
X114543261Y-102250000D01*
X114878707Y-102183276D01*
X115259103Y-101929103D01*
X115513276Y-101548707D01*
X115602529Y-101100000D01*
X115513276Y-100651293D01*
X115474356Y-100593045D01*
X115717402Y-100349999D01*
X116088043Y-100349999D01*
X115886724Y-100651293D01*
X115797471Y-101100000D01*
X115886724Y-101548707D01*
X116140897Y-101929103D01*
X116521293Y-102183276D01*
X116856739Y-102250000D01*
X117083261Y-102250000D01*
X117418707Y-102183276D01*
X117799103Y-101929103D01*
X118053276Y-101548707D01*
X118142529Y-101100000D01*
X118053276Y-100651293D01*
X118014356Y-100593045D01*
X118257402Y-100349999D01*
X118628043Y-100349999D01*
X118426724Y-100651293D01*
X118337471Y-101100000D01*
X118426724Y-101548707D01*
X118680897Y-101929103D01*
X119061293Y-102183276D01*
X119396739Y-102250000D01*
X119623261Y-102250000D01*
X119958707Y-102183276D01*
X120339103Y-101929103D01*
X120593276Y-101548707D01*
X120682529Y-101100000D01*
X120593276Y-100651293D01*
X120554356Y-100593045D01*
X120797402Y-100349999D01*
X121168043Y-100349999D01*
X120966724Y-100651293D01*
X120877471Y-101100000D01*
X120966724Y-101548707D01*
X121220897Y-101929103D01*
X121601293Y-102183276D01*
X121936739Y-102250000D01*
X122163261Y-102250000D01*
X122498707Y-102183276D01*
X122879103Y-101929103D01*
X123133276Y-101548707D01*
X123222529Y-101100000D01*
X123133276Y-100651293D01*
X123094356Y-100593045D01*
X123697413Y-99989988D01*
X124275705Y-99989988D01*
X124141293Y-100016724D01*
X123760897Y-100270897D01*
X123506724Y-100651293D01*
X123417471Y-101100000D01*
X123506724Y-101548707D01*
X123553806Y-101619170D01*
X123532049Y-101651732D01*
X123502557Y-101800000D01*
X123532049Y-101948268D01*
X123616036Y-102073964D01*
X123741732Y-102157951D01*
X123890000Y-102187443D01*
X124038268Y-102157951D01*
X124070830Y-102136194D01*
X124141293Y-102183276D01*
X124476739Y-102250000D01*
X124703261Y-102250000D01*
X125038707Y-102183276D01*
X125419103Y-101929103D01*
X125673276Y-101548707D01*
X125762529Y-101100000D01*
X125673276Y-100651293D01*
X125634356Y-100593045D01*
X125877402Y-100349999D01*
X126248043Y-100349999D01*
X126046724Y-100651293D01*
X125957471Y-101100000D01*
X126046724Y-101548707D01*
X126300897Y-101929103D01*
X126681293Y-102183276D01*
X127016739Y-102250000D01*
X127243261Y-102250000D01*
X127578707Y-102183276D01*
X127959103Y-101929103D01*
X128213276Y-101548707D01*
X128244428Y-101392094D01*
X128271562Y-101373964D01*
X128292762Y-101342236D01*
X128503697Y-101131301D01*
X128586724Y-101548707D01*
X128840897Y-101929103D01*
X129221293Y-102183276D01*
X129556739Y-102250000D01*
X129783261Y-102250000D01*
X130118707Y-102183276D01*
X130499103Y-101929103D01*
X130753276Y-101548707D01*
X130823517Y-101195581D01*
X131066863Y-100952235D01*
X131037471Y-101100000D01*
X131126724Y-101548707D01*
X131380897Y-101929103D01*
X131761293Y-102183276D01*
X132096739Y-102250000D01*
X132323261Y-102250000D01*
X132658707Y-102183276D01*
X133039103Y-101929103D01*
X133293276Y-101548707D01*
X133313607Y-101446495D01*
X133422157Y-101373964D01*
X133443357Y-101342236D01*
X133595410Y-101190184D01*
X133666724Y-101548707D01*
X133920897Y-101929103D01*
X134301293Y-102183276D01*
X134636739Y-102250000D01*
X134863261Y-102250000D01*
X135198707Y-102183276D01*
X135579103Y-101929103D01*
X135833276Y-101548707D01*
X135922529Y-101100000D01*
X135833276Y-100651293D01*
X135794356Y-100593045D01*
X136134123Y-100253278D01*
X136134123Y-101950000D01*
X136157407Y-102067054D01*
X136223712Y-102166288D01*
X136322946Y-102232593D01*
X136440000Y-102255877D01*
X138140000Y-102255877D01*
X138257054Y-102232593D01*
X138356288Y-102166288D01*
X138422593Y-102067054D01*
X138445877Y-101950000D01*
X138445877Y-100250000D01*
X138422593Y-100132946D01*
X138356288Y-100033712D01*
X138257054Y-99967407D01*
X138140000Y-99944123D01*
X137973278Y-99944123D01*
X138602273Y-99315129D01*
X138633995Y-99293933D01*
X138655191Y-99262211D01*
X138655194Y-99262208D01*
X138717982Y-99168239D01*
X138717982Y-99168238D01*
X138717983Y-99168237D01*
X138740031Y-99057393D01*
X138740031Y-99057389D01*
X138747474Y-99019970D01*
X138740031Y-98982551D01*
X138740031Y-93882174D01*
X138747474Y-93844755D01*
X138740031Y-93807336D01*
X138740031Y-93807331D01*
X138717983Y-93696487D01*
X138633995Y-93570791D01*
X138602269Y-93549593D01*
X137742802Y-92690126D01*
X137742800Y-92690123D01*
X137740796Y-92688119D01*
X137747638Y-92671601D01*
X137747638Y-92393123D01*
X137641070Y-92135844D01*
X137444156Y-91938930D01*
X137300517Y-91879433D01*
X137483432Y-91696518D01*
X137590000Y-91439239D01*
X137590000Y-91160761D01*
X137483432Y-90903482D01*
X137286518Y-90706568D01*
X137029239Y-90600000D01*
X136750761Y-90600000D01*
X136629879Y-90650071D01*
X136683432Y-90596518D01*
X136790000Y-90339239D01*
X136790000Y-90060761D01*
X136683432Y-89803482D01*
X136486518Y-89606568D01*
X136229239Y-89500000D01*
X135950761Y-89500000D01*
X135930000Y-89508599D01*
X135930000Y-89430761D01*
X135823432Y-89173482D01*
X135626518Y-88976568D01*
X135369239Y-88870000D01*
X135090761Y-88870000D01*
X134833482Y-88976568D01*
X134636568Y-89173482D01*
X134530000Y-89430761D01*
X134530000Y-89709239D01*
X134636568Y-89966518D01*
X134833482Y-90163432D01*
X134850000Y-90170274D01*
X134850000Y-90173108D01*
X134850001Y-90173113D01*
X134850000Y-92727249D01*
X134842557Y-92764668D01*
X134850000Y-92802087D01*
X134850000Y-92802091D01*
X134872048Y-92912935D01*
X134956036Y-93038632D01*
X134987764Y-93059832D01*
X136225495Y-94297564D01*
X136160879Y-94270799D01*
X135882401Y-94270799D01*
X135625122Y-94377367D01*
X135428208Y-94574281D01*
X135321640Y-94831560D01*
X135321640Y-95110038D01*
X135428208Y-95367317D01*
X135625122Y-95564231D01*
X135710468Y-95599582D01*
X135556568Y-95753482D01*
X135450000Y-96010761D01*
X135450000Y-96122820D01*
X135401524Y-96102741D01*
X135123046Y-96102741D01*
X134865767Y-96209309D01*
X134668853Y-96406223D01*
X134562285Y-96663502D01*
X134562285Y-96749989D01*
X134360761Y-96749989D01*
X134133798Y-96844000D01*
X134133798Y-96642868D01*
X134027230Y-96385589D01*
X133830316Y-96188675D01*
X133573037Y-96082107D01*
X133294559Y-96082107D01*
X133037280Y-96188675D01*
X132840366Y-96385589D01*
X132760106Y-96579354D01*
X132689239Y-96550000D01*
X132410761Y-96550000D01*
X132153482Y-96656568D01*
X131956568Y-96853482D01*
X131949726Y-96870000D01*
X131214325Y-96870000D01*
X131176906Y-96862557D01*
X131139487Y-96870000D01*
X131139482Y-96870000D01*
X131028638Y-96892048D01*
X130902942Y-96976036D01*
X130881744Y-97007762D01*
X130743114Y-97146391D01*
X130663422Y-96953996D01*
X130555622Y-96846196D01*
X130555622Y-96555453D01*
X130724054Y-96387021D01*
X130830622Y-96129742D01*
X130830622Y-95891544D01*
X130860739Y-95861427D01*
X130860741Y-95861424D01*
X131680910Y-95041256D01*
X131716396Y-95017545D01*
X131810329Y-94876964D01*
X131834988Y-94752995D01*
X131843314Y-94711137D01*
X131834988Y-94669280D01*
X131834988Y-90525000D01*
X133009011Y-90525000D01*
X133050868Y-90533326D01*
X133092725Y-90525000D01*
X133092726Y-90525000D01*
X133216695Y-90500341D01*
X133357276Y-90406408D01*
X133380989Y-90370919D01*
X134131791Y-89620118D01*
X134167276Y-89596408D01*
X134261209Y-89455827D01*
X134285868Y-89331858D01*
X134285868Y-89331857D01*
X134294194Y-89290000D01*
X134285868Y-89248143D01*
X134285868Y-88956908D01*
X137540923Y-85701854D01*
X137576408Y-85678144D01*
X137670341Y-85537563D01*
X137695000Y-85413594D01*
X137695000Y-85413593D01*
X137703326Y-85371736D01*
X137695000Y-85329879D01*
X137695000Y-84152725D01*
X137703326Y-84110867D01*
X137670341Y-83945041D01*
X137600118Y-83839945D01*
X137576408Y-83804460D01*
X137540922Y-83780749D01*
X136439253Y-82679081D01*
X136415540Y-82643592D01*
X136274959Y-82549659D01*
X136150990Y-82525000D01*
X136150989Y-82525000D01*
X136109132Y-82516674D01*
X136067275Y-82525000D01*
X134899950Y-82525000D01*
X134765277Y-82390327D01*
X134768326Y-82375000D01*
X134735341Y-82209173D01*
X134688332Y-82138819D01*
X134641408Y-82068592D01*
X134605922Y-82044881D01*
X130191038Y-77629998D01*
X145856590Y-77629998D01*
X145790000Y-77790761D01*
X145790000Y-78069239D01*
X145896568Y-78326518D01*
X146093482Y-78523432D01*
X146110000Y-78530274D01*
X146110001Y-81342998D01*
X142023164Y-85429836D01*
X141991436Y-85451036D01*
X141907448Y-85576733D01*
X141885400Y-85687577D01*
X141885400Y-85687581D01*
X141877957Y-85725000D01*
X141885400Y-85762419D01*
X141885401Y-88327976D01*
X141877957Y-88365400D01*
X141907449Y-88513668D01*
X141970237Y-88607637D01*
X141970239Y-88607639D01*
X141991437Y-88639364D01*
X142023162Y-88660562D01*
X143994838Y-90632239D01*
X144016036Y-90663964D01*
X144141732Y-90747952D01*
X144252576Y-90770000D01*
X144252581Y-90770000D01*
X144290000Y-90777443D01*
X144327419Y-90770000D01*
X146403057Y-90770000D01*
X146416724Y-90838707D01*
X146670897Y-91219103D01*
X147051293Y-91473276D01*
X147386739Y-91540000D01*
X147613261Y-91540000D01*
X147948707Y-91473276D01*
X148329103Y-91219103D01*
X148583276Y-90838707D01*
X148672529Y-90390000D01*
X148583276Y-89941293D01*
X148329103Y-89560897D01*
X148327761Y-89560000D01*
X154686019Y-89560000D01*
X155792257Y-90666239D01*
X155813455Y-90697964D01*
X155939151Y-90781952D01*
X156049995Y-90804000D01*
X156050000Y-90804000D01*
X156087419Y-90811443D01*
X156124838Y-90804000D01*
X156192557Y-90804000D01*
X156206224Y-90872707D01*
X156460397Y-91253103D01*
X156560515Y-91320000D01*
X152487418Y-91320000D01*
X152449999Y-91312557D01*
X152412580Y-91320000D01*
X152412576Y-91320000D01*
X152301732Y-91342048D01*
X152301731Y-91342049D01*
X152301730Y-91342049D01*
X152207761Y-91404837D01*
X152207758Y-91404840D01*
X152176036Y-91426036D01*
X152154840Y-91457758D01*
X149932599Y-93680001D01*
X148343439Y-93680001D01*
X148512521Y-93475284D01*
X148601520Y-93260383D01*
X148563912Y-93084000D01*
X147654000Y-93084000D01*
X147654000Y-93104000D01*
X147346000Y-93104000D01*
X147346000Y-93084000D01*
X146436088Y-93084000D01*
X146398480Y-93260383D01*
X146487479Y-93475284D01*
X146656561Y-93680001D01*
X145517402Y-93680001D01*
X144437018Y-92599617D01*
X146398480Y-92599617D01*
X146436088Y-92776000D01*
X147346000Y-92776000D01*
X147346000Y-91865343D01*
X147654000Y-91865343D01*
X147654000Y-92776000D01*
X148563912Y-92776000D01*
X148601520Y-92599617D01*
X148512521Y-92384716D01*
X148226776Y-92038748D01*
X147830386Y-91828465D01*
X147654000Y-91865343D01*
X147346000Y-91865343D01*
X147169614Y-91828465D01*
X146773224Y-92038748D01*
X146487479Y-92384716D01*
X146398480Y-92599617D01*
X144437018Y-92599617D01*
X143695164Y-91857764D01*
X143673964Y-91826036D01*
X143548268Y-91742048D01*
X143437424Y-91720000D01*
X143437419Y-91720000D01*
X143400000Y-91712557D01*
X143362581Y-91720000D01*
X141655518Y-91720000D01*
X141618099Y-91712557D01*
X141580680Y-91720000D01*
X141580676Y-91720000D01*
X141469832Y-91742048D01*
X141469831Y-91742049D01*
X141469830Y-91742049D01*
X141381561Y-91801029D01*
X141344136Y-91826036D01*
X141322938Y-91857762D01*
X140930700Y-92250000D01*
X140655761Y-92250000D01*
X140398482Y-92356568D01*
X140201568Y-92553482D01*
X140095000Y-92810761D01*
X140095000Y-93089239D01*
X140201568Y-93346518D01*
X140398482Y-93543432D01*
X140655761Y-93650000D01*
X140934239Y-93650000D01*
X141191518Y-93543432D01*
X141388432Y-93346518D01*
X141464003Y-93164072D01*
X141564082Y-93405684D01*
X141760996Y-93602598D01*
X142018275Y-93709166D01*
X142296753Y-93709166D01*
X142313271Y-93702324D01*
X142315275Y-93704328D01*
X142315278Y-93704330D01*
X143733186Y-95122239D01*
X143754384Y-95153964D01*
X143786109Y-95175162D01*
X143786110Y-95175163D01*
X143792155Y-95179202D01*
X143880080Y-95237952D01*
X143990924Y-95260000D01*
X143990929Y-95260000D01*
X144028348Y-95267443D01*
X144065767Y-95260000D01*
X155336081Y-95260000D01*
X155373500Y-95267443D01*
X155410919Y-95260000D01*
X155410924Y-95260000D01*
X155521768Y-95237952D01*
X155647464Y-95153964D01*
X155668664Y-95122236D01*
X156782545Y-94008356D01*
X156840793Y-94047276D01*
X157176239Y-94114000D01*
X157402761Y-94114000D01*
X157738207Y-94047276D01*
X158118603Y-93793103D01*
X158372776Y-93412707D01*
X158462029Y-92964000D01*
X158372776Y-92515293D01*
X158118603Y-92134897D01*
X158022905Y-92070953D01*
X158088268Y-92057952D01*
X158213964Y-91973964D01*
X158235164Y-91942236D01*
X158832238Y-91345163D01*
X158863964Y-91323964D01*
X158947952Y-91198268D01*
X158970000Y-91087424D01*
X158970000Y-91087419D01*
X158977443Y-91050000D01*
X158970000Y-91012581D01*
X158970000Y-89221919D01*
X158977443Y-89184500D01*
X158970000Y-89147081D01*
X158970000Y-89147076D01*
X158947952Y-89036232D01*
X158909397Y-88978530D01*
X158885163Y-88942262D01*
X158885162Y-88942261D01*
X158863964Y-88910536D01*
X158832239Y-88889338D01*
X158333856Y-88390955D01*
X158372776Y-88332707D01*
X158462029Y-87884000D01*
X158372776Y-87435293D01*
X158118603Y-87054897D01*
X157738207Y-86800724D01*
X157402761Y-86734000D01*
X157176239Y-86734000D01*
X156840793Y-86800724D01*
X156460397Y-87054897D01*
X156206224Y-87435293D01*
X156116971Y-87884000D01*
X156206224Y-88332707D01*
X156460397Y-88713103D01*
X156840793Y-88967276D01*
X157176239Y-89034000D01*
X157402761Y-89034000D01*
X157738207Y-88967276D01*
X157796455Y-88928356D01*
X158210000Y-89341901D01*
X158210000Y-89731682D01*
X158118603Y-89594897D01*
X157738207Y-89340724D01*
X157402761Y-89274000D01*
X157176239Y-89274000D01*
X156840793Y-89340724D01*
X156460397Y-89594897D01*
X156206224Y-89975293D01*
X156201228Y-90000408D01*
X155138583Y-88937764D01*
X155117383Y-88906036D01*
X154991687Y-88822048D01*
X154880843Y-88800000D01*
X154880838Y-88800000D01*
X154843419Y-88792557D01*
X154806000Y-88800000D01*
X148635985Y-88800000D01*
X148655877Y-88700000D01*
X148655877Y-87000000D01*
X148632593Y-86882946D01*
X148566288Y-86783712D01*
X148467054Y-86717407D01*
X148350000Y-86694123D01*
X146650000Y-86694123D01*
X146532946Y-86717407D01*
X146433712Y-86783712D01*
X146367407Y-86882946D01*
X146344123Y-87000000D01*
X146344123Y-88700000D01*
X146361758Y-88788658D01*
X145292505Y-87719405D01*
X145305000Y-87689239D01*
X145305000Y-87410761D01*
X145198432Y-87153482D01*
X145001518Y-86956568D01*
X144744239Y-86850000D01*
X144572400Y-86850000D01*
X145698401Y-85724000D01*
X156192557Y-85724000D01*
X156206224Y-85792707D01*
X156460397Y-86173103D01*
X156840793Y-86427276D01*
X157176239Y-86494000D01*
X157402761Y-86494000D01*
X157738207Y-86427276D01*
X158118603Y-86173103D01*
X158372776Y-85792707D01*
X158462029Y-85344000D01*
X158372776Y-84895293D01*
X158118603Y-84514897D01*
X157738207Y-84260724D01*
X157402761Y-84194000D01*
X157176239Y-84194000D01*
X156840793Y-84260724D01*
X156460397Y-84514897D01*
X156206224Y-84895293D01*
X156192557Y-84964000D01*
X145578418Y-84964000D01*
X145540999Y-84956557D01*
X145503580Y-84964000D01*
X145503576Y-84964000D01*
X145392732Y-84986048D01*
X145392731Y-84986049D01*
X145392730Y-84986049D01*
X145309566Y-85041618D01*
X145267036Y-85070036D01*
X145245838Y-85101761D01*
X143490758Y-86856842D01*
X143474239Y-86850000D01*
X143195761Y-86850000D01*
X142938482Y-86956568D01*
X142741568Y-87153482D01*
X142645400Y-87385653D01*
X142645400Y-85882400D01*
X145723800Y-82804000D01*
X156116971Y-82804000D01*
X156206224Y-83252707D01*
X156460397Y-83633103D01*
X156840793Y-83887276D01*
X157176239Y-83954000D01*
X157402761Y-83954000D01*
X157738207Y-83887276D01*
X158118603Y-83633103D01*
X158372776Y-83252707D01*
X158462029Y-82804000D01*
X158372776Y-82355293D01*
X158118603Y-81974897D01*
X157738207Y-81720724D01*
X157402761Y-81654000D01*
X157176239Y-81654000D01*
X156840793Y-81720724D01*
X156460397Y-81974897D01*
X156206224Y-82355293D01*
X156116971Y-82804000D01*
X145723800Y-82804000D01*
X146732239Y-81795562D01*
X146763964Y-81774364D01*
X146847952Y-81648668D01*
X146870000Y-81537824D01*
X146870000Y-81537819D01*
X146877443Y-81500400D01*
X146870000Y-81462981D01*
X146870000Y-80264000D01*
X156116971Y-80264000D01*
X156206224Y-80712707D01*
X156460397Y-81093103D01*
X156840793Y-81347276D01*
X157176239Y-81414000D01*
X157402761Y-81414000D01*
X157738207Y-81347276D01*
X158118603Y-81093103D01*
X158372776Y-80712707D01*
X158462029Y-80264000D01*
X158372776Y-79815293D01*
X158118603Y-79434897D01*
X157738207Y-79180724D01*
X157402761Y-79114000D01*
X157176239Y-79114000D01*
X156840793Y-79180724D01*
X156460397Y-79434897D01*
X156206224Y-79815293D01*
X156116971Y-80264000D01*
X146870000Y-80264000D01*
X146870000Y-78530274D01*
X146886518Y-78523432D01*
X147083432Y-78326518D01*
X147190000Y-78069239D01*
X147190000Y-77790761D01*
X147123410Y-77629998D01*
X150777998Y-77629998D01*
X151114237Y-77966238D01*
X151135436Y-77997964D01*
X151167161Y-78019162D01*
X151167162Y-78019163D01*
X151261130Y-78081951D01*
X151261131Y-78081951D01*
X151261132Y-78081952D01*
X151371976Y-78104000D01*
X151371980Y-78104000D01*
X151409399Y-78111443D01*
X151446818Y-78104000D01*
X156192557Y-78104000D01*
X156206224Y-78172707D01*
X156460397Y-78553103D01*
X156840793Y-78807276D01*
X157176239Y-78874000D01*
X157402761Y-78874000D01*
X157738207Y-78807276D01*
X158118603Y-78553103D01*
X158372776Y-78172707D01*
X158462029Y-77724000D01*
X158372776Y-77275293D01*
X158118603Y-76894897D01*
X157738207Y-76640724D01*
X157402761Y-76574000D01*
X157176239Y-76574000D01*
X156840793Y-76640724D01*
X156460397Y-76894897D01*
X156206224Y-77275293D01*
X156192557Y-77344000D01*
X151566801Y-77344000D01*
X151273700Y-77050900D01*
X152760602Y-75564000D01*
X156133623Y-75564000D01*
X156133623Y-76034000D01*
X156156907Y-76151054D01*
X156223212Y-76250288D01*
X156322446Y-76316593D01*
X156439500Y-76339877D01*
X158139500Y-76339877D01*
X158256554Y-76316593D01*
X158355788Y-76250288D01*
X158422093Y-76151054D01*
X158445377Y-76034000D01*
X158445377Y-74334000D01*
X158422093Y-74216946D01*
X158355788Y-74117712D01*
X158256554Y-74051407D01*
X158139500Y-74028123D01*
X156439500Y-74028123D01*
X156322446Y-74051407D01*
X156223212Y-74117712D01*
X156156907Y-74216946D01*
X156133623Y-74334000D01*
X156133623Y-74804000D01*
X152640618Y-74804000D01*
X152603199Y-74796557D01*
X152565780Y-74804000D01*
X152565776Y-74804000D01*
X152454932Y-74826048D01*
X152454931Y-74826049D01*
X152454930Y-74826049D01*
X152360961Y-74888837D01*
X152360958Y-74888840D01*
X152329236Y-74910036D01*
X152308040Y-74941759D01*
X150739812Y-76509988D01*
X122727931Y-76509988D01*
X122690512Y-76502545D01*
X122653093Y-76509988D01*
X122653088Y-76509988D01*
X122542244Y-76532036D01*
X122542242Y-76532037D01*
X122542243Y-76532037D01*
X122465966Y-76583004D01*
X122416548Y-76616024D01*
X122395350Y-76647750D01*
X121322164Y-77720936D01*
X121290436Y-77742136D01*
X121206448Y-77867833D01*
X121184400Y-77978677D01*
X121184400Y-77978681D01*
X121176957Y-78016100D01*
X121184400Y-78053519D01*
X121184401Y-80189478D01*
X121108885Y-80371790D01*
X121108885Y-80650268D01*
X121191285Y-80849200D01*
X117616602Y-80849200D01*
X117443159Y-80675757D01*
X117450001Y-80659239D01*
X117450001Y-80380761D01*
X117343433Y-80123482D01*
X117146519Y-79926568D01*
X117130667Y-79920002D01*
X117279726Y-79920002D01*
X117286568Y-79936520D01*
X117483482Y-80133434D01*
X117740761Y-80240002D01*
X118019239Y-80240002D01*
X118276518Y-80133434D01*
X118473432Y-79936520D01*
X118580000Y-79679241D01*
X118580000Y-79517964D01*
X118668786Y-79554740D01*
X118947264Y-79554740D01*
X119204543Y-79448172D01*
X119401457Y-79251258D01*
X119508025Y-78993979D01*
X119508025Y-78715501D01*
X119401457Y-78458222D01*
X119204543Y-78261308D01*
X118947264Y-78154740D01*
X118668786Y-78154740D01*
X118652268Y-78161582D01*
X118560000Y-78069315D01*
X118560000Y-75922998D01*
X118630897Y-76029103D01*
X119011293Y-76283276D01*
X119346739Y-76350000D01*
X119573261Y-76350000D01*
X119908707Y-76283276D01*
X120289103Y-76029103D01*
X120543276Y-75648707D01*
X120632529Y-75200000D01*
X120827471Y-75200000D01*
X120916724Y-75648707D01*
X121170897Y-76029103D01*
X121551293Y-76283276D01*
X121886739Y-76350000D01*
X122113261Y-76350000D01*
X122448707Y-76283276D01*
X122829103Y-76029103D01*
X123083276Y-75648707D01*
X123172529Y-75200000D01*
X123367471Y-75200000D01*
X123456724Y-75648707D01*
X123710897Y-76029103D01*
X124091293Y-76283276D01*
X124426739Y-76350000D01*
X124653261Y-76350000D01*
X124988707Y-76283276D01*
X125369103Y-76029103D01*
X125623276Y-75648707D01*
X125712529Y-75200000D01*
X125907471Y-75200000D01*
X125996724Y-75648707D01*
X126250897Y-76029103D01*
X126631293Y-76283276D01*
X126966739Y-76350000D01*
X127193261Y-76350000D01*
X127528707Y-76283276D01*
X127909103Y-76029103D01*
X128163276Y-75648707D01*
X128252529Y-75200000D01*
X128447471Y-75200000D01*
X128536724Y-75648707D01*
X128790897Y-76029103D01*
X129171293Y-76283276D01*
X129506739Y-76350000D01*
X129733261Y-76350000D01*
X130068707Y-76283276D01*
X130449103Y-76029103D01*
X130703276Y-75648707D01*
X130792529Y-75200000D01*
X130987471Y-75200000D01*
X131076724Y-75648707D01*
X131330897Y-76029103D01*
X131711293Y-76283276D01*
X132046739Y-76350000D01*
X132273261Y-76350000D01*
X132608707Y-76283276D01*
X132989103Y-76029103D01*
X133243276Y-75648707D01*
X133332529Y-75200000D01*
X133527471Y-75200000D01*
X133616724Y-75648707D01*
X133870897Y-76029103D01*
X134251293Y-76283276D01*
X134586739Y-76350000D01*
X134813261Y-76350000D01*
X135148707Y-76283276D01*
X135529103Y-76029103D01*
X135783276Y-75648707D01*
X135872529Y-75200000D01*
X136067471Y-75200000D01*
X136156724Y-75648707D01*
X136410897Y-76029103D01*
X136791293Y-76283276D01*
X137126739Y-76350000D01*
X137353261Y-76350000D01*
X137688707Y-76283276D01*
X138069103Y-76029103D01*
X138323276Y-75648707D01*
X138412529Y-75200000D01*
X138607471Y-75200000D01*
X138696724Y-75648707D01*
X138950897Y-76029103D01*
X139331293Y-76283276D01*
X139666739Y-76350000D01*
X139893261Y-76350000D01*
X140228707Y-76283276D01*
X140609103Y-76029103D01*
X140863276Y-75648707D01*
X140952529Y-75200000D01*
X141147471Y-75200000D01*
X141236724Y-75648707D01*
X141490897Y-76029103D01*
X141871293Y-76283276D01*
X142206739Y-76350000D01*
X142433261Y-76350000D01*
X142768707Y-76283276D01*
X143149103Y-76029103D01*
X143403276Y-75648707D01*
X143492529Y-75200000D01*
X143403276Y-74751293D01*
X143149103Y-74370897D01*
X143117829Y-74350000D01*
X143704123Y-74350000D01*
X143704123Y-76050000D01*
X143727407Y-76167054D01*
X143793712Y-76266288D01*
X143892946Y-76332593D01*
X144010000Y-76355877D01*
X145710000Y-76355877D01*
X145827054Y-76332593D01*
X145926288Y-76266288D01*
X145992593Y-76167054D01*
X146015877Y-76050000D01*
X146015877Y-74350000D01*
X145992593Y-74232946D01*
X145926288Y-74133712D01*
X145827054Y-74067407D01*
X145710000Y-74044123D01*
X144010000Y-74044123D01*
X143892946Y-74067407D01*
X143793712Y-74133712D01*
X143727407Y-74232946D01*
X143704123Y-74350000D01*
X143117829Y-74350000D01*
X142768707Y-74116724D01*
X142433261Y-74050000D01*
X142206739Y-74050000D01*
X141871293Y-74116724D01*
X141490897Y-74370897D01*
X141236724Y-74751293D01*
X141147471Y-75200000D01*
X140952529Y-75200000D01*
X140863276Y-74751293D01*
X140609103Y-74370897D01*
X140228707Y-74116724D01*
X139893261Y-74050000D01*
X139666739Y-74050000D01*
X139331293Y-74116724D01*
X138950897Y-74370897D01*
X138696724Y-74751293D01*
X138607471Y-75200000D01*
X138412529Y-75200000D01*
X138323276Y-74751293D01*
X138069103Y-74370897D01*
X137688707Y-74116724D01*
X137353261Y-74050000D01*
X137126739Y-74050000D01*
X136791293Y-74116724D01*
X136410897Y-74370897D01*
X136156724Y-74751293D01*
X136067471Y-75200000D01*
X135872529Y-75200000D01*
X135783276Y-74751293D01*
X135529103Y-74370897D01*
X135148707Y-74116724D01*
X134813261Y-74050000D01*
X134586739Y-74050000D01*
X134251293Y-74116724D01*
X133870897Y-74370897D01*
X133616724Y-74751293D01*
X133527471Y-75200000D01*
X133332529Y-75200000D01*
X133243276Y-74751293D01*
X132989103Y-74370897D01*
X132608707Y-74116724D01*
X132273261Y-74050000D01*
X132046739Y-74050000D01*
X131711293Y-74116724D01*
X131330897Y-74370897D01*
X131076724Y-74751293D01*
X130987471Y-75200000D01*
X130792529Y-75200000D01*
X130703276Y-74751293D01*
X130449103Y-74370897D01*
X130068707Y-74116724D01*
X129733261Y-74050000D01*
X129506739Y-74050000D01*
X129171293Y-74116724D01*
X128790897Y-74370897D01*
X128536724Y-74751293D01*
X128447471Y-75200000D01*
X128252529Y-75200000D01*
X128163276Y-74751293D01*
X127909103Y-74370897D01*
X127528707Y-74116724D01*
X127193261Y-74050000D01*
X126966739Y-74050000D01*
X126631293Y-74116724D01*
X126250897Y-74370897D01*
X125996724Y-74751293D01*
X125907471Y-75200000D01*
X125712529Y-75200000D01*
X125623276Y-74751293D01*
X125369103Y-74370897D01*
X124988707Y-74116724D01*
X124653261Y-74050000D01*
X124426739Y-74050000D01*
X124091293Y-74116724D01*
X123710897Y-74370897D01*
X123456724Y-74751293D01*
X123367471Y-75200000D01*
X123172529Y-75200000D01*
X123083276Y-74751293D01*
X122829103Y-74370897D01*
X122448707Y-74116724D01*
X122113261Y-74050000D01*
X121886739Y-74050000D01*
X121551293Y-74116724D01*
X121170897Y-74370897D01*
X120916724Y-74751293D01*
X120827471Y-75200000D01*
X120632529Y-75200000D01*
X120543276Y-74751293D01*
X120289103Y-74370897D01*
X119908707Y-74116724D01*
X119573261Y-74050000D01*
X119346739Y-74050000D01*
X119011293Y-74116724D01*
X118630897Y-74370897D01*
X118540752Y-74505808D01*
X118537952Y-74491732D01*
X118517907Y-74461732D01*
X118475163Y-74397762D01*
X118475162Y-74397761D01*
X118453964Y-74366036D01*
X118422239Y-74344838D01*
X117545151Y-73467751D01*
X117523953Y-73436026D01*
X117492228Y-73414828D01*
X117492226Y-73414826D01*
X117398257Y-73352038D01*
X117249989Y-73322546D01*
X117212565Y-73329990D01*
X108428298Y-73329988D01*
X108390879Y-73322545D01*
X108353460Y-73329988D01*
X108353457Y-73329988D01*
X108242613Y-73352036D01*
X108242612Y-73352037D01*
X108242610Y-73352037D01*
X108148642Y-73414825D01*
X108148639Y-73414828D01*
X108116917Y-73436024D01*
X108095721Y-73467746D01*
X106882773Y-74680695D01*
X106851048Y-74701893D01*
X106829850Y-74733618D01*
X106829848Y-74733620D01*
X106767060Y-74827589D01*
X106737568Y-74975857D01*
X106745012Y-75013281D01*
X106745012Y-85400062D01*
X106705000Y-85360050D01*
X106705000Y-80846845D01*
X106713326Y-80804988D01*
X106703771Y-80756949D01*
X106680341Y-80639161D01*
X106586408Y-80498580D01*
X106550923Y-80474870D01*
X106080000Y-80003948D01*
X106080000Y-79730761D01*
X105973432Y-79473482D01*
X105776518Y-79276568D01*
X105519239Y-79170000D01*
X105240761Y-79170000D01*
X104983482Y-79276568D01*
X104786568Y-79473482D01*
X104680000Y-79730761D01*
X104680000Y-80009239D01*
X104786568Y-80266518D01*
X104983482Y-80463432D01*
X105240761Y-80570000D01*
X105443972Y-80570000D01*
X105855000Y-80981029D01*
X105855001Y-85317453D01*
X105855000Y-85317458D01*
X105855000Y-85360050D01*
X105686568Y-85528482D01*
X105580000Y-85785761D01*
X105580000Y-86064239D01*
X105686568Y-86321518D01*
X105883482Y-86518432D01*
X106140761Y-86625000D01*
X106419239Y-86625000D01*
X106676518Y-86518432D01*
X106745012Y-86449938D01*
X106745011Y-114357987D01*
X106272555Y-114830444D01*
X106214307Y-114791524D01*
X105878861Y-114724800D01*
X105652339Y-114724800D01*
X105316893Y-114791524D01*
X104936497Y-115045697D01*
X104682324Y-115426093D01*
X104593071Y-115874800D01*
X98121495Y-115874800D01*
X98033276Y-115431293D01*
X98019846Y-115411194D01*
X103390923Y-110040118D01*
X103426408Y-110016408D01*
X103520341Y-109875827D01*
X103545000Y-109751858D01*
X103545000Y-109751857D01*
X103553326Y-109710000D01*
X103545000Y-109668143D01*
X103545000Y-105164950D01*
X103713432Y-104996518D01*
X103820000Y-104739239D01*
X103820000Y-104460761D01*
X103713432Y-104203482D01*
X103545000Y-104035050D01*
X103545000Y-95666040D01*
X104586457Y-94624584D01*
X104806518Y-94533432D01*
X105003432Y-94336518D01*
X105110000Y-94079239D01*
X105110000Y-93800761D01*
X105003432Y-93543482D01*
X104806518Y-93346568D01*
X104549239Y-93240000D01*
X104270761Y-93240000D01*
X104013482Y-93346568D01*
X103816568Y-93543482D01*
X103710000Y-93800761D01*
X103710000Y-94079239D01*
X103774354Y-94234605D01*
X102849081Y-95159879D01*
X102813592Y-95183592D01*
X102744958Y-95286311D01*
X102719659Y-95324174D01*
X102686674Y-95490000D01*
X102695000Y-95531858D01*
X102695001Y-97408142D01*
X102695000Y-104035050D01*
X102526568Y-104203482D01*
X102420000Y-104460761D01*
X102420000Y-104739239D01*
X102526568Y-104996518D01*
X102695000Y-105164950D01*
X102695000Y-109533959D01*
X97418806Y-114810154D01*
X97398707Y-114796724D01*
X97063261Y-114730000D01*
X96836739Y-114730000D01*
X96501293Y-114796724D01*
X96120897Y-115050897D01*
X95866724Y-115431293D01*
X95857176Y-115479297D01*
X95782048Y-115591732D01*
X95752556Y-115740000D01*
X92365542Y-115740000D01*
X92366072Y-113340000D01*
X95777471Y-113340000D01*
X95866724Y-113788707D01*
X96120897Y-114169103D01*
X96501293Y-114423276D01*
X96836739Y-114490000D01*
X97063261Y-114490000D01*
X97398707Y-114423276D01*
X97779103Y-114169103D01*
X98033276Y-113788707D01*
X98122529Y-113340000D01*
X98033276Y-112891293D01*
X98019847Y-112871194D01*
X98026620Y-112864420D01*
X98128407Y-112796409D01*
X98152120Y-112760920D01*
X99630923Y-111282118D01*
X99666408Y-111258408D01*
X99760341Y-111117827D01*
X99785000Y-110993858D01*
X99785000Y-110993857D01*
X99793326Y-110952000D01*
X99785000Y-110910143D01*
X99785000Y-103957992D01*
X99808707Y-103953276D01*
X100189103Y-103699103D01*
X100443276Y-103318707D01*
X100532529Y-102870000D01*
X100443276Y-102421293D01*
X100189103Y-102040897D01*
X99808707Y-101786724D01*
X99785000Y-101782008D01*
X99785000Y-101157992D01*
X99808707Y-101153276D01*
X100189103Y-100899103D01*
X100443276Y-100518707D01*
X100532529Y-100070000D01*
X100443276Y-99621293D01*
X100189103Y-99240897D01*
X99808707Y-98986724D01*
X99785000Y-98982008D01*
X99785000Y-98334572D01*
X99789507Y-98333676D01*
X100169903Y-98079503D01*
X100424076Y-97699107D01*
X100513329Y-97250400D01*
X100424076Y-96801693D01*
X100169903Y-96421297D01*
X99789507Y-96167124D01*
X99454061Y-96100400D01*
X99227539Y-96100400D01*
X98892093Y-96167124D01*
X98511697Y-96421297D01*
X98257524Y-96801693D01*
X98168271Y-97250400D01*
X98257524Y-97699107D01*
X98511697Y-98079503D01*
X98892093Y-98333676D01*
X98935001Y-98342211D01*
X98935000Y-98982008D01*
X98911293Y-98986724D01*
X98530897Y-99240897D01*
X98276724Y-99621293D01*
X98187471Y-100070000D01*
X98276724Y-100518707D01*
X98530897Y-100899103D01*
X98911293Y-101153276D01*
X98935000Y-101157992D01*
X98935000Y-101709776D01*
X98935001Y-101709781D01*
X98935001Y-101782008D01*
X98911293Y-101786724D01*
X98530897Y-102040897D01*
X98276724Y-102421293D01*
X98187471Y-102870000D01*
X98276724Y-103318707D01*
X98530897Y-103699103D01*
X98911293Y-103953276D01*
X98935001Y-103957992D01*
X98935000Y-110775959D01*
X98100000Y-111610960D01*
X98100000Y-111029000D01*
X98025000Y-110954000D01*
X97104000Y-110954000D01*
X97104000Y-111875000D01*
X97179000Y-111950000D01*
X97760960Y-111950000D01*
X97595380Y-112115580D01*
X97493591Y-112183593D01*
X97469880Y-112219079D01*
X97418806Y-112270153D01*
X97398707Y-112256724D01*
X97063261Y-112190000D01*
X96836739Y-112190000D01*
X96501293Y-112256724D01*
X96120897Y-112510897D01*
X95866724Y-112891293D01*
X95777471Y-113340000D01*
X92366072Y-113340000D01*
X92366582Y-111029000D01*
X95800000Y-111029000D01*
X95800000Y-111709673D01*
X95845672Y-111819936D01*
X95930063Y-111904328D01*
X96040326Y-111950000D01*
X96721000Y-111950000D01*
X96796000Y-111875000D01*
X96796000Y-110954000D01*
X95875000Y-110954000D01*
X95800000Y-111029000D01*
X92366582Y-111029000D01*
X92366833Y-109890327D01*
X95800000Y-109890327D01*
X95800000Y-110571000D01*
X95875000Y-110646000D01*
X96796000Y-110646000D01*
X96796000Y-109725000D01*
X97104000Y-109725000D01*
X97104000Y-110646000D01*
X98025000Y-110646000D01*
X98100000Y-110571000D01*
X98100000Y-109890327D01*
X98054328Y-109780064D01*
X97969937Y-109695672D01*
X97859674Y-109650000D01*
X97179000Y-109650000D01*
X97104000Y-109725000D01*
X96796000Y-109725000D01*
X96721000Y-109650000D01*
X96040326Y-109650000D01*
X95930063Y-109695672D01*
X95845672Y-109780064D01*
X95800000Y-109890327D01*
X92366833Y-109890327D01*
X92368572Y-102020000D01*
X93124123Y-102020000D01*
X93124123Y-103720000D01*
X93147407Y-103837054D01*
X93213712Y-103936288D01*
X93312946Y-104002593D01*
X93430000Y-104025877D01*
X95130000Y-104025877D01*
X95247054Y-104002593D01*
X95346288Y-103936288D01*
X95412593Y-103837054D01*
X95435877Y-103720000D01*
X95435877Y-102870000D01*
X95647471Y-102870000D01*
X95736724Y-103318707D01*
X95990897Y-103699103D01*
X96371293Y-103953276D01*
X96706739Y-104020000D01*
X96933261Y-104020000D01*
X97268707Y-103953276D01*
X97649103Y-103699103D01*
X97903276Y-103318707D01*
X97992529Y-102870000D01*
X97903276Y-102421293D01*
X97649103Y-102040897D01*
X97268707Y-101786724D01*
X96933261Y-101720000D01*
X96706739Y-101720000D01*
X96371293Y-101786724D01*
X95990897Y-102040897D01*
X95736724Y-102421293D01*
X95647471Y-102870000D01*
X95435877Y-102870000D01*
X95435877Y-102020000D01*
X95412593Y-101902946D01*
X95346288Y-101803712D01*
X95247054Y-101737407D01*
X95130000Y-101714123D01*
X93430000Y-101714123D01*
X93312946Y-101737407D01*
X93213712Y-101803712D01*
X93147407Y-101902946D01*
X93124123Y-102020000D01*
X92368572Y-102020000D01*
X92369190Y-99220000D01*
X93124123Y-99220000D01*
X93124123Y-100920000D01*
X93147407Y-101037054D01*
X93213712Y-101136288D01*
X93312946Y-101202593D01*
X93430000Y-101225877D01*
X95130000Y-101225877D01*
X95247054Y-101202593D01*
X95346288Y-101136288D01*
X95412593Y-101037054D01*
X95435877Y-100920000D01*
X95435877Y-100070000D01*
X95647471Y-100070000D01*
X95736724Y-100518707D01*
X95990897Y-100899103D01*
X96371293Y-101153276D01*
X96706739Y-101220000D01*
X96933261Y-101220000D01*
X97268707Y-101153276D01*
X97649103Y-100899103D01*
X97903276Y-100518707D01*
X97992529Y-100070000D01*
X97903276Y-99621293D01*
X97649103Y-99240897D01*
X97268707Y-98986724D01*
X96933261Y-98920000D01*
X96706739Y-98920000D01*
X96371293Y-98986724D01*
X95990897Y-99240897D01*
X95736724Y-99621293D01*
X95647471Y-100070000D01*
X95435877Y-100070000D01*
X95435877Y-99220000D01*
X95412593Y-99102946D01*
X95346288Y-99003712D01*
X95247054Y-98937407D01*
X95130000Y-98914123D01*
X93430000Y-98914123D01*
X93312946Y-98937407D01*
X93213712Y-99003712D01*
X93147407Y-99102946D01*
X93124123Y-99220000D01*
X92369190Y-99220000D01*
X92369813Y-96400400D01*
X93104923Y-96400400D01*
X93104923Y-98100400D01*
X93128207Y-98217454D01*
X93194512Y-98316688D01*
X93293746Y-98382993D01*
X93410800Y-98406277D01*
X95110800Y-98406277D01*
X95227854Y-98382993D01*
X95327088Y-98316688D01*
X95393393Y-98217454D01*
X95416677Y-98100400D01*
X95416677Y-97250400D01*
X95628271Y-97250400D01*
X95717524Y-97699107D01*
X95971697Y-98079503D01*
X96352093Y-98333676D01*
X96687539Y-98400400D01*
X96914061Y-98400400D01*
X97249507Y-98333676D01*
X97629903Y-98079503D01*
X97884076Y-97699107D01*
X97973329Y-97250400D01*
X97884076Y-96801693D01*
X97629903Y-96421297D01*
X97249507Y-96167124D01*
X96914061Y-96100400D01*
X96687539Y-96100400D01*
X96352093Y-96167124D01*
X95971697Y-96421297D01*
X95717524Y-96801693D01*
X95628271Y-97250400D01*
X95416677Y-97250400D01*
X95416677Y-96400400D01*
X95393393Y-96283346D01*
X95327088Y-96184112D01*
X95227854Y-96117807D01*
X95110800Y-96094523D01*
X93410800Y-96094523D01*
X93293746Y-96117807D01*
X93194512Y-96184112D01*
X93128207Y-96283346D01*
X93104923Y-96400400D01*
X92369813Y-96400400D01*
X92370694Y-92415462D01*
X92372048Y-92422269D01*
X92456036Y-92547966D01*
X92487764Y-92569166D01*
X93120835Y-93202238D01*
X93142034Y-93233964D01*
X93173759Y-93255162D01*
X93173760Y-93255163D01*
X93199186Y-93272152D01*
X93255015Y-93309456D01*
X93218712Y-93333712D01*
X93152407Y-93432946D01*
X93129123Y-93550000D01*
X93129123Y-95250000D01*
X93152407Y-95367054D01*
X93218712Y-95466288D01*
X93317946Y-95532593D01*
X93435000Y-95555877D01*
X95135000Y-95555877D01*
X95252054Y-95532593D01*
X95351288Y-95466288D01*
X95417593Y-95367054D01*
X95440877Y-95250000D01*
X95440877Y-93550000D01*
X95417593Y-93432946D01*
X95355489Y-93340000D01*
X96341458Y-93340000D01*
X95995897Y-93570897D01*
X95741724Y-93951293D01*
X95652471Y-94400000D01*
X95741724Y-94848707D01*
X95995897Y-95229103D01*
X96376293Y-95483276D01*
X96711739Y-95550000D01*
X96938261Y-95550000D01*
X97273707Y-95483276D01*
X97654103Y-95229103D01*
X97908276Y-94848707D01*
X97997529Y-94400000D01*
X97908276Y-93951293D01*
X97654103Y-93570897D01*
X97308542Y-93340000D01*
X100470081Y-93340000D01*
X100507500Y-93347443D01*
X100544919Y-93340000D01*
X100544924Y-93340000D01*
X100655768Y-93317952D01*
X100781464Y-93233964D01*
X100802664Y-93202236D01*
X101024243Y-92980658D01*
X101040761Y-92987500D01*
X101319239Y-92987500D01*
X101576518Y-92880932D01*
X101773432Y-92684018D01*
X101880000Y-92426739D01*
X101880000Y-92148261D01*
X101773432Y-91890982D01*
X101576518Y-91694068D01*
X101319239Y-91587500D01*
X101040761Y-91587500D01*
X100783482Y-91694068D01*
X100586568Y-91890982D01*
X100480000Y-92148261D01*
X100480000Y-92426739D01*
X100486842Y-92443257D01*
X100350100Y-92580000D01*
X97340855Y-92580000D01*
X97604103Y-92404103D01*
X97858276Y-92023707D01*
X97947529Y-91575000D01*
X97860140Y-91135661D01*
X103195700Y-91135661D01*
X103195700Y-91414139D01*
X103302268Y-91671418D01*
X103499182Y-91868332D01*
X103756461Y-91974900D01*
X104034939Y-91974900D01*
X104292218Y-91868332D01*
X104489132Y-91671418D01*
X104595700Y-91414139D01*
X104595700Y-91135661D01*
X104489132Y-90878382D01*
X104292218Y-90681468D01*
X104275700Y-90674626D01*
X104275700Y-87186700D01*
X104669243Y-86793158D01*
X104685761Y-86800000D01*
X104964239Y-86800000D01*
X105221518Y-86693432D01*
X105418432Y-86496518D01*
X105525000Y-86239239D01*
X105525000Y-85960761D01*
X105418432Y-85703482D01*
X105221518Y-85506568D01*
X104964239Y-85400000D01*
X104685761Y-85400000D01*
X104428482Y-85506568D01*
X104231568Y-85703482D01*
X104125000Y-85960761D01*
X104125000Y-86239239D01*
X104131842Y-86255757D01*
X103653462Y-86734138D01*
X103621737Y-86755336D01*
X103600539Y-86787061D01*
X103600537Y-86787063D01*
X103537749Y-86881032D01*
X103508257Y-87029300D01*
X103515701Y-87066724D01*
X103515700Y-90674626D01*
X103499182Y-90681468D01*
X103302268Y-90878382D01*
X103195700Y-91135661D01*
X97860140Y-91135661D01*
X97858276Y-91126293D01*
X97604103Y-90745897D01*
X97223707Y-90491724D01*
X96888261Y-90425000D01*
X96661739Y-90425000D01*
X96326293Y-90491724D01*
X95945897Y-90745897D01*
X95691724Y-91126293D01*
X95602471Y-91575000D01*
X95691724Y-92023707D01*
X95945897Y-92404103D01*
X96209145Y-92580000D01*
X95342239Y-92580000D01*
X95367593Y-92542054D01*
X95390877Y-92425000D01*
X95390877Y-90725000D01*
X95367593Y-90607946D01*
X95301288Y-90508712D01*
X95202054Y-90442407D01*
X95085000Y-90419123D01*
X94918277Y-90419123D01*
X97377401Y-87960000D01*
X100002581Y-87960000D01*
X100040000Y-87967443D01*
X100077419Y-87960000D01*
X100077424Y-87960000D01*
X100188268Y-87937952D01*
X100313964Y-87853964D01*
X100335164Y-87822236D01*
X102964243Y-85193158D01*
X102980761Y-85200000D01*
X103259239Y-85200000D01*
X103516518Y-85093432D01*
X103713432Y-84896518D01*
X103820000Y-84639239D01*
X103820000Y-84360761D01*
X103713432Y-84103482D01*
X103516518Y-83906568D01*
X103259239Y-83800000D01*
X102980761Y-83800000D01*
X102723482Y-83906568D01*
X102526568Y-84103482D01*
X102420000Y-84360761D01*
X102420000Y-84639239D01*
X102426842Y-84655757D01*
X99882600Y-87200000D01*
X99006371Y-87200000D01*
X99103207Y-87103164D01*
X99225000Y-86809130D01*
X99225000Y-86490870D01*
X99103207Y-86196836D01*
X98878164Y-85971793D01*
X98584130Y-85850000D01*
X98265870Y-85850000D01*
X97971836Y-85971793D01*
X97746793Y-86196836D01*
X97625000Y-86490870D01*
X97625000Y-86809130D01*
X97746793Y-87103164D01*
X97843629Y-87200000D01*
X97257418Y-87200000D01*
X97219999Y-87192557D01*
X97182580Y-87200000D01*
X97182576Y-87200000D01*
X97071732Y-87222048D01*
X97071731Y-87222049D01*
X97071730Y-87222049D01*
X97017507Y-87258280D01*
X96946036Y-87306036D01*
X96924838Y-87337761D01*
X93992762Y-90269838D01*
X93961037Y-90291036D01*
X93939839Y-90322761D01*
X93939837Y-90322763D01*
X93877049Y-90416732D01*
X93876573Y-90419123D01*
X93385000Y-90419123D01*
X93267946Y-90442407D01*
X93168712Y-90508712D01*
X93110000Y-90596582D01*
X93110000Y-80320000D01*
X96832557Y-80320000D01*
X96840000Y-80357419D01*
X96840001Y-82372576D01*
X96832557Y-82410000D01*
X96862049Y-82558268D01*
X96924837Y-82652237D01*
X96924839Y-82652239D01*
X96946037Y-82683964D01*
X96977762Y-82705162D01*
X98871233Y-84598634D01*
X98871233Y-84674944D01*
X98977801Y-84932223D01*
X99174715Y-85129137D01*
X99431994Y-85235705D01*
X99710472Y-85235705D01*
X99967751Y-85129137D01*
X100164665Y-84932223D01*
X100271233Y-84674944D01*
X100271233Y-84396466D01*
X100164665Y-84139187D01*
X99967751Y-83942273D01*
X99872983Y-83903019D01*
X99985062Y-83790940D01*
X100091630Y-83533661D01*
X100091630Y-83295463D01*
X100121747Y-83265346D01*
X100121749Y-83265343D01*
X101970922Y-81416171D01*
X102006408Y-81392460D01*
X102100341Y-81251879D01*
X102103680Y-81235095D01*
X102133326Y-81086053D01*
X102125000Y-81044195D01*
X102125000Y-77376050D01*
X102761041Y-76740010D01*
X102999239Y-76740010D01*
X103256518Y-76633442D01*
X103453432Y-76436528D01*
X103560000Y-76179249D01*
X103560000Y-75900771D01*
X103455092Y-75647500D01*
X103791584Y-75647500D01*
X104046286Y-75902203D01*
X104039444Y-75918721D01*
X104039444Y-76197199D01*
X104146012Y-76454478D01*
X104342926Y-76651392D01*
X104600205Y-76757960D01*
X104878683Y-76757960D01*
X105135962Y-76651392D01*
X105332876Y-76454478D01*
X105439444Y-76197199D01*
X105439444Y-75918721D01*
X105332876Y-75661442D01*
X105135962Y-75464528D01*
X104878683Y-75357960D01*
X104600205Y-75357960D01*
X104583687Y-75364802D01*
X104244148Y-75025264D01*
X104222948Y-74993536D01*
X104097252Y-74909548D01*
X103986408Y-74887500D01*
X103986403Y-74887500D01*
X103948984Y-74880057D01*
X103911565Y-74887500D01*
X102328515Y-74887500D01*
X102291096Y-74880057D01*
X102253677Y-74887500D01*
X102253672Y-74887500D01*
X102142828Y-74909548D01*
X102017132Y-74993536D01*
X101995934Y-75025261D01*
X99008810Y-78012386D01*
X98998667Y-78019163D01*
X98965379Y-78041406D01*
X98921039Y-78071033D01*
X98899841Y-78102758D01*
X96977764Y-80024836D01*
X96946036Y-80046036D01*
X96862048Y-80171733D01*
X96840000Y-80282577D01*
X96840000Y-80282581D01*
X96832557Y-80320000D01*
X93110000Y-80320000D01*
X93110000Y-75597400D01*
X93594243Y-75113158D01*
X93610761Y-75120000D01*
X93889239Y-75120000D01*
X94146518Y-75013432D01*
X94343432Y-74816518D01*
X94450000Y-74559239D01*
X94450000Y-74280761D01*
X94343432Y-74023482D01*
X94146518Y-73826568D01*
X93889239Y-73720000D01*
X93610761Y-73720000D01*
X93353482Y-73826568D01*
X93156568Y-74023482D01*
X93050000Y-74280761D01*
X93050000Y-74559239D01*
X93056842Y-74575757D01*
X92487762Y-75144838D01*
X92456037Y-75166036D01*
X92434839Y-75197761D01*
X92434837Y-75197763D01*
X92374477Y-75288098D01*
X92374917Y-73294944D01*
X159155083Y-73285055D01*
X159164918Y-117805112D01*
X159164918Y-117805112D01*
G37*
X159164918Y-117805112D02*
X92365082Y-117824889D01*
X92365542Y-115740000D01*
X95752556Y-115740000D01*
X95778937Y-115872629D01*
X95777471Y-115880000D01*
X95866724Y-116328707D01*
X96120897Y-116709103D01*
X96501293Y-116963276D01*
X96836739Y-117030000D01*
X97063261Y-117030000D01*
X97398707Y-116963276D01*
X97779103Y-116709103D01*
X98033276Y-116328707D01*
X98122529Y-115880000D01*
X98121495Y-115874800D01*
X104593071Y-115874800D01*
X104682324Y-116323507D01*
X104936497Y-116703903D01*
X105316893Y-116958076D01*
X105652339Y-117024800D01*
X105878861Y-117024800D01*
X106214307Y-116958076D01*
X106594703Y-116703903D01*
X106848876Y-116323507D01*
X106938129Y-115874800D01*
X106848876Y-115426093D01*
X106809956Y-115367845D01*
X107367253Y-114810549D01*
X107398975Y-114789353D01*
X107420171Y-114757631D01*
X107420174Y-114757628D01*
X107482962Y-114663659D01*
X107482962Y-114663658D01*
X107482963Y-114663657D01*
X107505011Y-114552813D01*
X107505011Y-114552809D01*
X107512454Y-114515390D01*
X107505011Y-114477971D01*
X107505011Y-114409530D01*
X107882008Y-114786528D01*
X107856893Y-114791524D01*
X107476497Y-115045697D01*
X107222324Y-115426093D01*
X107133071Y-115874800D01*
X107222324Y-116323507D01*
X107476497Y-116703903D01*
X107856893Y-116958076D01*
X108192339Y-117024800D01*
X108418861Y-117024800D01*
X108754307Y-116958076D01*
X109134703Y-116703903D01*
X109388876Y-116323507D01*
X109478129Y-115874800D01*
X109388876Y-115426093D01*
X109134703Y-115045697D01*
X108754307Y-114791524D01*
X108685600Y-114777857D01*
X108685600Y-114710138D01*
X108693043Y-114672719D01*
X108685600Y-114635300D01*
X108685600Y-114635295D01*
X108663552Y-114524451D01*
X108579564Y-114398755D01*
X108547838Y-114377557D01*
X107865021Y-113694740D01*
X107865021Y-113431621D01*
X109801244Y-115367845D01*
X109762324Y-115426093D01*
X109673071Y-115874800D01*
X109762324Y-116323507D01*
X110016497Y-116703903D01*
X110396893Y-116958076D01*
X110732339Y-117024800D01*
X110958861Y-117024800D01*
X111294307Y-116958076D01*
X111674703Y-116703903D01*
X111928876Y-116323507D01*
X112018129Y-115874800D01*
X111928876Y-115426093D01*
X111674703Y-115045697D01*
X111294307Y-114791524D01*
X110958861Y-114724800D01*
X110732339Y-114724800D01*
X110396893Y-114791524D01*
X110338645Y-114830444D01*
X108225031Y-112716831D01*
X108225031Y-111251631D01*
X112341244Y-115367846D01*
X112302324Y-115426093D01*
X112213071Y-115874800D01*
X112302324Y-116323507D01*
X112556497Y-116703903D01*
X112936893Y-116958076D01*
X113272339Y-117024800D01*
X113498861Y-117024800D01*
X113834307Y-116958076D01*
X114214703Y-116703903D01*
X114468876Y-116323507D01*
X114558129Y-115874800D01*
X114753071Y-115874800D01*
X114842324Y-116323507D01*
X115096497Y-116703903D01*
X115476893Y-116958076D01*
X115812339Y-117024800D01*
X116038861Y-117024800D01*
X116374307Y-116958076D01*
X116754703Y-116703903D01*
X117008876Y-116323507D01*
X117098129Y-115874800D01*
X117293071Y-115874800D01*
X117382324Y-116323507D01*
X117636497Y-116703903D01*
X118016893Y-116958076D01*
X118352339Y-117024800D01*
X118578861Y-117024800D01*
X118914307Y-116958076D01*
X119294703Y-116703903D01*
X119548876Y-116323507D01*
X119638129Y-115874800D01*
X119833071Y-115874800D01*
X119922324Y-116323507D01*
X120176497Y-116703903D01*
X120556893Y-116958076D01*
X120892339Y-117024800D01*
X121118861Y-117024800D01*
X121454307Y-116958076D01*
X121834703Y-116703903D01*
X122088876Y-116323507D01*
X122178129Y-115874800D01*
X122373071Y-115874800D01*
X122462324Y-116323507D01*
X122716497Y-116703903D01*
X123096893Y-116958076D01*
X123432339Y-117024800D01*
X123658861Y-117024800D01*
X123994307Y-116958076D01*
X124374703Y-116703903D01*
X124628876Y-116323507D01*
X124718129Y-115874800D01*
X124913071Y-115874800D01*
X125002324Y-116323507D01*
X125256497Y-116703903D01*
X125636893Y-116958076D01*
X125972339Y-117024800D01*
X126198861Y-117024800D01*
X126534307Y-116958076D01*
X126914703Y-116703903D01*
X127168876Y-116323507D01*
X127258129Y-115874800D01*
X127453071Y-115874800D01*
X127542324Y-116323507D01*
X127796497Y-116703903D01*
X128176893Y-116958076D01*
X128512339Y-117024800D01*
X128738861Y-117024800D01*
X129074307Y-116958076D01*
X129454703Y-116703903D01*
X129708876Y-116323507D01*
X129798129Y-115874800D01*
X129993071Y-115874800D01*
X130082324Y-116323507D01*
X130336497Y-116703903D01*
X130716893Y-116958076D01*
X131052339Y-117024800D01*
X131278861Y-117024800D01*
X131614307Y-116958076D01*
X131994703Y-116703903D01*
X132248876Y-116323507D01*
X132338129Y-115874800D01*
X132533071Y-115874800D01*
X132622324Y-116323507D01*
X132876497Y-116703903D01*
X133256893Y-116958076D01*
X133592339Y-117024800D01*
X133818861Y-117024800D01*
X134154307Y-116958076D01*
X134534703Y-116703903D01*
X134788876Y-116323507D01*
X134878129Y-115874800D01*
X135073071Y-115874800D01*
X135162324Y-116323507D01*
X135416497Y-116703903D01*
X135796893Y-116958076D01*
X136132339Y-117024800D01*
X136358861Y-117024800D01*
X136694307Y-116958076D01*
X137074703Y-116703903D01*
X137328876Y-116323507D01*
X137418129Y-115874800D01*
X137613071Y-115874800D01*
X137702324Y-116323507D01*
X137956497Y-116703903D01*
X138336893Y-116958076D01*
X138672339Y-117024800D01*
X138898861Y-117024800D01*
X139234307Y-116958076D01*
X139614703Y-116703903D01*
X139868876Y-116323507D01*
X139958129Y-115874800D01*
X140153071Y-115874800D01*
X140242324Y-116323507D01*
X140496497Y-116703903D01*
X140876893Y-116958076D01*
X141212339Y-117024800D01*
X141438861Y-117024800D01*
X141774307Y-116958076D01*
X142154703Y-116703903D01*
X142408876Y-116323507D01*
X142498129Y-115874800D01*
X142693071Y-115874800D01*
X142782324Y-116323507D01*
X143036497Y-116703903D01*
X143416893Y-116958076D01*
X143752339Y-117024800D01*
X143978861Y-117024800D01*
X144314307Y-116958076D01*
X144694703Y-116703903D01*
X144948876Y-116323507D01*
X145038129Y-115874800D01*
X145233071Y-115874800D01*
X145322324Y-116323507D01*
X145576497Y-116703903D01*
X145956893Y-116958076D01*
X146292339Y-117024800D01*
X146518861Y-117024800D01*
X146854307Y-116958076D01*
X147234703Y-116703903D01*
X147488876Y-116323507D01*
X147578129Y-115874800D01*
X147488876Y-115426093D01*
X147234703Y-115045697D01*
X147203429Y-115024800D01*
X147789723Y-115024800D01*
X147789723Y-116724800D01*
X147813007Y-116841854D01*
X147879312Y-116941088D01*
X147978546Y-117007393D01*
X148095600Y-117030677D01*
X149795600Y-117030677D01*
X149912654Y-117007393D01*
X150011888Y-116941088D01*
X150078193Y-116841854D01*
X150101477Y-116724800D01*
X150101477Y-115824000D01*
X156116971Y-115824000D01*
X156206224Y-116272707D01*
X156460397Y-116653103D01*
X156840793Y-116907276D01*
X157176239Y-116974000D01*
X157402761Y-116974000D01*
X157738207Y-116907276D01*
X158118603Y-116653103D01*
X158372776Y-116272707D01*
X158462029Y-115824000D01*
X158372776Y-115375293D01*
X158118603Y-114994897D01*
X157738207Y-114740724D01*
X157402761Y-114674000D01*
X157176239Y-114674000D01*
X156840793Y-114740724D01*
X156460397Y-114994897D01*
X156206224Y-115375293D01*
X156116971Y-115824000D01*
X150101477Y-115824000D01*
X150101477Y-115024800D01*
X150078193Y-114907746D01*
X150011888Y-114808512D01*
X149912654Y-114742207D01*
X149795600Y-114718923D01*
X148095600Y-114718923D01*
X147978546Y-114742207D01*
X147879312Y-114808512D01*
X147813007Y-114907746D01*
X147789723Y-115024800D01*
X147203429Y-115024800D01*
X146854307Y-114791524D01*
X146518861Y-114724800D01*
X146292339Y-114724800D01*
X145956893Y-114791524D01*
X145576497Y-115045697D01*
X145322324Y-115426093D01*
X145233071Y-115874800D01*
X145038129Y-115874800D01*
X144948876Y-115426093D01*
X144694703Y-115045697D01*
X144314307Y-114791524D01*
X143978861Y-114724800D01*
X143752339Y-114724800D01*
X143416893Y-114791524D01*
X143036497Y-115045697D01*
X142782324Y-115426093D01*
X142693071Y-115874800D01*
X142498129Y-115874800D01*
X142408876Y-115426093D01*
X142154703Y-115045697D01*
X141774307Y-114791524D01*
X141438861Y-114724800D01*
X141212339Y-114724800D01*
X140876893Y-114791524D01*
X140496497Y-115045697D01*
X140242324Y-115426093D01*
X140153071Y-115874800D01*
X139958129Y-115874800D01*
X139868876Y-115426093D01*
X139614703Y-115045697D01*
X139234307Y-114791524D01*
X138898861Y-114724800D01*
X138672339Y-114724800D01*
X138336893Y-114791524D01*
X137956497Y-115045697D01*
X137702324Y-115426093D01*
X137613071Y-115874800D01*
X137418129Y-115874800D01*
X137328876Y-115426093D01*
X137074703Y-115045697D01*
X136694307Y-114791524D01*
X136358861Y-114724800D01*
X136132339Y-114724800D01*
X135796893Y-114791524D01*
X135416497Y-115045697D01*
X135162324Y-115426093D01*
X135073071Y-115874800D01*
X134878129Y-115874800D01*
X134788876Y-115426093D01*
X134534703Y-115045697D01*
X134154307Y-114791524D01*
X133818861Y-114724800D01*
X133592339Y-114724800D01*
X133256893Y-114791524D01*
X132876497Y-115045697D01*
X132622324Y-115426093D01*
X132533071Y-115874800D01*
X132338129Y-115874800D01*
X132248876Y-115426093D01*
X131994703Y-115045697D01*
X131614307Y-114791524D01*
X131278861Y-114724800D01*
X131052339Y-114724800D01*
X130716893Y-114791524D01*
X130336497Y-115045697D01*
X130082324Y-115426093D01*
X129993071Y-115874800D01*
X129798129Y-115874800D01*
X129708876Y-115426093D01*
X129454703Y-115045697D01*
X129074307Y-114791524D01*
X128738861Y-114724800D01*
X128512339Y-114724800D01*
X128176893Y-114791524D01*
X127796497Y-115045697D01*
X127542324Y-115426093D01*
X127453071Y-115874800D01*
X127258129Y-115874800D01*
X127168876Y-115426093D01*
X126914703Y-115045697D01*
X126534307Y-114791524D01*
X126198861Y-114724800D01*
X125972339Y-114724800D01*
X125636893Y-114791524D01*
X125256497Y-115045697D01*
X125002324Y-115426093D01*
X124913071Y-115874800D01*
X124718129Y-115874800D01*
X124628876Y-115426093D01*
X124374703Y-115045697D01*
X123994307Y-114791524D01*
X123658861Y-114724800D01*
X123432339Y-114724800D01*
X123096893Y-114791524D01*
X122716497Y-115045697D01*
X122462324Y-115426093D01*
X122373071Y-115874800D01*
X122178129Y-115874800D01*
X122088876Y-115426093D01*
X121834703Y-115045697D01*
X121454307Y-114791524D01*
X121118861Y-114724800D01*
X120892339Y-114724800D01*
X120556893Y-114791524D01*
X120176497Y-115045697D01*
X119922324Y-115426093D01*
X119833071Y-115874800D01*
X119638129Y-115874800D01*
X119548876Y-115426093D01*
X119294703Y-115045697D01*
X118914307Y-114791524D01*
X118578861Y-114724800D01*
X118352339Y-114724800D01*
X118016893Y-114791524D01*
X117636497Y-115045697D01*
X117382324Y-115426093D01*
X117293071Y-115874800D01*
X117098129Y-115874800D01*
X117008876Y-115426093D01*
X116754703Y-115045697D01*
X116374307Y-114791524D01*
X116038861Y-114724800D01*
X115812339Y-114724800D01*
X115476893Y-114791524D01*
X115096497Y-115045697D01*
X114842324Y-115426093D01*
X114753071Y-115874800D01*
X114558129Y-115874800D01*
X114468876Y-115426093D01*
X114214703Y-115045697D01*
X113834307Y-114791524D01*
X113498861Y-114724800D01*
X113272339Y-114724800D01*
X112936893Y-114791524D01*
X112878646Y-114830444D01*
X111332202Y-113284000D01*
X156116971Y-113284000D01*
X156206224Y-113732707D01*
X156460397Y-114113103D01*
X156840793Y-114367276D01*
X157176239Y-114434000D01*
X157402761Y-114434000D01*
X157738207Y-114367276D01*
X158118603Y-114113103D01*
X158372776Y-113732707D01*
X158462029Y-113284000D01*
X158372776Y-112835293D01*
X158118603Y-112454897D01*
X157738207Y-112200724D01*
X157402761Y-112134000D01*
X157176239Y-112134000D01*
X156840793Y-112200724D01*
X156460397Y-112454897D01*
X156206224Y-112835293D01*
X156116971Y-113284000D01*
X111332202Y-113284000D01*
X108792201Y-110744000D01*
X156116971Y-110744000D01*
X156206224Y-111192707D01*
X156460397Y-111573103D01*
X156840793Y-111827276D01*
X157176239Y-111894000D01*
X157402761Y-111894000D01*
X157738207Y-111827276D01*
X158118603Y-111573103D01*
X158372776Y-111192707D01*
X158462029Y-110744000D01*
X158372776Y-110295293D01*
X158118603Y-109914897D01*
X157738207Y-109660724D01*
X157402761Y-109594000D01*
X157176239Y-109594000D01*
X156840793Y-109660724D01*
X156460397Y-109914897D01*
X156206224Y-110295293D01*
X156116971Y-110744000D01*
X108792201Y-110744000D01*
X108585042Y-110536842D01*
X108585042Y-108204000D01*
X156116971Y-108204000D01*
X156206224Y-108652707D01*
X156460397Y-109033103D01*
X156840793Y-109287276D01*
X157176239Y-109354000D01*
X157402761Y-109354000D01*
X157738207Y-109287276D01*
X158118603Y-109033103D01*
X158372776Y-108652707D01*
X158462029Y-108204000D01*
X158372776Y-107755293D01*
X158118603Y-107374897D01*
X157738207Y-107120724D01*
X157402761Y-107054000D01*
X157176239Y-107054000D01*
X156840793Y-107120724D01*
X156460397Y-107374897D01*
X156206224Y-107755293D01*
X156116971Y-108204000D01*
X108585042Y-108204000D01*
X108585042Y-107613410D01*
X108745804Y-107680000D01*
X109024282Y-107680000D01*
X109281561Y-107573432D01*
X109478475Y-107376518D01*
X109485317Y-107360000D01*
X148316081Y-107360000D01*
X148353500Y-107367443D01*
X148390919Y-107360000D01*
X148390924Y-107360000D01*
X148501768Y-107337952D01*
X148627464Y-107253964D01*
X148648664Y-107222236D01*
X150206900Y-105664000D01*
X156116971Y-105664000D01*
X156206224Y-106112707D01*
X156460397Y-106493103D01*
X156840793Y-106747276D01*
X157176239Y-106814000D01*
X157402761Y-106814000D01*
X157738207Y-106747276D01*
X158118603Y-106493103D01*
X158372776Y-106112707D01*
X158462029Y-105664000D01*
X158372776Y-105215293D01*
X158118603Y-104834897D01*
X157738207Y-104580724D01*
X157402761Y-104514000D01*
X157176239Y-104514000D01*
X156840793Y-104580724D01*
X156460397Y-104834897D01*
X156206224Y-105215293D01*
X156116971Y-105664000D01*
X150206900Y-105664000D01*
X152746900Y-103124000D01*
X156116971Y-103124000D01*
X156206224Y-103572707D01*
X156460397Y-103953103D01*
X156840793Y-104207276D01*
X157176239Y-104274000D01*
X157402761Y-104274000D01*
X157738207Y-104207276D01*
X158118603Y-103953103D01*
X158372776Y-103572707D01*
X158462029Y-103124000D01*
X158372776Y-102675293D01*
X158118603Y-102294897D01*
X157738207Y-102040724D01*
X157402761Y-101974000D01*
X157176239Y-101974000D01*
X156840793Y-102040724D01*
X156460397Y-102294897D01*
X156206224Y-102675293D01*
X156116971Y-103124000D01*
X152746900Y-103124000D01*
X155286901Y-100584000D01*
X156116971Y-100584000D01*
X156206224Y-101032707D01*
X156460397Y-101413103D01*
X156840793Y-101667276D01*
X157176239Y-101734000D01*
X157402761Y-101734000D01*
X157738207Y-101667276D01*
X158118603Y-101413103D01*
X158372776Y-101032707D01*
X158462029Y-100584000D01*
X158372776Y-100135293D01*
X158118603Y-99754897D01*
X157738207Y-99500724D01*
X157402761Y-99434000D01*
X157176239Y-99434000D01*
X156840793Y-99500724D01*
X156460397Y-99754897D01*
X156206224Y-100135293D01*
X156116971Y-100584000D01*
X155286901Y-100584000D01*
X156782546Y-99088356D01*
X156840793Y-99127276D01*
X157176239Y-99194000D01*
X157402761Y-99194000D01*
X157738207Y-99127276D01*
X158118603Y-98873103D01*
X158372776Y-98492707D01*
X158462029Y-98044000D01*
X158372776Y-97595293D01*
X158118603Y-97214897D01*
X157738207Y-96960724D01*
X157402761Y-96894000D01*
X157176239Y-96894000D01*
X156840793Y-96960724D01*
X156460397Y-97214897D01*
X156206224Y-97595293D01*
X156116971Y-98044000D01*
X156206224Y-98492707D01*
X156245144Y-98550954D01*
X148196100Y-106600000D01*
X109485317Y-106600000D01*
X109478475Y-106583482D01*
X109304993Y-106410000D01*
X109478475Y-106236518D01*
X109485317Y-106220000D01*
X146916081Y-106220000D01*
X146953500Y-106227443D01*
X146990919Y-106220000D01*
X146990924Y-106220000D01*
X147101768Y-106197952D01*
X147227464Y-106113964D01*
X147248664Y-106082236D01*
X156782546Y-96548356D01*
X156840793Y-96587276D01*
X157176239Y-96654000D01*
X157402761Y-96654000D01*
X157738207Y-96587276D01*
X158118603Y-96333103D01*
X158372776Y-95952707D01*
X158462029Y-95504000D01*
X158372776Y-95055293D01*
X158118603Y-94674897D01*
X157738207Y-94420724D01*
X157402761Y-94354000D01*
X157176239Y-94354000D01*
X156840793Y-94420724D01*
X156460397Y-94674897D01*
X156206224Y-95055293D01*
X156116971Y-95504000D01*
X156206224Y-95952707D01*
X156245144Y-96010954D01*
X146796100Y-105460000D01*
X116229950Y-105460000D01*
X116343432Y-105346518D01*
X116416057Y-105171183D01*
X141096605Y-105171183D01*
X141153771Y-105288543D01*
X141462755Y-105364821D01*
X141777408Y-105317050D01*
X141846229Y-105288543D01*
X141903395Y-105171183D01*
X141500000Y-104767789D01*
X141096605Y-105171183D01*
X116416057Y-105171183D01*
X116450000Y-105089239D01*
X116450000Y-104810761D01*
X116343432Y-104553482D01*
X116302705Y-104512755D01*
X140685179Y-104512755D01*
X140732950Y-104827408D01*
X140761457Y-104896229D01*
X140878817Y-104953395D01*
X141282211Y-104550000D01*
X141717789Y-104550000D01*
X142121183Y-104953395D01*
X142238543Y-104896229D01*
X142314821Y-104587245D01*
X142285008Y-104390870D01*
X142600000Y-104390870D01*
X142600000Y-104709130D01*
X142721793Y-105003164D01*
X142946836Y-105228207D01*
X143240870Y-105350000D01*
X143559130Y-105350000D01*
X143853164Y-105228207D01*
X144078207Y-105003164D01*
X144200000Y-104709130D01*
X144200000Y-104390870D01*
X144078207Y-104096836D01*
X143853164Y-103871793D01*
X143559130Y-103750000D01*
X143240870Y-103750000D01*
X142946836Y-103871793D01*
X142721793Y-104096836D01*
X142600000Y-104390870D01*
X142285008Y-104390870D01*
X142267050Y-104272592D01*
X142238543Y-104203771D01*
X142121183Y-104146605D01*
X141717789Y-104550000D01*
X141282211Y-104550000D01*
X140878817Y-104146605D01*
X140761457Y-104203771D01*
X140685179Y-104512755D01*
X116302705Y-104512755D01*
X116146518Y-104356568D01*
X115889239Y-104250000D01*
X115610761Y-104250000D01*
X115353482Y-104356568D01*
X115160050Y-104550000D01*
X109600000Y-104550000D01*
X109600000Y-104460761D01*
X109493432Y-104203482D01*
X109296518Y-104006568D01*
X109108810Y-103928817D01*
X141096605Y-103928817D01*
X141500000Y-104332211D01*
X141903395Y-103928817D01*
X141846229Y-103811457D01*
X141537245Y-103735179D01*
X141222592Y-103782950D01*
X141153771Y-103811457D01*
X141096605Y-103928817D01*
X109108810Y-103928817D01*
X109039239Y-103900000D01*
X108760761Y-103900000D01*
X108585042Y-103972785D01*
X108585042Y-101971963D01*
X108901293Y-102183276D01*
X109236739Y-102250000D01*
X109463261Y-102250000D01*
X109798707Y-102183276D01*
X110179103Y-101929103D01*
X110433276Y-101548707D01*
X110522529Y-101100000D01*
X110433276Y-100651293D01*
X110394356Y-100593045D01*
X110722241Y-100265160D01*
X110753965Y-100243963D01*
X110775165Y-100212236D01*
X110799398Y-100175969D01*
X110837953Y-100118267D01*
X110860001Y-100007423D01*
X110860001Y-100007418D01*
X110867444Y-99969999D01*
X110860001Y-99932580D01*
X110860001Y-99383853D01*
X110932946Y-99432593D01*
X111050000Y-99455877D01*
X112750000Y-99455877D01*
X112867054Y-99432593D01*
X112966288Y-99366288D01*
X113032593Y-99267054D01*
X113055877Y-99150000D01*
X113055877Y-97550000D01*
X113558042Y-97550000D01*
X113356724Y-97851293D01*
X113267471Y-98300000D01*
X113356724Y-98748707D01*
X113610897Y-99129103D01*
X113991293Y-99383276D01*
X114326739Y-99450000D01*
X114553261Y-99450000D01*
X114627334Y-99435266D01*
X114472601Y-99589999D01*
X113057420Y-99589999D01*
X113020001Y-99582556D01*
X112982582Y-99589999D01*
X112982577Y-99589999D01*
X112871733Y-99612047D01*
X112833760Y-99637420D01*
X112777765Y-99674835D01*
X112746037Y-99696035D01*
X112724839Y-99727760D01*
X112396955Y-100055644D01*
X112338707Y-100016724D01*
X112003261Y-99950000D01*
X111776739Y-99950000D01*
X111441293Y-100016724D01*
X111060897Y-100270897D01*
X110806724Y-100651293D01*
X110717471Y-101100000D01*
X110806724Y-101548707D01*
X111060897Y-101929103D01*
X111441293Y-102183276D01*
X111776739Y-102250000D01*
X112003261Y-102250000D01*
X112338707Y-102183276D01*
X112719103Y-101929103D01*
X112973276Y-101548707D01*
X113062529Y-101100000D01*
X112973276Y-100651293D01*
X112934356Y-100593045D01*
X113177402Y-100349999D01*
X113548043Y-100349999D01*
X113346724Y-100651293D01*
X113257471Y-101100000D01*
X113346724Y-101548707D01*
X113600897Y-101929103D01*
X113981293Y-102183276D01*
X114316739Y-102250000D01*
X114543261Y-102250000D01*
X114878707Y-102183276D01*
X115259103Y-101929103D01*
X115513276Y-101548707D01*
X115602529Y-101100000D01*
X115513276Y-100651293D01*
X115474356Y-100593045D01*
X115717402Y-100349999D01*
X116088043Y-100349999D01*
X115886724Y-100651293D01*
X115797471Y-101100000D01*
X115886724Y-101548707D01*
X116140897Y-101929103D01*
X116521293Y-102183276D01*
X116856739Y-102250000D01*
X117083261Y-102250000D01*
X117418707Y-102183276D01*
X117799103Y-101929103D01*
X118053276Y-101548707D01*
X118142529Y-101100000D01*
X118053276Y-100651293D01*
X118014356Y-100593045D01*
X118257402Y-100349999D01*
X118628043Y-100349999D01*
X118426724Y-100651293D01*
X118337471Y-101100000D01*
X118426724Y-101548707D01*
X118680897Y-101929103D01*
X119061293Y-102183276D01*
X119396739Y-102250000D01*
X119623261Y-102250000D01*
X119958707Y-102183276D01*
X120339103Y-101929103D01*
X120593276Y-101548707D01*
X120682529Y-101100000D01*
X120593276Y-100651293D01*
X120554356Y-100593045D01*
X120797402Y-100349999D01*
X121168043Y-100349999D01*
X120966724Y-100651293D01*
X120877471Y-101100000D01*
X120966724Y-101548707D01*
X121220897Y-101929103D01*
X121601293Y-102183276D01*
X121936739Y-102250000D01*
X122163261Y-102250000D01*
X122498707Y-102183276D01*
X122879103Y-101929103D01*
X123133276Y-101548707D01*
X123222529Y-101100000D01*
X123133276Y-100651293D01*
X123094356Y-100593045D01*
X123697413Y-99989988D01*
X124275705Y-99989988D01*
X124141293Y-100016724D01*
X123760897Y-100270897D01*
X123506724Y-100651293D01*
X123417471Y-101100000D01*
X123506724Y-101548707D01*
X123553806Y-101619170D01*
X123532049Y-101651732D01*
X123502557Y-101800000D01*
X123532049Y-101948268D01*
X123616036Y-102073964D01*
X123741732Y-102157951D01*
X123890000Y-102187443D01*
X124038268Y-102157951D01*
X124070830Y-102136194D01*
X124141293Y-102183276D01*
X124476739Y-102250000D01*
X124703261Y-102250000D01*
X125038707Y-102183276D01*
X125419103Y-101929103D01*
X125673276Y-101548707D01*
X125762529Y-101100000D01*
X125673276Y-100651293D01*
X125634356Y-100593045D01*
X125877402Y-100349999D01*
X126248043Y-100349999D01*
X126046724Y-100651293D01*
X125957471Y-101100000D01*
X126046724Y-101548707D01*
X126300897Y-101929103D01*
X126681293Y-102183276D01*
X127016739Y-102250000D01*
X127243261Y-102250000D01*
X127578707Y-102183276D01*
X127959103Y-101929103D01*
X128213276Y-101548707D01*
X128244428Y-101392094D01*
X128271562Y-101373964D01*
X128292762Y-101342236D01*
X128503697Y-101131301D01*
X128586724Y-101548707D01*
X128840897Y-101929103D01*
X129221293Y-102183276D01*
X129556739Y-102250000D01*
X129783261Y-102250000D01*
X130118707Y-102183276D01*
X130499103Y-101929103D01*
X130753276Y-101548707D01*
X130823517Y-101195581D01*
X131066863Y-100952235D01*
X131037471Y-101100000D01*
X131126724Y-101548707D01*
X131380897Y-101929103D01*
X131761293Y-102183276D01*
X132096739Y-102250000D01*
X132323261Y-102250000D01*
X132658707Y-102183276D01*
X133039103Y-101929103D01*
X133293276Y-101548707D01*
X133313607Y-101446495D01*
X133422157Y-101373964D01*
X133443357Y-101342236D01*
X133595410Y-101190184D01*
X133666724Y-101548707D01*
X133920897Y-101929103D01*
X134301293Y-102183276D01*
X134636739Y-102250000D01*
X134863261Y-102250000D01*
X135198707Y-102183276D01*
X135579103Y-101929103D01*
X135833276Y-101548707D01*
X135922529Y-101100000D01*
X135833276Y-100651293D01*
X135794356Y-100593045D01*
X136134123Y-100253278D01*
X136134123Y-101950000D01*
X136157407Y-102067054D01*
X136223712Y-102166288D01*
X136322946Y-102232593D01*
X136440000Y-102255877D01*
X138140000Y-102255877D01*
X138257054Y-102232593D01*
X138356288Y-102166288D01*
X138422593Y-102067054D01*
X138445877Y-101950000D01*
X138445877Y-100250000D01*
X138422593Y-100132946D01*
X138356288Y-100033712D01*
X138257054Y-99967407D01*
X138140000Y-99944123D01*
X137973278Y-99944123D01*
X138602273Y-99315129D01*
X138633995Y-99293933D01*
X138655191Y-99262211D01*
X138655194Y-99262208D01*
X138717982Y-99168239D01*
X138717982Y-99168238D01*
X138717983Y-99168237D01*
X138740031Y-99057393D01*
X138740031Y-99057389D01*
X138747474Y-99019970D01*
X138740031Y-98982551D01*
X138740031Y-93882174D01*
X138747474Y-93844755D01*
X138740031Y-93807336D01*
X138740031Y-93807331D01*
X138717983Y-93696487D01*
X138633995Y-93570791D01*
X138602269Y-93549593D01*
X137742802Y-92690126D01*
X137742800Y-92690123D01*
X137740796Y-92688119D01*
X137747638Y-92671601D01*
X137747638Y-92393123D01*
X137641070Y-92135844D01*
X137444156Y-91938930D01*
X137300517Y-91879433D01*
X137483432Y-91696518D01*
X137590000Y-91439239D01*
X137590000Y-91160761D01*
X137483432Y-90903482D01*
X137286518Y-90706568D01*
X137029239Y-90600000D01*
X136750761Y-90600000D01*
X136629879Y-90650071D01*
X136683432Y-90596518D01*
X136790000Y-90339239D01*
X136790000Y-90060761D01*
X136683432Y-89803482D01*
X136486518Y-89606568D01*
X136229239Y-89500000D01*
X135950761Y-89500000D01*
X135930000Y-89508599D01*
X135930000Y-89430761D01*
X135823432Y-89173482D01*
X135626518Y-88976568D01*
X135369239Y-88870000D01*
X135090761Y-88870000D01*
X134833482Y-88976568D01*
X134636568Y-89173482D01*
X134530000Y-89430761D01*
X134530000Y-89709239D01*
X134636568Y-89966518D01*
X134833482Y-90163432D01*
X134850000Y-90170274D01*
X134850000Y-90173108D01*
X134850001Y-90173113D01*
X134850000Y-92727249D01*
X134842557Y-92764668D01*
X134850000Y-92802087D01*
X134850000Y-92802091D01*
X134872048Y-92912935D01*
X134956036Y-93038632D01*
X134987764Y-93059832D01*
X136225495Y-94297564D01*
X136160879Y-94270799D01*
X135882401Y-94270799D01*
X135625122Y-94377367D01*
X135428208Y-94574281D01*
X135321640Y-94831560D01*
X135321640Y-95110038D01*
X135428208Y-95367317D01*
X135625122Y-95564231D01*
X135710468Y-95599582D01*
X135556568Y-95753482D01*
X135450000Y-96010761D01*
X135450000Y-96122820D01*
X135401524Y-96102741D01*
X135123046Y-96102741D01*
X134865767Y-96209309D01*
X134668853Y-96406223D01*
X134562285Y-96663502D01*
X134562285Y-96749989D01*
X134360761Y-96749989D01*
X134133798Y-96844000D01*
X134133798Y-96642868D01*
X134027230Y-96385589D01*
X133830316Y-96188675D01*
X133573037Y-96082107D01*
X133294559Y-96082107D01*
X133037280Y-96188675D01*
X132840366Y-96385589D01*
X132760106Y-96579354D01*
X132689239Y-96550000D01*
X132410761Y-96550000D01*
X132153482Y-96656568D01*
X131956568Y-96853482D01*
X131949726Y-96870000D01*
X131214325Y-96870000D01*
X131176906Y-96862557D01*
X131139487Y-96870000D01*
X131139482Y-96870000D01*
X131028638Y-96892048D01*
X130902942Y-96976036D01*
X130881744Y-97007762D01*
X130743114Y-97146391D01*
X130663422Y-96953996D01*
X130555622Y-96846196D01*
X130555622Y-96555453D01*
X130724054Y-96387021D01*
X130830622Y-96129742D01*
X130830622Y-95891544D01*
X130860739Y-95861427D01*
X130860741Y-95861424D01*
X131680910Y-95041256D01*
X131716396Y-95017545D01*
X131810329Y-94876964D01*
X131834988Y-94752995D01*
X131843314Y-94711137D01*
X131834988Y-94669280D01*
X131834988Y-90525000D01*
X133009011Y-90525000D01*
X133050868Y-90533326D01*
X133092725Y-90525000D01*
X133092726Y-90525000D01*
X133216695Y-90500341D01*
X133357276Y-90406408D01*
X133380989Y-90370919D01*
X134131791Y-89620118D01*
X134167276Y-89596408D01*
X134261209Y-89455827D01*
X134285868Y-89331858D01*
X134285868Y-89331857D01*
X134294194Y-89290000D01*
X134285868Y-89248143D01*
X134285868Y-88956908D01*
X137540923Y-85701854D01*
X137576408Y-85678144D01*
X137670341Y-85537563D01*
X137695000Y-85413594D01*
X137695000Y-85413593D01*
X137703326Y-85371736D01*
X137695000Y-85329879D01*
X137695000Y-84152725D01*
X137703326Y-84110867D01*
X137670341Y-83945041D01*
X137600118Y-83839945D01*
X137576408Y-83804460D01*
X137540922Y-83780749D01*
X136439253Y-82679081D01*
X136415540Y-82643592D01*
X136274959Y-82549659D01*
X136150990Y-82525000D01*
X136150989Y-82525000D01*
X136109132Y-82516674D01*
X136067275Y-82525000D01*
X134899950Y-82525000D01*
X134765277Y-82390327D01*
X134768326Y-82375000D01*
X134735341Y-82209173D01*
X134688332Y-82138819D01*
X134641408Y-82068592D01*
X134605922Y-82044881D01*
X130191038Y-77629998D01*
X145856590Y-77629998D01*
X145790000Y-77790761D01*
X145790000Y-78069239D01*
X145896568Y-78326518D01*
X146093482Y-78523432D01*
X146110000Y-78530274D01*
X146110001Y-81342998D01*
X142023164Y-85429836D01*
X141991436Y-85451036D01*
X141907448Y-85576733D01*
X141885400Y-85687577D01*
X141885400Y-85687581D01*
X141877957Y-85725000D01*
X141885400Y-85762419D01*
X141885401Y-88327976D01*
X141877957Y-88365400D01*
X141907449Y-88513668D01*
X141970237Y-88607637D01*
X141970239Y-88607639D01*
X141991437Y-88639364D01*
X142023162Y-88660562D01*
X143994838Y-90632239D01*
X144016036Y-90663964D01*
X144141732Y-90747952D01*
X144252576Y-90770000D01*
X144252581Y-90770000D01*
X144290000Y-90777443D01*
X144327419Y-90770000D01*
X146403057Y-90770000D01*
X146416724Y-90838707D01*
X146670897Y-91219103D01*
X147051293Y-91473276D01*
X147386739Y-91540000D01*
X147613261Y-91540000D01*
X147948707Y-91473276D01*
X148329103Y-91219103D01*
X148583276Y-90838707D01*
X148672529Y-90390000D01*
X148583276Y-89941293D01*
X148329103Y-89560897D01*
X148327761Y-89560000D01*
X154686019Y-89560000D01*
X155792257Y-90666239D01*
X155813455Y-90697964D01*
X155939151Y-90781952D01*
X156049995Y-90804000D01*
X156050000Y-90804000D01*
X156087419Y-90811443D01*
X156124838Y-90804000D01*
X156192557Y-90804000D01*
X156206224Y-90872707D01*
X156460397Y-91253103D01*
X156560515Y-91320000D01*
X152487418Y-91320000D01*
X152449999Y-91312557D01*
X152412580Y-91320000D01*
X152412576Y-91320000D01*
X152301732Y-91342048D01*
X152301731Y-91342049D01*
X152301730Y-91342049D01*
X152207761Y-91404837D01*
X152207758Y-91404840D01*
X152176036Y-91426036D01*
X152154840Y-91457758D01*
X149932599Y-93680001D01*
X148343439Y-93680001D01*
X148512521Y-93475284D01*
X148601520Y-93260383D01*
X148563912Y-93084000D01*
X147654000Y-93084000D01*
X147654000Y-93104000D01*
X147346000Y-93104000D01*
X147346000Y-93084000D01*
X146436088Y-93084000D01*
X146398480Y-93260383D01*
X146487479Y-93475284D01*
X146656561Y-93680001D01*
X145517402Y-93680001D01*
X144437018Y-92599617D01*
X146398480Y-92599617D01*
X146436088Y-92776000D01*
X147346000Y-92776000D01*
X147346000Y-91865343D01*
X147654000Y-91865343D01*
X147654000Y-92776000D01*
X148563912Y-92776000D01*
X148601520Y-92599617D01*
X148512521Y-92384716D01*
X148226776Y-92038748D01*
X147830386Y-91828465D01*
X147654000Y-91865343D01*
X147346000Y-91865343D01*
X147169614Y-91828465D01*
X146773224Y-92038748D01*
X146487479Y-92384716D01*
X146398480Y-92599617D01*
X144437018Y-92599617D01*
X143695164Y-91857764D01*
X143673964Y-91826036D01*
X143548268Y-91742048D01*
X143437424Y-91720000D01*
X143437419Y-91720000D01*
X143400000Y-91712557D01*
X143362581Y-91720000D01*
X141655518Y-91720000D01*
X141618099Y-91712557D01*
X141580680Y-91720000D01*
X141580676Y-91720000D01*
X141469832Y-91742048D01*
X141469831Y-91742049D01*
X141469830Y-91742049D01*
X141381561Y-91801029D01*
X141344136Y-91826036D01*
X141322938Y-91857762D01*
X140930700Y-92250000D01*
X140655761Y-92250000D01*
X140398482Y-92356568D01*
X140201568Y-92553482D01*
X140095000Y-92810761D01*
X140095000Y-93089239D01*
X140201568Y-93346518D01*
X140398482Y-93543432D01*
X140655761Y-93650000D01*
X140934239Y-93650000D01*
X141191518Y-93543432D01*
X141388432Y-93346518D01*
X141464003Y-93164072D01*
X141564082Y-93405684D01*
X141760996Y-93602598D01*
X142018275Y-93709166D01*
X142296753Y-93709166D01*
X142313271Y-93702324D01*
X142315275Y-93704328D01*
X142315278Y-93704330D01*
X143733186Y-95122239D01*
X143754384Y-95153964D01*
X143786109Y-95175162D01*
X143786110Y-95175163D01*
X143792155Y-95179202D01*
X143880080Y-95237952D01*
X143990924Y-95260000D01*
X143990929Y-95260000D01*
X144028348Y-95267443D01*
X144065767Y-95260000D01*
X155336081Y-95260000D01*
X155373500Y-95267443D01*
X155410919Y-95260000D01*
X155410924Y-95260000D01*
X155521768Y-95237952D01*
X155647464Y-95153964D01*
X155668664Y-95122236D01*
X156782545Y-94008356D01*
X156840793Y-94047276D01*
X157176239Y-94114000D01*
X157402761Y-94114000D01*
X157738207Y-94047276D01*
X158118603Y-93793103D01*
X158372776Y-93412707D01*
X158462029Y-92964000D01*
X158372776Y-92515293D01*
X158118603Y-92134897D01*
X158022905Y-92070953D01*
X158088268Y-92057952D01*
X158213964Y-91973964D01*
X158235164Y-91942236D01*
X158832238Y-91345163D01*
X158863964Y-91323964D01*
X158947952Y-91198268D01*
X158970000Y-91087424D01*
X158970000Y-91087419D01*
X158977443Y-91050000D01*
X158970000Y-91012581D01*
X158970000Y-89221919D01*
X158977443Y-89184500D01*
X158970000Y-89147081D01*
X158970000Y-89147076D01*
X158947952Y-89036232D01*
X158909397Y-88978530D01*
X158885163Y-88942262D01*
X158885162Y-88942261D01*
X158863964Y-88910536D01*
X158832239Y-88889338D01*
X158333856Y-88390955D01*
X158372776Y-88332707D01*
X158462029Y-87884000D01*
X158372776Y-87435293D01*
X158118603Y-87054897D01*
X157738207Y-86800724D01*
X157402761Y-86734000D01*
X157176239Y-86734000D01*
X156840793Y-86800724D01*
X156460397Y-87054897D01*
X156206224Y-87435293D01*
X156116971Y-87884000D01*
X156206224Y-88332707D01*
X156460397Y-88713103D01*
X156840793Y-88967276D01*
X157176239Y-89034000D01*
X157402761Y-89034000D01*
X157738207Y-88967276D01*
X157796455Y-88928356D01*
X158210000Y-89341901D01*
X158210000Y-89731682D01*
X158118603Y-89594897D01*
X157738207Y-89340724D01*
X157402761Y-89274000D01*
X157176239Y-89274000D01*
X156840793Y-89340724D01*
X156460397Y-89594897D01*
X156206224Y-89975293D01*
X156201228Y-90000408D01*
X155138583Y-88937764D01*
X155117383Y-88906036D01*
X154991687Y-88822048D01*
X154880843Y-88800000D01*
X154880838Y-88800000D01*
X154843419Y-88792557D01*
X154806000Y-88800000D01*
X148635985Y-88800000D01*
X148655877Y-88700000D01*
X148655877Y-87000000D01*
X148632593Y-86882946D01*
X148566288Y-86783712D01*
X148467054Y-86717407D01*
X148350000Y-86694123D01*
X146650000Y-86694123D01*
X146532946Y-86717407D01*
X146433712Y-86783712D01*
X146367407Y-86882946D01*
X146344123Y-87000000D01*
X146344123Y-88700000D01*
X146361758Y-88788658D01*
X145292505Y-87719405D01*
X145305000Y-87689239D01*
X145305000Y-87410761D01*
X145198432Y-87153482D01*
X145001518Y-86956568D01*
X144744239Y-86850000D01*
X144572400Y-86850000D01*
X145698401Y-85724000D01*
X156192557Y-85724000D01*
X156206224Y-85792707D01*
X156460397Y-86173103D01*
X156840793Y-86427276D01*
X157176239Y-86494000D01*
X157402761Y-86494000D01*
X157738207Y-86427276D01*
X158118603Y-86173103D01*
X158372776Y-85792707D01*
X158462029Y-85344000D01*
X158372776Y-84895293D01*
X158118603Y-84514897D01*
X157738207Y-84260724D01*
X157402761Y-84194000D01*
X157176239Y-84194000D01*
X156840793Y-84260724D01*
X156460397Y-84514897D01*
X156206224Y-84895293D01*
X156192557Y-84964000D01*
X145578418Y-84964000D01*
X145540999Y-84956557D01*
X145503580Y-84964000D01*
X145503576Y-84964000D01*
X145392732Y-84986048D01*
X145392731Y-84986049D01*
X145392730Y-84986049D01*
X145309566Y-85041618D01*
X145267036Y-85070036D01*
X145245838Y-85101761D01*
X143490758Y-86856842D01*
X143474239Y-86850000D01*
X143195761Y-86850000D01*
X142938482Y-86956568D01*
X142741568Y-87153482D01*
X142645400Y-87385653D01*
X142645400Y-85882400D01*
X145723800Y-82804000D01*
X156116971Y-82804000D01*
X156206224Y-83252707D01*
X156460397Y-83633103D01*
X156840793Y-83887276D01*
X157176239Y-83954000D01*
X157402761Y-83954000D01*
X157738207Y-83887276D01*
X158118603Y-83633103D01*
X158372776Y-83252707D01*
X158462029Y-82804000D01*
X158372776Y-82355293D01*
X158118603Y-81974897D01*
X157738207Y-81720724D01*
X157402761Y-81654000D01*
X157176239Y-81654000D01*
X156840793Y-81720724D01*
X156460397Y-81974897D01*
X156206224Y-82355293D01*
X156116971Y-82804000D01*
X145723800Y-82804000D01*
X146732239Y-81795562D01*
X146763964Y-81774364D01*
X146847952Y-81648668D01*
X146870000Y-81537824D01*
X146870000Y-81537819D01*
X146877443Y-81500400D01*
X146870000Y-81462981D01*
X146870000Y-80264000D01*
X156116971Y-80264000D01*
X156206224Y-80712707D01*
X156460397Y-81093103D01*
X156840793Y-81347276D01*
X157176239Y-81414000D01*
X157402761Y-81414000D01*
X157738207Y-81347276D01*
X158118603Y-81093103D01*
X158372776Y-80712707D01*
X158462029Y-80264000D01*
X158372776Y-79815293D01*
X158118603Y-79434897D01*
X157738207Y-79180724D01*
X157402761Y-79114000D01*
X157176239Y-79114000D01*
X156840793Y-79180724D01*
X156460397Y-79434897D01*
X156206224Y-79815293D01*
X156116971Y-80264000D01*
X146870000Y-80264000D01*
X146870000Y-78530274D01*
X146886518Y-78523432D01*
X147083432Y-78326518D01*
X147190000Y-78069239D01*
X147190000Y-77790761D01*
X147123410Y-77629998D01*
X150777998Y-77629998D01*
X151114237Y-77966238D01*
X151135436Y-77997964D01*
X151167161Y-78019162D01*
X151167162Y-78019163D01*
X151261130Y-78081951D01*
X151261131Y-78081951D01*
X151261132Y-78081952D01*
X151371976Y-78104000D01*
X151371980Y-78104000D01*
X151409399Y-78111443D01*
X151446818Y-78104000D01*
X156192557Y-78104000D01*
X156206224Y-78172707D01*
X156460397Y-78553103D01*
X156840793Y-78807276D01*
X157176239Y-78874000D01*
X157402761Y-78874000D01*
X157738207Y-78807276D01*
X158118603Y-78553103D01*
X158372776Y-78172707D01*
X158462029Y-77724000D01*
X158372776Y-77275293D01*
X158118603Y-76894897D01*
X157738207Y-76640724D01*
X157402761Y-76574000D01*
X157176239Y-76574000D01*
X156840793Y-76640724D01*
X156460397Y-76894897D01*
X156206224Y-77275293D01*
X156192557Y-77344000D01*
X151566801Y-77344000D01*
X151273700Y-77050900D01*
X152760602Y-75564000D01*
X156133623Y-75564000D01*
X156133623Y-76034000D01*
X156156907Y-76151054D01*
X156223212Y-76250288D01*
X156322446Y-76316593D01*
X156439500Y-76339877D01*
X158139500Y-76339877D01*
X158256554Y-76316593D01*
X158355788Y-76250288D01*
X158422093Y-76151054D01*
X158445377Y-76034000D01*
X158445377Y-74334000D01*
X158422093Y-74216946D01*
X158355788Y-74117712D01*
X158256554Y-74051407D01*
X158139500Y-74028123D01*
X156439500Y-74028123D01*
X156322446Y-74051407D01*
X156223212Y-74117712D01*
X156156907Y-74216946D01*
X156133623Y-74334000D01*
X156133623Y-74804000D01*
X152640618Y-74804000D01*
X152603199Y-74796557D01*
X152565780Y-74804000D01*
X152565776Y-74804000D01*
X152454932Y-74826048D01*
X152454931Y-74826049D01*
X152454930Y-74826049D01*
X152360961Y-74888837D01*
X152360958Y-74888840D01*
X152329236Y-74910036D01*
X152308040Y-74941759D01*
X150739812Y-76509988D01*
X122727931Y-76509988D01*
X122690512Y-76502545D01*
X122653093Y-76509988D01*
X122653088Y-76509988D01*
X122542244Y-76532036D01*
X122542242Y-76532037D01*
X122542243Y-76532037D01*
X122465966Y-76583004D01*
X122416548Y-76616024D01*
X122395350Y-76647750D01*
X121322164Y-77720936D01*
X121290436Y-77742136D01*
X121206448Y-77867833D01*
X121184400Y-77978677D01*
X121184400Y-77978681D01*
X121176957Y-78016100D01*
X121184400Y-78053519D01*
X121184401Y-80189478D01*
X121108885Y-80371790D01*
X121108885Y-80650268D01*
X121191285Y-80849200D01*
X117616602Y-80849200D01*
X117443159Y-80675757D01*
X117450001Y-80659239D01*
X117450001Y-80380761D01*
X117343433Y-80123482D01*
X117146519Y-79926568D01*
X117130667Y-79920002D01*
X117279726Y-79920002D01*
X117286568Y-79936520D01*
X117483482Y-80133434D01*
X117740761Y-80240002D01*
X118019239Y-80240002D01*
X118276518Y-80133434D01*
X118473432Y-79936520D01*
X118580000Y-79679241D01*
X118580000Y-79517964D01*
X118668786Y-79554740D01*
X118947264Y-79554740D01*
X119204543Y-79448172D01*
X119401457Y-79251258D01*
X119508025Y-78993979D01*
X119508025Y-78715501D01*
X119401457Y-78458222D01*
X119204543Y-78261308D01*
X118947264Y-78154740D01*
X118668786Y-78154740D01*
X118652268Y-78161582D01*
X118560000Y-78069315D01*
X118560000Y-75922998D01*
X118630897Y-76029103D01*
X119011293Y-76283276D01*
X119346739Y-76350000D01*
X119573261Y-76350000D01*
X119908707Y-76283276D01*
X120289103Y-76029103D01*
X120543276Y-75648707D01*
X120632529Y-75200000D01*
X120827471Y-75200000D01*
X120916724Y-75648707D01*
X121170897Y-76029103D01*
X121551293Y-76283276D01*
X121886739Y-76350000D01*
X122113261Y-76350000D01*
X122448707Y-76283276D01*
X122829103Y-76029103D01*
X123083276Y-75648707D01*
X123172529Y-75200000D01*
X123367471Y-75200000D01*
X123456724Y-75648707D01*
X123710897Y-76029103D01*
X124091293Y-76283276D01*
X124426739Y-76350000D01*
X124653261Y-76350000D01*
X124988707Y-76283276D01*
X125369103Y-76029103D01*
X125623276Y-75648707D01*
X125712529Y-75200000D01*
X125907471Y-75200000D01*
X125996724Y-75648707D01*
X126250897Y-76029103D01*
X126631293Y-76283276D01*
X126966739Y-76350000D01*
X127193261Y-76350000D01*
X127528707Y-76283276D01*
X127909103Y-76029103D01*
X128163276Y-75648707D01*
X128252529Y-75200000D01*
X128447471Y-75200000D01*
X128536724Y-75648707D01*
X128790897Y-76029103D01*
X129171293Y-76283276D01*
X129506739Y-76350000D01*
X129733261Y-76350000D01*
X130068707Y-76283276D01*
X130449103Y-76029103D01*
X130703276Y-75648707D01*
X130792529Y-75200000D01*
X130987471Y-75200000D01*
X131076724Y-75648707D01*
X131330897Y-76029103D01*
X131711293Y-76283276D01*
X132046739Y-76350000D01*
X132273261Y-76350000D01*
X132608707Y-76283276D01*
X132989103Y-76029103D01*
X133243276Y-75648707D01*
X133332529Y-75200000D01*
X133527471Y-75200000D01*
X133616724Y-75648707D01*
X133870897Y-76029103D01*
X134251293Y-76283276D01*
X134586739Y-76350000D01*
X134813261Y-76350000D01*
X135148707Y-76283276D01*
X135529103Y-76029103D01*
X135783276Y-75648707D01*
X135872529Y-75200000D01*
X136067471Y-75200000D01*
X136156724Y-75648707D01*
X136410897Y-76029103D01*
X136791293Y-76283276D01*
X137126739Y-76350000D01*
X137353261Y-76350000D01*
X137688707Y-76283276D01*
X138069103Y-76029103D01*
X138323276Y-75648707D01*
X138412529Y-75200000D01*
X138607471Y-75200000D01*
X138696724Y-75648707D01*
X138950897Y-76029103D01*
X139331293Y-76283276D01*
X139666739Y-76350000D01*
X139893261Y-76350000D01*
X140228707Y-76283276D01*
X140609103Y-76029103D01*
X140863276Y-75648707D01*
X140952529Y-75200000D01*
X141147471Y-75200000D01*
X141236724Y-75648707D01*
X141490897Y-76029103D01*
X141871293Y-76283276D01*
X142206739Y-76350000D01*
X142433261Y-76350000D01*
X142768707Y-76283276D01*
X143149103Y-76029103D01*
X143403276Y-75648707D01*
X143492529Y-75200000D01*
X143403276Y-74751293D01*
X143149103Y-74370897D01*
X143117829Y-74350000D01*
X143704123Y-74350000D01*
X143704123Y-76050000D01*
X143727407Y-76167054D01*
X143793712Y-76266288D01*
X143892946Y-76332593D01*
X144010000Y-76355877D01*
X145710000Y-76355877D01*
X145827054Y-76332593D01*
X145926288Y-76266288D01*
X145992593Y-76167054D01*
X146015877Y-76050000D01*
X146015877Y-74350000D01*
X145992593Y-74232946D01*
X145926288Y-74133712D01*
X145827054Y-74067407D01*
X145710000Y-74044123D01*
X144010000Y-74044123D01*
X143892946Y-74067407D01*
X143793712Y-74133712D01*
X143727407Y-74232946D01*
X143704123Y-74350000D01*
X143117829Y-74350000D01*
X142768707Y-74116724D01*
X142433261Y-74050000D01*
X142206739Y-74050000D01*
X141871293Y-74116724D01*
X141490897Y-74370897D01*
X141236724Y-74751293D01*
X141147471Y-75200000D01*
X140952529Y-75200000D01*
X140863276Y-74751293D01*
X140609103Y-74370897D01*
X140228707Y-74116724D01*
X139893261Y-74050000D01*
X139666739Y-74050000D01*
X139331293Y-74116724D01*
X138950897Y-74370897D01*
X138696724Y-74751293D01*
X138607471Y-75200000D01*
X138412529Y-75200000D01*
X138323276Y-74751293D01*
X138069103Y-74370897D01*
X137688707Y-74116724D01*
X137353261Y-74050000D01*
X137126739Y-74050000D01*
X136791293Y-74116724D01*
X136410897Y-74370897D01*
X136156724Y-74751293D01*
X136067471Y-75200000D01*
X135872529Y-75200000D01*
X135783276Y-74751293D01*
X135529103Y-74370897D01*
X135148707Y-74116724D01*
X134813261Y-74050000D01*
X134586739Y-74050000D01*
X134251293Y-74116724D01*
X133870897Y-74370897D01*
X133616724Y-74751293D01*
X133527471Y-75200000D01*
X133332529Y-75200000D01*
X133243276Y-74751293D01*
X132989103Y-74370897D01*
X132608707Y-74116724D01*
X132273261Y-74050000D01*
X132046739Y-74050000D01*
X131711293Y-74116724D01*
X131330897Y-74370897D01*
X131076724Y-74751293D01*
X130987471Y-75200000D01*
X130792529Y-75200000D01*
X130703276Y-74751293D01*
X130449103Y-74370897D01*
X130068707Y-74116724D01*
X129733261Y-74050000D01*
X129506739Y-74050000D01*
X129171293Y-74116724D01*
X128790897Y-74370897D01*
X128536724Y-74751293D01*
X128447471Y-75200000D01*
X128252529Y-75200000D01*
X128163276Y-74751293D01*
X127909103Y-74370897D01*
X127528707Y-74116724D01*
X127193261Y-74050000D01*
X126966739Y-74050000D01*
X126631293Y-74116724D01*
X126250897Y-74370897D01*
X125996724Y-74751293D01*
X125907471Y-75200000D01*
X125712529Y-75200000D01*
X125623276Y-74751293D01*
X125369103Y-74370897D01*
X124988707Y-74116724D01*
X124653261Y-74050000D01*
X124426739Y-74050000D01*
X124091293Y-74116724D01*
X123710897Y-74370897D01*
X123456724Y-74751293D01*
X123367471Y-75200000D01*
X123172529Y-75200000D01*
X123083276Y-74751293D01*
X122829103Y-74370897D01*
X122448707Y-74116724D01*
X122113261Y-74050000D01*
X121886739Y-74050000D01*
X121551293Y-74116724D01*
X121170897Y-74370897D01*
X120916724Y-74751293D01*
X120827471Y-75200000D01*
X120632529Y-75200000D01*
X120543276Y-74751293D01*
X120289103Y-74370897D01*
X119908707Y-74116724D01*
X119573261Y-74050000D01*
X119346739Y-74050000D01*
X119011293Y-74116724D01*
X118630897Y-74370897D01*
X118540752Y-74505808D01*
X118537952Y-74491732D01*
X118517907Y-74461732D01*
X118475163Y-74397762D01*
X118475162Y-74397761D01*
X118453964Y-74366036D01*
X118422239Y-74344838D01*
X117545151Y-73467751D01*
X117523953Y-73436026D01*
X117492228Y-73414828D01*
X117492226Y-73414826D01*
X117398257Y-73352038D01*
X117249989Y-73322546D01*
X117212565Y-73329990D01*
X108428298Y-73329988D01*
X108390879Y-73322545D01*
X108353460Y-73329988D01*
X108353457Y-73329988D01*
X108242613Y-73352036D01*
X108242612Y-73352037D01*
X108242610Y-73352037D01*
X108148642Y-73414825D01*
X108148639Y-73414828D01*
X108116917Y-73436024D01*
X108095721Y-73467746D01*
X106882773Y-74680695D01*
X106851048Y-74701893D01*
X106829850Y-74733618D01*
X106829848Y-74733620D01*
X106767060Y-74827589D01*
X106737568Y-74975857D01*
X106745012Y-75013281D01*
X106745012Y-85400062D01*
X106705000Y-85360050D01*
X106705000Y-80846845D01*
X106713326Y-80804988D01*
X106703771Y-80756949D01*
X106680341Y-80639161D01*
X106586408Y-80498580D01*
X106550923Y-80474870D01*
X106080000Y-80003948D01*
X106080000Y-79730761D01*
X105973432Y-79473482D01*
X105776518Y-79276568D01*
X105519239Y-79170000D01*
X105240761Y-79170000D01*
X104983482Y-79276568D01*
X104786568Y-79473482D01*
X104680000Y-79730761D01*
X104680000Y-80009239D01*
X104786568Y-80266518D01*
X104983482Y-80463432D01*
X105240761Y-80570000D01*
X105443972Y-80570000D01*
X105855000Y-80981029D01*
X105855001Y-85317453D01*
X105855000Y-85317458D01*
X105855000Y-85360050D01*
X105686568Y-85528482D01*
X105580000Y-85785761D01*
X105580000Y-86064239D01*
X105686568Y-86321518D01*
X105883482Y-86518432D01*
X106140761Y-86625000D01*
X106419239Y-86625000D01*
X106676518Y-86518432D01*
X106745012Y-86449938D01*
X106745011Y-114357987D01*
X106272555Y-114830444D01*
X106214307Y-114791524D01*
X105878861Y-114724800D01*
X105652339Y-114724800D01*
X105316893Y-114791524D01*
X104936497Y-115045697D01*
X104682324Y-115426093D01*
X104593071Y-115874800D01*
X98121495Y-115874800D01*
X98033276Y-115431293D01*
X98019846Y-115411194D01*
X103390923Y-110040118D01*
X103426408Y-110016408D01*
X103520341Y-109875827D01*
X103545000Y-109751858D01*
X103545000Y-109751857D01*
X103553326Y-109710000D01*
X103545000Y-109668143D01*
X103545000Y-105164950D01*
X103713432Y-104996518D01*
X103820000Y-104739239D01*
X103820000Y-104460761D01*
X103713432Y-104203482D01*
X103545000Y-104035050D01*
X103545000Y-95666040D01*
X104586457Y-94624584D01*
X104806518Y-94533432D01*
X105003432Y-94336518D01*
X105110000Y-94079239D01*
X105110000Y-93800761D01*
X105003432Y-93543482D01*
X104806518Y-93346568D01*
X104549239Y-93240000D01*
X104270761Y-93240000D01*
X104013482Y-93346568D01*
X103816568Y-93543482D01*
X103710000Y-93800761D01*
X103710000Y-94079239D01*
X103774354Y-94234605D01*
X102849081Y-95159879D01*
X102813592Y-95183592D01*
X102744958Y-95286311D01*
X102719659Y-95324174D01*
X102686674Y-95490000D01*
X102695000Y-95531858D01*
X102695001Y-97408142D01*
X102695000Y-104035050D01*
X102526568Y-104203482D01*
X102420000Y-104460761D01*
X102420000Y-104739239D01*
X102526568Y-104996518D01*
X102695000Y-105164950D01*
X102695000Y-109533959D01*
X97418806Y-114810154D01*
X97398707Y-114796724D01*
X97063261Y-114730000D01*
X96836739Y-114730000D01*
X96501293Y-114796724D01*
X96120897Y-115050897D01*
X95866724Y-115431293D01*
X95857176Y-115479297D01*
X95782048Y-115591732D01*
X95752556Y-115740000D01*
X92365542Y-115740000D01*
X92366072Y-113340000D01*
X95777471Y-113340000D01*
X95866724Y-113788707D01*
X96120897Y-114169103D01*
X96501293Y-114423276D01*
X96836739Y-114490000D01*
X97063261Y-114490000D01*
X97398707Y-114423276D01*
X97779103Y-114169103D01*
X98033276Y-113788707D01*
X98122529Y-113340000D01*
X98033276Y-112891293D01*
X98019847Y-112871194D01*
X98026620Y-112864420D01*
X98128407Y-112796409D01*
X98152120Y-112760920D01*
X99630923Y-111282118D01*
X99666408Y-111258408D01*
X99760341Y-111117827D01*
X99785000Y-110993858D01*
X99785000Y-110993857D01*
X99793326Y-110952000D01*
X99785000Y-110910143D01*
X99785000Y-103957992D01*
X99808707Y-103953276D01*
X100189103Y-103699103D01*
X100443276Y-103318707D01*
X100532529Y-102870000D01*
X100443276Y-102421293D01*
X100189103Y-102040897D01*
X99808707Y-101786724D01*
X99785000Y-101782008D01*
X99785000Y-101157992D01*
X99808707Y-101153276D01*
X100189103Y-100899103D01*
X100443276Y-100518707D01*
X100532529Y-100070000D01*
X100443276Y-99621293D01*
X100189103Y-99240897D01*
X99808707Y-98986724D01*
X99785000Y-98982008D01*
X99785000Y-98334572D01*
X99789507Y-98333676D01*
X100169903Y-98079503D01*
X100424076Y-97699107D01*
X100513329Y-97250400D01*
X100424076Y-96801693D01*
X100169903Y-96421297D01*
X99789507Y-96167124D01*
X99454061Y-96100400D01*
X99227539Y-96100400D01*
X98892093Y-96167124D01*
X98511697Y-96421297D01*
X98257524Y-96801693D01*
X98168271Y-97250400D01*
X98257524Y-97699107D01*
X98511697Y-98079503D01*
X98892093Y-98333676D01*
X98935001Y-98342211D01*
X98935000Y-98982008D01*
X98911293Y-98986724D01*
X98530897Y-99240897D01*
X98276724Y-99621293D01*
X98187471Y-100070000D01*
X98276724Y-100518707D01*
X98530897Y-100899103D01*
X98911293Y-101153276D01*
X98935000Y-101157992D01*
X98935000Y-101709776D01*
X98935001Y-101709781D01*
X98935001Y-101782008D01*
X98911293Y-101786724D01*
X98530897Y-102040897D01*
X98276724Y-102421293D01*
X98187471Y-102870000D01*
X98276724Y-103318707D01*
X98530897Y-103699103D01*
X98911293Y-103953276D01*
X98935001Y-103957992D01*
X98935000Y-110775959D01*
X98100000Y-111610960D01*
X98100000Y-111029000D01*
X98025000Y-110954000D01*
X97104000Y-110954000D01*
X97104000Y-111875000D01*
X97179000Y-111950000D01*
X97760960Y-111950000D01*
X97595380Y-112115580D01*
X97493591Y-112183593D01*
X97469880Y-112219079D01*
X97418806Y-112270153D01*
X97398707Y-112256724D01*
X97063261Y-112190000D01*
X96836739Y-112190000D01*
X96501293Y-112256724D01*
X96120897Y-112510897D01*
X95866724Y-112891293D01*
X95777471Y-113340000D01*
X92366072Y-113340000D01*
X92366582Y-111029000D01*
X95800000Y-111029000D01*
X95800000Y-111709673D01*
X95845672Y-111819936D01*
X95930063Y-111904328D01*
X96040326Y-111950000D01*
X96721000Y-111950000D01*
X96796000Y-111875000D01*
X96796000Y-110954000D01*
X95875000Y-110954000D01*
X95800000Y-111029000D01*
X92366582Y-111029000D01*
X92366833Y-109890327D01*
X95800000Y-109890327D01*
X95800000Y-110571000D01*
X95875000Y-110646000D01*
X96796000Y-110646000D01*
X96796000Y-109725000D01*
X97104000Y-109725000D01*
X97104000Y-110646000D01*
X98025000Y-110646000D01*
X98100000Y-110571000D01*
X98100000Y-109890327D01*
X98054328Y-109780064D01*
X97969937Y-109695672D01*
X97859674Y-109650000D01*
X97179000Y-109650000D01*
X97104000Y-109725000D01*
X96796000Y-109725000D01*
X96721000Y-109650000D01*
X96040326Y-109650000D01*
X95930063Y-109695672D01*
X95845672Y-109780064D01*
X95800000Y-109890327D01*
X92366833Y-109890327D01*
X92368572Y-102020000D01*
X93124123Y-102020000D01*
X93124123Y-103720000D01*
X93147407Y-103837054D01*
X93213712Y-103936288D01*
X93312946Y-104002593D01*
X93430000Y-104025877D01*
X95130000Y-104025877D01*
X95247054Y-104002593D01*
X95346288Y-103936288D01*
X95412593Y-103837054D01*
X95435877Y-103720000D01*
X95435877Y-102870000D01*
X95647471Y-102870000D01*
X95736724Y-103318707D01*
X95990897Y-103699103D01*
X96371293Y-103953276D01*
X96706739Y-104020000D01*
X96933261Y-104020000D01*
X97268707Y-103953276D01*
X97649103Y-103699103D01*
X97903276Y-103318707D01*
X97992529Y-102870000D01*
X97903276Y-102421293D01*
X97649103Y-102040897D01*
X97268707Y-101786724D01*
X96933261Y-101720000D01*
X96706739Y-101720000D01*
X96371293Y-101786724D01*
X95990897Y-102040897D01*
X95736724Y-102421293D01*
X95647471Y-102870000D01*
X95435877Y-102870000D01*
X95435877Y-102020000D01*
X95412593Y-101902946D01*
X95346288Y-101803712D01*
X95247054Y-101737407D01*
X95130000Y-101714123D01*
X93430000Y-101714123D01*
X93312946Y-101737407D01*
X93213712Y-101803712D01*
X93147407Y-101902946D01*
X93124123Y-102020000D01*
X92368572Y-102020000D01*
X92369190Y-99220000D01*
X93124123Y-99220000D01*
X93124123Y-100920000D01*
X93147407Y-101037054D01*
X93213712Y-101136288D01*
X93312946Y-101202593D01*
X93430000Y-101225877D01*
X95130000Y-101225877D01*
X95247054Y-101202593D01*
X95346288Y-101136288D01*
X95412593Y-101037054D01*
X95435877Y-100920000D01*
X95435877Y-100070000D01*
X95647471Y-100070000D01*
X95736724Y-100518707D01*
X95990897Y-100899103D01*
X96371293Y-101153276D01*
X96706739Y-101220000D01*
X96933261Y-101220000D01*
X97268707Y-101153276D01*
X97649103Y-100899103D01*
X97903276Y-100518707D01*
X97992529Y-100070000D01*
X97903276Y-99621293D01*
X97649103Y-99240897D01*
X97268707Y-98986724D01*
X96933261Y-98920000D01*
X96706739Y-98920000D01*
X96371293Y-98986724D01*
X95990897Y-99240897D01*
X95736724Y-99621293D01*
X95647471Y-100070000D01*
X95435877Y-100070000D01*
X95435877Y-99220000D01*
X95412593Y-99102946D01*
X95346288Y-99003712D01*
X95247054Y-98937407D01*
X95130000Y-98914123D01*
X93430000Y-98914123D01*
X93312946Y-98937407D01*
X93213712Y-99003712D01*
X93147407Y-99102946D01*
X93124123Y-99220000D01*
X92369190Y-99220000D01*
X92369813Y-96400400D01*
X93104923Y-96400400D01*
X93104923Y-98100400D01*
X93128207Y-98217454D01*
X93194512Y-98316688D01*
X93293746Y-98382993D01*
X93410800Y-98406277D01*
X95110800Y-98406277D01*
X95227854Y-98382993D01*
X95327088Y-98316688D01*
X95393393Y-98217454D01*
X95416677Y-98100400D01*
X95416677Y-97250400D01*
X95628271Y-97250400D01*
X95717524Y-97699107D01*
X95971697Y-98079503D01*
X96352093Y-98333676D01*
X96687539Y-98400400D01*
X96914061Y-98400400D01*
X97249507Y-98333676D01*
X97629903Y-98079503D01*
X97884076Y-97699107D01*
X97973329Y-97250400D01*
X97884076Y-96801693D01*
X97629903Y-96421297D01*
X97249507Y-96167124D01*
X96914061Y-96100400D01*
X96687539Y-96100400D01*
X96352093Y-96167124D01*
X95971697Y-96421297D01*
X95717524Y-96801693D01*
X95628271Y-97250400D01*
X95416677Y-97250400D01*
X95416677Y-96400400D01*
X95393393Y-96283346D01*
X95327088Y-96184112D01*
X95227854Y-96117807D01*
X95110800Y-96094523D01*
X93410800Y-96094523D01*
X93293746Y-96117807D01*
X93194512Y-96184112D01*
X93128207Y-96283346D01*
X93104923Y-96400400D01*
X92369813Y-96400400D01*
X92370694Y-92415462D01*
X92372048Y-92422269D01*
X92456036Y-92547966D01*
X92487764Y-92569166D01*
X93120835Y-93202238D01*
X93142034Y-93233964D01*
X93173759Y-93255162D01*
X93173760Y-93255163D01*
X93199186Y-93272152D01*
X93255015Y-93309456D01*
X93218712Y-93333712D01*
X93152407Y-93432946D01*
X93129123Y-93550000D01*
X93129123Y-95250000D01*
X93152407Y-95367054D01*
X93218712Y-95466288D01*
X93317946Y-95532593D01*
X93435000Y-95555877D01*
X95135000Y-95555877D01*
X95252054Y-95532593D01*
X95351288Y-95466288D01*
X95417593Y-95367054D01*
X95440877Y-95250000D01*
X95440877Y-93550000D01*
X95417593Y-93432946D01*
X95355489Y-93340000D01*
X96341458Y-93340000D01*
X95995897Y-93570897D01*
X95741724Y-93951293D01*
X95652471Y-94400000D01*
X95741724Y-94848707D01*
X95995897Y-95229103D01*
X96376293Y-95483276D01*
X96711739Y-95550000D01*
X96938261Y-95550000D01*
X97273707Y-95483276D01*
X97654103Y-95229103D01*
X97908276Y-94848707D01*
X97997529Y-94400000D01*
X97908276Y-93951293D01*
X97654103Y-93570897D01*
X97308542Y-93340000D01*
X100470081Y-93340000D01*
X100507500Y-93347443D01*
X100544919Y-93340000D01*
X100544924Y-93340000D01*
X100655768Y-93317952D01*
X100781464Y-93233964D01*
X100802664Y-93202236D01*
X101024243Y-92980658D01*
X101040761Y-92987500D01*
X101319239Y-92987500D01*
X101576518Y-92880932D01*
X101773432Y-92684018D01*
X101880000Y-92426739D01*
X101880000Y-92148261D01*
X101773432Y-91890982D01*
X101576518Y-91694068D01*
X101319239Y-91587500D01*
X101040761Y-91587500D01*
X100783482Y-91694068D01*
X100586568Y-91890982D01*
X100480000Y-92148261D01*
X100480000Y-92426739D01*
X100486842Y-92443257D01*
X100350100Y-92580000D01*
X97340855Y-92580000D01*
X97604103Y-92404103D01*
X97858276Y-92023707D01*
X97947529Y-91575000D01*
X97860140Y-91135661D01*
X103195700Y-91135661D01*
X103195700Y-91414139D01*
X103302268Y-91671418D01*
X103499182Y-91868332D01*
X103756461Y-91974900D01*
X104034939Y-91974900D01*
X104292218Y-91868332D01*
X104489132Y-91671418D01*
X104595700Y-91414139D01*
X104595700Y-91135661D01*
X104489132Y-90878382D01*
X104292218Y-90681468D01*
X104275700Y-90674626D01*
X104275700Y-87186700D01*
X104669243Y-86793158D01*
X104685761Y-86800000D01*
X104964239Y-86800000D01*
X105221518Y-86693432D01*
X105418432Y-86496518D01*
X105525000Y-86239239D01*
X105525000Y-85960761D01*
X105418432Y-85703482D01*
X105221518Y-85506568D01*
X104964239Y-85400000D01*
X104685761Y-85400000D01*
X104428482Y-85506568D01*
X104231568Y-85703482D01*
X104125000Y-85960761D01*
X104125000Y-86239239D01*
X104131842Y-86255757D01*
X103653462Y-86734138D01*
X103621737Y-86755336D01*
X103600539Y-86787061D01*
X103600537Y-86787063D01*
X103537749Y-86881032D01*
X103508257Y-87029300D01*
X103515701Y-87066724D01*
X103515700Y-90674626D01*
X103499182Y-90681468D01*
X103302268Y-90878382D01*
X103195700Y-91135661D01*
X97860140Y-91135661D01*
X97858276Y-91126293D01*
X97604103Y-90745897D01*
X97223707Y-90491724D01*
X96888261Y-90425000D01*
X96661739Y-90425000D01*
X96326293Y-90491724D01*
X95945897Y-90745897D01*
X95691724Y-91126293D01*
X95602471Y-91575000D01*
X95691724Y-92023707D01*
X95945897Y-92404103D01*
X96209145Y-92580000D01*
X95342239Y-92580000D01*
X95367593Y-92542054D01*
X95390877Y-92425000D01*
X95390877Y-90725000D01*
X95367593Y-90607946D01*
X95301288Y-90508712D01*
X95202054Y-90442407D01*
X95085000Y-90419123D01*
X94918277Y-90419123D01*
X97377401Y-87960000D01*
X100002581Y-87960000D01*
X100040000Y-87967443D01*
X100077419Y-87960000D01*
X100077424Y-87960000D01*
X100188268Y-87937952D01*
X100313964Y-87853964D01*
X100335164Y-87822236D01*
X102964243Y-85193158D01*
X102980761Y-85200000D01*
X103259239Y-85200000D01*
X103516518Y-85093432D01*
X103713432Y-84896518D01*
X103820000Y-84639239D01*
X103820000Y-84360761D01*
X103713432Y-84103482D01*
X103516518Y-83906568D01*
X103259239Y-83800000D01*
X102980761Y-83800000D01*
X102723482Y-83906568D01*
X102526568Y-84103482D01*
X102420000Y-84360761D01*
X102420000Y-84639239D01*
X102426842Y-84655757D01*
X99882600Y-87200000D01*
X99006371Y-87200000D01*
X99103207Y-87103164D01*
X99225000Y-86809130D01*
X99225000Y-86490870D01*
X99103207Y-86196836D01*
X98878164Y-85971793D01*
X98584130Y-85850000D01*
X98265870Y-85850000D01*
X97971836Y-85971793D01*
X97746793Y-86196836D01*
X97625000Y-86490870D01*
X97625000Y-86809130D01*
X97746793Y-87103164D01*
X97843629Y-87200000D01*
X97257418Y-87200000D01*
X97219999Y-87192557D01*
X97182580Y-87200000D01*
X97182576Y-87200000D01*
X97071732Y-87222048D01*
X97071731Y-87222049D01*
X97071730Y-87222049D01*
X97017507Y-87258280D01*
X96946036Y-87306036D01*
X96924838Y-87337761D01*
X93992762Y-90269838D01*
X93961037Y-90291036D01*
X93939839Y-90322761D01*
X93939837Y-90322763D01*
X93877049Y-90416732D01*
X93876573Y-90419123D01*
X93385000Y-90419123D01*
X93267946Y-90442407D01*
X93168712Y-90508712D01*
X93110000Y-90596582D01*
X93110000Y-80320000D01*
X96832557Y-80320000D01*
X96840000Y-80357419D01*
X96840001Y-82372576D01*
X96832557Y-82410000D01*
X96862049Y-82558268D01*
X96924837Y-82652237D01*
X96924839Y-82652239D01*
X96946037Y-82683964D01*
X96977762Y-82705162D01*
X98871233Y-84598634D01*
X98871233Y-84674944D01*
X98977801Y-84932223D01*
X99174715Y-85129137D01*
X99431994Y-85235705D01*
X99710472Y-85235705D01*
X99967751Y-85129137D01*
X100164665Y-84932223D01*
X100271233Y-84674944D01*
X100271233Y-84396466D01*
X100164665Y-84139187D01*
X99967751Y-83942273D01*
X99872983Y-83903019D01*
X99985062Y-83790940D01*
X100091630Y-83533661D01*
X100091630Y-83295463D01*
X100121747Y-83265346D01*
X100121749Y-83265343D01*
X101970922Y-81416171D01*
X102006408Y-81392460D01*
X102100341Y-81251879D01*
X102103680Y-81235095D01*
X102133326Y-81086053D01*
X102125000Y-81044195D01*
X102125000Y-77376050D01*
X102761041Y-76740010D01*
X102999239Y-76740010D01*
X103256518Y-76633442D01*
X103453432Y-76436528D01*
X103560000Y-76179249D01*
X103560000Y-75900771D01*
X103455092Y-75647500D01*
X103791584Y-75647500D01*
X104046286Y-75902203D01*
X104039444Y-75918721D01*
X104039444Y-76197199D01*
X104146012Y-76454478D01*
X104342926Y-76651392D01*
X104600205Y-76757960D01*
X104878683Y-76757960D01*
X105135962Y-76651392D01*
X105332876Y-76454478D01*
X105439444Y-76197199D01*
X105439444Y-75918721D01*
X105332876Y-75661442D01*
X105135962Y-75464528D01*
X104878683Y-75357960D01*
X104600205Y-75357960D01*
X104583687Y-75364802D01*
X104244148Y-75025264D01*
X104222948Y-74993536D01*
X104097252Y-74909548D01*
X103986408Y-74887500D01*
X103986403Y-74887500D01*
X103948984Y-74880057D01*
X103911565Y-74887500D01*
X102328515Y-74887500D01*
X102291096Y-74880057D01*
X102253677Y-74887500D01*
X102253672Y-74887500D01*
X102142828Y-74909548D01*
X102017132Y-74993536D01*
X101995934Y-75025261D01*
X99008810Y-78012386D01*
X98998667Y-78019163D01*
X98965379Y-78041406D01*
X98921039Y-78071033D01*
X98899841Y-78102758D01*
X96977764Y-80024836D01*
X96946036Y-80046036D01*
X96862048Y-80171733D01*
X96840000Y-80282577D01*
X96840000Y-80282581D01*
X96832557Y-80320000D01*
X93110000Y-80320000D01*
X93110000Y-75597400D01*
X93594243Y-75113158D01*
X93610761Y-75120000D01*
X93889239Y-75120000D01*
X94146518Y-75013432D01*
X94343432Y-74816518D01*
X94450000Y-74559239D01*
X94450000Y-74280761D01*
X94343432Y-74023482D01*
X94146518Y-73826568D01*
X93889239Y-73720000D01*
X93610761Y-73720000D01*
X93353482Y-73826568D01*
X93156568Y-74023482D01*
X93050000Y-74280761D01*
X93050000Y-74559239D01*
X93056842Y-74575757D01*
X92487762Y-75144838D01*
X92456037Y-75166036D01*
X92434839Y-75197761D01*
X92434837Y-75197763D01*
X92374477Y-75288098D01*
X92374917Y-73294944D01*
X159155083Y-73285055D01*
X159164918Y-117805112D01*
G36*
X117134000Y-98146000D02*
X117154000Y-98146000D01*
X117154000Y-98454000D01*
X117134000Y-98454000D01*
X117134000Y-98474000D01*
X116826000Y-98474000D01*
X116826000Y-98454000D01*
X116806000Y-98454000D01*
X116806000Y-98146000D01*
X116826000Y-98146000D01*
X116826000Y-98126000D01*
X117134000Y-98126000D01*
X117134000Y-98146000D01*
X117134000Y-98146000D01*
G37*
X117134000Y-98146000D02*
X117154000Y-98146000D01*
X117154000Y-98454000D01*
X117134000Y-98454000D01*
X117134000Y-98474000D01*
X116826000Y-98474000D01*
X116826000Y-98454000D01*
X116806000Y-98454000D01*
X116806000Y-98146000D01*
X116826000Y-98146000D01*
X116826000Y-98126000D01*
X117134000Y-98126000D01*
X117134000Y-98146000D01*
G36*
X117164038Y-81471438D02*
X117185237Y-81503164D01*
X117216962Y-81524362D01*
X117216963Y-81524363D01*
X117310931Y-81587151D01*
X117310932Y-81587151D01*
X117310933Y-81587152D01*
X117421777Y-81609200D01*
X117421781Y-81609200D01*
X117459200Y-81616643D01*
X117496619Y-81609200D01*
X122013399Y-81609200D01*
X119152600Y-84470000D01*
X118650274Y-84470000D01*
X118643432Y-84453482D01*
X118446518Y-84256568D01*
X118189239Y-84150000D01*
X117910761Y-84150000D01*
X117653482Y-84256568D01*
X117456568Y-84453482D01*
X117449726Y-84470000D01*
X115387419Y-84470000D01*
X115350000Y-84462557D01*
X115312581Y-84470000D01*
X115312576Y-84470000D01*
X115201732Y-84492048D01*
X115157518Y-84521591D01*
X115113381Y-84551083D01*
X115076036Y-84576036D01*
X115054838Y-84607762D01*
X113977764Y-85684836D01*
X113977761Y-85684838D01*
X113975757Y-85686842D01*
X113959239Y-85680000D01*
X113680761Y-85680000D01*
X113423482Y-85786568D01*
X113226568Y-85983482D01*
X113120000Y-86240761D01*
X113120000Y-86519239D01*
X113226568Y-86776518D01*
X113423482Y-86973432D01*
X113440000Y-86980274D01*
X113440000Y-86983108D01*
X113440001Y-86983113D01*
X113440000Y-87681246D01*
X113432557Y-87718665D01*
X113440000Y-87756084D01*
X113440000Y-87756088D01*
X113462048Y-87866932D01*
X113546036Y-87992629D01*
X113577764Y-88013829D01*
X114539914Y-88975980D01*
X114533072Y-88992498D01*
X114533072Y-89270976D01*
X114639640Y-89528255D01*
X114836554Y-89725169D01*
X115093833Y-89831737D01*
X115372311Y-89831737D01*
X115629590Y-89725169D01*
X115826504Y-89528255D01*
X115933072Y-89270976D01*
X115933072Y-88992498D01*
X115826504Y-88735219D01*
X115629590Y-88538305D01*
X115372311Y-88431737D01*
X115093833Y-88431737D01*
X115077315Y-88438579D01*
X114359325Y-87720590D01*
X114425091Y-87747831D01*
X114703569Y-87747831D01*
X114960848Y-87641263D01*
X115157762Y-87444349D01*
X115164604Y-87427831D01*
X117814750Y-87427831D01*
X117852169Y-87435274D01*
X117889588Y-87427831D01*
X117889593Y-87427831D01*
X118000437Y-87405783D01*
X118126133Y-87321795D01*
X118147333Y-87290067D01*
X123582490Y-81854911D01*
X126782379Y-81854911D01*
X129599706Y-84672239D01*
X129620904Y-84703964D01*
X129746600Y-84787952D01*
X129857444Y-84810000D01*
X129857449Y-84810000D01*
X129894868Y-84817443D01*
X129932287Y-84810000D01*
X133734726Y-84810000D01*
X133741568Y-84826518D01*
X133938482Y-85023432D01*
X134195761Y-85130000D01*
X134474239Y-85130000D01*
X134731518Y-85023432D01*
X134928432Y-84826518D01*
X135035000Y-84569239D01*
X135035000Y-84290761D01*
X134928432Y-84033482D01*
X134904952Y-84010002D01*
X136058962Y-84010002D01*
X136370000Y-84321041D01*
X136370001Y-84561758D01*
X132652320Y-88279440D01*
X132620592Y-88300640D01*
X132536604Y-88426337D01*
X132514556Y-88537181D01*
X132514556Y-88537185D01*
X132513943Y-88540269D01*
X132498038Y-88546857D01*
X132301124Y-88743771D01*
X132294282Y-88760289D01*
X129997130Y-88760289D01*
X129959711Y-88752846D01*
X129922292Y-88760289D01*
X129922287Y-88760289D01*
X129811443Y-88782337D01*
X129685747Y-88866325D01*
X129664549Y-88898051D01*
X128857767Y-89704833D01*
X128857761Y-89704837D01*
X128759117Y-89803482D01*
X128528373Y-90034226D01*
X128496647Y-90055425D01*
X128475449Y-90087150D01*
X125582600Y-92980000D01*
X120717343Y-92980000D01*
X120679924Y-92972557D01*
X120642505Y-92980000D01*
X120642500Y-92980000D01*
X120531656Y-93002048D01*
X120514945Y-93013214D01*
X120450062Y-93056568D01*
X120405960Y-93086036D01*
X120384762Y-93117762D01*
X119507764Y-93994760D01*
X119507761Y-93994762D01*
X119505757Y-93996766D01*
X119489239Y-93989924D01*
X119210761Y-93989924D01*
X118953482Y-94096492D01*
X118849999Y-94199975D01*
X118849999Y-94160762D01*
X118743431Y-93903483D01*
X118546517Y-93706569D01*
X118289238Y-93600001D01*
X118010760Y-93600001D01*
X117753481Y-93706569D01*
X117655856Y-93804194D01*
X117593430Y-93653482D01*
X117396516Y-93456568D01*
X117139237Y-93350000D01*
X116860759Y-93350000D01*
X116603480Y-93456568D01*
X116450000Y-93610048D01*
X116450000Y-93510761D01*
X116343432Y-93253482D01*
X116146518Y-93056568D01*
X115889239Y-92950000D01*
X115610761Y-92950000D01*
X115353482Y-93056568D01*
X115156568Y-93253482D01*
X115050000Y-93510761D01*
X115050000Y-93789239D01*
X115056842Y-93805757D01*
X114707783Y-94154817D01*
X113087960Y-94154817D01*
X113125686Y-94117091D01*
X113232254Y-93859812D01*
X113232254Y-93581334D01*
X113125686Y-93324055D01*
X113067849Y-93266218D01*
X113213155Y-93120912D01*
X113319723Y-92863633D01*
X113319723Y-92585155D01*
X113253892Y-92426224D01*
X113364493Y-92380412D01*
X113561407Y-92183498D01*
X113667975Y-91926219D01*
X113667975Y-91647741D01*
X113570568Y-91412578D01*
X113587471Y-91405576D01*
X113784385Y-91208662D01*
X113890953Y-90951383D01*
X113890953Y-90672905D01*
X113784385Y-90415626D01*
X113587471Y-90218712D01*
X113330192Y-90112144D01*
X113051714Y-90112144D01*
X113035195Y-90118986D01*
X113026928Y-90110719D01*
X113026928Y-85186458D01*
X113034371Y-85149039D01*
X113026928Y-85111620D01*
X113026928Y-85111616D01*
X113004880Y-85000772D01*
X112940341Y-84904184D01*
X112946929Y-84888280D01*
X112946929Y-84609802D01*
X112940087Y-84593284D01*
X112942091Y-84591280D01*
X112942093Y-84591277D01*
X113770229Y-83763142D01*
X115110307Y-83763142D01*
X115147726Y-83770585D01*
X115185145Y-83763142D01*
X115185150Y-83763142D01*
X115295994Y-83741094D01*
X115421690Y-83657106D01*
X115442890Y-83625378D01*
X116992240Y-82076029D01*
X117023965Y-82054831D01*
X117062791Y-81996724D01*
X117107952Y-81929137D01*
X117107952Y-81929136D01*
X117107953Y-81929135D01*
X117130001Y-81818291D01*
X117130001Y-81818287D01*
X117137444Y-81780868D01*
X117130001Y-81743449D01*
X117130001Y-81437401D01*
X117164038Y-81471438D01*
X117164038Y-81471438D01*
G37*
X117164038Y-81471438D02*
X117185237Y-81503164D01*
X117216962Y-81524362D01*
X117216963Y-81524363D01*
X117310931Y-81587151D01*
X117310932Y-81587151D01*
X117310933Y-81587152D01*
X117421777Y-81609200D01*
X117421781Y-81609200D01*
X117459200Y-81616643D01*
X117496619Y-81609200D01*
X122013399Y-81609200D01*
X119152600Y-84470000D01*
X118650274Y-84470000D01*
X118643432Y-84453482D01*
X118446518Y-84256568D01*
X118189239Y-84150000D01*
X117910761Y-84150000D01*
X117653482Y-84256568D01*
X117456568Y-84453482D01*
X117449726Y-84470000D01*
X115387419Y-84470000D01*
X115350000Y-84462557D01*
X115312581Y-84470000D01*
X115312576Y-84470000D01*
X115201732Y-84492048D01*
X115157518Y-84521591D01*
X115113381Y-84551083D01*
X115076036Y-84576036D01*
X115054838Y-84607762D01*
X113977764Y-85684836D01*
X113977761Y-85684838D01*
X113975757Y-85686842D01*
X113959239Y-85680000D01*
X113680761Y-85680000D01*
X113423482Y-85786568D01*
X113226568Y-85983482D01*
X113120000Y-86240761D01*
X113120000Y-86519239D01*
X113226568Y-86776518D01*
X113423482Y-86973432D01*
X113440000Y-86980274D01*
X113440000Y-86983108D01*
X113440001Y-86983113D01*
X113440000Y-87681246D01*
X113432557Y-87718665D01*
X113440000Y-87756084D01*
X113440000Y-87756088D01*
X113462048Y-87866932D01*
X113546036Y-87992629D01*
X113577764Y-88013829D01*
X114539914Y-88975980D01*
X114533072Y-88992498D01*
X114533072Y-89270976D01*
X114639640Y-89528255D01*
X114836554Y-89725169D01*
X115093833Y-89831737D01*
X115372311Y-89831737D01*
X115629590Y-89725169D01*
X115826504Y-89528255D01*
X115933072Y-89270976D01*
X115933072Y-88992498D01*
X115826504Y-88735219D01*
X115629590Y-88538305D01*
X115372311Y-88431737D01*
X115093833Y-88431737D01*
X115077315Y-88438579D01*
X114359325Y-87720590D01*
X114425091Y-87747831D01*
X114703569Y-87747831D01*
X114960848Y-87641263D01*
X115157762Y-87444349D01*
X115164604Y-87427831D01*
X117814750Y-87427831D01*
X117852169Y-87435274D01*
X117889588Y-87427831D01*
X117889593Y-87427831D01*
X118000437Y-87405783D01*
X118126133Y-87321795D01*
X118147333Y-87290067D01*
X123582490Y-81854911D01*
X126782379Y-81854911D01*
X129599706Y-84672239D01*
X129620904Y-84703964D01*
X129746600Y-84787952D01*
X129857444Y-84810000D01*
X129857449Y-84810000D01*
X129894868Y-84817443D01*
X129932287Y-84810000D01*
X133734726Y-84810000D01*
X133741568Y-84826518D01*
X133938482Y-85023432D01*
X134195761Y-85130000D01*
X134474239Y-85130000D01*
X134731518Y-85023432D01*
X134928432Y-84826518D01*
X135035000Y-84569239D01*
X135035000Y-84290761D01*
X134928432Y-84033482D01*
X134904952Y-84010002D01*
X136058962Y-84010002D01*
X136370000Y-84321041D01*
X136370001Y-84561758D01*
X132652320Y-88279440D01*
X132620592Y-88300640D01*
X132536604Y-88426337D01*
X132514556Y-88537181D01*
X132514556Y-88537185D01*
X132513943Y-88540269D01*
X132498038Y-88546857D01*
X132301124Y-88743771D01*
X132294282Y-88760289D01*
X129997130Y-88760289D01*
X129959711Y-88752846D01*
X129922292Y-88760289D01*
X129922287Y-88760289D01*
X129811443Y-88782337D01*
X129685747Y-88866325D01*
X129664549Y-88898051D01*
X128857767Y-89704833D01*
X128857761Y-89704837D01*
X128759117Y-89803482D01*
X128528373Y-90034226D01*
X128496647Y-90055425D01*
X128475449Y-90087150D01*
X125582600Y-92980000D01*
X120717343Y-92980000D01*
X120679924Y-92972557D01*
X120642505Y-92980000D01*
X120642500Y-92980000D01*
X120531656Y-93002048D01*
X120514945Y-93013214D01*
X120450062Y-93056568D01*
X120405960Y-93086036D01*
X120384762Y-93117762D01*
X119507764Y-93994760D01*
X119507761Y-93994762D01*
X119505757Y-93996766D01*
X119489239Y-93989924D01*
X119210761Y-93989924D01*
X118953482Y-94096492D01*
X118849999Y-94199975D01*
X118849999Y-94160762D01*
X118743431Y-93903483D01*
X118546517Y-93706569D01*
X118289238Y-93600001D01*
X118010760Y-93600001D01*
X117753481Y-93706569D01*
X117655856Y-93804194D01*
X117593430Y-93653482D01*
X117396516Y-93456568D01*
X117139237Y-93350000D01*
X116860759Y-93350000D01*
X116603480Y-93456568D01*
X116450000Y-93610048D01*
X116450000Y-93510761D01*
X116343432Y-93253482D01*
X116146518Y-93056568D01*
X115889239Y-92950000D01*
X115610761Y-92950000D01*
X115353482Y-93056568D01*
X115156568Y-93253482D01*
X115050000Y-93510761D01*
X115050000Y-93789239D01*
X115056842Y-93805757D01*
X114707783Y-94154817D01*
X113087960Y-94154817D01*
X113125686Y-94117091D01*
X113232254Y-93859812D01*
X113232254Y-93581334D01*
X113125686Y-93324055D01*
X113067849Y-93266218D01*
X113213155Y-93120912D01*
X113319723Y-92863633D01*
X113319723Y-92585155D01*
X113253892Y-92426224D01*
X113364493Y-92380412D01*
X113561407Y-92183498D01*
X113667975Y-91926219D01*
X113667975Y-91647741D01*
X113570568Y-91412578D01*
X113587471Y-91405576D01*
X113784385Y-91208662D01*
X113890953Y-90951383D01*
X113890953Y-90672905D01*
X113784385Y-90415626D01*
X113587471Y-90218712D01*
X113330192Y-90112144D01*
X113051714Y-90112144D01*
X113035195Y-90118986D01*
X113026928Y-90110719D01*
X113026928Y-85186458D01*
X113034371Y-85149039D01*
X113026928Y-85111620D01*
X113026928Y-85111616D01*
X113004880Y-85000772D01*
X112940341Y-84904184D01*
X112946929Y-84888280D01*
X112946929Y-84609802D01*
X112940087Y-84593284D01*
X112942091Y-84591280D01*
X112942093Y-84591277D01*
X113770229Y-83763142D01*
X115110307Y-83763142D01*
X115147726Y-83770585D01*
X115185145Y-83763142D01*
X115185150Y-83763142D01*
X115295994Y-83741094D01*
X115421690Y-83657106D01*
X115442890Y-83625378D01*
X116992240Y-82076029D01*
X117023965Y-82054831D01*
X117062791Y-81996724D01*
X117107952Y-81929137D01*
X117107952Y-81929136D01*
X117107953Y-81929135D01*
X117130001Y-81818291D01*
X117130001Y-81818287D01*
X117137444Y-81780868D01*
X117130001Y-81743449D01*
X117130001Y-81437401D01*
X117164038Y-81471438D01*
G04 #@! TD*
M02*
