G04 #@! TF.GenerationSoftware,KiCad,Pcbnew,5.0.1-33cea8e~68~ubuntu14.04.1*
G04 #@! TF.CreationDate,2018-11-10T01:21:49-08:00*
G04 #@! TF.ProjectId,evalboard1,6576616C626F617264312E6B69636164,rev?*
G04 #@! TF.SameCoordinates,Original*
G04 #@! TF.FileFunction,Legend,Top*
G04 #@! TF.FilePolarity,Positive*
%FSLAX46Y46*%
G04 Gerber Fmt 4.6, Leading zero omitted, Abs format (unit mm)*
G04 Created by KiCad (PCBNEW 5.0.1-33cea8e~68~ubuntu14.04.1) date Sat 10 Nov 2018 01:21:49 AM PST*
%MOMM*%
%LPD*%
G01*
G04 APERTURE LIST*
%ADD10C,0.100000*%
%ADD11C,0.200000*%
%ADD12C,0.150000*%
%ADD13C,0.300000*%
%ADD14C,0.120000*%
%ADD15C,0.127000*%
%ADD16C,0.050000*%
G04 APERTURE END LIST*
D10*
X98960000Y-117346666D02*
X98960000Y-116880000D01*
X98960000Y-117013333D02*
X98993333Y-116946666D01*
X99026666Y-116913333D01*
X99093333Y-116880000D01*
X99160000Y-116880000D01*
X99660000Y-117313333D02*
X99593333Y-117346666D01*
X99460000Y-117346666D01*
X99393333Y-117313333D01*
X99360000Y-117246666D01*
X99360000Y-116980000D01*
X99393333Y-116913333D01*
X99460000Y-116880000D01*
X99593333Y-116880000D01*
X99660000Y-116913333D01*
X99693333Y-116980000D01*
X99693333Y-117046666D01*
X99360000Y-117113333D01*
X100293333Y-116880000D02*
X100293333Y-117446666D01*
X100260000Y-117513333D01*
X100226666Y-117546666D01*
X100160000Y-117580000D01*
X100060000Y-117580000D01*
X99993333Y-117546666D01*
X100293333Y-117313333D02*
X100226666Y-117346666D01*
X100093333Y-117346666D01*
X100026666Y-117313333D01*
X99993333Y-117280000D01*
X99960000Y-117213333D01*
X99960000Y-117013333D01*
X99993333Y-116946666D01*
X100026666Y-116913333D01*
X100093333Y-116880000D01*
X100226666Y-116880000D01*
X100293333Y-116913333D01*
X100926666Y-116880000D02*
X100926666Y-117346666D01*
X100626666Y-116880000D02*
X100626666Y-117246666D01*
X100660000Y-117313333D01*
X100726666Y-117346666D01*
X100826666Y-117346666D01*
X100893333Y-117313333D01*
X100926666Y-117280000D01*
X101360000Y-117346666D02*
X101293333Y-117313333D01*
X101260000Y-117246666D01*
X101260000Y-116646666D01*
X101926666Y-117346666D02*
X101926666Y-116980000D01*
X101893333Y-116913333D01*
X101826666Y-116880000D01*
X101693333Y-116880000D01*
X101626666Y-116913333D01*
X101926666Y-117313333D02*
X101860000Y-117346666D01*
X101693333Y-117346666D01*
X101626666Y-117313333D01*
X101593333Y-117246666D01*
X101593333Y-117180000D01*
X101626666Y-117113333D01*
X101693333Y-117080000D01*
X101860000Y-117080000D01*
X101926666Y-117046666D01*
X102160000Y-116880000D02*
X102426666Y-116880000D01*
X102260000Y-116646666D02*
X102260000Y-117246666D01*
X102293333Y-117313333D01*
X102360000Y-117346666D01*
X102426666Y-117346666D01*
X102926666Y-117313333D02*
X102860000Y-117346666D01*
X102726666Y-117346666D01*
X102660000Y-117313333D01*
X102626666Y-117246666D01*
X102626666Y-116980000D01*
X102660000Y-116913333D01*
X102726666Y-116880000D01*
X102860000Y-116880000D01*
X102926666Y-116913333D01*
X102960000Y-116980000D01*
X102960000Y-117046666D01*
X102626666Y-117113333D01*
X103560000Y-117346666D02*
X103560000Y-116646666D01*
X103560000Y-117313333D02*
X103493333Y-117346666D01*
X103360000Y-117346666D01*
X103293333Y-117313333D01*
X103260000Y-117280000D01*
X103226666Y-117213333D01*
X103226666Y-117013333D01*
X103260000Y-116946666D01*
X103293333Y-116913333D01*
X103360000Y-116880000D01*
X103493333Y-116880000D01*
X103560000Y-116913333D01*
D11*
X101315714Y-103210000D02*
X102030000Y-103210000D01*
X101172857Y-103638571D02*
X101672857Y-102138571D01*
X102172857Y-103638571D01*
X102672857Y-102638571D02*
X102672857Y-103638571D01*
X102672857Y-102781428D02*
X102744285Y-102710000D01*
X102887142Y-102638571D01*
X103101428Y-102638571D01*
X103244285Y-102710000D01*
X103315714Y-102852857D01*
X103315714Y-103638571D01*
X104672857Y-103638571D02*
X104672857Y-102852857D01*
X104601428Y-102710000D01*
X104458571Y-102638571D01*
X104172857Y-102638571D01*
X104030000Y-102710000D01*
X104672857Y-103567142D02*
X104530000Y-103638571D01*
X104172857Y-103638571D01*
X104030000Y-103567142D01*
X103958571Y-103424285D01*
X103958571Y-103281428D01*
X104030000Y-103138571D01*
X104172857Y-103067142D01*
X104530000Y-103067142D01*
X104672857Y-102995714D01*
X105601428Y-103638571D02*
X105458571Y-103567142D01*
X105387142Y-103424285D01*
X105387142Y-102138571D01*
X106387142Y-103638571D02*
X106244285Y-103567142D01*
X106172857Y-103495714D01*
X106101428Y-103352857D01*
X106101428Y-102924285D01*
X106172857Y-102781428D01*
X106244285Y-102710000D01*
X106387142Y-102638571D01*
X106601428Y-102638571D01*
X106744285Y-102710000D01*
X106815714Y-102781428D01*
X106887142Y-102924285D01*
X106887142Y-103352857D01*
X106815714Y-103495714D01*
X106744285Y-103567142D01*
X106601428Y-103638571D01*
X106387142Y-103638571D01*
X108172857Y-102638571D02*
X108172857Y-103852857D01*
X108101428Y-103995714D01*
X108030000Y-104067142D01*
X107887142Y-104138571D01*
X107672857Y-104138571D01*
X107530000Y-104067142D01*
X108172857Y-103567142D02*
X108030000Y-103638571D01*
X107744285Y-103638571D01*
X107601428Y-103567142D01*
X107530000Y-103495714D01*
X107458571Y-103352857D01*
X107458571Y-102924285D01*
X107530000Y-102781428D01*
X107601428Y-102710000D01*
X107744285Y-102638571D01*
X108030000Y-102638571D01*
X108172857Y-102710000D01*
X101354285Y-100928571D02*
X101354285Y-99428571D01*
X102354285Y-99428571D02*
X102640000Y-99428571D01*
X102782857Y-99500000D01*
X102925714Y-99642857D01*
X102997142Y-99928571D01*
X102997142Y-100428571D01*
X102925714Y-100714285D01*
X102782857Y-100857142D01*
X102640000Y-100928571D01*
X102354285Y-100928571D01*
X102211428Y-100857142D01*
X102068571Y-100714285D01*
X101997142Y-100428571D01*
X101997142Y-99928571D01*
X102068571Y-99642857D01*
X102211428Y-99500000D01*
X102354285Y-99428571D01*
X102208571Y-97765714D02*
X102137142Y-97837142D01*
X101922857Y-97908571D01*
X101780000Y-97908571D01*
X101565714Y-97837142D01*
X101422857Y-97694285D01*
X101351428Y-97551428D01*
X101280000Y-97265714D01*
X101280000Y-97051428D01*
X101351428Y-96765714D01*
X101422857Y-96622857D01*
X101565714Y-96480000D01*
X101780000Y-96408571D01*
X101922857Y-96408571D01*
X102137142Y-96480000D01*
X102208571Y-96551428D01*
X103065714Y-97908571D02*
X102922857Y-97837142D01*
X102851428Y-97765714D01*
X102780000Y-97622857D01*
X102780000Y-97194285D01*
X102851428Y-97051428D01*
X102922857Y-96980000D01*
X103065714Y-96908571D01*
X103280000Y-96908571D01*
X103422857Y-96980000D01*
X103494285Y-97051428D01*
X103565714Y-97194285D01*
X103565714Y-97622857D01*
X103494285Y-97765714D01*
X103422857Y-97837142D01*
X103280000Y-97908571D01*
X103065714Y-97908571D01*
X104208571Y-97908571D02*
X104208571Y-96908571D01*
X104208571Y-97194285D02*
X104280000Y-97051428D01*
X104351428Y-96980000D01*
X104494285Y-96908571D01*
X104637142Y-96908571D01*
X105708571Y-97837142D02*
X105565714Y-97908571D01*
X105280000Y-97908571D01*
X105137142Y-97837142D01*
X105065714Y-97694285D01*
X105065714Y-97122857D01*
X105137142Y-96980000D01*
X105280000Y-96908571D01*
X105565714Y-96908571D01*
X105708571Y-96980000D01*
X105780000Y-97122857D01*
X105780000Y-97265714D01*
X105065714Y-97408571D01*
D12*
X107510840Y-80320045D02*
X106510840Y-80320045D01*
X106510840Y-80081950D01*
X106558460Y-79939093D01*
X106653698Y-79843855D01*
X106748936Y-79796236D01*
X106939412Y-79748617D01*
X107082269Y-79748617D01*
X107272745Y-79796236D01*
X107367983Y-79843855D01*
X107463221Y-79939093D01*
X107510840Y-80081950D01*
X107510840Y-80320045D01*
X107510840Y-78796236D02*
X107510840Y-79367664D01*
X107510840Y-79081950D02*
X106510840Y-79081950D01*
X106653698Y-79177188D01*
X106748936Y-79272426D01*
X106796555Y-79367664D01*
X106510840Y-77891474D02*
X106510840Y-78367664D01*
X106987031Y-78415283D01*
X106939412Y-78367664D01*
X106891793Y-78272426D01*
X106891793Y-78034331D01*
X106939412Y-77939093D01*
X106987031Y-77891474D01*
X107082269Y-77843855D01*
X107320364Y-77843855D01*
X107415602Y-77891474D01*
X107463221Y-77939093D01*
X107510840Y-78034331D01*
X107510840Y-78272426D01*
X107463221Y-78367664D01*
X107415602Y-78415283D01*
X107392380Y-99098095D02*
X106868571Y-99098095D01*
X106773333Y-99145714D01*
X106725714Y-99240952D01*
X106725714Y-99431428D01*
X106773333Y-99526666D01*
X107344761Y-99098095D02*
X107392380Y-99193333D01*
X107392380Y-99431428D01*
X107344761Y-99526666D01*
X107249523Y-99574285D01*
X107154285Y-99574285D01*
X107059047Y-99526666D01*
X107011428Y-99431428D01*
X107011428Y-99193333D01*
X106963809Y-99098095D01*
X107392380Y-98098095D02*
X107392380Y-98669523D01*
X107392380Y-98383809D02*
X106392380Y-98383809D01*
X106535238Y-98479047D01*
X106630476Y-98574285D01*
X106678095Y-98669523D01*
X106487619Y-97717142D02*
X106440000Y-97669523D01*
X106392380Y-97574285D01*
X106392380Y-97336190D01*
X106440000Y-97240952D01*
X106487619Y-97193333D01*
X106582857Y-97145714D01*
X106678095Y-97145714D01*
X106820952Y-97193333D01*
X107392380Y-97764761D01*
X107392380Y-97145714D01*
X107102380Y-75818095D02*
X106102380Y-75818095D01*
X107054761Y-75818095D02*
X107102380Y-75913333D01*
X107102380Y-76103809D01*
X107054761Y-76199047D01*
X107007142Y-76246666D01*
X106911904Y-76294285D01*
X106626190Y-76294285D01*
X106530952Y-76246666D01*
X106483333Y-76199047D01*
X106435714Y-76103809D01*
X106435714Y-75913333D01*
X106483333Y-75818095D01*
X107102380Y-74818095D02*
X107102380Y-75389523D01*
X107102380Y-75103809D02*
X106102380Y-75103809D01*
X106245238Y-75199047D01*
X106340476Y-75294285D01*
X106388095Y-75389523D01*
X106197619Y-74437142D02*
X106150000Y-74389523D01*
X106102380Y-74294285D01*
X106102380Y-74056190D01*
X106150000Y-73960952D01*
X106197619Y-73913333D01*
X106292857Y-73865714D01*
X106388095Y-73865714D01*
X106530952Y-73913333D01*
X107102380Y-74484761D01*
X107102380Y-73865714D01*
X142872380Y-78538095D02*
X141872380Y-78538095D01*
X141872380Y-78300000D01*
X141920000Y-78157142D01*
X142015238Y-78061904D01*
X142110476Y-78014285D01*
X142300952Y-77966666D01*
X142443809Y-77966666D01*
X142634285Y-78014285D01*
X142729523Y-78061904D01*
X142824761Y-78157142D01*
X142872380Y-78300000D01*
X142872380Y-78538095D01*
X142872380Y-77014285D02*
X142872380Y-77585714D01*
X142872380Y-77300000D02*
X141872380Y-77300000D01*
X142015238Y-77395238D01*
X142110476Y-77490476D01*
X142158095Y-77585714D01*
X140312380Y-78648095D02*
X139312380Y-78648095D01*
X139312380Y-78410000D01*
X139360000Y-78267142D01*
X139455238Y-78171904D01*
X139550476Y-78124285D01*
X139740952Y-78076666D01*
X139883809Y-78076666D01*
X140074285Y-78124285D01*
X140169523Y-78171904D01*
X140264761Y-78267142D01*
X140312380Y-78410000D01*
X140312380Y-78648095D01*
X139407619Y-77695714D02*
X139360000Y-77648095D01*
X139312380Y-77552857D01*
X139312380Y-77314761D01*
X139360000Y-77219523D01*
X139407619Y-77171904D01*
X139502857Y-77124285D01*
X139598095Y-77124285D01*
X139740952Y-77171904D01*
X140312380Y-77743333D01*
X140312380Y-77124285D01*
X137762380Y-78688095D02*
X136762380Y-78688095D01*
X136762380Y-78450000D01*
X136810000Y-78307142D01*
X136905238Y-78211904D01*
X137000476Y-78164285D01*
X137190952Y-78116666D01*
X137333809Y-78116666D01*
X137524285Y-78164285D01*
X137619523Y-78211904D01*
X137714761Y-78307142D01*
X137762380Y-78450000D01*
X137762380Y-78688095D01*
X136762380Y-77783333D02*
X136762380Y-77164285D01*
X137143333Y-77497619D01*
X137143333Y-77354761D01*
X137190952Y-77259523D01*
X137238571Y-77211904D01*
X137333809Y-77164285D01*
X137571904Y-77164285D01*
X137667142Y-77211904D01*
X137714761Y-77259523D01*
X137762380Y-77354761D01*
X137762380Y-77640476D01*
X137714761Y-77735714D01*
X137667142Y-77783333D01*
X135242380Y-78688095D02*
X134242380Y-78688095D01*
X134242380Y-78450000D01*
X134290000Y-78307142D01*
X134385238Y-78211904D01*
X134480476Y-78164285D01*
X134670952Y-78116666D01*
X134813809Y-78116666D01*
X135004285Y-78164285D01*
X135099523Y-78211904D01*
X135194761Y-78307142D01*
X135242380Y-78450000D01*
X135242380Y-78688095D01*
X134575714Y-77259523D02*
X135242380Y-77259523D01*
X134194761Y-77497619D02*
X134909047Y-77735714D01*
X134909047Y-77116666D01*
X132712380Y-78638095D02*
X131712380Y-78638095D01*
X131712380Y-78400000D01*
X131760000Y-78257142D01*
X131855238Y-78161904D01*
X131950476Y-78114285D01*
X132140952Y-78066666D01*
X132283809Y-78066666D01*
X132474285Y-78114285D01*
X132569523Y-78161904D01*
X132664761Y-78257142D01*
X132712380Y-78400000D01*
X132712380Y-78638095D01*
X131712380Y-77161904D02*
X131712380Y-77638095D01*
X132188571Y-77685714D01*
X132140952Y-77638095D01*
X132093333Y-77542857D01*
X132093333Y-77304761D01*
X132140952Y-77209523D01*
X132188571Y-77161904D01*
X132283809Y-77114285D01*
X132521904Y-77114285D01*
X132617142Y-77161904D01*
X132664761Y-77209523D01*
X132712380Y-77304761D01*
X132712380Y-77542857D01*
X132664761Y-77638095D01*
X132617142Y-77685714D01*
X130182380Y-78638095D02*
X129182380Y-78638095D01*
X129182380Y-78400000D01*
X129230000Y-78257142D01*
X129325238Y-78161904D01*
X129420476Y-78114285D01*
X129610952Y-78066666D01*
X129753809Y-78066666D01*
X129944285Y-78114285D01*
X130039523Y-78161904D01*
X130134761Y-78257142D01*
X130182380Y-78400000D01*
X130182380Y-78638095D01*
X129182380Y-77209523D02*
X129182380Y-77400000D01*
X129230000Y-77495238D01*
X129277619Y-77542857D01*
X129420476Y-77638095D01*
X129610952Y-77685714D01*
X129991904Y-77685714D01*
X130087142Y-77638095D01*
X130134761Y-77590476D01*
X130182380Y-77495238D01*
X130182380Y-77304761D01*
X130134761Y-77209523D01*
X130087142Y-77161904D01*
X129991904Y-77114285D01*
X129753809Y-77114285D01*
X129658571Y-77161904D01*
X129610952Y-77209523D01*
X129563333Y-77304761D01*
X129563333Y-77495238D01*
X129610952Y-77590476D01*
X129658571Y-77638095D01*
X129753809Y-77685714D01*
X127722380Y-78668095D02*
X126722380Y-78668095D01*
X126722380Y-78430000D01*
X126770000Y-78287142D01*
X126865238Y-78191904D01*
X126960476Y-78144285D01*
X127150952Y-78096666D01*
X127293809Y-78096666D01*
X127484285Y-78144285D01*
X127579523Y-78191904D01*
X127674761Y-78287142D01*
X127722380Y-78430000D01*
X127722380Y-78668095D01*
X126722380Y-77763333D02*
X126722380Y-77096666D01*
X127722380Y-77525238D01*
X122492380Y-78798095D02*
X121492380Y-78798095D01*
X121492380Y-78560000D01*
X121540000Y-78417142D01*
X121635238Y-78321904D01*
X121730476Y-78274285D01*
X121920952Y-78226666D01*
X122063809Y-78226666D01*
X122254285Y-78274285D01*
X122349523Y-78321904D01*
X122444761Y-78417142D01*
X122492380Y-78560000D01*
X122492380Y-78798095D01*
X122492380Y-77750476D02*
X122492380Y-77560000D01*
X122444761Y-77464761D01*
X122397142Y-77417142D01*
X122254285Y-77321904D01*
X122063809Y-77274285D01*
X121682857Y-77274285D01*
X121587619Y-77321904D01*
X121540000Y-77369523D01*
X121492380Y-77464761D01*
X121492380Y-77655238D01*
X121540000Y-77750476D01*
X121587619Y-77798095D01*
X121682857Y-77845714D01*
X121920952Y-77845714D01*
X122016190Y-77798095D01*
X122063809Y-77750476D01*
X122111428Y-77655238D01*
X122111428Y-77464761D01*
X122063809Y-77369523D01*
X122016190Y-77321904D01*
X121920952Y-77274285D01*
X112392380Y-79598685D02*
X111392380Y-79598685D01*
X111392380Y-79360590D01*
X111440000Y-79217733D01*
X111535238Y-79122495D01*
X111630476Y-79074876D01*
X111820952Y-79027257D01*
X111963809Y-79027257D01*
X112154285Y-79074876D01*
X112249523Y-79122495D01*
X112344761Y-79217733D01*
X112392380Y-79360590D01*
X112392380Y-79598685D01*
X112392380Y-78074876D02*
X112392380Y-78646304D01*
X112392380Y-78360590D02*
X111392380Y-78360590D01*
X111535238Y-78455828D01*
X111630476Y-78551066D01*
X111678095Y-78646304D01*
X111392380Y-77741542D02*
X111392380Y-77122495D01*
X111773333Y-77455828D01*
X111773333Y-77312971D01*
X111820952Y-77217733D01*
X111868571Y-77170114D01*
X111963809Y-77122495D01*
X112201904Y-77122495D01*
X112297142Y-77170114D01*
X112344761Y-77217733D01*
X112392380Y-77312971D01*
X112392380Y-77598685D01*
X112344761Y-77693923D01*
X112297142Y-77741542D01*
X150815714Y-105142380D02*
X151482380Y-105142380D01*
X151053809Y-106142380D01*
X152387142Y-106142380D02*
X151815714Y-106142380D01*
X152101428Y-106142380D02*
X152101428Y-105142380D01*
X152006190Y-105285238D01*
X151910952Y-105380476D01*
X151815714Y-105428095D01*
X152720476Y-105142380D02*
X153339523Y-105142380D01*
X153006190Y-105523333D01*
X153149047Y-105523333D01*
X153244285Y-105570952D01*
X153291904Y-105618571D01*
X153339523Y-105713809D01*
X153339523Y-105951904D01*
X153291904Y-106047142D01*
X153244285Y-106094761D01*
X153149047Y-106142380D01*
X152863333Y-106142380D01*
X152768095Y-106094761D01*
X152720476Y-106047142D01*
X153768095Y-106047142D02*
X153815714Y-106094761D01*
X153768095Y-106142380D01*
X153720476Y-106094761D01*
X153768095Y-106047142D01*
X153768095Y-106142380D01*
X154672857Y-106142380D02*
X154672857Y-105618571D01*
X154625238Y-105523333D01*
X154530000Y-105475714D01*
X154339523Y-105475714D01*
X154244285Y-105523333D01*
X154672857Y-106094761D02*
X154577619Y-106142380D01*
X154339523Y-106142380D01*
X154244285Y-106094761D01*
X154196666Y-105999523D01*
X154196666Y-105904285D01*
X154244285Y-105809047D01*
X154339523Y-105761428D01*
X154577619Y-105761428D01*
X154672857Y-105713809D01*
X155149047Y-106142380D02*
X155149047Y-105475714D01*
X155149047Y-105142380D02*
X155101428Y-105190000D01*
X155149047Y-105237619D01*
X155196666Y-105190000D01*
X155149047Y-105142380D01*
X155149047Y-105237619D01*
X150600000Y-107722380D02*
X151266666Y-107722380D01*
X150838095Y-108722380D01*
X152171428Y-108722380D02*
X151600000Y-108722380D01*
X151885714Y-108722380D02*
X151885714Y-107722380D01*
X151790476Y-107865238D01*
X151695238Y-107960476D01*
X151600000Y-108008095D01*
X152504761Y-107722380D02*
X153123809Y-107722380D01*
X152790476Y-108103333D01*
X152933333Y-108103333D01*
X153028571Y-108150952D01*
X153076190Y-108198571D01*
X153123809Y-108293809D01*
X153123809Y-108531904D01*
X153076190Y-108627142D01*
X153028571Y-108674761D01*
X152933333Y-108722380D01*
X152647619Y-108722380D01*
X152552380Y-108674761D01*
X152504761Y-108627142D01*
X153552380Y-108627142D02*
X153600000Y-108674761D01*
X153552380Y-108722380D01*
X153504761Y-108674761D01*
X153552380Y-108627142D01*
X153552380Y-108722380D01*
X154457142Y-108722380D02*
X154457142Y-108198571D01*
X154409523Y-108103333D01*
X154314285Y-108055714D01*
X154123809Y-108055714D01*
X154028571Y-108103333D01*
X154457142Y-108674761D02*
X154361904Y-108722380D01*
X154123809Y-108722380D01*
X154028571Y-108674761D01*
X153980952Y-108579523D01*
X153980952Y-108484285D01*
X154028571Y-108389047D01*
X154123809Y-108341428D01*
X154361904Y-108341428D01*
X154457142Y-108293809D01*
X155123809Y-107722380D02*
X155314285Y-107722380D01*
X155409523Y-107770000D01*
X155504761Y-107865238D01*
X155552380Y-108055714D01*
X155552380Y-108389047D01*
X155504761Y-108579523D01*
X155409523Y-108674761D01*
X155314285Y-108722380D01*
X155123809Y-108722380D01*
X155028571Y-108674761D01*
X154933333Y-108579523D01*
X154885714Y-108389047D01*
X154885714Y-108055714D01*
X154933333Y-107865238D01*
X155028571Y-107770000D01*
X155123809Y-107722380D01*
X150403809Y-110282380D02*
X151070476Y-110282380D01*
X150641904Y-111282380D01*
X151975238Y-111282380D02*
X151403809Y-111282380D01*
X151689523Y-111282380D02*
X151689523Y-110282380D01*
X151594285Y-110425238D01*
X151499047Y-110520476D01*
X151403809Y-110568095D01*
X152880000Y-110282380D02*
X152403809Y-110282380D01*
X152356190Y-110758571D01*
X152403809Y-110710952D01*
X152499047Y-110663333D01*
X152737142Y-110663333D01*
X152832380Y-110710952D01*
X152880000Y-110758571D01*
X152927619Y-110853809D01*
X152927619Y-111091904D01*
X152880000Y-111187142D01*
X152832380Y-111234761D01*
X152737142Y-111282380D01*
X152499047Y-111282380D01*
X152403809Y-111234761D01*
X152356190Y-111187142D01*
X153356190Y-111187142D02*
X153403809Y-111234761D01*
X153356190Y-111282380D01*
X153308571Y-111234761D01*
X153356190Y-111187142D01*
X153356190Y-111282380D01*
X154356190Y-111282380D02*
X153784761Y-111282380D01*
X154070476Y-111282380D02*
X154070476Y-110282380D01*
X153975238Y-110425238D01*
X153880000Y-110520476D01*
X153784761Y-110568095D01*
X154689523Y-110282380D02*
X155356190Y-110282380D01*
X154927619Y-111282380D01*
X150350000Y-112972380D02*
X151016666Y-112972380D01*
X150588095Y-113972380D01*
X151921428Y-113972380D02*
X151350000Y-113972380D01*
X151635714Y-113972380D02*
X151635714Y-112972380D01*
X151540476Y-113115238D01*
X151445238Y-113210476D01*
X151350000Y-113258095D01*
X152254761Y-112972380D02*
X152921428Y-112972380D01*
X152492857Y-113972380D01*
X153302380Y-113877142D02*
X153350000Y-113924761D01*
X153302380Y-113972380D01*
X153254761Y-113924761D01*
X153302380Y-113877142D01*
X153302380Y-113972380D01*
X154207142Y-113972380D02*
X154207142Y-113448571D01*
X154159523Y-113353333D01*
X154064285Y-113305714D01*
X153873809Y-113305714D01*
X153778571Y-113353333D01*
X154207142Y-113924761D02*
X154111904Y-113972380D01*
X153873809Y-113972380D01*
X153778571Y-113924761D01*
X153730952Y-113829523D01*
X153730952Y-113734285D01*
X153778571Y-113639047D01*
X153873809Y-113591428D01*
X154111904Y-113591428D01*
X154207142Y-113543809D01*
X154873809Y-112972380D02*
X155064285Y-112972380D01*
X155159523Y-113020000D01*
X155254761Y-113115238D01*
X155302380Y-113305714D01*
X155302380Y-113639047D01*
X155254761Y-113829523D01*
X155159523Y-113924761D01*
X155064285Y-113972380D01*
X154873809Y-113972380D01*
X154778571Y-113924761D01*
X154683333Y-113829523D01*
X154635714Y-113639047D01*
X154635714Y-113305714D01*
X154683333Y-113115238D01*
X154778571Y-113020000D01*
X154873809Y-112972380D01*
D11*
X147985714Y-84628571D02*
X148985714Y-84628571D01*
X148342857Y-86128571D01*
X149842857Y-84628571D02*
X149985714Y-84628571D01*
X150128571Y-84700000D01*
X150200000Y-84771428D01*
X150271428Y-84914285D01*
X150342857Y-85200000D01*
X150342857Y-85557142D01*
X150271428Y-85842857D01*
X150200000Y-85985714D01*
X150128571Y-86057142D01*
X149985714Y-86128571D01*
X149842857Y-86128571D01*
X149700000Y-86057142D01*
X149628571Y-85985714D01*
X149557142Y-85842857D01*
X149485714Y-85557142D01*
X149485714Y-85200000D01*
X149557142Y-84914285D01*
X149628571Y-84771428D01*
X149700000Y-84700000D01*
X149842857Y-84628571D01*
X151700000Y-84628571D02*
X150985714Y-84628571D01*
X150914285Y-85342857D01*
X150985714Y-85271428D01*
X151128571Y-85200000D01*
X151485714Y-85200000D01*
X151628571Y-85271428D01*
X151700000Y-85342857D01*
X151771428Y-85485714D01*
X151771428Y-85842857D01*
X151700000Y-85985714D01*
X151628571Y-86057142D01*
X151485714Y-86128571D01*
X151128571Y-86128571D01*
X150985714Y-86057142D01*
X150914285Y-85985714D01*
X152414285Y-85985714D02*
X152485714Y-86057142D01*
X152414285Y-86128571D01*
X152342857Y-86057142D01*
X152414285Y-85985714D01*
X152414285Y-86128571D01*
X153914285Y-86128571D02*
X153057142Y-86128571D01*
X153485714Y-86128571D02*
X153485714Y-84628571D01*
X153342857Y-84842857D01*
X153200000Y-84985714D01*
X153057142Y-85057142D01*
X154414285Y-84628571D02*
X155414285Y-84628571D01*
X154771428Y-86128571D01*
X147500000Y-79578571D02*
X148500000Y-79578571D01*
X147857142Y-81078571D01*
X149357142Y-79578571D02*
X149500000Y-79578571D01*
X149642857Y-79650000D01*
X149714285Y-79721428D01*
X149785714Y-79864285D01*
X149857142Y-80150000D01*
X149857142Y-80507142D01*
X149785714Y-80792857D01*
X149714285Y-80935714D01*
X149642857Y-81007142D01*
X149500000Y-81078571D01*
X149357142Y-81078571D01*
X149214285Y-81007142D01*
X149142857Y-80935714D01*
X149071428Y-80792857D01*
X149000000Y-80507142D01*
X149000000Y-80150000D01*
X149071428Y-79864285D01*
X149142857Y-79721428D01*
X149214285Y-79650000D01*
X149357142Y-79578571D01*
X151285714Y-81078571D02*
X150428571Y-81078571D01*
X150857142Y-81078571D02*
X150857142Y-79578571D01*
X150714285Y-79792857D01*
X150571428Y-79935714D01*
X150428571Y-80007142D01*
X151928571Y-80935714D02*
X152000000Y-81007142D01*
X151928571Y-81078571D01*
X151857142Y-81007142D01*
X151928571Y-80935714D01*
X151928571Y-81078571D01*
X153428571Y-81078571D02*
X152571428Y-81078571D01*
X153000000Y-81078571D02*
X153000000Y-79578571D01*
X152857142Y-79792857D01*
X152714285Y-79935714D01*
X152571428Y-80007142D01*
X148264928Y-77093071D02*
X147979214Y-77093071D01*
X147836357Y-77164500D01*
X147764928Y-77235928D01*
X147622071Y-77450214D01*
X147550642Y-77735928D01*
X147550642Y-78307357D01*
X147622071Y-78450214D01*
X147693500Y-78521642D01*
X147836357Y-78593071D01*
X148122071Y-78593071D01*
X148264928Y-78521642D01*
X148336357Y-78450214D01*
X148407785Y-78307357D01*
X148407785Y-77950214D01*
X148336357Y-77807357D01*
X148264928Y-77735928D01*
X148122071Y-77664500D01*
X147836357Y-77664500D01*
X147693500Y-77735928D01*
X147622071Y-77807357D01*
X147550642Y-77950214D01*
X149336357Y-77093071D02*
X149479214Y-77093071D01*
X149622071Y-77164500D01*
X149693500Y-77235928D01*
X149764928Y-77378785D01*
X149836357Y-77664500D01*
X149836357Y-78021642D01*
X149764928Y-78307357D01*
X149693500Y-78450214D01*
X149622071Y-78521642D01*
X149479214Y-78593071D01*
X149336357Y-78593071D01*
X149193500Y-78521642D01*
X149122071Y-78450214D01*
X149050642Y-78307357D01*
X148979214Y-78021642D01*
X148979214Y-77664500D01*
X149050642Y-77378785D01*
X149122071Y-77235928D01*
X149193500Y-77164500D01*
X149336357Y-77093071D01*
X150764928Y-77093071D02*
X150907785Y-77093071D01*
X151050642Y-77164500D01*
X151122071Y-77235928D01*
X151193500Y-77378785D01*
X151264928Y-77664500D01*
X151264928Y-78021642D01*
X151193500Y-78307357D01*
X151122071Y-78450214D01*
X151050642Y-78521642D01*
X150907785Y-78593071D01*
X150764928Y-78593071D01*
X150622071Y-78521642D01*
X150550642Y-78450214D01*
X150479214Y-78307357D01*
X150407785Y-78021642D01*
X150407785Y-77664500D01*
X150479214Y-77378785D01*
X150550642Y-77235928D01*
X150622071Y-77164500D01*
X150764928Y-77093071D01*
X151907785Y-78450214D02*
X151979214Y-78521642D01*
X151907785Y-78593071D01*
X151836357Y-78521642D01*
X151907785Y-78450214D01*
X151907785Y-78593071D01*
X153407785Y-78593071D02*
X152550642Y-78593071D01*
X152979214Y-78593071D02*
X152979214Y-77093071D01*
X152836357Y-77307357D01*
X152693500Y-77450214D01*
X152550642Y-77521642D01*
X153907785Y-77093071D02*
X154907785Y-77093071D01*
X154264928Y-78593071D01*
X147978571Y-102428571D02*
X148978571Y-102428571D01*
X148335714Y-103928571D01*
X149835714Y-102428571D02*
X149978571Y-102428571D01*
X150121428Y-102500000D01*
X150192857Y-102571428D01*
X150264285Y-102714285D01*
X150335714Y-103000000D01*
X150335714Y-103357142D01*
X150264285Y-103642857D01*
X150192857Y-103785714D01*
X150121428Y-103857142D01*
X149978571Y-103928571D01*
X149835714Y-103928571D01*
X149692857Y-103857142D01*
X149621428Y-103785714D01*
X149550000Y-103642857D01*
X149478571Y-103357142D01*
X149478571Y-103000000D01*
X149550000Y-102714285D01*
X149621428Y-102571428D01*
X149692857Y-102500000D01*
X149835714Y-102428571D01*
X151050000Y-103928571D02*
X151335714Y-103928571D01*
X151478571Y-103857142D01*
X151550000Y-103785714D01*
X151692857Y-103571428D01*
X151764285Y-103285714D01*
X151764285Y-102714285D01*
X151692857Y-102571428D01*
X151621428Y-102500000D01*
X151478571Y-102428571D01*
X151192857Y-102428571D01*
X151050000Y-102500000D01*
X150978571Y-102571428D01*
X150907142Y-102714285D01*
X150907142Y-103071428D01*
X150978571Y-103214285D01*
X151050000Y-103285714D01*
X151192857Y-103357142D01*
X151478571Y-103357142D01*
X151621428Y-103285714D01*
X151692857Y-103214285D01*
X151764285Y-103071428D01*
X152407142Y-103785714D02*
X152478571Y-103857142D01*
X152407142Y-103928571D01*
X152335714Y-103857142D01*
X152407142Y-103785714D01*
X152407142Y-103928571D01*
X153764285Y-103928571D02*
X153764285Y-103142857D01*
X153692857Y-103000000D01*
X153550000Y-102928571D01*
X153264285Y-102928571D01*
X153121428Y-103000000D01*
X153764285Y-103857142D02*
X153621428Y-103928571D01*
X153264285Y-103928571D01*
X153121428Y-103857142D01*
X153050000Y-103714285D01*
X153050000Y-103571428D01*
X153121428Y-103428571D01*
X153264285Y-103357142D01*
X153621428Y-103357142D01*
X153764285Y-103285714D01*
X154478571Y-103928571D02*
X154478571Y-102928571D01*
X154478571Y-102428571D02*
X154407142Y-102500000D01*
X154478571Y-102571428D01*
X154550000Y-102500000D01*
X154478571Y-102428571D01*
X154478571Y-102571428D01*
X147893500Y-100043071D02*
X148893500Y-100043071D01*
X148250642Y-101543071D01*
X149750642Y-100043071D02*
X149893500Y-100043071D01*
X150036357Y-100114500D01*
X150107785Y-100185928D01*
X150179214Y-100328785D01*
X150250642Y-100614500D01*
X150250642Y-100971642D01*
X150179214Y-101257357D01*
X150107785Y-101400214D01*
X150036357Y-101471642D01*
X149893500Y-101543071D01*
X149750642Y-101543071D01*
X149607785Y-101471642D01*
X149536357Y-101400214D01*
X149464928Y-101257357D01*
X149393500Y-100971642D01*
X149393500Y-100614500D01*
X149464928Y-100328785D01*
X149536357Y-100185928D01*
X149607785Y-100114500D01*
X149750642Y-100043071D01*
X150964928Y-101543071D02*
X151250642Y-101543071D01*
X151393500Y-101471642D01*
X151464928Y-101400214D01*
X151607785Y-101185928D01*
X151679214Y-100900214D01*
X151679214Y-100328785D01*
X151607785Y-100185928D01*
X151536357Y-100114500D01*
X151393500Y-100043071D01*
X151107785Y-100043071D01*
X150964928Y-100114500D01*
X150893500Y-100185928D01*
X150822071Y-100328785D01*
X150822071Y-100685928D01*
X150893500Y-100828785D01*
X150964928Y-100900214D01*
X151107785Y-100971642D01*
X151393500Y-100971642D01*
X151536357Y-100900214D01*
X151607785Y-100828785D01*
X151679214Y-100685928D01*
X152322071Y-101400214D02*
X152393500Y-101471642D01*
X152322071Y-101543071D01*
X152250642Y-101471642D01*
X152322071Y-101400214D01*
X152322071Y-101543071D01*
X153679214Y-101543071D02*
X153679214Y-100757357D01*
X153607785Y-100614500D01*
X153464928Y-100543071D01*
X153179214Y-100543071D01*
X153036357Y-100614500D01*
X153679214Y-101471642D02*
X153536357Y-101543071D01*
X153179214Y-101543071D01*
X153036357Y-101471642D01*
X152964928Y-101328785D01*
X152964928Y-101185928D01*
X153036357Y-101043071D01*
X153179214Y-100971642D01*
X153536357Y-100971642D01*
X153679214Y-100900214D01*
X154679214Y-100043071D02*
X154964928Y-100043071D01*
X155107785Y-100114500D01*
X155250642Y-100257357D01*
X155322071Y-100543071D01*
X155322071Y-101043071D01*
X155250642Y-101328785D01*
X155107785Y-101471642D01*
X154964928Y-101543071D01*
X154679214Y-101543071D01*
X154536357Y-101471642D01*
X154393500Y-101328785D01*
X154322071Y-101043071D01*
X154322071Y-100543071D01*
X154393500Y-100257357D01*
X154536357Y-100114500D01*
X154679214Y-100043071D01*
X147779214Y-97343071D02*
X148779214Y-97343071D01*
X148136357Y-98843071D01*
X149636357Y-97343071D02*
X149779214Y-97343071D01*
X149922071Y-97414500D01*
X149993500Y-97485928D01*
X150064928Y-97628785D01*
X150136357Y-97914500D01*
X150136357Y-98271642D01*
X150064928Y-98557357D01*
X149993500Y-98700214D01*
X149922071Y-98771642D01*
X149779214Y-98843071D01*
X149636357Y-98843071D01*
X149493500Y-98771642D01*
X149422071Y-98700214D01*
X149350642Y-98557357D01*
X149279214Y-98271642D01*
X149279214Y-97914500D01*
X149350642Y-97628785D01*
X149422071Y-97485928D01*
X149493500Y-97414500D01*
X149636357Y-97343071D01*
X150993500Y-97985928D02*
X150850642Y-97914500D01*
X150779214Y-97843071D01*
X150707785Y-97700214D01*
X150707785Y-97628785D01*
X150779214Y-97485928D01*
X150850642Y-97414500D01*
X150993500Y-97343071D01*
X151279214Y-97343071D01*
X151422071Y-97414500D01*
X151493500Y-97485928D01*
X151564928Y-97628785D01*
X151564928Y-97700214D01*
X151493500Y-97843071D01*
X151422071Y-97914500D01*
X151279214Y-97985928D01*
X150993500Y-97985928D01*
X150850642Y-98057357D01*
X150779214Y-98128785D01*
X150707785Y-98271642D01*
X150707785Y-98557357D01*
X150779214Y-98700214D01*
X150850642Y-98771642D01*
X150993500Y-98843071D01*
X151279214Y-98843071D01*
X151422071Y-98771642D01*
X151493500Y-98700214D01*
X151564928Y-98557357D01*
X151564928Y-98271642D01*
X151493500Y-98128785D01*
X151422071Y-98057357D01*
X151279214Y-97985928D01*
X152207785Y-98700214D02*
X152279214Y-98771642D01*
X152207785Y-98843071D01*
X152136357Y-98771642D01*
X152207785Y-98700214D01*
X152207785Y-98843071D01*
X153707785Y-98843071D02*
X152850642Y-98843071D01*
X153279214Y-98843071D02*
X153279214Y-97343071D01*
X153136357Y-97557357D01*
X152993500Y-97700214D01*
X152850642Y-97771642D01*
X154207785Y-97343071D02*
X155207785Y-97343071D01*
X154564928Y-98843071D01*
X147600000Y-94743071D02*
X148600000Y-94743071D01*
X147957142Y-96243071D01*
X149457142Y-94743071D02*
X149600000Y-94743071D01*
X149742857Y-94814500D01*
X149814285Y-94885928D01*
X149885714Y-95028785D01*
X149957142Y-95314500D01*
X149957142Y-95671642D01*
X149885714Y-95957357D01*
X149814285Y-96100214D01*
X149742857Y-96171642D01*
X149600000Y-96243071D01*
X149457142Y-96243071D01*
X149314285Y-96171642D01*
X149242857Y-96100214D01*
X149171428Y-95957357D01*
X149100000Y-95671642D01*
X149100000Y-95314500D01*
X149171428Y-95028785D01*
X149242857Y-94885928D01*
X149314285Y-94814500D01*
X149457142Y-94743071D01*
X150814285Y-95385928D02*
X150671428Y-95314500D01*
X150600000Y-95243071D01*
X150528571Y-95100214D01*
X150528571Y-95028785D01*
X150600000Y-94885928D01*
X150671428Y-94814500D01*
X150814285Y-94743071D01*
X151100000Y-94743071D01*
X151242857Y-94814500D01*
X151314285Y-94885928D01*
X151385714Y-95028785D01*
X151385714Y-95100214D01*
X151314285Y-95243071D01*
X151242857Y-95314500D01*
X151100000Y-95385928D01*
X150814285Y-95385928D01*
X150671428Y-95457357D01*
X150600000Y-95528785D01*
X150528571Y-95671642D01*
X150528571Y-95957357D01*
X150600000Y-96100214D01*
X150671428Y-96171642D01*
X150814285Y-96243071D01*
X151100000Y-96243071D01*
X151242857Y-96171642D01*
X151314285Y-96100214D01*
X151385714Y-95957357D01*
X151385714Y-95671642D01*
X151314285Y-95528785D01*
X151242857Y-95457357D01*
X151100000Y-95385928D01*
X152028571Y-96100214D02*
X152100000Y-96171642D01*
X152028571Y-96243071D01*
X151957142Y-96171642D01*
X152028571Y-96100214D01*
X152028571Y-96243071D01*
X153528571Y-96243071D02*
X152671428Y-96243071D01*
X153100000Y-96243071D02*
X153100000Y-94743071D01*
X152957142Y-94957357D01*
X152814285Y-95100214D01*
X152671428Y-95171642D01*
X149500000Y-91928571D02*
X150500000Y-91928571D01*
X149857142Y-93428571D01*
X151357142Y-91928571D02*
X151500000Y-91928571D01*
X151642857Y-92000000D01*
X151714285Y-92071428D01*
X151785714Y-92214285D01*
X151857142Y-92500000D01*
X151857142Y-92857142D01*
X151785714Y-93142857D01*
X151714285Y-93285714D01*
X151642857Y-93357142D01*
X151500000Y-93428571D01*
X151357142Y-93428571D01*
X151214285Y-93357142D01*
X151142857Y-93285714D01*
X151071428Y-93142857D01*
X151000000Y-92857142D01*
X151000000Y-92500000D01*
X151071428Y-92214285D01*
X151142857Y-92071428D01*
X151214285Y-92000000D01*
X151357142Y-91928571D01*
X153214285Y-91928571D02*
X152500000Y-91928571D01*
X152428571Y-92642857D01*
X152500000Y-92571428D01*
X152642857Y-92500000D01*
X153000000Y-92500000D01*
X153142857Y-92571428D01*
X153214285Y-92642857D01*
X153285714Y-92785714D01*
X153285714Y-93142857D01*
X153214285Y-93285714D01*
X153142857Y-93357142D01*
X153000000Y-93428571D01*
X152642857Y-93428571D01*
X152500000Y-93357142D01*
X152428571Y-93285714D01*
X153928571Y-93285714D02*
X154000000Y-93357142D01*
X153928571Y-93428571D01*
X153857142Y-93357142D01*
X153928571Y-93285714D01*
X153928571Y-93428571D01*
X155428571Y-93428571D02*
X154571428Y-93428571D01*
X155000000Y-93428571D02*
X155000000Y-91928571D01*
X154857142Y-92142857D01*
X154714285Y-92285714D01*
X154571428Y-92357142D01*
X149400000Y-89528571D02*
X150400000Y-89528571D01*
X149757142Y-91028571D01*
X151257142Y-89528571D02*
X151400000Y-89528571D01*
X151542857Y-89600000D01*
X151614285Y-89671428D01*
X151685714Y-89814285D01*
X151757142Y-90100000D01*
X151757142Y-90457142D01*
X151685714Y-90742857D01*
X151614285Y-90885714D01*
X151542857Y-90957142D01*
X151400000Y-91028571D01*
X151257142Y-91028571D01*
X151114285Y-90957142D01*
X151042857Y-90885714D01*
X150971428Y-90742857D01*
X150900000Y-90457142D01*
X150900000Y-90100000D01*
X150971428Y-89814285D01*
X151042857Y-89671428D01*
X151114285Y-89600000D01*
X151257142Y-89528571D01*
X153114285Y-89528571D02*
X152400000Y-89528571D01*
X152328571Y-90242857D01*
X152400000Y-90171428D01*
X152542857Y-90100000D01*
X152900000Y-90100000D01*
X153042857Y-90171428D01*
X153114285Y-90242857D01*
X153185714Y-90385714D01*
X153185714Y-90742857D01*
X153114285Y-90885714D01*
X153042857Y-90957142D01*
X152900000Y-91028571D01*
X152542857Y-91028571D01*
X152400000Y-90957142D01*
X152328571Y-90885714D01*
X153828571Y-90885714D02*
X153900000Y-90957142D01*
X153828571Y-91028571D01*
X153757142Y-90957142D01*
X153828571Y-90885714D01*
X153828571Y-91028571D01*
X154400000Y-89528571D02*
X155328571Y-89528571D01*
X154828571Y-90100000D01*
X155042857Y-90100000D01*
X155185714Y-90171428D01*
X155257142Y-90242857D01*
X155328571Y-90385714D01*
X155328571Y-90742857D01*
X155257142Y-90885714D01*
X155185714Y-90957142D01*
X155042857Y-91028571D01*
X154614285Y-91028571D01*
X154471428Y-90957142D01*
X154400000Y-90885714D01*
X149450000Y-87228571D02*
X150450000Y-87228571D01*
X149807142Y-88728571D01*
X151307142Y-87228571D02*
X151450000Y-87228571D01*
X151592857Y-87300000D01*
X151664285Y-87371428D01*
X151735714Y-87514285D01*
X151807142Y-87800000D01*
X151807142Y-88157142D01*
X151735714Y-88442857D01*
X151664285Y-88585714D01*
X151592857Y-88657142D01*
X151450000Y-88728571D01*
X151307142Y-88728571D01*
X151164285Y-88657142D01*
X151092857Y-88585714D01*
X151021428Y-88442857D01*
X150950000Y-88157142D01*
X150950000Y-87800000D01*
X151021428Y-87514285D01*
X151092857Y-87371428D01*
X151164285Y-87300000D01*
X151307142Y-87228571D01*
X153164285Y-87228571D02*
X152450000Y-87228571D01*
X152378571Y-87942857D01*
X152450000Y-87871428D01*
X152592857Y-87800000D01*
X152950000Y-87800000D01*
X153092857Y-87871428D01*
X153164285Y-87942857D01*
X153235714Y-88085714D01*
X153235714Y-88442857D01*
X153164285Y-88585714D01*
X153092857Y-88657142D01*
X152950000Y-88728571D01*
X152592857Y-88728571D01*
X152450000Y-88657142D01*
X152378571Y-88585714D01*
X153878571Y-88585714D02*
X153950000Y-88657142D01*
X153878571Y-88728571D01*
X153807142Y-88657142D01*
X153878571Y-88585714D01*
X153878571Y-88728571D01*
X155307142Y-87228571D02*
X154592857Y-87228571D01*
X154521428Y-87942857D01*
X154592857Y-87871428D01*
X154735714Y-87800000D01*
X155092857Y-87800000D01*
X155235714Y-87871428D01*
X155307142Y-87942857D01*
X155378571Y-88085714D01*
X155378571Y-88442857D01*
X155307142Y-88585714D01*
X155235714Y-88657142D01*
X155092857Y-88728571D01*
X154735714Y-88728571D01*
X154592857Y-88657142D01*
X154521428Y-88585714D01*
X147485714Y-82078571D02*
X148485714Y-82078571D01*
X147842857Y-83578571D01*
X149342857Y-82078571D02*
X149485714Y-82078571D01*
X149628571Y-82150000D01*
X149700000Y-82221428D01*
X149771428Y-82364285D01*
X149842857Y-82650000D01*
X149842857Y-83007142D01*
X149771428Y-83292857D01*
X149700000Y-83435714D01*
X149628571Y-83507142D01*
X149485714Y-83578571D01*
X149342857Y-83578571D01*
X149200000Y-83507142D01*
X149128571Y-83435714D01*
X149057142Y-83292857D01*
X148985714Y-83007142D01*
X148985714Y-82650000D01*
X149057142Y-82364285D01*
X149128571Y-82221428D01*
X149200000Y-82150000D01*
X149342857Y-82078571D01*
X151271428Y-83578571D02*
X150414285Y-83578571D01*
X150842857Y-83578571D02*
X150842857Y-82078571D01*
X150700000Y-82292857D01*
X150557142Y-82435714D01*
X150414285Y-82507142D01*
X151914285Y-83435714D02*
X151985714Y-83507142D01*
X151914285Y-83578571D01*
X151842857Y-83507142D01*
X151914285Y-83435714D01*
X151914285Y-83578571D01*
X153414285Y-83578571D02*
X152557142Y-83578571D01*
X152985714Y-83578571D02*
X152985714Y-82078571D01*
X152842857Y-82292857D01*
X152700000Y-82435714D01*
X152557142Y-82507142D01*
X153914285Y-82078571D02*
X154914285Y-82078571D01*
X154271428Y-83578571D01*
D12*
X100216666Y-115382380D02*
X100550000Y-116382380D01*
X100883333Y-115382380D01*
X101788095Y-116287142D02*
X101740476Y-116334761D01*
X101597619Y-116382380D01*
X101502380Y-116382380D01*
X101359523Y-116334761D01*
X101264285Y-116239523D01*
X101216666Y-116144285D01*
X101169047Y-115953809D01*
X101169047Y-115810952D01*
X101216666Y-115620476D01*
X101264285Y-115525238D01*
X101359523Y-115430000D01*
X101502380Y-115382380D01*
X101597619Y-115382380D01*
X101740476Y-115430000D01*
X101788095Y-115477619D01*
X102788095Y-116287142D02*
X102740476Y-116334761D01*
X102597619Y-116382380D01*
X102502380Y-116382380D01*
X102359523Y-116334761D01*
X102264285Y-116239523D01*
X102216666Y-116144285D01*
X102169047Y-115953809D01*
X102169047Y-115810952D01*
X102216666Y-115620476D01*
X102264285Y-115525238D01*
X102359523Y-115430000D01*
X102502380Y-115382380D01*
X102597619Y-115382380D01*
X102740476Y-115430000D01*
X102788095Y-115477619D01*
D13*
X98788571Y-94182857D02*
X98788571Y-93325714D01*
X100288571Y-93754285D02*
X98788571Y-93754285D01*
X98788571Y-92968571D02*
X100288571Y-91968571D01*
X98788571Y-91968571D02*
X100288571Y-92968571D01*
X100318571Y-89690000D02*
X99604285Y-90190000D01*
X100318571Y-90547142D02*
X98818571Y-90547142D01*
X98818571Y-89975714D01*
X98890000Y-89832857D01*
X98961428Y-89761428D01*
X99104285Y-89690000D01*
X99318571Y-89690000D01*
X99461428Y-89761428D01*
X99532857Y-89832857D01*
X99604285Y-89975714D01*
X99604285Y-90547142D01*
X98818571Y-89190000D02*
X100318571Y-88190000D01*
X98818571Y-88190000D02*
X100318571Y-89190000D01*
D12*
X125102380Y-78638095D02*
X124102380Y-78638095D01*
X124102380Y-78400000D01*
X124150000Y-78257142D01*
X124245238Y-78161904D01*
X124340476Y-78114285D01*
X124530952Y-78066666D01*
X124673809Y-78066666D01*
X124864285Y-78114285D01*
X124959523Y-78161904D01*
X125054761Y-78257142D01*
X125102380Y-78400000D01*
X125102380Y-78638095D01*
X124530952Y-77495238D02*
X124483333Y-77590476D01*
X124435714Y-77638095D01*
X124340476Y-77685714D01*
X124292857Y-77685714D01*
X124197619Y-77638095D01*
X124150000Y-77590476D01*
X124102380Y-77495238D01*
X124102380Y-77304761D01*
X124150000Y-77209523D01*
X124197619Y-77161904D01*
X124292857Y-77114285D01*
X124340476Y-77114285D01*
X124435714Y-77161904D01*
X124483333Y-77209523D01*
X124530952Y-77304761D01*
X124530952Y-77495238D01*
X124578571Y-77590476D01*
X124626190Y-77638095D01*
X124721428Y-77685714D01*
X124911904Y-77685714D01*
X125007142Y-77638095D01*
X125054761Y-77590476D01*
X125102380Y-77495238D01*
X125102380Y-77304761D01*
X125054761Y-77209523D01*
X125007142Y-77161904D01*
X124911904Y-77114285D01*
X124721428Y-77114285D01*
X124626190Y-77161904D01*
X124578571Y-77209523D01*
X124530952Y-77304761D01*
X119962380Y-79098095D02*
X118962380Y-79098095D01*
X119914761Y-79098095D02*
X119962380Y-79193333D01*
X119962380Y-79383809D01*
X119914761Y-79479047D01*
X119867142Y-79526666D01*
X119771904Y-79574285D01*
X119486190Y-79574285D01*
X119390952Y-79526666D01*
X119343333Y-79479047D01*
X119295714Y-79383809D01*
X119295714Y-79193333D01*
X119343333Y-79098095D01*
X119962380Y-78098095D02*
X119962380Y-78669523D01*
X119962380Y-78383809D02*
X118962380Y-78383809D01*
X119105238Y-78479047D01*
X119200476Y-78574285D01*
X119248095Y-78669523D01*
X118962380Y-77479047D02*
X118962380Y-77383809D01*
X119010000Y-77288571D01*
X119057619Y-77240952D01*
X119152857Y-77193333D01*
X119343333Y-77145714D01*
X119581428Y-77145714D01*
X119771904Y-77193333D01*
X119867142Y-77240952D01*
X119914761Y-77288571D01*
X119962380Y-77383809D01*
X119962380Y-77479047D01*
X119914761Y-77574285D01*
X119867142Y-77621904D01*
X119771904Y-77669523D01*
X119581428Y-77717142D01*
X119343333Y-77717142D01*
X119152857Y-77669523D01*
X119057619Y-77621904D01*
X119010000Y-77574285D01*
X118962380Y-77479047D01*
X117368580Y-79573285D02*
X116368580Y-79573285D01*
X116368580Y-79335190D01*
X116416200Y-79192333D01*
X116511438Y-79097095D01*
X116606676Y-79049476D01*
X116797152Y-79001857D01*
X116940009Y-79001857D01*
X117130485Y-79049476D01*
X117225723Y-79097095D01*
X117320961Y-79192333D01*
X117368580Y-79335190D01*
X117368580Y-79573285D01*
X117368580Y-78049476D02*
X117368580Y-78620904D01*
X117368580Y-78335190D02*
X116368580Y-78335190D01*
X116511438Y-78430428D01*
X116606676Y-78525666D01*
X116654295Y-78620904D01*
X117368580Y-77097095D02*
X117368580Y-77668523D01*
X117368580Y-77382809D02*
X116368580Y-77382809D01*
X116511438Y-77478047D01*
X116606676Y-77573285D01*
X116654295Y-77668523D01*
X114815880Y-79636785D02*
X113815880Y-79636785D01*
X113815880Y-79398690D01*
X113863500Y-79255833D01*
X113958738Y-79160595D01*
X114053976Y-79112976D01*
X114244452Y-79065357D01*
X114387309Y-79065357D01*
X114577785Y-79112976D01*
X114673023Y-79160595D01*
X114768261Y-79255833D01*
X114815880Y-79398690D01*
X114815880Y-79636785D01*
X114815880Y-78112976D02*
X114815880Y-78684404D01*
X114815880Y-78398690D02*
X113815880Y-78398690D01*
X113958738Y-78493928D01*
X114053976Y-78589166D01*
X114101595Y-78684404D01*
X113911119Y-77732023D02*
X113863500Y-77684404D01*
X113815880Y-77589166D01*
X113815880Y-77351071D01*
X113863500Y-77255833D01*
X113911119Y-77208214D01*
X114006357Y-77160595D01*
X114101595Y-77160595D01*
X114244452Y-77208214D01*
X114815880Y-77779642D01*
X114815880Y-77160595D01*
X111305714Y-81012380D02*
X111305714Y-80012380D01*
X111543809Y-80012380D01*
X111686666Y-80060000D01*
X111781904Y-80155238D01*
X111829523Y-80250476D01*
X111877142Y-80440952D01*
X111877142Y-80583809D01*
X111829523Y-80774285D01*
X111781904Y-80869523D01*
X111686666Y-80964761D01*
X111543809Y-81012380D01*
X111305714Y-81012380D01*
X112829523Y-81012380D02*
X112258095Y-81012380D01*
X112543809Y-81012380D02*
X112543809Y-80012380D01*
X112448571Y-80155238D01*
X112353333Y-80250476D01*
X112258095Y-80298095D01*
X113686666Y-80012380D02*
X113496190Y-80012380D01*
X113400952Y-80060000D01*
X113353333Y-80107619D01*
X113258095Y-80250476D01*
X113210476Y-80440952D01*
X113210476Y-80821904D01*
X113258095Y-80917142D01*
X113305714Y-80964761D01*
X113400952Y-81012380D01*
X113591428Y-81012380D01*
X113686666Y-80964761D01*
X113734285Y-80917142D01*
X113781904Y-80821904D01*
X113781904Y-80583809D01*
X113734285Y-80488571D01*
X113686666Y-80440952D01*
X113591428Y-80393333D01*
X113400952Y-80393333D01*
X113305714Y-80440952D01*
X113258095Y-80488571D01*
X113210476Y-80583809D01*
X111811904Y-83622380D02*
X111811904Y-82622380D01*
X111811904Y-83574761D02*
X111716666Y-83622380D01*
X111526190Y-83622380D01*
X111430952Y-83574761D01*
X111383333Y-83527142D01*
X111335714Y-83431904D01*
X111335714Y-83146190D01*
X111383333Y-83050952D01*
X111430952Y-83003333D01*
X111526190Y-82955714D01*
X111716666Y-82955714D01*
X111811904Y-83003333D01*
X112811904Y-83622380D02*
X112240476Y-83622380D01*
X112526190Y-83622380D02*
X112526190Y-82622380D01*
X112430952Y-82765238D01*
X112335714Y-82860476D01*
X112240476Y-82908095D01*
X113145238Y-82622380D02*
X113811904Y-82622380D01*
X113383333Y-83622380D01*
X111781904Y-86042380D02*
X111781904Y-85518571D01*
X111734285Y-85423333D01*
X111639047Y-85375714D01*
X111448571Y-85375714D01*
X111353333Y-85423333D01*
X111781904Y-85994761D02*
X111686666Y-86042380D01*
X111448571Y-86042380D01*
X111353333Y-85994761D01*
X111305714Y-85899523D01*
X111305714Y-85804285D01*
X111353333Y-85709047D01*
X111448571Y-85661428D01*
X111686666Y-85661428D01*
X111781904Y-85613809D01*
X112781904Y-86042380D02*
X112210476Y-86042380D01*
X112496190Y-86042380D02*
X112496190Y-85042380D01*
X112400952Y-85185238D01*
X112305714Y-85280476D01*
X112210476Y-85328095D01*
X113115238Y-85042380D02*
X113781904Y-85042380D01*
X113353333Y-86042380D01*
X111811904Y-88612380D02*
X111811904Y-88088571D01*
X111764285Y-87993333D01*
X111669047Y-87945714D01*
X111478571Y-87945714D01*
X111383333Y-87993333D01*
X111811904Y-88564761D02*
X111716666Y-88612380D01*
X111478571Y-88612380D01*
X111383333Y-88564761D01*
X111335714Y-88469523D01*
X111335714Y-88374285D01*
X111383333Y-88279047D01*
X111478571Y-88231428D01*
X111716666Y-88231428D01*
X111811904Y-88183809D01*
X112811904Y-88612380D02*
X112240476Y-88612380D01*
X112526190Y-88612380D02*
X112526190Y-87612380D01*
X112430952Y-87755238D01*
X112335714Y-87850476D01*
X112240476Y-87898095D01*
X113669047Y-87612380D02*
X113478571Y-87612380D01*
X113383333Y-87660000D01*
X113335714Y-87707619D01*
X113240476Y-87850476D01*
X113192857Y-88040952D01*
X113192857Y-88421904D01*
X113240476Y-88517142D01*
X113288095Y-88564761D01*
X113383333Y-88612380D01*
X113573809Y-88612380D01*
X113669047Y-88564761D01*
X113716666Y-88517142D01*
X113764285Y-88421904D01*
X113764285Y-88183809D01*
X113716666Y-88088571D01*
X113669047Y-88040952D01*
X113573809Y-87993333D01*
X113383333Y-87993333D01*
X113288095Y-88040952D01*
X113240476Y-88088571D01*
X113192857Y-88183809D01*
X111761904Y-91142380D02*
X111761904Y-90618571D01*
X111714285Y-90523333D01*
X111619047Y-90475714D01*
X111428571Y-90475714D01*
X111333333Y-90523333D01*
X111761904Y-91094761D02*
X111666666Y-91142380D01*
X111428571Y-91142380D01*
X111333333Y-91094761D01*
X111285714Y-90999523D01*
X111285714Y-90904285D01*
X111333333Y-90809047D01*
X111428571Y-90761428D01*
X111666666Y-90761428D01*
X111761904Y-90713809D01*
X112761904Y-91142380D02*
X112190476Y-91142380D01*
X112476190Y-91142380D02*
X112476190Y-90142380D01*
X112380952Y-90285238D01*
X112285714Y-90380476D01*
X112190476Y-90428095D01*
X113666666Y-90142380D02*
X113190476Y-90142380D01*
X113142857Y-90618571D01*
X113190476Y-90570952D01*
X113285714Y-90523333D01*
X113523809Y-90523333D01*
X113619047Y-90570952D01*
X113666666Y-90618571D01*
X113714285Y-90713809D01*
X113714285Y-90951904D01*
X113666666Y-91047142D01*
X113619047Y-91094761D01*
X113523809Y-91142380D01*
X113285714Y-91142380D01*
X113190476Y-91094761D01*
X113142857Y-91047142D01*
X111761904Y-93652380D02*
X111761904Y-93128571D01*
X111714285Y-93033333D01*
X111619047Y-92985714D01*
X111428571Y-92985714D01*
X111333333Y-93033333D01*
X111761904Y-93604761D02*
X111666666Y-93652380D01*
X111428571Y-93652380D01*
X111333333Y-93604761D01*
X111285714Y-93509523D01*
X111285714Y-93414285D01*
X111333333Y-93319047D01*
X111428571Y-93271428D01*
X111666666Y-93271428D01*
X111761904Y-93223809D01*
X112761904Y-93652380D02*
X112190476Y-93652380D01*
X112476190Y-93652380D02*
X112476190Y-92652380D01*
X112380952Y-92795238D01*
X112285714Y-92890476D01*
X112190476Y-92938095D01*
X113619047Y-92985714D02*
X113619047Y-93652380D01*
X113380952Y-92604761D02*
X113142857Y-93319047D01*
X113761904Y-93319047D01*
X111801904Y-96352380D02*
X111801904Y-95828571D01*
X111754285Y-95733333D01*
X111659047Y-95685714D01*
X111468571Y-95685714D01*
X111373333Y-95733333D01*
X111801904Y-96304761D02*
X111706666Y-96352380D01*
X111468571Y-96352380D01*
X111373333Y-96304761D01*
X111325714Y-96209523D01*
X111325714Y-96114285D01*
X111373333Y-96019047D01*
X111468571Y-95971428D01*
X111706666Y-95971428D01*
X111801904Y-95923809D01*
X112801904Y-96352380D02*
X112230476Y-96352380D01*
X112516190Y-96352380D02*
X112516190Y-95352380D01*
X112420952Y-95495238D01*
X112325714Y-95590476D01*
X112230476Y-95638095D01*
X113135238Y-95352380D02*
X113754285Y-95352380D01*
X113420952Y-95733333D01*
X113563809Y-95733333D01*
X113659047Y-95780952D01*
X113706666Y-95828571D01*
X113754285Y-95923809D01*
X113754285Y-96161904D01*
X113706666Y-96257142D01*
X113659047Y-96304761D01*
X113563809Y-96352380D01*
X113278095Y-96352380D01*
X113182857Y-96304761D01*
X113135238Y-96257142D01*
X112392380Y-105008095D02*
X111868571Y-105008095D01*
X111773333Y-105055714D01*
X111725714Y-105150952D01*
X111725714Y-105341428D01*
X111773333Y-105436666D01*
X112344761Y-105008095D02*
X112392380Y-105103333D01*
X112392380Y-105341428D01*
X112344761Y-105436666D01*
X112249523Y-105484285D01*
X112154285Y-105484285D01*
X112059047Y-105436666D01*
X112011428Y-105341428D01*
X112011428Y-105103333D01*
X111963809Y-105008095D01*
X112392380Y-104008095D02*
X112392380Y-104579523D01*
X112392380Y-104293809D02*
X111392380Y-104293809D01*
X111535238Y-104389047D01*
X111630476Y-104484285D01*
X111678095Y-104579523D01*
X111392380Y-103389047D02*
X111392380Y-103293809D01*
X111440000Y-103198571D01*
X111487619Y-103150952D01*
X111582857Y-103103333D01*
X111773333Y-103055714D01*
X112011428Y-103055714D01*
X112201904Y-103103333D01*
X112297142Y-103150952D01*
X112344761Y-103198571D01*
X112392380Y-103293809D01*
X112392380Y-103389047D01*
X112344761Y-103484285D01*
X112297142Y-103531904D01*
X112201904Y-103579523D01*
X112011428Y-103627142D01*
X111773333Y-103627142D01*
X111582857Y-103579523D01*
X111487619Y-103531904D01*
X111440000Y-103484285D01*
X111392380Y-103389047D01*
X114982380Y-104111904D02*
X114458571Y-104111904D01*
X114363333Y-104159523D01*
X114315714Y-104254761D01*
X114315714Y-104445238D01*
X114363333Y-104540476D01*
X114934761Y-104111904D02*
X114982380Y-104207142D01*
X114982380Y-104445238D01*
X114934761Y-104540476D01*
X114839523Y-104588095D01*
X114744285Y-104588095D01*
X114649047Y-104540476D01*
X114601428Y-104445238D01*
X114601428Y-104207142D01*
X114553809Y-104111904D01*
X114982380Y-103588095D02*
X114982380Y-103397619D01*
X114934761Y-103302380D01*
X114887142Y-103254761D01*
X114744285Y-103159523D01*
X114553809Y-103111904D01*
X114172857Y-103111904D01*
X114077619Y-103159523D01*
X114030000Y-103207142D01*
X113982380Y-103302380D01*
X113982380Y-103492857D01*
X114030000Y-103588095D01*
X114077619Y-103635714D01*
X114172857Y-103683333D01*
X114410952Y-103683333D01*
X114506190Y-103635714D01*
X114553809Y-103588095D01*
X114601428Y-103492857D01*
X114601428Y-103302380D01*
X114553809Y-103207142D01*
X114506190Y-103159523D01*
X114410952Y-103111904D01*
X117495580Y-104001904D02*
X116971771Y-104001904D01*
X116876533Y-104049523D01*
X116828914Y-104144761D01*
X116828914Y-104335238D01*
X116876533Y-104430476D01*
X117447961Y-104001904D02*
X117495580Y-104097142D01*
X117495580Y-104335238D01*
X117447961Y-104430476D01*
X117352723Y-104478095D01*
X117257485Y-104478095D01*
X117162247Y-104430476D01*
X117114628Y-104335238D01*
X117114628Y-104097142D01*
X117067009Y-104001904D01*
X116924152Y-103382857D02*
X116876533Y-103478095D01*
X116828914Y-103525714D01*
X116733676Y-103573333D01*
X116686057Y-103573333D01*
X116590819Y-103525714D01*
X116543200Y-103478095D01*
X116495580Y-103382857D01*
X116495580Y-103192380D01*
X116543200Y-103097142D01*
X116590819Y-103049523D01*
X116686057Y-103001904D01*
X116733676Y-103001904D01*
X116828914Y-103049523D01*
X116876533Y-103097142D01*
X116924152Y-103192380D01*
X116924152Y-103382857D01*
X116971771Y-103478095D01*
X117019390Y-103525714D01*
X117114628Y-103573333D01*
X117305104Y-103573333D01*
X117400342Y-103525714D01*
X117447961Y-103478095D01*
X117495580Y-103382857D01*
X117495580Y-103192380D01*
X117447961Y-103097142D01*
X117400342Y-103049523D01*
X117305104Y-103001904D01*
X117114628Y-103001904D01*
X117019390Y-103049523D01*
X116971771Y-103097142D01*
X116924152Y-103192380D01*
X120152380Y-104041904D02*
X119628571Y-104041904D01*
X119533333Y-104089523D01*
X119485714Y-104184761D01*
X119485714Y-104375238D01*
X119533333Y-104470476D01*
X120104761Y-104041904D02*
X120152380Y-104137142D01*
X120152380Y-104375238D01*
X120104761Y-104470476D01*
X120009523Y-104518095D01*
X119914285Y-104518095D01*
X119819047Y-104470476D01*
X119771428Y-104375238D01*
X119771428Y-104137142D01*
X119723809Y-104041904D01*
X119152380Y-103660952D02*
X119152380Y-102994285D01*
X120152380Y-103422857D01*
X122672380Y-104001904D02*
X122148571Y-104001904D01*
X122053333Y-104049523D01*
X122005714Y-104144761D01*
X122005714Y-104335238D01*
X122053333Y-104430476D01*
X122624761Y-104001904D02*
X122672380Y-104097142D01*
X122672380Y-104335238D01*
X122624761Y-104430476D01*
X122529523Y-104478095D01*
X122434285Y-104478095D01*
X122339047Y-104430476D01*
X122291428Y-104335238D01*
X122291428Y-104097142D01*
X122243809Y-104001904D01*
X121672380Y-103097142D02*
X121672380Y-103287619D01*
X121720000Y-103382857D01*
X121767619Y-103430476D01*
X121910476Y-103525714D01*
X122100952Y-103573333D01*
X122481904Y-103573333D01*
X122577142Y-103525714D01*
X122624761Y-103478095D01*
X122672380Y-103382857D01*
X122672380Y-103192380D01*
X122624761Y-103097142D01*
X122577142Y-103049523D01*
X122481904Y-103001904D01*
X122243809Y-103001904D01*
X122148571Y-103049523D01*
X122100952Y-103097142D01*
X122053333Y-103192380D01*
X122053333Y-103382857D01*
X122100952Y-103478095D01*
X122148571Y-103525714D01*
X122243809Y-103573333D01*
X125152380Y-104071904D02*
X124628571Y-104071904D01*
X124533333Y-104119523D01*
X124485714Y-104214761D01*
X124485714Y-104405238D01*
X124533333Y-104500476D01*
X125104761Y-104071904D02*
X125152380Y-104167142D01*
X125152380Y-104405238D01*
X125104761Y-104500476D01*
X125009523Y-104548095D01*
X124914285Y-104548095D01*
X124819047Y-104500476D01*
X124771428Y-104405238D01*
X124771428Y-104167142D01*
X124723809Y-104071904D01*
X124152380Y-103119523D02*
X124152380Y-103595714D01*
X124628571Y-103643333D01*
X124580952Y-103595714D01*
X124533333Y-103500476D01*
X124533333Y-103262380D01*
X124580952Y-103167142D01*
X124628571Y-103119523D01*
X124723809Y-103071904D01*
X124961904Y-103071904D01*
X125057142Y-103119523D01*
X125104761Y-103167142D01*
X125152380Y-103262380D01*
X125152380Y-103500476D01*
X125104761Y-103595714D01*
X125057142Y-103643333D01*
X127502380Y-104041904D02*
X126978571Y-104041904D01*
X126883333Y-104089523D01*
X126835714Y-104184761D01*
X126835714Y-104375238D01*
X126883333Y-104470476D01*
X127454761Y-104041904D02*
X127502380Y-104137142D01*
X127502380Y-104375238D01*
X127454761Y-104470476D01*
X127359523Y-104518095D01*
X127264285Y-104518095D01*
X127169047Y-104470476D01*
X127121428Y-104375238D01*
X127121428Y-104137142D01*
X127073809Y-104041904D01*
X126835714Y-103137142D02*
X127502380Y-103137142D01*
X126454761Y-103375238D02*
X127169047Y-103613333D01*
X127169047Y-102994285D01*
X130212380Y-104061904D02*
X129688571Y-104061904D01*
X129593333Y-104109523D01*
X129545714Y-104204761D01*
X129545714Y-104395238D01*
X129593333Y-104490476D01*
X130164761Y-104061904D02*
X130212380Y-104157142D01*
X130212380Y-104395238D01*
X130164761Y-104490476D01*
X130069523Y-104538095D01*
X129974285Y-104538095D01*
X129879047Y-104490476D01*
X129831428Y-104395238D01*
X129831428Y-104157142D01*
X129783809Y-104061904D01*
X129212380Y-103680952D02*
X129212380Y-103061904D01*
X129593333Y-103395238D01*
X129593333Y-103252380D01*
X129640952Y-103157142D01*
X129688571Y-103109523D01*
X129783809Y-103061904D01*
X130021904Y-103061904D01*
X130117142Y-103109523D01*
X130164761Y-103157142D01*
X130212380Y-103252380D01*
X130212380Y-103538095D01*
X130164761Y-103633333D01*
X130117142Y-103680952D01*
X132682380Y-104061904D02*
X132158571Y-104061904D01*
X132063333Y-104109523D01*
X132015714Y-104204761D01*
X132015714Y-104395238D01*
X132063333Y-104490476D01*
X132634761Y-104061904D02*
X132682380Y-104157142D01*
X132682380Y-104395238D01*
X132634761Y-104490476D01*
X132539523Y-104538095D01*
X132444285Y-104538095D01*
X132349047Y-104490476D01*
X132301428Y-104395238D01*
X132301428Y-104157142D01*
X132253809Y-104061904D01*
X131777619Y-103633333D02*
X131730000Y-103585714D01*
X131682380Y-103490476D01*
X131682380Y-103252380D01*
X131730000Y-103157142D01*
X131777619Y-103109523D01*
X131872857Y-103061904D01*
X131968095Y-103061904D01*
X132110952Y-103109523D01*
X132682380Y-103680952D01*
X132682380Y-103061904D01*
X135292380Y-103981904D02*
X134768571Y-103981904D01*
X134673333Y-104029523D01*
X134625714Y-104124761D01*
X134625714Y-104315238D01*
X134673333Y-104410476D01*
X135244761Y-103981904D02*
X135292380Y-104077142D01*
X135292380Y-104315238D01*
X135244761Y-104410476D01*
X135149523Y-104458095D01*
X135054285Y-104458095D01*
X134959047Y-104410476D01*
X134911428Y-104315238D01*
X134911428Y-104077142D01*
X134863809Y-103981904D01*
X135292380Y-102981904D02*
X135292380Y-103553333D01*
X135292380Y-103267619D02*
X134292380Y-103267619D01*
X134435238Y-103362857D01*
X134530476Y-103458095D01*
X134578095Y-103553333D01*
X137892380Y-104001904D02*
X137368571Y-104001904D01*
X137273333Y-104049523D01*
X137225714Y-104144761D01*
X137225714Y-104335238D01*
X137273333Y-104430476D01*
X137844761Y-104001904D02*
X137892380Y-104097142D01*
X137892380Y-104335238D01*
X137844761Y-104430476D01*
X137749523Y-104478095D01*
X137654285Y-104478095D01*
X137559047Y-104430476D01*
X137511428Y-104335238D01*
X137511428Y-104097142D01*
X137463809Y-104001904D01*
X136892380Y-103335238D02*
X136892380Y-103240000D01*
X136940000Y-103144761D01*
X136987619Y-103097142D01*
X137082857Y-103049523D01*
X137273333Y-103001904D01*
X137511428Y-103001904D01*
X137701904Y-103049523D01*
X137797142Y-103097142D01*
X137844761Y-103144761D01*
X137892380Y-103240000D01*
X137892380Y-103335238D01*
X137844761Y-103430476D01*
X137797142Y-103478095D01*
X137701904Y-103525714D01*
X137511428Y-103573333D01*
X137273333Y-103573333D01*
X137082857Y-103525714D01*
X136987619Y-103478095D01*
X136940000Y-103430476D01*
X136892380Y-103335238D01*
X145462380Y-78648095D02*
X144462380Y-78648095D01*
X144462380Y-78410000D01*
X144510000Y-78267142D01*
X144605238Y-78171904D01*
X144700476Y-78124285D01*
X144890952Y-78076666D01*
X145033809Y-78076666D01*
X145224285Y-78124285D01*
X145319523Y-78171904D01*
X145414761Y-78267142D01*
X145462380Y-78410000D01*
X145462380Y-78648095D01*
X144462380Y-77457619D02*
X144462380Y-77362380D01*
X144510000Y-77267142D01*
X144557619Y-77219523D01*
X144652857Y-77171904D01*
X144843333Y-77124285D01*
X145081428Y-77124285D01*
X145271904Y-77171904D01*
X145367142Y-77219523D01*
X145414761Y-77267142D01*
X145462380Y-77362380D01*
X145462380Y-77457619D01*
X145414761Y-77552857D01*
X145367142Y-77600476D01*
X145271904Y-77648095D01*
X145081428Y-77695714D01*
X144843333Y-77695714D01*
X144652857Y-77648095D01*
X144557619Y-77600476D01*
X144510000Y-77552857D01*
X144462380Y-77457619D01*
X143151314Y-75287166D02*
X143627504Y-75287166D01*
X143056076Y-75572880D02*
X143389409Y-74572880D01*
X143722742Y-75572880D01*
X144246552Y-74572880D02*
X144341790Y-74572880D01*
X144437028Y-74620500D01*
X144484647Y-74668119D01*
X144532266Y-74763357D01*
X144579885Y-74953833D01*
X144579885Y-75191928D01*
X144532266Y-75382404D01*
X144484647Y-75477642D01*
X144437028Y-75525261D01*
X144341790Y-75572880D01*
X144246552Y-75572880D01*
X144151314Y-75525261D01*
X144103695Y-75477642D01*
X144056076Y-75382404D01*
X144008457Y-75191928D01*
X144008457Y-74953833D01*
X144056076Y-74763357D01*
X144103695Y-74668119D01*
X144151314Y-74620500D01*
X144246552Y-74572880D01*
D11*
X148463357Y-74362571D02*
X147749071Y-74362571D01*
X147677642Y-75076857D01*
X147749071Y-75005428D01*
X147891928Y-74934000D01*
X148249071Y-74934000D01*
X148391928Y-75005428D01*
X148463357Y-75076857D01*
X148534785Y-75219714D01*
X148534785Y-75576857D01*
X148463357Y-75719714D01*
X148391928Y-75791142D01*
X148249071Y-75862571D01*
X147891928Y-75862571D01*
X147749071Y-75791142D01*
X147677642Y-75719714D01*
X149463357Y-74362571D02*
X149606214Y-74362571D01*
X149749071Y-74434000D01*
X149820500Y-74505428D01*
X149891928Y-74648285D01*
X149963357Y-74934000D01*
X149963357Y-75291142D01*
X149891928Y-75576857D01*
X149820500Y-75719714D01*
X149749071Y-75791142D01*
X149606214Y-75862571D01*
X149463357Y-75862571D01*
X149320500Y-75791142D01*
X149249071Y-75719714D01*
X149177642Y-75576857D01*
X149106214Y-75291142D01*
X149106214Y-74934000D01*
X149177642Y-74648285D01*
X149249071Y-74505428D01*
X149320500Y-74434000D01*
X149463357Y-74362571D01*
X150891928Y-74362571D02*
X151034785Y-74362571D01*
X151177642Y-74434000D01*
X151249071Y-74505428D01*
X151320500Y-74648285D01*
X151391928Y-74934000D01*
X151391928Y-75291142D01*
X151320500Y-75576857D01*
X151249071Y-75719714D01*
X151177642Y-75791142D01*
X151034785Y-75862571D01*
X150891928Y-75862571D01*
X150749071Y-75791142D01*
X150677642Y-75719714D01*
X150606214Y-75576857D01*
X150534785Y-75291142D01*
X150534785Y-74934000D01*
X150606214Y-74648285D01*
X150677642Y-74505428D01*
X150749071Y-74434000D01*
X150891928Y-74362571D01*
X152034785Y-75719714D02*
X152106214Y-75791142D01*
X152034785Y-75862571D01*
X151963357Y-75791142D01*
X152034785Y-75719714D01*
X152034785Y-75862571D01*
X153534785Y-75862571D02*
X152677642Y-75862571D01*
X153106214Y-75862571D02*
X153106214Y-74362571D01*
X152963357Y-74576857D01*
X152820500Y-74719714D01*
X152677642Y-74791142D01*
X154034785Y-74362571D02*
X155034785Y-74362571D01*
X154391928Y-75862571D01*
X148149571Y-112755785D02*
X148149571Y-113041500D01*
X148221000Y-113184357D01*
X148292428Y-113255785D01*
X148506714Y-113398642D01*
X148792428Y-113470071D01*
X149363857Y-113470071D01*
X149506714Y-113398642D01*
X149578142Y-113327214D01*
X149649571Y-113184357D01*
X149649571Y-112898642D01*
X149578142Y-112755785D01*
X149506714Y-112684357D01*
X149363857Y-112612928D01*
X149006714Y-112612928D01*
X148863857Y-112684357D01*
X148792428Y-112755785D01*
X148721000Y-112898642D01*
X148721000Y-113184357D01*
X148792428Y-113327214D01*
X148863857Y-113398642D01*
X149006714Y-113470071D01*
X149649571Y-111184357D02*
X149649571Y-112041500D01*
X149649571Y-111612928D02*
X148149571Y-111612928D01*
X148363857Y-111755785D01*
X148506714Y-111898642D01*
X148578142Y-112041500D01*
X148149571Y-110684357D02*
X148149571Y-109684357D01*
X149649571Y-110327214D01*
X149506714Y-109112928D02*
X149578142Y-109041500D01*
X149649571Y-109112928D01*
X149578142Y-109184357D01*
X149506714Y-109112928D01*
X149649571Y-109112928D01*
X149649571Y-107755785D02*
X148863857Y-107755785D01*
X148721000Y-107827214D01*
X148649571Y-107970071D01*
X148649571Y-108255785D01*
X148721000Y-108398642D01*
X149578142Y-107755785D02*
X149649571Y-107898642D01*
X149649571Y-108255785D01*
X149578142Y-108398642D01*
X149435285Y-108470071D01*
X149292428Y-108470071D01*
X149149571Y-108398642D01*
X149078142Y-108255785D01*
X149078142Y-107898642D01*
X149006714Y-107755785D01*
X148149571Y-106755785D02*
X148149571Y-106470071D01*
X148221000Y-106327214D01*
X148363857Y-106184357D01*
X148649571Y-106112928D01*
X149149571Y-106112928D01*
X149435285Y-106184357D01*
X149578142Y-106327214D01*
X149649571Y-106470071D01*
X149649571Y-106755785D01*
X149578142Y-106898642D01*
X149435285Y-107041500D01*
X149149571Y-107112928D01*
X148649571Y-107112928D01*
X148363857Y-107041500D01*
X148221000Y-106898642D01*
X148149571Y-106755785D01*
X145673071Y-112771714D02*
X145673071Y-113057428D01*
X145744500Y-113200285D01*
X145815928Y-113271714D01*
X146030214Y-113414571D01*
X146315928Y-113486000D01*
X146887357Y-113486000D01*
X147030214Y-113414571D01*
X147101642Y-113343142D01*
X147173071Y-113200285D01*
X147173071Y-112914571D01*
X147101642Y-112771714D01*
X147030214Y-112700285D01*
X146887357Y-112628857D01*
X146530214Y-112628857D01*
X146387357Y-112700285D01*
X146315928Y-112771714D01*
X146244500Y-112914571D01*
X146244500Y-113200285D01*
X146315928Y-113343142D01*
X146387357Y-113414571D01*
X146530214Y-113486000D01*
X147173071Y-111200285D02*
X147173071Y-112057428D01*
X147173071Y-111628857D02*
X145673071Y-111628857D01*
X145887357Y-111771714D01*
X146030214Y-111914571D01*
X146101642Y-112057428D01*
X145673071Y-110700285D02*
X145673071Y-109700285D01*
X147173071Y-110343142D01*
X147030214Y-109128857D02*
X147101642Y-109057428D01*
X147173071Y-109128857D01*
X147101642Y-109200285D01*
X147030214Y-109128857D01*
X147173071Y-109128857D01*
X147173071Y-107771714D02*
X146387357Y-107771714D01*
X146244500Y-107843142D01*
X146173071Y-107986000D01*
X146173071Y-108271714D01*
X146244500Y-108414571D01*
X147101642Y-107771714D02*
X147173071Y-107914571D01*
X147173071Y-108271714D01*
X147101642Y-108414571D01*
X146958785Y-108486000D01*
X146815928Y-108486000D01*
X146673071Y-108414571D01*
X146601642Y-108271714D01*
X146601642Y-107914571D01*
X146530214Y-107771714D01*
X147173071Y-107057428D02*
X146173071Y-107057428D01*
X145673071Y-107057428D02*
X145744500Y-107128857D01*
X145815928Y-107057428D01*
X145744500Y-106986000D01*
X145673071Y-107057428D01*
X145815928Y-107057428D01*
X143196571Y-112712142D02*
X143196571Y-113426428D01*
X143910857Y-113497857D01*
X143839428Y-113426428D01*
X143768000Y-113283571D01*
X143768000Y-112926428D01*
X143839428Y-112783571D01*
X143910857Y-112712142D01*
X144053714Y-112640714D01*
X144410857Y-112640714D01*
X144553714Y-112712142D01*
X144625142Y-112783571D01*
X144696571Y-112926428D01*
X144696571Y-113283571D01*
X144625142Y-113426428D01*
X144553714Y-113497857D01*
X144696571Y-111212142D02*
X144696571Y-112069285D01*
X144696571Y-111640714D02*
X143196571Y-111640714D01*
X143410857Y-111783571D01*
X143553714Y-111926428D01*
X143625142Y-112069285D01*
X143196571Y-110712142D02*
X143196571Y-109712142D01*
X144696571Y-110355000D01*
X144553714Y-109140714D02*
X144625142Y-109069285D01*
X144696571Y-109140714D01*
X144625142Y-109212142D01*
X144553714Y-109140714D01*
X144696571Y-109140714D01*
X144696571Y-107640714D02*
X144696571Y-108497857D01*
X144696571Y-108069285D02*
X143196571Y-108069285D01*
X143410857Y-108212142D01*
X143553714Y-108355000D01*
X143625142Y-108497857D01*
X143196571Y-107140714D02*
X143196571Y-106140714D01*
X144696571Y-106783571D01*
X141156571Y-112847071D02*
X142156571Y-112847071D01*
X140585142Y-113204214D02*
X141656571Y-113561357D01*
X141656571Y-112632785D01*
X142156571Y-111275642D02*
X142156571Y-112132785D01*
X142156571Y-111704214D02*
X140656571Y-111704214D01*
X140870857Y-111847071D01*
X141013714Y-111989928D01*
X141085142Y-112132785D01*
X140656571Y-110775642D02*
X140656571Y-109775642D01*
X142156571Y-110418500D01*
X142013714Y-109204214D02*
X142085142Y-109132785D01*
X142156571Y-109204214D01*
X142085142Y-109275642D01*
X142013714Y-109204214D01*
X142156571Y-109204214D01*
X142156571Y-107704214D02*
X142156571Y-108561357D01*
X142156571Y-108132785D02*
X140656571Y-108132785D01*
X140870857Y-108275642D01*
X141013714Y-108418500D01*
X141085142Y-108561357D01*
X140656571Y-107204214D02*
X140656571Y-106204214D01*
X142156571Y-106847071D01*
X138116571Y-113569285D02*
X138116571Y-112640714D01*
X138688000Y-113140714D01*
X138688000Y-112926428D01*
X138759428Y-112783571D01*
X138830857Y-112712142D01*
X138973714Y-112640714D01*
X139330857Y-112640714D01*
X139473714Y-112712142D01*
X139545142Y-112783571D01*
X139616571Y-112926428D01*
X139616571Y-113355000D01*
X139545142Y-113497857D01*
X139473714Y-113569285D01*
X139616571Y-111212142D02*
X139616571Y-112069285D01*
X139616571Y-111640714D02*
X138116571Y-111640714D01*
X138330857Y-111783571D01*
X138473714Y-111926428D01*
X138545142Y-112069285D01*
X138116571Y-110712142D02*
X138116571Y-109712142D01*
X139616571Y-110355000D01*
X139473714Y-109140714D02*
X139545142Y-109069285D01*
X139616571Y-109140714D01*
X139545142Y-109212142D01*
X139473714Y-109140714D01*
X139616571Y-109140714D01*
X139616571Y-107640714D02*
X139616571Y-108497857D01*
X139616571Y-108069285D02*
X138116571Y-108069285D01*
X138330857Y-108212142D01*
X138473714Y-108355000D01*
X138545142Y-108497857D01*
X138116571Y-107140714D02*
X138116571Y-106140714D01*
X139616571Y-106783571D01*
X135592428Y-113497857D02*
X135521000Y-113426428D01*
X135449571Y-113283571D01*
X135449571Y-112926428D01*
X135521000Y-112783571D01*
X135592428Y-112712142D01*
X135735285Y-112640714D01*
X135878142Y-112640714D01*
X136092428Y-112712142D01*
X136949571Y-113569285D01*
X136949571Y-112640714D01*
X136949571Y-111212142D02*
X136949571Y-112069285D01*
X136949571Y-111640714D02*
X135449571Y-111640714D01*
X135663857Y-111783571D01*
X135806714Y-111926428D01*
X135878142Y-112069285D01*
X135449571Y-110712142D02*
X135449571Y-109712142D01*
X136949571Y-110355000D01*
X136806714Y-109140714D02*
X136878142Y-109069285D01*
X136949571Y-109140714D01*
X136878142Y-109212142D01*
X136806714Y-109140714D01*
X136949571Y-109140714D01*
X136949571Y-107640714D02*
X136949571Y-108497857D01*
X136949571Y-108069285D02*
X135449571Y-108069285D01*
X135663857Y-108212142D01*
X135806714Y-108355000D01*
X135878142Y-108497857D01*
X135449571Y-107140714D02*
X135449571Y-106140714D01*
X136949571Y-106783571D01*
X134346071Y-112676428D02*
X134346071Y-113533571D01*
X134346071Y-113105000D02*
X132846071Y-113105000D01*
X133060357Y-113247857D01*
X133203214Y-113390714D01*
X133274642Y-113533571D01*
X134346071Y-111247857D02*
X134346071Y-112105000D01*
X134346071Y-111676428D02*
X132846071Y-111676428D01*
X133060357Y-111819285D01*
X133203214Y-111962142D01*
X133274642Y-112105000D01*
X132846071Y-110747857D02*
X132846071Y-109747857D01*
X134346071Y-110390714D01*
X134203214Y-109176428D02*
X134274642Y-109105000D01*
X134346071Y-109176428D01*
X134274642Y-109247857D01*
X134203214Y-109176428D01*
X134346071Y-109176428D01*
X134346071Y-107819285D02*
X133560357Y-107819285D01*
X133417500Y-107890714D01*
X133346071Y-108033571D01*
X133346071Y-108319285D01*
X133417500Y-108462142D01*
X134274642Y-107819285D02*
X134346071Y-107962142D01*
X134346071Y-108319285D01*
X134274642Y-108462142D01*
X134131785Y-108533571D01*
X133988928Y-108533571D01*
X133846071Y-108462142D01*
X133774642Y-108319285D01*
X133774642Y-107962142D01*
X133703214Y-107819285D01*
X132846071Y-106819285D02*
X132846071Y-106533571D01*
X132917500Y-106390714D01*
X133060357Y-106247857D01*
X133346071Y-106176428D01*
X133846071Y-106176428D01*
X134131785Y-106247857D01*
X134274642Y-106390714D01*
X134346071Y-106533571D01*
X134346071Y-106819285D01*
X134274642Y-106962142D01*
X134131785Y-107105000D01*
X133846071Y-107176428D01*
X133346071Y-107176428D01*
X133060357Y-107105000D01*
X132917500Y-106962142D01*
X132846071Y-106819285D01*
X131869571Y-112692357D02*
X131869571Y-113549500D01*
X131869571Y-113120928D02*
X130369571Y-113120928D01*
X130583857Y-113263785D01*
X130726714Y-113406642D01*
X130798142Y-113549500D01*
X131869571Y-111263785D02*
X131869571Y-112120928D01*
X131869571Y-111692357D02*
X130369571Y-111692357D01*
X130583857Y-111835214D01*
X130726714Y-111978071D01*
X130798142Y-112120928D01*
X130369571Y-110763785D02*
X130369571Y-109763785D01*
X131869571Y-110406642D01*
X131726714Y-109192357D02*
X131798142Y-109120928D01*
X131869571Y-109192357D01*
X131798142Y-109263785D01*
X131726714Y-109192357D01*
X131869571Y-109192357D01*
X131869571Y-107835214D02*
X131083857Y-107835214D01*
X130941000Y-107906642D01*
X130869571Y-108049500D01*
X130869571Y-108335214D01*
X130941000Y-108478071D01*
X131798142Y-107835214D02*
X131869571Y-107978071D01*
X131869571Y-108335214D01*
X131798142Y-108478071D01*
X131655285Y-108549500D01*
X131512428Y-108549500D01*
X131369571Y-108478071D01*
X131298142Y-108335214D01*
X131298142Y-107978071D01*
X131226714Y-107835214D01*
X131869571Y-107120928D02*
X130869571Y-107120928D01*
X130369571Y-107120928D02*
X130441000Y-107192357D01*
X130512428Y-107120928D01*
X130441000Y-107049500D01*
X130369571Y-107120928D01*
X130512428Y-107120928D01*
X127829571Y-113124928D02*
X127829571Y-112982071D01*
X127901000Y-112839214D01*
X127972428Y-112767785D01*
X128115285Y-112696357D01*
X128401000Y-112624928D01*
X128758142Y-112624928D01*
X129043857Y-112696357D01*
X129186714Y-112767785D01*
X129258142Y-112839214D01*
X129329571Y-112982071D01*
X129329571Y-113124928D01*
X129258142Y-113267785D01*
X129186714Y-113339214D01*
X129043857Y-113410642D01*
X128758142Y-113482071D01*
X128401000Y-113482071D01*
X128115285Y-113410642D01*
X127972428Y-113339214D01*
X127901000Y-113267785D01*
X127829571Y-113124928D01*
X127829571Y-111696357D02*
X127829571Y-111553500D01*
X127901000Y-111410642D01*
X127972428Y-111339214D01*
X128115285Y-111267785D01*
X128401000Y-111196357D01*
X128758142Y-111196357D01*
X129043857Y-111267785D01*
X129186714Y-111339214D01*
X129258142Y-111410642D01*
X129329571Y-111553500D01*
X129329571Y-111696357D01*
X129258142Y-111839214D01*
X129186714Y-111910642D01*
X129043857Y-111982071D01*
X128758142Y-112053500D01*
X128401000Y-112053500D01*
X128115285Y-111982071D01*
X127972428Y-111910642D01*
X127901000Y-111839214D01*
X127829571Y-111696357D01*
X128472428Y-110339214D02*
X128401000Y-110482071D01*
X128329571Y-110553500D01*
X128186714Y-110624928D01*
X128115285Y-110624928D01*
X127972428Y-110553500D01*
X127901000Y-110482071D01*
X127829571Y-110339214D01*
X127829571Y-110053500D01*
X127901000Y-109910642D01*
X127972428Y-109839214D01*
X128115285Y-109767785D01*
X128186714Y-109767785D01*
X128329571Y-109839214D01*
X128401000Y-109910642D01*
X128472428Y-110053500D01*
X128472428Y-110339214D01*
X128543857Y-110482071D01*
X128615285Y-110553500D01*
X128758142Y-110624928D01*
X129043857Y-110624928D01*
X129186714Y-110553500D01*
X129258142Y-110482071D01*
X129329571Y-110339214D01*
X129329571Y-110053500D01*
X129258142Y-109910642D01*
X129186714Y-109839214D01*
X129043857Y-109767785D01*
X128758142Y-109767785D01*
X128615285Y-109839214D01*
X128543857Y-109910642D01*
X128472428Y-110053500D01*
X129186714Y-109124928D02*
X129258142Y-109053500D01*
X129329571Y-109124928D01*
X129258142Y-109196357D01*
X129186714Y-109124928D01*
X129329571Y-109124928D01*
X129329571Y-107624928D02*
X129329571Y-108482071D01*
X129329571Y-108053500D02*
X127829571Y-108053500D01*
X128043857Y-108196357D01*
X128186714Y-108339214D01*
X128258142Y-108482071D01*
X125289571Y-113124928D02*
X125289571Y-112982071D01*
X125361000Y-112839214D01*
X125432428Y-112767785D01*
X125575285Y-112696357D01*
X125861000Y-112624928D01*
X126218142Y-112624928D01*
X126503857Y-112696357D01*
X126646714Y-112767785D01*
X126718142Y-112839214D01*
X126789571Y-112982071D01*
X126789571Y-113124928D01*
X126718142Y-113267785D01*
X126646714Y-113339214D01*
X126503857Y-113410642D01*
X126218142Y-113482071D01*
X125861000Y-113482071D01*
X125575285Y-113410642D01*
X125432428Y-113339214D01*
X125361000Y-113267785D01*
X125289571Y-113124928D01*
X125289571Y-111696357D02*
X125289571Y-111553500D01*
X125361000Y-111410642D01*
X125432428Y-111339214D01*
X125575285Y-111267785D01*
X125861000Y-111196357D01*
X126218142Y-111196357D01*
X126503857Y-111267785D01*
X126646714Y-111339214D01*
X126718142Y-111410642D01*
X126789571Y-111553500D01*
X126789571Y-111696357D01*
X126718142Y-111839214D01*
X126646714Y-111910642D01*
X126503857Y-111982071D01*
X126218142Y-112053500D01*
X125861000Y-112053500D01*
X125575285Y-111982071D01*
X125432428Y-111910642D01*
X125361000Y-111839214D01*
X125289571Y-111696357D01*
X125932428Y-110339214D02*
X125861000Y-110482071D01*
X125789571Y-110553500D01*
X125646714Y-110624928D01*
X125575285Y-110624928D01*
X125432428Y-110553500D01*
X125361000Y-110482071D01*
X125289571Y-110339214D01*
X125289571Y-110053500D01*
X125361000Y-109910642D01*
X125432428Y-109839214D01*
X125575285Y-109767785D01*
X125646714Y-109767785D01*
X125789571Y-109839214D01*
X125861000Y-109910642D01*
X125932428Y-110053500D01*
X125932428Y-110339214D01*
X126003857Y-110482071D01*
X126075285Y-110553500D01*
X126218142Y-110624928D01*
X126503857Y-110624928D01*
X126646714Y-110553500D01*
X126718142Y-110482071D01*
X126789571Y-110339214D01*
X126789571Y-110053500D01*
X126718142Y-109910642D01*
X126646714Y-109839214D01*
X126503857Y-109767785D01*
X126218142Y-109767785D01*
X126075285Y-109839214D01*
X126003857Y-109910642D01*
X125932428Y-110053500D01*
X126646714Y-109124928D02*
X126718142Y-109053500D01*
X126789571Y-109124928D01*
X126718142Y-109196357D01*
X126646714Y-109124928D01*
X126789571Y-109124928D01*
X125289571Y-108553500D02*
X125289571Y-107624928D01*
X125861000Y-108124928D01*
X125861000Y-107910642D01*
X125932428Y-107767785D01*
X126003857Y-107696357D01*
X126146714Y-107624928D01*
X126503857Y-107624928D01*
X126646714Y-107696357D01*
X126718142Y-107767785D01*
X126789571Y-107910642D01*
X126789571Y-108339214D01*
X126718142Y-108482071D01*
X126646714Y-108553500D01*
X122749571Y-113124928D02*
X122749571Y-112982071D01*
X122821000Y-112839214D01*
X122892428Y-112767785D01*
X123035285Y-112696357D01*
X123321000Y-112624928D01*
X123678142Y-112624928D01*
X123963857Y-112696357D01*
X124106714Y-112767785D01*
X124178142Y-112839214D01*
X124249571Y-112982071D01*
X124249571Y-113124928D01*
X124178142Y-113267785D01*
X124106714Y-113339214D01*
X123963857Y-113410642D01*
X123678142Y-113482071D01*
X123321000Y-113482071D01*
X123035285Y-113410642D01*
X122892428Y-113339214D01*
X122821000Y-113267785D01*
X122749571Y-113124928D01*
X122749571Y-111696357D02*
X122749571Y-111553500D01*
X122821000Y-111410642D01*
X122892428Y-111339214D01*
X123035285Y-111267785D01*
X123321000Y-111196357D01*
X123678142Y-111196357D01*
X123963857Y-111267785D01*
X124106714Y-111339214D01*
X124178142Y-111410642D01*
X124249571Y-111553500D01*
X124249571Y-111696357D01*
X124178142Y-111839214D01*
X124106714Y-111910642D01*
X123963857Y-111982071D01*
X123678142Y-112053500D01*
X123321000Y-112053500D01*
X123035285Y-111982071D01*
X122892428Y-111910642D01*
X122821000Y-111839214D01*
X122749571Y-111696357D01*
X123392428Y-110339214D02*
X123321000Y-110482071D01*
X123249571Y-110553500D01*
X123106714Y-110624928D01*
X123035285Y-110624928D01*
X122892428Y-110553500D01*
X122821000Y-110482071D01*
X122749571Y-110339214D01*
X122749571Y-110053500D01*
X122821000Y-109910642D01*
X122892428Y-109839214D01*
X123035285Y-109767785D01*
X123106714Y-109767785D01*
X123249571Y-109839214D01*
X123321000Y-109910642D01*
X123392428Y-110053500D01*
X123392428Y-110339214D01*
X123463857Y-110482071D01*
X123535285Y-110553500D01*
X123678142Y-110624928D01*
X123963857Y-110624928D01*
X124106714Y-110553500D01*
X124178142Y-110482071D01*
X124249571Y-110339214D01*
X124249571Y-110053500D01*
X124178142Y-109910642D01*
X124106714Y-109839214D01*
X123963857Y-109767785D01*
X123678142Y-109767785D01*
X123535285Y-109839214D01*
X123463857Y-109910642D01*
X123392428Y-110053500D01*
X124106714Y-109124928D02*
X124178142Y-109053500D01*
X124249571Y-109124928D01*
X124178142Y-109196357D01*
X124106714Y-109124928D01*
X124249571Y-109124928D01*
X122749571Y-107696357D02*
X122749571Y-108410642D01*
X123463857Y-108482071D01*
X123392428Y-108410642D01*
X123321000Y-108267785D01*
X123321000Y-107910642D01*
X123392428Y-107767785D01*
X123463857Y-107696357D01*
X123606714Y-107624928D01*
X123963857Y-107624928D01*
X124106714Y-107696357D01*
X124178142Y-107767785D01*
X124249571Y-107910642D01*
X124249571Y-108267785D01*
X124178142Y-108410642D01*
X124106714Y-108482071D01*
X120209571Y-113140714D02*
X120209571Y-112997857D01*
X120281000Y-112855000D01*
X120352428Y-112783571D01*
X120495285Y-112712142D01*
X120781000Y-112640714D01*
X121138142Y-112640714D01*
X121423857Y-112712142D01*
X121566714Y-112783571D01*
X121638142Y-112855000D01*
X121709571Y-112997857D01*
X121709571Y-113140714D01*
X121638142Y-113283571D01*
X121566714Y-113355000D01*
X121423857Y-113426428D01*
X121138142Y-113497857D01*
X120781000Y-113497857D01*
X120495285Y-113426428D01*
X120352428Y-113355000D01*
X120281000Y-113283571D01*
X120209571Y-113140714D01*
X120209571Y-111712142D02*
X120209571Y-111569285D01*
X120281000Y-111426428D01*
X120352428Y-111355000D01*
X120495285Y-111283571D01*
X120781000Y-111212142D01*
X121138142Y-111212142D01*
X121423857Y-111283571D01*
X121566714Y-111355000D01*
X121638142Y-111426428D01*
X121709571Y-111569285D01*
X121709571Y-111712142D01*
X121638142Y-111855000D01*
X121566714Y-111926428D01*
X121423857Y-111997857D01*
X121138142Y-112069285D01*
X120781000Y-112069285D01*
X120495285Y-111997857D01*
X120352428Y-111926428D01*
X120281000Y-111855000D01*
X120209571Y-111712142D01*
X120852428Y-110355000D02*
X120781000Y-110497857D01*
X120709571Y-110569285D01*
X120566714Y-110640714D01*
X120495285Y-110640714D01*
X120352428Y-110569285D01*
X120281000Y-110497857D01*
X120209571Y-110355000D01*
X120209571Y-110069285D01*
X120281000Y-109926428D01*
X120352428Y-109855000D01*
X120495285Y-109783571D01*
X120566714Y-109783571D01*
X120709571Y-109855000D01*
X120781000Y-109926428D01*
X120852428Y-110069285D01*
X120852428Y-110355000D01*
X120923857Y-110497857D01*
X120995285Y-110569285D01*
X121138142Y-110640714D01*
X121423857Y-110640714D01*
X121566714Y-110569285D01*
X121638142Y-110497857D01*
X121709571Y-110355000D01*
X121709571Y-110069285D01*
X121638142Y-109926428D01*
X121566714Y-109855000D01*
X121423857Y-109783571D01*
X121138142Y-109783571D01*
X120995285Y-109855000D01*
X120923857Y-109926428D01*
X120852428Y-110069285D01*
X121566714Y-109140714D02*
X121638142Y-109069285D01*
X121709571Y-109140714D01*
X121638142Y-109212142D01*
X121566714Y-109140714D01*
X121709571Y-109140714D01*
X121709571Y-107640714D02*
X121709571Y-108497857D01*
X121709571Y-108069285D02*
X120209571Y-108069285D01*
X120423857Y-108212142D01*
X120566714Y-108355000D01*
X120638142Y-108497857D01*
X120209571Y-107140714D02*
X120209571Y-106140714D01*
X121709571Y-106783571D01*
X117606071Y-113077214D02*
X117606071Y-112934357D01*
X117677500Y-112791500D01*
X117748928Y-112720071D01*
X117891785Y-112648642D01*
X118177500Y-112577214D01*
X118534642Y-112577214D01*
X118820357Y-112648642D01*
X118963214Y-112720071D01*
X119034642Y-112791500D01*
X119106071Y-112934357D01*
X119106071Y-113077214D01*
X119034642Y-113220071D01*
X118963214Y-113291500D01*
X118820357Y-113362928D01*
X118534642Y-113434357D01*
X118177500Y-113434357D01*
X117891785Y-113362928D01*
X117748928Y-113291500D01*
X117677500Y-113220071D01*
X117606071Y-113077214D01*
X117606071Y-111648642D02*
X117606071Y-111505785D01*
X117677500Y-111362928D01*
X117748928Y-111291500D01*
X117891785Y-111220071D01*
X118177500Y-111148642D01*
X118534642Y-111148642D01*
X118820357Y-111220071D01*
X118963214Y-111291500D01*
X119034642Y-111362928D01*
X119106071Y-111505785D01*
X119106071Y-111648642D01*
X119034642Y-111791500D01*
X118963214Y-111862928D01*
X118820357Y-111934357D01*
X118534642Y-112005785D01*
X118177500Y-112005785D01*
X117891785Y-111934357D01*
X117748928Y-111862928D01*
X117677500Y-111791500D01*
X117606071Y-111648642D01*
X119106071Y-109720071D02*
X119106071Y-110577214D01*
X119106071Y-110148642D02*
X117606071Y-110148642D01*
X117820357Y-110291500D01*
X117963214Y-110434357D01*
X118034642Y-110577214D01*
X118963214Y-109077214D02*
X119034642Y-109005785D01*
X119106071Y-109077214D01*
X119034642Y-109148642D01*
X118963214Y-109077214D01*
X119106071Y-109077214D01*
X119106071Y-107577214D02*
X119106071Y-108434357D01*
X119106071Y-108005785D02*
X117606071Y-108005785D01*
X117820357Y-108148642D01*
X117963214Y-108291500D01*
X118034642Y-108434357D01*
X117606071Y-107077214D02*
X117606071Y-106077214D01*
X119106071Y-106720071D01*
X115193071Y-113124928D02*
X115193071Y-112982071D01*
X115264500Y-112839214D01*
X115335928Y-112767785D01*
X115478785Y-112696357D01*
X115764500Y-112624928D01*
X116121642Y-112624928D01*
X116407357Y-112696357D01*
X116550214Y-112767785D01*
X116621642Y-112839214D01*
X116693071Y-112982071D01*
X116693071Y-113124928D01*
X116621642Y-113267785D01*
X116550214Y-113339214D01*
X116407357Y-113410642D01*
X116121642Y-113482071D01*
X115764500Y-113482071D01*
X115478785Y-113410642D01*
X115335928Y-113339214D01*
X115264500Y-113267785D01*
X115193071Y-113124928D01*
X115193071Y-111696357D02*
X115193071Y-111553500D01*
X115264500Y-111410642D01*
X115335928Y-111339214D01*
X115478785Y-111267785D01*
X115764500Y-111196357D01*
X116121642Y-111196357D01*
X116407357Y-111267785D01*
X116550214Y-111339214D01*
X116621642Y-111410642D01*
X116693071Y-111553500D01*
X116693071Y-111696357D01*
X116621642Y-111839214D01*
X116550214Y-111910642D01*
X116407357Y-111982071D01*
X116121642Y-112053500D01*
X115764500Y-112053500D01*
X115478785Y-111982071D01*
X115335928Y-111910642D01*
X115264500Y-111839214D01*
X115193071Y-111696357D01*
X116693071Y-109767785D02*
X116693071Y-110624928D01*
X116693071Y-110196357D02*
X115193071Y-110196357D01*
X115407357Y-110339214D01*
X115550214Y-110482071D01*
X115621642Y-110624928D01*
X116550214Y-109124928D02*
X116621642Y-109053500D01*
X116693071Y-109124928D01*
X116621642Y-109196357D01*
X116550214Y-109124928D01*
X116693071Y-109124928D01*
X116693071Y-107624928D02*
X116693071Y-108482071D01*
X116693071Y-108053500D02*
X115193071Y-108053500D01*
X115407357Y-108196357D01*
X115550214Y-108339214D01*
X115621642Y-108482071D01*
X114089571Y-112640714D02*
X114089571Y-113497857D01*
X114089571Y-113069285D02*
X112589571Y-113069285D01*
X112803857Y-113212142D01*
X112946714Y-113355000D01*
X113018142Y-113497857D01*
X112589571Y-111712142D02*
X112589571Y-111569285D01*
X112661000Y-111426428D01*
X112732428Y-111355000D01*
X112875285Y-111283571D01*
X113161000Y-111212142D01*
X113518142Y-111212142D01*
X113803857Y-111283571D01*
X113946714Y-111355000D01*
X114018142Y-111426428D01*
X114089571Y-111569285D01*
X114089571Y-111712142D01*
X114018142Y-111855000D01*
X113946714Y-111926428D01*
X113803857Y-111997857D01*
X113518142Y-112069285D01*
X113161000Y-112069285D01*
X112875285Y-111997857D01*
X112732428Y-111926428D01*
X112661000Y-111855000D01*
X112589571Y-111712142D01*
X112589571Y-110283571D02*
X112589571Y-110140714D01*
X112661000Y-109997857D01*
X112732428Y-109926428D01*
X112875285Y-109855000D01*
X113161000Y-109783571D01*
X113518142Y-109783571D01*
X113803857Y-109855000D01*
X113946714Y-109926428D01*
X114018142Y-109997857D01*
X114089571Y-110140714D01*
X114089571Y-110283571D01*
X114018142Y-110426428D01*
X113946714Y-110497857D01*
X113803857Y-110569285D01*
X113518142Y-110640714D01*
X113161000Y-110640714D01*
X112875285Y-110569285D01*
X112732428Y-110497857D01*
X112661000Y-110426428D01*
X112589571Y-110283571D01*
X113946714Y-109140714D02*
X114018142Y-109069285D01*
X114089571Y-109140714D01*
X114018142Y-109212142D01*
X113946714Y-109140714D01*
X114089571Y-109140714D01*
X114089571Y-107640714D02*
X114089571Y-108497857D01*
X114089571Y-108069285D02*
X112589571Y-108069285D01*
X112803857Y-108212142D01*
X112946714Y-108355000D01*
X113018142Y-108497857D01*
X112589571Y-107140714D02*
X112589571Y-106140714D01*
X114089571Y-106783571D01*
X107446071Y-113617000D02*
X107446071Y-112688428D01*
X108017500Y-113188428D01*
X108017500Y-112974142D01*
X108088928Y-112831285D01*
X108160357Y-112759857D01*
X108303214Y-112688428D01*
X108660357Y-112688428D01*
X108803214Y-112759857D01*
X108874642Y-112831285D01*
X108946071Y-112974142D01*
X108946071Y-113402714D01*
X108874642Y-113545571D01*
X108803214Y-113617000D01*
X107446071Y-111759857D02*
X107446071Y-111617000D01*
X107517500Y-111474142D01*
X107588928Y-111402714D01*
X107731785Y-111331285D01*
X108017500Y-111259857D01*
X108374642Y-111259857D01*
X108660357Y-111331285D01*
X108803214Y-111402714D01*
X108874642Y-111474142D01*
X108946071Y-111617000D01*
X108946071Y-111759857D01*
X108874642Y-111902714D01*
X108803214Y-111974142D01*
X108660357Y-112045571D01*
X108374642Y-112117000D01*
X108017500Y-112117000D01*
X107731785Y-112045571D01*
X107588928Y-111974142D01*
X107517500Y-111902714D01*
X107446071Y-111759857D01*
X107446071Y-110331285D02*
X107446071Y-110188428D01*
X107517500Y-110045571D01*
X107588928Y-109974142D01*
X107731785Y-109902714D01*
X108017500Y-109831285D01*
X108374642Y-109831285D01*
X108660357Y-109902714D01*
X108803214Y-109974142D01*
X108874642Y-110045571D01*
X108946071Y-110188428D01*
X108946071Y-110331285D01*
X108874642Y-110474142D01*
X108803214Y-110545571D01*
X108660357Y-110617000D01*
X108374642Y-110688428D01*
X108017500Y-110688428D01*
X107731785Y-110617000D01*
X107588928Y-110545571D01*
X107517500Y-110474142D01*
X107446071Y-110331285D01*
X108803214Y-109188428D02*
X108874642Y-109117000D01*
X108946071Y-109188428D01*
X108874642Y-109259857D01*
X108803214Y-109188428D01*
X108946071Y-109188428D01*
X108946071Y-107688428D02*
X108946071Y-108545571D01*
X108946071Y-108117000D02*
X107446071Y-108117000D01*
X107660357Y-108259857D01*
X107803214Y-108402714D01*
X107874642Y-108545571D01*
X104779071Y-113505785D02*
X104779071Y-112577214D01*
X105350500Y-113077214D01*
X105350500Y-112862928D01*
X105421928Y-112720071D01*
X105493357Y-112648642D01*
X105636214Y-112577214D01*
X105993357Y-112577214D01*
X106136214Y-112648642D01*
X106207642Y-112720071D01*
X106279071Y-112862928D01*
X106279071Y-113291500D01*
X106207642Y-113434357D01*
X106136214Y-113505785D01*
X104779071Y-111648642D02*
X104779071Y-111505785D01*
X104850500Y-111362928D01*
X104921928Y-111291500D01*
X105064785Y-111220071D01*
X105350500Y-111148642D01*
X105707642Y-111148642D01*
X105993357Y-111220071D01*
X106136214Y-111291500D01*
X106207642Y-111362928D01*
X106279071Y-111505785D01*
X106279071Y-111648642D01*
X106207642Y-111791500D01*
X106136214Y-111862928D01*
X105993357Y-111934357D01*
X105707642Y-112005785D01*
X105350500Y-112005785D01*
X105064785Y-111934357D01*
X104921928Y-111862928D01*
X104850500Y-111791500D01*
X104779071Y-111648642D01*
X104779071Y-110220071D02*
X104779071Y-110077214D01*
X104850500Y-109934357D01*
X104921928Y-109862928D01*
X105064785Y-109791500D01*
X105350500Y-109720071D01*
X105707642Y-109720071D01*
X105993357Y-109791500D01*
X106136214Y-109862928D01*
X106207642Y-109934357D01*
X106279071Y-110077214D01*
X106279071Y-110220071D01*
X106207642Y-110362928D01*
X106136214Y-110434357D01*
X105993357Y-110505785D01*
X105707642Y-110577214D01*
X105350500Y-110577214D01*
X105064785Y-110505785D01*
X104921928Y-110434357D01*
X104850500Y-110362928D01*
X104779071Y-110220071D01*
X106136214Y-109077214D02*
X106207642Y-109005785D01*
X106279071Y-109077214D01*
X106207642Y-109148642D01*
X106136214Y-109077214D01*
X106279071Y-109077214D01*
X106279071Y-107577214D02*
X106279071Y-108434357D01*
X106279071Y-108005785D02*
X104779071Y-108005785D01*
X104993357Y-108148642D01*
X105136214Y-108291500D01*
X105207642Y-108434357D01*
X104779071Y-107077214D02*
X104779071Y-106077214D01*
X106279071Y-106720071D01*
D12*
X150865714Y-115482380D02*
X151532380Y-115482380D01*
X151103809Y-116482380D01*
X152437142Y-116482380D02*
X151865714Y-116482380D01*
X152151428Y-116482380D02*
X152151428Y-115482380D01*
X152056190Y-115625238D01*
X151960952Y-115720476D01*
X151865714Y-115768095D01*
X152770476Y-115482380D02*
X153437142Y-115482380D01*
X153008571Y-116482380D01*
X153818095Y-116387142D02*
X153865714Y-116434761D01*
X153818095Y-116482380D01*
X153770476Y-116434761D01*
X153818095Y-116387142D01*
X153818095Y-116482380D01*
X154722857Y-116482380D02*
X154722857Y-115958571D01*
X154675238Y-115863333D01*
X154580000Y-115815714D01*
X154389523Y-115815714D01*
X154294285Y-115863333D01*
X154722857Y-116434761D02*
X154627619Y-116482380D01*
X154389523Y-116482380D01*
X154294285Y-116434761D01*
X154246666Y-116339523D01*
X154246666Y-116244285D01*
X154294285Y-116149047D01*
X154389523Y-116101428D01*
X154627619Y-116101428D01*
X154722857Y-116053809D01*
X155199047Y-116482380D02*
X155199047Y-115815714D01*
X155199047Y-115482380D02*
X155151428Y-115530000D01*
X155199047Y-115577619D01*
X155246666Y-115530000D01*
X155199047Y-115482380D01*
X155199047Y-115577619D01*
X100918095Y-110100000D02*
X100822857Y-110052380D01*
X100680000Y-110052380D01*
X100537142Y-110100000D01*
X100441904Y-110195238D01*
X100394285Y-110290476D01*
X100346666Y-110480952D01*
X100346666Y-110623809D01*
X100394285Y-110814285D01*
X100441904Y-110909523D01*
X100537142Y-111004761D01*
X100680000Y-111052380D01*
X100775238Y-111052380D01*
X100918095Y-111004761D01*
X100965714Y-110957142D01*
X100965714Y-110623809D01*
X100775238Y-110623809D01*
X101394285Y-111052380D02*
X101394285Y-110052380D01*
X101965714Y-111052380D01*
X101965714Y-110052380D01*
X102441904Y-111052380D02*
X102441904Y-110052380D01*
X102680000Y-110052380D01*
X102822857Y-110100000D01*
X102918095Y-110195238D01*
X102965714Y-110290476D01*
X103013333Y-110480952D01*
X103013333Y-110623809D01*
X102965714Y-110814285D01*
X102918095Y-110909523D01*
X102822857Y-111004761D01*
X102680000Y-111052380D01*
X102441904Y-111052380D01*
X100830476Y-113672380D02*
X100259047Y-113672380D01*
X100544761Y-113672380D02*
X100544761Y-112672380D01*
X100449523Y-112815238D01*
X100354285Y-112910476D01*
X100259047Y-112958095D01*
X101259047Y-113577142D02*
X101306666Y-113624761D01*
X101259047Y-113672380D01*
X101211428Y-113624761D01*
X101259047Y-113577142D01*
X101259047Y-113672380D01*
X101878095Y-113100952D02*
X101782857Y-113053333D01*
X101735238Y-113005714D01*
X101687619Y-112910476D01*
X101687619Y-112862857D01*
X101735238Y-112767619D01*
X101782857Y-112720000D01*
X101878095Y-112672380D01*
X102068571Y-112672380D01*
X102163809Y-112720000D01*
X102211428Y-112767619D01*
X102259047Y-112862857D01*
X102259047Y-112910476D01*
X102211428Y-113005714D01*
X102163809Y-113053333D01*
X102068571Y-113100952D01*
X101878095Y-113100952D01*
X101782857Y-113148571D01*
X101735238Y-113196190D01*
X101687619Y-113291428D01*
X101687619Y-113481904D01*
X101735238Y-113577142D01*
X101782857Y-113624761D01*
X101878095Y-113672380D01*
X102068571Y-113672380D01*
X102163809Y-113624761D01*
X102211428Y-113577142D01*
X102259047Y-113481904D01*
X102259047Y-113291428D01*
X102211428Y-113196190D01*
X102163809Y-113148571D01*
X102068571Y-113100952D01*
X102592380Y-113005714D02*
X102830476Y-113672380D01*
X103068571Y-113005714D01*
D11*
X98578571Y-108400000D02*
X100078571Y-107900000D01*
X98578571Y-107400000D01*
X99935714Y-106042857D02*
X100007142Y-106114285D01*
X100078571Y-106328571D01*
X100078571Y-106471428D01*
X100007142Y-106685714D01*
X99864285Y-106828571D01*
X99721428Y-106900000D01*
X99435714Y-106971428D01*
X99221428Y-106971428D01*
X98935714Y-106900000D01*
X98792857Y-106828571D01*
X98650000Y-106685714D01*
X98578571Y-106471428D01*
X98578571Y-106328571D01*
X98650000Y-106114285D01*
X98721428Y-106042857D01*
X99935714Y-104542857D02*
X100007142Y-104614285D01*
X100078571Y-104828571D01*
X100078571Y-104971428D01*
X100007142Y-105185714D01*
X99864285Y-105328571D01*
X99721428Y-105400000D01*
X99435714Y-105471428D01*
X99221428Y-105471428D01*
X98935714Y-105400000D01*
X98792857Y-105328571D01*
X98650000Y-105185714D01*
X98578571Y-104971428D01*
X98578571Y-104828571D01*
X98650000Y-104614285D01*
X98721428Y-104542857D01*
X93228571Y-108192857D02*
X94442857Y-108192857D01*
X94585714Y-108121428D01*
X94657142Y-108050000D01*
X94728571Y-107907142D01*
X94728571Y-107621428D01*
X94657142Y-107478571D01*
X94585714Y-107407142D01*
X94442857Y-107335714D01*
X93228571Y-107335714D01*
X94657142Y-106692857D02*
X94728571Y-106478571D01*
X94728571Y-106121428D01*
X94657142Y-105978571D01*
X94585714Y-105907142D01*
X94442857Y-105835714D01*
X94300000Y-105835714D01*
X94157142Y-105907142D01*
X94085714Y-105978571D01*
X94014285Y-106121428D01*
X93942857Y-106407142D01*
X93871428Y-106550000D01*
X93800000Y-106621428D01*
X93657142Y-106692857D01*
X93514285Y-106692857D01*
X93371428Y-106621428D01*
X93300000Y-106550000D01*
X93228571Y-106407142D01*
X93228571Y-106050000D01*
X93300000Y-105835714D01*
X93942857Y-104692857D02*
X94014285Y-104478571D01*
X94085714Y-104407142D01*
X94228571Y-104335714D01*
X94442857Y-104335714D01*
X94585714Y-104407142D01*
X94657142Y-104478571D01*
X94728571Y-104621428D01*
X94728571Y-105192857D01*
X93228571Y-105192857D01*
X93228571Y-104692857D01*
X93300000Y-104550000D01*
X93371428Y-104478571D01*
X93514285Y-104407142D01*
X93657142Y-104407142D01*
X93800000Y-104478571D01*
X93871428Y-104550000D01*
X93942857Y-104692857D01*
X93942857Y-105192857D01*
X110192428Y-113497857D02*
X110121000Y-113426428D01*
X110049571Y-113283571D01*
X110049571Y-112926428D01*
X110121000Y-112783571D01*
X110192428Y-112712142D01*
X110335285Y-112640714D01*
X110478142Y-112640714D01*
X110692428Y-112712142D01*
X111549571Y-113569285D01*
X111549571Y-112640714D01*
X110049571Y-111712142D02*
X110049571Y-111569285D01*
X110121000Y-111426428D01*
X110192428Y-111355000D01*
X110335285Y-111283571D01*
X110621000Y-111212142D01*
X110978142Y-111212142D01*
X111263857Y-111283571D01*
X111406714Y-111355000D01*
X111478142Y-111426428D01*
X111549571Y-111569285D01*
X111549571Y-111712142D01*
X111478142Y-111855000D01*
X111406714Y-111926428D01*
X111263857Y-111997857D01*
X110978142Y-112069285D01*
X110621000Y-112069285D01*
X110335285Y-111997857D01*
X110192428Y-111926428D01*
X110121000Y-111855000D01*
X110049571Y-111712142D01*
X110049571Y-110283571D02*
X110049571Y-110140714D01*
X110121000Y-109997857D01*
X110192428Y-109926428D01*
X110335285Y-109855000D01*
X110621000Y-109783571D01*
X110978142Y-109783571D01*
X111263857Y-109855000D01*
X111406714Y-109926428D01*
X111478142Y-109997857D01*
X111549571Y-110140714D01*
X111549571Y-110283571D01*
X111478142Y-110426428D01*
X111406714Y-110497857D01*
X111263857Y-110569285D01*
X110978142Y-110640714D01*
X110621000Y-110640714D01*
X110335285Y-110569285D01*
X110192428Y-110497857D01*
X110121000Y-110426428D01*
X110049571Y-110283571D01*
X111406714Y-109140714D02*
X111478142Y-109069285D01*
X111549571Y-109140714D01*
X111478142Y-109212142D01*
X111406714Y-109140714D01*
X111549571Y-109140714D01*
X111549571Y-107640714D02*
X111549571Y-108497857D01*
X111549571Y-108069285D02*
X110049571Y-108069285D01*
X110263857Y-108212142D01*
X110406714Y-108355000D01*
X110478142Y-108497857D01*
X110049571Y-107140714D02*
X110049571Y-106140714D01*
X111549571Y-106783571D01*
D12*
G04 #@! TO.C,U1*
X117786089Y-87280000D02*
X124645025Y-80421064D01*
X125140000Y-94633911D02*
X117786089Y-87280000D01*
X132493911Y-87280000D02*
X125140000Y-94633911D01*
X125634975Y-80421064D02*
X132493911Y-87280000D01*
X124645025Y-80421064D02*
X125634975Y-80421064D01*
X124291472Y-80350354D02*
G75*
G03X124291472Y-80350354I-141421J0D01*
G01*
D14*
G04 #@! TO.C,C12*
X101789721Y-94570000D02*
X102115279Y-94570000D01*
X101789721Y-93550000D02*
X102115279Y-93550000D01*
G04 #@! TO.C,C1*
X100700000Y-87695279D02*
X100700000Y-87369721D01*
X101720000Y-87695279D02*
X101720000Y-87369721D01*
G04 #@! TO.C,C2*
X100700000Y-83564721D02*
X100700000Y-83890279D01*
X101720000Y-83564721D02*
X101720000Y-83890279D01*
G04 #@! TO.C,C3*
X134959721Y-84940000D02*
X135285279Y-84940000D01*
X134959721Y-83920000D02*
X135285279Y-83920000D01*
G04 #@! TO.C,C4*
X114602579Y-88618600D02*
X114277021Y-88618600D01*
X114602579Y-89638600D02*
X114277021Y-89638600D01*
G04 #@! TO.C,C5*
X117254478Y-84775727D02*
X117024273Y-84545522D01*
X117975727Y-84054478D02*
X117745522Y-83824273D01*
G04 #@! TO.C,C6*
X134959721Y-83460000D02*
X135285279Y-83460000D01*
X134959721Y-82440000D02*
X135285279Y-82440000D01*
G04 #@! TO.C,C7*
X133308675Y-90817426D02*
X133538880Y-91047631D01*
X132587426Y-91538675D02*
X132817631Y-91768880D01*
G04 #@! TO.C,J1*
X94940000Y-78800000D02*
X96490000Y-78800000D01*
X94940000Y-78800000D02*
X94940000Y-79100000D01*
X92140000Y-79100000D02*
X94940000Y-79100000D01*
X94940000Y-87100000D02*
X96490000Y-87100000D01*
X94940000Y-86800000D02*
X94940000Y-87100000D01*
X92140000Y-86800000D02*
X94940000Y-86800000D01*
X98190000Y-82050000D02*
X97740000Y-81650000D01*
X98190000Y-81250000D02*
X98190000Y-82050000D01*
X97740000Y-81650000D02*
X98190000Y-81250000D01*
G04 #@! TO.C,L1*
X104560000Y-79004721D02*
X104560000Y-79330279D01*
X103540000Y-79004721D02*
X103540000Y-79330279D01*
G04 #@! TO.C,L2*
X100630000Y-79714721D02*
X100630000Y-80040279D01*
X101650000Y-79714721D02*
X101650000Y-80040279D01*
G04 #@! TO.C,R1*
X102390000Y-75432779D02*
X102390000Y-75107221D01*
X103410000Y-75432779D02*
X103410000Y-75107221D01*
G04 #@! TO.C,R2*
X105249440Y-75433239D02*
X105249440Y-75107681D01*
X104229440Y-75433239D02*
X104229440Y-75107681D01*
D10*
G04 #@! TO.C,U2*
X106600000Y-81170000D02*
G75*
G03X106600000Y-81170000I-100000J0D01*
G01*
D15*
X106500000Y-81420000D02*
X106500000Y-84420000D01*
X103500000Y-81420000D02*
X103500000Y-84420000D01*
D14*
G04 #@! TO.C,C10*
X101690000Y-91337221D02*
X101690000Y-91662779D01*
X100670000Y-91337221D02*
X100670000Y-91662779D01*
G04 #@! TO.C,J9*
X155959500Y-117154000D02*
X158619500Y-117154000D01*
X155959500Y-76454000D02*
X155959500Y-117154000D01*
X158619500Y-76454000D02*
X158619500Y-117154000D01*
X155959500Y-76454000D02*
X158619500Y-76454000D01*
X155959500Y-75184000D02*
X155959500Y-73854000D01*
X155959500Y-73854000D02*
X157289500Y-73854000D01*
G04 #@! TO.C,SW1*
X94980000Y-73550000D02*
X99720000Y-73550000D01*
X94980000Y-73550000D02*
X94980000Y-73950000D01*
X99720000Y-73550000D02*
X99720000Y-73950000D01*
X94980000Y-78290000D02*
X94980000Y-77890000D01*
X94980000Y-78290000D02*
X99720000Y-78290000D01*
X99720000Y-78290000D02*
X99720000Y-77890000D01*
X99720000Y-76950000D02*
X99720000Y-74890000D01*
X94980000Y-76950000D02*
X94980000Y-74890000D01*
G04 #@! TO.C,Y1*
X143650000Y-102750000D02*
X143650000Y-96350000D01*
X143650000Y-96350000D02*
X141250000Y-96350000D01*
X141250000Y-96350000D02*
X141250000Y-102750000D01*
X141250000Y-102750000D02*
X143650000Y-102750000D01*
X142800000Y-102750000D02*
X143400000Y-103650000D01*
X143400000Y-103650000D02*
X143400000Y-103850000D01*
X142100000Y-102750000D02*
X141500000Y-103650000D01*
X141500000Y-103650000D02*
X141500000Y-103850000D01*
G04 #@! TO.C,J2*
X92910000Y-90675600D02*
X92910000Y-89345600D01*
X94240000Y-90675600D02*
X92910000Y-90675600D01*
X95510000Y-90675600D02*
X95510000Y-88015600D01*
X95510000Y-88015600D02*
X98110000Y-88015600D01*
X95510000Y-90675600D02*
X98110000Y-90675600D01*
X98110000Y-90675600D02*
X98110000Y-88015600D01*
G04 #@! TO.C,J3*
X98110000Y-94384000D02*
X98110000Y-91724000D01*
X95510000Y-94384000D02*
X98110000Y-94384000D01*
X95510000Y-91724000D02*
X98110000Y-91724000D01*
X95510000Y-94384000D02*
X95510000Y-91724000D01*
X94240000Y-94384000D02*
X92910000Y-94384000D01*
X92910000Y-94384000D02*
X92910000Y-93054000D01*
G04 #@! TO.C,J4*
X100690000Y-104200000D02*
X100690000Y-101540000D01*
X95550000Y-104200000D02*
X100690000Y-104200000D01*
X95550000Y-101540000D02*
X100690000Y-101540000D01*
X95550000Y-104200000D02*
X95550000Y-101540000D01*
X94280000Y-104200000D02*
X92950000Y-104200000D01*
X92950000Y-104200000D02*
X92950000Y-102870000D01*
G04 #@! TO.C,J5*
X92950000Y-101400000D02*
X92950000Y-100070000D01*
X94280000Y-101400000D02*
X92950000Y-101400000D01*
X95550000Y-101400000D02*
X95550000Y-98740000D01*
X95550000Y-98740000D02*
X100690000Y-98740000D01*
X95550000Y-101400000D02*
X100690000Y-101400000D01*
X100690000Y-101400000D02*
X100690000Y-98740000D01*
G04 #@! TO.C,J6*
X100670800Y-98580400D02*
X100670800Y-95920400D01*
X95530800Y-98580400D02*
X100670800Y-98580400D01*
X95530800Y-95920400D02*
X100670800Y-95920400D01*
X95530800Y-98580400D02*
X95530800Y-95920400D01*
X94260800Y-98580400D02*
X92930800Y-98580400D01*
X92930800Y-98580400D02*
X92930800Y-97250400D01*
G04 #@! TO.C,J11*
X104435600Y-114544800D02*
X104435600Y-117204800D01*
X147675600Y-114544800D02*
X104435600Y-114544800D01*
X147675600Y-117204800D02*
X104435600Y-117204800D01*
X147675600Y-114544800D02*
X147675600Y-117204800D01*
X148945600Y-114544800D02*
X150275600Y-114544800D01*
X150275600Y-114544800D02*
X150275600Y-115874800D01*
G04 #@! TO.C,C11*
X105360279Y-94460000D02*
X105034721Y-94460000D01*
X105360279Y-93440000D02*
X105034721Y-93440000D01*
G04 #@! TO.C,U3*
X106560000Y-88240000D02*
X106560000Y-86480000D01*
X103490000Y-86480000D02*
X103490000Y-88910000D01*
G04 #@! TO.C,L3*
X105897764Y-92634900D02*
X104693636Y-92634900D01*
X105897764Y-89914900D02*
X104693636Y-89914900D01*
G04 #@! TO.C,J7*
X108020000Y-99650000D02*
X110680000Y-99650000D01*
X108020000Y-79270000D02*
X108020000Y-99650000D01*
X110680000Y-79270000D02*
X110680000Y-99650000D01*
X108020000Y-79270000D02*
X110680000Y-79270000D01*
X108020000Y-78000000D02*
X108020000Y-76670000D01*
X108020000Y-76670000D02*
X109350000Y-76670000D01*
G04 #@! TO.C,J12*
X107970000Y-73870000D02*
X107970000Y-76530000D01*
X143590000Y-73870000D02*
X107970000Y-73870000D01*
X143590000Y-76530000D02*
X107970000Y-76530000D01*
X143590000Y-73870000D02*
X143590000Y-76530000D01*
X144860000Y-73870000D02*
X146190000Y-73870000D01*
X146190000Y-73870000D02*
X146190000Y-75200000D01*
G04 #@! TO.C,J10*
X108020000Y-99770000D02*
X108020000Y-102430000D01*
X136020000Y-99770000D02*
X108020000Y-99770000D01*
X136020000Y-102430000D02*
X108020000Y-102430000D01*
X136020000Y-99770000D02*
X136020000Y-102430000D01*
X137290000Y-99770000D02*
X138620000Y-99770000D01*
X138620000Y-99770000D02*
X138620000Y-101100000D01*
G04 #@! TO.C,J8*
X125900000Y-99630000D02*
X125900000Y-96970000D01*
X113140000Y-99630000D02*
X125900000Y-99630000D01*
X113140000Y-96970000D02*
X125900000Y-96970000D01*
X113140000Y-99630000D02*
X113140000Y-96970000D01*
X111870000Y-99630000D02*
X110540000Y-99630000D01*
X110540000Y-99630000D02*
X110540000Y-98300000D01*
G04 #@! TO.C,C8*
X141574721Y-84590000D02*
X141900279Y-84590000D01*
X141574721Y-85610000D02*
X141900279Y-85610000D01*
G04 #@! TO.C,J13*
X146170000Y-94260000D02*
X148830000Y-94260000D01*
X146170000Y-89120000D02*
X146170000Y-94260000D01*
X148830000Y-89120000D02*
X148830000Y-94260000D01*
X146170000Y-89120000D02*
X148830000Y-89120000D01*
X146170000Y-87850000D02*
X146170000Y-86520000D01*
X146170000Y-86520000D02*
X147500000Y-86520000D01*
D12*
G04 #@! TO.C,U4*
X145275000Y-88175000D02*
X145225000Y-88175000D01*
X145275000Y-92325000D02*
X145130000Y-92325000D01*
X140125000Y-92325000D02*
X140270000Y-92325000D01*
X140125000Y-88175000D02*
X140270000Y-88175000D01*
X145275000Y-88175000D02*
X145275000Y-92325000D01*
X140125000Y-88175000D02*
X140125000Y-92325000D01*
X145225000Y-88175000D02*
X145225000Y-86775000D01*
D14*
G04 #@! TO.C,J14*
X95620000Y-117210000D02*
X98280000Y-117210000D01*
X95620000Y-112070000D02*
X95620000Y-117210000D01*
X98280000Y-112070000D02*
X98280000Y-117210000D01*
X95620000Y-112070000D02*
X98280000Y-112070000D01*
X95620000Y-110800000D02*
X95620000Y-109470000D01*
X95620000Y-109470000D02*
X96950000Y-109470000D01*
G04 #@! TO.C,R3*
X107106180Y-75079741D02*
X107106180Y-75405299D01*
X106086180Y-75079741D02*
X106086180Y-75405299D01*
G04 #@! TO.C,C12*
D12*
X101096842Y-95823042D02*
X101049223Y-95870661D01*
X100906366Y-95918280D01*
X100811128Y-95918280D01*
X100668271Y-95870661D01*
X100573033Y-95775423D01*
X100525414Y-95680185D01*
X100477795Y-95489709D01*
X100477795Y-95346852D01*
X100525414Y-95156376D01*
X100573033Y-95061138D01*
X100668271Y-94965900D01*
X100811128Y-94918280D01*
X100906366Y-94918280D01*
X101049223Y-94965900D01*
X101096842Y-95013519D01*
X102049223Y-95918280D02*
X101477795Y-95918280D01*
X101763509Y-95918280D02*
X101763509Y-94918280D01*
X101668271Y-95061138D01*
X101573033Y-95156376D01*
X101477795Y-95203995D01*
X102430176Y-95013519D02*
X102477795Y-94965900D01*
X102573033Y-94918280D01*
X102811128Y-94918280D01*
X102906366Y-94965900D01*
X102953985Y-95013519D01*
X103001604Y-95108757D01*
X103001604Y-95203995D01*
X102953985Y-95346852D01*
X102382557Y-95918280D01*
X103001604Y-95918280D01*
G04 #@! TO.C,C1*
X102807142Y-87609166D02*
X102854761Y-87656785D01*
X102902380Y-87799642D01*
X102902380Y-87894880D01*
X102854761Y-88037738D01*
X102759523Y-88132976D01*
X102664285Y-88180595D01*
X102473809Y-88228214D01*
X102330952Y-88228214D01*
X102140476Y-88180595D01*
X102045238Y-88132976D01*
X101950000Y-88037738D01*
X101902380Y-87894880D01*
X101902380Y-87799642D01*
X101950000Y-87656785D01*
X101997619Y-87609166D01*
X102902380Y-86656785D02*
X102902380Y-87228214D01*
X102902380Y-86942500D02*
X101902380Y-86942500D01*
X102045238Y-87037738D01*
X102140476Y-87132976D01*
X102188095Y-87228214D01*
G04 #@! TO.C,C2*
X102947142Y-83896666D02*
X102994761Y-83944285D01*
X103042380Y-84087142D01*
X103042380Y-84182380D01*
X102994761Y-84325238D01*
X102899523Y-84420476D01*
X102804285Y-84468095D01*
X102613809Y-84515714D01*
X102470952Y-84515714D01*
X102280476Y-84468095D01*
X102185238Y-84420476D01*
X102090000Y-84325238D01*
X102042380Y-84182380D01*
X102042380Y-84087142D01*
X102090000Y-83944285D01*
X102137619Y-83896666D01*
X102137619Y-83515714D02*
X102090000Y-83468095D01*
X102042380Y-83372857D01*
X102042380Y-83134761D01*
X102090000Y-83039523D01*
X102137619Y-82991904D01*
X102232857Y-82944285D01*
X102328095Y-82944285D01*
X102470952Y-82991904D01*
X103042380Y-83563333D01*
X103042380Y-82944285D01*
G04 #@! TO.C,C3*
X137363333Y-84847142D02*
X137315714Y-84894761D01*
X137172857Y-84942380D01*
X137077619Y-84942380D01*
X136934761Y-84894761D01*
X136839523Y-84799523D01*
X136791904Y-84704285D01*
X136744285Y-84513809D01*
X136744285Y-84370952D01*
X136791904Y-84180476D01*
X136839523Y-84085238D01*
X136934761Y-83990000D01*
X137077619Y-83942380D01*
X137172857Y-83942380D01*
X137315714Y-83990000D01*
X137363333Y-84037619D01*
X137696666Y-83942380D02*
X138315714Y-83942380D01*
X137982380Y-84323333D01*
X138125238Y-84323333D01*
X138220476Y-84370952D01*
X138268095Y-84418571D01*
X138315714Y-84513809D01*
X138315714Y-84751904D01*
X138268095Y-84847142D01*
X138220476Y-84894761D01*
X138125238Y-84942380D01*
X137839523Y-84942380D01*
X137744285Y-84894761D01*
X137696666Y-84847142D01*
G04 #@! TO.C,C4*
X116730633Y-89525742D02*
X116683014Y-89573361D01*
X116540157Y-89620980D01*
X116444919Y-89620980D01*
X116302061Y-89573361D01*
X116206823Y-89478123D01*
X116159204Y-89382885D01*
X116111585Y-89192409D01*
X116111585Y-89049552D01*
X116159204Y-88859076D01*
X116206823Y-88763838D01*
X116302061Y-88668600D01*
X116444919Y-88620980D01*
X116540157Y-88620980D01*
X116683014Y-88668600D01*
X116730633Y-88716219D01*
X117587776Y-88954314D02*
X117587776Y-89620980D01*
X117349680Y-88573361D02*
X117111585Y-89287647D01*
X117730633Y-89287647D01*
G04 #@! TO.C,C5*
X115379610Y-82794687D02*
X115312267Y-82794687D01*
X115177580Y-82727343D01*
X115110236Y-82660000D01*
X115042893Y-82525312D01*
X115042893Y-82390625D01*
X115076564Y-82289610D01*
X115177580Y-82121251D01*
X115278595Y-82020236D01*
X115446954Y-81919221D01*
X115547969Y-81885549D01*
X115682656Y-81885549D01*
X115817343Y-81952893D01*
X115884687Y-82020236D01*
X115952030Y-82154923D01*
X115952030Y-82222267D01*
X116659137Y-82794687D02*
X116322419Y-82457969D01*
X115952030Y-82761015D01*
X116019374Y-82761015D01*
X116120389Y-82794687D01*
X116288748Y-82963045D01*
X116322419Y-83064061D01*
X116322419Y-83131404D01*
X116288748Y-83232419D01*
X116120389Y-83400778D01*
X116019374Y-83434450D01*
X115952030Y-83434450D01*
X115851015Y-83400778D01*
X115682656Y-83232419D01*
X115648984Y-83131404D01*
X115648984Y-83064061D01*
G04 #@! TO.C,C6*
X137343333Y-83377142D02*
X137295714Y-83424761D01*
X137152857Y-83472380D01*
X137057619Y-83472380D01*
X136914761Y-83424761D01*
X136819523Y-83329523D01*
X136771904Y-83234285D01*
X136724285Y-83043809D01*
X136724285Y-82900952D01*
X136771904Y-82710476D01*
X136819523Y-82615238D01*
X136914761Y-82520000D01*
X137057619Y-82472380D01*
X137152857Y-82472380D01*
X137295714Y-82520000D01*
X137343333Y-82567619D01*
X138200476Y-82472380D02*
X138010000Y-82472380D01*
X137914761Y-82520000D01*
X137867142Y-82567619D01*
X137771904Y-82710476D01*
X137724285Y-82900952D01*
X137724285Y-83281904D01*
X137771904Y-83377142D01*
X137819523Y-83424761D01*
X137914761Y-83472380D01*
X138105238Y-83472380D01*
X138200476Y-83424761D01*
X138248095Y-83377142D01*
X138295714Y-83281904D01*
X138295714Y-83043809D01*
X138248095Y-82948571D01*
X138200476Y-82900952D01*
X138105238Y-82853333D01*
X137914761Y-82853333D01*
X137819523Y-82900952D01*
X137771904Y-82948571D01*
X137724285Y-83043809D01*
G04 #@! TO.C,C7*
X134379610Y-93254687D02*
X134312267Y-93254687D01*
X134177580Y-93187343D01*
X134110236Y-93120000D01*
X134042893Y-92985312D01*
X134042893Y-92850625D01*
X134076564Y-92749610D01*
X134177580Y-92581251D01*
X134278595Y-92480236D01*
X134446954Y-92379221D01*
X134547969Y-92345549D01*
X134682656Y-92345549D01*
X134817343Y-92412893D01*
X134884687Y-92480236D01*
X134952030Y-92614923D01*
X134952030Y-92682267D01*
X135255076Y-92850625D02*
X135726480Y-93322030D01*
X134716328Y-93726091D01*
G04 #@! TO.C,J1*
X94462380Y-83323333D02*
X95176666Y-83323333D01*
X95319523Y-83370952D01*
X95414761Y-83466190D01*
X95462380Y-83609047D01*
X95462380Y-83704285D01*
X95462380Y-82323333D02*
X95462380Y-82894761D01*
X95462380Y-82609047D02*
X94462380Y-82609047D01*
X94605238Y-82704285D01*
X94700476Y-82799523D01*
X94748095Y-82894761D01*
G04 #@! TO.C,L1*
X105932380Y-79334166D02*
X105932380Y-79810357D01*
X104932380Y-79810357D01*
X105932380Y-78477023D02*
X105932380Y-79048452D01*
X105932380Y-78762738D02*
X104932380Y-78762738D01*
X105075238Y-78857976D01*
X105170476Y-78953214D01*
X105218095Y-79048452D01*
G04 #@! TO.C,L2*
X103022380Y-80044166D02*
X103022380Y-80520357D01*
X102022380Y-80520357D01*
X102117619Y-79758452D02*
X102070000Y-79710833D01*
X102022380Y-79615595D01*
X102022380Y-79377500D01*
X102070000Y-79282261D01*
X102117619Y-79234642D01*
X102212857Y-79187023D01*
X102308095Y-79187023D01*
X102450952Y-79234642D01*
X103022380Y-79806071D01*
X103022380Y-79187023D01*
G04 #@! TO.C,R1*
X102787153Y-77861420D02*
X102453820Y-77385230D01*
X102215724Y-77861420D02*
X102215724Y-76861420D01*
X102596677Y-76861420D01*
X102691915Y-76909040D01*
X102739534Y-76956659D01*
X102787153Y-77051897D01*
X102787153Y-77194754D01*
X102739534Y-77289992D01*
X102691915Y-77337611D01*
X102596677Y-77385230D01*
X102215724Y-77385230D01*
X103739534Y-77861420D02*
X103168105Y-77861420D01*
X103453820Y-77861420D02*
X103453820Y-76861420D01*
X103358581Y-77004278D01*
X103263343Y-77099516D01*
X103168105Y-77147135D01*
G04 #@! TO.C,R2*
X104585473Y-77874120D02*
X104252140Y-77397930D01*
X104014044Y-77874120D02*
X104014044Y-76874120D01*
X104394997Y-76874120D01*
X104490235Y-76921740D01*
X104537854Y-76969359D01*
X104585473Y-77064597D01*
X104585473Y-77207454D01*
X104537854Y-77302692D01*
X104490235Y-77350311D01*
X104394997Y-77397930D01*
X104014044Y-77397930D01*
X104966425Y-76969359D02*
X105014044Y-76921740D01*
X105109282Y-76874120D01*
X105347378Y-76874120D01*
X105442616Y-76921740D01*
X105490235Y-76969359D01*
X105537854Y-77064597D01*
X105537854Y-77159835D01*
X105490235Y-77302692D01*
X104918806Y-77874120D01*
X105537854Y-77874120D01*
G04 #@! TO.C,U2*
D16*
X106768804Y-81579375D02*
X106930830Y-81579375D01*
X106949892Y-81569844D01*
X106959423Y-81560313D01*
X106968954Y-81541251D01*
X106968954Y-81503127D01*
X106959423Y-81484065D01*
X106949892Y-81474534D01*
X106930830Y-81465003D01*
X106768804Y-81465003D01*
X106787865Y-81379225D02*
X106778335Y-81369694D01*
X106768804Y-81350632D01*
X106768804Y-81302977D01*
X106778335Y-81283915D01*
X106787865Y-81274384D01*
X106806927Y-81264853D01*
X106825989Y-81264853D01*
X106854582Y-81274384D01*
X106968954Y-81388756D01*
X106968954Y-81264853D01*
X103110326Y-82306606D02*
X103110326Y-82373357D01*
X103215221Y-82373357D02*
X103014967Y-82373357D01*
X103014967Y-82277998D01*
X103014967Y-82230319D02*
X103014967Y-82115888D01*
X103215221Y-82173103D02*
X103014967Y-82173103D01*
X103034038Y-82058672D02*
X103024503Y-82049137D01*
X103014967Y-82030065D01*
X103014967Y-81982385D01*
X103024503Y-81963313D01*
X103034038Y-81953778D01*
X103053110Y-81944242D01*
X103072182Y-81944242D01*
X103100790Y-81953778D01*
X103215221Y-82068208D01*
X103215221Y-81944242D01*
X103014967Y-81877490D02*
X103014967Y-81753524D01*
X103091254Y-81820275D01*
X103091254Y-81791667D01*
X103100790Y-81772595D01*
X103110326Y-81763059D01*
X103129397Y-81753524D01*
X103177077Y-81753524D01*
X103196149Y-81763059D01*
X103205685Y-81772595D01*
X103215221Y-81791667D01*
X103215221Y-81848883D01*
X103205685Y-81867954D01*
X103196149Y-81877490D01*
X103081718Y-81581877D02*
X103215221Y-81581877D01*
X103005431Y-81629557D02*
X103148469Y-81677236D01*
X103148469Y-81553270D01*
X103014967Y-81496054D02*
X103215221Y-81362551D01*
X103014967Y-81362551D02*
X103215221Y-81496054D01*
X103215221Y-81286264D02*
X103014967Y-81286264D01*
X103014967Y-81238585D01*
X103024503Y-81209977D01*
X103043574Y-81190905D01*
X103062646Y-81181369D01*
X103100790Y-81171833D01*
X103129397Y-81171833D01*
X103167541Y-81181369D01*
X103186613Y-81190905D01*
X103205685Y-81209977D01*
X103215221Y-81238585D01*
X103215221Y-81286264D01*
X103138933Y-81086010D02*
X103138933Y-80933436D01*
X103215221Y-80723646D02*
X103119862Y-80790397D01*
X103215221Y-80838077D02*
X103014967Y-80838077D01*
X103014967Y-80761789D01*
X103024503Y-80742718D01*
X103034038Y-80733182D01*
X103053110Y-80723646D01*
X103081718Y-80723646D01*
X103100790Y-80733182D01*
X103110326Y-80742718D01*
X103119862Y-80761789D01*
X103119862Y-80838077D01*
G04 #@! TO.C,C10*
D12*
X102846142Y-92324157D02*
X102893761Y-92371776D01*
X102941380Y-92514633D01*
X102941380Y-92609871D01*
X102893761Y-92752728D01*
X102798523Y-92847966D01*
X102703285Y-92895585D01*
X102512809Y-92943204D01*
X102369952Y-92943204D01*
X102179476Y-92895585D01*
X102084238Y-92847966D01*
X101989000Y-92752728D01*
X101941380Y-92609871D01*
X101941380Y-92514633D01*
X101989000Y-92371776D01*
X102036619Y-92324157D01*
X102941380Y-91371776D02*
X102941380Y-91943204D01*
X102941380Y-91657490D02*
X101941380Y-91657490D01*
X102084238Y-91752728D01*
X102179476Y-91847966D01*
X102227095Y-91943204D01*
X101941380Y-90752728D02*
X101941380Y-90657490D01*
X101989000Y-90562252D01*
X102036619Y-90514633D01*
X102131857Y-90467014D01*
X102322333Y-90419395D01*
X102560428Y-90419395D01*
X102750904Y-90467014D01*
X102846142Y-90514633D01*
X102893761Y-90562252D01*
X102941380Y-90657490D01*
X102941380Y-90752728D01*
X102893761Y-90847966D01*
X102846142Y-90895585D01*
X102750904Y-90943204D01*
X102560428Y-90990823D01*
X102322333Y-90990823D01*
X102131857Y-90943204D01*
X102036619Y-90895585D01*
X101989000Y-90847966D01*
X101941380Y-90752728D01*
G04 #@! TO.C,J9*
X157956666Y-73382380D02*
X157956666Y-74096666D01*
X157909047Y-74239523D01*
X157813809Y-74334761D01*
X157670952Y-74382380D01*
X157575714Y-74382380D01*
X158480476Y-74382380D02*
X158670952Y-74382380D01*
X158766190Y-74334761D01*
X158813809Y-74287142D01*
X158909047Y-74144285D01*
X158956666Y-73953809D01*
X158956666Y-73572857D01*
X158909047Y-73477619D01*
X158861428Y-73430000D01*
X158766190Y-73382380D01*
X158575714Y-73382380D01*
X158480476Y-73430000D01*
X158432857Y-73477619D01*
X158385238Y-73572857D01*
X158385238Y-73810952D01*
X158432857Y-73906190D01*
X158480476Y-73953809D01*
X158575714Y-74001428D01*
X158766190Y-74001428D01*
X158861428Y-73953809D01*
X158909047Y-73906190D01*
X158956666Y-73810952D01*
G04 #@! TO.C,SW1*
X96066666Y-76564761D02*
X96209523Y-76612380D01*
X96447619Y-76612380D01*
X96542857Y-76564761D01*
X96590476Y-76517142D01*
X96638095Y-76421904D01*
X96638095Y-76326666D01*
X96590476Y-76231428D01*
X96542857Y-76183809D01*
X96447619Y-76136190D01*
X96257142Y-76088571D01*
X96161904Y-76040952D01*
X96114285Y-75993333D01*
X96066666Y-75898095D01*
X96066666Y-75802857D01*
X96114285Y-75707619D01*
X96161904Y-75660000D01*
X96257142Y-75612380D01*
X96495238Y-75612380D01*
X96638095Y-75660000D01*
X96971428Y-75612380D02*
X97209523Y-76612380D01*
X97400000Y-75898095D01*
X97590476Y-76612380D01*
X97828571Y-75612380D01*
X98733333Y-76612380D02*
X98161904Y-76612380D01*
X98447619Y-76612380D02*
X98447619Y-75612380D01*
X98352380Y-75755238D01*
X98257142Y-75850476D01*
X98161904Y-75898095D01*
G04 #@! TO.C,Y1*
X144993809Y-102448809D02*
X144517619Y-102448809D01*
X145517619Y-102115476D02*
X144993809Y-102448809D01*
X145517619Y-102782142D01*
X144517619Y-103639285D02*
X144517619Y-103067857D01*
X144517619Y-103353571D02*
X145517619Y-103353571D01*
X145374761Y-103258333D01*
X145279523Y-103163095D01*
X145231904Y-103067857D01*
G04 #@! TO.C,J2*
X92532380Y-87853333D02*
X93246666Y-87853333D01*
X93389523Y-87900952D01*
X93484761Y-87996190D01*
X93532380Y-88139047D01*
X93532380Y-88234285D01*
X92627619Y-87424761D02*
X92580000Y-87377142D01*
X92532380Y-87281904D01*
X92532380Y-87043809D01*
X92580000Y-86948571D01*
X92627619Y-86900952D01*
X92722857Y-86853333D01*
X92818095Y-86853333D01*
X92960952Y-86900952D01*
X93532380Y-87472380D01*
X93532380Y-86853333D01*
G04 #@! TO.C,J3*
X92582380Y-91703333D02*
X93296666Y-91703333D01*
X93439523Y-91750952D01*
X93534761Y-91846190D01*
X93582380Y-91989047D01*
X93582380Y-92084285D01*
X92582380Y-91322380D02*
X92582380Y-90703333D01*
X92963333Y-91036666D01*
X92963333Y-90893809D01*
X93010952Y-90798571D01*
X93058571Y-90750952D01*
X93153809Y-90703333D01*
X93391904Y-90703333D01*
X93487142Y-90750952D01*
X93534761Y-90798571D01*
X93582380Y-90893809D01*
X93582380Y-91179523D01*
X93534761Y-91274761D01*
X93487142Y-91322380D01*
G04 #@! TO.C,J4*
X92542380Y-101743333D02*
X93256666Y-101743333D01*
X93399523Y-101790952D01*
X93494761Y-101886190D01*
X93542380Y-102029047D01*
X93542380Y-102124285D01*
X92875714Y-100838571D02*
X93542380Y-100838571D01*
X92494761Y-101076666D02*
X93209047Y-101314761D01*
X93209047Y-100695714D01*
G04 #@! TO.C,J5*
X92642380Y-98873333D02*
X93356666Y-98873333D01*
X93499523Y-98920952D01*
X93594761Y-99016190D01*
X93642380Y-99159047D01*
X93642380Y-99254285D01*
X92642380Y-97920952D02*
X92642380Y-98397142D01*
X93118571Y-98444761D01*
X93070952Y-98397142D01*
X93023333Y-98301904D01*
X93023333Y-98063809D01*
X93070952Y-97968571D01*
X93118571Y-97920952D01*
X93213809Y-97873333D01*
X93451904Y-97873333D01*
X93547142Y-97920952D01*
X93594761Y-97968571D01*
X93642380Y-98063809D01*
X93642380Y-98301904D01*
X93594761Y-98397142D01*
X93547142Y-98444761D01*
G04 #@! TO.C,J6*
X92482380Y-95503333D02*
X93196666Y-95503333D01*
X93339523Y-95550952D01*
X93434761Y-95646190D01*
X93482380Y-95789047D01*
X93482380Y-95884285D01*
X92482380Y-94598571D02*
X92482380Y-94789047D01*
X92530000Y-94884285D01*
X92577619Y-94931904D01*
X92720476Y-95027142D01*
X92910952Y-95074761D01*
X93291904Y-95074761D01*
X93387142Y-95027142D01*
X93434761Y-94979523D01*
X93482380Y-94884285D01*
X93482380Y-94693809D01*
X93434761Y-94598571D01*
X93387142Y-94550952D01*
X93291904Y-94503333D01*
X93053809Y-94503333D01*
X92958571Y-94550952D01*
X92910952Y-94598571D01*
X92863333Y-94693809D01*
X92863333Y-94884285D01*
X92910952Y-94979523D01*
X92958571Y-95027142D01*
X93053809Y-95074761D01*
G04 #@! TO.C,J11*
X103990876Y-114260380D02*
X103990876Y-114974666D01*
X103943257Y-115117523D01*
X103848019Y-115212761D01*
X103705161Y-115260380D01*
X103609923Y-115260380D01*
X104990876Y-115260380D02*
X104419447Y-115260380D01*
X104705161Y-115260380D02*
X104705161Y-114260380D01*
X104609923Y-114403238D01*
X104514685Y-114498476D01*
X104419447Y-114546095D01*
X105943257Y-115260380D02*
X105371828Y-115260380D01*
X105657542Y-115260380D02*
X105657542Y-114260380D01*
X105562304Y-114403238D01*
X105467066Y-114498476D01*
X105371828Y-114546095D01*
G04 #@! TO.C,C11*
X104411542Y-95734142D02*
X104363923Y-95781761D01*
X104221066Y-95829380D01*
X104125828Y-95829380D01*
X103982971Y-95781761D01*
X103887733Y-95686523D01*
X103840114Y-95591285D01*
X103792495Y-95400809D01*
X103792495Y-95257952D01*
X103840114Y-95067476D01*
X103887733Y-94972238D01*
X103982971Y-94877000D01*
X104125828Y-94829380D01*
X104221066Y-94829380D01*
X104363923Y-94877000D01*
X104411542Y-94924619D01*
X105363923Y-95829380D02*
X104792495Y-95829380D01*
X105078209Y-95829380D02*
X105078209Y-94829380D01*
X104982971Y-94972238D01*
X104887733Y-95067476D01*
X104792495Y-95115095D01*
X106316304Y-95829380D02*
X105744876Y-95829380D01*
X106030590Y-95829380D02*
X106030590Y-94829380D01*
X105935352Y-94972238D01*
X105840114Y-95067476D01*
X105744876Y-95115095D01*
G04 #@! TO.C,U3*
X104254395Y-86790280D02*
X104254395Y-87599804D01*
X104302014Y-87695042D01*
X104349633Y-87742661D01*
X104444871Y-87790280D01*
X104635347Y-87790280D01*
X104730585Y-87742661D01*
X104778204Y-87695042D01*
X104825823Y-87599804D01*
X104825823Y-86790280D01*
X105206776Y-86790280D02*
X105825823Y-86790280D01*
X105492490Y-87171233D01*
X105635347Y-87171233D01*
X105730585Y-87218852D01*
X105778204Y-87266471D01*
X105825823Y-87361709D01*
X105825823Y-87599804D01*
X105778204Y-87695042D01*
X105730585Y-87742661D01*
X105635347Y-87790280D01*
X105349633Y-87790280D01*
X105254395Y-87742661D01*
X105206776Y-87695042D01*
G04 #@! TO.C,L3*
X105836980Y-91492366D02*
X105836980Y-91968557D01*
X104836980Y-91968557D01*
X104836980Y-91254271D02*
X104836980Y-90635223D01*
X105217933Y-90968557D01*
X105217933Y-90825700D01*
X105265552Y-90730461D01*
X105313171Y-90682842D01*
X105408409Y-90635223D01*
X105646504Y-90635223D01*
X105741742Y-90682842D01*
X105789361Y-90730461D01*
X105836980Y-90825700D01*
X105836980Y-91111414D01*
X105789361Y-91206652D01*
X105741742Y-91254271D01*
G04 #@! TO.C,J7*
X109016666Y-75122380D02*
X109016666Y-75836666D01*
X108969047Y-75979523D01*
X108873809Y-76074761D01*
X108730952Y-76122380D01*
X108635714Y-76122380D01*
X109397619Y-75122380D02*
X110064285Y-75122380D01*
X109635714Y-76122380D01*
G04 #@! TO.C,J12*
X144500476Y-73502380D02*
X144500476Y-74216666D01*
X144452857Y-74359523D01*
X144357619Y-74454761D01*
X144214761Y-74502380D01*
X144119523Y-74502380D01*
X145500476Y-74502380D02*
X144929047Y-74502380D01*
X145214761Y-74502380D02*
X145214761Y-73502380D01*
X145119523Y-73645238D01*
X145024285Y-73740476D01*
X144929047Y-73788095D01*
X145881428Y-73597619D02*
X145929047Y-73550000D01*
X146024285Y-73502380D01*
X146262380Y-73502380D01*
X146357619Y-73550000D01*
X146405238Y-73597619D01*
X146452857Y-73692857D01*
X146452857Y-73788095D01*
X146405238Y-73930952D01*
X145833809Y-74502380D01*
X146452857Y-74502380D01*
G04 #@! TO.C,J10*
X139072380Y-101909523D02*
X139786666Y-101909523D01*
X139929523Y-101957142D01*
X140024761Y-102052380D01*
X140072380Y-102195238D01*
X140072380Y-102290476D01*
X140072380Y-100909523D02*
X140072380Y-101480952D01*
X140072380Y-101195238D02*
X139072380Y-101195238D01*
X139215238Y-101290476D01*
X139310476Y-101385714D01*
X139358095Y-101480952D01*
X139072380Y-100290476D02*
X139072380Y-100195238D01*
X139120000Y-100100000D01*
X139167619Y-100052380D01*
X139262857Y-100004761D01*
X139453333Y-99957142D01*
X139691428Y-99957142D01*
X139881904Y-100004761D01*
X139977142Y-100052380D01*
X140024761Y-100100000D01*
X140072380Y-100195238D01*
X140072380Y-100290476D01*
X140024761Y-100385714D01*
X139977142Y-100433333D01*
X139881904Y-100480952D01*
X139691428Y-100528571D01*
X139453333Y-100528571D01*
X139262857Y-100480952D01*
X139167619Y-100433333D01*
X139120000Y-100385714D01*
X139072380Y-100290476D01*
G04 #@! TO.C,J8*
X108992380Y-98633333D02*
X109706666Y-98633333D01*
X109849523Y-98680952D01*
X109944761Y-98776190D01*
X109992380Y-98919047D01*
X109992380Y-99014285D01*
X109420952Y-98014285D02*
X109373333Y-98109523D01*
X109325714Y-98157142D01*
X109230476Y-98204761D01*
X109182857Y-98204761D01*
X109087619Y-98157142D01*
X109040000Y-98109523D01*
X108992380Y-98014285D01*
X108992380Y-97823809D01*
X109040000Y-97728571D01*
X109087619Y-97680952D01*
X109182857Y-97633333D01*
X109230476Y-97633333D01*
X109325714Y-97680952D01*
X109373333Y-97728571D01*
X109420952Y-97823809D01*
X109420952Y-98014285D01*
X109468571Y-98109523D01*
X109516190Y-98157142D01*
X109611428Y-98204761D01*
X109801904Y-98204761D01*
X109897142Y-98157142D01*
X109944761Y-98109523D01*
X109992380Y-98014285D01*
X109992380Y-97823809D01*
X109944761Y-97728571D01*
X109897142Y-97680952D01*
X109801904Y-97633333D01*
X109611428Y-97633333D01*
X109516190Y-97680952D01*
X109468571Y-97728571D01*
X109420952Y-97823809D01*
G04 #@! TO.C,C8*
X144063333Y-85497142D02*
X144015714Y-85544761D01*
X143872857Y-85592380D01*
X143777619Y-85592380D01*
X143634761Y-85544761D01*
X143539523Y-85449523D01*
X143491904Y-85354285D01*
X143444285Y-85163809D01*
X143444285Y-85020952D01*
X143491904Y-84830476D01*
X143539523Y-84735238D01*
X143634761Y-84640000D01*
X143777619Y-84592380D01*
X143872857Y-84592380D01*
X144015714Y-84640000D01*
X144063333Y-84687619D01*
X144634761Y-85020952D02*
X144539523Y-84973333D01*
X144491904Y-84925714D01*
X144444285Y-84830476D01*
X144444285Y-84782857D01*
X144491904Y-84687619D01*
X144539523Y-84640000D01*
X144634761Y-84592380D01*
X144825238Y-84592380D01*
X144920476Y-84640000D01*
X144968095Y-84687619D01*
X145015714Y-84782857D01*
X145015714Y-84830476D01*
X144968095Y-84925714D01*
X144920476Y-84973333D01*
X144825238Y-85020952D01*
X144634761Y-85020952D01*
X144539523Y-85068571D01*
X144491904Y-85116190D01*
X144444285Y-85211428D01*
X144444285Y-85401904D01*
X144491904Y-85497142D01*
X144539523Y-85544761D01*
X144634761Y-85592380D01*
X144825238Y-85592380D01*
X144920476Y-85544761D01*
X144968095Y-85497142D01*
X145015714Y-85401904D01*
X145015714Y-85211428D01*
X144968095Y-85116190D01*
X144920476Y-85068571D01*
X144825238Y-85020952D01*
G04 #@! TO.C,J13*
X146690476Y-84972380D02*
X146690476Y-85686666D01*
X146642857Y-85829523D01*
X146547619Y-85924761D01*
X146404761Y-85972380D01*
X146309523Y-85972380D01*
X147690476Y-85972380D02*
X147119047Y-85972380D01*
X147404761Y-85972380D02*
X147404761Y-84972380D01*
X147309523Y-85115238D01*
X147214285Y-85210476D01*
X147119047Y-85258095D01*
X148023809Y-84972380D02*
X148642857Y-84972380D01*
X148309523Y-85353333D01*
X148452380Y-85353333D01*
X148547619Y-85400952D01*
X148595238Y-85448571D01*
X148642857Y-85543809D01*
X148642857Y-85781904D01*
X148595238Y-85877142D01*
X148547619Y-85924761D01*
X148452380Y-85972380D01*
X148166666Y-85972380D01*
X148071428Y-85924761D01*
X148023809Y-85877142D01*
G04 #@! TO.C,U4*
X145652380Y-91011904D02*
X146461904Y-91011904D01*
X146557142Y-90964285D01*
X146604761Y-90916666D01*
X146652380Y-90821428D01*
X146652380Y-90630952D01*
X146604761Y-90535714D01*
X146557142Y-90488095D01*
X146461904Y-90440476D01*
X145652380Y-90440476D01*
X145985714Y-89535714D02*
X146652380Y-89535714D01*
X145604761Y-89773809D02*
X146319047Y-90011904D01*
X146319047Y-89392857D01*
G04 #@! TO.C,J14*
X94012380Y-116719523D02*
X94726666Y-116719523D01*
X94869523Y-116767142D01*
X94964761Y-116862380D01*
X95012380Y-117005238D01*
X95012380Y-117100476D01*
X95012380Y-115719523D02*
X95012380Y-116290952D01*
X95012380Y-116005238D02*
X94012380Y-116005238D01*
X94155238Y-116100476D01*
X94250476Y-116195714D01*
X94298095Y-116290952D01*
X94345714Y-114862380D02*
X95012380Y-114862380D01*
X93964761Y-115100476D02*
X94679047Y-115338571D01*
X94679047Y-114719523D01*
G04 #@! TO.C,R3*
X106340613Y-77792840D02*
X106007280Y-77316650D01*
X105769184Y-77792840D02*
X105769184Y-76792840D01*
X106150137Y-76792840D01*
X106245375Y-76840460D01*
X106292994Y-76888079D01*
X106340613Y-76983317D01*
X106340613Y-77126174D01*
X106292994Y-77221412D01*
X106245375Y-77269031D01*
X106150137Y-77316650D01*
X105769184Y-77316650D01*
X106673946Y-76792840D02*
X107292994Y-76792840D01*
X106959660Y-77173793D01*
X107102518Y-77173793D01*
X107197756Y-77221412D01*
X107245375Y-77269031D01*
X107292994Y-77364269D01*
X107292994Y-77602364D01*
X107245375Y-77697602D01*
X107197756Y-77745221D01*
X107102518Y-77792840D01*
X106816803Y-77792840D01*
X106721565Y-77745221D01*
X106673946Y-77697602D01*
G04 #@! TD*
M02*
