G04 #@! TF.GenerationSoftware,KiCad,Pcbnew,5.0.1-33cea8e~68~ubuntu14.04.1*
G04 #@! TF.CreationDate,2018-11-21T01:29:37-08:00*
G04 #@! TF.ProjectId,evalboard1,6576616C626F617264312E6B69636164,rev?*
G04 #@! TF.SameCoordinates,Original*
G04 #@! TF.FileFunction,Soldermask,Bot*
G04 #@! TF.FilePolarity,Negative*
%FSLAX46Y46*%
G04 Gerber Fmt 4.6, Leading zero omitted, Abs format (unit mm)*
G04 Created by KiCad (PCBNEW 5.0.1-33cea8e~68~ubuntu14.04.1) date Wed 21 Nov 2018 01:29:37 AM PST*
%MOMM*%
%LPD*%
G01*
G04 APERTURE LIST*
%ADD10C,0.100000*%
G04 APERTURE END LIST*
D10*
G36*
X97060442Y-114985518D02*
X97126627Y-114992037D01*
X97239853Y-115026384D01*
X97296467Y-115043557D01*
X97435087Y-115117652D01*
X97452991Y-115127222D01*
X97488729Y-115156552D01*
X97590186Y-115239814D01*
X97673448Y-115341271D01*
X97702778Y-115377009D01*
X97702779Y-115377011D01*
X97786443Y-115533533D01*
X97786443Y-115533534D01*
X97837963Y-115703373D01*
X97855359Y-115880000D01*
X97837963Y-116056627D01*
X97803616Y-116169853D01*
X97786443Y-116226467D01*
X97732712Y-116326989D01*
X97702778Y-116382991D01*
X97673448Y-116418729D01*
X97590186Y-116520186D01*
X97488729Y-116603448D01*
X97452991Y-116632778D01*
X97452989Y-116632779D01*
X97296467Y-116716443D01*
X97239853Y-116733616D01*
X97126627Y-116767963D01*
X97060442Y-116774482D01*
X96994260Y-116781000D01*
X96905740Y-116781000D01*
X96839558Y-116774482D01*
X96773373Y-116767963D01*
X96660147Y-116733616D01*
X96603533Y-116716443D01*
X96447011Y-116632779D01*
X96447009Y-116632778D01*
X96411271Y-116603448D01*
X96309814Y-116520186D01*
X96226552Y-116418729D01*
X96197222Y-116382991D01*
X96167288Y-116326989D01*
X96113557Y-116226467D01*
X96096384Y-116169853D01*
X96062037Y-116056627D01*
X96044641Y-115880000D01*
X96062037Y-115703373D01*
X96113557Y-115533534D01*
X96113557Y-115533533D01*
X96197221Y-115377011D01*
X96197222Y-115377009D01*
X96226552Y-115341271D01*
X96309814Y-115239814D01*
X96411271Y-115156552D01*
X96447009Y-115127222D01*
X96464913Y-115117652D01*
X96603533Y-115043557D01*
X96660147Y-115026384D01*
X96773373Y-114992037D01*
X96839558Y-114985518D01*
X96905740Y-114979000D01*
X96994260Y-114979000D01*
X97060442Y-114985518D01*
X97060442Y-114985518D01*
G37*
G36*
X133816042Y-114980318D02*
X133882227Y-114986837D01*
X133995453Y-115021184D01*
X134052067Y-115038357D01*
X134113550Y-115071221D01*
X134208591Y-115122022D01*
X134214927Y-115127222D01*
X134345786Y-115234614D01*
X134416687Y-115321009D01*
X134458378Y-115371809D01*
X134467948Y-115389713D01*
X134542043Y-115528333D01*
X134559216Y-115584947D01*
X134593563Y-115698173D01*
X134610959Y-115874800D01*
X134593563Y-116051427D01*
X134559216Y-116164653D01*
X134542043Y-116221267D01*
X134467948Y-116359887D01*
X134458378Y-116377791D01*
X134454112Y-116382989D01*
X134345786Y-116514986D01*
X134244329Y-116598248D01*
X134208591Y-116627578D01*
X134208589Y-116627579D01*
X134052067Y-116711243D01*
X134006715Y-116725000D01*
X133882227Y-116762763D01*
X133816043Y-116769281D01*
X133749860Y-116775800D01*
X133661340Y-116775800D01*
X133595157Y-116769281D01*
X133528973Y-116762763D01*
X133404485Y-116725000D01*
X133359133Y-116711243D01*
X133202611Y-116627579D01*
X133202609Y-116627578D01*
X133166871Y-116598248D01*
X133065414Y-116514986D01*
X132957088Y-116382989D01*
X132952822Y-116377791D01*
X132943252Y-116359887D01*
X132869157Y-116221267D01*
X132851984Y-116164653D01*
X132817637Y-116051427D01*
X132800241Y-115874800D01*
X132817637Y-115698173D01*
X132851984Y-115584947D01*
X132869157Y-115528333D01*
X132943252Y-115389713D01*
X132952822Y-115371809D01*
X132994513Y-115321009D01*
X133065414Y-115234614D01*
X133196273Y-115127222D01*
X133202609Y-115122022D01*
X133297650Y-115071221D01*
X133359133Y-115038357D01*
X133415747Y-115021184D01*
X133528973Y-114986837D01*
X133595158Y-114980318D01*
X133661340Y-114973800D01*
X133749860Y-114973800D01*
X133816042Y-114980318D01*
X133816042Y-114980318D01*
G37*
G36*
X146516042Y-114980318D02*
X146582227Y-114986837D01*
X146695453Y-115021184D01*
X146752067Y-115038357D01*
X146813550Y-115071221D01*
X146908591Y-115122022D01*
X146914927Y-115127222D01*
X147045786Y-115234614D01*
X147116687Y-115321009D01*
X147158378Y-115371809D01*
X147167948Y-115389713D01*
X147242043Y-115528333D01*
X147259216Y-115584947D01*
X147293563Y-115698173D01*
X147310959Y-115874800D01*
X147293563Y-116051427D01*
X147259216Y-116164653D01*
X147242043Y-116221267D01*
X147167948Y-116359887D01*
X147158378Y-116377791D01*
X147154112Y-116382989D01*
X147045786Y-116514986D01*
X146944329Y-116598248D01*
X146908591Y-116627578D01*
X146908589Y-116627579D01*
X146752067Y-116711243D01*
X146706715Y-116725000D01*
X146582227Y-116762763D01*
X146516043Y-116769281D01*
X146449860Y-116775800D01*
X146361340Y-116775800D01*
X146295157Y-116769281D01*
X146228973Y-116762763D01*
X146104485Y-116725000D01*
X146059133Y-116711243D01*
X145902611Y-116627579D01*
X145902609Y-116627578D01*
X145866871Y-116598248D01*
X145765414Y-116514986D01*
X145657088Y-116382989D01*
X145652822Y-116377791D01*
X145643252Y-116359887D01*
X145569157Y-116221267D01*
X145551984Y-116164653D01*
X145517637Y-116051427D01*
X145500241Y-115874800D01*
X145517637Y-115698173D01*
X145551984Y-115584947D01*
X145569157Y-115528333D01*
X145643252Y-115389713D01*
X145652822Y-115371809D01*
X145694513Y-115321009D01*
X145765414Y-115234614D01*
X145896273Y-115127222D01*
X145902609Y-115122022D01*
X145997650Y-115071221D01*
X146059133Y-115038357D01*
X146115747Y-115021184D01*
X146228973Y-114986837D01*
X146295158Y-114980318D01*
X146361340Y-114973800D01*
X146449860Y-114973800D01*
X146516042Y-114980318D01*
X146516042Y-114980318D01*
G37*
G36*
X143976042Y-114980318D02*
X144042227Y-114986837D01*
X144155453Y-115021184D01*
X144212067Y-115038357D01*
X144273550Y-115071221D01*
X144368591Y-115122022D01*
X144374927Y-115127222D01*
X144505786Y-115234614D01*
X144576687Y-115321009D01*
X144618378Y-115371809D01*
X144627948Y-115389713D01*
X144702043Y-115528333D01*
X144719216Y-115584947D01*
X144753563Y-115698173D01*
X144770959Y-115874800D01*
X144753563Y-116051427D01*
X144719216Y-116164653D01*
X144702043Y-116221267D01*
X144627948Y-116359887D01*
X144618378Y-116377791D01*
X144614112Y-116382989D01*
X144505786Y-116514986D01*
X144404329Y-116598248D01*
X144368591Y-116627578D01*
X144368589Y-116627579D01*
X144212067Y-116711243D01*
X144166715Y-116725000D01*
X144042227Y-116762763D01*
X143976043Y-116769281D01*
X143909860Y-116775800D01*
X143821340Y-116775800D01*
X143755157Y-116769281D01*
X143688973Y-116762763D01*
X143564485Y-116725000D01*
X143519133Y-116711243D01*
X143362611Y-116627579D01*
X143362609Y-116627578D01*
X143326871Y-116598248D01*
X143225414Y-116514986D01*
X143117088Y-116382989D01*
X143112822Y-116377791D01*
X143103252Y-116359887D01*
X143029157Y-116221267D01*
X143011984Y-116164653D01*
X142977637Y-116051427D01*
X142960241Y-115874800D01*
X142977637Y-115698173D01*
X143011984Y-115584947D01*
X143029157Y-115528333D01*
X143103252Y-115389713D01*
X143112822Y-115371809D01*
X143154513Y-115321009D01*
X143225414Y-115234614D01*
X143356273Y-115127222D01*
X143362609Y-115122022D01*
X143457650Y-115071221D01*
X143519133Y-115038357D01*
X143575747Y-115021184D01*
X143688973Y-114986837D01*
X143755158Y-114980318D01*
X143821340Y-114973800D01*
X143909860Y-114973800D01*
X143976042Y-114980318D01*
X143976042Y-114980318D01*
G37*
G36*
X141436042Y-114980318D02*
X141502227Y-114986837D01*
X141615453Y-115021184D01*
X141672067Y-115038357D01*
X141733550Y-115071221D01*
X141828591Y-115122022D01*
X141834927Y-115127222D01*
X141965786Y-115234614D01*
X142036687Y-115321009D01*
X142078378Y-115371809D01*
X142087948Y-115389713D01*
X142162043Y-115528333D01*
X142179216Y-115584947D01*
X142213563Y-115698173D01*
X142230959Y-115874800D01*
X142213563Y-116051427D01*
X142179216Y-116164653D01*
X142162043Y-116221267D01*
X142087948Y-116359887D01*
X142078378Y-116377791D01*
X142074112Y-116382989D01*
X141965786Y-116514986D01*
X141864329Y-116598248D01*
X141828591Y-116627578D01*
X141828589Y-116627579D01*
X141672067Y-116711243D01*
X141626715Y-116725000D01*
X141502227Y-116762763D01*
X141436043Y-116769281D01*
X141369860Y-116775800D01*
X141281340Y-116775800D01*
X141215157Y-116769281D01*
X141148973Y-116762763D01*
X141024485Y-116725000D01*
X140979133Y-116711243D01*
X140822611Y-116627579D01*
X140822609Y-116627578D01*
X140786871Y-116598248D01*
X140685414Y-116514986D01*
X140577088Y-116382989D01*
X140572822Y-116377791D01*
X140563252Y-116359887D01*
X140489157Y-116221267D01*
X140471984Y-116164653D01*
X140437637Y-116051427D01*
X140420241Y-115874800D01*
X140437637Y-115698173D01*
X140471984Y-115584947D01*
X140489157Y-115528333D01*
X140563252Y-115389713D01*
X140572822Y-115371809D01*
X140614513Y-115321009D01*
X140685414Y-115234614D01*
X140816273Y-115127222D01*
X140822609Y-115122022D01*
X140917650Y-115071221D01*
X140979133Y-115038357D01*
X141035747Y-115021184D01*
X141148973Y-114986837D01*
X141215158Y-114980318D01*
X141281340Y-114973800D01*
X141369860Y-114973800D01*
X141436042Y-114980318D01*
X141436042Y-114980318D01*
G37*
G36*
X138896042Y-114980318D02*
X138962227Y-114986837D01*
X139075453Y-115021184D01*
X139132067Y-115038357D01*
X139193550Y-115071221D01*
X139288591Y-115122022D01*
X139294927Y-115127222D01*
X139425786Y-115234614D01*
X139496687Y-115321009D01*
X139538378Y-115371809D01*
X139547948Y-115389713D01*
X139622043Y-115528333D01*
X139639216Y-115584947D01*
X139673563Y-115698173D01*
X139690959Y-115874800D01*
X139673563Y-116051427D01*
X139639216Y-116164653D01*
X139622043Y-116221267D01*
X139547948Y-116359887D01*
X139538378Y-116377791D01*
X139534112Y-116382989D01*
X139425786Y-116514986D01*
X139324329Y-116598248D01*
X139288591Y-116627578D01*
X139288589Y-116627579D01*
X139132067Y-116711243D01*
X139086715Y-116725000D01*
X138962227Y-116762763D01*
X138896043Y-116769281D01*
X138829860Y-116775800D01*
X138741340Y-116775800D01*
X138675157Y-116769281D01*
X138608973Y-116762763D01*
X138484485Y-116725000D01*
X138439133Y-116711243D01*
X138282611Y-116627579D01*
X138282609Y-116627578D01*
X138246871Y-116598248D01*
X138145414Y-116514986D01*
X138037088Y-116382989D01*
X138032822Y-116377791D01*
X138023252Y-116359887D01*
X137949157Y-116221267D01*
X137931984Y-116164653D01*
X137897637Y-116051427D01*
X137880241Y-115874800D01*
X137897637Y-115698173D01*
X137931984Y-115584947D01*
X137949157Y-115528333D01*
X138023252Y-115389713D01*
X138032822Y-115371809D01*
X138074513Y-115321009D01*
X138145414Y-115234614D01*
X138276273Y-115127222D01*
X138282609Y-115122022D01*
X138377650Y-115071221D01*
X138439133Y-115038357D01*
X138495747Y-115021184D01*
X138608973Y-114986837D01*
X138675158Y-114980318D01*
X138741340Y-114973800D01*
X138829860Y-114973800D01*
X138896042Y-114980318D01*
X138896042Y-114980318D01*
G37*
G36*
X136356042Y-114980318D02*
X136422227Y-114986837D01*
X136535453Y-115021184D01*
X136592067Y-115038357D01*
X136653550Y-115071221D01*
X136748591Y-115122022D01*
X136754927Y-115127222D01*
X136885786Y-115234614D01*
X136956687Y-115321009D01*
X136998378Y-115371809D01*
X137007948Y-115389713D01*
X137082043Y-115528333D01*
X137099216Y-115584947D01*
X137133563Y-115698173D01*
X137150959Y-115874800D01*
X137133563Y-116051427D01*
X137099216Y-116164653D01*
X137082043Y-116221267D01*
X137007948Y-116359887D01*
X136998378Y-116377791D01*
X136994112Y-116382989D01*
X136885786Y-116514986D01*
X136784329Y-116598248D01*
X136748591Y-116627578D01*
X136748589Y-116627579D01*
X136592067Y-116711243D01*
X136546715Y-116725000D01*
X136422227Y-116762763D01*
X136356043Y-116769281D01*
X136289860Y-116775800D01*
X136201340Y-116775800D01*
X136135157Y-116769281D01*
X136068973Y-116762763D01*
X135944485Y-116725000D01*
X135899133Y-116711243D01*
X135742611Y-116627579D01*
X135742609Y-116627578D01*
X135706871Y-116598248D01*
X135605414Y-116514986D01*
X135497088Y-116382989D01*
X135492822Y-116377791D01*
X135483252Y-116359887D01*
X135409157Y-116221267D01*
X135391984Y-116164653D01*
X135357637Y-116051427D01*
X135340241Y-115874800D01*
X135357637Y-115698173D01*
X135391984Y-115584947D01*
X135409157Y-115528333D01*
X135483252Y-115389713D01*
X135492822Y-115371809D01*
X135534513Y-115321009D01*
X135605414Y-115234614D01*
X135736273Y-115127222D01*
X135742609Y-115122022D01*
X135837650Y-115071221D01*
X135899133Y-115038357D01*
X135955747Y-115021184D01*
X136068973Y-114986837D01*
X136135158Y-114980318D01*
X136201340Y-114973800D01*
X136289860Y-114973800D01*
X136356042Y-114980318D01*
X136356042Y-114980318D01*
G37*
G36*
X131276042Y-114980318D02*
X131342227Y-114986837D01*
X131455453Y-115021184D01*
X131512067Y-115038357D01*
X131573550Y-115071221D01*
X131668591Y-115122022D01*
X131674927Y-115127222D01*
X131805786Y-115234614D01*
X131876687Y-115321009D01*
X131918378Y-115371809D01*
X131927948Y-115389713D01*
X132002043Y-115528333D01*
X132019216Y-115584947D01*
X132053563Y-115698173D01*
X132070959Y-115874800D01*
X132053563Y-116051427D01*
X132019216Y-116164653D01*
X132002043Y-116221267D01*
X131927948Y-116359887D01*
X131918378Y-116377791D01*
X131914112Y-116382989D01*
X131805786Y-116514986D01*
X131704329Y-116598248D01*
X131668591Y-116627578D01*
X131668589Y-116627579D01*
X131512067Y-116711243D01*
X131466715Y-116725000D01*
X131342227Y-116762763D01*
X131276043Y-116769281D01*
X131209860Y-116775800D01*
X131121340Y-116775800D01*
X131055157Y-116769281D01*
X130988973Y-116762763D01*
X130864485Y-116725000D01*
X130819133Y-116711243D01*
X130662611Y-116627579D01*
X130662609Y-116627578D01*
X130626871Y-116598248D01*
X130525414Y-116514986D01*
X130417088Y-116382989D01*
X130412822Y-116377791D01*
X130403252Y-116359887D01*
X130329157Y-116221267D01*
X130311984Y-116164653D01*
X130277637Y-116051427D01*
X130260241Y-115874800D01*
X130277637Y-115698173D01*
X130311984Y-115584947D01*
X130329157Y-115528333D01*
X130403252Y-115389713D01*
X130412822Y-115371809D01*
X130454513Y-115321009D01*
X130525414Y-115234614D01*
X130656273Y-115127222D01*
X130662609Y-115122022D01*
X130757650Y-115071221D01*
X130819133Y-115038357D01*
X130875747Y-115021184D01*
X130988973Y-114986837D01*
X131055158Y-114980318D01*
X131121340Y-114973800D01*
X131209860Y-114973800D01*
X131276042Y-114980318D01*
X131276042Y-114980318D01*
G37*
G36*
X128736042Y-114980318D02*
X128802227Y-114986837D01*
X128915453Y-115021184D01*
X128972067Y-115038357D01*
X129033550Y-115071221D01*
X129128591Y-115122022D01*
X129134927Y-115127222D01*
X129265786Y-115234614D01*
X129336687Y-115321009D01*
X129378378Y-115371809D01*
X129387948Y-115389713D01*
X129462043Y-115528333D01*
X129479216Y-115584947D01*
X129513563Y-115698173D01*
X129530959Y-115874800D01*
X129513563Y-116051427D01*
X129479216Y-116164653D01*
X129462043Y-116221267D01*
X129387948Y-116359887D01*
X129378378Y-116377791D01*
X129374112Y-116382989D01*
X129265786Y-116514986D01*
X129164329Y-116598248D01*
X129128591Y-116627578D01*
X129128589Y-116627579D01*
X128972067Y-116711243D01*
X128926715Y-116725000D01*
X128802227Y-116762763D01*
X128736043Y-116769281D01*
X128669860Y-116775800D01*
X128581340Y-116775800D01*
X128515157Y-116769281D01*
X128448973Y-116762763D01*
X128324485Y-116725000D01*
X128279133Y-116711243D01*
X128122611Y-116627579D01*
X128122609Y-116627578D01*
X128086871Y-116598248D01*
X127985414Y-116514986D01*
X127877088Y-116382989D01*
X127872822Y-116377791D01*
X127863252Y-116359887D01*
X127789157Y-116221267D01*
X127771984Y-116164653D01*
X127737637Y-116051427D01*
X127720241Y-115874800D01*
X127737637Y-115698173D01*
X127771984Y-115584947D01*
X127789157Y-115528333D01*
X127863252Y-115389713D01*
X127872822Y-115371809D01*
X127914513Y-115321009D01*
X127985414Y-115234614D01*
X128116273Y-115127222D01*
X128122609Y-115122022D01*
X128217650Y-115071221D01*
X128279133Y-115038357D01*
X128335747Y-115021184D01*
X128448973Y-114986837D01*
X128515158Y-114980318D01*
X128581340Y-114973800D01*
X128669860Y-114973800D01*
X128736042Y-114980318D01*
X128736042Y-114980318D01*
G37*
G36*
X126196042Y-114980318D02*
X126262227Y-114986837D01*
X126375453Y-115021184D01*
X126432067Y-115038357D01*
X126493550Y-115071221D01*
X126588591Y-115122022D01*
X126594927Y-115127222D01*
X126725786Y-115234614D01*
X126796687Y-115321009D01*
X126838378Y-115371809D01*
X126847948Y-115389713D01*
X126922043Y-115528333D01*
X126939216Y-115584947D01*
X126973563Y-115698173D01*
X126990959Y-115874800D01*
X126973563Y-116051427D01*
X126939216Y-116164653D01*
X126922043Y-116221267D01*
X126847948Y-116359887D01*
X126838378Y-116377791D01*
X126834112Y-116382989D01*
X126725786Y-116514986D01*
X126624329Y-116598248D01*
X126588591Y-116627578D01*
X126588589Y-116627579D01*
X126432067Y-116711243D01*
X126386715Y-116725000D01*
X126262227Y-116762763D01*
X126196043Y-116769281D01*
X126129860Y-116775800D01*
X126041340Y-116775800D01*
X125975157Y-116769281D01*
X125908973Y-116762763D01*
X125784485Y-116725000D01*
X125739133Y-116711243D01*
X125582611Y-116627579D01*
X125582609Y-116627578D01*
X125546871Y-116598248D01*
X125445414Y-116514986D01*
X125337088Y-116382989D01*
X125332822Y-116377791D01*
X125323252Y-116359887D01*
X125249157Y-116221267D01*
X125231984Y-116164653D01*
X125197637Y-116051427D01*
X125180241Y-115874800D01*
X125197637Y-115698173D01*
X125231984Y-115584947D01*
X125249157Y-115528333D01*
X125323252Y-115389713D01*
X125332822Y-115371809D01*
X125374513Y-115321009D01*
X125445414Y-115234614D01*
X125576273Y-115127222D01*
X125582609Y-115122022D01*
X125677650Y-115071221D01*
X125739133Y-115038357D01*
X125795747Y-115021184D01*
X125908973Y-114986837D01*
X125975158Y-114980318D01*
X126041340Y-114973800D01*
X126129860Y-114973800D01*
X126196042Y-114980318D01*
X126196042Y-114980318D01*
G37*
G36*
X149846600Y-116775800D02*
X148044600Y-116775800D01*
X148044600Y-114973800D01*
X149846600Y-114973800D01*
X149846600Y-116775800D01*
X149846600Y-116775800D01*
G37*
G36*
X123656042Y-114980318D02*
X123722227Y-114986837D01*
X123835453Y-115021184D01*
X123892067Y-115038357D01*
X123953550Y-115071221D01*
X124048591Y-115122022D01*
X124054927Y-115127222D01*
X124185786Y-115234614D01*
X124256687Y-115321009D01*
X124298378Y-115371809D01*
X124307948Y-115389713D01*
X124382043Y-115528333D01*
X124399216Y-115584947D01*
X124433563Y-115698173D01*
X124450959Y-115874800D01*
X124433563Y-116051427D01*
X124399216Y-116164653D01*
X124382043Y-116221267D01*
X124307948Y-116359887D01*
X124298378Y-116377791D01*
X124294112Y-116382989D01*
X124185786Y-116514986D01*
X124084329Y-116598248D01*
X124048591Y-116627578D01*
X124048589Y-116627579D01*
X123892067Y-116711243D01*
X123846715Y-116725000D01*
X123722227Y-116762763D01*
X123656043Y-116769281D01*
X123589860Y-116775800D01*
X123501340Y-116775800D01*
X123435157Y-116769281D01*
X123368973Y-116762763D01*
X123244485Y-116725000D01*
X123199133Y-116711243D01*
X123042611Y-116627579D01*
X123042609Y-116627578D01*
X123006871Y-116598248D01*
X122905414Y-116514986D01*
X122797088Y-116382989D01*
X122792822Y-116377791D01*
X122783252Y-116359887D01*
X122709157Y-116221267D01*
X122691984Y-116164653D01*
X122657637Y-116051427D01*
X122640241Y-115874800D01*
X122657637Y-115698173D01*
X122691984Y-115584947D01*
X122709157Y-115528333D01*
X122783252Y-115389713D01*
X122792822Y-115371809D01*
X122834513Y-115321009D01*
X122905414Y-115234614D01*
X123036273Y-115127222D01*
X123042609Y-115122022D01*
X123137650Y-115071221D01*
X123199133Y-115038357D01*
X123255747Y-115021184D01*
X123368973Y-114986837D01*
X123435158Y-114980318D01*
X123501340Y-114973800D01*
X123589860Y-114973800D01*
X123656042Y-114980318D01*
X123656042Y-114980318D01*
G37*
G36*
X121116042Y-114980318D02*
X121182227Y-114986837D01*
X121295453Y-115021184D01*
X121352067Y-115038357D01*
X121413550Y-115071221D01*
X121508591Y-115122022D01*
X121514927Y-115127222D01*
X121645786Y-115234614D01*
X121716687Y-115321009D01*
X121758378Y-115371809D01*
X121767948Y-115389713D01*
X121842043Y-115528333D01*
X121859216Y-115584947D01*
X121893563Y-115698173D01*
X121910959Y-115874800D01*
X121893563Y-116051427D01*
X121859216Y-116164653D01*
X121842043Y-116221267D01*
X121767948Y-116359887D01*
X121758378Y-116377791D01*
X121754112Y-116382989D01*
X121645786Y-116514986D01*
X121544329Y-116598248D01*
X121508591Y-116627578D01*
X121508589Y-116627579D01*
X121352067Y-116711243D01*
X121306715Y-116725000D01*
X121182227Y-116762763D01*
X121116043Y-116769281D01*
X121049860Y-116775800D01*
X120961340Y-116775800D01*
X120895157Y-116769281D01*
X120828973Y-116762763D01*
X120704485Y-116725000D01*
X120659133Y-116711243D01*
X120502611Y-116627579D01*
X120502609Y-116627578D01*
X120466871Y-116598248D01*
X120365414Y-116514986D01*
X120257088Y-116382989D01*
X120252822Y-116377791D01*
X120243252Y-116359887D01*
X120169157Y-116221267D01*
X120151984Y-116164653D01*
X120117637Y-116051427D01*
X120100241Y-115874800D01*
X120117637Y-115698173D01*
X120151984Y-115584947D01*
X120169157Y-115528333D01*
X120243252Y-115389713D01*
X120252822Y-115371809D01*
X120294513Y-115321009D01*
X120365414Y-115234614D01*
X120496273Y-115127222D01*
X120502609Y-115122022D01*
X120597650Y-115071221D01*
X120659133Y-115038357D01*
X120715747Y-115021184D01*
X120828973Y-114986837D01*
X120895158Y-114980318D01*
X120961340Y-114973800D01*
X121049860Y-114973800D01*
X121116042Y-114980318D01*
X121116042Y-114980318D01*
G37*
G36*
X105876042Y-114980318D02*
X105942227Y-114986837D01*
X106055453Y-115021184D01*
X106112067Y-115038357D01*
X106173550Y-115071221D01*
X106268591Y-115122022D01*
X106274927Y-115127222D01*
X106405786Y-115234614D01*
X106476687Y-115321009D01*
X106518378Y-115371809D01*
X106527948Y-115389713D01*
X106602043Y-115528333D01*
X106619216Y-115584947D01*
X106653563Y-115698173D01*
X106670959Y-115874800D01*
X106653563Y-116051427D01*
X106619216Y-116164653D01*
X106602043Y-116221267D01*
X106527948Y-116359887D01*
X106518378Y-116377791D01*
X106514112Y-116382989D01*
X106405786Y-116514986D01*
X106304329Y-116598248D01*
X106268591Y-116627578D01*
X106268589Y-116627579D01*
X106112067Y-116711243D01*
X106066715Y-116725000D01*
X105942227Y-116762763D01*
X105876043Y-116769281D01*
X105809860Y-116775800D01*
X105721340Y-116775800D01*
X105655157Y-116769281D01*
X105588973Y-116762763D01*
X105464485Y-116725000D01*
X105419133Y-116711243D01*
X105262611Y-116627579D01*
X105262609Y-116627578D01*
X105226871Y-116598248D01*
X105125414Y-116514986D01*
X105017088Y-116382989D01*
X105012822Y-116377791D01*
X105003252Y-116359887D01*
X104929157Y-116221267D01*
X104911984Y-116164653D01*
X104877637Y-116051427D01*
X104860241Y-115874800D01*
X104877637Y-115698173D01*
X104911984Y-115584947D01*
X104929157Y-115528333D01*
X105003252Y-115389713D01*
X105012822Y-115371809D01*
X105054513Y-115321009D01*
X105125414Y-115234614D01*
X105256273Y-115127222D01*
X105262609Y-115122022D01*
X105357650Y-115071221D01*
X105419133Y-115038357D01*
X105475747Y-115021184D01*
X105588973Y-114986837D01*
X105655158Y-114980318D01*
X105721340Y-114973800D01*
X105809860Y-114973800D01*
X105876042Y-114980318D01*
X105876042Y-114980318D01*
G37*
G36*
X108416042Y-114980318D02*
X108482227Y-114986837D01*
X108595453Y-115021184D01*
X108652067Y-115038357D01*
X108713550Y-115071221D01*
X108808591Y-115122022D01*
X108814927Y-115127222D01*
X108945786Y-115234614D01*
X109016687Y-115321009D01*
X109058378Y-115371809D01*
X109067948Y-115389713D01*
X109142043Y-115528333D01*
X109159216Y-115584947D01*
X109193563Y-115698173D01*
X109210959Y-115874800D01*
X109193563Y-116051427D01*
X109159216Y-116164653D01*
X109142043Y-116221267D01*
X109067948Y-116359887D01*
X109058378Y-116377791D01*
X109054112Y-116382989D01*
X108945786Y-116514986D01*
X108844329Y-116598248D01*
X108808591Y-116627578D01*
X108808589Y-116627579D01*
X108652067Y-116711243D01*
X108606715Y-116725000D01*
X108482227Y-116762763D01*
X108416043Y-116769281D01*
X108349860Y-116775800D01*
X108261340Y-116775800D01*
X108195157Y-116769281D01*
X108128973Y-116762763D01*
X108004485Y-116725000D01*
X107959133Y-116711243D01*
X107802611Y-116627579D01*
X107802609Y-116627578D01*
X107766871Y-116598248D01*
X107665414Y-116514986D01*
X107557088Y-116382989D01*
X107552822Y-116377791D01*
X107543252Y-116359887D01*
X107469157Y-116221267D01*
X107451984Y-116164653D01*
X107417637Y-116051427D01*
X107400241Y-115874800D01*
X107417637Y-115698173D01*
X107451984Y-115584947D01*
X107469157Y-115528333D01*
X107543252Y-115389713D01*
X107552822Y-115371809D01*
X107594513Y-115321009D01*
X107665414Y-115234614D01*
X107796273Y-115127222D01*
X107802609Y-115122022D01*
X107897650Y-115071221D01*
X107959133Y-115038357D01*
X108015747Y-115021184D01*
X108128973Y-114986837D01*
X108195158Y-114980318D01*
X108261340Y-114973800D01*
X108349860Y-114973800D01*
X108416042Y-114980318D01*
X108416042Y-114980318D01*
G37*
G36*
X110956042Y-114980318D02*
X111022227Y-114986837D01*
X111135453Y-115021184D01*
X111192067Y-115038357D01*
X111253550Y-115071221D01*
X111348591Y-115122022D01*
X111354927Y-115127222D01*
X111485786Y-115234614D01*
X111556687Y-115321009D01*
X111598378Y-115371809D01*
X111607948Y-115389713D01*
X111682043Y-115528333D01*
X111699216Y-115584947D01*
X111733563Y-115698173D01*
X111750959Y-115874800D01*
X111733563Y-116051427D01*
X111699216Y-116164653D01*
X111682043Y-116221267D01*
X111607948Y-116359887D01*
X111598378Y-116377791D01*
X111594112Y-116382989D01*
X111485786Y-116514986D01*
X111384329Y-116598248D01*
X111348591Y-116627578D01*
X111348589Y-116627579D01*
X111192067Y-116711243D01*
X111146715Y-116725000D01*
X111022227Y-116762763D01*
X110956043Y-116769281D01*
X110889860Y-116775800D01*
X110801340Y-116775800D01*
X110735157Y-116769281D01*
X110668973Y-116762763D01*
X110544485Y-116725000D01*
X110499133Y-116711243D01*
X110342611Y-116627579D01*
X110342609Y-116627578D01*
X110306871Y-116598248D01*
X110205414Y-116514986D01*
X110097088Y-116382989D01*
X110092822Y-116377791D01*
X110083252Y-116359887D01*
X110009157Y-116221267D01*
X109991984Y-116164653D01*
X109957637Y-116051427D01*
X109940241Y-115874800D01*
X109957637Y-115698173D01*
X109991984Y-115584947D01*
X110009157Y-115528333D01*
X110083252Y-115389713D01*
X110092822Y-115371809D01*
X110134513Y-115321009D01*
X110205414Y-115234614D01*
X110336273Y-115127222D01*
X110342609Y-115122022D01*
X110437650Y-115071221D01*
X110499133Y-115038357D01*
X110555747Y-115021184D01*
X110668973Y-114986837D01*
X110735158Y-114980318D01*
X110801340Y-114973800D01*
X110889860Y-114973800D01*
X110956042Y-114980318D01*
X110956042Y-114980318D01*
G37*
G36*
X113496042Y-114980318D02*
X113562227Y-114986837D01*
X113675453Y-115021184D01*
X113732067Y-115038357D01*
X113793550Y-115071221D01*
X113888591Y-115122022D01*
X113894927Y-115127222D01*
X114025786Y-115234614D01*
X114096687Y-115321009D01*
X114138378Y-115371809D01*
X114147948Y-115389713D01*
X114222043Y-115528333D01*
X114239216Y-115584947D01*
X114273563Y-115698173D01*
X114290959Y-115874800D01*
X114273563Y-116051427D01*
X114239216Y-116164653D01*
X114222043Y-116221267D01*
X114147948Y-116359887D01*
X114138378Y-116377791D01*
X114134112Y-116382989D01*
X114025786Y-116514986D01*
X113924329Y-116598248D01*
X113888591Y-116627578D01*
X113888589Y-116627579D01*
X113732067Y-116711243D01*
X113686715Y-116725000D01*
X113562227Y-116762763D01*
X113496043Y-116769281D01*
X113429860Y-116775800D01*
X113341340Y-116775800D01*
X113275157Y-116769281D01*
X113208973Y-116762763D01*
X113084485Y-116725000D01*
X113039133Y-116711243D01*
X112882611Y-116627579D01*
X112882609Y-116627578D01*
X112846871Y-116598248D01*
X112745414Y-116514986D01*
X112637088Y-116382989D01*
X112632822Y-116377791D01*
X112623252Y-116359887D01*
X112549157Y-116221267D01*
X112531984Y-116164653D01*
X112497637Y-116051427D01*
X112480241Y-115874800D01*
X112497637Y-115698173D01*
X112531984Y-115584947D01*
X112549157Y-115528333D01*
X112623252Y-115389713D01*
X112632822Y-115371809D01*
X112674513Y-115321009D01*
X112745414Y-115234614D01*
X112876273Y-115127222D01*
X112882609Y-115122022D01*
X112977650Y-115071221D01*
X113039133Y-115038357D01*
X113095747Y-115021184D01*
X113208973Y-114986837D01*
X113275158Y-114980318D01*
X113341340Y-114973800D01*
X113429860Y-114973800D01*
X113496042Y-114980318D01*
X113496042Y-114980318D01*
G37*
G36*
X116036042Y-114980318D02*
X116102227Y-114986837D01*
X116215453Y-115021184D01*
X116272067Y-115038357D01*
X116333550Y-115071221D01*
X116428591Y-115122022D01*
X116434927Y-115127222D01*
X116565786Y-115234614D01*
X116636687Y-115321009D01*
X116678378Y-115371809D01*
X116687948Y-115389713D01*
X116762043Y-115528333D01*
X116779216Y-115584947D01*
X116813563Y-115698173D01*
X116830959Y-115874800D01*
X116813563Y-116051427D01*
X116779216Y-116164653D01*
X116762043Y-116221267D01*
X116687948Y-116359887D01*
X116678378Y-116377791D01*
X116674112Y-116382989D01*
X116565786Y-116514986D01*
X116464329Y-116598248D01*
X116428591Y-116627578D01*
X116428589Y-116627579D01*
X116272067Y-116711243D01*
X116226715Y-116725000D01*
X116102227Y-116762763D01*
X116036043Y-116769281D01*
X115969860Y-116775800D01*
X115881340Y-116775800D01*
X115815157Y-116769281D01*
X115748973Y-116762763D01*
X115624485Y-116725000D01*
X115579133Y-116711243D01*
X115422611Y-116627579D01*
X115422609Y-116627578D01*
X115386871Y-116598248D01*
X115285414Y-116514986D01*
X115177088Y-116382989D01*
X115172822Y-116377791D01*
X115163252Y-116359887D01*
X115089157Y-116221267D01*
X115071984Y-116164653D01*
X115037637Y-116051427D01*
X115020241Y-115874800D01*
X115037637Y-115698173D01*
X115071984Y-115584947D01*
X115089157Y-115528333D01*
X115163252Y-115389713D01*
X115172822Y-115371809D01*
X115214513Y-115321009D01*
X115285414Y-115234614D01*
X115416273Y-115127222D01*
X115422609Y-115122022D01*
X115517650Y-115071221D01*
X115579133Y-115038357D01*
X115635747Y-115021184D01*
X115748973Y-114986837D01*
X115815158Y-114980318D01*
X115881340Y-114973800D01*
X115969860Y-114973800D01*
X116036042Y-114980318D01*
X116036042Y-114980318D01*
G37*
G36*
X118576042Y-114980318D02*
X118642227Y-114986837D01*
X118755453Y-115021184D01*
X118812067Y-115038357D01*
X118873550Y-115071221D01*
X118968591Y-115122022D01*
X118974927Y-115127222D01*
X119105786Y-115234614D01*
X119176687Y-115321009D01*
X119218378Y-115371809D01*
X119227948Y-115389713D01*
X119302043Y-115528333D01*
X119319216Y-115584947D01*
X119353563Y-115698173D01*
X119370959Y-115874800D01*
X119353563Y-116051427D01*
X119319216Y-116164653D01*
X119302043Y-116221267D01*
X119227948Y-116359887D01*
X119218378Y-116377791D01*
X119214112Y-116382989D01*
X119105786Y-116514986D01*
X119004329Y-116598248D01*
X118968591Y-116627578D01*
X118968589Y-116627579D01*
X118812067Y-116711243D01*
X118766715Y-116725000D01*
X118642227Y-116762763D01*
X118576043Y-116769281D01*
X118509860Y-116775800D01*
X118421340Y-116775800D01*
X118355157Y-116769281D01*
X118288973Y-116762763D01*
X118164485Y-116725000D01*
X118119133Y-116711243D01*
X117962611Y-116627579D01*
X117962609Y-116627578D01*
X117926871Y-116598248D01*
X117825414Y-116514986D01*
X117717088Y-116382989D01*
X117712822Y-116377791D01*
X117703252Y-116359887D01*
X117629157Y-116221267D01*
X117611984Y-116164653D01*
X117577637Y-116051427D01*
X117560241Y-115874800D01*
X117577637Y-115698173D01*
X117611984Y-115584947D01*
X117629157Y-115528333D01*
X117703252Y-115389713D01*
X117712822Y-115371809D01*
X117754513Y-115321009D01*
X117825414Y-115234614D01*
X117956273Y-115127222D01*
X117962609Y-115122022D01*
X118057650Y-115071221D01*
X118119133Y-115038357D01*
X118175747Y-115021184D01*
X118288973Y-114986837D01*
X118355158Y-114980318D01*
X118421340Y-114973800D01*
X118509860Y-114973800D01*
X118576042Y-114980318D01*
X118576042Y-114980318D01*
G37*
G36*
X157399943Y-114929519D02*
X157466127Y-114936037D01*
X157579353Y-114970384D01*
X157635967Y-114987557D01*
X157740734Y-115043557D01*
X157792491Y-115071222D01*
X157828229Y-115100552D01*
X157929686Y-115183814D01*
X158012948Y-115285271D01*
X158042278Y-115321009D01*
X158042279Y-115321011D01*
X158125943Y-115477533D01*
X158125943Y-115477534D01*
X158177463Y-115647373D01*
X158194859Y-115824000D01*
X158177463Y-116000627D01*
X158143116Y-116113853D01*
X158125943Y-116170467D01*
X158098790Y-116221266D01*
X158042278Y-116326991D01*
X158012948Y-116362729D01*
X157929686Y-116464186D01*
X157828229Y-116547448D01*
X157792491Y-116576778D01*
X157792489Y-116576779D01*
X157635967Y-116660443D01*
X157579353Y-116677616D01*
X157466127Y-116711963D01*
X157399943Y-116718481D01*
X157333760Y-116725000D01*
X157245240Y-116725000D01*
X157179057Y-116718481D01*
X157112873Y-116711963D01*
X156999647Y-116677616D01*
X156943033Y-116660443D01*
X156786511Y-116576779D01*
X156786509Y-116576778D01*
X156750771Y-116547448D01*
X156649314Y-116464186D01*
X156566052Y-116362729D01*
X156536722Y-116326991D01*
X156480210Y-116221266D01*
X156453057Y-116170467D01*
X156435884Y-116113853D01*
X156401537Y-116000627D01*
X156384141Y-115824000D01*
X156401537Y-115647373D01*
X156453057Y-115477534D01*
X156453057Y-115477533D01*
X156536721Y-115321011D01*
X156536722Y-115321009D01*
X156566052Y-115285271D01*
X156649314Y-115183814D01*
X156750771Y-115100552D01*
X156786509Y-115071222D01*
X156838266Y-115043557D01*
X156943033Y-114987557D01*
X156999647Y-114970384D01*
X157112873Y-114936037D01*
X157179057Y-114929519D01*
X157245240Y-114923000D01*
X157333760Y-114923000D01*
X157399943Y-114929519D01*
X157399943Y-114929519D01*
G37*
G36*
X97060443Y-112445519D02*
X97126627Y-112452037D01*
X97239853Y-112486384D01*
X97296467Y-112503557D01*
X97435087Y-112577652D01*
X97452991Y-112587222D01*
X97488729Y-112616552D01*
X97590186Y-112699814D01*
X97673448Y-112801271D01*
X97702778Y-112837009D01*
X97702779Y-112837011D01*
X97786443Y-112993533D01*
X97786443Y-112993534D01*
X97837963Y-113163373D01*
X97855359Y-113340000D01*
X97837963Y-113516627D01*
X97803616Y-113629853D01*
X97786443Y-113686467D01*
X97732712Y-113786989D01*
X97702778Y-113842991D01*
X97673448Y-113878729D01*
X97590186Y-113980186D01*
X97488729Y-114063448D01*
X97452991Y-114092778D01*
X97452989Y-114092779D01*
X97296467Y-114176443D01*
X97239853Y-114193616D01*
X97126627Y-114227963D01*
X97060443Y-114234481D01*
X96994260Y-114241000D01*
X96905740Y-114241000D01*
X96839557Y-114234481D01*
X96773373Y-114227963D01*
X96660147Y-114193616D01*
X96603533Y-114176443D01*
X96447011Y-114092779D01*
X96447009Y-114092778D01*
X96411271Y-114063448D01*
X96309814Y-113980186D01*
X96226552Y-113878729D01*
X96197222Y-113842991D01*
X96167288Y-113786989D01*
X96113557Y-113686467D01*
X96096384Y-113629853D01*
X96062037Y-113516627D01*
X96044641Y-113340000D01*
X96062037Y-113163373D01*
X96113557Y-112993534D01*
X96113557Y-112993533D01*
X96197221Y-112837011D01*
X96197222Y-112837009D01*
X96226552Y-112801271D01*
X96309814Y-112699814D01*
X96411271Y-112616552D01*
X96447009Y-112587222D01*
X96464913Y-112577652D01*
X96603533Y-112503557D01*
X96660147Y-112486384D01*
X96773373Y-112452037D01*
X96839557Y-112445519D01*
X96905740Y-112439000D01*
X96994260Y-112439000D01*
X97060443Y-112445519D01*
X97060443Y-112445519D01*
G37*
G36*
X157399943Y-112389519D02*
X157466127Y-112396037D01*
X157579353Y-112430384D01*
X157635967Y-112447557D01*
X157740734Y-112503557D01*
X157792491Y-112531222D01*
X157828229Y-112560552D01*
X157929686Y-112643814D01*
X158012948Y-112745271D01*
X158042278Y-112781009D01*
X158042279Y-112781011D01*
X158125943Y-112937533D01*
X158125943Y-112937534D01*
X158177463Y-113107373D01*
X158194859Y-113284000D01*
X158177463Y-113460627D01*
X158143116Y-113573853D01*
X158125943Y-113630467D01*
X158096010Y-113686466D01*
X158042278Y-113786991D01*
X158012948Y-113822729D01*
X157929686Y-113924186D01*
X157828229Y-114007448D01*
X157792491Y-114036778D01*
X157792489Y-114036779D01*
X157635967Y-114120443D01*
X157579353Y-114137616D01*
X157466127Y-114171963D01*
X157399942Y-114178482D01*
X157333760Y-114185000D01*
X157245240Y-114185000D01*
X157179058Y-114178482D01*
X157112873Y-114171963D01*
X156999647Y-114137616D01*
X156943033Y-114120443D01*
X156786511Y-114036779D01*
X156786509Y-114036778D01*
X156750771Y-114007448D01*
X156649314Y-113924186D01*
X156566052Y-113822729D01*
X156536722Y-113786991D01*
X156482990Y-113686466D01*
X156453057Y-113630467D01*
X156435884Y-113573853D01*
X156401537Y-113460627D01*
X156384141Y-113284000D01*
X156401537Y-113107373D01*
X156453057Y-112937534D01*
X156453057Y-112937533D01*
X156536721Y-112781011D01*
X156536722Y-112781009D01*
X156566052Y-112745271D01*
X156649314Y-112643814D01*
X156750771Y-112560552D01*
X156786509Y-112531222D01*
X156838266Y-112503557D01*
X156943033Y-112447557D01*
X156999647Y-112430384D01*
X157112873Y-112396037D01*
X157179057Y-112389519D01*
X157245240Y-112383000D01*
X157333760Y-112383000D01*
X157399943Y-112389519D01*
X157399943Y-112389519D01*
G37*
G36*
X97851000Y-111701000D02*
X96049000Y-111701000D01*
X96049000Y-109899000D01*
X97851000Y-109899000D01*
X97851000Y-111701000D01*
X97851000Y-111701000D01*
G37*
G36*
X157399943Y-109849519D02*
X157466127Y-109856037D01*
X157579353Y-109890384D01*
X157635967Y-109907557D01*
X157774587Y-109981652D01*
X157792491Y-109991222D01*
X157828229Y-110020552D01*
X157929686Y-110103814D01*
X158012948Y-110205271D01*
X158042278Y-110241009D01*
X158042279Y-110241011D01*
X158125943Y-110397533D01*
X158125943Y-110397534D01*
X158177463Y-110567373D01*
X158194859Y-110744000D01*
X158177463Y-110920627D01*
X158143116Y-111033853D01*
X158125943Y-111090467D01*
X158051848Y-111229087D01*
X158042278Y-111246991D01*
X158012948Y-111282729D01*
X157929686Y-111384186D01*
X157828229Y-111467448D01*
X157792491Y-111496778D01*
X157792489Y-111496779D01*
X157635967Y-111580443D01*
X157579353Y-111597616D01*
X157466127Y-111631963D01*
X157399943Y-111638481D01*
X157333760Y-111645000D01*
X157245240Y-111645000D01*
X157179057Y-111638481D01*
X157112873Y-111631963D01*
X156999647Y-111597616D01*
X156943033Y-111580443D01*
X156786511Y-111496779D01*
X156786509Y-111496778D01*
X156750771Y-111467448D01*
X156649314Y-111384186D01*
X156566052Y-111282729D01*
X156536722Y-111246991D01*
X156527152Y-111229087D01*
X156453057Y-111090467D01*
X156435884Y-111033853D01*
X156401537Y-110920627D01*
X156384141Y-110744000D01*
X156401537Y-110567373D01*
X156453057Y-110397534D01*
X156453057Y-110397533D01*
X156536721Y-110241011D01*
X156536722Y-110241009D01*
X156566052Y-110205271D01*
X156649314Y-110103814D01*
X156750771Y-110020552D01*
X156786509Y-109991222D01*
X156804413Y-109981652D01*
X156943033Y-109907557D01*
X156999647Y-109890384D01*
X157112873Y-109856037D01*
X157179057Y-109849519D01*
X157245240Y-109843000D01*
X157333760Y-109843000D01*
X157399943Y-109849519D01*
X157399943Y-109849519D01*
G37*
G36*
X157399942Y-107309518D02*
X157466127Y-107316037D01*
X157579353Y-107350384D01*
X157635967Y-107367557D01*
X157774587Y-107441652D01*
X157792491Y-107451222D01*
X157828229Y-107480552D01*
X157929686Y-107563814D01*
X158012948Y-107665271D01*
X158042278Y-107701009D01*
X158042279Y-107701011D01*
X158125943Y-107857533D01*
X158125943Y-107857534D01*
X158177463Y-108027373D01*
X158194859Y-108204000D01*
X158177463Y-108380627D01*
X158143116Y-108493853D01*
X158125943Y-108550467D01*
X158051848Y-108689087D01*
X158042278Y-108706991D01*
X158012948Y-108742729D01*
X157929686Y-108844186D01*
X157828229Y-108927448D01*
X157792491Y-108956778D01*
X157792489Y-108956779D01*
X157635967Y-109040443D01*
X157579353Y-109057616D01*
X157466127Y-109091963D01*
X157399943Y-109098481D01*
X157333760Y-109105000D01*
X157245240Y-109105000D01*
X157179057Y-109098481D01*
X157112873Y-109091963D01*
X156999647Y-109057616D01*
X156943033Y-109040443D01*
X156786511Y-108956779D01*
X156786509Y-108956778D01*
X156750771Y-108927448D01*
X156649314Y-108844186D01*
X156566052Y-108742729D01*
X156536722Y-108706991D01*
X156527152Y-108689087D01*
X156453057Y-108550467D01*
X156435884Y-108493853D01*
X156401537Y-108380627D01*
X156384141Y-108204000D01*
X156401537Y-108027373D01*
X156453057Y-107857534D01*
X156453057Y-107857533D01*
X156536721Y-107701011D01*
X156536722Y-107701009D01*
X156566052Y-107665271D01*
X156649314Y-107563814D01*
X156750771Y-107480552D01*
X156786509Y-107451222D01*
X156804413Y-107441652D01*
X156943033Y-107367557D01*
X156999647Y-107350384D01*
X157112873Y-107316037D01*
X157179058Y-107309518D01*
X157245240Y-107303000D01*
X157333760Y-107303000D01*
X157399942Y-107309518D01*
X157399942Y-107309518D01*
G37*
G36*
X157399942Y-104769518D02*
X157466127Y-104776037D01*
X157579353Y-104810384D01*
X157635967Y-104827557D01*
X157773820Y-104901242D01*
X157792491Y-104911222D01*
X157828229Y-104940552D01*
X157929686Y-105023814D01*
X157993030Y-105101000D01*
X158042278Y-105161009D01*
X158042279Y-105161011D01*
X158125943Y-105317533D01*
X158125943Y-105317534D01*
X158177463Y-105487373D01*
X158194859Y-105664000D01*
X158177463Y-105840627D01*
X158143116Y-105953853D01*
X158125943Y-106010467D01*
X158051848Y-106149087D01*
X158042278Y-106166991D01*
X158012948Y-106202729D01*
X157929686Y-106304186D01*
X157828229Y-106387448D01*
X157792491Y-106416778D01*
X157792489Y-106416779D01*
X157635967Y-106500443D01*
X157579353Y-106517616D01*
X157466127Y-106551963D01*
X157399942Y-106558482D01*
X157333760Y-106565000D01*
X157245240Y-106565000D01*
X157179058Y-106558482D01*
X157112873Y-106551963D01*
X156999647Y-106517616D01*
X156943033Y-106500443D01*
X156786511Y-106416779D01*
X156786509Y-106416778D01*
X156750771Y-106387448D01*
X156649314Y-106304186D01*
X156566052Y-106202729D01*
X156536722Y-106166991D01*
X156527152Y-106149087D01*
X156453057Y-106010467D01*
X156435884Y-105953853D01*
X156401537Y-105840627D01*
X156384141Y-105664000D01*
X156401537Y-105487373D01*
X156453057Y-105317534D01*
X156453057Y-105317533D01*
X156536721Y-105161011D01*
X156536722Y-105161009D01*
X156585970Y-105101000D01*
X156649314Y-105023814D01*
X156750771Y-104940552D01*
X156786509Y-104911222D01*
X156805180Y-104901242D01*
X156943033Y-104827557D01*
X156999647Y-104810384D01*
X157112873Y-104776037D01*
X157179058Y-104769518D01*
X157245240Y-104763000D01*
X157333760Y-104763000D01*
X157399942Y-104769518D01*
X157399942Y-104769518D01*
G37*
G36*
X141660721Y-104020174D02*
X141760995Y-104061709D01*
X141851245Y-104122012D01*
X141927988Y-104198755D01*
X141988291Y-104289005D01*
X142029826Y-104389279D01*
X142051000Y-104495730D01*
X142051000Y-104604270D01*
X142029826Y-104710721D01*
X141988291Y-104810995D01*
X141927988Y-104901245D01*
X141851245Y-104977988D01*
X141760995Y-105038291D01*
X141660721Y-105079826D01*
X141554270Y-105101000D01*
X141445730Y-105101000D01*
X141339279Y-105079826D01*
X141239005Y-105038291D01*
X141148755Y-104977988D01*
X141072012Y-104901245D01*
X141011709Y-104810995D01*
X140970174Y-104710721D01*
X140949000Y-104604270D01*
X140949000Y-104495730D01*
X140970174Y-104389279D01*
X141011709Y-104289005D01*
X141072012Y-104198755D01*
X141148755Y-104122012D01*
X141239005Y-104061709D01*
X141339279Y-104020174D01*
X141445730Y-103999000D01*
X141554270Y-103999000D01*
X141660721Y-104020174D01*
X141660721Y-104020174D01*
G37*
G36*
X143560721Y-104020174D02*
X143660995Y-104061709D01*
X143751245Y-104122012D01*
X143827988Y-104198755D01*
X143888291Y-104289005D01*
X143929826Y-104389279D01*
X143951000Y-104495730D01*
X143951000Y-104604270D01*
X143929826Y-104710721D01*
X143888291Y-104810995D01*
X143827988Y-104901245D01*
X143751245Y-104977988D01*
X143660995Y-105038291D01*
X143560721Y-105079826D01*
X143454270Y-105101000D01*
X143345730Y-105101000D01*
X143239279Y-105079826D01*
X143139005Y-105038291D01*
X143048755Y-104977988D01*
X142972012Y-104901245D01*
X142911709Y-104810995D01*
X142870174Y-104710721D01*
X142849000Y-104604270D01*
X142849000Y-104495730D01*
X142870174Y-104389279D01*
X142911709Y-104289005D01*
X142972012Y-104198755D01*
X143048755Y-104122012D01*
X143139005Y-104061709D01*
X143239279Y-104020174D01*
X143345730Y-103999000D01*
X143454270Y-103999000D01*
X143560721Y-104020174D01*
X143560721Y-104020174D01*
G37*
G36*
X157399943Y-102229519D02*
X157466127Y-102236037D01*
X157579353Y-102270384D01*
X157635967Y-102287557D01*
X157774587Y-102361652D01*
X157792491Y-102371222D01*
X157828229Y-102400552D01*
X157929686Y-102483814D01*
X158012948Y-102585271D01*
X158042278Y-102621009D01*
X158042279Y-102621011D01*
X158125943Y-102777533D01*
X158125943Y-102777534D01*
X158177463Y-102947373D01*
X158194859Y-103124000D01*
X158177463Y-103300627D01*
X158143116Y-103413853D01*
X158125943Y-103470467D01*
X158104713Y-103510185D01*
X158042278Y-103626991D01*
X158012948Y-103662729D01*
X157929686Y-103764186D01*
X157828229Y-103847448D01*
X157792491Y-103876778D01*
X157792489Y-103876779D01*
X157635967Y-103960443D01*
X157579353Y-103977616D01*
X157466127Y-104011963D01*
X157399943Y-104018481D01*
X157333760Y-104025000D01*
X157245240Y-104025000D01*
X157179057Y-104018481D01*
X157112873Y-104011963D01*
X156999647Y-103977616D01*
X156943033Y-103960443D01*
X156786511Y-103876779D01*
X156786509Y-103876778D01*
X156750771Y-103847448D01*
X156649314Y-103764186D01*
X156566052Y-103662729D01*
X156536722Y-103626991D01*
X156474287Y-103510185D01*
X156453057Y-103470467D01*
X156435884Y-103413853D01*
X156401537Y-103300627D01*
X156384141Y-103124000D01*
X156401537Y-102947373D01*
X156453057Y-102777534D01*
X156453057Y-102777533D01*
X156536721Y-102621011D01*
X156536722Y-102621009D01*
X156566052Y-102585271D01*
X156649314Y-102483814D01*
X156750771Y-102400552D01*
X156786509Y-102371222D01*
X156804413Y-102361652D01*
X156943033Y-102287557D01*
X156999647Y-102270384D01*
X157112873Y-102236037D01*
X157179057Y-102229519D01*
X157245240Y-102223000D01*
X157333760Y-102223000D01*
X157399943Y-102229519D01*
X157399943Y-102229519D01*
G37*
G36*
X99470442Y-101975518D02*
X99536627Y-101982037D01*
X99649853Y-102016384D01*
X99706467Y-102033557D01*
X99845087Y-102107652D01*
X99862991Y-102117222D01*
X99898729Y-102146552D01*
X100000186Y-102229814D01*
X100083448Y-102331271D01*
X100112778Y-102367009D01*
X100112779Y-102367011D01*
X100196443Y-102523533D01*
X100196443Y-102523534D01*
X100247963Y-102693373D01*
X100265359Y-102870000D01*
X100247963Y-103046627D01*
X100224492Y-103124000D01*
X100196443Y-103216467D01*
X100151459Y-103300625D01*
X100112778Y-103372991D01*
X100083448Y-103408729D01*
X100000186Y-103510186D01*
X99898729Y-103593448D01*
X99862991Y-103622778D01*
X99862989Y-103622779D01*
X99706467Y-103706443D01*
X99649853Y-103723616D01*
X99536627Y-103757963D01*
X99473453Y-103764185D01*
X99404260Y-103771000D01*
X99315740Y-103771000D01*
X99246547Y-103764185D01*
X99183373Y-103757963D01*
X99070147Y-103723616D01*
X99013533Y-103706443D01*
X98857011Y-103622779D01*
X98857009Y-103622778D01*
X98821271Y-103593448D01*
X98719814Y-103510186D01*
X98636552Y-103408729D01*
X98607222Y-103372991D01*
X98568541Y-103300625D01*
X98523557Y-103216467D01*
X98495508Y-103124000D01*
X98472037Y-103046627D01*
X98454641Y-102870000D01*
X98472037Y-102693373D01*
X98523557Y-102523534D01*
X98523557Y-102523533D01*
X98607221Y-102367011D01*
X98607222Y-102367009D01*
X98636552Y-102331271D01*
X98719814Y-102229814D01*
X98821271Y-102146552D01*
X98857009Y-102117222D01*
X98874913Y-102107652D01*
X99013533Y-102033557D01*
X99070147Y-102016384D01*
X99183373Y-101982037D01*
X99249558Y-101975518D01*
X99315740Y-101969000D01*
X99404260Y-101969000D01*
X99470442Y-101975518D01*
X99470442Y-101975518D01*
G37*
G36*
X96930442Y-101975518D02*
X96996627Y-101982037D01*
X97109853Y-102016384D01*
X97166467Y-102033557D01*
X97305087Y-102107652D01*
X97322991Y-102117222D01*
X97358729Y-102146552D01*
X97460186Y-102229814D01*
X97543448Y-102331271D01*
X97572778Y-102367009D01*
X97572779Y-102367011D01*
X97656443Y-102523533D01*
X97656443Y-102523534D01*
X97707963Y-102693373D01*
X97725359Y-102870000D01*
X97707963Y-103046627D01*
X97684492Y-103124000D01*
X97656443Y-103216467D01*
X97611459Y-103300625D01*
X97572778Y-103372991D01*
X97543448Y-103408729D01*
X97460186Y-103510186D01*
X97358729Y-103593448D01*
X97322991Y-103622778D01*
X97322989Y-103622779D01*
X97166467Y-103706443D01*
X97109853Y-103723616D01*
X96996627Y-103757963D01*
X96933453Y-103764185D01*
X96864260Y-103771000D01*
X96775740Y-103771000D01*
X96706547Y-103764185D01*
X96643373Y-103757963D01*
X96530147Y-103723616D01*
X96473533Y-103706443D01*
X96317011Y-103622779D01*
X96317009Y-103622778D01*
X96281271Y-103593448D01*
X96179814Y-103510186D01*
X96096552Y-103408729D01*
X96067222Y-103372991D01*
X96028541Y-103300625D01*
X95983557Y-103216467D01*
X95955508Y-103124000D01*
X95932037Y-103046627D01*
X95914641Y-102870000D01*
X95932037Y-102693373D01*
X95983557Y-102523534D01*
X95983557Y-102523533D01*
X96067221Y-102367011D01*
X96067222Y-102367009D01*
X96096552Y-102331271D01*
X96179814Y-102229814D01*
X96281271Y-102146552D01*
X96317009Y-102117222D01*
X96334913Y-102107652D01*
X96473533Y-102033557D01*
X96530147Y-102016384D01*
X96643373Y-101982037D01*
X96709558Y-101975518D01*
X96775740Y-101969000D01*
X96864260Y-101969000D01*
X96930442Y-101975518D01*
X96930442Y-101975518D01*
G37*
G36*
X95181000Y-103771000D02*
X93379000Y-103771000D01*
X93379000Y-101969000D01*
X95181000Y-101969000D01*
X95181000Y-103771000D01*
X95181000Y-103771000D01*
G37*
G36*
X119620442Y-100205518D02*
X119686627Y-100212037D01*
X119799853Y-100246384D01*
X119856467Y-100263557D01*
X119995087Y-100337652D01*
X120012991Y-100347222D01*
X120048729Y-100376552D01*
X120150186Y-100459814D01*
X120233448Y-100561271D01*
X120262778Y-100597009D01*
X120262779Y-100597011D01*
X120346443Y-100753533D01*
X120346443Y-100753534D01*
X120397963Y-100923373D01*
X120415359Y-101100000D01*
X120397963Y-101276627D01*
X120379716Y-101336778D01*
X120346443Y-101446467D01*
X120325846Y-101485000D01*
X120262778Y-101602991D01*
X120233448Y-101638729D01*
X120150186Y-101740186D01*
X120048729Y-101823448D01*
X120012991Y-101852778D01*
X120012989Y-101852779D01*
X119856467Y-101936443D01*
X119799853Y-101953616D01*
X119686627Y-101987963D01*
X119620442Y-101994482D01*
X119554260Y-102001000D01*
X119465740Y-102001000D01*
X119399558Y-101994482D01*
X119333373Y-101987963D01*
X119220147Y-101953616D01*
X119163533Y-101936443D01*
X119007011Y-101852779D01*
X119007009Y-101852778D01*
X118971271Y-101823448D01*
X118869814Y-101740186D01*
X118786552Y-101638729D01*
X118757222Y-101602991D01*
X118694154Y-101485000D01*
X118673557Y-101446467D01*
X118640284Y-101336778D01*
X118622037Y-101276627D01*
X118604641Y-101100000D01*
X118622037Y-100923373D01*
X118673557Y-100753534D01*
X118673557Y-100753533D01*
X118757221Y-100597011D01*
X118757222Y-100597009D01*
X118786552Y-100561271D01*
X118869814Y-100459814D01*
X118971271Y-100376552D01*
X119007009Y-100347222D01*
X119024913Y-100337652D01*
X119163533Y-100263557D01*
X119220147Y-100246384D01*
X119333373Y-100212037D01*
X119399558Y-100205518D01*
X119465740Y-100199000D01*
X119554260Y-100199000D01*
X119620442Y-100205518D01*
X119620442Y-100205518D01*
G37*
G36*
X109460442Y-100205518D02*
X109526627Y-100212037D01*
X109639853Y-100246384D01*
X109696467Y-100263557D01*
X109835087Y-100337652D01*
X109852991Y-100347222D01*
X109888729Y-100376552D01*
X109990186Y-100459814D01*
X110073448Y-100561271D01*
X110102778Y-100597009D01*
X110102779Y-100597011D01*
X110186443Y-100753533D01*
X110186443Y-100753534D01*
X110237963Y-100923373D01*
X110255359Y-101100000D01*
X110237963Y-101276627D01*
X110219716Y-101336778D01*
X110186443Y-101446467D01*
X110165846Y-101485000D01*
X110102778Y-101602991D01*
X110073448Y-101638729D01*
X109990186Y-101740186D01*
X109888729Y-101823448D01*
X109852991Y-101852778D01*
X109852989Y-101852779D01*
X109696467Y-101936443D01*
X109639853Y-101953616D01*
X109526627Y-101987963D01*
X109460442Y-101994482D01*
X109394260Y-102001000D01*
X109305740Y-102001000D01*
X109239558Y-101994482D01*
X109173373Y-101987963D01*
X109060147Y-101953616D01*
X109003533Y-101936443D01*
X108847011Y-101852779D01*
X108847009Y-101852778D01*
X108811271Y-101823448D01*
X108709814Y-101740186D01*
X108626552Y-101638729D01*
X108597222Y-101602991D01*
X108534154Y-101485000D01*
X108513557Y-101446467D01*
X108480284Y-101336778D01*
X108462037Y-101276627D01*
X108444641Y-101100000D01*
X108462037Y-100923373D01*
X108513557Y-100753534D01*
X108513557Y-100753533D01*
X108597221Y-100597011D01*
X108597222Y-100597009D01*
X108626552Y-100561271D01*
X108709814Y-100459814D01*
X108811271Y-100376552D01*
X108847009Y-100347222D01*
X108864913Y-100337652D01*
X109003533Y-100263557D01*
X109060147Y-100246384D01*
X109173373Y-100212037D01*
X109239558Y-100205518D01*
X109305740Y-100199000D01*
X109394260Y-100199000D01*
X109460442Y-100205518D01*
X109460442Y-100205518D01*
G37*
G36*
X114540442Y-100205518D02*
X114606627Y-100212037D01*
X114719853Y-100246384D01*
X114776467Y-100263557D01*
X114915087Y-100337652D01*
X114932991Y-100347222D01*
X114968729Y-100376552D01*
X115070186Y-100459814D01*
X115153448Y-100561271D01*
X115182778Y-100597009D01*
X115182779Y-100597011D01*
X115266443Y-100753533D01*
X115266443Y-100753534D01*
X115317963Y-100923373D01*
X115335359Y-101100000D01*
X115317963Y-101276627D01*
X115299716Y-101336778D01*
X115266443Y-101446467D01*
X115245846Y-101485000D01*
X115182778Y-101602991D01*
X115153448Y-101638729D01*
X115070186Y-101740186D01*
X114968729Y-101823448D01*
X114932991Y-101852778D01*
X114932989Y-101852779D01*
X114776467Y-101936443D01*
X114719853Y-101953616D01*
X114606627Y-101987963D01*
X114540442Y-101994482D01*
X114474260Y-102001000D01*
X114385740Y-102001000D01*
X114319558Y-101994482D01*
X114253373Y-101987963D01*
X114140147Y-101953616D01*
X114083533Y-101936443D01*
X113927011Y-101852779D01*
X113927009Y-101852778D01*
X113891271Y-101823448D01*
X113789814Y-101740186D01*
X113706552Y-101638729D01*
X113677222Y-101602991D01*
X113614154Y-101485000D01*
X113593557Y-101446467D01*
X113560284Y-101336778D01*
X113542037Y-101276627D01*
X113524641Y-101100000D01*
X113542037Y-100923373D01*
X113593557Y-100753534D01*
X113593557Y-100753533D01*
X113677221Y-100597011D01*
X113677222Y-100597009D01*
X113706552Y-100561271D01*
X113789814Y-100459814D01*
X113891271Y-100376552D01*
X113927009Y-100347222D01*
X113944913Y-100337652D01*
X114083533Y-100263557D01*
X114140147Y-100246384D01*
X114253373Y-100212037D01*
X114319558Y-100205518D01*
X114385740Y-100199000D01*
X114474260Y-100199000D01*
X114540442Y-100205518D01*
X114540442Y-100205518D01*
G37*
G36*
X117080442Y-100205518D02*
X117146627Y-100212037D01*
X117259853Y-100246384D01*
X117316467Y-100263557D01*
X117455087Y-100337652D01*
X117472991Y-100347222D01*
X117508729Y-100376552D01*
X117610186Y-100459814D01*
X117693448Y-100561271D01*
X117722778Y-100597009D01*
X117722779Y-100597011D01*
X117806443Y-100753533D01*
X117806443Y-100753534D01*
X117857963Y-100923373D01*
X117875359Y-101100000D01*
X117857963Y-101276627D01*
X117839716Y-101336778D01*
X117806443Y-101446467D01*
X117785846Y-101485000D01*
X117722778Y-101602991D01*
X117693448Y-101638729D01*
X117610186Y-101740186D01*
X117508729Y-101823448D01*
X117472991Y-101852778D01*
X117472989Y-101852779D01*
X117316467Y-101936443D01*
X117259853Y-101953616D01*
X117146627Y-101987963D01*
X117080442Y-101994482D01*
X117014260Y-102001000D01*
X116925740Y-102001000D01*
X116859558Y-101994482D01*
X116793373Y-101987963D01*
X116680147Y-101953616D01*
X116623533Y-101936443D01*
X116467011Y-101852779D01*
X116467009Y-101852778D01*
X116431271Y-101823448D01*
X116329814Y-101740186D01*
X116246552Y-101638729D01*
X116217222Y-101602991D01*
X116154154Y-101485000D01*
X116133557Y-101446467D01*
X116100284Y-101336778D01*
X116082037Y-101276627D01*
X116064641Y-101100000D01*
X116082037Y-100923373D01*
X116133557Y-100753534D01*
X116133557Y-100753533D01*
X116217221Y-100597011D01*
X116217222Y-100597009D01*
X116246552Y-100561271D01*
X116329814Y-100459814D01*
X116431271Y-100376552D01*
X116467009Y-100347222D01*
X116484913Y-100337652D01*
X116623533Y-100263557D01*
X116680147Y-100246384D01*
X116793373Y-100212037D01*
X116859558Y-100205518D01*
X116925740Y-100199000D01*
X117014260Y-100199000D01*
X117080442Y-100205518D01*
X117080442Y-100205518D01*
G37*
G36*
X122160442Y-100205518D02*
X122226627Y-100212037D01*
X122339853Y-100246384D01*
X122396467Y-100263557D01*
X122535087Y-100337652D01*
X122552991Y-100347222D01*
X122588729Y-100376552D01*
X122690186Y-100459814D01*
X122773448Y-100561271D01*
X122802778Y-100597009D01*
X122802779Y-100597011D01*
X122886443Y-100753533D01*
X122886443Y-100753534D01*
X122937963Y-100923373D01*
X122955359Y-101100000D01*
X122937963Y-101276627D01*
X122919716Y-101336778D01*
X122886443Y-101446467D01*
X122865846Y-101485000D01*
X122802778Y-101602991D01*
X122773448Y-101638729D01*
X122690186Y-101740186D01*
X122588729Y-101823448D01*
X122552991Y-101852778D01*
X122552989Y-101852779D01*
X122396467Y-101936443D01*
X122339853Y-101953616D01*
X122226627Y-101987963D01*
X122160442Y-101994482D01*
X122094260Y-102001000D01*
X122005740Y-102001000D01*
X121939558Y-101994482D01*
X121873373Y-101987963D01*
X121760147Y-101953616D01*
X121703533Y-101936443D01*
X121547011Y-101852779D01*
X121547009Y-101852778D01*
X121511271Y-101823448D01*
X121409814Y-101740186D01*
X121326552Y-101638729D01*
X121297222Y-101602991D01*
X121234154Y-101485000D01*
X121213557Y-101446467D01*
X121180284Y-101336778D01*
X121162037Y-101276627D01*
X121144641Y-101100000D01*
X121162037Y-100923373D01*
X121213557Y-100753534D01*
X121213557Y-100753533D01*
X121297221Y-100597011D01*
X121297222Y-100597009D01*
X121326552Y-100561271D01*
X121409814Y-100459814D01*
X121511271Y-100376552D01*
X121547009Y-100347222D01*
X121564913Y-100337652D01*
X121703533Y-100263557D01*
X121760147Y-100246384D01*
X121873373Y-100212037D01*
X121939558Y-100205518D01*
X122005740Y-100199000D01*
X122094260Y-100199000D01*
X122160442Y-100205518D01*
X122160442Y-100205518D01*
G37*
G36*
X124700442Y-100205518D02*
X124766627Y-100212037D01*
X124879853Y-100246384D01*
X124936467Y-100263557D01*
X125075087Y-100337652D01*
X125092991Y-100347222D01*
X125128729Y-100376552D01*
X125230186Y-100459814D01*
X125313448Y-100561271D01*
X125342778Y-100597009D01*
X125342779Y-100597011D01*
X125426443Y-100753533D01*
X125426443Y-100753534D01*
X125477963Y-100923373D01*
X125495359Y-101100000D01*
X125477963Y-101276627D01*
X125459716Y-101336778D01*
X125426443Y-101446467D01*
X125405846Y-101485000D01*
X125342778Y-101602991D01*
X125313448Y-101638729D01*
X125230186Y-101740186D01*
X125128729Y-101823448D01*
X125092991Y-101852778D01*
X125092989Y-101852779D01*
X124936467Y-101936443D01*
X124879853Y-101953616D01*
X124766627Y-101987963D01*
X124700442Y-101994482D01*
X124634260Y-102001000D01*
X124545740Y-102001000D01*
X124479558Y-101994482D01*
X124413373Y-101987963D01*
X124300147Y-101953616D01*
X124243533Y-101936443D01*
X124087011Y-101852779D01*
X124087009Y-101852778D01*
X124051271Y-101823448D01*
X123949814Y-101740186D01*
X123866552Y-101638729D01*
X123837222Y-101602991D01*
X123774154Y-101485000D01*
X123753557Y-101446467D01*
X123720284Y-101336778D01*
X123702037Y-101276627D01*
X123684641Y-101100000D01*
X123702037Y-100923373D01*
X123753557Y-100753534D01*
X123753557Y-100753533D01*
X123837221Y-100597011D01*
X123837222Y-100597009D01*
X123866552Y-100561271D01*
X123949814Y-100459814D01*
X124051271Y-100376552D01*
X124087009Y-100347222D01*
X124104913Y-100337652D01*
X124243533Y-100263557D01*
X124300147Y-100246384D01*
X124413373Y-100212037D01*
X124479558Y-100205518D01*
X124545740Y-100199000D01*
X124634260Y-100199000D01*
X124700442Y-100205518D01*
X124700442Y-100205518D01*
G37*
G36*
X127240442Y-100205518D02*
X127306627Y-100212037D01*
X127419853Y-100246384D01*
X127476467Y-100263557D01*
X127615087Y-100337652D01*
X127632991Y-100347222D01*
X127668729Y-100376552D01*
X127770186Y-100459814D01*
X127853448Y-100561271D01*
X127882778Y-100597009D01*
X127882779Y-100597011D01*
X127966443Y-100753533D01*
X127966443Y-100753534D01*
X128017963Y-100923373D01*
X128035359Y-101100000D01*
X128017963Y-101276627D01*
X127999716Y-101336778D01*
X127966443Y-101446467D01*
X127945846Y-101485000D01*
X127882778Y-101602991D01*
X127853448Y-101638729D01*
X127770186Y-101740186D01*
X127668729Y-101823448D01*
X127632991Y-101852778D01*
X127632989Y-101852779D01*
X127476467Y-101936443D01*
X127419853Y-101953616D01*
X127306627Y-101987963D01*
X127240442Y-101994482D01*
X127174260Y-102001000D01*
X127085740Y-102001000D01*
X127019558Y-101994482D01*
X126953373Y-101987963D01*
X126840147Y-101953616D01*
X126783533Y-101936443D01*
X126627011Y-101852779D01*
X126627009Y-101852778D01*
X126591271Y-101823448D01*
X126489814Y-101740186D01*
X126406552Y-101638729D01*
X126377222Y-101602991D01*
X126314154Y-101485000D01*
X126293557Y-101446467D01*
X126260284Y-101336778D01*
X126242037Y-101276627D01*
X126224641Y-101100000D01*
X126242037Y-100923373D01*
X126293557Y-100753534D01*
X126293557Y-100753533D01*
X126377221Y-100597011D01*
X126377222Y-100597009D01*
X126406552Y-100561271D01*
X126489814Y-100459814D01*
X126591271Y-100376552D01*
X126627009Y-100347222D01*
X126644913Y-100337652D01*
X126783533Y-100263557D01*
X126840147Y-100246384D01*
X126953373Y-100212037D01*
X127019558Y-100205518D01*
X127085740Y-100199000D01*
X127174260Y-100199000D01*
X127240442Y-100205518D01*
X127240442Y-100205518D01*
G37*
G36*
X129780442Y-100205518D02*
X129846627Y-100212037D01*
X129959853Y-100246384D01*
X130016467Y-100263557D01*
X130155087Y-100337652D01*
X130172991Y-100347222D01*
X130208729Y-100376552D01*
X130310186Y-100459814D01*
X130393448Y-100561271D01*
X130422778Y-100597009D01*
X130422779Y-100597011D01*
X130506443Y-100753533D01*
X130506443Y-100753534D01*
X130557963Y-100923373D01*
X130575359Y-101100000D01*
X130557963Y-101276627D01*
X130539716Y-101336778D01*
X130506443Y-101446467D01*
X130485846Y-101485000D01*
X130422778Y-101602991D01*
X130393448Y-101638729D01*
X130310186Y-101740186D01*
X130208729Y-101823448D01*
X130172991Y-101852778D01*
X130172989Y-101852779D01*
X130016467Y-101936443D01*
X129959853Y-101953616D01*
X129846627Y-101987963D01*
X129780442Y-101994482D01*
X129714260Y-102001000D01*
X129625740Y-102001000D01*
X129559558Y-101994482D01*
X129493373Y-101987963D01*
X129380147Y-101953616D01*
X129323533Y-101936443D01*
X129167011Y-101852779D01*
X129167009Y-101852778D01*
X129131271Y-101823448D01*
X129029814Y-101740186D01*
X128946552Y-101638729D01*
X128917222Y-101602991D01*
X128854154Y-101485000D01*
X128833557Y-101446467D01*
X128800284Y-101336778D01*
X128782037Y-101276627D01*
X128764641Y-101100000D01*
X128782037Y-100923373D01*
X128833557Y-100753534D01*
X128833557Y-100753533D01*
X128917221Y-100597011D01*
X128917222Y-100597009D01*
X128946552Y-100561271D01*
X129029814Y-100459814D01*
X129131271Y-100376552D01*
X129167009Y-100347222D01*
X129184913Y-100337652D01*
X129323533Y-100263557D01*
X129380147Y-100246384D01*
X129493373Y-100212037D01*
X129559558Y-100205518D01*
X129625740Y-100199000D01*
X129714260Y-100199000D01*
X129780442Y-100205518D01*
X129780442Y-100205518D01*
G37*
G36*
X132320442Y-100205518D02*
X132386627Y-100212037D01*
X132499853Y-100246384D01*
X132556467Y-100263557D01*
X132695087Y-100337652D01*
X132712991Y-100347222D01*
X132748729Y-100376552D01*
X132850186Y-100459814D01*
X132933448Y-100561271D01*
X132962778Y-100597009D01*
X132962779Y-100597011D01*
X133046443Y-100753533D01*
X133046443Y-100753534D01*
X133097963Y-100923373D01*
X133115359Y-101100000D01*
X133097963Y-101276627D01*
X133079716Y-101336778D01*
X133046443Y-101446467D01*
X133025846Y-101485000D01*
X132962778Y-101602991D01*
X132933448Y-101638729D01*
X132850186Y-101740186D01*
X132748729Y-101823448D01*
X132712991Y-101852778D01*
X132712989Y-101852779D01*
X132556467Y-101936443D01*
X132499853Y-101953616D01*
X132386627Y-101987963D01*
X132320442Y-101994482D01*
X132254260Y-102001000D01*
X132165740Y-102001000D01*
X132099558Y-101994482D01*
X132033373Y-101987963D01*
X131920147Y-101953616D01*
X131863533Y-101936443D01*
X131707011Y-101852779D01*
X131707009Y-101852778D01*
X131671271Y-101823448D01*
X131569814Y-101740186D01*
X131486552Y-101638729D01*
X131457222Y-101602991D01*
X131394154Y-101485000D01*
X131373557Y-101446467D01*
X131340284Y-101336778D01*
X131322037Y-101276627D01*
X131304641Y-101100000D01*
X131322037Y-100923373D01*
X131373557Y-100753534D01*
X131373557Y-100753533D01*
X131457221Y-100597011D01*
X131457222Y-100597009D01*
X131486552Y-100561271D01*
X131569814Y-100459814D01*
X131671271Y-100376552D01*
X131707009Y-100347222D01*
X131724913Y-100337652D01*
X131863533Y-100263557D01*
X131920147Y-100246384D01*
X132033373Y-100212037D01*
X132099558Y-100205518D01*
X132165740Y-100199000D01*
X132254260Y-100199000D01*
X132320442Y-100205518D01*
X132320442Y-100205518D01*
G37*
G36*
X134860442Y-100205518D02*
X134926627Y-100212037D01*
X135039853Y-100246384D01*
X135096467Y-100263557D01*
X135235087Y-100337652D01*
X135252991Y-100347222D01*
X135288729Y-100376552D01*
X135390186Y-100459814D01*
X135473448Y-100561271D01*
X135502778Y-100597009D01*
X135502779Y-100597011D01*
X135586443Y-100753533D01*
X135586443Y-100753534D01*
X135637963Y-100923373D01*
X135655359Y-101100000D01*
X135637963Y-101276627D01*
X135619716Y-101336778D01*
X135586443Y-101446467D01*
X135565846Y-101485000D01*
X135502778Y-101602991D01*
X135473448Y-101638729D01*
X135390186Y-101740186D01*
X135288729Y-101823448D01*
X135252991Y-101852778D01*
X135252989Y-101852779D01*
X135096467Y-101936443D01*
X135039853Y-101953616D01*
X134926627Y-101987963D01*
X134860442Y-101994482D01*
X134794260Y-102001000D01*
X134705740Y-102001000D01*
X134639558Y-101994482D01*
X134573373Y-101987963D01*
X134460147Y-101953616D01*
X134403533Y-101936443D01*
X134247011Y-101852779D01*
X134247009Y-101852778D01*
X134211271Y-101823448D01*
X134109814Y-101740186D01*
X134026552Y-101638729D01*
X133997222Y-101602991D01*
X133934154Y-101485000D01*
X133913557Y-101446467D01*
X133880284Y-101336778D01*
X133862037Y-101276627D01*
X133844641Y-101100000D01*
X133862037Y-100923373D01*
X133913557Y-100753534D01*
X133913557Y-100753533D01*
X133997221Y-100597011D01*
X133997222Y-100597009D01*
X134026552Y-100561271D01*
X134109814Y-100459814D01*
X134211271Y-100376552D01*
X134247009Y-100347222D01*
X134264913Y-100337652D01*
X134403533Y-100263557D01*
X134460147Y-100246384D01*
X134573373Y-100212037D01*
X134639558Y-100205518D01*
X134705740Y-100199000D01*
X134794260Y-100199000D01*
X134860442Y-100205518D01*
X134860442Y-100205518D01*
G37*
G36*
X138191000Y-102001000D02*
X136389000Y-102001000D01*
X136389000Y-100199000D01*
X138191000Y-100199000D01*
X138191000Y-102001000D01*
X138191000Y-102001000D01*
G37*
G36*
X112000442Y-100205518D02*
X112066627Y-100212037D01*
X112179853Y-100246384D01*
X112236467Y-100263557D01*
X112375087Y-100337652D01*
X112392991Y-100347222D01*
X112428729Y-100376552D01*
X112530186Y-100459814D01*
X112613448Y-100561271D01*
X112642778Y-100597009D01*
X112642779Y-100597011D01*
X112726443Y-100753533D01*
X112726443Y-100753534D01*
X112777963Y-100923373D01*
X112795359Y-101100000D01*
X112777963Y-101276627D01*
X112759716Y-101336778D01*
X112726443Y-101446467D01*
X112705846Y-101485000D01*
X112642778Y-101602991D01*
X112613448Y-101638729D01*
X112530186Y-101740186D01*
X112428729Y-101823448D01*
X112392991Y-101852778D01*
X112392989Y-101852779D01*
X112236467Y-101936443D01*
X112179853Y-101953616D01*
X112066627Y-101987963D01*
X112000442Y-101994482D01*
X111934260Y-102001000D01*
X111845740Y-102001000D01*
X111779558Y-101994482D01*
X111713373Y-101987963D01*
X111600147Y-101953616D01*
X111543533Y-101936443D01*
X111387011Y-101852779D01*
X111387009Y-101852778D01*
X111351271Y-101823448D01*
X111249814Y-101740186D01*
X111166552Y-101638729D01*
X111137222Y-101602991D01*
X111074154Y-101485000D01*
X111053557Y-101446467D01*
X111020284Y-101336778D01*
X111002037Y-101276627D01*
X110984641Y-101100000D01*
X111002037Y-100923373D01*
X111053557Y-100753534D01*
X111053557Y-100753533D01*
X111137221Y-100597011D01*
X111137222Y-100597009D01*
X111166552Y-100561271D01*
X111249814Y-100459814D01*
X111351271Y-100376552D01*
X111387009Y-100347222D01*
X111404913Y-100337652D01*
X111543533Y-100263557D01*
X111600147Y-100246384D01*
X111713373Y-100212037D01*
X111779558Y-100205518D01*
X111845740Y-100199000D01*
X111934260Y-100199000D01*
X112000442Y-100205518D01*
X112000442Y-100205518D01*
G37*
G36*
X157399942Y-99689518D02*
X157466127Y-99696037D01*
X157579353Y-99730384D01*
X157635967Y-99747557D01*
X157774587Y-99821652D01*
X157792491Y-99831222D01*
X157828229Y-99860552D01*
X157929686Y-99943814D01*
X158012948Y-100045271D01*
X158042278Y-100081009D01*
X158042279Y-100081011D01*
X158125943Y-100237533D01*
X158133837Y-100263557D01*
X158177463Y-100407373D01*
X158194859Y-100584000D01*
X158177463Y-100760627D01*
X158158609Y-100822779D01*
X158125943Y-100930467D01*
X158104277Y-100971000D01*
X158042278Y-101086991D01*
X158012948Y-101122729D01*
X157929686Y-101224186D01*
X157828229Y-101307448D01*
X157792491Y-101336778D01*
X157792489Y-101336779D01*
X157635967Y-101420443D01*
X157579353Y-101437616D01*
X157466127Y-101471963D01*
X157399943Y-101478481D01*
X157333760Y-101485000D01*
X157245240Y-101485000D01*
X157179057Y-101478481D01*
X157112873Y-101471963D01*
X156999647Y-101437616D01*
X156943033Y-101420443D01*
X156786511Y-101336779D01*
X156786509Y-101336778D01*
X156750771Y-101307448D01*
X156649314Y-101224186D01*
X156566052Y-101122729D01*
X156536722Y-101086991D01*
X156474723Y-100971000D01*
X156453057Y-100930467D01*
X156420391Y-100822779D01*
X156401537Y-100760627D01*
X156384141Y-100584000D01*
X156401537Y-100407373D01*
X156445163Y-100263557D01*
X156453057Y-100237533D01*
X156536721Y-100081011D01*
X156536722Y-100081009D01*
X156566052Y-100045271D01*
X156649314Y-99943814D01*
X156750771Y-99860552D01*
X156786509Y-99831222D01*
X156804413Y-99821652D01*
X156943033Y-99747557D01*
X156999647Y-99730384D01*
X157112873Y-99696037D01*
X157179058Y-99689518D01*
X157245240Y-99683000D01*
X157333760Y-99683000D01*
X157399942Y-99689518D01*
X157399942Y-99689518D01*
G37*
G36*
X95181000Y-100971000D02*
X93379000Y-100971000D01*
X93379000Y-99169000D01*
X95181000Y-99169000D01*
X95181000Y-100971000D01*
X95181000Y-100971000D01*
G37*
G36*
X96930442Y-99175518D02*
X96996627Y-99182037D01*
X97109853Y-99216384D01*
X97166467Y-99233557D01*
X97305087Y-99307652D01*
X97322991Y-99317222D01*
X97358729Y-99346552D01*
X97460186Y-99429814D01*
X97543448Y-99531271D01*
X97572778Y-99567009D01*
X97572779Y-99567011D01*
X97656443Y-99723533D01*
X97656443Y-99723534D01*
X97707963Y-99893373D01*
X97725359Y-100070000D01*
X97707963Y-100246627D01*
X97702827Y-100263557D01*
X97656443Y-100416467D01*
X97582348Y-100555087D01*
X97572778Y-100572991D01*
X97563743Y-100584000D01*
X97460186Y-100710186D01*
X97358729Y-100793448D01*
X97322991Y-100822778D01*
X97322989Y-100822779D01*
X97166467Y-100906443D01*
X97110655Y-100923373D01*
X96996627Y-100957963D01*
X96930443Y-100964481D01*
X96864260Y-100971000D01*
X96775740Y-100971000D01*
X96709557Y-100964481D01*
X96643373Y-100957963D01*
X96529345Y-100923373D01*
X96473533Y-100906443D01*
X96317011Y-100822779D01*
X96317009Y-100822778D01*
X96281271Y-100793448D01*
X96179814Y-100710186D01*
X96076257Y-100584000D01*
X96067222Y-100572991D01*
X96057652Y-100555087D01*
X95983557Y-100416467D01*
X95937173Y-100263557D01*
X95932037Y-100246627D01*
X95914641Y-100070000D01*
X95932037Y-99893373D01*
X95983557Y-99723534D01*
X95983557Y-99723533D01*
X96067221Y-99567011D01*
X96067222Y-99567009D01*
X96096552Y-99531271D01*
X96179814Y-99429814D01*
X96281271Y-99346552D01*
X96317009Y-99317222D01*
X96334913Y-99307652D01*
X96473533Y-99233557D01*
X96530147Y-99216384D01*
X96643373Y-99182037D01*
X96709557Y-99175519D01*
X96775740Y-99169000D01*
X96864260Y-99169000D01*
X96930442Y-99175518D01*
X96930442Y-99175518D01*
G37*
G36*
X99470442Y-99175518D02*
X99536627Y-99182037D01*
X99649853Y-99216384D01*
X99706467Y-99233557D01*
X99845087Y-99307652D01*
X99862991Y-99317222D01*
X99898729Y-99346552D01*
X100000186Y-99429814D01*
X100083448Y-99531271D01*
X100112778Y-99567009D01*
X100112779Y-99567011D01*
X100196443Y-99723533D01*
X100196443Y-99723534D01*
X100247963Y-99893373D01*
X100265359Y-100070000D01*
X100247963Y-100246627D01*
X100242827Y-100263557D01*
X100196443Y-100416467D01*
X100122348Y-100555087D01*
X100112778Y-100572991D01*
X100103743Y-100584000D01*
X100000186Y-100710186D01*
X99898729Y-100793448D01*
X99862991Y-100822778D01*
X99862989Y-100822779D01*
X99706467Y-100906443D01*
X99650655Y-100923373D01*
X99536627Y-100957963D01*
X99470443Y-100964481D01*
X99404260Y-100971000D01*
X99315740Y-100971000D01*
X99249557Y-100964481D01*
X99183373Y-100957963D01*
X99069345Y-100923373D01*
X99013533Y-100906443D01*
X98857011Y-100822779D01*
X98857009Y-100822778D01*
X98821271Y-100793448D01*
X98719814Y-100710186D01*
X98616257Y-100584000D01*
X98607222Y-100572991D01*
X98597652Y-100555087D01*
X98523557Y-100416467D01*
X98477173Y-100263557D01*
X98472037Y-100246627D01*
X98454641Y-100070000D01*
X98472037Y-99893373D01*
X98523557Y-99723534D01*
X98523557Y-99723533D01*
X98607221Y-99567011D01*
X98607222Y-99567009D01*
X98636552Y-99531271D01*
X98719814Y-99429814D01*
X98821271Y-99346552D01*
X98857009Y-99317222D01*
X98874913Y-99307652D01*
X99013533Y-99233557D01*
X99070147Y-99216384D01*
X99183373Y-99182037D01*
X99249557Y-99175519D01*
X99315740Y-99169000D01*
X99404260Y-99169000D01*
X99470442Y-99175518D01*
X99470442Y-99175518D01*
G37*
G36*
X109460443Y-97425519D02*
X109526627Y-97432037D01*
X109630535Y-97463557D01*
X109696467Y-97483557D01*
X109803954Y-97541011D01*
X109852991Y-97567222D01*
X109888729Y-97596552D01*
X109990186Y-97679814D01*
X110050568Y-97753391D01*
X110102778Y-97817009D01*
X110102779Y-97817011D01*
X110186443Y-97973533D01*
X110195436Y-98003179D01*
X110237963Y-98143373D01*
X110255359Y-98320000D01*
X110237963Y-98496627D01*
X110222686Y-98546989D01*
X110186443Y-98666467D01*
X110116789Y-98796778D01*
X110102778Y-98822991D01*
X110073448Y-98858729D01*
X109990186Y-98960186D01*
X109888729Y-99043448D01*
X109852991Y-99072778D01*
X109852989Y-99072779D01*
X109696467Y-99156443D01*
X109655071Y-99169000D01*
X109526627Y-99207963D01*
X109460443Y-99214481D01*
X109394260Y-99221000D01*
X109305740Y-99221000D01*
X109239557Y-99214481D01*
X109173373Y-99207963D01*
X109044929Y-99169000D01*
X109003533Y-99156443D01*
X108847011Y-99072779D01*
X108847009Y-99072778D01*
X108811271Y-99043448D01*
X108709814Y-98960186D01*
X108626552Y-98858729D01*
X108597222Y-98822991D01*
X108583211Y-98796778D01*
X108513557Y-98666467D01*
X108477314Y-98546989D01*
X108462037Y-98496627D01*
X108444641Y-98320000D01*
X108462037Y-98143373D01*
X108504564Y-98003179D01*
X108513557Y-97973533D01*
X108597221Y-97817011D01*
X108597222Y-97817009D01*
X108649432Y-97753391D01*
X108709814Y-97679814D01*
X108811271Y-97596552D01*
X108847009Y-97567222D01*
X108896046Y-97541011D01*
X109003533Y-97483557D01*
X109069465Y-97463557D01*
X109173373Y-97432037D01*
X109239557Y-97425519D01*
X109305740Y-97419000D01*
X109394260Y-97419000D01*
X109460443Y-97425519D01*
X109460443Y-97425519D01*
G37*
G36*
X127250442Y-97405518D02*
X127316627Y-97412037D01*
X127429853Y-97446384D01*
X127486467Y-97463557D01*
X127625087Y-97537652D01*
X127642991Y-97547222D01*
X127667361Y-97567222D01*
X127780186Y-97659814D01*
X127863448Y-97761271D01*
X127892778Y-97797009D01*
X127892779Y-97797011D01*
X127976443Y-97953533D01*
X127976443Y-97953534D01*
X128027963Y-98123373D01*
X128045359Y-98300000D01*
X128027963Y-98476627D01*
X128021896Y-98496627D01*
X127976443Y-98646467D01*
X127956282Y-98684185D01*
X127892778Y-98802991D01*
X127876366Y-98822989D01*
X127780186Y-98940186D01*
X127678729Y-99023448D01*
X127642991Y-99052778D01*
X127642989Y-99052779D01*
X127486467Y-99136443D01*
X127429853Y-99153616D01*
X127316627Y-99187963D01*
X127250442Y-99194482D01*
X127184260Y-99201000D01*
X127095740Y-99201000D01*
X127029558Y-99194482D01*
X126963373Y-99187963D01*
X126850147Y-99153616D01*
X126793533Y-99136443D01*
X126637011Y-99052779D01*
X126637009Y-99052778D01*
X126601271Y-99023448D01*
X126499814Y-98940186D01*
X126403634Y-98822989D01*
X126387222Y-98802991D01*
X126323718Y-98684185D01*
X126303557Y-98646467D01*
X126258104Y-98496627D01*
X126252037Y-98476627D01*
X126234641Y-98300000D01*
X126252037Y-98123373D01*
X126303557Y-97953534D01*
X126303557Y-97953533D01*
X126387221Y-97797011D01*
X126387222Y-97797009D01*
X126416552Y-97761271D01*
X126499814Y-97659814D01*
X126612639Y-97567222D01*
X126637009Y-97547222D01*
X126654913Y-97537652D01*
X126793533Y-97463557D01*
X126850147Y-97446384D01*
X126963373Y-97412037D01*
X127029558Y-97405518D01*
X127095740Y-97399000D01*
X127184260Y-97399000D01*
X127250442Y-97405518D01*
X127250442Y-97405518D01*
G37*
G36*
X114550442Y-97405518D02*
X114616627Y-97412037D01*
X114729853Y-97446384D01*
X114786467Y-97463557D01*
X114925087Y-97537652D01*
X114942991Y-97547222D01*
X114967361Y-97567222D01*
X115080186Y-97659814D01*
X115163448Y-97761271D01*
X115192778Y-97797009D01*
X115192779Y-97797011D01*
X115276443Y-97953533D01*
X115276443Y-97953534D01*
X115327963Y-98123373D01*
X115345359Y-98300000D01*
X115327963Y-98476627D01*
X115321896Y-98496627D01*
X115276443Y-98646467D01*
X115256282Y-98684185D01*
X115192778Y-98802991D01*
X115176366Y-98822989D01*
X115080186Y-98940186D01*
X114978729Y-99023448D01*
X114942991Y-99052778D01*
X114942989Y-99052779D01*
X114786467Y-99136443D01*
X114729853Y-99153616D01*
X114616627Y-99187963D01*
X114550442Y-99194482D01*
X114484260Y-99201000D01*
X114395740Y-99201000D01*
X114329558Y-99194482D01*
X114263373Y-99187963D01*
X114150147Y-99153616D01*
X114093533Y-99136443D01*
X113937011Y-99052779D01*
X113937009Y-99052778D01*
X113901271Y-99023448D01*
X113799814Y-98940186D01*
X113703634Y-98822989D01*
X113687222Y-98802991D01*
X113623718Y-98684185D01*
X113603557Y-98646467D01*
X113558104Y-98496627D01*
X113552037Y-98476627D01*
X113534641Y-98300000D01*
X113552037Y-98123373D01*
X113603557Y-97953534D01*
X113603557Y-97953533D01*
X113687221Y-97797011D01*
X113687222Y-97797009D01*
X113716552Y-97761271D01*
X113799814Y-97659814D01*
X113912639Y-97567222D01*
X113937009Y-97547222D01*
X113954913Y-97537652D01*
X114093533Y-97463557D01*
X114150147Y-97446384D01*
X114263373Y-97412037D01*
X114329558Y-97405518D01*
X114395740Y-97399000D01*
X114484260Y-97399000D01*
X114550442Y-97405518D01*
X114550442Y-97405518D01*
G37*
G36*
X124710442Y-97405518D02*
X124776627Y-97412037D01*
X124889853Y-97446384D01*
X124946467Y-97463557D01*
X125085087Y-97537652D01*
X125102991Y-97547222D01*
X125127361Y-97567222D01*
X125240186Y-97659814D01*
X125323448Y-97761271D01*
X125352778Y-97797009D01*
X125352779Y-97797011D01*
X125436443Y-97953533D01*
X125436443Y-97953534D01*
X125487963Y-98123373D01*
X125505359Y-98300000D01*
X125487963Y-98476627D01*
X125481896Y-98496627D01*
X125436443Y-98646467D01*
X125416282Y-98684185D01*
X125352778Y-98802991D01*
X125336366Y-98822989D01*
X125240186Y-98940186D01*
X125138729Y-99023448D01*
X125102991Y-99052778D01*
X125102989Y-99052779D01*
X124946467Y-99136443D01*
X124889853Y-99153616D01*
X124776627Y-99187963D01*
X124710442Y-99194482D01*
X124644260Y-99201000D01*
X124555740Y-99201000D01*
X124489558Y-99194482D01*
X124423373Y-99187963D01*
X124310147Y-99153616D01*
X124253533Y-99136443D01*
X124097011Y-99052779D01*
X124097009Y-99052778D01*
X124061271Y-99023448D01*
X123959814Y-98940186D01*
X123863634Y-98822989D01*
X123847222Y-98802991D01*
X123783718Y-98684185D01*
X123763557Y-98646467D01*
X123718104Y-98496627D01*
X123712037Y-98476627D01*
X123694641Y-98300000D01*
X123712037Y-98123373D01*
X123763557Y-97953534D01*
X123763557Y-97953533D01*
X123847221Y-97797011D01*
X123847222Y-97797009D01*
X123876552Y-97761271D01*
X123959814Y-97659814D01*
X124072639Y-97567222D01*
X124097009Y-97547222D01*
X124114913Y-97537652D01*
X124253533Y-97463557D01*
X124310147Y-97446384D01*
X124423373Y-97412037D01*
X124489558Y-97405518D01*
X124555740Y-97399000D01*
X124644260Y-97399000D01*
X124710442Y-97405518D01*
X124710442Y-97405518D01*
G37*
G36*
X122170442Y-97405518D02*
X122236627Y-97412037D01*
X122349853Y-97446384D01*
X122406467Y-97463557D01*
X122545087Y-97537652D01*
X122562991Y-97547222D01*
X122587361Y-97567222D01*
X122700186Y-97659814D01*
X122783448Y-97761271D01*
X122812778Y-97797009D01*
X122812779Y-97797011D01*
X122896443Y-97953533D01*
X122896443Y-97953534D01*
X122947963Y-98123373D01*
X122965359Y-98300000D01*
X122947963Y-98476627D01*
X122941896Y-98496627D01*
X122896443Y-98646467D01*
X122876282Y-98684185D01*
X122812778Y-98802991D01*
X122796366Y-98822989D01*
X122700186Y-98940186D01*
X122598729Y-99023448D01*
X122562991Y-99052778D01*
X122562989Y-99052779D01*
X122406467Y-99136443D01*
X122349853Y-99153616D01*
X122236627Y-99187963D01*
X122170442Y-99194482D01*
X122104260Y-99201000D01*
X122015740Y-99201000D01*
X121949558Y-99194482D01*
X121883373Y-99187963D01*
X121770147Y-99153616D01*
X121713533Y-99136443D01*
X121557011Y-99052779D01*
X121557009Y-99052778D01*
X121521271Y-99023448D01*
X121419814Y-98940186D01*
X121323634Y-98822989D01*
X121307222Y-98802991D01*
X121243718Y-98684185D01*
X121223557Y-98646467D01*
X121178104Y-98496627D01*
X121172037Y-98476627D01*
X121154641Y-98300000D01*
X121172037Y-98123373D01*
X121223557Y-97953534D01*
X121223557Y-97953533D01*
X121307221Y-97797011D01*
X121307222Y-97797009D01*
X121336552Y-97761271D01*
X121419814Y-97659814D01*
X121532639Y-97567222D01*
X121557009Y-97547222D01*
X121574913Y-97537652D01*
X121713533Y-97463557D01*
X121770147Y-97446384D01*
X121883373Y-97412037D01*
X121949558Y-97405518D01*
X122015740Y-97399000D01*
X122104260Y-97399000D01*
X122170442Y-97405518D01*
X122170442Y-97405518D01*
G37*
G36*
X117090442Y-97405518D02*
X117156627Y-97412037D01*
X117269853Y-97446384D01*
X117326467Y-97463557D01*
X117465087Y-97537652D01*
X117482991Y-97547222D01*
X117507361Y-97567222D01*
X117620186Y-97659814D01*
X117703448Y-97761271D01*
X117732778Y-97797009D01*
X117732779Y-97797011D01*
X117816443Y-97953533D01*
X117816443Y-97953534D01*
X117867963Y-98123373D01*
X117885359Y-98300000D01*
X117867963Y-98476627D01*
X117861896Y-98496627D01*
X117816443Y-98646467D01*
X117796282Y-98684185D01*
X117732778Y-98802991D01*
X117716366Y-98822989D01*
X117620186Y-98940186D01*
X117518729Y-99023448D01*
X117482991Y-99052778D01*
X117482989Y-99052779D01*
X117326467Y-99136443D01*
X117269853Y-99153616D01*
X117156627Y-99187963D01*
X117090442Y-99194482D01*
X117024260Y-99201000D01*
X116935740Y-99201000D01*
X116869558Y-99194482D01*
X116803373Y-99187963D01*
X116690147Y-99153616D01*
X116633533Y-99136443D01*
X116477011Y-99052779D01*
X116477009Y-99052778D01*
X116441271Y-99023448D01*
X116339814Y-98940186D01*
X116243634Y-98822989D01*
X116227222Y-98802991D01*
X116163718Y-98684185D01*
X116143557Y-98646467D01*
X116098104Y-98496627D01*
X116092037Y-98476627D01*
X116074641Y-98300000D01*
X116092037Y-98123373D01*
X116143557Y-97953534D01*
X116143557Y-97953533D01*
X116227221Y-97797011D01*
X116227222Y-97797009D01*
X116256552Y-97761271D01*
X116339814Y-97659814D01*
X116452639Y-97567222D01*
X116477009Y-97547222D01*
X116494913Y-97537652D01*
X116633533Y-97463557D01*
X116690147Y-97446384D01*
X116803373Y-97412037D01*
X116869558Y-97405518D01*
X116935740Y-97399000D01*
X117024260Y-97399000D01*
X117090442Y-97405518D01*
X117090442Y-97405518D01*
G37*
G36*
X119630442Y-97405518D02*
X119696627Y-97412037D01*
X119809853Y-97446384D01*
X119866467Y-97463557D01*
X120005087Y-97537652D01*
X120022991Y-97547222D01*
X120047361Y-97567222D01*
X120160186Y-97659814D01*
X120243448Y-97761271D01*
X120272778Y-97797009D01*
X120272779Y-97797011D01*
X120356443Y-97953533D01*
X120356443Y-97953534D01*
X120407963Y-98123373D01*
X120425359Y-98300000D01*
X120407963Y-98476627D01*
X120401896Y-98496627D01*
X120356443Y-98646467D01*
X120336282Y-98684185D01*
X120272778Y-98802991D01*
X120256366Y-98822989D01*
X120160186Y-98940186D01*
X120058729Y-99023448D01*
X120022991Y-99052778D01*
X120022989Y-99052779D01*
X119866467Y-99136443D01*
X119809853Y-99153616D01*
X119696627Y-99187963D01*
X119630442Y-99194482D01*
X119564260Y-99201000D01*
X119475740Y-99201000D01*
X119409558Y-99194482D01*
X119343373Y-99187963D01*
X119230147Y-99153616D01*
X119173533Y-99136443D01*
X119017011Y-99052779D01*
X119017009Y-99052778D01*
X118981271Y-99023448D01*
X118879814Y-98940186D01*
X118783634Y-98822989D01*
X118767222Y-98802991D01*
X118703718Y-98684185D01*
X118683557Y-98646467D01*
X118638104Y-98496627D01*
X118632037Y-98476627D01*
X118614641Y-98300000D01*
X118632037Y-98123373D01*
X118683557Y-97953534D01*
X118683557Y-97953533D01*
X118767221Y-97797011D01*
X118767222Y-97797009D01*
X118796552Y-97761271D01*
X118879814Y-97659814D01*
X118992639Y-97567222D01*
X119017009Y-97547222D01*
X119034913Y-97537652D01*
X119173533Y-97463557D01*
X119230147Y-97446384D01*
X119343373Y-97412037D01*
X119409558Y-97405518D01*
X119475740Y-97399000D01*
X119564260Y-97399000D01*
X119630442Y-97405518D01*
X119630442Y-97405518D01*
G37*
G36*
X112801000Y-99201000D02*
X110999000Y-99201000D01*
X110999000Y-97399000D01*
X112801000Y-97399000D01*
X112801000Y-99201000D01*
X112801000Y-99201000D01*
G37*
G36*
X157399943Y-97149519D02*
X157466127Y-97156037D01*
X157579353Y-97190384D01*
X157635967Y-97207557D01*
X157716119Y-97250400D01*
X157792491Y-97291222D01*
X157828229Y-97320552D01*
X157929686Y-97403814D01*
X157995128Y-97483557D01*
X158042278Y-97541009D01*
X158042279Y-97541011D01*
X158125943Y-97697533D01*
X158125943Y-97697534D01*
X158177463Y-97867373D01*
X158194859Y-98044000D01*
X158177463Y-98220627D01*
X158147319Y-98320000D01*
X158125943Y-98390467D01*
X158069198Y-98496627D01*
X158042278Y-98546991D01*
X158012948Y-98582729D01*
X157929686Y-98684186D01*
X157828229Y-98767448D01*
X157792491Y-98796778D01*
X157792489Y-98796779D01*
X157635967Y-98880443D01*
X157579353Y-98897616D01*
X157466127Y-98931963D01*
X157399943Y-98938481D01*
X157333760Y-98945000D01*
X157245240Y-98945000D01*
X157179058Y-98938482D01*
X157112873Y-98931963D01*
X156999647Y-98897616D01*
X156943033Y-98880443D01*
X156786511Y-98796779D01*
X156786509Y-98796778D01*
X156750771Y-98767448D01*
X156649314Y-98684186D01*
X156566052Y-98582729D01*
X156536722Y-98546991D01*
X156509802Y-98496627D01*
X156453057Y-98390467D01*
X156431681Y-98320000D01*
X156401537Y-98220627D01*
X156384141Y-98044000D01*
X156401537Y-97867373D01*
X156453057Y-97697534D01*
X156453057Y-97697533D01*
X156536721Y-97541011D01*
X156536722Y-97541009D01*
X156583872Y-97483557D01*
X156649314Y-97403814D01*
X156750771Y-97320552D01*
X156786509Y-97291222D01*
X156862881Y-97250400D01*
X156943033Y-97207557D01*
X156999647Y-97190384D01*
X157112873Y-97156037D01*
X157179058Y-97149518D01*
X157245240Y-97143000D01*
X157333760Y-97143000D01*
X157399943Y-97149519D01*
X157399943Y-97149519D01*
G37*
G36*
X95161800Y-98151400D02*
X93359800Y-98151400D01*
X93359800Y-96349400D01*
X95161800Y-96349400D01*
X95161800Y-98151400D01*
X95161800Y-98151400D01*
G37*
G36*
X99451242Y-96355918D02*
X99517427Y-96362437D01*
X99614761Y-96391963D01*
X99687267Y-96413957D01*
X99698920Y-96420186D01*
X99843791Y-96497622D01*
X99879529Y-96526952D01*
X99980986Y-96610214D01*
X100064248Y-96711671D01*
X100093578Y-96747409D01*
X100093579Y-96747411D01*
X100177243Y-96903933D01*
X100177243Y-96903934D01*
X100228763Y-97073773D01*
X100246159Y-97250400D01*
X100228763Y-97427027D01*
X100211615Y-97483557D01*
X100177243Y-97596867D01*
X100103148Y-97735487D01*
X100093578Y-97753391D01*
X100064248Y-97789129D01*
X99980986Y-97890586D01*
X99879913Y-97973533D01*
X99843791Y-98003178D01*
X99843789Y-98003179D01*
X99687267Y-98086843D01*
X99630653Y-98104016D01*
X99517427Y-98138363D01*
X99466538Y-98143375D01*
X99385060Y-98151400D01*
X99296540Y-98151400D01*
X99215062Y-98143375D01*
X99164173Y-98138363D01*
X99050947Y-98104016D01*
X98994333Y-98086843D01*
X98837811Y-98003179D01*
X98837809Y-98003178D01*
X98801687Y-97973533D01*
X98700614Y-97890586D01*
X98617352Y-97789129D01*
X98588022Y-97753391D01*
X98578452Y-97735487D01*
X98504357Y-97596867D01*
X98469985Y-97483557D01*
X98452837Y-97427027D01*
X98435441Y-97250400D01*
X98452837Y-97073773D01*
X98504357Y-96903934D01*
X98504357Y-96903933D01*
X98588021Y-96747411D01*
X98588022Y-96747409D01*
X98617352Y-96711671D01*
X98700614Y-96610214D01*
X98802071Y-96526952D01*
X98837809Y-96497622D01*
X98982680Y-96420186D01*
X98994333Y-96413957D01*
X99066839Y-96391963D01*
X99164173Y-96362437D01*
X99230358Y-96355918D01*
X99296540Y-96349400D01*
X99385060Y-96349400D01*
X99451242Y-96355918D01*
X99451242Y-96355918D01*
G37*
G36*
X96911242Y-96355918D02*
X96977427Y-96362437D01*
X97074761Y-96391963D01*
X97147267Y-96413957D01*
X97158920Y-96420186D01*
X97303791Y-96497622D01*
X97339529Y-96526952D01*
X97440986Y-96610214D01*
X97524248Y-96711671D01*
X97553578Y-96747409D01*
X97553579Y-96747411D01*
X97637243Y-96903933D01*
X97637243Y-96903934D01*
X97688763Y-97073773D01*
X97706159Y-97250400D01*
X97688763Y-97427027D01*
X97671615Y-97483557D01*
X97637243Y-97596867D01*
X97563148Y-97735487D01*
X97553578Y-97753391D01*
X97524248Y-97789129D01*
X97440986Y-97890586D01*
X97339913Y-97973533D01*
X97303791Y-98003178D01*
X97303789Y-98003179D01*
X97147267Y-98086843D01*
X97090653Y-98104016D01*
X96977427Y-98138363D01*
X96926538Y-98143375D01*
X96845060Y-98151400D01*
X96756540Y-98151400D01*
X96675062Y-98143375D01*
X96624173Y-98138363D01*
X96510947Y-98104016D01*
X96454333Y-98086843D01*
X96297811Y-98003179D01*
X96297809Y-98003178D01*
X96261687Y-97973533D01*
X96160614Y-97890586D01*
X96077352Y-97789129D01*
X96048022Y-97753391D01*
X96038452Y-97735487D01*
X95964357Y-97596867D01*
X95929985Y-97483557D01*
X95912837Y-97427027D01*
X95895441Y-97250400D01*
X95912837Y-97073773D01*
X95964357Y-96903934D01*
X95964357Y-96903933D01*
X96048021Y-96747411D01*
X96048022Y-96747409D01*
X96077352Y-96711671D01*
X96160614Y-96610214D01*
X96262071Y-96526952D01*
X96297809Y-96497622D01*
X96442680Y-96420186D01*
X96454333Y-96413957D01*
X96526839Y-96391963D01*
X96624173Y-96362437D01*
X96690358Y-96355918D01*
X96756540Y-96349400D01*
X96845060Y-96349400D01*
X96911242Y-96355918D01*
X96911242Y-96355918D01*
G37*
G36*
X109460442Y-94885518D02*
X109526627Y-94892037D01*
X109639853Y-94926384D01*
X109696467Y-94943557D01*
X109803954Y-95001011D01*
X109852991Y-95027222D01*
X109888729Y-95056552D01*
X109990186Y-95139814D01*
X110069486Y-95236443D01*
X110102778Y-95277009D01*
X110102779Y-95277011D01*
X110186443Y-95433533D01*
X110186443Y-95433534D01*
X110237963Y-95603373D01*
X110255359Y-95780000D01*
X110237963Y-95956627D01*
X110222686Y-96006989D01*
X110186443Y-96126467D01*
X110116789Y-96256778D01*
X110102778Y-96282991D01*
X110073448Y-96318729D01*
X109990186Y-96420186D01*
X109888729Y-96503448D01*
X109852991Y-96532778D01*
X109852989Y-96532779D01*
X109696467Y-96616443D01*
X109639853Y-96633616D01*
X109526627Y-96667963D01*
X109460442Y-96674482D01*
X109394260Y-96681000D01*
X109305740Y-96681000D01*
X109239557Y-96674481D01*
X109173373Y-96667963D01*
X109060147Y-96633616D01*
X109003533Y-96616443D01*
X108847011Y-96532779D01*
X108847009Y-96532778D01*
X108811271Y-96503448D01*
X108709814Y-96420186D01*
X108626552Y-96318729D01*
X108597222Y-96282991D01*
X108583211Y-96256778D01*
X108513557Y-96126467D01*
X108477314Y-96006989D01*
X108462037Y-95956627D01*
X108444641Y-95780000D01*
X108462037Y-95603373D01*
X108513557Y-95433534D01*
X108513557Y-95433533D01*
X108597221Y-95277011D01*
X108597222Y-95277009D01*
X108630514Y-95236443D01*
X108709814Y-95139814D01*
X108811271Y-95056552D01*
X108847009Y-95027222D01*
X108896046Y-95001011D01*
X109003533Y-94943557D01*
X109060147Y-94926384D01*
X109173373Y-94892037D01*
X109239558Y-94885518D01*
X109305740Y-94879000D01*
X109394260Y-94879000D01*
X109460442Y-94885518D01*
X109460442Y-94885518D01*
G37*
G36*
X157399942Y-94609518D02*
X157466127Y-94616037D01*
X157579353Y-94650384D01*
X157635967Y-94667557D01*
X157774587Y-94741652D01*
X157792491Y-94751222D01*
X157828229Y-94780552D01*
X157929686Y-94863814D01*
X157995128Y-94943557D01*
X158042278Y-95001009D01*
X158042279Y-95001011D01*
X158125943Y-95157533D01*
X158125943Y-95157534D01*
X158177463Y-95327373D01*
X158194859Y-95504000D01*
X158177463Y-95680627D01*
X158147319Y-95780000D01*
X158125943Y-95850467D01*
X158069198Y-95956627D01*
X158042278Y-96006991D01*
X158012948Y-96042729D01*
X157929686Y-96144186D01*
X157828229Y-96227448D01*
X157792491Y-96256778D01*
X157792489Y-96256779D01*
X157635967Y-96340443D01*
X157606439Y-96349400D01*
X157466127Y-96391963D01*
X157399942Y-96398482D01*
X157333760Y-96405000D01*
X157245240Y-96405000D01*
X157179058Y-96398482D01*
X157112873Y-96391963D01*
X156972561Y-96349400D01*
X156943033Y-96340443D01*
X156786511Y-96256779D01*
X156786509Y-96256778D01*
X156750771Y-96227448D01*
X156649314Y-96144186D01*
X156566052Y-96042729D01*
X156536722Y-96006991D01*
X156509802Y-95956627D01*
X156453057Y-95850467D01*
X156431681Y-95780000D01*
X156401537Y-95680627D01*
X156384141Y-95504000D01*
X156401537Y-95327373D01*
X156453057Y-95157534D01*
X156453057Y-95157533D01*
X156536721Y-95001011D01*
X156536722Y-95001009D01*
X156583872Y-94943557D01*
X156649314Y-94863814D01*
X156750771Y-94780552D01*
X156786509Y-94751222D01*
X156804413Y-94741652D01*
X156943033Y-94667557D01*
X156999647Y-94650384D01*
X157112873Y-94616037D01*
X157179058Y-94609518D01*
X157245240Y-94603000D01*
X157333760Y-94603000D01*
X157399942Y-94609518D01*
X157399942Y-94609518D01*
G37*
G36*
X96935442Y-93505518D02*
X97001627Y-93512037D01*
X97114853Y-93546384D01*
X97171467Y-93563557D01*
X97247477Y-93604186D01*
X97327991Y-93647222D01*
X97363729Y-93676552D01*
X97465186Y-93759814D01*
X97548448Y-93861271D01*
X97577778Y-93897009D01*
X97577779Y-93897011D01*
X97661443Y-94053533D01*
X97678616Y-94110147D01*
X97712963Y-94223373D01*
X97730359Y-94400000D01*
X97712963Y-94576627D01*
X97701008Y-94616037D01*
X97661443Y-94746467D01*
X97658901Y-94751222D01*
X97577778Y-94902991D01*
X97548448Y-94938729D01*
X97465186Y-95040186D01*
X97363729Y-95123448D01*
X97327991Y-95152778D01*
X97327989Y-95152779D01*
X97171467Y-95236443D01*
X97114853Y-95253616D01*
X97001627Y-95287963D01*
X96935442Y-95294482D01*
X96869260Y-95301000D01*
X96780740Y-95301000D01*
X96714558Y-95294482D01*
X96648373Y-95287963D01*
X96535147Y-95253616D01*
X96478533Y-95236443D01*
X96322011Y-95152779D01*
X96322009Y-95152778D01*
X96286271Y-95123448D01*
X96184814Y-95040186D01*
X96101552Y-94938729D01*
X96072222Y-94902991D01*
X95991099Y-94751222D01*
X95988557Y-94746467D01*
X95948992Y-94616037D01*
X95937037Y-94576627D01*
X95919641Y-94400000D01*
X95937037Y-94223373D01*
X95971384Y-94110147D01*
X95988557Y-94053533D01*
X96072221Y-93897011D01*
X96072222Y-93897009D01*
X96101552Y-93861271D01*
X96184814Y-93759814D01*
X96286271Y-93676552D01*
X96322009Y-93647222D01*
X96402523Y-93604186D01*
X96478533Y-93563557D01*
X96535147Y-93546384D01*
X96648373Y-93512037D01*
X96714558Y-93505518D01*
X96780740Y-93499000D01*
X96869260Y-93499000D01*
X96935442Y-93505518D01*
X96935442Y-93505518D01*
G37*
G36*
X95186000Y-95301000D02*
X93384000Y-95301000D01*
X93384000Y-93499000D01*
X95186000Y-93499000D01*
X95186000Y-95301000D01*
X95186000Y-95301000D01*
G37*
G36*
X109460443Y-92345519D02*
X109526627Y-92352037D01*
X109639853Y-92386384D01*
X109696467Y-92403557D01*
X109803954Y-92461011D01*
X109852991Y-92487222D01*
X109888729Y-92516552D01*
X109990186Y-92599814D01*
X110073448Y-92701271D01*
X110102778Y-92737009D01*
X110102779Y-92737011D01*
X110186443Y-92893533D01*
X110186443Y-92893534D01*
X110237963Y-93063373D01*
X110255359Y-93240000D01*
X110237963Y-93416627D01*
X110232999Y-93432991D01*
X110186443Y-93586467D01*
X110153969Y-93647221D01*
X110102778Y-93742991D01*
X110083531Y-93766443D01*
X109990186Y-93880186D01*
X109888729Y-93963448D01*
X109852991Y-93992778D01*
X109852989Y-93992779D01*
X109696467Y-94076443D01*
X109639853Y-94093616D01*
X109526627Y-94127963D01*
X109460442Y-94134482D01*
X109394260Y-94141000D01*
X109305740Y-94141000D01*
X109239558Y-94134482D01*
X109173373Y-94127963D01*
X109060147Y-94093616D01*
X109003533Y-94076443D01*
X108847011Y-93992779D01*
X108847009Y-93992778D01*
X108811271Y-93963448D01*
X108709814Y-93880186D01*
X108616469Y-93766443D01*
X108597222Y-93742991D01*
X108546031Y-93647221D01*
X108513557Y-93586467D01*
X108467001Y-93432991D01*
X108462037Y-93416627D01*
X108444641Y-93240000D01*
X108462037Y-93063373D01*
X108513557Y-92893534D01*
X108513557Y-92893533D01*
X108597221Y-92737011D01*
X108597222Y-92737009D01*
X108626552Y-92701271D01*
X108709814Y-92599814D01*
X108811271Y-92516552D01*
X108847009Y-92487222D01*
X108896046Y-92461011D01*
X109003533Y-92403557D01*
X109060147Y-92386384D01*
X109173373Y-92352037D01*
X109239557Y-92345519D01*
X109305740Y-92339000D01*
X109394260Y-92339000D01*
X109460443Y-92345519D01*
X109460443Y-92345519D01*
G37*
G36*
X157399943Y-92069519D02*
X157466127Y-92076037D01*
X157579353Y-92110384D01*
X157635967Y-92127557D01*
X157728880Y-92177221D01*
X157792491Y-92211222D01*
X157828229Y-92240552D01*
X157929686Y-92323814D01*
X157995128Y-92403557D01*
X158042278Y-92461009D01*
X158042279Y-92461011D01*
X158125943Y-92617533D01*
X158125943Y-92617534D01*
X158177463Y-92787373D01*
X158194859Y-92964000D01*
X158177463Y-93140627D01*
X158147319Y-93240000D01*
X158125943Y-93310467D01*
X158069198Y-93416627D01*
X158042278Y-93466991D01*
X158016009Y-93499000D01*
X157929686Y-93604186D01*
X157833920Y-93682778D01*
X157792491Y-93716778D01*
X157792489Y-93716779D01*
X157635967Y-93800443D01*
X157579353Y-93817616D01*
X157466127Y-93851963D01*
X157399943Y-93858481D01*
X157333760Y-93865000D01*
X157245240Y-93865000D01*
X157179057Y-93858481D01*
X157112873Y-93851963D01*
X156999647Y-93817616D01*
X156943033Y-93800443D01*
X156786511Y-93716779D01*
X156786509Y-93716778D01*
X156745080Y-93682778D01*
X156649314Y-93604186D01*
X156562991Y-93499000D01*
X156536722Y-93466991D01*
X156509802Y-93416627D01*
X156453057Y-93310467D01*
X156431681Y-93240000D01*
X156401537Y-93140627D01*
X156384141Y-92964000D01*
X156401537Y-92787373D01*
X156453057Y-92617534D01*
X156453057Y-92617533D01*
X156536721Y-92461011D01*
X156536722Y-92461009D01*
X156583872Y-92403557D01*
X156649314Y-92323814D01*
X156750771Y-92240552D01*
X156786509Y-92211222D01*
X156850120Y-92177221D01*
X156943033Y-92127557D01*
X156999647Y-92110384D01*
X157112873Y-92076037D01*
X157179057Y-92069519D01*
X157245240Y-92063000D01*
X157333760Y-92063000D01*
X157399943Y-92069519D01*
X157399943Y-92069519D01*
G37*
G36*
X147610443Y-92035519D02*
X147676627Y-92042037D01*
X147788710Y-92076037D01*
X147846467Y-92093557D01*
X147985087Y-92167652D01*
X148002991Y-92177222D01*
X148038729Y-92206552D01*
X148140186Y-92289814D01*
X148191250Y-92352037D01*
X148252778Y-92427009D01*
X148252779Y-92427011D01*
X148336443Y-92583533D01*
X148346757Y-92617534D01*
X148387963Y-92753373D01*
X148405359Y-92930000D01*
X148387963Y-93106627D01*
X148377649Y-93140627D01*
X148336443Y-93276467D01*
X148318269Y-93310467D01*
X148252778Y-93432991D01*
X148224876Y-93466989D01*
X148140186Y-93570186D01*
X148046317Y-93647221D01*
X148002991Y-93682778D01*
X148002989Y-93682779D01*
X147846467Y-93766443D01*
X147789853Y-93783616D01*
X147676627Y-93817963D01*
X147610443Y-93824481D01*
X147544260Y-93831000D01*
X147455740Y-93831000D01*
X147389557Y-93824481D01*
X147323373Y-93817963D01*
X147210147Y-93783616D01*
X147153533Y-93766443D01*
X146997011Y-93682779D01*
X146997009Y-93682778D01*
X146953683Y-93647221D01*
X146859814Y-93570186D01*
X146775124Y-93466989D01*
X146747222Y-93432991D01*
X146681731Y-93310467D01*
X146663557Y-93276467D01*
X146622351Y-93140627D01*
X146612037Y-93106627D01*
X146594641Y-92930000D01*
X146612037Y-92753373D01*
X146653243Y-92617534D01*
X146663557Y-92583533D01*
X146747221Y-92427011D01*
X146747222Y-92427009D01*
X146808750Y-92352037D01*
X146859814Y-92289814D01*
X146961271Y-92206552D01*
X146997009Y-92177222D01*
X147014913Y-92167652D01*
X147153533Y-92093557D01*
X147211290Y-92076037D01*
X147323373Y-92042037D01*
X147389558Y-92035518D01*
X147455740Y-92029000D01*
X147544260Y-92029000D01*
X147610443Y-92035519D01*
X147610443Y-92035519D01*
G37*
G36*
X95136000Y-92476000D02*
X93334000Y-92476000D01*
X93334000Y-90674000D01*
X95136000Y-90674000D01*
X95136000Y-92476000D01*
X95136000Y-92476000D01*
G37*
G36*
X96885443Y-90680519D02*
X96951627Y-90687037D01*
X97064853Y-90721384D01*
X97121467Y-90738557D01*
X97260087Y-90812652D01*
X97277991Y-90822222D01*
X97313729Y-90851552D01*
X97415186Y-90934814D01*
X97493454Y-91030185D01*
X97527778Y-91072009D01*
X97527779Y-91072011D01*
X97611443Y-91228533D01*
X97626437Y-91277963D01*
X97662963Y-91398373D01*
X97680359Y-91575000D01*
X97662963Y-91751627D01*
X97628616Y-91864853D01*
X97611443Y-91921467D01*
X97546996Y-92042037D01*
X97527778Y-92077991D01*
X97515003Y-92093557D01*
X97415186Y-92215186D01*
X97324250Y-92289814D01*
X97277991Y-92327778D01*
X97277989Y-92327779D01*
X97121467Y-92411443D01*
X97070152Y-92427009D01*
X96951627Y-92462963D01*
X96885443Y-92469481D01*
X96819260Y-92476000D01*
X96730740Y-92476000D01*
X96664557Y-92469481D01*
X96598373Y-92462963D01*
X96479848Y-92427009D01*
X96428533Y-92411443D01*
X96272011Y-92327779D01*
X96272009Y-92327778D01*
X96225750Y-92289814D01*
X96134814Y-92215186D01*
X96034997Y-92093557D01*
X96022222Y-92077991D01*
X96003004Y-92042037D01*
X95938557Y-91921467D01*
X95921384Y-91864853D01*
X95887037Y-91751627D01*
X95869641Y-91575000D01*
X95887037Y-91398373D01*
X95923563Y-91277963D01*
X95938557Y-91228533D01*
X96022221Y-91072011D01*
X96022222Y-91072009D01*
X96056546Y-91030185D01*
X96134814Y-90934814D01*
X96236271Y-90851552D01*
X96272009Y-90822222D01*
X96289913Y-90812652D01*
X96428533Y-90738557D01*
X96485147Y-90721384D01*
X96598373Y-90687037D01*
X96664557Y-90680519D01*
X96730740Y-90674000D01*
X96819260Y-90674000D01*
X96885443Y-90680519D01*
X96885443Y-90680519D01*
G37*
G36*
X109460442Y-89805518D02*
X109526627Y-89812037D01*
X109639853Y-89846384D01*
X109696467Y-89863557D01*
X109803954Y-89921011D01*
X109852991Y-89947222D01*
X109888729Y-89976552D01*
X109990186Y-90059814D01*
X110073448Y-90161271D01*
X110102778Y-90197009D01*
X110102779Y-90197011D01*
X110186443Y-90353533D01*
X110186443Y-90353534D01*
X110237963Y-90523373D01*
X110255359Y-90700000D01*
X110237963Y-90876627D01*
X110232999Y-90892991D01*
X110186443Y-91046467D01*
X110172790Y-91072009D01*
X110102778Y-91202991D01*
X110083531Y-91226443D01*
X109990186Y-91340186D01*
X109919281Y-91398375D01*
X109852991Y-91452778D01*
X109852989Y-91452779D01*
X109696467Y-91536443D01*
X109639853Y-91553616D01*
X109526627Y-91587963D01*
X109460442Y-91594482D01*
X109394260Y-91601000D01*
X109305740Y-91601000D01*
X109239558Y-91594482D01*
X109173373Y-91587963D01*
X109060147Y-91553616D01*
X109003533Y-91536443D01*
X108847011Y-91452779D01*
X108847009Y-91452778D01*
X108780719Y-91398375D01*
X108709814Y-91340186D01*
X108616469Y-91226443D01*
X108597222Y-91202991D01*
X108527210Y-91072009D01*
X108513557Y-91046467D01*
X108467001Y-90892991D01*
X108462037Y-90876627D01*
X108444641Y-90700000D01*
X108462037Y-90523373D01*
X108513557Y-90353534D01*
X108513557Y-90353533D01*
X108597221Y-90197011D01*
X108597222Y-90197009D01*
X108626552Y-90161271D01*
X108709814Y-90059814D01*
X108811271Y-89976552D01*
X108847009Y-89947222D01*
X108896046Y-89921011D01*
X109003533Y-89863557D01*
X109060147Y-89846384D01*
X109173373Y-89812037D01*
X109239558Y-89805518D01*
X109305740Y-89799000D01*
X109394260Y-89799000D01*
X109460442Y-89805518D01*
X109460442Y-89805518D01*
G37*
G36*
X157399942Y-89529518D02*
X157466127Y-89536037D01*
X157579353Y-89570384D01*
X157635967Y-89587557D01*
X157728880Y-89637221D01*
X157792491Y-89671222D01*
X157828229Y-89700552D01*
X157929686Y-89783814D01*
X157995128Y-89863557D01*
X158042278Y-89921009D01*
X158042279Y-89921011D01*
X158125943Y-90077533D01*
X158125943Y-90077534D01*
X158177463Y-90247373D01*
X158194859Y-90424000D01*
X158177463Y-90600627D01*
X158151251Y-90687037D01*
X158125943Y-90770467D01*
X158069198Y-90876627D01*
X158042278Y-90926991D01*
X158012948Y-90962729D01*
X157929686Y-91064186D01*
X157833920Y-91142778D01*
X157792491Y-91176778D01*
X157792489Y-91176779D01*
X157635967Y-91260443D01*
X157579353Y-91277616D01*
X157466127Y-91311963D01*
X157399942Y-91318482D01*
X157333760Y-91325000D01*
X157245240Y-91325000D01*
X157179057Y-91318481D01*
X157112873Y-91311963D01*
X156999647Y-91277616D01*
X156943033Y-91260443D01*
X156786511Y-91176779D01*
X156786509Y-91176778D01*
X156745080Y-91142778D01*
X156649314Y-91064186D01*
X156566052Y-90962729D01*
X156536722Y-90926991D01*
X156509802Y-90876627D01*
X156453057Y-90770467D01*
X156427749Y-90687037D01*
X156401537Y-90600627D01*
X156384141Y-90424000D01*
X156401537Y-90247373D01*
X156453057Y-90077534D01*
X156453057Y-90077533D01*
X156536721Y-89921011D01*
X156536722Y-89921009D01*
X156583872Y-89863557D01*
X156649314Y-89783814D01*
X156750771Y-89700552D01*
X156786509Y-89671222D01*
X156850120Y-89637221D01*
X156943033Y-89587557D01*
X156999647Y-89570384D01*
X157112873Y-89536037D01*
X157179058Y-89529518D01*
X157245240Y-89523000D01*
X157333760Y-89523000D01*
X157399942Y-89529518D01*
X157399942Y-89529518D01*
G37*
G36*
X147610443Y-89495519D02*
X147676627Y-89502037D01*
X147788710Y-89536037D01*
X147846467Y-89553557D01*
X147985087Y-89627652D01*
X148002991Y-89637222D01*
X148038729Y-89666552D01*
X148140186Y-89749814D01*
X148191250Y-89812037D01*
X148252778Y-89887009D01*
X148252779Y-89887011D01*
X148336443Y-90043533D01*
X148346757Y-90077534D01*
X148387963Y-90213373D01*
X148405359Y-90390000D01*
X148387963Y-90566627D01*
X148377649Y-90600627D01*
X148336443Y-90736467D01*
X148318269Y-90770467D01*
X148252778Y-90892991D01*
X148224876Y-90926989D01*
X148140186Y-91030186D01*
X148038729Y-91113448D01*
X148002991Y-91142778D01*
X148002989Y-91142779D01*
X147846467Y-91226443D01*
X147789853Y-91243616D01*
X147676627Y-91277963D01*
X147610442Y-91284482D01*
X147544260Y-91291000D01*
X147455740Y-91291000D01*
X147389557Y-91284481D01*
X147323373Y-91277963D01*
X147210147Y-91243616D01*
X147153533Y-91226443D01*
X146997011Y-91142779D01*
X146997009Y-91142778D01*
X146961271Y-91113448D01*
X146859814Y-91030186D01*
X146775124Y-90926989D01*
X146747222Y-90892991D01*
X146681731Y-90770467D01*
X146663557Y-90736467D01*
X146622351Y-90600627D01*
X146612037Y-90566627D01*
X146594641Y-90390000D01*
X146612037Y-90213373D01*
X146653243Y-90077534D01*
X146663557Y-90043533D01*
X146747221Y-89887011D01*
X146747222Y-89887009D01*
X146808750Y-89812037D01*
X146859814Y-89749814D01*
X146961271Y-89666552D01*
X146997009Y-89637222D01*
X147014913Y-89627652D01*
X147153533Y-89553557D01*
X147211290Y-89536037D01*
X147323373Y-89502037D01*
X147389557Y-89495519D01*
X147455740Y-89489000D01*
X147544260Y-89489000D01*
X147610443Y-89495519D01*
X147610443Y-89495519D01*
G37*
G36*
X109460442Y-87265518D02*
X109526627Y-87272037D01*
X109639853Y-87306384D01*
X109696467Y-87323557D01*
X109803954Y-87381011D01*
X109852991Y-87407222D01*
X109888729Y-87436552D01*
X109990186Y-87519814D01*
X110073448Y-87621271D01*
X110102778Y-87657009D01*
X110102779Y-87657011D01*
X110186443Y-87813533D01*
X110186443Y-87813534D01*
X110237963Y-87983373D01*
X110255359Y-88160000D01*
X110237963Y-88336627D01*
X110222686Y-88386989D01*
X110186443Y-88506467D01*
X110116789Y-88636778D01*
X110102778Y-88662991D01*
X110073448Y-88698729D01*
X109990186Y-88800186D01*
X109888729Y-88883448D01*
X109852991Y-88912778D01*
X109852989Y-88912779D01*
X109696467Y-88996443D01*
X109639853Y-89013616D01*
X109526627Y-89047963D01*
X109460442Y-89054482D01*
X109394260Y-89061000D01*
X109305740Y-89061000D01*
X109239558Y-89054482D01*
X109173373Y-89047963D01*
X109060147Y-89013616D01*
X109003533Y-88996443D01*
X108847011Y-88912779D01*
X108847009Y-88912778D01*
X108811271Y-88883448D01*
X108709814Y-88800186D01*
X108626552Y-88698729D01*
X108597222Y-88662991D01*
X108583211Y-88636778D01*
X108513557Y-88506467D01*
X108477314Y-88386989D01*
X108462037Y-88336627D01*
X108444641Y-88160000D01*
X108462037Y-87983373D01*
X108513557Y-87813534D01*
X108513557Y-87813533D01*
X108597221Y-87657011D01*
X108597222Y-87657009D01*
X108626552Y-87621271D01*
X108709814Y-87519814D01*
X108811271Y-87436552D01*
X108847009Y-87407222D01*
X108896046Y-87381011D01*
X109003533Y-87323557D01*
X109060147Y-87306384D01*
X109173373Y-87272037D01*
X109239558Y-87265518D01*
X109305740Y-87259000D01*
X109394260Y-87259000D01*
X109460442Y-87265518D01*
X109460442Y-87265518D01*
G37*
G36*
X157399943Y-86989519D02*
X157466127Y-86996037D01*
X157579353Y-87030384D01*
X157635967Y-87047557D01*
X157692902Y-87077990D01*
X157792491Y-87131222D01*
X157828229Y-87160552D01*
X157929686Y-87243814D01*
X157995128Y-87323557D01*
X158042278Y-87381009D01*
X158042279Y-87381011D01*
X158125943Y-87537533D01*
X158125943Y-87537534D01*
X158177463Y-87707373D01*
X158194859Y-87884000D01*
X158177463Y-88060627D01*
X158147319Y-88160000D01*
X158125943Y-88230467D01*
X158069198Y-88336627D01*
X158042278Y-88386991D01*
X158012948Y-88422729D01*
X157929686Y-88524186D01*
X157828229Y-88607448D01*
X157792491Y-88636778D01*
X157792489Y-88636779D01*
X157635967Y-88720443D01*
X157579353Y-88737616D01*
X157466127Y-88771963D01*
X157399942Y-88778482D01*
X157333760Y-88785000D01*
X157245240Y-88785000D01*
X157179058Y-88778482D01*
X157112873Y-88771963D01*
X156999647Y-88737616D01*
X156943033Y-88720443D01*
X156786511Y-88636779D01*
X156786509Y-88636778D01*
X156750771Y-88607448D01*
X156649314Y-88524186D01*
X156566052Y-88422729D01*
X156536722Y-88386991D01*
X156509802Y-88336627D01*
X156453057Y-88230467D01*
X156431681Y-88160000D01*
X156401537Y-88060627D01*
X156384141Y-87884000D01*
X156401537Y-87707373D01*
X156453057Y-87537534D01*
X156453057Y-87537533D01*
X156536721Y-87381011D01*
X156536722Y-87381009D01*
X156583872Y-87323557D01*
X156649314Y-87243814D01*
X156750771Y-87160552D01*
X156786509Y-87131222D01*
X156886098Y-87077990D01*
X156943033Y-87047557D01*
X156999647Y-87030384D01*
X157112873Y-86996037D01*
X157179057Y-86989519D01*
X157245240Y-86983000D01*
X157333760Y-86983000D01*
X157399943Y-86989519D01*
X157399943Y-86989519D01*
G37*
G36*
X148401000Y-88751000D02*
X146599000Y-88751000D01*
X146599000Y-86949000D01*
X148401000Y-86949000D01*
X148401000Y-88751000D01*
X148401000Y-88751000D01*
G37*
G36*
X98585721Y-86120174D02*
X98685995Y-86161709D01*
X98776245Y-86222012D01*
X98852988Y-86298755D01*
X98913291Y-86389005D01*
X98954826Y-86489279D01*
X98976000Y-86595730D01*
X98976000Y-86704270D01*
X98954826Y-86810721D01*
X98913291Y-86910995D01*
X98852988Y-87001245D01*
X98776245Y-87077988D01*
X98685995Y-87138291D01*
X98585721Y-87179826D01*
X98479270Y-87201000D01*
X98370730Y-87201000D01*
X98264279Y-87179826D01*
X98164005Y-87138291D01*
X98073755Y-87077988D01*
X97997012Y-87001245D01*
X97936709Y-86910995D01*
X97895174Y-86810721D01*
X97874000Y-86704270D01*
X97874000Y-86595730D01*
X97895174Y-86489279D01*
X97936709Y-86389005D01*
X97997012Y-86298755D01*
X98073755Y-86222012D01*
X98164005Y-86161709D01*
X98264279Y-86120174D01*
X98370730Y-86099000D01*
X98479270Y-86099000D01*
X98585721Y-86120174D01*
X98585721Y-86120174D01*
G37*
G36*
X109460442Y-84725518D02*
X109526627Y-84732037D01*
X109639853Y-84766384D01*
X109696467Y-84783557D01*
X109803954Y-84841011D01*
X109852991Y-84867222D01*
X109888729Y-84896552D01*
X109990186Y-84979814D01*
X110073448Y-85081271D01*
X110102778Y-85117009D01*
X110102779Y-85117011D01*
X110186443Y-85273533D01*
X110186443Y-85273534D01*
X110237963Y-85443373D01*
X110255359Y-85620000D01*
X110237963Y-85796627D01*
X110222686Y-85846989D01*
X110186443Y-85966467D01*
X110116789Y-86096778D01*
X110102778Y-86122991D01*
X110073448Y-86158729D01*
X109990186Y-86260186D01*
X109888729Y-86343448D01*
X109852991Y-86372778D01*
X109852989Y-86372779D01*
X109696467Y-86456443D01*
X109639853Y-86473616D01*
X109526627Y-86507963D01*
X109460443Y-86514481D01*
X109394260Y-86521000D01*
X109305740Y-86521000D01*
X109239557Y-86514481D01*
X109173373Y-86507963D01*
X109060147Y-86473616D01*
X109003533Y-86456443D01*
X108847011Y-86372779D01*
X108847009Y-86372778D01*
X108811271Y-86343448D01*
X108709814Y-86260186D01*
X108626552Y-86158729D01*
X108597222Y-86122991D01*
X108583211Y-86096778D01*
X108513557Y-85966467D01*
X108477314Y-85846989D01*
X108462037Y-85796627D01*
X108444641Y-85620000D01*
X108462037Y-85443373D01*
X108513557Y-85273534D01*
X108513557Y-85273533D01*
X108597221Y-85117011D01*
X108597222Y-85117009D01*
X108626552Y-85081271D01*
X108709814Y-84979814D01*
X108811271Y-84896552D01*
X108847009Y-84867222D01*
X108896046Y-84841011D01*
X109003533Y-84783557D01*
X109060147Y-84766384D01*
X109173373Y-84732037D01*
X109239558Y-84725518D01*
X109305740Y-84719000D01*
X109394260Y-84719000D01*
X109460442Y-84725518D01*
X109460442Y-84725518D01*
G37*
G36*
X157399942Y-84449518D02*
X157466127Y-84456037D01*
X157579353Y-84490384D01*
X157635967Y-84507557D01*
X157774587Y-84581652D01*
X157792491Y-84591222D01*
X157828229Y-84620552D01*
X157929686Y-84703814D01*
X157995128Y-84783557D01*
X158042278Y-84841009D01*
X158042279Y-84841011D01*
X158125943Y-84997533D01*
X158125943Y-84997534D01*
X158177463Y-85167373D01*
X158194859Y-85344000D01*
X158177463Y-85520627D01*
X158147319Y-85620000D01*
X158125943Y-85690467D01*
X158069198Y-85796627D01*
X158042278Y-85846991D01*
X158012948Y-85882729D01*
X157929686Y-85984186D01*
X157828229Y-86067448D01*
X157792491Y-86096778D01*
X157792489Y-86096779D01*
X157635967Y-86180443D01*
X157579353Y-86197616D01*
X157466127Y-86231963D01*
X157399942Y-86238482D01*
X157333760Y-86245000D01*
X157245240Y-86245000D01*
X157179058Y-86238482D01*
X157112873Y-86231963D01*
X156999647Y-86197616D01*
X156943033Y-86180443D01*
X156786511Y-86096779D01*
X156786509Y-86096778D01*
X156750771Y-86067448D01*
X156649314Y-85984186D01*
X156566052Y-85882729D01*
X156536722Y-85846991D01*
X156509802Y-85796627D01*
X156453057Y-85690467D01*
X156431681Y-85620000D01*
X156401537Y-85520627D01*
X156384141Y-85344000D01*
X156401537Y-85167373D01*
X156453057Y-84997534D01*
X156453057Y-84997533D01*
X156536721Y-84841011D01*
X156536722Y-84841009D01*
X156583872Y-84783557D01*
X156649314Y-84703814D01*
X156750771Y-84620552D01*
X156786509Y-84591222D01*
X156804413Y-84581652D01*
X156943033Y-84507557D01*
X156999647Y-84490384D01*
X157112873Y-84456037D01*
X157179058Y-84449518D01*
X157245240Y-84443000D01*
X157333760Y-84443000D01*
X157399942Y-84449518D01*
X157399942Y-84449518D01*
G37*
G36*
X109460443Y-82185519D02*
X109526627Y-82192037D01*
X109639853Y-82226384D01*
X109696467Y-82243557D01*
X109803954Y-82301011D01*
X109852991Y-82327222D01*
X109888729Y-82356552D01*
X109990186Y-82439814D01*
X110073448Y-82541271D01*
X110102778Y-82577009D01*
X110102779Y-82577011D01*
X110186443Y-82733533D01*
X110203616Y-82790147D01*
X110237963Y-82903373D01*
X110255359Y-83080000D01*
X110237963Y-83256627D01*
X110222686Y-83306989D01*
X110186443Y-83426467D01*
X110116789Y-83556778D01*
X110102778Y-83582991D01*
X110073448Y-83618729D01*
X109990186Y-83720186D01*
X109888729Y-83803448D01*
X109852991Y-83832778D01*
X109852989Y-83832779D01*
X109696467Y-83916443D01*
X109639853Y-83933616D01*
X109526627Y-83967963D01*
X109460442Y-83974482D01*
X109394260Y-83981000D01*
X109305740Y-83981000D01*
X109239558Y-83974482D01*
X109173373Y-83967963D01*
X109060147Y-83933616D01*
X109003533Y-83916443D01*
X108847011Y-83832779D01*
X108847009Y-83832778D01*
X108811271Y-83803448D01*
X108709814Y-83720186D01*
X108626552Y-83618729D01*
X108597222Y-83582991D01*
X108583211Y-83556778D01*
X108513557Y-83426467D01*
X108477314Y-83306989D01*
X108462037Y-83256627D01*
X108444641Y-83080000D01*
X108462037Y-82903373D01*
X108496384Y-82790147D01*
X108513557Y-82733533D01*
X108597221Y-82577011D01*
X108597222Y-82577009D01*
X108626552Y-82541271D01*
X108709814Y-82439814D01*
X108811271Y-82356552D01*
X108847009Y-82327222D01*
X108896046Y-82301011D01*
X109003533Y-82243557D01*
X109060147Y-82226384D01*
X109173373Y-82192037D01*
X109239557Y-82185519D01*
X109305740Y-82179000D01*
X109394260Y-82179000D01*
X109460443Y-82185519D01*
X109460443Y-82185519D01*
G37*
G36*
X157399942Y-81909518D02*
X157466127Y-81916037D01*
X157579353Y-81950384D01*
X157635967Y-81967557D01*
X157774587Y-82041652D01*
X157792491Y-82051222D01*
X157828229Y-82080552D01*
X157929686Y-82163814D01*
X157995128Y-82243557D01*
X158042278Y-82301009D01*
X158044021Y-82304270D01*
X158125943Y-82457533D01*
X158143116Y-82514147D01*
X158177463Y-82627373D01*
X158194859Y-82804000D01*
X158177463Y-82980627D01*
X158147319Y-83080000D01*
X158125943Y-83150467D01*
X158069198Y-83256627D01*
X158042278Y-83306991D01*
X158012948Y-83342729D01*
X157929686Y-83444186D01*
X157828229Y-83527448D01*
X157792491Y-83556778D01*
X157792489Y-83556779D01*
X157635967Y-83640443D01*
X157579353Y-83657616D01*
X157466127Y-83691963D01*
X157399942Y-83698482D01*
X157333760Y-83705000D01*
X157245240Y-83705000D01*
X157179058Y-83698482D01*
X157112873Y-83691963D01*
X156999647Y-83657616D01*
X156943033Y-83640443D01*
X156786511Y-83556779D01*
X156786509Y-83556778D01*
X156750771Y-83527448D01*
X156649314Y-83444186D01*
X156566052Y-83342729D01*
X156536722Y-83306991D01*
X156509802Y-83256627D01*
X156453057Y-83150467D01*
X156431681Y-83080000D01*
X156401537Y-82980627D01*
X156384141Y-82804000D01*
X156401537Y-82627373D01*
X156435884Y-82514147D01*
X156453057Y-82457533D01*
X156534979Y-82304270D01*
X156536722Y-82301009D01*
X156583872Y-82243557D01*
X156649314Y-82163814D01*
X156750771Y-82080552D01*
X156786509Y-82051222D01*
X156804413Y-82041652D01*
X156943033Y-81967557D01*
X156999647Y-81950384D01*
X157112873Y-81916037D01*
X157179058Y-81909518D01*
X157245240Y-81903000D01*
X157333760Y-81903000D01*
X157399942Y-81909518D01*
X157399942Y-81909518D01*
G37*
G36*
X98585721Y-81720174D02*
X98685995Y-81761709D01*
X98776245Y-81822012D01*
X98852988Y-81898755D01*
X98913291Y-81989005D01*
X98954826Y-82089279D01*
X98976000Y-82195730D01*
X98976000Y-82304270D01*
X98954826Y-82410721D01*
X98913291Y-82510995D01*
X98852988Y-82601245D01*
X98776245Y-82677988D01*
X98685995Y-82738291D01*
X98585721Y-82779826D01*
X98479270Y-82801000D01*
X98370730Y-82801000D01*
X98264279Y-82779826D01*
X98164005Y-82738291D01*
X98073755Y-82677988D01*
X97997012Y-82601245D01*
X97936709Y-82510995D01*
X97895174Y-82410721D01*
X97874000Y-82304270D01*
X97874000Y-82195730D01*
X97895174Y-82089279D01*
X97936709Y-81989005D01*
X97997012Y-81898755D01*
X98073755Y-81822012D01*
X98164005Y-81761709D01*
X98264279Y-81720174D01*
X98370730Y-81699000D01*
X98479270Y-81699000D01*
X98585721Y-81720174D01*
X98585721Y-81720174D01*
G37*
G36*
X109460442Y-79645518D02*
X109526627Y-79652037D01*
X109639853Y-79686384D01*
X109696467Y-79703557D01*
X109803954Y-79761011D01*
X109852991Y-79787222D01*
X109888729Y-79816552D01*
X109990186Y-79899814D01*
X110073448Y-80001271D01*
X110102778Y-80037009D01*
X110102779Y-80037011D01*
X110186443Y-80193533D01*
X110186443Y-80193534D01*
X110237963Y-80363373D01*
X110255359Y-80540000D01*
X110237963Y-80716627D01*
X110222686Y-80766989D01*
X110186443Y-80886467D01*
X110116789Y-81016778D01*
X110102778Y-81042991D01*
X110073448Y-81078729D01*
X109990186Y-81180186D01*
X109888729Y-81263448D01*
X109852991Y-81292778D01*
X109852989Y-81292779D01*
X109696467Y-81376443D01*
X109639853Y-81393616D01*
X109526627Y-81427963D01*
X109460443Y-81434481D01*
X109394260Y-81441000D01*
X109305740Y-81441000D01*
X109239557Y-81434481D01*
X109173373Y-81427963D01*
X109060147Y-81393616D01*
X109003533Y-81376443D01*
X108847011Y-81292779D01*
X108847009Y-81292778D01*
X108811271Y-81263448D01*
X108709814Y-81180186D01*
X108626552Y-81078729D01*
X108597222Y-81042991D01*
X108583211Y-81016778D01*
X108513557Y-80886467D01*
X108477314Y-80766989D01*
X108462037Y-80716627D01*
X108444641Y-80540000D01*
X108462037Y-80363373D01*
X108513557Y-80193534D01*
X108513557Y-80193533D01*
X108597221Y-80037011D01*
X108597222Y-80037009D01*
X108626552Y-80001271D01*
X108709814Y-79899814D01*
X108811271Y-79816552D01*
X108847009Y-79787222D01*
X108896046Y-79761011D01*
X109003533Y-79703557D01*
X109060147Y-79686384D01*
X109173373Y-79652037D01*
X109239558Y-79645518D01*
X109305740Y-79639000D01*
X109394260Y-79639000D01*
X109460442Y-79645518D01*
X109460442Y-79645518D01*
G37*
G36*
X157399942Y-79369518D02*
X157466127Y-79376037D01*
X157579353Y-79410384D01*
X157635967Y-79427557D01*
X157774587Y-79501652D01*
X157792491Y-79511222D01*
X157828229Y-79540552D01*
X157929686Y-79623814D01*
X157995128Y-79703557D01*
X158042278Y-79761009D01*
X158042279Y-79761011D01*
X158125943Y-79917533D01*
X158125943Y-79917534D01*
X158177463Y-80087373D01*
X158194859Y-80264000D01*
X158177463Y-80440627D01*
X158147319Y-80540000D01*
X158125943Y-80610467D01*
X158069198Y-80716627D01*
X158042278Y-80766991D01*
X158012948Y-80802729D01*
X157929686Y-80904186D01*
X157828229Y-80987448D01*
X157792491Y-81016778D01*
X157792489Y-81016779D01*
X157635967Y-81100443D01*
X157579353Y-81117616D01*
X157466127Y-81151963D01*
X157399943Y-81158481D01*
X157333760Y-81165000D01*
X157245240Y-81165000D01*
X157179057Y-81158481D01*
X157112873Y-81151963D01*
X156999647Y-81117616D01*
X156943033Y-81100443D01*
X156786511Y-81016779D01*
X156786509Y-81016778D01*
X156750771Y-80987448D01*
X156649314Y-80904186D01*
X156566052Y-80802729D01*
X156536722Y-80766991D01*
X156509802Y-80716627D01*
X156453057Y-80610467D01*
X156431681Y-80540000D01*
X156401537Y-80440627D01*
X156384141Y-80264000D01*
X156401537Y-80087373D01*
X156453057Y-79917534D01*
X156453057Y-79917533D01*
X156536721Y-79761011D01*
X156536722Y-79761009D01*
X156583872Y-79703557D01*
X156649314Y-79623814D01*
X156750771Y-79540552D01*
X156786509Y-79511222D01*
X156804413Y-79501652D01*
X156943033Y-79427557D01*
X156999647Y-79410384D01*
X157112873Y-79376037D01*
X157179058Y-79369518D01*
X157245240Y-79363000D01*
X157333760Y-79363000D01*
X157399942Y-79369518D01*
X157399942Y-79369518D01*
G37*
G36*
X110251000Y-78901000D02*
X108449000Y-78901000D01*
X108449000Y-77099000D01*
X110251000Y-77099000D01*
X110251000Y-78901000D01*
X110251000Y-78901000D01*
G37*
G36*
X157399943Y-76829519D02*
X157466127Y-76836037D01*
X157579353Y-76870384D01*
X157635967Y-76887557D01*
X157774587Y-76961652D01*
X157792491Y-76971222D01*
X157828229Y-77000552D01*
X157929686Y-77083814D01*
X158012948Y-77185271D01*
X158042278Y-77221009D01*
X158042279Y-77221011D01*
X158125943Y-77377533D01*
X158125943Y-77377534D01*
X158177463Y-77547373D01*
X158194859Y-77724000D01*
X158177463Y-77900627D01*
X158143116Y-78013853D01*
X158125943Y-78070467D01*
X158051848Y-78209087D01*
X158042278Y-78226991D01*
X158012948Y-78262729D01*
X157929686Y-78364186D01*
X157828229Y-78447448D01*
X157792491Y-78476778D01*
X157792489Y-78476779D01*
X157635967Y-78560443D01*
X157579353Y-78577616D01*
X157466127Y-78611963D01*
X157399942Y-78618482D01*
X157333760Y-78625000D01*
X157245240Y-78625000D01*
X157179058Y-78618482D01*
X157112873Y-78611963D01*
X156999647Y-78577616D01*
X156943033Y-78560443D01*
X156786511Y-78476779D01*
X156786509Y-78476778D01*
X156750771Y-78447448D01*
X156649314Y-78364186D01*
X156566052Y-78262729D01*
X156536722Y-78226991D01*
X156527152Y-78209087D01*
X156453057Y-78070467D01*
X156435884Y-78013853D01*
X156401537Y-77900627D01*
X156384141Y-77724000D01*
X156401537Y-77547373D01*
X156453057Y-77377534D01*
X156453057Y-77377533D01*
X156536721Y-77221011D01*
X156536722Y-77221009D01*
X156566052Y-77185271D01*
X156649314Y-77083814D01*
X156750771Y-77000552D01*
X156786509Y-76971222D01*
X156804413Y-76961652D01*
X156943033Y-76887557D01*
X156999647Y-76870384D01*
X157112873Y-76836037D01*
X157179057Y-76829519D01*
X157245240Y-76823000D01*
X157333760Y-76823000D01*
X157399943Y-76829519D01*
X157399943Y-76829519D01*
G37*
G36*
X119570442Y-74305518D02*
X119636627Y-74312037D01*
X119749853Y-74346384D01*
X119806467Y-74363557D01*
X119945087Y-74437652D01*
X119962991Y-74447222D01*
X119998729Y-74476552D01*
X120100186Y-74559814D01*
X120183448Y-74661271D01*
X120212778Y-74697009D01*
X120212779Y-74697011D01*
X120296443Y-74853533D01*
X120296443Y-74853534D01*
X120347963Y-75023373D01*
X120365359Y-75200000D01*
X120347963Y-75376627D01*
X120313616Y-75489853D01*
X120296443Y-75546467D01*
X120222348Y-75685087D01*
X120212778Y-75702991D01*
X120183448Y-75738729D01*
X120100186Y-75840186D01*
X119998729Y-75923448D01*
X119962991Y-75952778D01*
X119962989Y-75952779D01*
X119806467Y-76036443D01*
X119749853Y-76053616D01*
X119636627Y-76087963D01*
X119570442Y-76094482D01*
X119504260Y-76101000D01*
X119415740Y-76101000D01*
X119349558Y-76094482D01*
X119283373Y-76087963D01*
X119170147Y-76053616D01*
X119113533Y-76036443D01*
X118957011Y-75952779D01*
X118957009Y-75952778D01*
X118921271Y-75923448D01*
X118819814Y-75840186D01*
X118736552Y-75738729D01*
X118707222Y-75702991D01*
X118697652Y-75685087D01*
X118623557Y-75546467D01*
X118606384Y-75489853D01*
X118572037Y-75376627D01*
X118554641Y-75200000D01*
X118572037Y-75023373D01*
X118623557Y-74853534D01*
X118623557Y-74853533D01*
X118707221Y-74697011D01*
X118707222Y-74697009D01*
X118736552Y-74661271D01*
X118819814Y-74559814D01*
X118921271Y-74476552D01*
X118957009Y-74447222D01*
X118974913Y-74437652D01*
X119113533Y-74363557D01*
X119170147Y-74346384D01*
X119283373Y-74312037D01*
X119349558Y-74305518D01*
X119415740Y-74299000D01*
X119504260Y-74299000D01*
X119570442Y-74305518D01*
X119570442Y-74305518D01*
G37*
G36*
X129730442Y-74305518D02*
X129796627Y-74312037D01*
X129909853Y-74346384D01*
X129966467Y-74363557D01*
X130105087Y-74437652D01*
X130122991Y-74447222D01*
X130158729Y-74476552D01*
X130260186Y-74559814D01*
X130343448Y-74661271D01*
X130372778Y-74697009D01*
X130372779Y-74697011D01*
X130456443Y-74853533D01*
X130456443Y-74853534D01*
X130507963Y-75023373D01*
X130525359Y-75200000D01*
X130507963Y-75376627D01*
X130473616Y-75489853D01*
X130456443Y-75546467D01*
X130382348Y-75685087D01*
X130372778Y-75702991D01*
X130343448Y-75738729D01*
X130260186Y-75840186D01*
X130158729Y-75923448D01*
X130122991Y-75952778D01*
X130122989Y-75952779D01*
X129966467Y-76036443D01*
X129909853Y-76053616D01*
X129796627Y-76087963D01*
X129730442Y-76094482D01*
X129664260Y-76101000D01*
X129575740Y-76101000D01*
X129509558Y-76094482D01*
X129443373Y-76087963D01*
X129330147Y-76053616D01*
X129273533Y-76036443D01*
X129117011Y-75952779D01*
X129117009Y-75952778D01*
X129081271Y-75923448D01*
X128979814Y-75840186D01*
X128896552Y-75738729D01*
X128867222Y-75702991D01*
X128857652Y-75685087D01*
X128783557Y-75546467D01*
X128766384Y-75489853D01*
X128732037Y-75376627D01*
X128714641Y-75200000D01*
X128732037Y-75023373D01*
X128783557Y-74853534D01*
X128783557Y-74853533D01*
X128867221Y-74697011D01*
X128867222Y-74697009D01*
X128896552Y-74661271D01*
X128979814Y-74559814D01*
X129081271Y-74476552D01*
X129117009Y-74447222D01*
X129134913Y-74437652D01*
X129273533Y-74363557D01*
X129330147Y-74346384D01*
X129443373Y-74312037D01*
X129509558Y-74305518D01*
X129575740Y-74299000D01*
X129664260Y-74299000D01*
X129730442Y-74305518D01*
X129730442Y-74305518D01*
G37*
G36*
X145761000Y-76101000D02*
X143959000Y-76101000D01*
X143959000Y-74299000D01*
X145761000Y-74299000D01*
X145761000Y-76101000D01*
X145761000Y-76101000D01*
G37*
G36*
X142430442Y-74305518D02*
X142496627Y-74312037D01*
X142609853Y-74346384D01*
X142666467Y-74363557D01*
X142805087Y-74437652D01*
X142822991Y-74447222D01*
X142858729Y-74476552D01*
X142960186Y-74559814D01*
X143043448Y-74661271D01*
X143072778Y-74697009D01*
X143072779Y-74697011D01*
X143156443Y-74853533D01*
X143156443Y-74853534D01*
X143207963Y-75023373D01*
X143225359Y-75200000D01*
X143207963Y-75376627D01*
X143173616Y-75489853D01*
X143156443Y-75546467D01*
X143082348Y-75685087D01*
X143072778Y-75702991D01*
X143043448Y-75738729D01*
X142960186Y-75840186D01*
X142858729Y-75923448D01*
X142822991Y-75952778D01*
X142822989Y-75952779D01*
X142666467Y-76036443D01*
X142609853Y-76053616D01*
X142496627Y-76087963D01*
X142430442Y-76094482D01*
X142364260Y-76101000D01*
X142275740Y-76101000D01*
X142209558Y-76094482D01*
X142143373Y-76087963D01*
X142030147Y-76053616D01*
X141973533Y-76036443D01*
X141817011Y-75952779D01*
X141817009Y-75952778D01*
X141781271Y-75923448D01*
X141679814Y-75840186D01*
X141596552Y-75738729D01*
X141567222Y-75702991D01*
X141557652Y-75685087D01*
X141483557Y-75546467D01*
X141466384Y-75489853D01*
X141432037Y-75376627D01*
X141414641Y-75200000D01*
X141432037Y-75023373D01*
X141483557Y-74853534D01*
X141483557Y-74853533D01*
X141567221Y-74697011D01*
X141567222Y-74697009D01*
X141596552Y-74661271D01*
X141679814Y-74559814D01*
X141781271Y-74476552D01*
X141817009Y-74447222D01*
X141834913Y-74437652D01*
X141973533Y-74363557D01*
X142030147Y-74346384D01*
X142143373Y-74312037D01*
X142209558Y-74305518D01*
X142275740Y-74299000D01*
X142364260Y-74299000D01*
X142430442Y-74305518D01*
X142430442Y-74305518D01*
G37*
G36*
X139890442Y-74305518D02*
X139956627Y-74312037D01*
X140069853Y-74346384D01*
X140126467Y-74363557D01*
X140265087Y-74437652D01*
X140282991Y-74447222D01*
X140318729Y-74476552D01*
X140420186Y-74559814D01*
X140503448Y-74661271D01*
X140532778Y-74697009D01*
X140532779Y-74697011D01*
X140616443Y-74853533D01*
X140616443Y-74853534D01*
X140667963Y-75023373D01*
X140685359Y-75200000D01*
X140667963Y-75376627D01*
X140633616Y-75489853D01*
X140616443Y-75546467D01*
X140542348Y-75685087D01*
X140532778Y-75702991D01*
X140503448Y-75738729D01*
X140420186Y-75840186D01*
X140318729Y-75923448D01*
X140282991Y-75952778D01*
X140282989Y-75952779D01*
X140126467Y-76036443D01*
X140069853Y-76053616D01*
X139956627Y-76087963D01*
X139890442Y-76094482D01*
X139824260Y-76101000D01*
X139735740Y-76101000D01*
X139669558Y-76094482D01*
X139603373Y-76087963D01*
X139490147Y-76053616D01*
X139433533Y-76036443D01*
X139277011Y-75952779D01*
X139277009Y-75952778D01*
X139241271Y-75923448D01*
X139139814Y-75840186D01*
X139056552Y-75738729D01*
X139027222Y-75702991D01*
X139017652Y-75685087D01*
X138943557Y-75546467D01*
X138926384Y-75489853D01*
X138892037Y-75376627D01*
X138874641Y-75200000D01*
X138892037Y-75023373D01*
X138943557Y-74853534D01*
X138943557Y-74853533D01*
X139027221Y-74697011D01*
X139027222Y-74697009D01*
X139056552Y-74661271D01*
X139139814Y-74559814D01*
X139241271Y-74476552D01*
X139277009Y-74447222D01*
X139294913Y-74437652D01*
X139433533Y-74363557D01*
X139490147Y-74346384D01*
X139603373Y-74312037D01*
X139669558Y-74305518D01*
X139735740Y-74299000D01*
X139824260Y-74299000D01*
X139890442Y-74305518D01*
X139890442Y-74305518D01*
G37*
G36*
X109410442Y-74305518D02*
X109476627Y-74312037D01*
X109589853Y-74346384D01*
X109646467Y-74363557D01*
X109785087Y-74437652D01*
X109802991Y-74447222D01*
X109838729Y-74476552D01*
X109940186Y-74559814D01*
X110023448Y-74661271D01*
X110052778Y-74697009D01*
X110052779Y-74697011D01*
X110136443Y-74853533D01*
X110136443Y-74853534D01*
X110187963Y-75023373D01*
X110205359Y-75200000D01*
X110187963Y-75376627D01*
X110153616Y-75489853D01*
X110136443Y-75546467D01*
X110062348Y-75685087D01*
X110052778Y-75702991D01*
X110023448Y-75738729D01*
X109940186Y-75840186D01*
X109838729Y-75923448D01*
X109802991Y-75952778D01*
X109802989Y-75952779D01*
X109646467Y-76036443D01*
X109589853Y-76053616D01*
X109476627Y-76087963D01*
X109410442Y-76094482D01*
X109344260Y-76101000D01*
X109255740Y-76101000D01*
X109189558Y-76094482D01*
X109123373Y-76087963D01*
X109010147Y-76053616D01*
X108953533Y-76036443D01*
X108797011Y-75952779D01*
X108797009Y-75952778D01*
X108761271Y-75923448D01*
X108659814Y-75840186D01*
X108576552Y-75738729D01*
X108547222Y-75702991D01*
X108537652Y-75685087D01*
X108463557Y-75546467D01*
X108446384Y-75489853D01*
X108412037Y-75376627D01*
X108394641Y-75200000D01*
X108412037Y-75023373D01*
X108463557Y-74853534D01*
X108463557Y-74853533D01*
X108547221Y-74697011D01*
X108547222Y-74697009D01*
X108576552Y-74661271D01*
X108659814Y-74559814D01*
X108761271Y-74476552D01*
X108797009Y-74447222D01*
X108814913Y-74437652D01*
X108953533Y-74363557D01*
X109010147Y-74346384D01*
X109123373Y-74312037D01*
X109189558Y-74305518D01*
X109255740Y-74299000D01*
X109344260Y-74299000D01*
X109410442Y-74305518D01*
X109410442Y-74305518D01*
G37*
G36*
X137350442Y-74305518D02*
X137416627Y-74312037D01*
X137529853Y-74346384D01*
X137586467Y-74363557D01*
X137725087Y-74437652D01*
X137742991Y-74447222D01*
X137778729Y-74476552D01*
X137880186Y-74559814D01*
X137963448Y-74661271D01*
X137992778Y-74697009D01*
X137992779Y-74697011D01*
X138076443Y-74853533D01*
X138076443Y-74853534D01*
X138127963Y-75023373D01*
X138145359Y-75200000D01*
X138127963Y-75376627D01*
X138093616Y-75489853D01*
X138076443Y-75546467D01*
X138002348Y-75685087D01*
X137992778Y-75702991D01*
X137963448Y-75738729D01*
X137880186Y-75840186D01*
X137778729Y-75923448D01*
X137742991Y-75952778D01*
X137742989Y-75952779D01*
X137586467Y-76036443D01*
X137529853Y-76053616D01*
X137416627Y-76087963D01*
X137350442Y-76094482D01*
X137284260Y-76101000D01*
X137195740Y-76101000D01*
X137129558Y-76094482D01*
X137063373Y-76087963D01*
X136950147Y-76053616D01*
X136893533Y-76036443D01*
X136737011Y-75952779D01*
X136737009Y-75952778D01*
X136701271Y-75923448D01*
X136599814Y-75840186D01*
X136516552Y-75738729D01*
X136487222Y-75702991D01*
X136477652Y-75685087D01*
X136403557Y-75546467D01*
X136386384Y-75489853D01*
X136352037Y-75376627D01*
X136334641Y-75200000D01*
X136352037Y-75023373D01*
X136403557Y-74853534D01*
X136403557Y-74853533D01*
X136487221Y-74697011D01*
X136487222Y-74697009D01*
X136516552Y-74661271D01*
X136599814Y-74559814D01*
X136701271Y-74476552D01*
X136737009Y-74447222D01*
X136754913Y-74437652D01*
X136893533Y-74363557D01*
X136950147Y-74346384D01*
X137063373Y-74312037D01*
X137129558Y-74305518D01*
X137195740Y-74299000D01*
X137284260Y-74299000D01*
X137350442Y-74305518D01*
X137350442Y-74305518D01*
G37*
G36*
X134810442Y-74305518D02*
X134876627Y-74312037D01*
X134989853Y-74346384D01*
X135046467Y-74363557D01*
X135185087Y-74437652D01*
X135202991Y-74447222D01*
X135238729Y-74476552D01*
X135340186Y-74559814D01*
X135423448Y-74661271D01*
X135452778Y-74697009D01*
X135452779Y-74697011D01*
X135536443Y-74853533D01*
X135536443Y-74853534D01*
X135587963Y-75023373D01*
X135605359Y-75200000D01*
X135587963Y-75376627D01*
X135553616Y-75489853D01*
X135536443Y-75546467D01*
X135462348Y-75685087D01*
X135452778Y-75702991D01*
X135423448Y-75738729D01*
X135340186Y-75840186D01*
X135238729Y-75923448D01*
X135202991Y-75952778D01*
X135202989Y-75952779D01*
X135046467Y-76036443D01*
X134989853Y-76053616D01*
X134876627Y-76087963D01*
X134810442Y-76094482D01*
X134744260Y-76101000D01*
X134655740Y-76101000D01*
X134589558Y-76094482D01*
X134523373Y-76087963D01*
X134410147Y-76053616D01*
X134353533Y-76036443D01*
X134197011Y-75952779D01*
X134197009Y-75952778D01*
X134161271Y-75923448D01*
X134059814Y-75840186D01*
X133976552Y-75738729D01*
X133947222Y-75702991D01*
X133937652Y-75685087D01*
X133863557Y-75546467D01*
X133846384Y-75489853D01*
X133812037Y-75376627D01*
X133794641Y-75200000D01*
X133812037Y-75023373D01*
X133863557Y-74853534D01*
X133863557Y-74853533D01*
X133947221Y-74697011D01*
X133947222Y-74697009D01*
X133976552Y-74661271D01*
X134059814Y-74559814D01*
X134161271Y-74476552D01*
X134197009Y-74447222D01*
X134214913Y-74437652D01*
X134353533Y-74363557D01*
X134410147Y-74346384D01*
X134523373Y-74312037D01*
X134589558Y-74305518D01*
X134655740Y-74299000D01*
X134744260Y-74299000D01*
X134810442Y-74305518D01*
X134810442Y-74305518D01*
G37*
G36*
X127190442Y-74305518D02*
X127256627Y-74312037D01*
X127369853Y-74346384D01*
X127426467Y-74363557D01*
X127565087Y-74437652D01*
X127582991Y-74447222D01*
X127618729Y-74476552D01*
X127720186Y-74559814D01*
X127803448Y-74661271D01*
X127832778Y-74697009D01*
X127832779Y-74697011D01*
X127916443Y-74853533D01*
X127916443Y-74853534D01*
X127967963Y-75023373D01*
X127985359Y-75200000D01*
X127967963Y-75376627D01*
X127933616Y-75489853D01*
X127916443Y-75546467D01*
X127842348Y-75685087D01*
X127832778Y-75702991D01*
X127803448Y-75738729D01*
X127720186Y-75840186D01*
X127618729Y-75923448D01*
X127582991Y-75952778D01*
X127582989Y-75952779D01*
X127426467Y-76036443D01*
X127369853Y-76053616D01*
X127256627Y-76087963D01*
X127190442Y-76094482D01*
X127124260Y-76101000D01*
X127035740Y-76101000D01*
X126969558Y-76094482D01*
X126903373Y-76087963D01*
X126790147Y-76053616D01*
X126733533Y-76036443D01*
X126577011Y-75952779D01*
X126577009Y-75952778D01*
X126541271Y-75923448D01*
X126439814Y-75840186D01*
X126356552Y-75738729D01*
X126327222Y-75702991D01*
X126317652Y-75685087D01*
X126243557Y-75546467D01*
X126226384Y-75489853D01*
X126192037Y-75376627D01*
X126174641Y-75200000D01*
X126192037Y-75023373D01*
X126243557Y-74853534D01*
X126243557Y-74853533D01*
X126327221Y-74697011D01*
X126327222Y-74697009D01*
X126356552Y-74661271D01*
X126439814Y-74559814D01*
X126541271Y-74476552D01*
X126577009Y-74447222D01*
X126594913Y-74437652D01*
X126733533Y-74363557D01*
X126790147Y-74346384D01*
X126903373Y-74312037D01*
X126969558Y-74305518D01*
X127035740Y-74299000D01*
X127124260Y-74299000D01*
X127190442Y-74305518D01*
X127190442Y-74305518D01*
G37*
G36*
X114490442Y-74305518D02*
X114556627Y-74312037D01*
X114669853Y-74346384D01*
X114726467Y-74363557D01*
X114865087Y-74437652D01*
X114882991Y-74447222D01*
X114918729Y-74476552D01*
X115020186Y-74559814D01*
X115103448Y-74661271D01*
X115132778Y-74697009D01*
X115132779Y-74697011D01*
X115216443Y-74853533D01*
X115216443Y-74853534D01*
X115267963Y-75023373D01*
X115285359Y-75200000D01*
X115267963Y-75376627D01*
X115233616Y-75489853D01*
X115216443Y-75546467D01*
X115142348Y-75685087D01*
X115132778Y-75702991D01*
X115103448Y-75738729D01*
X115020186Y-75840186D01*
X114918729Y-75923448D01*
X114882991Y-75952778D01*
X114882989Y-75952779D01*
X114726467Y-76036443D01*
X114669853Y-76053616D01*
X114556627Y-76087963D01*
X114490442Y-76094482D01*
X114424260Y-76101000D01*
X114335740Y-76101000D01*
X114269558Y-76094482D01*
X114203373Y-76087963D01*
X114090147Y-76053616D01*
X114033533Y-76036443D01*
X113877011Y-75952779D01*
X113877009Y-75952778D01*
X113841271Y-75923448D01*
X113739814Y-75840186D01*
X113656552Y-75738729D01*
X113627222Y-75702991D01*
X113617652Y-75685087D01*
X113543557Y-75546467D01*
X113526384Y-75489853D01*
X113492037Y-75376627D01*
X113474641Y-75200000D01*
X113492037Y-75023373D01*
X113543557Y-74853534D01*
X113543557Y-74853533D01*
X113627221Y-74697011D01*
X113627222Y-74697009D01*
X113656552Y-74661271D01*
X113739814Y-74559814D01*
X113841271Y-74476552D01*
X113877009Y-74447222D01*
X113894913Y-74437652D01*
X114033533Y-74363557D01*
X114090147Y-74346384D01*
X114203373Y-74312037D01*
X114269558Y-74305518D01*
X114335740Y-74299000D01*
X114424260Y-74299000D01*
X114490442Y-74305518D01*
X114490442Y-74305518D01*
G37*
G36*
X117030442Y-74305518D02*
X117096627Y-74312037D01*
X117209853Y-74346384D01*
X117266467Y-74363557D01*
X117405087Y-74437652D01*
X117422991Y-74447222D01*
X117458729Y-74476552D01*
X117560186Y-74559814D01*
X117643448Y-74661271D01*
X117672778Y-74697009D01*
X117672779Y-74697011D01*
X117756443Y-74853533D01*
X117756443Y-74853534D01*
X117807963Y-75023373D01*
X117825359Y-75200000D01*
X117807963Y-75376627D01*
X117773616Y-75489853D01*
X117756443Y-75546467D01*
X117682348Y-75685087D01*
X117672778Y-75702991D01*
X117643448Y-75738729D01*
X117560186Y-75840186D01*
X117458729Y-75923448D01*
X117422991Y-75952778D01*
X117422989Y-75952779D01*
X117266467Y-76036443D01*
X117209853Y-76053616D01*
X117096627Y-76087963D01*
X117030442Y-76094482D01*
X116964260Y-76101000D01*
X116875740Y-76101000D01*
X116809558Y-76094482D01*
X116743373Y-76087963D01*
X116630147Y-76053616D01*
X116573533Y-76036443D01*
X116417011Y-75952779D01*
X116417009Y-75952778D01*
X116381271Y-75923448D01*
X116279814Y-75840186D01*
X116196552Y-75738729D01*
X116167222Y-75702991D01*
X116157652Y-75685087D01*
X116083557Y-75546467D01*
X116066384Y-75489853D01*
X116032037Y-75376627D01*
X116014641Y-75200000D01*
X116032037Y-75023373D01*
X116083557Y-74853534D01*
X116083557Y-74853533D01*
X116167221Y-74697011D01*
X116167222Y-74697009D01*
X116196552Y-74661271D01*
X116279814Y-74559814D01*
X116381271Y-74476552D01*
X116417009Y-74447222D01*
X116434913Y-74437652D01*
X116573533Y-74363557D01*
X116630147Y-74346384D01*
X116743373Y-74312037D01*
X116809558Y-74305518D01*
X116875740Y-74299000D01*
X116964260Y-74299000D01*
X117030442Y-74305518D01*
X117030442Y-74305518D01*
G37*
G36*
X122110442Y-74305518D02*
X122176627Y-74312037D01*
X122289853Y-74346384D01*
X122346467Y-74363557D01*
X122485087Y-74437652D01*
X122502991Y-74447222D01*
X122538729Y-74476552D01*
X122640186Y-74559814D01*
X122723448Y-74661271D01*
X122752778Y-74697009D01*
X122752779Y-74697011D01*
X122836443Y-74853533D01*
X122836443Y-74853534D01*
X122887963Y-75023373D01*
X122905359Y-75200000D01*
X122887963Y-75376627D01*
X122853616Y-75489853D01*
X122836443Y-75546467D01*
X122762348Y-75685087D01*
X122752778Y-75702991D01*
X122723448Y-75738729D01*
X122640186Y-75840186D01*
X122538729Y-75923448D01*
X122502991Y-75952778D01*
X122502989Y-75952779D01*
X122346467Y-76036443D01*
X122289853Y-76053616D01*
X122176627Y-76087963D01*
X122110442Y-76094482D01*
X122044260Y-76101000D01*
X121955740Y-76101000D01*
X121889558Y-76094482D01*
X121823373Y-76087963D01*
X121710147Y-76053616D01*
X121653533Y-76036443D01*
X121497011Y-75952779D01*
X121497009Y-75952778D01*
X121461271Y-75923448D01*
X121359814Y-75840186D01*
X121276552Y-75738729D01*
X121247222Y-75702991D01*
X121237652Y-75685087D01*
X121163557Y-75546467D01*
X121146384Y-75489853D01*
X121112037Y-75376627D01*
X121094641Y-75200000D01*
X121112037Y-75023373D01*
X121163557Y-74853534D01*
X121163557Y-74853533D01*
X121247221Y-74697011D01*
X121247222Y-74697009D01*
X121276552Y-74661271D01*
X121359814Y-74559814D01*
X121461271Y-74476552D01*
X121497009Y-74447222D01*
X121514913Y-74437652D01*
X121653533Y-74363557D01*
X121710147Y-74346384D01*
X121823373Y-74312037D01*
X121889558Y-74305518D01*
X121955740Y-74299000D01*
X122044260Y-74299000D01*
X122110442Y-74305518D01*
X122110442Y-74305518D01*
G37*
G36*
X132270442Y-74305518D02*
X132336627Y-74312037D01*
X132449853Y-74346384D01*
X132506467Y-74363557D01*
X132645087Y-74437652D01*
X132662991Y-74447222D01*
X132698729Y-74476552D01*
X132800186Y-74559814D01*
X132883448Y-74661271D01*
X132912778Y-74697009D01*
X132912779Y-74697011D01*
X132996443Y-74853533D01*
X132996443Y-74853534D01*
X133047963Y-75023373D01*
X133065359Y-75200000D01*
X133047963Y-75376627D01*
X133013616Y-75489853D01*
X132996443Y-75546467D01*
X132922348Y-75685087D01*
X132912778Y-75702991D01*
X132883448Y-75738729D01*
X132800186Y-75840186D01*
X132698729Y-75923448D01*
X132662991Y-75952778D01*
X132662989Y-75952779D01*
X132506467Y-76036443D01*
X132449853Y-76053616D01*
X132336627Y-76087963D01*
X132270442Y-76094482D01*
X132204260Y-76101000D01*
X132115740Y-76101000D01*
X132049558Y-76094482D01*
X131983373Y-76087963D01*
X131870147Y-76053616D01*
X131813533Y-76036443D01*
X131657011Y-75952779D01*
X131657009Y-75952778D01*
X131621271Y-75923448D01*
X131519814Y-75840186D01*
X131436552Y-75738729D01*
X131407222Y-75702991D01*
X131397652Y-75685087D01*
X131323557Y-75546467D01*
X131306384Y-75489853D01*
X131272037Y-75376627D01*
X131254641Y-75200000D01*
X131272037Y-75023373D01*
X131323557Y-74853534D01*
X131323557Y-74853533D01*
X131407221Y-74697011D01*
X131407222Y-74697009D01*
X131436552Y-74661271D01*
X131519814Y-74559814D01*
X131621271Y-74476552D01*
X131657009Y-74447222D01*
X131674913Y-74437652D01*
X131813533Y-74363557D01*
X131870147Y-74346384D01*
X131983373Y-74312037D01*
X132049558Y-74305518D01*
X132115740Y-74299000D01*
X132204260Y-74299000D01*
X132270442Y-74305518D01*
X132270442Y-74305518D01*
G37*
G36*
X124650442Y-74305518D02*
X124716627Y-74312037D01*
X124829853Y-74346384D01*
X124886467Y-74363557D01*
X125025087Y-74437652D01*
X125042991Y-74447222D01*
X125078729Y-74476552D01*
X125180186Y-74559814D01*
X125263448Y-74661271D01*
X125292778Y-74697009D01*
X125292779Y-74697011D01*
X125376443Y-74853533D01*
X125376443Y-74853534D01*
X125427963Y-75023373D01*
X125445359Y-75200000D01*
X125427963Y-75376627D01*
X125393616Y-75489853D01*
X125376443Y-75546467D01*
X125302348Y-75685087D01*
X125292778Y-75702991D01*
X125263448Y-75738729D01*
X125180186Y-75840186D01*
X125078729Y-75923448D01*
X125042991Y-75952778D01*
X125042989Y-75952779D01*
X124886467Y-76036443D01*
X124829853Y-76053616D01*
X124716627Y-76087963D01*
X124650442Y-76094482D01*
X124584260Y-76101000D01*
X124495740Y-76101000D01*
X124429558Y-76094482D01*
X124363373Y-76087963D01*
X124250147Y-76053616D01*
X124193533Y-76036443D01*
X124037011Y-75952779D01*
X124037009Y-75952778D01*
X124001271Y-75923448D01*
X123899814Y-75840186D01*
X123816552Y-75738729D01*
X123787222Y-75702991D01*
X123777652Y-75685087D01*
X123703557Y-75546467D01*
X123686384Y-75489853D01*
X123652037Y-75376627D01*
X123634641Y-75200000D01*
X123652037Y-75023373D01*
X123703557Y-74853534D01*
X123703557Y-74853533D01*
X123787221Y-74697011D01*
X123787222Y-74697009D01*
X123816552Y-74661271D01*
X123899814Y-74559814D01*
X124001271Y-74476552D01*
X124037009Y-74447222D01*
X124054913Y-74437652D01*
X124193533Y-74363557D01*
X124250147Y-74346384D01*
X124363373Y-74312037D01*
X124429558Y-74305518D01*
X124495740Y-74299000D01*
X124584260Y-74299000D01*
X124650442Y-74305518D01*
X124650442Y-74305518D01*
G37*
G36*
X111950442Y-74305518D02*
X112016627Y-74312037D01*
X112129853Y-74346384D01*
X112186467Y-74363557D01*
X112325087Y-74437652D01*
X112342991Y-74447222D01*
X112378729Y-74476552D01*
X112480186Y-74559814D01*
X112563448Y-74661271D01*
X112592778Y-74697009D01*
X112592779Y-74697011D01*
X112676443Y-74853533D01*
X112676443Y-74853534D01*
X112727963Y-75023373D01*
X112745359Y-75200000D01*
X112727963Y-75376627D01*
X112693616Y-75489853D01*
X112676443Y-75546467D01*
X112602348Y-75685087D01*
X112592778Y-75702991D01*
X112563448Y-75738729D01*
X112480186Y-75840186D01*
X112378729Y-75923448D01*
X112342991Y-75952778D01*
X112342989Y-75952779D01*
X112186467Y-76036443D01*
X112129853Y-76053616D01*
X112016627Y-76087963D01*
X111950442Y-76094482D01*
X111884260Y-76101000D01*
X111795740Y-76101000D01*
X111729558Y-76094482D01*
X111663373Y-76087963D01*
X111550147Y-76053616D01*
X111493533Y-76036443D01*
X111337011Y-75952779D01*
X111337009Y-75952778D01*
X111301271Y-75923448D01*
X111199814Y-75840186D01*
X111116552Y-75738729D01*
X111087222Y-75702991D01*
X111077652Y-75685087D01*
X111003557Y-75546467D01*
X110986384Y-75489853D01*
X110952037Y-75376627D01*
X110934641Y-75200000D01*
X110952037Y-75023373D01*
X111003557Y-74853534D01*
X111003557Y-74853533D01*
X111087221Y-74697011D01*
X111087222Y-74697009D01*
X111116552Y-74661271D01*
X111199814Y-74559814D01*
X111301271Y-74476552D01*
X111337009Y-74447222D01*
X111354913Y-74437652D01*
X111493533Y-74363557D01*
X111550147Y-74346384D01*
X111663373Y-74312037D01*
X111729558Y-74305518D01*
X111795740Y-74299000D01*
X111884260Y-74299000D01*
X111950442Y-74305518D01*
X111950442Y-74305518D01*
G37*
G36*
X158190500Y-76085000D02*
X156388500Y-76085000D01*
X156388500Y-74283000D01*
X158190500Y-74283000D01*
X158190500Y-76085000D01*
X158190500Y-76085000D01*
G37*
M02*
