G04 #@! TF.GenerationSoftware,KiCad,Pcbnew,5.0.2-bee76a0~70~ubuntu14.04.1*
G04 #@! TF.CreationDate,2018-12-14T16:34:33-07:00*
G04 #@! TF.ProjectId,evalboard1,6576616c-626f-4617-9264-312e6b696361,rev?*
G04 #@! TF.SameCoordinates,Original*
G04 #@! TF.FileFunction,Paste,Top*
G04 #@! TF.FilePolarity,Positive*
%FSLAX46Y46*%
G04 Gerber Fmt 4.6, Leading zero omitted, Abs format (unit mm)*
G04 Created by KiCad (PCBNEW 5.0.2-bee76a0~70~ubuntu14.04.1) date Fri 14 Dec 2018 04:34:33 PM MST*
%MOMM*%
%LPD*%
G01*
G04 APERTURE LIST*
%ADD10C,0.100000*%
%ADD11C,8.000000*%
%ADD12C,0.200000*%
%ADD13C,0.200000*%
%ADD14C,0.875000*%
%ADD15R,0.250000X0.850000*%
%ADD16R,2.550000X1.650000*%
%ADD17R,1.600000X1.400000*%
%ADD18R,0.650000X1.220000*%
%ADD19C,1.250000*%
%ADD20R,0.600000X1.550000*%
%ADD21R,0.950000X0.950000*%
%ADD22R,2.000000X0.500000*%
%ADD23R,1.700000X2.000000*%
G04 APERTURE END LIST*
D10*
G04 #@! TO.C,U2*
G36*
X106610000Y-82459137D02*
X106610000Y-83380000D01*
X104788294Y-83380000D01*
X104788294Y-82459137D01*
X106610000Y-82459137D01*
G37*
G04 #@! TD*
D11*
G04 #@! TO.C,U1*
X125140000Y-87280000D03*
D10*
G36*
X119483146Y-87280000D02*
X125140000Y-81623146D01*
X130796854Y-87280000D01*
X125140000Y-92936854D01*
X119483146Y-87280000D01*
X119483146Y-87280000D01*
G37*
D12*
X125564264Y-80916039D03*
D13*
X125422843Y-81057460D02*
X125705685Y-80774618D01*
D12*
X125847107Y-81198882D03*
D13*
X125705686Y-81340303D02*
X125988528Y-81057461D01*
D12*
X126129949Y-81481724D03*
D13*
X125988528Y-81623145D02*
X126271370Y-81340303D01*
D12*
X126412792Y-81764567D03*
D13*
X126271371Y-81905988D02*
X126554213Y-81623146D01*
D12*
X126695635Y-82047410D03*
D13*
X126554214Y-82188831D02*
X126837056Y-81905989D01*
D12*
X126978478Y-82330253D03*
D13*
X126837057Y-82471674D02*
X127119899Y-82188832D01*
D12*
X127261320Y-82613095D03*
D13*
X127119899Y-82754516D02*
X127402741Y-82471674D01*
D12*
X127544163Y-82895938D03*
D13*
X127402742Y-83037359D02*
X127685584Y-82754517D01*
D12*
X127827006Y-83178781D03*
D13*
X127685585Y-83320202D02*
X127968427Y-83037360D01*
D12*
X128109848Y-83461623D03*
D13*
X127968427Y-83603044D02*
X128251269Y-83320202D01*
D12*
X128392691Y-83744466D03*
D13*
X128251270Y-83885887D02*
X128534112Y-83603045D01*
D12*
X128675534Y-84027309D03*
D13*
X128534113Y-84168730D02*
X128816955Y-83885888D01*
D12*
X128958377Y-84310152D03*
D13*
X128816956Y-84451573D02*
X129099798Y-84168731D01*
D12*
X129241219Y-84592994D03*
D13*
X129099798Y-84734415D02*
X129382640Y-84451573D01*
D12*
X129524062Y-84875837D03*
D13*
X129382641Y-85017258D02*
X129665483Y-84734416D01*
D12*
X129806905Y-85158680D03*
D13*
X129665484Y-85300101D02*
X129948326Y-85017259D01*
D12*
X130089747Y-85441522D03*
D13*
X129948326Y-85582943D02*
X130231168Y-85300101D01*
D12*
X130372590Y-85724365D03*
D13*
X130231169Y-85865786D02*
X130514011Y-85582944D01*
D12*
X130655433Y-86007208D03*
D13*
X130514012Y-86148629D02*
X130796854Y-85865787D01*
D12*
X130938276Y-86290051D03*
D13*
X130796855Y-86431472D02*
X131079697Y-86148630D01*
D12*
X131221118Y-86572893D03*
D13*
X131079697Y-86714314D02*
X131362539Y-86431472D01*
D12*
X131503961Y-86855736D03*
D13*
X131362540Y-86997157D02*
X131645382Y-86714315D01*
D12*
X131503961Y-87704264D03*
D13*
X131362540Y-87562843D02*
X131645382Y-87845685D01*
D12*
X131221118Y-87987107D03*
D13*
X131079697Y-87845686D02*
X131362539Y-88128528D01*
D12*
X130938276Y-88269949D03*
D13*
X130796855Y-88128528D02*
X131079697Y-88411370D01*
D12*
X130655433Y-88552792D03*
D13*
X130514012Y-88411371D02*
X130796854Y-88694213D01*
D12*
X130372590Y-88835635D03*
D13*
X130231169Y-88694214D02*
X130514011Y-88977056D01*
D12*
X130089747Y-89118478D03*
D13*
X129948326Y-88977057D02*
X130231168Y-89259899D01*
D12*
X129806905Y-89401320D03*
D13*
X129665484Y-89259899D02*
X129948326Y-89542741D01*
D12*
X129524062Y-89684163D03*
D13*
X129382641Y-89542742D02*
X129665483Y-89825584D01*
D12*
X129241219Y-89967006D03*
D13*
X129099798Y-89825585D02*
X129382640Y-90108427D01*
D12*
X128958377Y-90249848D03*
D13*
X128816956Y-90108427D02*
X129099798Y-90391269D01*
D12*
X128675534Y-90532691D03*
D13*
X128534113Y-90391270D02*
X128816955Y-90674112D01*
D12*
X128392691Y-90815534D03*
D13*
X128251270Y-90674113D02*
X128534112Y-90956955D01*
D12*
X128109848Y-91098377D03*
D13*
X127968427Y-90956956D02*
X128251269Y-91239798D01*
D12*
X127827006Y-91381219D03*
D13*
X127685585Y-91239798D02*
X127968427Y-91522640D01*
D12*
X127544163Y-91664062D03*
D13*
X127402742Y-91522641D02*
X127685584Y-91805483D01*
D12*
X127261320Y-91946905D03*
D13*
X127119899Y-91805484D02*
X127402741Y-92088326D01*
D12*
X126978478Y-92229747D03*
D13*
X126837057Y-92088326D02*
X127119899Y-92371168D01*
D12*
X126695635Y-92512590D03*
D13*
X126554214Y-92371169D02*
X126837056Y-92654011D01*
D12*
X126412792Y-92795433D03*
D13*
X126271371Y-92654012D02*
X126554213Y-92936854D01*
D12*
X126129949Y-93078276D03*
D13*
X125988528Y-92936855D02*
X126271370Y-93219697D01*
D12*
X125847107Y-93361118D03*
D13*
X125705686Y-93219697D02*
X125988528Y-93502539D01*
D12*
X125564264Y-93643961D03*
D13*
X125422843Y-93502540D02*
X125705685Y-93785382D01*
D12*
X124715736Y-93643961D03*
D13*
X124574315Y-93785382D02*
X124857157Y-93502540D01*
D12*
X124432893Y-93361118D03*
D13*
X124291472Y-93502539D02*
X124574314Y-93219697D01*
D12*
X124150051Y-93078276D03*
D13*
X124008630Y-93219697D02*
X124291472Y-92936855D01*
D12*
X123867208Y-92795433D03*
D13*
X123725787Y-92936854D02*
X124008629Y-92654012D01*
D12*
X123584365Y-92512590D03*
D13*
X123442944Y-92654011D02*
X123725786Y-92371169D01*
D12*
X123301522Y-92229747D03*
D13*
X123160101Y-92371168D02*
X123442943Y-92088326D01*
D12*
X123018680Y-91946905D03*
D13*
X122877259Y-92088326D02*
X123160101Y-91805484D01*
D12*
X122735837Y-91664062D03*
D13*
X122594416Y-91805483D02*
X122877258Y-91522641D01*
D12*
X122452994Y-91381219D03*
D13*
X122311573Y-91522640D02*
X122594415Y-91239798D01*
D12*
X122170152Y-91098377D03*
D13*
X122028731Y-91239798D02*
X122311573Y-90956956D01*
D12*
X121887309Y-90815534D03*
D13*
X121745888Y-90956955D02*
X122028730Y-90674113D01*
D12*
X121604466Y-90532691D03*
D13*
X121463045Y-90674112D02*
X121745887Y-90391270D01*
D12*
X121321623Y-90249848D03*
D13*
X121180202Y-90391269D02*
X121463044Y-90108427D01*
D12*
X121038781Y-89967006D03*
D13*
X120897360Y-90108427D02*
X121180202Y-89825585D01*
D12*
X120755938Y-89684163D03*
D13*
X120614517Y-89825584D02*
X120897359Y-89542742D01*
D12*
X120473095Y-89401320D03*
D13*
X120331674Y-89542741D02*
X120614516Y-89259899D01*
D12*
X120190253Y-89118478D03*
D13*
X120048832Y-89259899D02*
X120331674Y-88977057D01*
D12*
X119907410Y-88835635D03*
D13*
X119765989Y-88977056D02*
X120048831Y-88694214D01*
D12*
X119624567Y-88552792D03*
D13*
X119483146Y-88694213D02*
X119765988Y-88411371D01*
D12*
X119341724Y-88269949D03*
D13*
X119200303Y-88411370D02*
X119483145Y-88128528D01*
D12*
X119058882Y-87987107D03*
D13*
X118917461Y-88128528D02*
X119200303Y-87845686D01*
D12*
X118776039Y-87704264D03*
D13*
X118634618Y-87845685D02*
X118917460Y-87562843D01*
D12*
X118776039Y-86855736D03*
D13*
X118634618Y-86714315D02*
X118917460Y-86997157D01*
D12*
X119058882Y-86572893D03*
D13*
X118917461Y-86431472D02*
X119200303Y-86714314D01*
D12*
X119341724Y-86290051D03*
D13*
X119200303Y-86148630D02*
X119483145Y-86431472D01*
D12*
X119624567Y-86007208D03*
D13*
X119483146Y-85865787D02*
X119765988Y-86148629D01*
D12*
X119907410Y-85724365D03*
D13*
X119765989Y-85582944D02*
X120048831Y-85865786D01*
D12*
X120190253Y-85441522D03*
D13*
X120048832Y-85300101D02*
X120331674Y-85582943D01*
D12*
X120473095Y-85158680D03*
D13*
X120331674Y-85017259D02*
X120614516Y-85300101D01*
D12*
X120755938Y-84875837D03*
D13*
X120614517Y-84734416D02*
X120897359Y-85017258D01*
D12*
X121038781Y-84592994D03*
D13*
X120897360Y-84451573D02*
X121180202Y-84734415D01*
D12*
X121321623Y-84310152D03*
D13*
X121180202Y-84168731D02*
X121463044Y-84451573D01*
D12*
X121604466Y-84027309D03*
D13*
X121463045Y-83885888D02*
X121745887Y-84168730D01*
D12*
X121887309Y-83744466D03*
D13*
X121745888Y-83603045D02*
X122028730Y-83885887D01*
D12*
X122170152Y-83461623D03*
D13*
X122028731Y-83320202D02*
X122311573Y-83603044D01*
D12*
X122452994Y-83178781D03*
D13*
X122311573Y-83037360D02*
X122594415Y-83320202D01*
D12*
X122735837Y-82895938D03*
D13*
X122594416Y-82754517D02*
X122877258Y-83037359D01*
D12*
X123018680Y-82613095D03*
D13*
X122877259Y-82471674D02*
X123160101Y-82754516D01*
D12*
X123301522Y-82330253D03*
D13*
X123160101Y-82188832D02*
X123442943Y-82471674D01*
D12*
X123584365Y-82047410D03*
D13*
X123442944Y-81905989D02*
X123725786Y-82188831D01*
D12*
X123867208Y-81764567D03*
D13*
X123725787Y-81623146D02*
X124008629Y-81905988D01*
D12*
X124150051Y-81481724D03*
D13*
X124008630Y-81340303D02*
X124291472Y-81623145D01*
D12*
X124432893Y-81198882D03*
D13*
X124291472Y-81057461D02*
X124574314Y-81340303D01*
D12*
X124715736Y-80916039D03*
D13*
X124574315Y-80774618D02*
X124857157Y-81057460D01*
G04 #@! TD*
D10*
G04 #@! TO.C,C12*
G36*
X102980191Y-93586053D02*
X103001426Y-93589203D01*
X103022250Y-93594419D01*
X103042462Y-93601651D01*
X103061868Y-93610830D01*
X103080281Y-93621866D01*
X103097524Y-93634654D01*
X103113430Y-93649070D01*
X103127846Y-93664976D01*
X103140634Y-93682219D01*
X103151670Y-93700632D01*
X103160849Y-93720038D01*
X103168081Y-93740250D01*
X103173297Y-93761074D01*
X103176447Y-93782309D01*
X103177500Y-93803750D01*
X103177500Y-94316250D01*
X103176447Y-94337691D01*
X103173297Y-94358926D01*
X103168081Y-94379750D01*
X103160849Y-94399962D01*
X103151670Y-94419368D01*
X103140634Y-94437781D01*
X103127846Y-94455024D01*
X103113430Y-94470930D01*
X103097524Y-94485346D01*
X103080281Y-94498134D01*
X103061868Y-94509170D01*
X103042462Y-94518349D01*
X103022250Y-94525581D01*
X103001426Y-94530797D01*
X102980191Y-94533947D01*
X102958750Y-94535000D01*
X102521250Y-94535000D01*
X102499809Y-94533947D01*
X102478574Y-94530797D01*
X102457750Y-94525581D01*
X102437538Y-94518349D01*
X102418132Y-94509170D01*
X102399719Y-94498134D01*
X102382476Y-94485346D01*
X102366570Y-94470930D01*
X102352154Y-94455024D01*
X102339366Y-94437781D01*
X102328330Y-94419368D01*
X102319151Y-94399962D01*
X102311919Y-94379750D01*
X102306703Y-94358926D01*
X102303553Y-94337691D01*
X102302500Y-94316250D01*
X102302500Y-93803750D01*
X102303553Y-93782309D01*
X102306703Y-93761074D01*
X102311919Y-93740250D01*
X102319151Y-93720038D01*
X102328330Y-93700632D01*
X102339366Y-93682219D01*
X102352154Y-93664976D01*
X102366570Y-93649070D01*
X102382476Y-93634654D01*
X102399719Y-93621866D01*
X102418132Y-93610830D01*
X102437538Y-93601651D01*
X102457750Y-93594419D01*
X102478574Y-93589203D01*
X102499809Y-93586053D01*
X102521250Y-93585000D01*
X102958750Y-93585000D01*
X102980191Y-93586053D01*
X102980191Y-93586053D01*
G37*
D14*
X102740000Y-94060000D03*
D10*
G36*
X101405191Y-93586053D02*
X101426426Y-93589203D01*
X101447250Y-93594419D01*
X101467462Y-93601651D01*
X101486868Y-93610830D01*
X101505281Y-93621866D01*
X101522524Y-93634654D01*
X101538430Y-93649070D01*
X101552846Y-93664976D01*
X101565634Y-93682219D01*
X101576670Y-93700632D01*
X101585849Y-93720038D01*
X101593081Y-93740250D01*
X101598297Y-93761074D01*
X101601447Y-93782309D01*
X101602500Y-93803750D01*
X101602500Y-94316250D01*
X101601447Y-94337691D01*
X101598297Y-94358926D01*
X101593081Y-94379750D01*
X101585849Y-94399962D01*
X101576670Y-94419368D01*
X101565634Y-94437781D01*
X101552846Y-94455024D01*
X101538430Y-94470930D01*
X101522524Y-94485346D01*
X101505281Y-94498134D01*
X101486868Y-94509170D01*
X101467462Y-94518349D01*
X101447250Y-94525581D01*
X101426426Y-94530797D01*
X101405191Y-94533947D01*
X101383750Y-94535000D01*
X100946250Y-94535000D01*
X100924809Y-94533947D01*
X100903574Y-94530797D01*
X100882750Y-94525581D01*
X100862538Y-94518349D01*
X100843132Y-94509170D01*
X100824719Y-94498134D01*
X100807476Y-94485346D01*
X100791570Y-94470930D01*
X100777154Y-94455024D01*
X100764366Y-94437781D01*
X100753330Y-94419368D01*
X100744151Y-94399962D01*
X100736919Y-94379750D01*
X100731703Y-94358926D01*
X100728553Y-94337691D01*
X100727500Y-94316250D01*
X100727500Y-93803750D01*
X100728553Y-93782309D01*
X100731703Y-93761074D01*
X100736919Y-93740250D01*
X100744151Y-93720038D01*
X100753330Y-93700632D01*
X100764366Y-93682219D01*
X100777154Y-93664976D01*
X100791570Y-93649070D01*
X100807476Y-93634654D01*
X100824719Y-93621866D01*
X100843132Y-93610830D01*
X100862538Y-93601651D01*
X100882750Y-93594419D01*
X100903574Y-93589203D01*
X100924809Y-93586053D01*
X100946250Y-93585000D01*
X101383750Y-93585000D01*
X101405191Y-93586053D01*
X101405191Y-93586053D01*
G37*
D14*
X101165000Y-94060000D03*
G04 #@! TD*
D10*
G04 #@! TO.C,C1*
G36*
X103417691Y-85658553D02*
X103438926Y-85661703D01*
X103459750Y-85666919D01*
X103479962Y-85674151D01*
X103499368Y-85683330D01*
X103517781Y-85694366D01*
X103535024Y-85707154D01*
X103550930Y-85721570D01*
X103565346Y-85737476D01*
X103578134Y-85754719D01*
X103589170Y-85773132D01*
X103598349Y-85792538D01*
X103605581Y-85812750D01*
X103610797Y-85833574D01*
X103613947Y-85854809D01*
X103615000Y-85876250D01*
X103615000Y-86313750D01*
X103613947Y-86335191D01*
X103610797Y-86356426D01*
X103605581Y-86377250D01*
X103598349Y-86397462D01*
X103589170Y-86416868D01*
X103578134Y-86435281D01*
X103565346Y-86452524D01*
X103550930Y-86468430D01*
X103535024Y-86482846D01*
X103517781Y-86495634D01*
X103499368Y-86506670D01*
X103479962Y-86515849D01*
X103459750Y-86523081D01*
X103438926Y-86528297D01*
X103417691Y-86531447D01*
X103396250Y-86532500D01*
X102883750Y-86532500D01*
X102862309Y-86531447D01*
X102841074Y-86528297D01*
X102820250Y-86523081D01*
X102800038Y-86515849D01*
X102780632Y-86506670D01*
X102762219Y-86495634D01*
X102744976Y-86482846D01*
X102729070Y-86468430D01*
X102714654Y-86452524D01*
X102701866Y-86435281D01*
X102690830Y-86416868D01*
X102681651Y-86397462D01*
X102674419Y-86377250D01*
X102669203Y-86356426D01*
X102666053Y-86335191D01*
X102665000Y-86313750D01*
X102665000Y-85876250D01*
X102666053Y-85854809D01*
X102669203Y-85833574D01*
X102674419Y-85812750D01*
X102681651Y-85792538D01*
X102690830Y-85773132D01*
X102701866Y-85754719D01*
X102714654Y-85737476D01*
X102729070Y-85721570D01*
X102744976Y-85707154D01*
X102762219Y-85694366D01*
X102780632Y-85683330D01*
X102800038Y-85674151D01*
X102820250Y-85666919D01*
X102841074Y-85661703D01*
X102862309Y-85658553D01*
X102883750Y-85657500D01*
X103396250Y-85657500D01*
X103417691Y-85658553D01*
X103417691Y-85658553D01*
G37*
D14*
X103140000Y-86095000D03*
D10*
G36*
X103417691Y-87233553D02*
X103438926Y-87236703D01*
X103459750Y-87241919D01*
X103479962Y-87249151D01*
X103499368Y-87258330D01*
X103517781Y-87269366D01*
X103535024Y-87282154D01*
X103550930Y-87296570D01*
X103565346Y-87312476D01*
X103578134Y-87329719D01*
X103589170Y-87348132D01*
X103598349Y-87367538D01*
X103605581Y-87387750D01*
X103610797Y-87408574D01*
X103613947Y-87429809D01*
X103615000Y-87451250D01*
X103615000Y-87888750D01*
X103613947Y-87910191D01*
X103610797Y-87931426D01*
X103605581Y-87952250D01*
X103598349Y-87972462D01*
X103589170Y-87991868D01*
X103578134Y-88010281D01*
X103565346Y-88027524D01*
X103550930Y-88043430D01*
X103535024Y-88057846D01*
X103517781Y-88070634D01*
X103499368Y-88081670D01*
X103479962Y-88090849D01*
X103459750Y-88098081D01*
X103438926Y-88103297D01*
X103417691Y-88106447D01*
X103396250Y-88107500D01*
X102883750Y-88107500D01*
X102862309Y-88106447D01*
X102841074Y-88103297D01*
X102820250Y-88098081D01*
X102800038Y-88090849D01*
X102780632Y-88081670D01*
X102762219Y-88070634D01*
X102744976Y-88057846D01*
X102729070Y-88043430D01*
X102714654Y-88027524D01*
X102701866Y-88010281D01*
X102690830Y-87991868D01*
X102681651Y-87972462D01*
X102674419Y-87952250D01*
X102669203Y-87931426D01*
X102666053Y-87910191D01*
X102665000Y-87888750D01*
X102665000Y-87451250D01*
X102666053Y-87429809D01*
X102669203Y-87408574D01*
X102674419Y-87387750D01*
X102681651Y-87367538D01*
X102690830Y-87348132D01*
X102701866Y-87329719D01*
X102714654Y-87312476D01*
X102729070Y-87296570D01*
X102744976Y-87282154D01*
X102762219Y-87269366D01*
X102780632Y-87258330D01*
X102800038Y-87249151D01*
X102820250Y-87241919D01*
X102841074Y-87236703D01*
X102862309Y-87233553D01*
X102883750Y-87232500D01*
X103396250Y-87232500D01*
X103417691Y-87233553D01*
X103417691Y-87233553D01*
G37*
D14*
X103140000Y-87670000D03*
G04 #@! TD*
D10*
G04 #@! TO.C,C2*
G36*
X103467691Y-81233553D02*
X103488926Y-81236703D01*
X103509750Y-81241919D01*
X103529962Y-81249151D01*
X103549368Y-81258330D01*
X103567781Y-81269366D01*
X103585024Y-81282154D01*
X103600930Y-81296570D01*
X103615346Y-81312476D01*
X103628134Y-81329719D01*
X103639170Y-81348132D01*
X103648349Y-81367538D01*
X103655581Y-81387750D01*
X103660797Y-81408574D01*
X103663947Y-81429809D01*
X103665000Y-81451250D01*
X103665000Y-81888750D01*
X103663947Y-81910191D01*
X103660797Y-81931426D01*
X103655581Y-81952250D01*
X103648349Y-81972462D01*
X103639170Y-81991868D01*
X103628134Y-82010281D01*
X103615346Y-82027524D01*
X103600930Y-82043430D01*
X103585024Y-82057846D01*
X103567781Y-82070634D01*
X103549368Y-82081670D01*
X103529962Y-82090849D01*
X103509750Y-82098081D01*
X103488926Y-82103297D01*
X103467691Y-82106447D01*
X103446250Y-82107500D01*
X102933750Y-82107500D01*
X102912309Y-82106447D01*
X102891074Y-82103297D01*
X102870250Y-82098081D01*
X102850038Y-82090849D01*
X102830632Y-82081670D01*
X102812219Y-82070634D01*
X102794976Y-82057846D01*
X102779070Y-82043430D01*
X102764654Y-82027524D01*
X102751866Y-82010281D01*
X102740830Y-81991868D01*
X102731651Y-81972462D01*
X102724419Y-81952250D01*
X102719203Y-81931426D01*
X102716053Y-81910191D01*
X102715000Y-81888750D01*
X102715000Y-81451250D01*
X102716053Y-81429809D01*
X102719203Y-81408574D01*
X102724419Y-81387750D01*
X102731651Y-81367538D01*
X102740830Y-81348132D01*
X102751866Y-81329719D01*
X102764654Y-81312476D01*
X102779070Y-81296570D01*
X102794976Y-81282154D01*
X102812219Y-81269366D01*
X102830632Y-81258330D01*
X102850038Y-81249151D01*
X102870250Y-81241919D01*
X102891074Y-81236703D01*
X102912309Y-81233553D01*
X102933750Y-81232500D01*
X103446250Y-81232500D01*
X103467691Y-81233553D01*
X103467691Y-81233553D01*
G37*
D14*
X103190000Y-81670000D03*
D10*
G36*
X103467691Y-82808553D02*
X103488926Y-82811703D01*
X103509750Y-82816919D01*
X103529962Y-82824151D01*
X103549368Y-82833330D01*
X103567781Y-82844366D01*
X103585024Y-82857154D01*
X103600930Y-82871570D01*
X103615346Y-82887476D01*
X103628134Y-82904719D01*
X103639170Y-82923132D01*
X103648349Y-82942538D01*
X103655581Y-82962750D01*
X103660797Y-82983574D01*
X103663947Y-83004809D01*
X103665000Y-83026250D01*
X103665000Y-83463750D01*
X103663947Y-83485191D01*
X103660797Y-83506426D01*
X103655581Y-83527250D01*
X103648349Y-83547462D01*
X103639170Y-83566868D01*
X103628134Y-83585281D01*
X103615346Y-83602524D01*
X103600930Y-83618430D01*
X103585024Y-83632846D01*
X103567781Y-83645634D01*
X103549368Y-83656670D01*
X103529962Y-83665849D01*
X103509750Y-83673081D01*
X103488926Y-83678297D01*
X103467691Y-83681447D01*
X103446250Y-83682500D01*
X102933750Y-83682500D01*
X102912309Y-83681447D01*
X102891074Y-83678297D01*
X102870250Y-83673081D01*
X102850038Y-83665849D01*
X102830632Y-83656670D01*
X102812219Y-83645634D01*
X102794976Y-83632846D01*
X102779070Y-83618430D01*
X102764654Y-83602524D01*
X102751866Y-83585281D01*
X102740830Y-83566868D01*
X102731651Y-83547462D01*
X102724419Y-83527250D01*
X102719203Y-83506426D01*
X102716053Y-83485191D01*
X102715000Y-83463750D01*
X102715000Y-83026250D01*
X102716053Y-83004809D01*
X102719203Y-82983574D01*
X102724419Y-82962750D01*
X102731651Y-82942538D01*
X102740830Y-82923132D01*
X102751866Y-82904719D01*
X102764654Y-82887476D01*
X102779070Y-82871570D01*
X102794976Y-82857154D01*
X102812219Y-82844366D01*
X102830632Y-82833330D01*
X102850038Y-82824151D01*
X102870250Y-82816919D01*
X102891074Y-82811703D01*
X102912309Y-82808553D01*
X102933750Y-82807500D01*
X103446250Y-82807500D01*
X103467691Y-82808553D01*
X103467691Y-82808553D01*
G37*
D14*
X103190000Y-83245000D03*
G04 #@! TD*
D10*
G04 #@! TO.C,C3*
G36*
X136150191Y-83956053D02*
X136171426Y-83959203D01*
X136192250Y-83964419D01*
X136212462Y-83971651D01*
X136231868Y-83980830D01*
X136250281Y-83991866D01*
X136267524Y-84004654D01*
X136283430Y-84019070D01*
X136297846Y-84034976D01*
X136310634Y-84052219D01*
X136321670Y-84070632D01*
X136330849Y-84090038D01*
X136338081Y-84110250D01*
X136343297Y-84131074D01*
X136346447Y-84152309D01*
X136347500Y-84173750D01*
X136347500Y-84686250D01*
X136346447Y-84707691D01*
X136343297Y-84728926D01*
X136338081Y-84749750D01*
X136330849Y-84769962D01*
X136321670Y-84789368D01*
X136310634Y-84807781D01*
X136297846Y-84825024D01*
X136283430Y-84840930D01*
X136267524Y-84855346D01*
X136250281Y-84868134D01*
X136231868Y-84879170D01*
X136212462Y-84888349D01*
X136192250Y-84895581D01*
X136171426Y-84900797D01*
X136150191Y-84903947D01*
X136128750Y-84905000D01*
X135691250Y-84905000D01*
X135669809Y-84903947D01*
X135648574Y-84900797D01*
X135627750Y-84895581D01*
X135607538Y-84888349D01*
X135588132Y-84879170D01*
X135569719Y-84868134D01*
X135552476Y-84855346D01*
X135536570Y-84840930D01*
X135522154Y-84825024D01*
X135509366Y-84807781D01*
X135498330Y-84789368D01*
X135489151Y-84769962D01*
X135481919Y-84749750D01*
X135476703Y-84728926D01*
X135473553Y-84707691D01*
X135472500Y-84686250D01*
X135472500Y-84173750D01*
X135473553Y-84152309D01*
X135476703Y-84131074D01*
X135481919Y-84110250D01*
X135489151Y-84090038D01*
X135498330Y-84070632D01*
X135509366Y-84052219D01*
X135522154Y-84034976D01*
X135536570Y-84019070D01*
X135552476Y-84004654D01*
X135569719Y-83991866D01*
X135588132Y-83980830D01*
X135607538Y-83971651D01*
X135627750Y-83964419D01*
X135648574Y-83959203D01*
X135669809Y-83956053D01*
X135691250Y-83955000D01*
X136128750Y-83955000D01*
X136150191Y-83956053D01*
X136150191Y-83956053D01*
G37*
D14*
X135910000Y-84430000D03*
D10*
G36*
X134575191Y-83956053D02*
X134596426Y-83959203D01*
X134617250Y-83964419D01*
X134637462Y-83971651D01*
X134656868Y-83980830D01*
X134675281Y-83991866D01*
X134692524Y-84004654D01*
X134708430Y-84019070D01*
X134722846Y-84034976D01*
X134735634Y-84052219D01*
X134746670Y-84070632D01*
X134755849Y-84090038D01*
X134763081Y-84110250D01*
X134768297Y-84131074D01*
X134771447Y-84152309D01*
X134772500Y-84173750D01*
X134772500Y-84686250D01*
X134771447Y-84707691D01*
X134768297Y-84728926D01*
X134763081Y-84749750D01*
X134755849Y-84769962D01*
X134746670Y-84789368D01*
X134735634Y-84807781D01*
X134722846Y-84825024D01*
X134708430Y-84840930D01*
X134692524Y-84855346D01*
X134675281Y-84868134D01*
X134656868Y-84879170D01*
X134637462Y-84888349D01*
X134617250Y-84895581D01*
X134596426Y-84900797D01*
X134575191Y-84903947D01*
X134553750Y-84905000D01*
X134116250Y-84905000D01*
X134094809Y-84903947D01*
X134073574Y-84900797D01*
X134052750Y-84895581D01*
X134032538Y-84888349D01*
X134013132Y-84879170D01*
X133994719Y-84868134D01*
X133977476Y-84855346D01*
X133961570Y-84840930D01*
X133947154Y-84825024D01*
X133934366Y-84807781D01*
X133923330Y-84789368D01*
X133914151Y-84769962D01*
X133906919Y-84749750D01*
X133901703Y-84728926D01*
X133898553Y-84707691D01*
X133897500Y-84686250D01*
X133897500Y-84173750D01*
X133898553Y-84152309D01*
X133901703Y-84131074D01*
X133906919Y-84110250D01*
X133914151Y-84090038D01*
X133923330Y-84070632D01*
X133934366Y-84052219D01*
X133947154Y-84034976D01*
X133961570Y-84019070D01*
X133977476Y-84004654D01*
X133994719Y-83991866D01*
X134013132Y-83980830D01*
X134032538Y-83971651D01*
X134052750Y-83964419D01*
X134073574Y-83959203D01*
X134094809Y-83956053D01*
X134116250Y-83955000D01*
X134553750Y-83955000D01*
X134575191Y-83956053D01*
X134575191Y-83956053D01*
G37*
D14*
X134335000Y-84430000D03*
G04 #@! TD*
D10*
G04 #@! TO.C,C4*
G36*
X113892491Y-88654653D02*
X113913726Y-88657803D01*
X113934550Y-88663019D01*
X113954762Y-88670251D01*
X113974168Y-88679430D01*
X113992581Y-88690466D01*
X114009824Y-88703254D01*
X114025730Y-88717670D01*
X114040146Y-88733576D01*
X114052934Y-88750819D01*
X114063970Y-88769232D01*
X114073149Y-88788638D01*
X114080381Y-88808850D01*
X114085597Y-88829674D01*
X114088747Y-88850909D01*
X114089800Y-88872350D01*
X114089800Y-89384850D01*
X114088747Y-89406291D01*
X114085597Y-89427526D01*
X114080381Y-89448350D01*
X114073149Y-89468562D01*
X114063970Y-89487968D01*
X114052934Y-89506381D01*
X114040146Y-89523624D01*
X114025730Y-89539530D01*
X114009824Y-89553946D01*
X113992581Y-89566734D01*
X113974168Y-89577770D01*
X113954762Y-89586949D01*
X113934550Y-89594181D01*
X113913726Y-89599397D01*
X113892491Y-89602547D01*
X113871050Y-89603600D01*
X113433550Y-89603600D01*
X113412109Y-89602547D01*
X113390874Y-89599397D01*
X113370050Y-89594181D01*
X113349838Y-89586949D01*
X113330432Y-89577770D01*
X113312019Y-89566734D01*
X113294776Y-89553946D01*
X113278870Y-89539530D01*
X113264454Y-89523624D01*
X113251666Y-89506381D01*
X113240630Y-89487968D01*
X113231451Y-89468562D01*
X113224219Y-89448350D01*
X113219003Y-89427526D01*
X113215853Y-89406291D01*
X113214800Y-89384850D01*
X113214800Y-88872350D01*
X113215853Y-88850909D01*
X113219003Y-88829674D01*
X113224219Y-88808850D01*
X113231451Y-88788638D01*
X113240630Y-88769232D01*
X113251666Y-88750819D01*
X113264454Y-88733576D01*
X113278870Y-88717670D01*
X113294776Y-88703254D01*
X113312019Y-88690466D01*
X113330432Y-88679430D01*
X113349838Y-88670251D01*
X113370050Y-88663019D01*
X113390874Y-88657803D01*
X113412109Y-88654653D01*
X113433550Y-88653600D01*
X113871050Y-88653600D01*
X113892491Y-88654653D01*
X113892491Y-88654653D01*
G37*
D14*
X113652300Y-89128600D03*
D10*
G36*
X115467491Y-88654653D02*
X115488726Y-88657803D01*
X115509550Y-88663019D01*
X115529762Y-88670251D01*
X115549168Y-88679430D01*
X115567581Y-88690466D01*
X115584824Y-88703254D01*
X115600730Y-88717670D01*
X115615146Y-88733576D01*
X115627934Y-88750819D01*
X115638970Y-88769232D01*
X115648149Y-88788638D01*
X115655381Y-88808850D01*
X115660597Y-88829674D01*
X115663747Y-88850909D01*
X115664800Y-88872350D01*
X115664800Y-89384850D01*
X115663747Y-89406291D01*
X115660597Y-89427526D01*
X115655381Y-89448350D01*
X115648149Y-89468562D01*
X115638970Y-89487968D01*
X115627934Y-89506381D01*
X115615146Y-89523624D01*
X115600730Y-89539530D01*
X115584824Y-89553946D01*
X115567581Y-89566734D01*
X115549168Y-89577770D01*
X115529762Y-89586949D01*
X115509550Y-89594181D01*
X115488726Y-89599397D01*
X115467491Y-89602547D01*
X115446050Y-89603600D01*
X115008550Y-89603600D01*
X114987109Y-89602547D01*
X114965874Y-89599397D01*
X114945050Y-89594181D01*
X114924838Y-89586949D01*
X114905432Y-89577770D01*
X114887019Y-89566734D01*
X114869776Y-89553946D01*
X114853870Y-89539530D01*
X114839454Y-89523624D01*
X114826666Y-89506381D01*
X114815630Y-89487968D01*
X114806451Y-89468562D01*
X114799219Y-89448350D01*
X114794003Y-89427526D01*
X114790853Y-89406291D01*
X114789800Y-89384850D01*
X114789800Y-88872350D01*
X114790853Y-88850909D01*
X114794003Y-88829674D01*
X114799219Y-88808850D01*
X114806451Y-88788638D01*
X114815630Y-88769232D01*
X114826666Y-88750819D01*
X114839454Y-88733576D01*
X114853870Y-88717670D01*
X114869776Y-88703254D01*
X114887019Y-88690466D01*
X114905432Y-88679430D01*
X114924838Y-88670251D01*
X114945050Y-88663019D01*
X114965874Y-88657803D01*
X114987109Y-88654653D01*
X115008550Y-88653600D01*
X115446050Y-88653600D01*
X115467491Y-88654653D01*
X115467491Y-88654653D01*
G37*
D14*
X115227300Y-89128600D03*
G04 #@! TD*
D10*
G04 #@! TO.C,C5*
G36*
X118104805Y-84303274D02*
X118126040Y-84306424D01*
X118146864Y-84311640D01*
X118167076Y-84318872D01*
X118186482Y-84328051D01*
X118204895Y-84339087D01*
X118222138Y-84351875D01*
X118238044Y-84366291D01*
X118547403Y-84675650D01*
X118561819Y-84691556D01*
X118574607Y-84708799D01*
X118585643Y-84727212D01*
X118594822Y-84746618D01*
X118602054Y-84766830D01*
X118607270Y-84787654D01*
X118610420Y-84808889D01*
X118611473Y-84830330D01*
X118610420Y-84851771D01*
X118607270Y-84873006D01*
X118602054Y-84893830D01*
X118594822Y-84914042D01*
X118585643Y-84933448D01*
X118574607Y-84951861D01*
X118561819Y-84969104D01*
X118547403Y-84985010D01*
X118185010Y-85347403D01*
X118169104Y-85361819D01*
X118151861Y-85374607D01*
X118133448Y-85385643D01*
X118114042Y-85394822D01*
X118093830Y-85402054D01*
X118073006Y-85407270D01*
X118051771Y-85410420D01*
X118030330Y-85411473D01*
X118008889Y-85410420D01*
X117987654Y-85407270D01*
X117966830Y-85402054D01*
X117946618Y-85394822D01*
X117927212Y-85385643D01*
X117908799Y-85374607D01*
X117891556Y-85361819D01*
X117875650Y-85347403D01*
X117566291Y-85038044D01*
X117551875Y-85022138D01*
X117539087Y-85004895D01*
X117528051Y-84986482D01*
X117518872Y-84967076D01*
X117511640Y-84946864D01*
X117506424Y-84926040D01*
X117503274Y-84904805D01*
X117502221Y-84883364D01*
X117503274Y-84861923D01*
X117506424Y-84840688D01*
X117511640Y-84819864D01*
X117518872Y-84799652D01*
X117528051Y-84780246D01*
X117539087Y-84761833D01*
X117551875Y-84744590D01*
X117566291Y-84728684D01*
X117928684Y-84366291D01*
X117944590Y-84351875D01*
X117961833Y-84339087D01*
X117980246Y-84328051D01*
X117999652Y-84318872D01*
X118019864Y-84311640D01*
X118040688Y-84306424D01*
X118061923Y-84303274D01*
X118083364Y-84302221D01*
X118104805Y-84303274D01*
X118104805Y-84303274D01*
G37*
D14*
X118056847Y-84856847D03*
D10*
G36*
X116991111Y-83189580D02*
X117012346Y-83192730D01*
X117033170Y-83197946D01*
X117053382Y-83205178D01*
X117072788Y-83214357D01*
X117091201Y-83225393D01*
X117108444Y-83238181D01*
X117124350Y-83252597D01*
X117433709Y-83561956D01*
X117448125Y-83577862D01*
X117460913Y-83595105D01*
X117471949Y-83613518D01*
X117481128Y-83632924D01*
X117488360Y-83653136D01*
X117493576Y-83673960D01*
X117496726Y-83695195D01*
X117497779Y-83716636D01*
X117496726Y-83738077D01*
X117493576Y-83759312D01*
X117488360Y-83780136D01*
X117481128Y-83800348D01*
X117471949Y-83819754D01*
X117460913Y-83838167D01*
X117448125Y-83855410D01*
X117433709Y-83871316D01*
X117071316Y-84233709D01*
X117055410Y-84248125D01*
X117038167Y-84260913D01*
X117019754Y-84271949D01*
X117000348Y-84281128D01*
X116980136Y-84288360D01*
X116959312Y-84293576D01*
X116938077Y-84296726D01*
X116916636Y-84297779D01*
X116895195Y-84296726D01*
X116873960Y-84293576D01*
X116853136Y-84288360D01*
X116832924Y-84281128D01*
X116813518Y-84271949D01*
X116795105Y-84260913D01*
X116777862Y-84248125D01*
X116761956Y-84233709D01*
X116452597Y-83924350D01*
X116438181Y-83908444D01*
X116425393Y-83891201D01*
X116414357Y-83872788D01*
X116405178Y-83853382D01*
X116397946Y-83833170D01*
X116392730Y-83812346D01*
X116389580Y-83791111D01*
X116388527Y-83769670D01*
X116389580Y-83748229D01*
X116392730Y-83726994D01*
X116397946Y-83706170D01*
X116405178Y-83685958D01*
X116414357Y-83666552D01*
X116425393Y-83648139D01*
X116438181Y-83630896D01*
X116452597Y-83614990D01*
X116814990Y-83252597D01*
X116830896Y-83238181D01*
X116848139Y-83225393D01*
X116866552Y-83214357D01*
X116885958Y-83205178D01*
X116906170Y-83197946D01*
X116926994Y-83192730D01*
X116948229Y-83189580D01*
X116969670Y-83188527D01*
X116991111Y-83189580D01*
X116991111Y-83189580D01*
G37*
D14*
X116943153Y-83743153D03*
G04 #@! TD*
D10*
G04 #@! TO.C,C6*
G36*
X136150191Y-82476053D02*
X136171426Y-82479203D01*
X136192250Y-82484419D01*
X136212462Y-82491651D01*
X136231868Y-82500830D01*
X136250281Y-82511866D01*
X136267524Y-82524654D01*
X136283430Y-82539070D01*
X136297846Y-82554976D01*
X136310634Y-82572219D01*
X136321670Y-82590632D01*
X136330849Y-82610038D01*
X136338081Y-82630250D01*
X136343297Y-82651074D01*
X136346447Y-82672309D01*
X136347500Y-82693750D01*
X136347500Y-83206250D01*
X136346447Y-83227691D01*
X136343297Y-83248926D01*
X136338081Y-83269750D01*
X136330849Y-83289962D01*
X136321670Y-83309368D01*
X136310634Y-83327781D01*
X136297846Y-83345024D01*
X136283430Y-83360930D01*
X136267524Y-83375346D01*
X136250281Y-83388134D01*
X136231868Y-83399170D01*
X136212462Y-83408349D01*
X136192250Y-83415581D01*
X136171426Y-83420797D01*
X136150191Y-83423947D01*
X136128750Y-83425000D01*
X135691250Y-83425000D01*
X135669809Y-83423947D01*
X135648574Y-83420797D01*
X135627750Y-83415581D01*
X135607538Y-83408349D01*
X135588132Y-83399170D01*
X135569719Y-83388134D01*
X135552476Y-83375346D01*
X135536570Y-83360930D01*
X135522154Y-83345024D01*
X135509366Y-83327781D01*
X135498330Y-83309368D01*
X135489151Y-83289962D01*
X135481919Y-83269750D01*
X135476703Y-83248926D01*
X135473553Y-83227691D01*
X135472500Y-83206250D01*
X135472500Y-82693750D01*
X135473553Y-82672309D01*
X135476703Y-82651074D01*
X135481919Y-82630250D01*
X135489151Y-82610038D01*
X135498330Y-82590632D01*
X135509366Y-82572219D01*
X135522154Y-82554976D01*
X135536570Y-82539070D01*
X135552476Y-82524654D01*
X135569719Y-82511866D01*
X135588132Y-82500830D01*
X135607538Y-82491651D01*
X135627750Y-82484419D01*
X135648574Y-82479203D01*
X135669809Y-82476053D01*
X135691250Y-82475000D01*
X136128750Y-82475000D01*
X136150191Y-82476053D01*
X136150191Y-82476053D01*
G37*
D14*
X135910000Y-82950000D03*
D10*
G36*
X134575191Y-82476053D02*
X134596426Y-82479203D01*
X134617250Y-82484419D01*
X134637462Y-82491651D01*
X134656868Y-82500830D01*
X134675281Y-82511866D01*
X134692524Y-82524654D01*
X134708430Y-82539070D01*
X134722846Y-82554976D01*
X134735634Y-82572219D01*
X134746670Y-82590632D01*
X134755849Y-82610038D01*
X134763081Y-82630250D01*
X134768297Y-82651074D01*
X134771447Y-82672309D01*
X134772500Y-82693750D01*
X134772500Y-83206250D01*
X134771447Y-83227691D01*
X134768297Y-83248926D01*
X134763081Y-83269750D01*
X134755849Y-83289962D01*
X134746670Y-83309368D01*
X134735634Y-83327781D01*
X134722846Y-83345024D01*
X134708430Y-83360930D01*
X134692524Y-83375346D01*
X134675281Y-83388134D01*
X134656868Y-83399170D01*
X134637462Y-83408349D01*
X134617250Y-83415581D01*
X134596426Y-83420797D01*
X134575191Y-83423947D01*
X134553750Y-83425000D01*
X134116250Y-83425000D01*
X134094809Y-83423947D01*
X134073574Y-83420797D01*
X134052750Y-83415581D01*
X134032538Y-83408349D01*
X134013132Y-83399170D01*
X133994719Y-83388134D01*
X133977476Y-83375346D01*
X133961570Y-83360930D01*
X133947154Y-83345024D01*
X133934366Y-83327781D01*
X133923330Y-83309368D01*
X133914151Y-83289962D01*
X133906919Y-83269750D01*
X133901703Y-83248926D01*
X133898553Y-83227691D01*
X133897500Y-83206250D01*
X133897500Y-82693750D01*
X133898553Y-82672309D01*
X133901703Y-82651074D01*
X133906919Y-82630250D01*
X133914151Y-82610038D01*
X133923330Y-82590632D01*
X133934366Y-82572219D01*
X133947154Y-82554976D01*
X133961570Y-82539070D01*
X133977476Y-82524654D01*
X133994719Y-82511866D01*
X134013132Y-82500830D01*
X134032538Y-82491651D01*
X134052750Y-82484419D01*
X134073574Y-82479203D01*
X134094809Y-82476053D01*
X134116250Y-82475000D01*
X134553750Y-82475000D01*
X134575191Y-82476053D01*
X134575191Y-82476053D01*
G37*
D14*
X134335000Y-82950000D03*
G04 #@! TD*
D10*
G04 #@! TO.C,C7*
G36*
X132554264Y-90182733D02*
X132575499Y-90185883D01*
X132596323Y-90191099D01*
X132616535Y-90198331D01*
X132635941Y-90207510D01*
X132654354Y-90218546D01*
X132671597Y-90231334D01*
X132687503Y-90245750D01*
X132996862Y-90555109D01*
X133011278Y-90571015D01*
X133024066Y-90588258D01*
X133035102Y-90606671D01*
X133044281Y-90626077D01*
X133051513Y-90646289D01*
X133056729Y-90667113D01*
X133059879Y-90688348D01*
X133060932Y-90709789D01*
X133059879Y-90731230D01*
X133056729Y-90752465D01*
X133051513Y-90773289D01*
X133044281Y-90793501D01*
X133035102Y-90812907D01*
X133024066Y-90831320D01*
X133011278Y-90848563D01*
X132996862Y-90864469D01*
X132634469Y-91226862D01*
X132618563Y-91241278D01*
X132601320Y-91254066D01*
X132582907Y-91265102D01*
X132563501Y-91274281D01*
X132543289Y-91281513D01*
X132522465Y-91286729D01*
X132501230Y-91289879D01*
X132479789Y-91290932D01*
X132458348Y-91289879D01*
X132437113Y-91286729D01*
X132416289Y-91281513D01*
X132396077Y-91274281D01*
X132376671Y-91265102D01*
X132358258Y-91254066D01*
X132341015Y-91241278D01*
X132325109Y-91226862D01*
X132015750Y-90917503D01*
X132001334Y-90901597D01*
X131988546Y-90884354D01*
X131977510Y-90865941D01*
X131968331Y-90846535D01*
X131961099Y-90826323D01*
X131955883Y-90805499D01*
X131952733Y-90784264D01*
X131951680Y-90762823D01*
X131952733Y-90741382D01*
X131955883Y-90720147D01*
X131961099Y-90699323D01*
X131968331Y-90679111D01*
X131977510Y-90659705D01*
X131988546Y-90641292D01*
X132001334Y-90624049D01*
X132015750Y-90608143D01*
X132378143Y-90245750D01*
X132394049Y-90231334D01*
X132411292Y-90218546D01*
X132429705Y-90207510D01*
X132449111Y-90198331D01*
X132469323Y-90191099D01*
X132490147Y-90185883D01*
X132511382Y-90182733D01*
X132532823Y-90181680D01*
X132554264Y-90182733D01*
X132554264Y-90182733D01*
G37*
D14*
X132506306Y-90736306D03*
D10*
G36*
X133667958Y-91296427D02*
X133689193Y-91299577D01*
X133710017Y-91304793D01*
X133730229Y-91312025D01*
X133749635Y-91321204D01*
X133768048Y-91332240D01*
X133785291Y-91345028D01*
X133801197Y-91359444D01*
X134110556Y-91668803D01*
X134124972Y-91684709D01*
X134137760Y-91701952D01*
X134148796Y-91720365D01*
X134157975Y-91739771D01*
X134165207Y-91759983D01*
X134170423Y-91780807D01*
X134173573Y-91802042D01*
X134174626Y-91823483D01*
X134173573Y-91844924D01*
X134170423Y-91866159D01*
X134165207Y-91886983D01*
X134157975Y-91907195D01*
X134148796Y-91926601D01*
X134137760Y-91945014D01*
X134124972Y-91962257D01*
X134110556Y-91978163D01*
X133748163Y-92340556D01*
X133732257Y-92354972D01*
X133715014Y-92367760D01*
X133696601Y-92378796D01*
X133677195Y-92387975D01*
X133656983Y-92395207D01*
X133636159Y-92400423D01*
X133614924Y-92403573D01*
X133593483Y-92404626D01*
X133572042Y-92403573D01*
X133550807Y-92400423D01*
X133529983Y-92395207D01*
X133509771Y-92387975D01*
X133490365Y-92378796D01*
X133471952Y-92367760D01*
X133454709Y-92354972D01*
X133438803Y-92340556D01*
X133129444Y-92031197D01*
X133115028Y-92015291D01*
X133102240Y-91998048D01*
X133091204Y-91979635D01*
X133082025Y-91960229D01*
X133074793Y-91940017D01*
X133069577Y-91919193D01*
X133066427Y-91897958D01*
X133065374Y-91876517D01*
X133066427Y-91855076D01*
X133069577Y-91833841D01*
X133074793Y-91813017D01*
X133082025Y-91792805D01*
X133091204Y-91773399D01*
X133102240Y-91754986D01*
X133115028Y-91737743D01*
X133129444Y-91721837D01*
X133491837Y-91359444D01*
X133507743Y-91345028D01*
X133524986Y-91332240D01*
X133543399Y-91321204D01*
X133562805Y-91312025D01*
X133583017Y-91304793D01*
X133603841Y-91299577D01*
X133625076Y-91296427D01*
X133646517Y-91295374D01*
X133667958Y-91296427D01*
X133667958Y-91296427D01*
G37*
D14*
X133620000Y-91850000D03*
G04 #@! TD*
D10*
G04 #@! TO.C,L1*
G36*
X105627691Y-77863553D02*
X105648926Y-77866703D01*
X105669750Y-77871919D01*
X105689962Y-77879151D01*
X105709368Y-77888330D01*
X105727781Y-77899366D01*
X105745024Y-77912154D01*
X105760930Y-77926570D01*
X105775346Y-77942476D01*
X105788134Y-77959719D01*
X105799170Y-77978132D01*
X105808349Y-77997538D01*
X105815581Y-78017750D01*
X105820797Y-78038574D01*
X105823947Y-78059809D01*
X105825000Y-78081250D01*
X105825000Y-78518750D01*
X105823947Y-78540191D01*
X105820797Y-78561426D01*
X105815581Y-78582250D01*
X105808349Y-78602462D01*
X105799170Y-78621868D01*
X105788134Y-78640281D01*
X105775346Y-78657524D01*
X105760930Y-78673430D01*
X105745024Y-78687846D01*
X105727781Y-78700634D01*
X105709368Y-78711670D01*
X105689962Y-78720849D01*
X105669750Y-78728081D01*
X105648926Y-78733297D01*
X105627691Y-78736447D01*
X105606250Y-78737500D01*
X105093750Y-78737500D01*
X105072309Y-78736447D01*
X105051074Y-78733297D01*
X105030250Y-78728081D01*
X105010038Y-78720849D01*
X104990632Y-78711670D01*
X104972219Y-78700634D01*
X104954976Y-78687846D01*
X104939070Y-78673430D01*
X104924654Y-78657524D01*
X104911866Y-78640281D01*
X104900830Y-78621868D01*
X104891651Y-78602462D01*
X104884419Y-78582250D01*
X104879203Y-78561426D01*
X104876053Y-78540191D01*
X104875000Y-78518750D01*
X104875000Y-78081250D01*
X104876053Y-78059809D01*
X104879203Y-78038574D01*
X104884419Y-78017750D01*
X104891651Y-77997538D01*
X104900830Y-77978132D01*
X104911866Y-77959719D01*
X104924654Y-77942476D01*
X104939070Y-77926570D01*
X104954976Y-77912154D01*
X104972219Y-77899366D01*
X104990632Y-77888330D01*
X105010038Y-77879151D01*
X105030250Y-77871919D01*
X105051074Y-77866703D01*
X105072309Y-77863553D01*
X105093750Y-77862500D01*
X105606250Y-77862500D01*
X105627691Y-77863553D01*
X105627691Y-77863553D01*
G37*
D14*
X105350000Y-78300000D03*
D10*
G36*
X105627691Y-79438553D02*
X105648926Y-79441703D01*
X105669750Y-79446919D01*
X105689962Y-79454151D01*
X105709368Y-79463330D01*
X105727781Y-79474366D01*
X105745024Y-79487154D01*
X105760930Y-79501570D01*
X105775346Y-79517476D01*
X105788134Y-79534719D01*
X105799170Y-79553132D01*
X105808349Y-79572538D01*
X105815581Y-79592750D01*
X105820797Y-79613574D01*
X105823947Y-79634809D01*
X105825000Y-79656250D01*
X105825000Y-80093750D01*
X105823947Y-80115191D01*
X105820797Y-80136426D01*
X105815581Y-80157250D01*
X105808349Y-80177462D01*
X105799170Y-80196868D01*
X105788134Y-80215281D01*
X105775346Y-80232524D01*
X105760930Y-80248430D01*
X105745024Y-80262846D01*
X105727781Y-80275634D01*
X105709368Y-80286670D01*
X105689962Y-80295849D01*
X105669750Y-80303081D01*
X105648926Y-80308297D01*
X105627691Y-80311447D01*
X105606250Y-80312500D01*
X105093750Y-80312500D01*
X105072309Y-80311447D01*
X105051074Y-80308297D01*
X105030250Y-80303081D01*
X105010038Y-80295849D01*
X104990632Y-80286670D01*
X104972219Y-80275634D01*
X104954976Y-80262846D01*
X104939070Y-80248430D01*
X104924654Y-80232524D01*
X104911866Y-80215281D01*
X104900830Y-80196868D01*
X104891651Y-80177462D01*
X104884419Y-80157250D01*
X104879203Y-80136426D01*
X104876053Y-80115191D01*
X104875000Y-80093750D01*
X104875000Y-79656250D01*
X104876053Y-79634809D01*
X104879203Y-79613574D01*
X104884419Y-79592750D01*
X104891651Y-79572538D01*
X104900830Y-79553132D01*
X104911866Y-79534719D01*
X104924654Y-79517476D01*
X104939070Y-79501570D01*
X104954976Y-79487154D01*
X104972219Y-79474366D01*
X104990632Y-79463330D01*
X105010038Y-79454151D01*
X105030250Y-79446919D01*
X105051074Y-79441703D01*
X105072309Y-79438553D01*
X105093750Y-79437500D01*
X105606250Y-79437500D01*
X105627691Y-79438553D01*
X105627691Y-79438553D01*
G37*
D14*
X105350000Y-79875000D03*
G04 #@! TD*
D10*
G04 #@! TO.C,L2*
G36*
X103252691Y-79601053D02*
X103273926Y-79604203D01*
X103294750Y-79609419D01*
X103314962Y-79616651D01*
X103334368Y-79625830D01*
X103352781Y-79636866D01*
X103370024Y-79649654D01*
X103385930Y-79664070D01*
X103400346Y-79679976D01*
X103413134Y-79697219D01*
X103424170Y-79715632D01*
X103433349Y-79735038D01*
X103440581Y-79755250D01*
X103445797Y-79776074D01*
X103448947Y-79797309D01*
X103450000Y-79818750D01*
X103450000Y-80256250D01*
X103448947Y-80277691D01*
X103445797Y-80298926D01*
X103440581Y-80319750D01*
X103433349Y-80339962D01*
X103424170Y-80359368D01*
X103413134Y-80377781D01*
X103400346Y-80395024D01*
X103385930Y-80410930D01*
X103370024Y-80425346D01*
X103352781Y-80438134D01*
X103334368Y-80449170D01*
X103314962Y-80458349D01*
X103294750Y-80465581D01*
X103273926Y-80470797D01*
X103252691Y-80473947D01*
X103231250Y-80475000D01*
X102718750Y-80475000D01*
X102697309Y-80473947D01*
X102676074Y-80470797D01*
X102655250Y-80465581D01*
X102635038Y-80458349D01*
X102615632Y-80449170D01*
X102597219Y-80438134D01*
X102579976Y-80425346D01*
X102564070Y-80410930D01*
X102549654Y-80395024D01*
X102536866Y-80377781D01*
X102525830Y-80359368D01*
X102516651Y-80339962D01*
X102509419Y-80319750D01*
X102504203Y-80298926D01*
X102501053Y-80277691D01*
X102500000Y-80256250D01*
X102500000Y-79818750D01*
X102501053Y-79797309D01*
X102504203Y-79776074D01*
X102509419Y-79755250D01*
X102516651Y-79735038D01*
X102525830Y-79715632D01*
X102536866Y-79697219D01*
X102549654Y-79679976D01*
X102564070Y-79664070D01*
X102579976Y-79649654D01*
X102597219Y-79636866D01*
X102615632Y-79625830D01*
X102635038Y-79616651D01*
X102655250Y-79609419D01*
X102676074Y-79604203D01*
X102697309Y-79601053D01*
X102718750Y-79600000D01*
X103231250Y-79600000D01*
X103252691Y-79601053D01*
X103252691Y-79601053D01*
G37*
D14*
X102975000Y-80037500D03*
D10*
G36*
X103252691Y-78026053D02*
X103273926Y-78029203D01*
X103294750Y-78034419D01*
X103314962Y-78041651D01*
X103334368Y-78050830D01*
X103352781Y-78061866D01*
X103370024Y-78074654D01*
X103385930Y-78089070D01*
X103400346Y-78104976D01*
X103413134Y-78122219D01*
X103424170Y-78140632D01*
X103433349Y-78160038D01*
X103440581Y-78180250D01*
X103445797Y-78201074D01*
X103448947Y-78222309D01*
X103450000Y-78243750D01*
X103450000Y-78681250D01*
X103448947Y-78702691D01*
X103445797Y-78723926D01*
X103440581Y-78744750D01*
X103433349Y-78764962D01*
X103424170Y-78784368D01*
X103413134Y-78802781D01*
X103400346Y-78820024D01*
X103385930Y-78835930D01*
X103370024Y-78850346D01*
X103352781Y-78863134D01*
X103334368Y-78874170D01*
X103314962Y-78883349D01*
X103294750Y-78890581D01*
X103273926Y-78895797D01*
X103252691Y-78898947D01*
X103231250Y-78900000D01*
X102718750Y-78900000D01*
X102697309Y-78898947D01*
X102676074Y-78895797D01*
X102655250Y-78890581D01*
X102635038Y-78883349D01*
X102615632Y-78874170D01*
X102597219Y-78863134D01*
X102579976Y-78850346D01*
X102564070Y-78835930D01*
X102549654Y-78820024D01*
X102536866Y-78802781D01*
X102525830Y-78784368D01*
X102516651Y-78764962D01*
X102509419Y-78744750D01*
X102504203Y-78723926D01*
X102501053Y-78702691D01*
X102500000Y-78681250D01*
X102500000Y-78243750D01*
X102501053Y-78222309D01*
X102504203Y-78201074D01*
X102509419Y-78180250D01*
X102516651Y-78160038D01*
X102525830Y-78140632D01*
X102536866Y-78122219D01*
X102549654Y-78104976D01*
X102564070Y-78089070D01*
X102579976Y-78074654D01*
X102597219Y-78061866D01*
X102615632Y-78050830D01*
X102635038Y-78041651D01*
X102655250Y-78034419D01*
X102676074Y-78029203D01*
X102697309Y-78026053D01*
X102718750Y-78025000D01*
X103231250Y-78025000D01*
X103252691Y-78026053D01*
X103252691Y-78026053D01*
G37*
D14*
X102975000Y-78462500D03*
G04 #@! TD*
D10*
G04 #@! TO.C,R1*
G36*
X103177691Y-75621053D02*
X103198926Y-75624203D01*
X103219750Y-75629419D01*
X103239962Y-75636651D01*
X103259368Y-75645830D01*
X103277781Y-75656866D01*
X103295024Y-75669654D01*
X103310930Y-75684070D01*
X103325346Y-75699976D01*
X103338134Y-75717219D01*
X103349170Y-75735632D01*
X103358349Y-75755038D01*
X103365581Y-75775250D01*
X103370797Y-75796074D01*
X103373947Y-75817309D01*
X103375000Y-75838750D01*
X103375000Y-76276250D01*
X103373947Y-76297691D01*
X103370797Y-76318926D01*
X103365581Y-76339750D01*
X103358349Y-76359962D01*
X103349170Y-76379368D01*
X103338134Y-76397781D01*
X103325346Y-76415024D01*
X103310930Y-76430930D01*
X103295024Y-76445346D01*
X103277781Y-76458134D01*
X103259368Y-76469170D01*
X103239962Y-76478349D01*
X103219750Y-76485581D01*
X103198926Y-76490797D01*
X103177691Y-76493947D01*
X103156250Y-76495000D01*
X102643750Y-76495000D01*
X102622309Y-76493947D01*
X102601074Y-76490797D01*
X102580250Y-76485581D01*
X102560038Y-76478349D01*
X102540632Y-76469170D01*
X102522219Y-76458134D01*
X102504976Y-76445346D01*
X102489070Y-76430930D01*
X102474654Y-76415024D01*
X102461866Y-76397781D01*
X102450830Y-76379368D01*
X102441651Y-76359962D01*
X102434419Y-76339750D01*
X102429203Y-76318926D01*
X102426053Y-76297691D01*
X102425000Y-76276250D01*
X102425000Y-75838750D01*
X102426053Y-75817309D01*
X102429203Y-75796074D01*
X102434419Y-75775250D01*
X102441651Y-75755038D01*
X102450830Y-75735632D01*
X102461866Y-75717219D01*
X102474654Y-75699976D01*
X102489070Y-75684070D01*
X102504976Y-75669654D01*
X102522219Y-75656866D01*
X102540632Y-75645830D01*
X102560038Y-75636651D01*
X102580250Y-75629419D01*
X102601074Y-75624203D01*
X102622309Y-75621053D01*
X102643750Y-75620000D01*
X103156250Y-75620000D01*
X103177691Y-75621053D01*
X103177691Y-75621053D01*
G37*
D14*
X102900000Y-76057500D03*
D10*
G36*
X103177691Y-74046053D02*
X103198926Y-74049203D01*
X103219750Y-74054419D01*
X103239962Y-74061651D01*
X103259368Y-74070830D01*
X103277781Y-74081866D01*
X103295024Y-74094654D01*
X103310930Y-74109070D01*
X103325346Y-74124976D01*
X103338134Y-74142219D01*
X103349170Y-74160632D01*
X103358349Y-74180038D01*
X103365581Y-74200250D01*
X103370797Y-74221074D01*
X103373947Y-74242309D01*
X103375000Y-74263750D01*
X103375000Y-74701250D01*
X103373947Y-74722691D01*
X103370797Y-74743926D01*
X103365581Y-74764750D01*
X103358349Y-74784962D01*
X103349170Y-74804368D01*
X103338134Y-74822781D01*
X103325346Y-74840024D01*
X103310930Y-74855930D01*
X103295024Y-74870346D01*
X103277781Y-74883134D01*
X103259368Y-74894170D01*
X103239962Y-74903349D01*
X103219750Y-74910581D01*
X103198926Y-74915797D01*
X103177691Y-74918947D01*
X103156250Y-74920000D01*
X102643750Y-74920000D01*
X102622309Y-74918947D01*
X102601074Y-74915797D01*
X102580250Y-74910581D01*
X102560038Y-74903349D01*
X102540632Y-74894170D01*
X102522219Y-74883134D01*
X102504976Y-74870346D01*
X102489070Y-74855930D01*
X102474654Y-74840024D01*
X102461866Y-74822781D01*
X102450830Y-74804368D01*
X102441651Y-74784962D01*
X102434419Y-74764750D01*
X102429203Y-74743926D01*
X102426053Y-74722691D01*
X102425000Y-74701250D01*
X102425000Y-74263750D01*
X102426053Y-74242309D01*
X102429203Y-74221074D01*
X102434419Y-74200250D01*
X102441651Y-74180038D01*
X102450830Y-74160632D01*
X102461866Y-74142219D01*
X102474654Y-74124976D01*
X102489070Y-74109070D01*
X102504976Y-74094654D01*
X102522219Y-74081866D01*
X102540632Y-74070830D01*
X102560038Y-74061651D01*
X102580250Y-74054419D01*
X102601074Y-74049203D01*
X102622309Y-74046053D01*
X102643750Y-74045000D01*
X103156250Y-74045000D01*
X103177691Y-74046053D01*
X103177691Y-74046053D01*
G37*
D14*
X102900000Y-74482500D03*
G04 #@! TD*
D10*
G04 #@! TO.C,R2*
G36*
X105017131Y-74046513D02*
X105038366Y-74049663D01*
X105059190Y-74054879D01*
X105079402Y-74062111D01*
X105098808Y-74071290D01*
X105117221Y-74082326D01*
X105134464Y-74095114D01*
X105150370Y-74109530D01*
X105164786Y-74125436D01*
X105177574Y-74142679D01*
X105188610Y-74161092D01*
X105197789Y-74180498D01*
X105205021Y-74200710D01*
X105210237Y-74221534D01*
X105213387Y-74242769D01*
X105214440Y-74264210D01*
X105214440Y-74701710D01*
X105213387Y-74723151D01*
X105210237Y-74744386D01*
X105205021Y-74765210D01*
X105197789Y-74785422D01*
X105188610Y-74804828D01*
X105177574Y-74823241D01*
X105164786Y-74840484D01*
X105150370Y-74856390D01*
X105134464Y-74870806D01*
X105117221Y-74883594D01*
X105098808Y-74894630D01*
X105079402Y-74903809D01*
X105059190Y-74911041D01*
X105038366Y-74916257D01*
X105017131Y-74919407D01*
X104995690Y-74920460D01*
X104483190Y-74920460D01*
X104461749Y-74919407D01*
X104440514Y-74916257D01*
X104419690Y-74911041D01*
X104399478Y-74903809D01*
X104380072Y-74894630D01*
X104361659Y-74883594D01*
X104344416Y-74870806D01*
X104328510Y-74856390D01*
X104314094Y-74840484D01*
X104301306Y-74823241D01*
X104290270Y-74804828D01*
X104281091Y-74785422D01*
X104273859Y-74765210D01*
X104268643Y-74744386D01*
X104265493Y-74723151D01*
X104264440Y-74701710D01*
X104264440Y-74264210D01*
X104265493Y-74242769D01*
X104268643Y-74221534D01*
X104273859Y-74200710D01*
X104281091Y-74180498D01*
X104290270Y-74161092D01*
X104301306Y-74142679D01*
X104314094Y-74125436D01*
X104328510Y-74109530D01*
X104344416Y-74095114D01*
X104361659Y-74082326D01*
X104380072Y-74071290D01*
X104399478Y-74062111D01*
X104419690Y-74054879D01*
X104440514Y-74049663D01*
X104461749Y-74046513D01*
X104483190Y-74045460D01*
X104995690Y-74045460D01*
X105017131Y-74046513D01*
X105017131Y-74046513D01*
G37*
D14*
X104739440Y-74482960D03*
D10*
G36*
X105017131Y-75621513D02*
X105038366Y-75624663D01*
X105059190Y-75629879D01*
X105079402Y-75637111D01*
X105098808Y-75646290D01*
X105117221Y-75657326D01*
X105134464Y-75670114D01*
X105150370Y-75684530D01*
X105164786Y-75700436D01*
X105177574Y-75717679D01*
X105188610Y-75736092D01*
X105197789Y-75755498D01*
X105205021Y-75775710D01*
X105210237Y-75796534D01*
X105213387Y-75817769D01*
X105214440Y-75839210D01*
X105214440Y-76276710D01*
X105213387Y-76298151D01*
X105210237Y-76319386D01*
X105205021Y-76340210D01*
X105197789Y-76360422D01*
X105188610Y-76379828D01*
X105177574Y-76398241D01*
X105164786Y-76415484D01*
X105150370Y-76431390D01*
X105134464Y-76445806D01*
X105117221Y-76458594D01*
X105098808Y-76469630D01*
X105079402Y-76478809D01*
X105059190Y-76486041D01*
X105038366Y-76491257D01*
X105017131Y-76494407D01*
X104995690Y-76495460D01*
X104483190Y-76495460D01*
X104461749Y-76494407D01*
X104440514Y-76491257D01*
X104419690Y-76486041D01*
X104399478Y-76478809D01*
X104380072Y-76469630D01*
X104361659Y-76458594D01*
X104344416Y-76445806D01*
X104328510Y-76431390D01*
X104314094Y-76415484D01*
X104301306Y-76398241D01*
X104290270Y-76379828D01*
X104281091Y-76360422D01*
X104273859Y-76340210D01*
X104268643Y-76319386D01*
X104265493Y-76298151D01*
X104264440Y-76276710D01*
X104264440Y-75839210D01*
X104265493Y-75817769D01*
X104268643Y-75796534D01*
X104273859Y-75775710D01*
X104281091Y-75755498D01*
X104290270Y-75736092D01*
X104301306Y-75717679D01*
X104314094Y-75700436D01*
X104328510Y-75684530D01*
X104344416Y-75670114D01*
X104361659Y-75657326D01*
X104380072Y-75646290D01*
X104399478Y-75637111D01*
X104419690Y-75629879D01*
X104440514Y-75624663D01*
X104461749Y-75621513D01*
X104483190Y-75620460D01*
X104995690Y-75620460D01*
X105017131Y-75621513D01*
X105017131Y-75621513D01*
G37*
D14*
X104739440Y-76057960D03*
G04 #@! TD*
D15*
G04 #@! TO.C,U2*
X106825000Y-81470000D03*
X106375000Y-81470000D03*
X105925000Y-81470000D03*
X105475000Y-81470000D03*
X105025000Y-81470000D03*
X104575000Y-81470000D03*
X104575000Y-84370000D03*
X105025000Y-84370000D03*
X105475000Y-84370000D03*
X105925000Y-84370000D03*
X106375000Y-84370000D03*
X106825000Y-84370000D03*
D16*
X105700000Y-82920000D03*
G04 #@! TD*
D10*
G04 #@! TO.C,C10*
G36*
X101457691Y-90276053D02*
X101478926Y-90279203D01*
X101499750Y-90284419D01*
X101519962Y-90291651D01*
X101539368Y-90300830D01*
X101557781Y-90311866D01*
X101575024Y-90324654D01*
X101590930Y-90339070D01*
X101605346Y-90354976D01*
X101618134Y-90372219D01*
X101629170Y-90390632D01*
X101638349Y-90410038D01*
X101645581Y-90430250D01*
X101650797Y-90451074D01*
X101653947Y-90472309D01*
X101655000Y-90493750D01*
X101655000Y-90931250D01*
X101653947Y-90952691D01*
X101650797Y-90973926D01*
X101645581Y-90994750D01*
X101638349Y-91014962D01*
X101629170Y-91034368D01*
X101618134Y-91052781D01*
X101605346Y-91070024D01*
X101590930Y-91085930D01*
X101575024Y-91100346D01*
X101557781Y-91113134D01*
X101539368Y-91124170D01*
X101519962Y-91133349D01*
X101499750Y-91140581D01*
X101478926Y-91145797D01*
X101457691Y-91148947D01*
X101436250Y-91150000D01*
X100923750Y-91150000D01*
X100902309Y-91148947D01*
X100881074Y-91145797D01*
X100860250Y-91140581D01*
X100840038Y-91133349D01*
X100820632Y-91124170D01*
X100802219Y-91113134D01*
X100784976Y-91100346D01*
X100769070Y-91085930D01*
X100754654Y-91070024D01*
X100741866Y-91052781D01*
X100730830Y-91034368D01*
X100721651Y-91014962D01*
X100714419Y-90994750D01*
X100709203Y-90973926D01*
X100706053Y-90952691D01*
X100705000Y-90931250D01*
X100705000Y-90493750D01*
X100706053Y-90472309D01*
X100709203Y-90451074D01*
X100714419Y-90430250D01*
X100721651Y-90410038D01*
X100730830Y-90390632D01*
X100741866Y-90372219D01*
X100754654Y-90354976D01*
X100769070Y-90339070D01*
X100784976Y-90324654D01*
X100802219Y-90311866D01*
X100820632Y-90300830D01*
X100840038Y-90291651D01*
X100860250Y-90284419D01*
X100881074Y-90279203D01*
X100902309Y-90276053D01*
X100923750Y-90275000D01*
X101436250Y-90275000D01*
X101457691Y-90276053D01*
X101457691Y-90276053D01*
G37*
D14*
X101180000Y-90712500D03*
D10*
G36*
X101457691Y-91851053D02*
X101478926Y-91854203D01*
X101499750Y-91859419D01*
X101519962Y-91866651D01*
X101539368Y-91875830D01*
X101557781Y-91886866D01*
X101575024Y-91899654D01*
X101590930Y-91914070D01*
X101605346Y-91929976D01*
X101618134Y-91947219D01*
X101629170Y-91965632D01*
X101638349Y-91985038D01*
X101645581Y-92005250D01*
X101650797Y-92026074D01*
X101653947Y-92047309D01*
X101655000Y-92068750D01*
X101655000Y-92506250D01*
X101653947Y-92527691D01*
X101650797Y-92548926D01*
X101645581Y-92569750D01*
X101638349Y-92589962D01*
X101629170Y-92609368D01*
X101618134Y-92627781D01*
X101605346Y-92645024D01*
X101590930Y-92660930D01*
X101575024Y-92675346D01*
X101557781Y-92688134D01*
X101539368Y-92699170D01*
X101519962Y-92708349D01*
X101499750Y-92715581D01*
X101478926Y-92720797D01*
X101457691Y-92723947D01*
X101436250Y-92725000D01*
X100923750Y-92725000D01*
X100902309Y-92723947D01*
X100881074Y-92720797D01*
X100860250Y-92715581D01*
X100840038Y-92708349D01*
X100820632Y-92699170D01*
X100802219Y-92688134D01*
X100784976Y-92675346D01*
X100769070Y-92660930D01*
X100754654Y-92645024D01*
X100741866Y-92627781D01*
X100730830Y-92609368D01*
X100721651Y-92589962D01*
X100714419Y-92569750D01*
X100709203Y-92548926D01*
X100706053Y-92527691D01*
X100705000Y-92506250D01*
X100705000Y-92068750D01*
X100706053Y-92047309D01*
X100709203Y-92026074D01*
X100714419Y-92005250D01*
X100721651Y-91985038D01*
X100730830Y-91965632D01*
X100741866Y-91947219D01*
X100754654Y-91929976D01*
X100769070Y-91914070D01*
X100784976Y-91899654D01*
X100802219Y-91886866D01*
X100820632Y-91875830D01*
X100840038Y-91866651D01*
X100860250Y-91859419D01*
X100881074Y-91854203D01*
X100902309Y-91851053D01*
X100923750Y-91850000D01*
X101436250Y-91850000D01*
X101457691Y-91851053D01*
X101457691Y-91851053D01*
G37*
D14*
X101180000Y-92287500D03*
G04 #@! TD*
D17*
G04 #@! TO.C,SW1*
X100950000Y-74420000D03*
X93750000Y-74420000D03*
X100950000Y-77420000D03*
X93750000Y-77420000D03*
G04 #@! TD*
D10*
G04 #@! TO.C,C11*
G36*
X106225191Y-93476053D02*
X106246426Y-93479203D01*
X106267250Y-93484419D01*
X106287462Y-93491651D01*
X106306868Y-93500830D01*
X106325281Y-93511866D01*
X106342524Y-93524654D01*
X106358430Y-93539070D01*
X106372846Y-93554976D01*
X106385634Y-93572219D01*
X106396670Y-93590632D01*
X106405849Y-93610038D01*
X106413081Y-93630250D01*
X106418297Y-93651074D01*
X106421447Y-93672309D01*
X106422500Y-93693750D01*
X106422500Y-94206250D01*
X106421447Y-94227691D01*
X106418297Y-94248926D01*
X106413081Y-94269750D01*
X106405849Y-94289962D01*
X106396670Y-94309368D01*
X106385634Y-94327781D01*
X106372846Y-94345024D01*
X106358430Y-94360930D01*
X106342524Y-94375346D01*
X106325281Y-94388134D01*
X106306868Y-94399170D01*
X106287462Y-94408349D01*
X106267250Y-94415581D01*
X106246426Y-94420797D01*
X106225191Y-94423947D01*
X106203750Y-94425000D01*
X105766250Y-94425000D01*
X105744809Y-94423947D01*
X105723574Y-94420797D01*
X105702750Y-94415581D01*
X105682538Y-94408349D01*
X105663132Y-94399170D01*
X105644719Y-94388134D01*
X105627476Y-94375346D01*
X105611570Y-94360930D01*
X105597154Y-94345024D01*
X105584366Y-94327781D01*
X105573330Y-94309368D01*
X105564151Y-94289962D01*
X105556919Y-94269750D01*
X105551703Y-94248926D01*
X105548553Y-94227691D01*
X105547500Y-94206250D01*
X105547500Y-93693750D01*
X105548553Y-93672309D01*
X105551703Y-93651074D01*
X105556919Y-93630250D01*
X105564151Y-93610038D01*
X105573330Y-93590632D01*
X105584366Y-93572219D01*
X105597154Y-93554976D01*
X105611570Y-93539070D01*
X105627476Y-93524654D01*
X105644719Y-93511866D01*
X105663132Y-93500830D01*
X105682538Y-93491651D01*
X105702750Y-93484419D01*
X105723574Y-93479203D01*
X105744809Y-93476053D01*
X105766250Y-93475000D01*
X106203750Y-93475000D01*
X106225191Y-93476053D01*
X106225191Y-93476053D01*
G37*
D14*
X105985000Y-93950000D03*
D10*
G36*
X104650191Y-93476053D02*
X104671426Y-93479203D01*
X104692250Y-93484419D01*
X104712462Y-93491651D01*
X104731868Y-93500830D01*
X104750281Y-93511866D01*
X104767524Y-93524654D01*
X104783430Y-93539070D01*
X104797846Y-93554976D01*
X104810634Y-93572219D01*
X104821670Y-93590632D01*
X104830849Y-93610038D01*
X104838081Y-93630250D01*
X104843297Y-93651074D01*
X104846447Y-93672309D01*
X104847500Y-93693750D01*
X104847500Y-94206250D01*
X104846447Y-94227691D01*
X104843297Y-94248926D01*
X104838081Y-94269750D01*
X104830849Y-94289962D01*
X104821670Y-94309368D01*
X104810634Y-94327781D01*
X104797846Y-94345024D01*
X104783430Y-94360930D01*
X104767524Y-94375346D01*
X104750281Y-94388134D01*
X104731868Y-94399170D01*
X104712462Y-94408349D01*
X104692250Y-94415581D01*
X104671426Y-94420797D01*
X104650191Y-94423947D01*
X104628750Y-94425000D01*
X104191250Y-94425000D01*
X104169809Y-94423947D01*
X104148574Y-94420797D01*
X104127750Y-94415581D01*
X104107538Y-94408349D01*
X104088132Y-94399170D01*
X104069719Y-94388134D01*
X104052476Y-94375346D01*
X104036570Y-94360930D01*
X104022154Y-94345024D01*
X104009366Y-94327781D01*
X103998330Y-94309368D01*
X103989151Y-94289962D01*
X103981919Y-94269750D01*
X103976703Y-94248926D01*
X103973553Y-94227691D01*
X103972500Y-94206250D01*
X103972500Y-93693750D01*
X103973553Y-93672309D01*
X103976703Y-93651074D01*
X103981919Y-93630250D01*
X103989151Y-93610038D01*
X103998330Y-93590632D01*
X104009366Y-93572219D01*
X104022154Y-93554976D01*
X104036570Y-93539070D01*
X104052476Y-93524654D01*
X104069719Y-93511866D01*
X104088132Y-93500830D01*
X104107538Y-93491651D01*
X104127750Y-93484419D01*
X104148574Y-93479203D01*
X104169809Y-93476053D01*
X104191250Y-93475000D01*
X104628750Y-93475000D01*
X104650191Y-93476053D01*
X104650191Y-93476053D01*
G37*
D14*
X104410000Y-93950000D03*
G04 #@! TD*
D18*
G04 #@! TO.C,U3*
X104825000Y-88720000D03*
X105775000Y-88720000D03*
X106725000Y-88720000D03*
X106725000Y-86100000D03*
X104825000Y-86100000D03*
G04 #@! TD*
D10*
G04 #@! TO.C,L3*
G36*
X107095204Y-89951104D02*
X107119473Y-89954704D01*
X107143271Y-89960665D01*
X107166371Y-89968930D01*
X107188549Y-89979420D01*
X107209593Y-89992033D01*
X107229298Y-90006647D01*
X107247477Y-90023123D01*
X107263953Y-90041302D01*
X107278567Y-90061007D01*
X107291180Y-90082051D01*
X107301670Y-90104229D01*
X107309935Y-90127329D01*
X107315896Y-90151127D01*
X107319496Y-90175396D01*
X107320700Y-90199900D01*
X107320700Y-92349900D01*
X107319496Y-92374404D01*
X107315896Y-92398673D01*
X107309935Y-92422471D01*
X107301670Y-92445571D01*
X107291180Y-92467749D01*
X107278567Y-92488793D01*
X107263953Y-92508498D01*
X107247477Y-92526677D01*
X107229298Y-92543153D01*
X107209593Y-92557767D01*
X107188549Y-92570380D01*
X107166371Y-92580870D01*
X107143271Y-92589135D01*
X107119473Y-92595096D01*
X107095204Y-92598696D01*
X107070700Y-92599900D01*
X106320700Y-92599900D01*
X106296196Y-92598696D01*
X106271927Y-92595096D01*
X106248129Y-92589135D01*
X106225029Y-92580870D01*
X106202851Y-92570380D01*
X106181807Y-92557767D01*
X106162102Y-92543153D01*
X106143923Y-92526677D01*
X106127447Y-92508498D01*
X106112833Y-92488793D01*
X106100220Y-92467749D01*
X106089730Y-92445571D01*
X106081465Y-92422471D01*
X106075504Y-92398673D01*
X106071904Y-92374404D01*
X106070700Y-92349900D01*
X106070700Y-90199900D01*
X106071904Y-90175396D01*
X106075504Y-90151127D01*
X106081465Y-90127329D01*
X106089730Y-90104229D01*
X106100220Y-90082051D01*
X106112833Y-90061007D01*
X106127447Y-90041302D01*
X106143923Y-90023123D01*
X106162102Y-90006647D01*
X106181807Y-89992033D01*
X106202851Y-89979420D01*
X106225029Y-89968930D01*
X106248129Y-89960665D01*
X106271927Y-89954704D01*
X106296196Y-89951104D01*
X106320700Y-89949900D01*
X107070700Y-89949900D01*
X107095204Y-89951104D01*
X107095204Y-89951104D01*
G37*
D19*
X106695700Y-91274900D03*
D10*
G36*
X104295204Y-89951104D02*
X104319473Y-89954704D01*
X104343271Y-89960665D01*
X104366371Y-89968930D01*
X104388549Y-89979420D01*
X104409593Y-89992033D01*
X104429298Y-90006647D01*
X104447477Y-90023123D01*
X104463953Y-90041302D01*
X104478567Y-90061007D01*
X104491180Y-90082051D01*
X104501670Y-90104229D01*
X104509935Y-90127329D01*
X104515896Y-90151127D01*
X104519496Y-90175396D01*
X104520700Y-90199900D01*
X104520700Y-92349900D01*
X104519496Y-92374404D01*
X104515896Y-92398673D01*
X104509935Y-92422471D01*
X104501670Y-92445571D01*
X104491180Y-92467749D01*
X104478567Y-92488793D01*
X104463953Y-92508498D01*
X104447477Y-92526677D01*
X104429298Y-92543153D01*
X104409593Y-92557767D01*
X104388549Y-92570380D01*
X104366371Y-92580870D01*
X104343271Y-92589135D01*
X104319473Y-92595096D01*
X104295204Y-92598696D01*
X104270700Y-92599900D01*
X103520700Y-92599900D01*
X103496196Y-92598696D01*
X103471927Y-92595096D01*
X103448129Y-92589135D01*
X103425029Y-92580870D01*
X103402851Y-92570380D01*
X103381807Y-92557767D01*
X103362102Y-92543153D01*
X103343923Y-92526677D01*
X103327447Y-92508498D01*
X103312833Y-92488793D01*
X103300220Y-92467749D01*
X103289730Y-92445571D01*
X103281465Y-92422471D01*
X103275504Y-92398673D01*
X103271904Y-92374404D01*
X103270700Y-92349900D01*
X103270700Y-90199900D01*
X103271904Y-90175396D01*
X103275504Y-90151127D01*
X103281465Y-90127329D01*
X103289730Y-90104229D01*
X103300220Y-90082051D01*
X103312833Y-90061007D01*
X103327447Y-90041302D01*
X103343923Y-90023123D01*
X103362102Y-90006647D01*
X103381807Y-89992033D01*
X103402851Y-89979420D01*
X103425029Y-89968930D01*
X103448129Y-89960665D01*
X103471927Y-89954704D01*
X103496196Y-89951104D01*
X103520700Y-89949900D01*
X104270700Y-89949900D01*
X104295204Y-89951104D01*
X104295204Y-89951104D01*
G37*
D19*
X103895700Y-91274900D03*
G04 #@! TD*
D10*
G04 #@! TO.C,C8*
G36*
X141190191Y-84626053D02*
X141211426Y-84629203D01*
X141232250Y-84634419D01*
X141252462Y-84641651D01*
X141271868Y-84650830D01*
X141290281Y-84661866D01*
X141307524Y-84674654D01*
X141323430Y-84689070D01*
X141337846Y-84704976D01*
X141350634Y-84722219D01*
X141361670Y-84740632D01*
X141370849Y-84760038D01*
X141378081Y-84780250D01*
X141383297Y-84801074D01*
X141386447Y-84822309D01*
X141387500Y-84843750D01*
X141387500Y-85356250D01*
X141386447Y-85377691D01*
X141383297Y-85398926D01*
X141378081Y-85419750D01*
X141370849Y-85439962D01*
X141361670Y-85459368D01*
X141350634Y-85477781D01*
X141337846Y-85495024D01*
X141323430Y-85510930D01*
X141307524Y-85525346D01*
X141290281Y-85538134D01*
X141271868Y-85549170D01*
X141252462Y-85558349D01*
X141232250Y-85565581D01*
X141211426Y-85570797D01*
X141190191Y-85573947D01*
X141168750Y-85575000D01*
X140731250Y-85575000D01*
X140709809Y-85573947D01*
X140688574Y-85570797D01*
X140667750Y-85565581D01*
X140647538Y-85558349D01*
X140628132Y-85549170D01*
X140609719Y-85538134D01*
X140592476Y-85525346D01*
X140576570Y-85510930D01*
X140562154Y-85495024D01*
X140549366Y-85477781D01*
X140538330Y-85459368D01*
X140529151Y-85439962D01*
X140521919Y-85419750D01*
X140516703Y-85398926D01*
X140513553Y-85377691D01*
X140512500Y-85356250D01*
X140512500Y-84843750D01*
X140513553Y-84822309D01*
X140516703Y-84801074D01*
X140521919Y-84780250D01*
X140529151Y-84760038D01*
X140538330Y-84740632D01*
X140549366Y-84722219D01*
X140562154Y-84704976D01*
X140576570Y-84689070D01*
X140592476Y-84674654D01*
X140609719Y-84661866D01*
X140628132Y-84650830D01*
X140647538Y-84641651D01*
X140667750Y-84634419D01*
X140688574Y-84629203D01*
X140709809Y-84626053D01*
X140731250Y-84625000D01*
X141168750Y-84625000D01*
X141190191Y-84626053D01*
X141190191Y-84626053D01*
G37*
D14*
X140950000Y-85100000D03*
D10*
G36*
X142765191Y-84626053D02*
X142786426Y-84629203D01*
X142807250Y-84634419D01*
X142827462Y-84641651D01*
X142846868Y-84650830D01*
X142865281Y-84661866D01*
X142882524Y-84674654D01*
X142898430Y-84689070D01*
X142912846Y-84704976D01*
X142925634Y-84722219D01*
X142936670Y-84740632D01*
X142945849Y-84760038D01*
X142953081Y-84780250D01*
X142958297Y-84801074D01*
X142961447Y-84822309D01*
X142962500Y-84843750D01*
X142962500Y-85356250D01*
X142961447Y-85377691D01*
X142958297Y-85398926D01*
X142953081Y-85419750D01*
X142945849Y-85439962D01*
X142936670Y-85459368D01*
X142925634Y-85477781D01*
X142912846Y-85495024D01*
X142898430Y-85510930D01*
X142882524Y-85525346D01*
X142865281Y-85538134D01*
X142846868Y-85549170D01*
X142827462Y-85558349D01*
X142807250Y-85565581D01*
X142786426Y-85570797D01*
X142765191Y-85573947D01*
X142743750Y-85575000D01*
X142306250Y-85575000D01*
X142284809Y-85573947D01*
X142263574Y-85570797D01*
X142242750Y-85565581D01*
X142222538Y-85558349D01*
X142203132Y-85549170D01*
X142184719Y-85538134D01*
X142167476Y-85525346D01*
X142151570Y-85510930D01*
X142137154Y-85495024D01*
X142124366Y-85477781D01*
X142113330Y-85459368D01*
X142104151Y-85439962D01*
X142096919Y-85419750D01*
X142091703Y-85398926D01*
X142088553Y-85377691D01*
X142087500Y-85356250D01*
X142087500Y-84843750D01*
X142088553Y-84822309D01*
X142091703Y-84801074D01*
X142096919Y-84780250D01*
X142104151Y-84760038D01*
X142113330Y-84740632D01*
X142124366Y-84722219D01*
X142137154Y-84704976D01*
X142151570Y-84689070D01*
X142167476Y-84674654D01*
X142184719Y-84661866D01*
X142203132Y-84650830D01*
X142222538Y-84641651D01*
X142242750Y-84634419D01*
X142263574Y-84629203D01*
X142284809Y-84626053D01*
X142306250Y-84625000D01*
X142743750Y-84625000D01*
X142765191Y-84626053D01*
X142765191Y-84626053D01*
G37*
D14*
X142525000Y-85100000D03*
G04 #@! TD*
D20*
G04 #@! TO.C,U4*
X144605000Y-87550000D03*
X143335000Y-87550000D03*
X142065000Y-87550000D03*
X140795000Y-87550000D03*
X140795000Y-92950000D03*
X142065000Y-92950000D03*
X143335000Y-92950000D03*
X144605000Y-92950000D03*
D21*
X142112500Y-90837500D03*
X142112500Y-89662500D03*
X143287500Y-89662500D03*
X143287500Y-90837500D03*
G04 #@! TD*
D10*
G04 #@! TO.C,R3*
G36*
X106873871Y-74018573D02*
X106895106Y-74021723D01*
X106915930Y-74026939D01*
X106936142Y-74034171D01*
X106955548Y-74043350D01*
X106973961Y-74054386D01*
X106991204Y-74067174D01*
X107007110Y-74081590D01*
X107021526Y-74097496D01*
X107034314Y-74114739D01*
X107045350Y-74133152D01*
X107054529Y-74152558D01*
X107061761Y-74172770D01*
X107066977Y-74193594D01*
X107070127Y-74214829D01*
X107071180Y-74236270D01*
X107071180Y-74673770D01*
X107070127Y-74695211D01*
X107066977Y-74716446D01*
X107061761Y-74737270D01*
X107054529Y-74757482D01*
X107045350Y-74776888D01*
X107034314Y-74795301D01*
X107021526Y-74812544D01*
X107007110Y-74828450D01*
X106991204Y-74842866D01*
X106973961Y-74855654D01*
X106955548Y-74866690D01*
X106936142Y-74875869D01*
X106915930Y-74883101D01*
X106895106Y-74888317D01*
X106873871Y-74891467D01*
X106852430Y-74892520D01*
X106339930Y-74892520D01*
X106318489Y-74891467D01*
X106297254Y-74888317D01*
X106276430Y-74883101D01*
X106256218Y-74875869D01*
X106236812Y-74866690D01*
X106218399Y-74855654D01*
X106201156Y-74842866D01*
X106185250Y-74828450D01*
X106170834Y-74812544D01*
X106158046Y-74795301D01*
X106147010Y-74776888D01*
X106137831Y-74757482D01*
X106130599Y-74737270D01*
X106125383Y-74716446D01*
X106122233Y-74695211D01*
X106121180Y-74673770D01*
X106121180Y-74236270D01*
X106122233Y-74214829D01*
X106125383Y-74193594D01*
X106130599Y-74172770D01*
X106137831Y-74152558D01*
X106147010Y-74133152D01*
X106158046Y-74114739D01*
X106170834Y-74097496D01*
X106185250Y-74081590D01*
X106201156Y-74067174D01*
X106218399Y-74054386D01*
X106236812Y-74043350D01*
X106256218Y-74034171D01*
X106276430Y-74026939D01*
X106297254Y-74021723D01*
X106318489Y-74018573D01*
X106339930Y-74017520D01*
X106852430Y-74017520D01*
X106873871Y-74018573D01*
X106873871Y-74018573D01*
G37*
D14*
X106596180Y-74455020D03*
D10*
G36*
X106873871Y-75593573D02*
X106895106Y-75596723D01*
X106915930Y-75601939D01*
X106936142Y-75609171D01*
X106955548Y-75618350D01*
X106973961Y-75629386D01*
X106991204Y-75642174D01*
X107007110Y-75656590D01*
X107021526Y-75672496D01*
X107034314Y-75689739D01*
X107045350Y-75708152D01*
X107054529Y-75727558D01*
X107061761Y-75747770D01*
X107066977Y-75768594D01*
X107070127Y-75789829D01*
X107071180Y-75811270D01*
X107071180Y-76248770D01*
X107070127Y-76270211D01*
X107066977Y-76291446D01*
X107061761Y-76312270D01*
X107054529Y-76332482D01*
X107045350Y-76351888D01*
X107034314Y-76370301D01*
X107021526Y-76387544D01*
X107007110Y-76403450D01*
X106991204Y-76417866D01*
X106973961Y-76430654D01*
X106955548Y-76441690D01*
X106936142Y-76450869D01*
X106915930Y-76458101D01*
X106895106Y-76463317D01*
X106873871Y-76466467D01*
X106852430Y-76467520D01*
X106339930Y-76467520D01*
X106318489Y-76466467D01*
X106297254Y-76463317D01*
X106276430Y-76458101D01*
X106256218Y-76450869D01*
X106236812Y-76441690D01*
X106218399Y-76430654D01*
X106201156Y-76417866D01*
X106185250Y-76403450D01*
X106170834Y-76387544D01*
X106158046Y-76370301D01*
X106147010Y-76351888D01*
X106137831Y-76332482D01*
X106130599Y-76312270D01*
X106125383Y-76291446D01*
X106122233Y-76270211D01*
X106121180Y-76248770D01*
X106121180Y-75811270D01*
X106122233Y-75789829D01*
X106125383Y-75768594D01*
X106130599Y-75747770D01*
X106137831Y-75727558D01*
X106147010Y-75708152D01*
X106158046Y-75689739D01*
X106170834Y-75672496D01*
X106185250Y-75656590D01*
X106201156Y-75642174D01*
X106218399Y-75629386D01*
X106236812Y-75618350D01*
X106256218Y-75609171D01*
X106276430Y-75601939D01*
X106297254Y-75596723D01*
X106318489Y-75593573D01*
X106339930Y-75592520D01*
X106852430Y-75592520D01*
X106873871Y-75593573D01*
X106873871Y-75593573D01*
G37*
D14*
X106596180Y-76030020D03*
G04 #@! TD*
D22*
G04 #@! TO.C,J1*
X101125000Y-82850000D03*
X101125000Y-83650000D03*
X101125000Y-84450000D03*
X101125000Y-85250000D03*
X101125000Y-86050000D03*
D23*
X101025000Y-80000000D03*
X95575000Y-80000000D03*
X101025000Y-88900000D03*
X95575000Y-88900000D03*
G04 #@! TD*
M02*
