G04 #@! TF.GenerationSoftware,KiCad,Pcbnew,5.0.1-33cea8e~68~ubuntu14.04.1*
G04 #@! TF.CreationDate,2018-11-21T01:39:52-08:00*
G04 #@! TF.ProjectId,sram-addon,7372616D2D6164646F6E2E6B69636164,rev?*
G04 #@! TF.SameCoordinates,Original*
G04 #@! TF.FileFunction,Copper,L2,Bot,Signal*
G04 #@! TF.FilePolarity,Positive*
%FSLAX46Y46*%
G04 Gerber Fmt 4.6, Leading zero omitted, Abs format (unit mm)*
G04 Created by KiCad (PCBNEW 5.0.1-33cea8e~68~ubuntu14.04.1) date Wed 21 Nov 2018 01:39:52 AM PST*
%MOMM*%
%LPD*%
G01*
G04 APERTURE LIST*
G04 #@! TA.AperFunction,ComponentPad*
%ADD10R,1.700000X1.700000*%
G04 #@! TD*
G04 #@! TA.AperFunction,ComponentPad*
%ADD11O,1.700000X1.700000*%
G04 #@! TD*
G04 #@! TA.AperFunction,ViaPad*
%ADD12C,0.400000*%
G04 #@! TD*
G04 #@! TA.AperFunction,Conductor*
%ADD13C,0.127000*%
G04 #@! TD*
G04 APERTURE END LIST*
D10*
G04 #@! TO.P,J7,1*
G04 #@! TO.N,d15*
X109350000Y-78000000D03*
D11*
G04 #@! TO.P,J7,2*
G04 #@! TO.N,d16*
X109350000Y-80540000D03*
G04 #@! TO.P,J7,3*
X109350000Y-83080000D03*
G04 #@! TO.P,J7,4*
G04 #@! TO.N,a17*
X109350000Y-85620000D03*
G04 #@! TO.P,J7,5*
G04 #@! TO.N,a16*
X109350000Y-88160000D03*
G04 #@! TO.P,J7,6*
G04 #@! TO.N,a15*
X109350000Y-90700000D03*
G04 #@! TO.P,J7,7*
G04 #@! TO.N,a14*
X109350000Y-93240000D03*
G04 #@! TO.P,J7,8*
G04 #@! TO.N,a13*
X109350000Y-95780000D03*
G04 #@! TO.P,J7,9*
G04 #@! TO.N,a12*
X109350000Y-98320000D03*
G04 #@! TD*
D10*
G04 #@! TO.P,J12,1*
G04 #@! TO.N,d0*
X144860000Y-75200000D03*
D11*
G04 #@! TO.P,J12,2*
G04 #@! TO.N,d1*
X142320000Y-75200000D03*
G04 #@! TO.P,J12,3*
G04 #@! TO.N,d2*
X139780000Y-75200000D03*
G04 #@! TO.P,J12,4*
G04 #@! TO.N,d3*
X137240000Y-75200000D03*
G04 #@! TO.P,J12,5*
G04 #@! TO.N,d4*
X134700000Y-75200000D03*
G04 #@! TO.P,J12,6*
G04 #@! TO.N,d5*
X132160000Y-75200000D03*
G04 #@! TO.P,J12,7*
G04 #@! TO.N,d6*
X129620000Y-75200000D03*
G04 #@! TO.P,J12,8*
G04 #@! TO.N,d7*
X127080000Y-75200000D03*
G04 #@! TO.P,J12,9*
G04 #@! TO.N,d8*
X124540000Y-75200000D03*
G04 #@! TO.P,J12,10*
G04 #@! TO.N,d9*
X122000000Y-75200000D03*
G04 #@! TO.P,J12,11*
G04 #@! TO.N,d10*
X119460000Y-75200000D03*
G04 #@! TO.P,J12,12*
G04 #@! TO.N,d11*
X116920000Y-75200000D03*
G04 #@! TO.P,J12,13*
G04 #@! TO.N,d12*
X114380000Y-75200000D03*
G04 #@! TO.P,J12,14*
G04 #@! TO.N,d13*
X111840000Y-75200000D03*
G04 #@! TO.P,J12,15*
G04 #@! TO.N,d14*
X109300000Y-75200000D03*
G04 #@! TD*
D10*
G04 #@! TO.P,J10,1*
G04 #@! TO.N,a0*
X137290000Y-101100000D03*
D11*
G04 #@! TO.P,J10,2*
G04 #@! TO.N,a1*
X134750000Y-101100000D03*
G04 #@! TO.P,J10,3*
G04 #@! TO.N,a2*
X132210000Y-101100000D03*
G04 #@! TO.P,J10,4*
G04 #@! TO.N,a3*
X129670000Y-101100000D03*
G04 #@! TO.P,J10,5*
G04 #@! TO.N,a4*
X127130000Y-101100000D03*
G04 #@! TO.P,J10,6*
G04 #@! TO.N,a5*
X124590000Y-101100000D03*
G04 #@! TO.P,J10,7*
G04 #@! TO.N,a6*
X122050000Y-101100000D03*
G04 #@! TO.P,J10,8*
G04 #@! TO.N,a7*
X119510000Y-101100000D03*
G04 #@! TO.P,J10,9*
G04 #@! TO.N,a8*
X116970000Y-101100000D03*
G04 #@! TO.P,J10,10*
G04 #@! TO.N,a9*
X114430000Y-101100000D03*
G04 #@! TO.P,J10,11*
G04 #@! TO.N,a10*
X111890000Y-101100000D03*
G04 #@! TO.P,J10,12*
G04 #@! TO.N,a11*
X109350000Y-101100000D03*
G04 #@! TD*
D10*
G04 #@! TO.P,J1,1*
G04 #@! TO.N,CE2*
X113284000Y-88646000D03*
D11*
G04 #@! TO.P,J1,2*
G04 #@! TO.N,vccC*
X113284000Y-91186000D03*
G04 #@! TD*
D10*
G04 #@! TO.P,J2,1*
G04 #@! TO.N,vccC*
X112050000Y-98350000D03*
D11*
G04 #@! TO.P,J2,2*
G04 #@! TO.N,Net-(J2-Pad2)*
X114590000Y-98350000D03*
G04 #@! TO.P,J2,3*
G04 #@! TO.N,GND*
X117130000Y-98350000D03*
G04 #@! TO.P,J2,4*
G04 #@! TO.N,008.17*
X119670000Y-98350000D03*
G04 #@! TO.P,J2,5*
G04 #@! TO.N,008.5*
X122210000Y-98350000D03*
G04 #@! TO.P,J2,6*
G04 #@! TO.N,008.3*
X124750000Y-98350000D03*
G04 #@! TO.P,J2,7*
G04 #@! TO.N,008.1*
X127290000Y-98350000D03*
G04 #@! TD*
D12*
G04 #@! TO.N,GND*
X119067580Y-94208600D03*
X124689143Y-79206817D03*
X114556540Y-81440008D03*
G04 #@! TO.N,a17*
X121897140Y-82042002D03*
G04 #@! TO.N,a16*
X114112040Y-95089980D03*
X122072277Y-87622277D03*
G04 #@! TO.N,a15*
X125355820Y-87258442D03*
G04 #@! TO.N,a14*
X125367000Y-86474019D03*
G04 #@! TO.N,a13*
X121397039Y-86808083D03*
G04 #@! TO.N,a12*
X121599543Y-85964792D03*
G04 #@! TO.N,a11*
X122509280Y-88031320D03*
G04 #@! TO.N,a10*
X122387040Y-87199588D03*
G04 #@! TO.N,a7*
X123609643Y-91976483D03*
G04 #@! TO.N,a6*
X128018540Y-91358720D03*
G04 #@! TO.N,a5*
X131244340Y-88318340D03*
G04 #@! TO.N,a4*
X132046980Y-90309702D03*
G04 #@! TO.N,a3*
X132509260Y-88140540D03*
G04 #@! TO.N,d0*
X128546133Y-90192133D03*
G04 #@! TO.N,d1*
X127215900Y-90932000D03*
G04 #@! TO.N,d2*
X127625490Y-89836073D03*
G04 #@! TO.N,d3*
X126402803Y-90334803D03*
G04 #@! TO.N,d4*
X124968000Y-91186000D03*
G04 #@! TO.N,d5*
X124214596Y-91399238D03*
G04 #@! TO.N,d6*
X125385989Y-88687405D03*
G04 #@! TO.N,d7*
X124599023Y-88765798D03*
G04 #@! TO.N,d13*
X125375754Y-85680975D03*
X123804423Y-82697577D03*
G04 #@! TO.N,vss*
X120701000Y-94234000D03*
X125460217Y-89575097D03*
X118404640Y-87894158D03*
X123918881Y-80551617D03*
G04 #@! TO.N,CE2*
X122748040Y-94315280D03*
X116192895Y-94480380D03*
X123648555Y-81411500D03*
G04 #@! TD*
D13*
G04 #@! TO.N,GND*
X117130000Y-98350000D02*
X117130000Y-96146180D01*
X117130000Y-96146180D02*
X119067580Y-94208600D01*
X124689143Y-79206817D02*
X122455952Y-81440008D01*
X114839382Y-81440008D02*
X114556540Y-81440008D01*
X122455952Y-81440008D02*
X114839382Y-81440008D01*
G04 #@! TO.N,a17*
X121697141Y-82242001D02*
X121897140Y-82042002D01*
X118319142Y-85620000D02*
X121697141Y-82242001D01*
X109350000Y-85620000D02*
X118319142Y-85620000D01*
G04 #@! TO.N,a16*
X114604574Y-95089980D02*
X121872278Y-87822276D01*
X121872278Y-87822276D02*
X122072277Y-87622277D01*
X114112040Y-95089980D02*
X114604574Y-95089980D01*
G04 #@! TO.N,a15*
X125555819Y-87058443D02*
X125355820Y-87258442D01*
X109350000Y-90700000D02*
X110199999Y-89850001D01*
X125778260Y-86288880D02*
X125778260Y-86836002D01*
X110199999Y-89850001D02*
X117637428Y-89850001D01*
X117637428Y-89850001D02*
X120507771Y-86979658D01*
X120507771Y-86979658D02*
X120507771Y-86029880D01*
X120507771Y-86029880D02*
X121239371Y-85298280D01*
X125778260Y-86836002D02*
X125555819Y-87058443D01*
X121239371Y-85298280D02*
X124390849Y-85298280D01*
X124390849Y-85298280D02*
X125171806Y-86079237D01*
X125568617Y-86079237D02*
X125778260Y-86288880D01*
X125171806Y-86079237D02*
X125568617Y-86079237D01*
G04 #@! TO.N,a14*
X125084158Y-86474019D02*
X125367000Y-86474019D01*
X120807480Y-87039174D02*
X120807480Y-86178911D01*
X120807480Y-86178911D02*
X121412101Y-85574290D01*
X124184429Y-85574290D02*
X125084158Y-86474019D01*
X109350000Y-93240000D02*
X114606654Y-93240000D01*
X114606654Y-93240000D02*
X120807480Y-87039174D01*
X121412101Y-85574290D02*
X124184429Y-85574290D01*
G04 #@! TO.N,a13*
X109350000Y-95780000D02*
X111070623Y-94059377D01*
X114179007Y-94059377D02*
X121197040Y-87041344D01*
X121197040Y-87041344D02*
X121197040Y-87008082D01*
X111070623Y-94059377D02*
X114179007Y-94059377D01*
X121197040Y-87008082D02*
X121397039Y-86808083D01*
G04 #@! TO.N,a12*
X114443999Y-94313388D02*
X121799542Y-86957845D01*
X121799542Y-86957845D02*
X121799542Y-86164791D01*
X113356612Y-94313388D02*
X114443999Y-94313388D01*
X109350000Y-98320000D02*
X113356612Y-94313388D01*
X121799542Y-86164791D02*
X121599543Y-85964792D01*
G04 #@! TO.N,a11*
X122109598Y-88011000D02*
X122488960Y-88011000D01*
X109350000Y-101100000D02*
X110647560Y-102397560D01*
X110647560Y-102397560D02*
X112501680Y-102397560D01*
X122488960Y-88011000D02*
X122509280Y-88031320D01*
X113129060Y-96991538D02*
X122109598Y-88011000D01*
X112501680Y-102397560D02*
X113129060Y-101770180D01*
X113129060Y-101770180D02*
X113129060Y-96991538D01*
G04 #@! TO.N,a10*
X110548420Y-99758420D02*
X110548420Y-97578678D01*
X111890000Y-101100000D02*
X110548420Y-99758420D01*
X113559699Y-94567399D02*
X114549213Y-94567399D01*
X114549213Y-94567399D02*
X121917024Y-87199588D01*
X110548420Y-97578678D02*
X113559699Y-94567399D01*
X121917024Y-87199588D02*
X122104198Y-87199588D01*
X122104198Y-87199588D02*
X122387040Y-87199588D01*
G04 #@! TO.N,a7*
X123609643Y-92259325D02*
X123609643Y-91976483D01*
X123609643Y-94576357D02*
X123609643Y-92259325D01*
X120835420Y-97350580D02*
X123609643Y-94576357D01*
X120835420Y-99774580D02*
X120835420Y-97350580D01*
X119510000Y-101100000D02*
X120835420Y-99774580D01*
G04 #@! TO.N,a6*
X127818541Y-91558719D02*
X128018540Y-91358720D01*
X123319540Y-96057720D02*
X127818541Y-91558719D01*
X123319540Y-99830460D02*
X123319540Y-96057720D01*
X122050000Y-101100000D02*
X123319540Y-99830460D01*
G04 #@! TO.N,a5*
X131244340Y-88601182D02*
X131244340Y-88318340D01*
X131244340Y-96255660D02*
X131244340Y-88601182D01*
X127750000Y-99750000D02*
X131244340Y-96255660D01*
X125940000Y-99750000D02*
X127750000Y-99750000D01*
X124590000Y-101100000D02*
X125940000Y-99750000D01*
G04 #@! TO.N,a4*
X132046980Y-96183020D02*
X132046980Y-90592544D01*
X132046980Y-90592544D02*
X132046980Y-90309702D01*
X127130000Y-101100000D02*
X132046980Y-96183020D01*
G04 #@! TO.N,a3*
X132509260Y-98260740D02*
X132509260Y-88423382D01*
X129670000Y-101100000D02*
X132509260Y-98260740D01*
X132509260Y-88423382D02*
X132509260Y-88140540D01*
G04 #@! TO.N,d0*
X128546133Y-90173267D02*
X141432280Y-77287120D01*
X141432280Y-77287120D02*
X141795880Y-77287120D01*
X144847820Y-75200000D02*
X144860000Y-75200000D01*
X141795880Y-77287120D02*
X141798420Y-77289660D01*
X141798420Y-77289660D02*
X142758160Y-77289660D01*
X142758160Y-77289660D02*
X144847820Y-75200000D01*
X128546133Y-90192133D02*
X128546133Y-90173267D01*
G04 #@! TO.N,d1*
X141470001Y-76049999D02*
X141470001Y-76677899D01*
X142320000Y-75200000D02*
X141470001Y-76049999D01*
X141470001Y-76677899D02*
X127215900Y-90932000D01*
G04 #@! TO.N,d2*
X127825489Y-89636074D02*
X127625490Y-89836073D01*
X139780000Y-75200000D02*
X139780000Y-77681563D01*
X139780000Y-77681563D02*
X127825489Y-89636074D01*
G04 #@! TO.N,d3*
X137240000Y-75200000D02*
X137240000Y-79497606D01*
X137240000Y-79497606D02*
X126602802Y-90134804D01*
X126602802Y-90134804D02*
X126402803Y-90334803D01*
G04 #@! TO.N,d4*
X134700000Y-81485340D02*
X124999340Y-91186000D01*
X124999340Y-91186000D02*
X124968000Y-91186000D01*
X134700000Y-75200000D02*
X134700000Y-81485340D01*
G04 #@! TO.N,d5*
X124414595Y-91183143D02*
X124414595Y-91199239D01*
X132160000Y-83437738D02*
X124414595Y-91183143D01*
X124414595Y-91199239D02*
X124214596Y-91399238D01*
X132160000Y-75200000D02*
X132160000Y-83437738D01*
G04 #@! TO.N,d6*
X129620000Y-84453394D02*
X125585988Y-88487406D01*
X125585988Y-88487406D02*
X125385989Y-88687405D01*
X129620000Y-75200000D02*
X129620000Y-84453394D01*
G04 #@! TO.N,d7*
X127080000Y-75200000D02*
X127076200Y-75203800D01*
X127076200Y-75203800D02*
X127076200Y-86288621D01*
X127076200Y-86288621D02*
X124799022Y-88565799D01*
X124799022Y-88565799D02*
X124599023Y-88765798D01*
G04 #@! TO.N,d13*
X124004422Y-82897576D02*
X123804423Y-82697577D01*
X125375754Y-84268908D02*
X124004422Y-82897576D01*
X125375754Y-85680975D02*
X125375754Y-84268908D01*
G04 #@! TO.N,vss*
X120701000Y-94234000D02*
X120701000Y-94234000D01*
X120799860Y-94234000D02*
X125458763Y-89575097D01*
X125458763Y-89575097D02*
X125460217Y-89575097D01*
X120701000Y-94234000D02*
X120799860Y-94234000D01*
X123918881Y-80573773D02*
X123918881Y-80551617D01*
X118404640Y-86088014D02*
X123918881Y-80573773D01*
X118404640Y-87894158D02*
X118404640Y-86088014D01*
G04 #@! TO.N,CE2*
X122748040Y-94315280D02*
X121818400Y-95244920D01*
X120393460Y-95244920D02*
X119880380Y-94731840D01*
X121818400Y-95244920D02*
X120393460Y-95244920D01*
X119468900Y-93355160D02*
X117318115Y-93355160D01*
X117318115Y-93355160D02*
X116392894Y-94280381D01*
X116392894Y-94280381D02*
X116192895Y-94480380D01*
X119880380Y-94731840D02*
X119880380Y-93766640D01*
X119880380Y-93766640D02*
X119468900Y-93355160D01*
X120253760Y-84806295D02*
X123448556Y-81611499D01*
X120253760Y-86874444D02*
X120253760Y-84806295D01*
X123448556Y-81611499D02*
X123648555Y-81411500D01*
X118482204Y-88646000D02*
X120253760Y-86874444D01*
X113284000Y-88646000D02*
X118482204Y-88646000D01*
G04 #@! TD*
M02*
