G04 #@! TF.GenerationSoftware,KiCad,Pcbnew,5.0.2-bee76a0~70~ubuntu14.04.1*
G04 #@! TF.CreationDate,2018-12-07T19:13:15-07:00*
G04 #@! TF.ProjectId,sram-addon,7372616d-2d61-4646-946f-6e2e6b696361,rev?*
G04 #@! TF.SameCoordinates,Original*
G04 #@! TF.FileFunction,Legend,Top*
G04 #@! TF.FilePolarity,Positive*
%FSLAX46Y46*%
G04 Gerber Fmt 4.6, Leading zero omitted, Abs format (unit mm)*
G04 Created by KiCad (PCBNEW 5.0.2-bee76a0~70~ubuntu14.04.1) date Fri 07 Dec 2018 07:13:15 PM MST*
%MOMM*%
%LPD*%
G01*
G04 APERTURE LIST*
%ADD10C,0.180000*%
%ADD11C,0.150000*%
%ADD12C,0.300000*%
%ADD13C,0.200000*%
%ADD14C,0.120000*%
G04 APERTURE END LIST*
D10*
X143022099Y-94152574D02*
X142445908Y-94152574D01*
X142341146Y-94204955D01*
X142288765Y-94309717D01*
X142288765Y-94519240D01*
X142341146Y-94624002D01*
X142969718Y-94152574D02*
X143022099Y-94257336D01*
X143022099Y-94519240D01*
X142969718Y-94624002D01*
X142864956Y-94676383D01*
X142760194Y-94676383D01*
X142655432Y-94624002D01*
X142603051Y-94519240D01*
X142603051Y-94257336D01*
X142550670Y-94152574D01*
X143022099Y-93157336D02*
X141922099Y-93157336D01*
X142969718Y-93157336D02*
X143022099Y-93262098D01*
X143022099Y-93471621D01*
X142969718Y-93576383D01*
X142917337Y-93628764D01*
X142812575Y-93681145D01*
X142498289Y-93681145D01*
X142393527Y-93628764D01*
X142341146Y-93576383D01*
X142288765Y-93471621D01*
X142288765Y-93262098D01*
X142341146Y-93157336D01*
X143022099Y-92162098D02*
X141922099Y-92162098D01*
X142969718Y-92162098D02*
X143022099Y-92266860D01*
X143022099Y-92476383D01*
X142969718Y-92581145D01*
X142917337Y-92633526D01*
X142812575Y-92685907D01*
X142498289Y-92685907D01*
X142393527Y-92633526D01*
X142341146Y-92581145D01*
X142288765Y-92476383D01*
X142288765Y-92266860D01*
X142341146Y-92162098D01*
X142603051Y-91638288D02*
X142603051Y-90800193D01*
X143022099Y-90119240D02*
X142969718Y-90224002D01*
X142917337Y-90276383D01*
X142812575Y-90328764D01*
X142498289Y-90328764D01*
X142393527Y-90276383D01*
X142341146Y-90224002D01*
X142288765Y-90119240D01*
X142288765Y-89962098D01*
X142341146Y-89857336D01*
X142393527Y-89804955D01*
X142498289Y-89752574D01*
X142812575Y-89752574D01*
X142917337Y-89804955D01*
X142969718Y-89857336D01*
X143022099Y-89962098D01*
X143022099Y-90119240D01*
X142288765Y-89281145D02*
X143022099Y-89281145D01*
X142393527Y-89281145D02*
X142341146Y-89228764D01*
X142288765Y-89124002D01*
X142288765Y-88966860D01*
X142341146Y-88862098D01*
X142445908Y-88809717D01*
X143022099Y-88809717D01*
D11*
X144552691Y-101126150D02*
X145200310Y-101126150D01*
X145276500Y-101164245D01*
X145314596Y-101202340D01*
X145352691Y-101278531D01*
X145352691Y-101392817D01*
X145314596Y-101469007D01*
X145047929Y-101126150D02*
X145086024Y-101202340D01*
X145086024Y-101354721D01*
X145047929Y-101430912D01*
X145009834Y-101469007D01*
X144933643Y-101507102D01*
X144705072Y-101507102D01*
X144628881Y-101469007D01*
X144590786Y-101430912D01*
X144552691Y-101354721D01*
X144552691Y-101202340D01*
X144590786Y-101126150D01*
X145086024Y-100745198D02*
X144552691Y-100745198D01*
X144286024Y-100745198D02*
X144324120Y-100783293D01*
X144362215Y-100745198D01*
X144324120Y-100707102D01*
X144286024Y-100745198D01*
X144362215Y-100745198D01*
X144552691Y-100478531D02*
X144552691Y-100173769D01*
X144286024Y-100364245D02*
X144971739Y-100364245D01*
X145047929Y-100326150D01*
X145086024Y-100249960D01*
X145086024Y-100173769D01*
X145086024Y-99907102D02*
X144286024Y-99907102D01*
X145086024Y-99564245D02*
X144666977Y-99564245D01*
X144590786Y-99602340D01*
X144552691Y-99678531D01*
X144552691Y-99792817D01*
X144590786Y-99869007D01*
X144628881Y-99907102D01*
X144552691Y-98840436D02*
X145086024Y-98840436D01*
X144552691Y-99183293D02*
X144971739Y-99183293D01*
X145047929Y-99145198D01*
X145086024Y-99069007D01*
X145086024Y-98954721D01*
X145047929Y-98878531D01*
X145009834Y-98840436D01*
X145086024Y-98459483D02*
X144286024Y-98459483D01*
X144590786Y-98459483D02*
X144552691Y-98383293D01*
X144552691Y-98230912D01*
X144590786Y-98154721D01*
X144628881Y-98116626D01*
X144705072Y-98078531D01*
X144933643Y-98078531D01*
X145009834Y-98116626D01*
X145047929Y-98154721D01*
X145086024Y-98230912D01*
X145086024Y-98383293D01*
X145047929Y-98459483D01*
X145009834Y-97735674D02*
X145047929Y-97697579D01*
X145086024Y-97735674D01*
X145047929Y-97773769D01*
X145009834Y-97735674D01*
X145086024Y-97735674D01*
X145047929Y-97011864D02*
X145086024Y-97088055D01*
X145086024Y-97240436D01*
X145047929Y-97316626D01*
X145009834Y-97354721D01*
X144933643Y-97392817D01*
X144705072Y-97392817D01*
X144628881Y-97354721D01*
X144590786Y-97316626D01*
X144552691Y-97240436D01*
X144552691Y-97088055D01*
X144590786Y-97011864D01*
X145086024Y-96554721D02*
X145047929Y-96630912D01*
X145009834Y-96669007D01*
X144933643Y-96707102D01*
X144705072Y-96707102D01*
X144628881Y-96669007D01*
X144590786Y-96630912D01*
X144552691Y-96554721D01*
X144552691Y-96440436D01*
X144590786Y-96364245D01*
X144628881Y-96326150D01*
X144705072Y-96288055D01*
X144933643Y-96288055D01*
X145009834Y-96326150D01*
X145047929Y-96364245D01*
X145086024Y-96440436D01*
X145086024Y-96554721D01*
X145086024Y-95945198D02*
X144552691Y-95945198D01*
X144628881Y-95945198D02*
X144590786Y-95907102D01*
X144552691Y-95830912D01*
X144552691Y-95716626D01*
X144590786Y-95640436D01*
X144666977Y-95602340D01*
X145086024Y-95602340D01*
X144666977Y-95602340D02*
X144590786Y-95564245D01*
X144552691Y-95488055D01*
X144552691Y-95373769D01*
X144590786Y-95297579D01*
X144666977Y-95259483D01*
X145086024Y-95259483D01*
X144247929Y-94307102D02*
X145276500Y-94992817D01*
X145086024Y-94040436D02*
X144552691Y-94040436D01*
X144628881Y-94040436D02*
X144590786Y-94002340D01*
X144552691Y-93926150D01*
X144552691Y-93811864D01*
X144590786Y-93735674D01*
X144666977Y-93697579D01*
X145086024Y-93697579D01*
X144666977Y-93697579D02*
X144590786Y-93659483D01*
X144552691Y-93583293D01*
X144552691Y-93469007D01*
X144590786Y-93392817D01*
X144666977Y-93354721D01*
X145086024Y-93354721D01*
X145047929Y-93011864D02*
X145086024Y-92935674D01*
X145086024Y-92783293D01*
X145047929Y-92707102D01*
X144971739Y-92669007D01*
X144933643Y-92669007D01*
X144857453Y-92707102D01*
X144819358Y-92783293D01*
X144819358Y-92897579D01*
X144781262Y-92973769D01*
X144705072Y-93011864D01*
X144666977Y-93011864D01*
X144590786Y-92973769D01*
X144552691Y-92897579D01*
X144552691Y-92783293D01*
X144590786Y-92707102D01*
X145047929Y-91983293D02*
X145086024Y-92059483D01*
X145086024Y-92211864D01*
X145047929Y-92288055D01*
X145009834Y-92326150D01*
X144933643Y-92364245D01*
X144705072Y-92364245D01*
X144628881Y-92326150D01*
X144590786Y-92288055D01*
X144552691Y-92211864D01*
X144552691Y-92059483D01*
X144590786Y-91983293D01*
X145086024Y-91640436D02*
X144286024Y-91640436D01*
X145086024Y-91297579D02*
X144666977Y-91297579D01*
X144590786Y-91335674D01*
X144552691Y-91411864D01*
X144552691Y-91526150D01*
X144590786Y-91602340D01*
X144628881Y-91640436D01*
X144552691Y-90573769D02*
X145086024Y-90573769D01*
X144552691Y-90916626D02*
X144971739Y-90916626D01*
X145047929Y-90878531D01*
X145086024Y-90802340D01*
X145086024Y-90688055D01*
X145047929Y-90611864D01*
X145009834Y-90573769D01*
X145086024Y-90078531D02*
X145047929Y-90154721D01*
X144971739Y-90192817D01*
X144286024Y-90192817D01*
X145086024Y-89430912D02*
X144286024Y-89430912D01*
X145047929Y-89430912D02*
X145086024Y-89507102D01*
X145086024Y-89659483D01*
X145047929Y-89735674D01*
X145009834Y-89773769D01*
X144933643Y-89811864D01*
X144705072Y-89811864D01*
X144628881Y-89773769D01*
X144590786Y-89735674D01*
X144552691Y-89659483D01*
X144552691Y-89507102D01*
X144590786Y-89430912D01*
X144552691Y-89164245D02*
X144552691Y-88859483D01*
X144286024Y-89049960D02*
X144971739Y-89049960D01*
X145047929Y-89011864D01*
X145086024Y-88935674D01*
X145086024Y-88859483D01*
X144247929Y-88021388D02*
X145276500Y-88707102D01*
X144552691Y-87411864D02*
X145200310Y-87411864D01*
X145276500Y-87449960D01*
X145314596Y-87488055D01*
X145352691Y-87564245D01*
X145352691Y-87678531D01*
X145314596Y-87754721D01*
X145047929Y-87411864D02*
X145086024Y-87488055D01*
X145086024Y-87640436D01*
X145047929Y-87716626D01*
X145009834Y-87754721D01*
X144933643Y-87792817D01*
X144705072Y-87792817D01*
X144628881Y-87754721D01*
X144590786Y-87716626D01*
X144552691Y-87640436D01*
X144552691Y-87488055D01*
X144590786Y-87411864D01*
X145086024Y-86688055D02*
X144666977Y-86688055D01*
X144590786Y-86726150D01*
X144552691Y-86802340D01*
X144552691Y-86954721D01*
X144590786Y-87030912D01*
X145047929Y-86688055D02*
X145086024Y-86764245D01*
X145086024Y-86954721D01*
X145047929Y-87030912D01*
X144971739Y-87069007D01*
X144895548Y-87069007D01*
X144819358Y-87030912D01*
X144781262Y-86954721D01*
X144781262Y-86764245D01*
X144743167Y-86688055D01*
X145086024Y-85888055D02*
X145086024Y-86345198D01*
X145086024Y-86116626D02*
X144286024Y-86116626D01*
X144400310Y-86192817D01*
X144476500Y-86269007D01*
X144514596Y-86345198D01*
X144552691Y-85202340D02*
X145086024Y-85202340D01*
X144247929Y-85392817D02*
X144819358Y-85583293D01*
X144819358Y-85088055D01*
X144552691Y-84440436D02*
X145086024Y-84440436D01*
X144247929Y-84630912D02*
X144819358Y-84821388D01*
X144819358Y-84326150D01*
X144781262Y-84021388D02*
X144781262Y-83411864D01*
X145086024Y-83030912D02*
X144286024Y-83030912D01*
X144590786Y-83030912D02*
X144552691Y-82954721D01*
X144552691Y-82802340D01*
X144590786Y-82726150D01*
X144628881Y-82688055D01*
X144705072Y-82649960D01*
X144933643Y-82649960D01*
X145009834Y-82688055D01*
X145047929Y-82726150D01*
X145086024Y-82802340D01*
X145086024Y-82954721D01*
X145047929Y-83030912D01*
X145086024Y-82307102D02*
X144552691Y-82307102D01*
X144705072Y-82307102D02*
X144628881Y-82269007D01*
X144590786Y-82230912D01*
X144552691Y-82154721D01*
X144552691Y-82078531D01*
X145047929Y-81507102D02*
X145086024Y-81583293D01*
X145086024Y-81735674D01*
X145047929Y-81811864D01*
X144971739Y-81849960D01*
X144666977Y-81849960D01*
X144590786Y-81811864D01*
X144552691Y-81735674D01*
X144552691Y-81583293D01*
X144590786Y-81507102D01*
X144666977Y-81469007D01*
X144743167Y-81469007D01*
X144819358Y-81849960D01*
X145086024Y-80783293D02*
X144666977Y-80783293D01*
X144590786Y-80821388D01*
X144552691Y-80897579D01*
X144552691Y-81049960D01*
X144590786Y-81126150D01*
X145047929Y-80783293D02*
X145086024Y-80859483D01*
X145086024Y-81049960D01*
X145047929Y-81126150D01*
X144971739Y-81164245D01*
X144895548Y-81164245D01*
X144819358Y-81126150D01*
X144781262Y-81049960D01*
X144781262Y-80859483D01*
X144743167Y-80783293D01*
X145086024Y-80402340D02*
X144286024Y-80402340D01*
X144781262Y-80326150D02*
X145086024Y-80097579D01*
X144552691Y-80097579D02*
X144857453Y-80402340D01*
X145086024Y-79640436D02*
X145047929Y-79716626D01*
X145009834Y-79754721D01*
X144933643Y-79792817D01*
X144705072Y-79792817D01*
X144628881Y-79754721D01*
X144590786Y-79716626D01*
X144552691Y-79640436D01*
X144552691Y-79526150D01*
X144590786Y-79449960D01*
X144628881Y-79411864D01*
X144705072Y-79373769D01*
X144933643Y-79373769D01*
X145009834Y-79411864D01*
X145047929Y-79449960D01*
X145086024Y-79526150D01*
X145086024Y-79640436D01*
X144552691Y-78688055D02*
X145086024Y-78688055D01*
X144552691Y-79030912D02*
X144971739Y-79030912D01*
X145047929Y-78992817D01*
X145086024Y-78916626D01*
X145086024Y-78802340D01*
X145047929Y-78726150D01*
X145009834Y-78688055D01*
X144552691Y-78421388D02*
X144552691Y-78116626D01*
X144286024Y-78307102D02*
X144971739Y-78307102D01*
X145047929Y-78269007D01*
X145086024Y-78192817D01*
X145086024Y-78116626D01*
D12*
X142885242Y-101347411D02*
X142956671Y-101133125D01*
X142956671Y-100775982D01*
X142885242Y-100633125D01*
X142813814Y-100561697D01*
X142670957Y-100490268D01*
X142528100Y-100490268D01*
X142385242Y-100561697D01*
X142313814Y-100633125D01*
X142242385Y-100775982D01*
X142170957Y-101061697D01*
X142099528Y-101204554D01*
X142028100Y-101275982D01*
X141885242Y-101347411D01*
X141742385Y-101347411D01*
X141599528Y-101275982D01*
X141528100Y-101204554D01*
X141456671Y-101061697D01*
X141456671Y-100704554D01*
X141528100Y-100490268D01*
X142956671Y-98990268D02*
X142242385Y-99490268D01*
X142956671Y-99847411D02*
X141456671Y-99847411D01*
X141456671Y-99275982D01*
X141528100Y-99133125D01*
X141599528Y-99061697D01*
X141742385Y-98990268D01*
X141956671Y-98990268D01*
X142099528Y-99061697D01*
X142170957Y-99133125D01*
X142242385Y-99275982D01*
X142242385Y-99847411D01*
X142528100Y-98418840D02*
X142528100Y-97704554D01*
X142956671Y-98561697D02*
X141456671Y-98061697D01*
X142956671Y-97561697D01*
X142956671Y-97061697D02*
X141456671Y-97061697D01*
X142528100Y-96561697D01*
X141456671Y-96061697D01*
X142956671Y-96061697D01*
X116896271Y-92091260D02*
X115396271Y-92091260D01*
X115396271Y-91519831D01*
X115467700Y-91376974D01*
X115539128Y-91305545D01*
X115681985Y-91234117D01*
X115896271Y-91234117D01*
X116039128Y-91305545D01*
X116110557Y-91376974D01*
X116181985Y-91519831D01*
X116181985Y-92091260D01*
X115396271Y-90734117D02*
X116896271Y-90376974D01*
X115824842Y-90091260D01*
X116896271Y-89805545D01*
X115396271Y-89448402D01*
X116896271Y-88019831D02*
X116181985Y-88519831D01*
X116896271Y-88876974D02*
X115396271Y-88876974D01*
X115396271Y-88305545D01*
X115467700Y-88162688D01*
X115539128Y-88091260D01*
X115681985Y-88019831D01*
X115896271Y-88019831D01*
X116039128Y-88091260D01*
X116110557Y-88162688D01*
X116181985Y-88305545D01*
X116181985Y-88876974D01*
D11*
X143151314Y-75287166D02*
X143627504Y-75287166D01*
X143056076Y-75572880D02*
X143389409Y-74572880D01*
X143722742Y-75572880D01*
X144246552Y-74572880D02*
X144341790Y-74572880D01*
X144437028Y-74620500D01*
X144484647Y-74668119D01*
X144532266Y-74763357D01*
X144579885Y-74953833D01*
X144579885Y-75191928D01*
X144532266Y-75382404D01*
X144484647Y-75477642D01*
X144437028Y-75525261D01*
X144341790Y-75572880D01*
X144246552Y-75572880D01*
X144151314Y-75525261D01*
X144103695Y-75477642D01*
X144056076Y-75382404D01*
X144008457Y-75191928D01*
X144008457Y-74953833D01*
X144056076Y-74763357D01*
X144103695Y-74668119D01*
X144151314Y-74620500D01*
X144246552Y-74572880D01*
G04 #@! TO.C,U1*
X130642000Y-88518000D02*
X130642000Y-90018000D01*
X130642000Y-90018000D02*
X128642000Y-90018000D01*
X130642000Y-88518000D02*
X130642000Y-90018000D01*
X130642000Y-90018000D02*
X128642000Y-90018000D01*
X122342000Y-88518000D02*
X122342000Y-90018000D01*
X122342000Y-90018000D02*
X124342000Y-90018000D01*
X130642000Y-88518000D02*
X130642000Y-90018000D01*
X130642000Y-90018000D02*
X128642000Y-90018000D01*
X122342000Y-85218000D02*
X122342000Y-83718000D01*
X122342000Y-83718000D02*
X124342000Y-83718000D01*
X130642000Y-85218000D02*
X130642000Y-84868000D01*
X130642000Y-84868000D02*
X129492000Y-83718000D01*
X129492000Y-83718000D02*
X128642000Y-83718000D01*
D13*
X130592000Y-83868000D02*
G75*
G03X130592000Y-83868000I-100000J0D01*
G01*
D14*
G04 #@! TO.C,J7*
X108020000Y-99650000D02*
X110680000Y-99650000D01*
X108020000Y-79270000D02*
X108020000Y-99650000D01*
X110680000Y-79270000D02*
X110680000Y-99650000D01*
X108020000Y-79270000D02*
X110680000Y-79270000D01*
X108020000Y-78000000D02*
X108020000Y-76670000D01*
X108020000Y-76670000D02*
X109350000Y-76670000D01*
G04 #@! TO.C,J12*
X107970000Y-73870000D02*
X107970000Y-76530000D01*
X143590000Y-73870000D02*
X107970000Y-73870000D01*
X143590000Y-76530000D02*
X107970000Y-76530000D01*
X143590000Y-73870000D02*
X143590000Y-76530000D01*
X144860000Y-73870000D02*
X146190000Y-73870000D01*
X146190000Y-73870000D02*
X146190000Y-75200000D01*
G04 #@! TO.C,J10*
X108020000Y-99770000D02*
X108020000Y-102430000D01*
X136020000Y-99770000D02*
X108020000Y-99770000D01*
X136020000Y-102430000D02*
X108020000Y-102430000D01*
X136020000Y-99770000D02*
X136020000Y-102430000D01*
X137290000Y-99770000D02*
X138620000Y-99770000D01*
X138620000Y-99770000D02*
X138620000Y-101100000D01*
G04 #@! TO.C,C1*
X119750721Y-93724000D02*
X120076279Y-93724000D01*
X119750721Y-94744000D02*
X120076279Y-94744000D01*
G04 #@! TO.C,R1*
X127434459Y-94744000D02*
X127108901Y-94744000D01*
X127434459Y-93724000D02*
X127108901Y-93724000D01*
G04 #@! TO.C,R2*
X123720979Y-93721460D02*
X123395421Y-93721460D01*
X123720979Y-94741460D02*
X123395421Y-94741460D01*
G04 #@! TO.C,R3*
X113931819Y-81950020D02*
X113606261Y-81950020D01*
X113931819Y-80930020D02*
X113606261Y-80930020D01*
G04 #@! TO.C,J1*
X111954000Y-92516000D02*
X114614000Y-92516000D01*
X111954000Y-89916000D02*
X111954000Y-92516000D01*
X114614000Y-89916000D02*
X114614000Y-92516000D01*
X111954000Y-89916000D02*
X114614000Y-89916000D01*
X111954000Y-88646000D02*
X111954000Y-87316000D01*
X111954000Y-87316000D02*
X113284000Y-87316000D01*
G04 #@! TO.C,J2*
X128620000Y-99680000D02*
X128620000Y-97020000D01*
X113320000Y-99680000D02*
X128620000Y-99680000D01*
X113320000Y-97020000D02*
X128620000Y-97020000D01*
X113320000Y-99680000D02*
X113320000Y-97020000D01*
X112050000Y-99680000D02*
X110720000Y-99680000D01*
X110720000Y-99680000D02*
X110720000Y-98350000D01*
G04 #@! TO.C,U1*
D11*
X122796395Y-88288880D02*
X122796395Y-89098404D01*
X122844014Y-89193642D01*
X122891633Y-89241261D01*
X122986871Y-89288880D01*
X123177347Y-89288880D01*
X123272585Y-89241261D01*
X123320204Y-89193642D01*
X123367823Y-89098404D01*
X123367823Y-88288880D01*
X124367823Y-89288880D02*
X123796395Y-89288880D01*
X124082109Y-89288880D02*
X124082109Y-88288880D01*
X123986871Y-88431738D01*
X123891633Y-88526976D01*
X123796395Y-88574595D01*
X122110406Y-91378042D02*
X122062787Y-91425661D01*
X121919930Y-91473280D01*
X121824692Y-91473280D01*
X121681835Y-91425661D01*
X121586597Y-91330423D01*
X121538978Y-91235185D01*
X121491359Y-91044709D01*
X121491359Y-90901852D01*
X121538978Y-90711376D01*
X121586597Y-90616138D01*
X121681835Y-90520900D01*
X121824692Y-90473280D01*
X121919930Y-90473280D01*
X122062787Y-90520900D01*
X122110406Y-90568519D01*
X122729454Y-90997090D02*
X122729454Y-91473280D01*
X122396120Y-90473280D02*
X122729454Y-90997090D01*
X123062787Y-90473280D01*
X123824692Y-90473280D02*
X123634216Y-90473280D01*
X123538978Y-90520900D01*
X123491359Y-90568519D01*
X123396120Y-90711376D01*
X123348501Y-90901852D01*
X123348501Y-91282804D01*
X123396120Y-91378042D01*
X123443740Y-91425661D01*
X123538978Y-91473280D01*
X123729454Y-91473280D01*
X123824692Y-91425661D01*
X123872311Y-91378042D01*
X123919930Y-91282804D01*
X123919930Y-91044709D01*
X123872311Y-90949471D01*
X123824692Y-90901852D01*
X123729454Y-90854233D01*
X123538978Y-90854233D01*
X123443740Y-90901852D01*
X123396120Y-90949471D01*
X123348501Y-91044709D01*
X124300882Y-90568519D02*
X124348501Y-90520900D01*
X124443740Y-90473280D01*
X124681835Y-90473280D01*
X124777073Y-90520900D01*
X124824692Y-90568519D01*
X124872311Y-90663757D01*
X124872311Y-90758995D01*
X124824692Y-90901852D01*
X124253263Y-91473280D01*
X124872311Y-91473280D01*
X125824692Y-91473280D02*
X125253263Y-91473280D01*
X125538978Y-91473280D02*
X125538978Y-90473280D01*
X125443740Y-90616138D01*
X125348501Y-90711376D01*
X125253263Y-90758995D01*
X126681835Y-90473280D02*
X126491359Y-90473280D01*
X126396120Y-90520900D01*
X126348501Y-90568519D01*
X126253263Y-90711376D01*
X126205644Y-90901852D01*
X126205644Y-91282804D01*
X126253263Y-91378042D01*
X126300882Y-91425661D01*
X126396120Y-91473280D01*
X126586597Y-91473280D01*
X126681835Y-91425661D01*
X126729454Y-91378042D01*
X126777073Y-91282804D01*
X126777073Y-91044709D01*
X126729454Y-90949471D01*
X126681835Y-90901852D01*
X126586597Y-90854233D01*
X126396120Y-90854233D01*
X126300882Y-90901852D01*
X126253263Y-90949471D01*
X126205644Y-91044709D01*
X127110406Y-90473280D02*
X127777073Y-90473280D01*
X127348501Y-91473280D01*
X128158025Y-90949471D02*
X128491359Y-90949471D01*
X128634216Y-91473280D02*
X128158025Y-91473280D01*
X128158025Y-90473280D01*
X128634216Y-90473280D01*
X128919930Y-90473280D02*
X129253263Y-91473280D01*
X129586597Y-90473280D01*
X130443740Y-91473280D02*
X129872311Y-91473280D01*
X130158025Y-91473280D02*
X130158025Y-90473280D01*
X130062787Y-90616138D01*
X129967549Y-90711376D01*
X129872311Y-90758995D01*
X131015168Y-90901852D02*
X130919930Y-90854233D01*
X130872311Y-90806614D01*
X130824692Y-90711376D01*
X130824692Y-90663757D01*
X130872311Y-90568519D01*
X130919930Y-90520900D01*
X131015168Y-90473280D01*
X131205644Y-90473280D01*
X131300882Y-90520900D01*
X131348501Y-90568519D01*
X131396120Y-90663757D01*
X131396120Y-90711376D01*
X131348501Y-90806614D01*
X131300882Y-90854233D01*
X131205644Y-90901852D01*
X131015168Y-90901852D01*
X130919930Y-90949471D01*
X130872311Y-90997090D01*
X130824692Y-91092328D01*
X130824692Y-91282804D01*
X130872311Y-91378042D01*
X130919930Y-91425661D01*
X131015168Y-91473280D01*
X131205644Y-91473280D01*
X131300882Y-91425661D01*
X131348501Y-91378042D01*
X131396120Y-91282804D01*
X131396120Y-91092328D01*
X131348501Y-90997090D01*
X131300882Y-90949471D01*
X131205644Y-90901852D01*
G04 #@! TO.C,J7*
X109016666Y-75122380D02*
X109016666Y-75836666D01*
X108969047Y-75979523D01*
X108873809Y-76074761D01*
X108730952Y-76122380D01*
X108635714Y-76122380D01*
X109397619Y-75122380D02*
X110064285Y-75122380D01*
X109635714Y-76122380D01*
G04 #@! TO.C,J12*
X144500476Y-73502380D02*
X144500476Y-74216666D01*
X144452857Y-74359523D01*
X144357619Y-74454761D01*
X144214761Y-74502380D01*
X144119523Y-74502380D01*
X145500476Y-74502380D02*
X144929047Y-74502380D01*
X145214761Y-74502380D02*
X145214761Y-73502380D01*
X145119523Y-73645238D01*
X145024285Y-73740476D01*
X144929047Y-73788095D01*
X145881428Y-73597619D02*
X145929047Y-73550000D01*
X146024285Y-73502380D01*
X146262380Y-73502380D01*
X146357619Y-73550000D01*
X146405238Y-73597619D01*
X146452857Y-73692857D01*
X146452857Y-73788095D01*
X146405238Y-73930952D01*
X145833809Y-74502380D01*
X146452857Y-74502380D01*
G04 #@! TO.C,J10*
X136866380Y-102155523D02*
X137580666Y-102155523D01*
X137723523Y-102203142D01*
X137818761Y-102298380D01*
X137866380Y-102441238D01*
X137866380Y-102536476D01*
X137866380Y-101155523D02*
X137866380Y-101726952D01*
X137866380Y-101441238D02*
X136866380Y-101441238D01*
X137009238Y-101536476D01*
X137104476Y-101631714D01*
X137152095Y-101726952D01*
X136866380Y-100536476D02*
X136866380Y-100441238D01*
X136914000Y-100346000D01*
X136961619Y-100298380D01*
X137056857Y-100250761D01*
X137247333Y-100203142D01*
X137485428Y-100203142D01*
X137675904Y-100250761D01*
X137771142Y-100298380D01*
X137818761Y-100346000D01*
X137866380Y-100441238D01*
X137866380Y-100536476D01*
X137818761Y-100631714D01*
X137771142Y-100679333D01*
X137675904Y-100726952D01*
X137485428Y-100774571D01*
X137247333Y-100774571D01*
X137056857Y-100726952D01*
X136961619Y-100679333D01*
X136914000Y-100631714D01*
X136866380Y-100536476D01*
G04 #@! TO.C,C1*
X119728953Y-96077042D02*
X119681334Y-96124661D01*
X119538477Y-96172280D01*
X119443239Y-96172280D01*
X119300381Y-96124661D01*
X119205143Y-96029423D01*
X119157524Y-95934185D01*
X119109905Y-95743709D01*
X119109905Y-95600852D01*
X119157524Y-95410376D01*
X119205143Y-95315138D01*
X119300381Y-95219900D01*
X119443239Y-95172280D01*
X119538477Y-95172280D01*
X119681334Y-95219900D01*
X119728953Y-95267519D01*
X120681334Y-96172280D02*
X120109905Y-96172280D01*
X120395620Y-96172280D02*
X120395620Y-95172280D01*
X120300381Y-95315138D01*
X120205143Y-95410376D01*
X120109905Y-95457995D01*
G04 #@! TO.C,R1*
X127105013Y-96116380D02*
X126771680Y-95640190D01*
X126533584Y-96116380D02*
X126533584Y-95116380D01*
X126914537Y-95116380D01*
X127009775Y-95164000D01*
X127057394Y-95211619D01*
X127105013Y-95306857D01*
X127105013Y-95449714D01*
X127057394Y-95544952D01*
X127009775Y-95592571D01*
X126914537Y-95640190D01*
X126533584Y-95640190D01*
X128057394Y-96116380D02*
X127485965Y-96116380D01*
X127771680Y-96116380D02*
X127771680Y-95116380D01*
X127676441Y-95259238D01*
X127581203Y-95354476D01*
X127485965Y-95402095D01*
G04 #@! TO.C,R2*
X123465293Y-96151960D02*
X123131960Y-95675770D01*
X122893864Y-96151960D02*
X122893864Y-95151960D01*
X123274817Y-95151960D01*
X123370055Y-95199580D01*
X123417674Y-95247199D01*
X123465293Y-95342437D01*
X123465293Y-95485294D01*
X123417674Y-95580532D01*
X123370055Y-95628151D01*
X123274817Y-95675770D01*
X122893864Y-95675770D01*
X123846245Y-95247199D02*
X123893864Y-95199580D01*
X123989102Y-95151960D01*
X124227198Y-95151960D01*
X124322436Y-95199580D01*
X124370055Y-95247199D01*
X124417674Y-95342437D01*
X124417674Y-95437675D01*
X124370055Y-95580532D01*
X123798626Y-96151960D01*
X124417674Y-96151960D01*
G04 #@! TO.C,R3*
X113605013Y-83368140D02*
X113271680Y-82891950D01*
X113033584Y-83368140D02*
X113033584Y-82368140D01*
X113414537Y-82368140D01*
X113509775Y-82415760D01*
X113557394Y-82463379D01*
X113605013Y-82558617D01*
X113605013Y-82701474D01*
X113557394Y-82796712D01*
X113509775Y-82844331D01*
X113414537Y-82891950D01*
X113033584Y-82891950D01*
X113938346Y-82368140D02*
X114557394Y-82368140D01*
X114224060Y-82749093D01*
X114366918Y-82749093D01*
X114462156Y-82796712D01*
X114509775Y-82844331D01*
X114557394Y-82939569D01*
X114557394Y-83177664D01*
X114509775Y-83272902D01*
X114462156Y-83320521D01*
X114366918Y-83368140D01*
X114081203Y-83368140D01*
X113985965Y-83320521D01*
X113938346Y-83272902D01*
G04 #@! TO.C,J1*
X113042106Y-87989160D02*
X113042106Y-88703446D01*
X112994487Y-88846303D01*
X112899249Y-88941541D01*
X112756392Y-88989160D01*
X112661154Y-88989160D01*
X114042106Y-88989160D02*
X113470678Y-88989160D01*
X113756392Y-88989160D02*
X113756392Y-87989160D01*
X113661154Y-88132018D01*
X113565916Y-88227256D01*
X113470678Y-88274875D01*
G04 #@! TO.C,J2*
X109172380Y-98683333D02*
X109886666Y-98683333D01*
X110029523Y-98730952D01*
X110124761Y-98826190D01*
X110172380Y-98969047D01*
X110172380Y-99064285D01*
X109267619Y-98254761D02*
X109220000Y-98207142D01*
X109172380Y-98111904D01*
X109172380Y-97873809D01*
X109220000Y-97778571D01*
X109267619Y-97730952D01*
X109362857Y-97683333D01*
X109458095Y-97683333D01*
X109600952Y-97730952D01*
X110172380Y-98302380D01*
X110172380Y-97683333D01*
G04 #@! TD*
M02*
