M48
;DRILL file {KiCad 5.0.2-bee76a0~70~ubuntu14.04.1} date Fri 07 Dec 2018 07:13:19 PM MST
;FORMAT={-:-/ absolute / inch / decimal}
FMAT,2
INCH,TZ
T1C0.0118
T2C0.0394
%
G90
G05
T1
X4.4926Y-3.7437
X4.5101Y-3.2063
X4.5745Y-3.7197
X4.6616Y-3.4604
X4.6877Y-3.709
X4.752Y-3.71
X4.7794Y-3.4176
X4.7874Y-3.3844
X4.7991Y-3.23
X4.806Y-3.4497
X4.8184Y-3.4331
X4.8232Y-3.4658
X4.8326Y-3.7132
X4.8665Y-3.6211
X4.8681Y-3.2052
X4.8742Y-3.2558
X4.8787Y-3.1713
X4.8903Y-3.5984
X4.9055Y-3.4947
X4.909Y-3.1184
X4.92Y-3.59
X4.9353Y-3.4354
X4.9357Y-3.4045
X4.9361Y-3.3733
X4.9365Y-3.4916
X4.9394Y-3.5266
X4.9765Y-3.5565
X5.0085Y-3.58
X5.0246Y-3.5369
X5.0401Y-3.5968
X5.0609Y-3.5509
X5.1671Y-3.4771
X5.1987Y-3.5555
X5.2169Y-3.4701
T2
X4.3031Y-2.9606
X4.4031Y-2.9606
X4.5031Y-2.9606
X4.6031Y-2.9606
X4.7031Y-2.9606
X4.8031Y-2.9606
X4.9031Y-2.9606
X5.0031Y-2.9606
X5.1031Y-2.9606
X5.2031Y-2.9606
X5.3031Y-2.9606
X5.4031Y-2.9606
X5.5031Y-2.9606
X5.6031Y-2.9606
X5.7031Y-2.9606
X4.3051Y-3.0709
X4.3051Y-3.1709
X4.3051Y-3.2709
X4.3051Y-3.3709
X4.3051Y-3.4709
X4.3051Y-3.5709
X4.3051Y-3.6709
X4.3051Y-3.7709
X4.3051Y-3.8709
X4.4114Y-3.872
X4.5114Y-3.872
X4.6114Y-3.872
X4.7114Y-3.872
X4.8114Y-3.872
X4.9114Y-3.872
X5.0114Y-3.872
X4.3051Y-3.9803
X4.4051Y-3.9803
X4.5051Y-3.9803
X4.6051Y-3.9803
X4.7051Y-3.9803
X4.8051Y-3.9803
X4.9051Y-3.9803
X5.0051Y-3.9803
X5.1051Y-3.9803
X5.2051Y-3.9803
X5.3051Y-3.9803
X5.4051Y-3.9803
X4.46Y-3.49
X4.46Y-3.59
T0
M30
