G04 #@! TF.GenerationSoftware,KiCad,Pcbnew,5.0.2-bee76a0~70~ubuntu14.04.1*
G04 #@! TF.CreationDate,2018-12-14T16:40:16-07:00*
G04 #@! TF.ProjectId,sram-addon,7372616d-2d61-4646-946f-6e2e6b696361,rev?*
G04 #@! TF.SameCoordinates,Original*
G04 #@! TF.FileFunction,Copper,L1,Top*
G04 #@! TF.FilePolarity,Positive*
%FSLAX46Y46*%
G04 Gerber Fmt 4.6, Leading zero omitted, Abs format (unit mm)*
G04 Created by KiCad (PCBNEW 5.0.2-bee76a0~70~ubuntu14.04.1) date Fri 14 Dec 2018 04:40:16 PM MST*
%MOMM*%
%LPD*%
G01*
G04 APERTURE LIST*
G04 #@! TA.AperFunction,BGAPad,CuDef*
%ADD10C,0.300000*%
G04 #@! TD*
G04 #@! TA.AperFunction,ComponentPad*
%ADD11R,1.700000X1.700000*%
G04 #@! TD*
G04 #@! TA.AperFunction,ComponentPad*
%ADD12O,1.700000X1.700000*%
G04 #@! TD*
G04 #@! TA.AperFunction,Conductor*
%ADD13C,0.100000*%
G04 #@! TD*
G04 #@! TA.AperFunction,SMDPad,CuDef*
%ADD14C,0.875000*%
G04 #@! TD*
G04 #@! TA.AperFunction,ViaPad*
%ADD15C,0.400000*%
G04 #@! TD*
G04 #@! TA.AperFunction,Conductor*
%ADD16C,0.127000*%
G04 #@! TD*
G04 APERTURE END LIST*
D10*
G04 #@! TO.P,U1,A1*
G04 #@! TO.N,GND*
X129117000Y-84993000D03*
G04 #@! TO.P,U1,B1*
G04 #@! TO.N,d8*
X128367000Y-84993000D03*
G04 #@! TO.P,U1,C1*
G04 #@! TO.N,d9*
X127617000Y-84993000D03*
G04 #@! TO.P,U1,D1*
G04 #@! TO.N,vss*
X126867000Y-84993000D03*
G04 #@! TO.P,U1,E1*
G04 #@! TO.N,CE2*
X126117000Y-84993000D03*
G04 #@! TO.P,U1,F1*
G04 #@! TO.N,d14*
X125367000Y-84993000D03*
G04 #@! TO.P,U1,G1*
G04 #@! TO.N,d15*
X124617000Y-84993000D03*
G04 #@! TO.P,U1,H1*
G04 #@! TO.N,008.5*
X123867000Y-84993000D03*
G04 #@! TO.P,U1,A2*
G04 #@! TO.N,GND*
X129117000Y-85743000D03*
G04 #@! TO.P,U1,B2*
X128367000Y-85743000D03*
G04 #@! TO.P,U1,C2*
G04 #@! TO.N,d10*
X127617000Y-85743000D03*
G04 #@! TO.P,U1,D2*
G04 #@! TO.N,d11*
X126867000Y-85743000D03*
G04 #@! TO.P,U1,E2*
G04 #@! TO.N,d12*
X126117000Y-85743000D03*
G04 #@! TO.P,U1,F2*
G04 #@! TO.N,d13*
X125367000Y-85743000D03*
G04 #@! TO.P,U1,G2*
G04 #@! TO.N,008.17*
X124617000Y-85743000D03*
G04 #@! TO.P,U1,H2*
G04 #@! TO.N,a8*
X123867000Y-85743000D03*
G04 #@! TO.P,U1,A3*
G04 #@! TO.N,a0*
X129117000Y-86493000D03*
G04 #@! TO.P,U1,B3*
G04 #@! TO.N,a3*
X128367000Y-86493000D03*
G04 #@! TO.P,U1,C3*
G04 #@! TO.N,a5*
X127617000Y-86493000D03*
G04 #@! TO.P,U1,D3*
G04 #@! TO.N,a17*
X126867000Y-86493000D03*
G04 #@! TO.P,U1,E3*
G04 #@! TO.N,Net-(U1-PadE3)*
X126117000Y-86493000D03*
G04 #@! TO.P,U1,F3*
G04 #@! TO.N,a14*
X125367000Y-86493000D03*
G04 #@! TO.P,U1,G3*
G04 #@! TO.N,a12*
X124617000Y-86493000D03*
G04 #@! TO.P,U1,H3*
G04 #@! TO.N,a9*
X123867000Y-86493000D03*
G04 #@! TO.P,U1,A4*
G04 #@! TO.N,a1*
X129117000Y-87243000D03*
G04 #@! TO.P,U1,B4*
G04 #@! TO.N,a4*
X128367000Y-87243000D03*
G04 #@! TO.P,U1,C4*
G04 #@! TO.N,a6*
X127617000Y-87243000D03*
G04 #@! TO.P,U1,D4*
G04 #@! TO.N,a7*
X126867000Y-87243000D03*
G04 #@! TO.P,U1,E4*
G04 #@! TO.N,a16*
X126117000Y-87243000D03*
G04 #@! TO.P,U1,F4*
G04 #@! TO.N,a15*
X125367000Y-87243000D03*
G04 #@! TO.P,U1,G4*
G04 #@! TO.N,a13*
X124617000Y-87243000D03*
G04 #@! TO.P,U1,H4*
G04 #@! TO.N,a10*
X123867000Y-87243000D03*
G04 #@! TO.P,U1,A5*
G04 #@! TO.N,a2*
X129117000Y-87993000D03*
G04 #@! TO.P,U1,B5*
G04 #@! TO.N,008.1*
X128367000Y-87993000D03*
G04 #@! TO.P,U1,C5*
G04 #@! TO.N,d1*
X127617000Y-87993000D03*
G04 #@! TO.P,U1,D5*
G04 #@! TO.N,d3*
X126867000Y-87993000D03*
G04 #@! TO.P,U1,E5*
G04 #@! TO.N,d4*
X126117000Y-87993000D03*
G04 #@! TO.P,U1,F5*
G04 #@! TO.N,d5*
X125367000Y-87993000D03*
G04 #@! TO.P,U1,G5*
G04 #@! TO.N,008.3*
X124617000Y-87993000D03*
G04 #@! TO.P,U1,H5*
G04 #@! TO.N,a11*
X123867000Y-87993000D03*
G04 #@! TO.P,U1,A6*
G04 #@! TO.N,CE2*
X129117000Y-88743000D03*
G04 #@! TO.P,U1,B6*
G04 #@! TO.N,d0*
X128367000Y-88743000D03*
G04 #@! TO.P,U1,C6*
G04 #@! TO.N,d2*
X127617000Y-88743000D03*
G04 #@! TO.P,U1,D6*
G04 #@! TO.N,CE2*
X126867000Y-88743000D03*
G04 #@! TO.P,U1,E6*
G04 #@! TO.N,vss*
X126117000Y-88743000D03*
G04 #@! TO.P,U1,F6*
G04 #@! TO.N,d6*
X125367000Y-88743000D03*
G04 #@! TO.P,U1,G6*
G04 #@! TO.N,d7*
X124617000Y-88743000D03*
G04 #@! TO.P,U1,H6*
G04 #@! TO.N,Net-(U1-PadH6)*
X123867000Y-88743000D03*
G04 #@! TD*
D11*
G04 #@! TO.P,J7,1*
G04 #@! TO.N,d15*
X109350000Y-78000000D03*
D12*
G04 #@! TO.P,J7,2*
G04 #@! TO.N,d16*
X109350000Y-80540000D03*
G04 #@! TO.P,J7,3*
X109350000Y-83080000D03*
G04 #@! TO.P,J7,4*
G04 #@! TO.N,a17*
X109350000Y-85620000D03*
G04 #@! TO.P,J7,5*
G04 #@! TO.N,a16*
X109350000Y-88160000D03*
G04 #@! TO.P,J7,6*
G04 #@! TO.N,a15*
X109350000Y-90700000D03*
G04 #@! TO.P,J7,7*
G04 #@! TO.N,a14*
X109350000Y-93240000D03*
G04 #@! TO.P,J7,8*
G04 #@! TO.N,a13*
X109350000Y-95780000D03*
G04 #@! TO.P,J7,9*
G04 #@! TO.N,a12*
X109350000Y-98320000D03*
G04 #@! TD*
D11*
G04 #@! TO.P,J12,1*
G04 #@! TO.N,d0*
X144860000Y-75200000D03*
D12*
G04 #@! TO.P,J12,2*
G04 #@! TO.N,d1*
X142320000Y-75200000D03*
G04 #@! TO.P,J12,3*
G04 #@! TO.N,d2*
X139780000Y-75200000D03*
G04 #@! TO.P,J12,4*
G04 #@! TO.N,d3*
X137240000Y-75200000D03*
G04 #@! TO.P,J12,5*
G04 #@! TO.N,d4*
X134700000Y-75200000D03*
G04 #@! TO.P,J12,6*
G04 #@! TO.N,d5*
X132160000Y-75200000D03*
G04 #@! TO.P,J12,7*
G04 #@! TO.N,d6*
X129620000Y-75200000D03*
G04 #@! TO.P,J12,8*
G04 #@! TO.N,d7*
X127080000Y-75200000D03*
G04 #@! TO.P,J12,9*
G04 #@! TO.N,d8*
X124540000Y-75200000D03*
G04 #@! TO.P,J12,10*
G04 #@! TO.N,d9*
X122000000Y-75200000D03*
G04 #@! TO.P,J12,11*
G04 #@! TO.N,d10*
X119460000Y-75200000D03*
G04 #@! TO.P,J12,12*
G04 #@! TO.N,d11*
X116920000Y-75200000D03*
G04 #@! TO.P,J12,13*
G04 #@! TO.N,d12*
X114380000Y-75200000D03*
G04 #@! TO.P,J12,14*
G04 #@! TO.N,d13*
X111840000Y-75200000D03*
G04 #@! TO.P,J12,15*
G04 #@! TO.N,d14*
X109300000Y-75200000D03*
G04 #@! TD*
D11*
G04 #@! TO.P,J10,1*
G04 #@! TO.N,a0*
X137290000Y-101100000D03*
D12*
G04 #@! TO.P,J10,2*
G04 #@! TO.N,a1*
X134750000Y-101100000D03*
G04 #@! TO.P,J10,3*
G04 #@! TO.N,a2*
X132210000Y-101100000D03*
G04 #@! TO.P,J10,4*
G04 #@! TO.N,a3*
X129670000Y-101100000D03*
G04 #@! TO.P,J10,5*
G04 #@! TO.N,a4*
X127130000Y-101100000D03*
G04 #@! TO.P,J10,6*
G04 #@! TO.N,a5*
X124590000Y-101100000D03*
G04 #@! TO.P,J10,7*
G04 #@! TO.N,a6*
X122050000Y-101100000D03*
G04 #@! TO.P,J10,8*
G04 #@! TO.N,a7*
X119510000Y-101100000D03*
G04 #@! TO.P,J10,9*
G04 #@! TO.N,a8*
X116970000Y-101100000D03*
G04 #@! TO.P,J10,10*
G04 #@! TO.N,a9*
X114430000Y-101100000D03*
G04 #@! TO.P,J10,11*
G04 #@! TO.N,a10*
X111890000Y-101100000D03*
G04 #@! TO.P,J10,12*
G04 #@! TO.N,a11*
X109350000Y-101100000D03*
G04 #@! TD*
D13*
G04 #@! TO.N,GND*
G04 #@! TO.C,C1*
G36*
X119366191Y-93760053D02*
X119387426Y-93763203D01*
X119408250Y-93768419D01*
X119428462Y-93775651D01*
X119447868Y-93784830D01*
X119466281Y-93795866D01*
X119483524Y-93808654D01*
X119499430Y-93823070D01*
X119513846Y-93838976D01*
X119526634Y-93856219D01*
X119537670Y-93874632D01*
X119546849Y-93894038D01*
X119554081Y-93914250D01*
X119559297Y-93935074D01*
X119562447Y-93956309D01*
X119563500Y-93977750D01*
X119563500Y-94490250D01*
X119562447Y-94511691D01*
X119559297Y-94532926D01*
X119554081Y-94553750D01*
X119546849Y-94573962D01*
X119537670Y-94593368D01*
X119526634Y-94611781D01*
X119513846Y-94629024D01*
X119499430Y-94644930D01*
X119483524Y-94659346D01*
X119466281Y-94672134D01*
X119447868Y-94683170D01*
X119428462Y-94692349D01*
X119408250Y-94699581D01*
X119387426Y-94704797D01*
X119366191Y-94707947D01*
X119344750Y-94709000D01*
X118907250Y-94709000D01*
X118885809Y-94707947D01*
X118864574Y-94704797D01*
X118843750Y-94699581D01*
X118823538Y-94692349D01*
X118804132Y-94683170D01*
X118785719Y-94672134D01*
X118768476Y-94659346D01*
X118752570Y-94644930D01*
X118738154Y-94629024D01*
X118725366Y-94611781D01*
X118714330Y-94593368D01*
X118705151Y-94573962D01*
X118697919Y-94553750D01*
X118692703Y-94532926D01*
X118689553Y-94511691D01*
X118688500Y-94490250D01*
X118688500Y-93977750D01*
X118689553Y-93956309D01*
X118692703Y-93935074D01*
X118697919Y-93914250D01*
X118705151Y-93894038D01*
X118714330Y-93874632D01*
X118725366Y-93856219D01*
X118738154Y-93838976D01*
X118752570Y-93823070D01*
X118768476Y-93808654D01*
X118785719Y-93795866D01*
X118804132Y-93784830D01*
X118823538Y-93775651D01*
X118843750Y-93768419D01*
X118864574Y-93763203D01*
X118885809Y-93760053D01*
X118907250Y-93759000D01*
X119344750Y-93759000D01*
X119366191Y-93760053D01*
X119366191Y-93760053D01*
G37*
D14*
G04 #@! TD*
G04 #@! TO.P,C1,1*
G04 #@! TO.N,GND*
X119126000Y-94234000D03*
D13*
G04 #@! TO.N,vss*
G04 #@! TO.C,C1*
G36*
X120941191Y-93760053D02*
X120962426Y-93763203D01*
X120983250Y-93768419D01*
X121003462Y-93775651D01*
X121022868Y-93784830D01*
X121041281Y-93795866D01*
X121058524Y-93808654D01*
X121074430Y-93823070D01*
X121088846Y-93838976D01*
X121101634Y-93856219D01*
X121112670Y-93874632D01*
X121121849Y-93894038D01*
X121129081Y-93914250D01*
X121134297Y-93935074D01*
X121137447Y-93956309D01*
X121138500Y-93977750D01*
X121138500Y-94490250D01*
X121137447Y-94511691D01*
X121134297Y-94532926D01*
X121129081Y-94553750D01*
X121121849Y-94573962D01*
X121112670Y-94593368D01*
X121101634Y-94611781D01*
X121088846Y-94629024D01*
X121074430Y-94644930D01*
X121058524Y-94659346D01*
X121041281Y-94672134D01*
X121022868Y-94683170D01*
X121003462Y-94692349D01*
X120983250Y-94699581D01*
X120962426Y-94704797D01*
X120941191Y-94707947D01*
X120919750Y-94709000D01*
X120482250Y-94709000D01*
X120460809Y-94707947D01*
X120439574Y-94704797D01*
X120418750Y-94699581D01*
X120398538Y-94692349D01*
X120379132Y-94683170D01*
X120360719Y-94672134D01*
X120343476Y-94659346D01*
X120327570Y-94644930D01*
X120313154Y-94629024D01*
X120300366Y-94611781D01*
X120289330Y-94593368D01*
X120280151Y-94573962D01*
X120272919Y-94553750D01*
X120267703Y-94532926D01*
X120264553Y-94511691D01*
X120263500Y-94490250D01*
X120263500Y-93977750D01*
X120264553Y-93956309D01*
X120267703Y-93935074D01*
X120272919Y-93914250D01*
X120280151Y-93894038D01*
X120289330Y-93874632D01*
X120300366Y-93856219D01*
X120313154Y-93838976D01*
X120327570Y-93823070D01*
X120343476Y-93808654D01*
X120360719Y-93795866D01*
X120379132Y-93784830D01*
X120398538Y-93775651D01*
X120418750Y-93768419D01*
X120439574Y-93763203D01*
X120460809Y-93760053D01*
X120482250Y-93759000D01*
X120919750Y-93759000D01*
X120941191Y-93760053D01*
X120941191Y-93760053D01*
G37*
D14*
G04 #@! TD*
G04 #@! TO.P,C1,2*
G04 #@! TO.N,vss*
X120701000Y-94234000D03*
D13*
G04 #@! TO.N,008.1*
G04 #@! TO.C,R1*
G36*
X128299371Y-93760053D02*
X128320606Y-93763203D01*
X128341430Y-93768419D01*
X128361642Y-93775651D01*
X128381048Y-93784830D01*
X128399461Y-93795866D01*
X128416704Y-93808654D01*
X128432610Y-93823070D01*
X128447026Y-93838976D01*
X128459814Y-93856219D01*
X128470850Y-93874632D01*
X128480029Y-93894038D01*
X128487261Y-93914250D01*
X128492477Y-93935074D01*
X128495627Y-93956309D01*
X128496680Y-93977750D01*
X128496680Y-94490250D01*
X128495627Y-94511691D01*
X128492477Y-94532926D01*
X128487261Y-94553750D01*
X128480029Y-94573962D01*
X128470850Y-94593368D01*
X128459814Y-94611781D01*
X128447026Y-94629024D01*
X128432610Y-94644930D01*
X128416704Y-94659346D01*
X128399461Y-94672134D01*
X128381048Y-94683170D01*
X128361642Y-94692349D01*
X128341430Y-94699581D01*
X128320606Y-94704797D01*
X128299371Y-94707947D01*
X128277930Y-94709000D01*
X127840430Y-94709000D01*
X127818989Y-94707947D01*
X127797754Y-94704797D01*
X127776930Y-94699581D01*
X127756718Y-94692349D01*
X127737312Y-94683170D01*
X127718899Y-94672134D01*
X127701656Y-94659346D01*
X127685750Y-94644930D01*
X127671334Y-94629024D01*
X127658546Y-94611781D01*
X127647510Y-94593368D01*
X127638331Y-94573962D01*
X127631099Y-94553750D01*
X127625883Y-94532926D01*
X127622733Y-94511691D01*
X127621680Y-94490250D01*
X127621680Y-93977750D01*
X127622733Y-93956309D01*
X127625883Y-93935074D01*
X127631099Y-93914250D01*
X127638331Y-93894038D01*
X127647510Y-93874632D01*
X127658546Y-93856219D01*
X127671334Y-93838976D01*
X127685750Y-93823070D01*
X127701656Y-93808654D01*
X127718899Y-93795866D01*
X127737312Y-93784830D01*
X127756718Y-93775651D01*
X127776930Y-93768419D01*
X127797754Y-93763203D01*
X127818989Y-93760053D01*
X127840430Y-93759000D01*
X128277930Y-93759000D01*
X128299371Y-93760053D01*
X128299371Y-93760053D01*
G37*
D14*
G04 #@! TD*
G04 #@! TO.P,R1,1*
G04 #@! TO.N,008.1*
X128059180Y-94234000D03*
D13*
G04 #@! TO.N,CE2*
G04 #@! TO.C,R1*
G36*
X126724371Y-93760053D02*
X126745606Y-93763203D01*
X126766430Y-93768419D01*
X126786642Y-93775651D01*
X126806048Y-93784830D01*
X126824461Y-93795866D01*
X126841704Y-93808654D01*
X126857610Y-93823070D01*
X126872026Y-93838976D01*
X126884814Y-93856219D01*
X126895850Y-93874632D01*
X126905029Y-93894038D01*
X126912261Y-93914250D01*
X126917477Y-93935074D01*
X126920627Y-93956309D01*
X126921680Y-93977750D01*
X126921680Y-94490250D01*
X126920627Y-94511691D01*
X126917477Y-94532926D01*
X126912261Y-94553750D01*
X126905029Y-94573962D01*
X126895850Y-94593368D01*
X126884814Y-94611781D01*
X126872026Y-94629024D01*
X126857610Y-94644930D01*
X126841704Y-94659346D01*
X126824461Y-94672134D01*
X126806048Y-94683170D01*
X126786642Y-94692349D01*
X126766430Y-94699581D01*
X126745606Y-94704797D01*
X126724371Y-94707947D01*
X126702930Y-94709000D01*
X126265430Y-94709000D01*
X126243989Y-94707947D01*
X126222754Y-94704797D01*
X126201930Y-94699581D01*
X126181718Y-94692349D01*
X126162312Y-94683170D01*
X126143899Y-94672134D01*
X126126656Y-94659346D01*
X126110750Y-94644930D01*
X126096334Y-94629024D01*
X126083546Y-94611781D01*
X126072510Y-94593368D01*
X126063331Y-94573962D01*
X126056099Y-94553750D01*
X126050883Y-94532926D01*
X126047733Y-94511691D01*
X126046680Y-94490250D01*
X126046680Y-93977750D01*
X126047733Y-93956309D01*
X126050883Y-93935074D01*
X126056099Y-93914250D01*
X126063331Y-93894038D01*
X126072510Y-93874632D01*
X126083546Y-93856219D01*
X126096334Y-93838976D01*
X126110750Y-93823070D01*
X126126656Y-93808654D01*
X126143899Y-93795866D01*
X126162312Y-93784830D01*
X126181718Y-93775651D01*
X126201930Y-93768419D01*
X126222754Y-93763203D01*
X126243989Y-93760053D01*
X126265430Y-93759000D01*
X126702930Y-93759000D01*
X126724371Y-93760053D01*
X126724371Y-93760053D01*
G37*
D14*
G04 #@! TD*
G04 #@! TO.P,R1,2*
G04 #@! TO.N,CE2*
X126484180Y-94234000D03*
D13*
G04 #@! TO.N,CE2*
G04 #@! TO.C,R2*
G36*
X123010891Y-93757513D02*
X123032126Y-93760663D01*
X123052950Y-93765879D01*
X123073162Y-93773111D01*
X123092568Y-93782290D01*
X123110981Y-93793326D01*
X123128224Y-93806114D01*
X123144130Y-93820530D01*
X123158546Y-93836436D01*
X123171334Y-93853679D01*
X123182370Y-93872092D01*
X123191549Y-93891498D01*
X123198781Y-93911710D01*
X123203997Y-93932534D01*
X123207147Y-93953769D01*
X123208200Y-93975210D01*
X123208200Y-94487710D01*
X123207147Y-94509151D01*
X123203997Y-94530386D01*
X123198781Y-94551210D01*
X123191549Y-94571422D01*
X123182370Y-94590828D01*
X123171334Y-94609241D01*
X123158546Y-94626484D01*
X123144130Y-94642390D01*
X123128224Y-94656806D01*
X123110981Y-94669594D01*
X123092568Y-94680630D01*
X123073162Y-94689809D01*
X123052950Y-94697041D01*
X123032126Y-94702257D01*
X123010891Y-94705407D01*
X122989450Y-94706460D01*
X122551950Y-94706460D01*
X122530509Y-94705407D01*
X122509274Y-94702257D01*
X122488450Y-94697041D01*
X122468238Y-94689809D01*
X122448832Y-94680630D01*
X122430419Y-94669594D01*
X122413176Y-94656806D01*
X122397270Y-94642390D01*
X122382854Y-94626484D01*
X122370066Y-94609241D01*
X122359030Y-94590828D01*
X122349851Y-94571422D01*
X122342619Y-94551210D01*
X122337403Y-94530386D01*
X122334253Y-94509151D01*
X122333200Y-94487710D01*
X122333200Y-93975210D01*
X122334253Y-93953769D01*
X122337403Y-93932534D01*
X122342619Y-93911710D01*
X122349851Y-93891498D01*
X122359030Y-93872092D01*
X122370066Y-93853679D01*
X122382854Y-93836436D01*
X122397270Y-93820530D01*
X122413176Y-93806114D01*
X122430419Y-93793326D01*
X122448832Y-93782290D01*
X122468238Y-93773111D01*
X122488450Y-93765879D01*
X122509274Y-93760663D01*
X122530509Y-93757513D01*
X122551950Y-93756460D01*
X122989450Y-93756460D01*
X123010891Y-93757513D01*
X123010891Y-93757513D01*
G37*
D14*
G04 #@! TD*
G04 #@! TO.P,R2,2*
G04 #@! TO.N,CE2*
X122770700Y-94231460D03*
D13*
G04 #@! TO.N,008.3*
G04 #@! TO.C,R2*
G36*
X124585891Y-93757513D02*
X124607126Y-93760663D01*
X124627950Y-93765879D01*
X124648162Y-93773111D01*
X124667568Y-93782290D01*
X124685981Y-93793326D01*
X124703224Y-93806114D01*
X124719130Y-93820530D01*
X124733546Y-93836436D01*
X124746334Y-93853679D01*
X124757370Y-93872092D01*
X124766549Y-93891498D01*
X124773781Y-93911710D01*
X124778997Y-93932534D01*
X124782147Y-93953769D01*
X124783200Y-93975210D01*
X124783200Y-94487710D01*
X124782147Y-94509151D01*
X124778997Y-94530386D01*
X124773781Y-94551210D01*
X124766549Y-94571422D01*
X124757370Y-94590828D01*
X124746334Y-94609241D01*
X124733546Y-94626484D01*
X124719130Y-94642390D01*
X124703224Y-94656806D01*
X124685981Y-94669594D01*
X124667568Y-94680630D01*
X124648162Y-94689809D01*
X124627950Y-94697041D01*
X124607126Y-94702257D01*
X124585891Y-94705407D01*
X124564450Y-94706460D01*
X124126950Y-94706460D01*
X124105509Y-94705407D01*
X124084274Y-94702257D01*
X124063450Y-94697041D01*
X124043238Y-94689809D01*
X124023832Y-94680630D01*
X124005419Y-94669594D01*
X123988176Y-94656806D01*
X123972270Y-94642390D01*
X123957854Y-94626484D01*
X123945066Y-94609241D01*
X123934030Y-94590828D01*
X123924851Y-94571422D01*
X123917619Y-94551210D01*
X123912403Y-94530386D01*
X123909253Y-94509151D01*
X123908200Y-94487710D01*
X123908200Y-93975210D01*
X123909253Y-93953769D01*
X123912403Y-93932534D01*
X123917619Y-93911710D01*
X123924851Y-93891498D01*
X123934030Y-93872092D01*
X123945066Y-93853679D01*
X123957854Y-93836436D01*
X123972270Y-93820530D01*
X123988176Y-93806114D01*
X124005419Y-93793326D01*
X124023832Y-93782290D01*
X124043238Y-93773111D01*
X124063450Y-93765879D01*
X124084274Y-93760663D01*
X124105509Y-93757513D01*
X124126950Y-93756460D01*
X124564450Y-93756460D01*
X124585891Y-93757513D01*
X124585891Y-93757513D01*
G37*
D14*
G04 #@! TD*
G04 #@! TO.P,R2,1*
G04 #@! TO.N,008.3*
X124345700Y-94231460D03*
D13*
G04 #@! TO.N,GND*
G04 #@! TO.C,R3*
G36*
X114796731Y-80966073D02*
X114817966Y-80969223D01*
X114838790Y-80974439D01*
X114859002Y-80981671D01*
X114878408Y-80990850D01*
X114896821Y-81001886D01*
X114914064Y-81014674D01*
X114929970Y-81029090D01*
X114944386Y-81044996D01*
X114957174Y-81062239D01*
X114968210Y-81080652D01*
X114977389Y-81100058D01*
X114984621Y-81120270D01*
X114989837Y-81141094D01*
X114992987Y-81162329D01*
X114994040Y-81183770D01*
X114994040Y-81696270D01*
X114992987Y-81717711D01*
X114989837Y-81738946D01*
X114984621Y-81759770D01*
X114977389Y-81779982D01*
X114968210Y-81799388D01*
X114957174Y-81817801D01*
X114944386Y-81835044D01*
X114929970Y-81850950D01*
X114914064Y-81865366D01*
X114896821Y-81878154D01*
X114878408Y-81889190D01*
X114859002Y-81898369D01*
X114838790Y-81905601D01*
X114817966Y-81910817D01*
X114796731Y-81913967D01*
X114775290Y-81915020D01*
X114337790Y-81915020D01*
X114316349Y-81913967D01*
X114295114Y-81910817D01*
X114274290Y-81905601D01*
X114254078Y-81898369D01*
X114234672Y-81889190D01*
X114216259Y-81878154D01*
X114199016Y-81865366D01*
X114183110Y-81850950D01*
X114168694Y-81835044D01*
X114155906Y-81817801D01*
X114144870Y-81799388D01*
X114135691Y-81779982D01*
X114128459Y-81759770D01*
X114123243Y-81738946D01*
X114120093Y-81717711D01*
X114119040Y-81696270D01*
X114119040Y-81183770D01*
X114120093Y-81162329D01*
X114123243Y-81141094D01*
X114128459Y-81120270D01*
X114135691Y-81100058D01*
X114144870Y-81080652D01*
X114155906Y-81062239D01*
X114168694Y-81044996D01*
X114183110Y-81029090D01*
X114199016Y-81014674D01*
X114216259Y-81001886D01*
X114234672Y-80990850D01*
X114254078Y-80981671D01*
X114274290Y-80974439D01*
X114295114Y-80969223D01*
X114316349Y-80966073D01*
X114337790Y-80965020D01*
X114775290Y-80965020D01*
X114796731Y-80966073D01*
X114796731Y-80966073D01*
G37*
D14*
G04 #@! TD*
G04 #@! TO.P,R3,1*
G04 #@! TO.N,GND*
X114556540Y-81440020D03*
D13*
G04 #@! TO.N,d16*
G04 #@! TO.C,R3*
G36*
X113221731Y-80966073D02*
X113242966Y-80969223D01*
X113263790Y-80974439D01*
X113284002Y-80981671D01*
X113303408Y-80990850D01*
X113321821Y-81001886D01*
X113339064Y-81014674D01*
X113354970Y-81029090D01*
X113369386Y-81044996D01*
X113382174Y-81062239D01*
X113393210Y-81080652D01*
X113402389Y-81100058D01*
X113409621Y-81120270D01*
X113414837Y-81141094D01*
X113417987Y-81162329D01*
X113419040Y-81183770D01*
X113419040Y-81696270D01*
X113417987Y-81717711D01*
X113414837Y-81738946D01*
X113409621Y-81759770D01*
X113402389Y-81779982D01*
X113393210Y-81799388D01*
X113382174Y-81817801D01*
X113369386Y-81835044D01*
X113354970Y-81850950D01*
X113339064Y-81865366D01*
X113321821Y-81878154D01*
X113303408Y-81889190D01*
X113284002Y-81898369D01*
X113263790Y-81905601D01*
X113242966Y-81910817D01*
X113221731Y-81913967D01*
X113200290Y-81915020D01*
X112762790Y-81915020D01*
X112741349Y-81913967D01*
X112720114Y-81910817D01*
X112699290Y-81905601D01*
X112679078Y-81898369D01*
X112659672Y-81889190D01*
X112641259Y-81878154D01*
X112624016Y-81865366D01*
X112608110Y-81850950D01*
X112593694Y-81835044D01*
X112580906Y-81817801D01*
X112569870Y-81799388D01*
X112560691Y-81779982D01*
X112553459Y-81759770D01*
X112548243Y-81738946D01*
X112545093Y-81717711D01*
X112544040Y-81696270D01*
X112544040Y-81183770D01*
X112545093Y-81162329D01*
X112548243Y-81141094D01*
X112553459Y-81120270D01*
X112560691Y-81100058D01*
X112569870Y-81080652D01*
X112580906Y-81062239D01*
X112593694Y-81044996D01*
X112608110Y-81029090D01*
X112624016Y-81014674D01*
X112641259Y-81001886D01*
X112659672Y-80990850D01*
X112679078Y-80981671D01*
X112699290Y-80974439D01*
X112720114Y-80969223D01*
X112741349Y-80966073D01*
X112762790Y-80965020D01*
X113200290Y-80965020D01*
X113221731Y-80966073D01*
X113221731Y-80966073D01*
G37*
D14*
G04 #@! TD*
G04 #@! TO.P,R3,2*
G04 #@! TO.N,d16*
X112981540Y-81440020D03*
D11*
G04 #@! TO.P,J1,1*
G04 #@! TO.N,CE2*
X113284000Y-88646000D03*
D12*
G04 #@! TO.P,J1,2*
G04 #@! TO.N,vccC*
X113284000Y-91186000D03*
G04 #@! TD*
D11*
G04 #@! TO.P,J2,1*
G04 #@! TO.N,vccC*
X112050000Y-98350000D03*
D12*
G04 #@! TO.P,J2,2*
G04 #@! TO.N,Net-(J2-Pad2)*
X114590000Y-98350000D03*
G04 #@! TO.P,J2,3*
G04 #@! TO.N,GND*
X117130000Y-98350000D03*
G04 #@! TO.P,J2,4*
G04 #@! TO.N,008.17*
X119670000Y-98350000D03*
G04 #@! TO.P,J2,5*
G04 #@! TO.N,008.5*
X122210000Y-98350000D03*
G04 #@! TO.P,J2,6*
G04 #@! TO.N,008.3*
X124750000Y-98350000D03*
G04 #@! TO.P,J2,7*
G04 #@! TO.N,008.1*
X127290000Y-98350000D03*
G04 #@! TD*
D15*
G04 #@! TO.N,GND*
X119067580Y-94208600D03*
X124689143Y-79206817D03*
X114556540Y-81440008D03*
G04 #@! TO.N,a17*
X121897140Y-82042002D03*
G04 #@! TO.N,a16*
X114112040Y-95089980D03*
X122072277Y-87622277D03*
G04 #@! TO.N,a15*
X125355820Y-87258442D03*
G04 #@! TO.N,a14*
X125367000Y-86474019D03*
G04 #@! TO.N,a13*
X121397039Y-86808083D03*
G04 #@! TO.N,a12*
X121599543Y-85964792D03*
G04 #@! TO.N,a11*
X122509280Y-88031320D03*
G04 #@! TO.N,a10*
X122387040Y-87199588D03*
G04 #@! TO.N,a7*
X123609643Y-91976483D03*
G04 #@! TO.N,a6*
X128018540Y-91358720D03*
G04 #@! TO.N,a5*
X131244340Y-88318340D03*
G04 #@! TO.N,a4*
X132046980Y-90309702D03*
G04 #@! TO.N,a3*
X132509260Y-88140540D03*
G04 #@! TO.N,d0*
X128546133Y-90192133D03*
G04 #@! TO.N,d1*
X127215900Y-90932000D03*
G04 #@! TO.N,d2*
X127625490Y-89836073D03*
G04 #@! TO.N,d3*
X126402803Y-90334803D03*
G04 #@! TO.N,d4*
X124968000Y-91186000D03*
G04 #@! TO.N,d5*
X124214596Y-91399238D03*
G04 #@! TO.N,d6*
X125385989Y-88687405D03*
G04 #@! TO.N,d7*
X124599023Y-88765798D03*
G04 #@! TO.N,d13*
X125375754Y-85680975D03*
X123804423Y-82697577D03*
G04 #@! TO.N,vss*
X120701000Y-94234000D03*
X125460217Y-89575097D03*
X118404640Y-87894158D03*
X123918881Y-80551617D03*
G04 #@! TO.N,CE2*
X122748040Y-94315280D03*
X116192895Y-94480380D03*
X123648555Y-81411500D03*
G04 #@! TD*
D16*
G04 #@! TO.N,GND*
X128367000Y-85743000D02*
X129117000Y-85743000D01*
X129117000Y-85743000D02*
X129117000Y-84993000D01*
X129117000Y-83634674D02*
X124889142Y-79406816D01*
X124889142Y-79406816D02*
X124689143Y-79206817D01*
X129117000Y-84993000D02*
X129117000Y-83634674D01*
X116837416Y-83720884D02*
X114756539Y-81640007D01*
X114756539Y-81640007D02*
X114556540Y-81440008D01*
X116837416Y-98057416D02*
X116837416Y-83720884D01*
X117130000Y-98350000D02*
X116837416Y-98057416D01*
G04 #@! TO.N,vccC*
X111970820Y-98300000D02*
X111870000Y-98300000D01*
X111970820Y-92499180D02*
X111970820Y-98300000D01*
X113284000Y-91186000D02*
X111970820Y-92499180D01*
G04 #@! TO.N,a17*
X122237358Y-82042002D02*
X122179982Y-82042002D01*
X124968000Y-85847942D02*
X124968000Y-84772644D01*
X122179982Y-82042002D02*
X121897140Y-82042002D01*
X126867000Y-86493000D02*
X126457501Y-86083501D01*
X125203559Y-86083501D02*
X124968000Y-85847942D01*
X126457501Y-86083501D02*
X125203559Y-86083501D01*
X124968000Y-84772644D02*
X122237358Y-82042002D01*
G04 #@! TO.N,a16*
X114394882Y-95089980D02*
X114112040Y-95089980D01*
X116229224Y-95089980D02*
X114394882Y-95089980D01*
X115166181Y-87310001D02*
X116583405Y-88727225D01*
X116583405Y-94735799D02*
X116229224Y-95089980D01*
X116583405Y-88727225D02*
X116583405Y-94735799D01*
X110199999Y-87310001D02*
X115166181Y-87310001D01*
X109350000Y-88160000D02*
X110199999Y-87310001D01*
X122355119Y-87622277D02*
X122072277Y-87622277D01*
X125173740Y-86864520D02*
X124957501Y-87080759D01*
X125738520Y-86864520D02*
X125173740Y-86864520D01*
X126117000Y-87243000D02*
X125738520Y-86864520D01*
X124957501Y-87406441D02*
X124741665Y-87622277D01*
X124741665Y-87622277D02*
X122355119Y-87622277D01*
X124957501Y-87080759D02*
X124957501Y-87406441D01*
G04 #@! TO.N,a13*
X122601300Y-86835904D02*
X122573479Y-86808083D01*
X124209904Y-86835904D02*
X122601300Y-86835904D01*
X124617000Y-87243000D02*
X124209904Y-86835904D01*
X122573479Y-86808083D02*
X121679881Y-86808083D01*
X121679881Y-86808083D02*
X121397039Y-86808083D01*
G04 #@! TO.N,a12*
X124617000Y-86493000D02*
X124211638Y-86087638D01*
X121882385Y-85964792D02*
X121599543Y-85964792D01*
X124211638Y-86087638D02*
X122005231Y-86087638D01*
X122005231Y-86087638D02*
X121882385Y-85964792D01*
G04 #@! TO.N,a11*
X122547600Y-87993000D02*
X122509280Y-88031320D01*
X123867000Y-87993000D02*
X122547600Y-87993000D01*
G04 #@! TO.N,a10*
X123867000Y-87243000D02*
X122430452Y-87243000D01*
X122430452Y-87243000D02*
X122387040Y-87199588D01*
G04 #@! TO.N,a9*
X123654868Y-86493000D02*
X123867000Y-86493000D01*
X121680982Y-86493000D02*
X123654868Y-86493000D01*
X117945559Y-87683859D02*
X119278919Y-86350499D01*
X114430000Y-101100000D02*
X115735180Y-102405180D01*
X119278919Y-86350499D02*
X121538481Y-86350499D01*
X122638820Y-102405180D02*
X123444000Y-101600000D01*
X121538481Y-86350499D02*
X121680982Y-86493000D01*
X123604011Y-97544786D02*
X121889546Y-95830321D01*
X123444000Y-101600000D02*
X123444000Y-99982011D01*
X115735180Y-102405180D02*
X122638820Y-102405180D01*
X123444000Y-99982011D02*
X123604011Y-99822000D01*
X121889546Y-95830321D02*
X119200000Y-95830321D01*
X123604011Y-99822000D02*
X123604011Y-97544786D01*
X119200000Y-95830321D02*
X117945559Y-94575880D01*
X117945559Y-94575880D02*
X117945559Y-87683859D01*
G04 #@! TO.N,a8*
X118420000Y-99650000D02*
X116970000Y-101100000D01*
X119695902Y-85574291D02*
X117691548Y-87578645D01*
X117691548Y-87578645D02*
X117691548Y-94717248D01*
X119300000Y-96325700D02*
X121975700Y-96325700D01*
X123867000Y-85743000D02*
X123698291Y-85574291D01*
X117691548Y-94717248D02*
X119300000Y-96325700D01*
X123698291Y-85574291D02*
X119695902Y-85574291D01*
X121975700Y-96325700D02*
X123350000Y-97700000D01*
X122700000Y-99650000D02*
X118420000Y-99650000D01*
X123350000Y-97700000D02*
X123350000Y-99000000D01*
X123350000Y-99000000D02*
X122700000Y-99650000D01*
G04 #@! TO.N,a7*
X126867000Y-87243000D02*
X126461057Y-87648943D01*
X124780441Y-88333501D02*
X124479055Y-88333501D01*
X123609643Y-91693641D02*
X123609643Y-91976483D01*
X123609643Y-90075477D02*
X123609643Y-91693641D01*
X124207501Y-88605055D02*
X124207501Y-89477619D01*
X124479055Y-88333501D02*
X124207501Y-88605055D01*
X124968000Y-88145942D02*
X124780441Y-88333501D01*
X124968000Y-87888058D02*
X124968000Y-88145942D01*
X126461057Y-87648943D02*
X125207115Y-87648943D01*
X125207115Y-87648943D02*
X124968000Y-87888058D01*
X124207501Y-89477619D02*
X123609643Y-90075477D01*
G04 #@! TO.N,a6*
X127617000Y-87243000D02*
X128018540Y-87644540D01*
X128018540Y-87644540D02*
X128018540Y-91075878D01*
X128018540Y-91075878D02*
X128018540Y-91358720D01*
G04 #@! TO.N,a5*
X129759501Y-86833501D02*
X131044341Y-88118341D01*
X127617000Y-86493000D02*
X127957501Y-86833501D01*
X131044341Y-88118341D02*
X131244340Y-88318340D01*
X127957501Y-86833501D02*
X129759501Y-86833501D01*
G04 #@! TO.N,a4*
X128367000Y-87243000D02*
X128707501Y-87583501D01*
X128707501Y-87583501D02*
X129320779Y-87583501D01*
X129320779Y-87583501D02*
X131846981Y-90109703D01*
X131846981Y-90109703D02*
X132046980Y-90309702D01*
G04 #@! TO.N,a3*
X132309261Y-87940541D02*
X132509260Y-88140540D01*
X130502660Y-86133940D02*
X132309261Y-87940541D01*
X128726060Y-86133940D02*
X130502660Y-86133940D01*
X128367000Y-86493000D02*
X128726060Y-86133940D01*
G04 #@! TO.N,a2*
X131584700Y-100474700D02*
X132210000Y-101100000D01*
X131584700Y-90331475D02*
X131584700Y-100474700D01*
X129246225Y-87993000D02*
X131584700Y-90331475D01*
X129117000Y-87993000D02*
X129246225Y-87993000D01*
G04 #@! TO.N,a1*
X134750000Y-99897919D02*
X134750000Y-101100000D01*
X134750000Y-92381438D02*
X134750000Y-99897919D01*
X129611562Y-87243000D02*
X134750000Y-92381438D01*
X129117000Y-87243000D02*
X129611562Y-87243000D01*
G04 #@! TO.N,a0*
X137290000Y-100123000D02*
X137290000Y-101100000D01*
X129117000Y-86493000D02*
X130200144Y-86493000D01*
X130200144Y-86493000D02*
X137290000Y-93582856D01*
X137290000Y-93582856D02*
X137290000Y-100123000D01*
G04 #@! TO.N,d0*
X128546133Y-88922133D02*
X128546133Y-89909291D01*
X128546133Y-89909291D02*
X128546133Y-90192133D01*
X128367000Y-88743000D02*
X128546133Y-88922133D01*
G04 #@! TO.N,d1*
X127215900Y-88394100D02*
X127215900Y-90649158D01*
X127617000Y-87993000D02*
X127215900Y-88394100D01*
X127215900Y-90649158D02*
X127215900Y-90932000D01*
G04 #@! TO.N,d2*
X127617000Y-89827583D02*
X127625490Y-89836073D01*
X127617000Y-88743000D02*
X127617000Y-89827583D01*
G04 #@! TO.N,d3*
X126497080Y-88362920D02*
X126497080Y-89957684D01*
X126497080Y-89957684D02*
X126402803Y-90051961D01*
X126867000Y-87993000D02*
X126497080Y-88362920D01*
X126402803Y-90051961D02*
X126402803Y-90334803D01*
G04 #@! TO.N,d4*
X125776499Y-88899591D02*
X125776499Y-88333501D01*
X124968000Y-91186000D02*
X125069716Y-91084284D01*
X125069716Y-91084284D02*
X125069716Y-89396360D01*
X125069716Y-89396360D02*
X125382538Y-89083538D01*
X125382538Y-89083538D02*
X125592552Y-89083538D01*
X125592552Y-89083538D02*
X125776499Y-88899591D01*
X125776499Y-88333501D02*
X125967001Y-88142999D01*
X125967001Y-88142999D02*
X126117000Y-87993000D01*
G04 #@! TO.N,d5*
X124995488Y-89102660D02*
X124214596Y-89883552D01*
X124995488Y-88499964D02*
X124995488Y-89102660D01*
X125367000Y-87993000D02*
X125367000Y-88128452D01*
X124214596Y-91116396D02*
X124214596Y-91399238D01*
X125367000Y-88128452D02*
X124995488Y-88499964D01*
X124214596Y-89883552D02*
X124214596Y-91116396D01*
G04 #@! TO.N,d8*
X124218700Y-75521300D02*
X124540000Y-75200000D01*
X124218700Y-79288640D02*
X124218700Y-75521300D01*
X128367000Y-83436940D02*
X124218700Y-79288640D01*
X128367000Y-84993000D02*
X128367000Y-83436940D01*
G04 #@! TO.N,d9*
X122000000Y-76402081D02*
X122000000Y-75200000D01*
X122000000Y-77550000D02*
X122000000Y-76402081D01*
X127617000Y-83167000D02*
X122000000Y-77550000D01*
X127617000Y-84993000D02*
X127617000Y-83167000D01*
G04 #@! TO.N,d10*
X127256540Y-83311334D02*
X119460000Y-75514794D01*
X127256540Y-85382540D02*
X127256540Y-83311334D01*
X119460000Y-75514794D02*
X119460000Y-75200000D01*
X127617000Y-85743000D02*
X127256540Y-85382540D01*
G04 #@! TO.N,d11*
X117244014Y-75200000D02*
X116920000Y-75200000D01*
X119188894Y-77144880D02*
X117244014Y-75200000D01*
X119959879Y-77144880D02*
X119188894Y-77144880D01*
X126461509Y-83646510D02*
X119959879Y-77144880D01*
X126461509Y-85337509D02*
X126461509Y-83646510D01*
X126867000Y-85743000D02*
X126461509Y-85337509D01*
G04 #@! TO.N,d12*
X115229999Y-76049999D02*
X114380000Y-75200000D01*
X116825260Y-77645260D02*
X115229999Y-76049999D01*
X119330050Y-77645260D02*
X116825260Y-77645260D01*
X125750320Y-84065530D02*
X119330050Y-77645260D01*
X125750320Y-85376320D02*
X125750320Y-84065530D01*
X126117000Y-85743000D02*
X125750320Y-85376320D01*
G04 #@! TO.N,d13*
X123668491Y-82697577D02*
X123804423Y-82697577D01*
X119187674Y-78216760D02*
X123668491Y-82697577D01*
X114856760Y-78216760D02*
X119187674Y-78216760D01*
X111840000Y-75200000D02*
X114856760Y-78216760D01*
G04 #@! TO.N,d14*
X110149999Y-76049999D02*
X109300000Y-75200000D01*
X119294580Y-78740000D02*
X112840000Y-78740000D01*
X112840000Y-78740000D02*
X110149999Y-76049999D01*
X125367000Y-84812420D02*
X119294580Y-78740000D01*
X125367000Y-84993000D02*
X125367000Y-84812420D01*
G04 #@! TO.N,d15*
X117902457Y-79407581D02*
X111734581Y-79407581D01*
X111734581Y-79407581D02*
X110327000Y-78000000D01*
X120970558Y-82475682D02*
X117902457Y-79407581D01*
X122311814Y-82475682D02*
X120970558Y-82475682D01*
X124617000Y-84780868D02*
X122311814Y-82475682D01*
X110327000Y-78000000D02*
X109350000Y-78000000D01*
X124617000Y-84993000D02*
X124617000Y-84780868D01*
G04 #@! TO.N,d16*
X112081520Y-80540000D02*
X112981540Y-81440020D01*
X109350000Y-80540000D02*
X112081520Y-80540000D01*
X111341560Y-83080000D02*
X109350000Y-83080000D01*
X112981540Y-81440020D02*
X111341560Y-83080000D01*
G04 #@! TO.N,008.17*
X120223743Y-84328000D02*
X117167627Y-87384116D01*
X124617000Y-85743000D02*
X124276499Y-85402499D01*
X123741552Y-84328000D02*
X120223743Y-84328000D01*
X124276499Y-84862948D02*
X123741552Y-84328000D01*
X124276499Y-85402499D02*
X124276499Y-84862948D01*
X117167627Y-95847627D02*
X117167627Y-95500000D01*
X119670000Y-98350000D02*
X117167627Y-95847627D01*
X117167627Y-87384116D02*
X117167627Y-95500000D01*
G04 #@! TO.N,008.5*
X123654868Y-84993000D02*
X123867000Y-84993000D01*
X119917968Y-84993000D02*
X123654868Y-84993000D01*
X117437537Y-87473431D02*
X119917968Y-84993000D01*
X120850000Y-96600000D02*
X119037537Y-96600000D01*
X117437537Y-95000000D02*
X117437537Y-87473431D01*
X119037537Y-96600000D02*
X117437537Y-95000000D01*
X122210000Y-97960000D02*
X120850000Y-96600000D01*
X122210000Y-98350000D02*
X122210000Y-97960000D01*
G04 #@! TO.N,008.3*
X124570000Y-98300000D02*
X124570000Y-97723180D01*
X124750000Y-94635760D02*
X124345700Y-94231460D01*
X124750000Y-98350000D02*
X124750000Y-94635760D01*
X124404868Y-87993000D02*
X124617000Y-87993000D01*
X123900001Y-97500001D02*
X123900001Y-97481551D01*
X124002339Y-88395529D02*
X124404868Y-87993000D01*
X121983500Y-90122558D02*
X123710529Y-88395529D01*
X123710529Y-88395529D02*
X124002339Y-88395529D01*
X124750000Y-98350000D02*
X123900001Y-97500001D01*
X121983500Y-95565050D02*
X121983500Y-90122558D01*
X123900001Y-97481551D02*
X121983500Y-95565050D01*
G04 #@! TO.N,008.1*
X127290000Y-95003180D02*
X128059180Y-94234000D01*
X127290000Y-98350000D02*
X127290000Y-95003180D01*
X128516999Y-88142999D02*
X128367000Y-87993000D01*
X128707501Y-88333501D02*
X128516999Y-88142999D01*
X129211443Y-88333501D02*
X128707501Y-88333501D01*
X129457501Y-88579559D02*
X129211443Y-88333501D01*
X129457501Y-92835679D02*
X129457501Y-88579559D01*
X128059180Y-94234000D02*
X129457501Y-92835679D01*
G04 #@! TO.N,vss*
X126117000Y-88955132D02*
X125497035Y-89575097D01*
X126117000Y-88743000D02*
X126117000Y-88955132D01*
X125497035Y-89575097D02*
X125460217Y-89575097D01*
X120701000Y-94234000D02*
X118404640Y-91937640D01*
X118404640Y-88177000D02*
X118404640Y-87894158D01*
X118404640Y-91937640D02*
X118404640Y-88177000D01*
X126867000Y-84993000D02*
X126867000Y-83499736D01*
X126867000Y-83499736D02*
X124118880Y-80751616D01*
X124118880Y-80751616D02*
X123918881Y-80551617D01*
G04 #@! TO.N,CE2*
X129117000Y-91601180D02*
X126484180Y-94234000D01*
X129117000Y-88743000D02*
X129117000Y-91601180D01*
X126484180Y-91067996D02*
X126484180Y-93659000D01*
X126867000Y-90685176D02*
X126484180Y-91067996D01*
X126484180Y-93659000D02*
X126484180Y-94234000D01*
X126867000Y-88743000D02*
X126867000Y-90685176D01*
X126022568Y-93772388D02*
X126484180Y-94234000D01*
X125816130Y-93565950D02*
X126022568Y-93772388D01*
X123436210Y-93565950D02*
X125816130Y-93565950D01*
X122770700Y-94231460D02*
X123436210Y-93565950D01*
X113284000Y-89623000D02*
X116192895Y-92531895D01*
X116192895Y-92531895D02*
X116192895Y-94197538D01*
X113284000Y-88646000D02*
X113284000Y-89623000D01*
X116192895Y-94197538D02*
X116192895Y-94480380D01*
X123848554Y-81611499D02*
X123648555Y-81411500D01*
X126117000Y-83879945D02*
X123848554Y-81611499D01*
X126117000Y-84993000D02*
X126117000Y-83879945D01*
G04 #@! TD*
M02*
