G04 #@! TF.GenerationSoftware,KiCad,Pcbnew,5.0.1-33cea8e~68~ubuntu14.04.1*
G04 #@! TF.CreationDate,2018-11-21T01:39:52-08:00*
G04 #@! TF.ProjectId,sram-addon,7372616D2D6164646F6E2E6B69636164,rev?*
G04 #@! TF.SameCoordinates,Original*
G04 #@! TF.FileFunction,Paste,Top*
G04 #@! TF.FilePolarity,Positive*
%FSLAX46Y46*%
G04 Gerber Fmt 4.6, Leading zero omitted, Abs format (unit mm)*
G04 Created by KiCad (PCBNEW 5.0.1-33cea8e~68~ubuntu14.04.1) date Wed 21 Nov 2018 01:39:52 AM PST*
%MOMM*%
%LPD*%
G01*
G04 APERTURE LIST*
%ADD10C,0.300000*%
%ADD11C,0.100000*%
%ADD12C,0.875000*%
G04 APERTURE END LIST*
D10*
G04 #@! TO.C,U1*
X129117000Y-84993000D03*
X128367000Y-84993000D03*
X127617000Y-84993000D03*
X126867000Y-84993000D03*
X126117000Y-84993000D03*
X125367000Y-84993000D03*
X124617000Y-84993000D03*
X123867000Y-84993000D03*
X129117000Y-85743000D03*
X128367000Y-85743000D03*
X127617000Y-85743000D03*
X126867000Y-85743000D03*
X126117000Y-85743000D03*
X125367000Y-85743000D03*
X124617000Y-85743000D03*
X123867000Y-85743000D03*
X129117000Y-86493000D03*
X128367000Y-86493000D03*
X127617000Y-86493000D03*
X126867000Y-86493000D03*
X126117000Y-86493000D03*
X125367000Y-86493000D03*
X124617000Y-86493000D03*
X123867000Y-86493000D03*
X129117000Y-87243000D03*
X128367000Y-87243000D03*
X127617000Y-87243000D03*
X126867000Y-87243000D03*
X126117000Y-87243000D03*
X125367000Y-87243000D03*
X124617000Y-87243000D03*
X123867000Y-87243000D03*
X129117000Y-87993000D03*
X128367000Y-87993000D03*
X127617000Y-87993000D03*
X126867000Y-87993000D03*
X126117000Y-87993000D03*
X125367000Y-87993000D03*
X124617000Y-87993000D03*
X123867000Y-87993000D03*
X129117000Y-88743000D03*
X128367000Y-88743000D03*
X127617000Y-88743000D03*
X126867000Y-88743000D03*
X126117000Y-88743000D03*
X125367000Y-88743000D03*
X124617000Y-88743000D03*
X123867000Y-88743000D03*
G04 #@! TD*
D11*
G04 #@! TO.C,C1*
G36*
X119366191Y-93760053D02*
X119387426Y-93763203D01*
X119408250Y-93768419D01*
X119428462Y-93775651D01*
X119447868Y-93784830D01*
X119466281Y-93795866D01*
X119483524Y-93808654D01*
X119499430Y-93823070D01*
X119513846Y-93838976D01*
X119526634Y-93856219D01*
X119537670Y-93874632D01*
X119546849Y-93894038D01*
X119554081Y-93914250D01*
X119559297Y-93935074D01*
X119562447Y-93956309D01*
X119563500Y-93977750D01*
X119563500Y-94490250D01*
X119562447Y-94511691D01*
X119559297Y-94532926D01*
X119554081Y-94553750D01*
X119546849Y-94573962D01*
X119537670Y-94593368D01*
X119526634Y-94611781D01*
X119513846Y-94629024D01*
X119499430Y-94644930D01*
X119483524Y-94659346D01*
X119466281Y-94672134D01*
X119447868Y-94683170D01*
X119428462Y-94692349D01*
X119408250Y-94699581D01*
X119387426Y-94704797D01*
X119366191Y-94707947D01*
X119344750Y-94709000D01*
X118907250Y-94709000D01*
X118885809Y-94707947D01*
X118864574Y-94704797D01*
X118843750Y-94699581D01*
X118823538Y-94692349D01*
X118804132Y-94683170D01*
X118785719Y-94672134D01*
X118768476Y-94659346D01*
X118752570Y-94644930D01*
X118738154Y-94629024D01*
X118725366Y-94611781D01*
X118714330Y-94593368D01*
X118705151Y-94573962D01*
X118697919Y-94553750D01*
X118692703Y-94532926D01*
X118689553Y-94511691D01*
X118688500Y-94490250D01*
X118688500Y-93977750D01*
X118689553Y-93956309D01*
X118692703Y-93935074D01*
X118697919Y-93914250D01*
X118705151Y-93894038D01*
X118714330Y-93874632D01*
X118725366Y-93856219D01*
X118738154Y-93838976D01*
X118752570Y-93823070D01*
X118768476Y-93808654D01*
X118785719Y-93795866D01*
X118804132Y-93784830D01*
X118823538Y-93775651D01*
X118843750Y-93768419D01*
X118864574Y-93763203D01*
X118885809Y-93760053D01*
X118907250Y-93759000D01*
X119344750Y-93759000D01*
X119366191Y-93760053D01*
X119366191Y-93760053D01*
G37*
D12*
X119126000Y-94234000D03*
D11*
G36*
X120941191Y-93760053D02*
X120962426Y-93763203D01*
X120983250Y-93768419D01*
X121003462Y-93775651D01*
X121022868Y-93784830D01*
X121041281Y-93795866D01*
X121058524Y-93808654D01*
X121074430Y-93823070D01*
X121088846Y-93838976D01*
X121101634Y-93856219D01*
X121112670Y-93874632D01*
X121121849Y-93894038D01*
X121129081Y-93914250D01*
X121134297Y-93935074D01*
X121137447Y-93956309D01*
X121138500Y-93977750D01*
X121138500Y-94490250D01*
X121137447Y-94511691D01*
X121134297Y-94532926D01*
X121129081Y-94553750D01*
X121121849Y-94573962D01*
X121112670Y-94593368D01*
X121101634Y-94611781D01*
X121088846Y-94629024D01*
X121074430Y-94644930D01*
X121058524Y-94659346D01*
X121041281Y-94672134D01*
X121022868Y-94683170D01*
X121003462Y-94692349D01*
X120983250Y-94699581D01*
X120962426Y-94704797D01*
X120941191Y-94707947D01*
X120919750Y-94709000D01*
X120482250Y-94709000D01*
X120460809Y-94707947D01*
X120439574Y-94704797D01*
X120418750Y-94699581D01*
X120398538Y-94692349D01*
X120379132Y-94683170D01*
X120360719Y-94672134D01*
X120343476Y-94659346D01*
X120327570Y-94644930D01*
X120313154Y-94629024D01*
X120300366Y-94611781D01*
X120289330Y-94593368D01*
X120280151Y-94573962D01*
X120272919Y-94553750D01*
X120267703Y-94532926D01*
X120264553Y-94511691D01*
X120263500Y-94490250D01*
X120263500Y-93977750D01*
X120264553Y-93956309D01*
X120267703Y-93935074D01*
X120272919Y-93914250D01*
X120280151Y-93894038D01*
X120289330Y-93874632D01*
X120300366Y-93856219D01*
X120313154Y-93838976D01*
X120327570Y-93823070D01*
X120343476Y-93808654D01*
X120360719Y-93795866D01*
X120379132Y-93784830D01*
X120398538Y-93775651D01*
X120418750Y-93768419D01*
X120439574Y-93763203D01*
X120460809Y-93760053D01*
X120482250Y-93759000D01*
X120919750Y-93759000D01*
X120941191Y-93760053D01*
X120941191Y-93760053D01*
G37*
D12*
X120701000Y-94234000D03*
G04 #@! TD*
D11*
G04 #@! TO.C,R1*
G36*
X128299371Y-93760053D02*
X128320606Y-93763203D01*
X128341430Y-93768419D01*
X128361642Y-93775651D01*
X128381048Y-93784830D01*
X128399461Y-93795866D01*
X128416704Y-93808654D01*
X128432610Y-93823070D01*
X128447026Y-93838976D01*
X128459814Y-93856219D01*
X128470850Y-93874632D01*
X128480029Y-93894038D01*
X128487261Y-93914250D01*
X128492477Y-93935074D01*
X128495627Y-93956309D01*
X128496680Y-93977750D01*
X128496680Y-94490250D01*
X128495627Y-94511691D01*
X128492477Y-94532926D01*
X128487261Y-94553750D01*
X128480029Y-94573962D01*
X128470850Y-94593368D01*
X128459814Y-94611781D01*
X128447026Y-94629024D01*
X128432610Y-94644930D01*
X128416704Y-94659346D01*
X128399461Y-94672134D01*
X128381048Y-94683170D01*
X128361642Y-94692349D01*
X128341430Y-94699581D01*
X128320606Y-94704797D01*
X128299371Y-94707947D01*
X128277930Y-94709000D01*
X127840430Y-94709000D01*
X127818989Y-94707947D01*
X127797754Y-94704797D01*
X127776930Y-94699581D01*
X127756718Y-94692349D01*
X127737312Y-94683170D01*
X127718899Y-94672134D01*
X127701656Y-94659346D01*
X127685750Y-94644930D01*
X127671334Y-94629024D01*
X127658546Y-94611781D01*
X127647510Y-94593368D01*
X127638331Y-94573962D01*
X127631099Y-94553750D01*
X127625883Y-94532926D01*
X127622733Y-94511691D01*
X127621680Y-94490250D01*
X127621680Y-93977750D01*
X127622733Y-93956309D01*
X127625883Y-93935074D01*
X127631099Y-93914250D01*
X127638331Y-93894038D01*
X127647510Y-93874632D01*
X127658546Y-93856219D01*
X127671334Y-93838976D01*
X127685750Y-93823070D01*
X127701656Y-93808654D01*
X127718899Y-93795866D01*
X127737312Y-93784830D01*
X127756718Y-93775651D01*
X127776930Y-93768419D01*
X127797754Y-93763203D01*
X127818989Y-93760053D01*
X127840430Y-93759000D01*
X128277930Y-93759000D01*
X128299371Y-93760053D01*
X128299371Y-93760053D01*
G37*
D12*
X128059180Y-94234000D03*
D11*
G36*
X126724371Y-93760053D02*
X126745606Y-93763203D01*
X126766430Y-93768419D01*
X126786642Y-93775651D01*
X126806048Y-93784830D01*
X126824461Y-93795866D01*
X126841704Y-93808654D01*
X126857610Y-93823070D01*
X126872026Y-93838976D01*
X126884814Y-93856219D01*
X126895850Y-93874632D01*
X126905029Y-93894038D01*
X126912261Y-93914250D01*
X126917477Y-93935074D01*
X126920627Y-93956309D01*
X126921680Y-93977750D01*
X126921680Y-94490250D01*
X126920627Y-94511691D01*
X126917477Y-94532926D01*
X126912261Y-94553750D01*
X126905029Y-94573962D01*
X126895850Y-94593368D01*
X126884814Y-94611781D01*
X126872026Y-94629024D01*
X126857610Y-94644930D01*
X126841704Y-94659346D01*
X126824461Y-94672134D01*
X126806048Y-94683170D01*
X126786642Y-94692349D01*
X126766430Y-94699581D01*
X126745606Y-94704797D01*
X126724371Y-94707947D01*
X126702930Y-94709000D01*
X126265430Y-94709000D01*
X126243989Y-94707947D01*
X126222754Y-94704797D01*
X126201930Y-94699581D01*
X126181718Y-94692349D01*
X126162312Y-94683170D01*
X126143899Y-94672134D01*
X126126656Y-94659346D01*
X126110750Y-94644930D01*
X126096334Y-94629024D01*
X126083546Y-94611781D01*
X126072510Y-94593368D01*
X126063331Y-94573962D01*
X126056099Y-94553750D01*
X126050883Y-94532926D01*
X126047733Y-94511691D01*
X126046680Y-94490250D01*
X126046680Y-93977750D01*
X126047733Y-93956309D01*
X126050883Y-93935074D01*
X126056099Y-93914250D01*
X126063331Y-93894038D01*
X126072510Y-93874632D01*
X126083546Y-93856219D01*
X126096334Y-93838976D01*
X126110750Y-93823070D01*
X126126656Y-93808654D01*
X126143899Y-93795866D01*
X126162312Y-93784830D01*
X126181718Y-93775651D01*
X126201930Y-93768419D01*
X126222754Y-93763203D01*
X126243989Y-93760053D01*
X126265430Y-93759000D01*
X126702930Y-93759000D01*
X126724371Y-93760053D01*
X126724371Y-93760053D01*
G37*
D12*
X126484180Y-94234000D03*
G04 #@! TD*
D11*
G04 #@! TO.C,R2*
G36*
X123010891Y-93757513D02*
X123032126Y-93760663D01*
X123052950Y-93765879D01*
X123073162Y-93773111D01*
X123092568Y-93782290D01*
X123110981Y-93793326D01*
X123128224Y-93806114D01*
X123144130Y-93820530D01*
X123158546Y-93836436D01*
X123171334Y-93853679D01*
X123182370Y-93872092D01*
X123191549Y-93891498D01*
X123198781Y-93911710D01*
X123203997Y-93932534D01*
X123207147Y-93953769D01*
X123208200Y-93975210D01*
X123208200Y-94487710D01*
X123207147Y-94509151D01*
X123203997Y-94530386D01*
X123198781Y-94551210D01*
X123191549Y-94571422D01*
X123182370Y-94590828D01*
X123171334Y-94609241D01*
X123158546Y-94626484D01*
X123144130Y-94642390D01*
X123128224Y-94656806D01*
X123110981Y-94669594D01*
X123092568Y-94680630D01*
X123073162Y-94689809D01*
X123052950Y-94697041D01*
X123032126Y-94702257D01*
X123010891Y-94705407D01*
X122989450Y-94706460D01*
X122551950Y-94706460D01*
X122530509Y-94705407D01*
X122509274Y-94702257D01*
X122488450Y-94697041D01*
X122468238Y-94689809D01*
X122448832Y-94680630D01*
X122430419Y-94669594D01*
X122413176Y-94656806D01*
X122397270Y-94642390D01*
X122382854Y-94626484D01*
X122370066Y-94609241D01*
X122359030Y-94590828D01*
X122349851Y-94571422D01*
X122342619Y-94551210D01*
X122337403Y-94530386D01*
X122334253Y-94509151D01*
X122333200Y-94487710D01*
X122333200Y-93975210D01*
X122334253Y-93953769D01*
X122337403Y-93932534D01*
X122342619Y-93911710D01*
X122349851Y-93891498D01*
X122359030Y-93872092D01*
X122370066Y-93853679D01*
X122382854Y-93836436D01*
X122397270Y-93820530D01*
X122413176Y-93806114D01*
X122430419Y-93793326D01*
X122448832Y-93782290D01*
X122468238Y-93773111D01*
X122488450Y-93765879D01*
X122509274Y-93760663D01*
X122530509Y-93757513D01*
X122551950Y-93756460D01*
X122989450Y-93756460D01*
X123010891Y-93757513D01*
X123010891Y-93757513D01*
G37*
D12*
X122770700Y-94231460D03*
D11*
G36*
X124585891Y-93757513D02*
X124607126Y-93760663D01*
X124627950Y-93765879D01*
X124648162Y-93773111D01*
X124667568Y-93782290D01*
X124685981Y-93793326D01*
X124703224Y-93806114D01*
X124719130Y-93820530D01*
X124733546Y-93836436D01*
X124746334Y-93853679D01*
X124757370Y-93872092D01*
X124766549Y-93891498D01*
X124773781Y-93911710D01*
X124778997Y-93932534D01*
X124782147Y-93953769D01*
X124783200Y-93975210D01*
X124783200Y-94487710D01*
X124782147Y-94509151D01*
X124778997Y-94530386D01*
X124773781Y-94551210D01*
X124766549Y-94571422D01*
X124757370Y-94590828D01*
X124746334Y-94609241D01*
X124733546Y-94626484D01*
X124719130Y-94642390D01*
X124703224Y-94656806D01*
X124685981Y-94669594D01*
X124667568Y-94680630D01*
X124648162Y-94689809D01*
X124627950Y-94697041D01*
X124607126Y-94702257D01*
X124585891Y-94705407D01*
X124564450Y-94706460D01*
X124126950Y-94706460D01*
X124105509Y-94705407D01*
X124084274Y-94702257D01*
X124063450Y-94697041D01*
X124043238Y-94689809D01*
X124023832Y-94680630D01*
X124005419Y-94669594D01*
X123988176Y-94656806D01*
X123972270Y-94642390D01*
X123957854Y-94626484D01*
X123945066Y-94609241D01*
X123934030Y-94590828D01*
X123924851Y-94571422D01*
X123917619Y-94551210D01*
X123912403Y-94530386D01*
X123909253Y-94509151D01*
X123908200Y-94487710D01*
X123908200Y-93975210D01*
X123909253Y-93953769D01*
X123912403Y-93932534D01*
X123917619Y-93911710D01*
X123924851Y-93891498D01*
X123934030Y-93872092D01*
X123945066Y-93853679D01*
X123957854Y-93836436D01*
X123972270Y-93820530D01*
X123988176Y-93806114D01*
X124005419Y-93793326D01*
X124023832Y-93782290D01*
X124043238Y-93773111D01*
X124063450Y-93765879D01*
X124084274Y-93760663D01*
X124105509Y-93757513D01*
X124126950Y-93756460D01*
X124564450Y-93756460D01*
X124585891Y-93757513D01*
X124585891Y-93757513D01*
G37*
D12*
X124345700Y-94231460D03*
G04 #@! TD*
D11*
G04 #@! TO.C,R3*
G36*
X114796731Y-80966073D02*
X114817966Y-80969223D01*
X114838790Y-80974439D01*
X114859002Y-80981671D01*
X114878408Y-80990850D01*
X114896821Y-81001886D01*
X114914064Y-81014674D01*
X114929970Y-81029090D01*
X114944386Y-81044996D01*
X114957174Y-81062239D01*
X114968210Y-81080652D01*
X114977389Y-81100058D01*
X114984621Y-81120270D01*
X114989837Y-81141094D01*
X114992987Y-81162329D01*
X114994040Y-81183770D01*
X114994040Y-81696270D01*
X114992987Y-81717711D01*
X114989837Y-81738946D01*
X114984621Y-81759770D01*
X114977389Y-81779982D01*
X114968210Y-81799388D01*
X114957174Y-81817801D01*
X114944386Y-81835044D01*
X114929970Y-81850950D01*
X114914064Y-81865366D01*
X114896821Y-81878154D01*
X114878408Y-81889190D01*
X114859002Y-81898369D01*
X114838790Y-81905601D01*
X114817966Y-81910817D01*
X114796731Y-81913967D01*
X114775290Y-81915020D01*
X114337790Y-81915020D01*
X114316349Y-81913967D01*
X114295114Y-81910817D01*
X114274290Y-81905601D01*
X114254078Y-81898369D01*
X114234672Y-81889190D01*
X114216259Y-81878154D01*
X114199016Y-81865366D01*
X114183110Y-81850950D01*
X114168694Y-81835044D01*
X114155906Y-81817801D01*
X114144870Y-81799388D01*
X114135691Y-81779982D01*
X114128459Y-81759770D01*
X114123243Y-81738946D01*
X114120093Y-81717711D01*
X114119040Y-81696270D01*
X114119040Y-81183770D01*
X114120093Y-81162329D01*
X114123243Y-81141094D01*
X114128459Y-81120270D01*
X114135691Y-81100058D01*
X114144870Y-81080652D01*
X114155906Y-81062239D01*
X114168694Y-81044996D01*
X114183110Y-81029090D01*
X114199016Y-81014674D01*
X114216259Y-81001886D01*
X114234672Y-80990850D01*
X114254078Y-80981671D01*
X114274290Y-80974439D01*
X114295114Y-80969223D01*
X114316349Y-80966073D01*
X114337790Y-80965020D01*
X114775290Y-80965020D01*
X114796731Y-80966073D01*
X114796731Y-80966073D01*
G37*
D12*
X114556540Y-81440020D03*
D11*
G36*
X113221731Y-80966073D02*
X113242966Y-80969223D01*
X113263790Y-80974439D01*
X113284002Y-80981671D01*
X113303408Y-80990850D01*
X113321821Y-81001886D01*
X113339064Y-81014674D01*
X113354970Y-81029090D01*
X113369386Y-81044996D01*
X113382174Y-81062239D01*
X113393210Y-81080652D01*
X113402389Y-81100058D01*
X113409621Y-81120270D01*
X113414837Y-81141094D01*
X113417987Y-81162329D01*
X113419040Y-81183770D01*
X113419040Y-81696270D01*
X113417987Y-81717711D01*
X113414837Y-81738946D01*
X113409621Y-81759770D01*
X113402389Y-81779982D01*
X113393210Y-81799388D01*
X113382174Y-81817801D01*
X113369386Y-81835044D01*
X113354970Y-81850950D01*
X113339064Y-81865366D01*
X113321821Y-81878154D01*
X113303408Y-81889190D01*
X113284002Y-81898369D01*
X113263790Y-81905601D01*
X113242966Y-81910817D01*
X113221731Y-81913967D01*
X113200290Y-81915020D01*
X112762790Y-81915020D01*
X112741349Y-81913967D01*
X112720114Y-81910817D01*
X112699290Y-81905601D01*
X112679078Y-81898369D01*
X112659672Y-81889190D01*
X112641259Y-81878154D01*
X112624016Y-81865366D01*
X112608110Y-81850950D01*
X112593694Y-81835044D01*
X112580906Y-81817801D01*
X112569870Y-81799388D01*
X112560691Y-81779982D01*
X112553459Y-81759770D01*
X112548243Y-81738946D01*
X112545093Y-81717711D01*
X112544040Y-81696270D01*
X112544040Y-81183770D01*
X112545093Y-81162329D01*
X112548243Y-81141094D01*
X112553459Y-81120270D01*
X112560691Y-81100058D01*
X112569870Y-81080652D01*
X112580906Y-81062239D01*
X112593694Y-81044996D01*
X112608110Y-81029090D01*
X112624016Y-81014674D01*
X112641259Y-81001886D01*
X112659672Y-80990850D01*
X112679078Y-80981671D01*
X112699290Y-80974439D01*
X112720114Y-80969223D01*
X112741349Y-80966073D01*
X112762790Y-80965020D01*
X113200290Y-80965020D01*
X113221731Y-80966073D01*
X113221731Y-80966073D01*
G37*
D12*
X112981540Y-81440020D03*
G04 #@! TD*
M02*
