G04 #@! TF.GenerationSoftware,KiCad,Pcbnew,5.0.1-33cea8e~68~ubuntu14.04.1*
G04 #@! TF.CreationDate,2018-11-10T00:36:54-08:00*
G04 #@! TF.ProjectId,sram-addon,7372616D2D6164646F6E2E6B69636164,rev?*
G04 #@! TF.SameCoordinates,Original*
G04 #@! TF.FileFunction,Soldermask,Bot*
G04 #@! TF.FilePolarity,Negative*
%FSLAX46Y46*%
G04 Gerber Fmt 4.6, Leading zero omitted, Abs format (unit mm)*
G04 Created by KiCad (PCBNEW 5.0.1-33cea8e~68~ubuntu14.04.1) date Sat 10 Nov 2018 12:36:54 AM PST*
%MOMM*%
%LPD*%
G01*
G04 APERTURE LIST*
%ADD10C,0.100000*%
G04 APERTURE END LIST*
D10*
G36*
X109460442Y-100205518D02*
X109526627Y-100212037D01*
X109639853Y-100246384D01*
X109696467Y-100263557D01*
X109835087Y-100337652D01*
X109852991Y-100347222D01*
X109888729Y-100376552D01*
X109990186Y-100459814D01*
X110073448Y-100561271D01*
X110102778Y-100597009D01*
X110102779Y-100597011D01*
X110186443Y-100753533D01*
X110186443Y-100753534D01*
X110237963Y-100923373D01*
X110255359Y-101100000D01*
X110237963Y-101276627D01*
X110203616Y-101389853D01*
X110186443Y-101446467D01*
X110112348Y-101585087D01*
X110102778Y-101602991D01*
X110073448Y-101638729D01*
X109990186Y-101740186D01*
X109888729Y-101823448D01*
X109852991Y-101852778D01*
X109852989Y-101852779D01*
X109696467Y-101936443D01*
X109639853Y-101953616D01*
X109526627Y-101987963D01*
X109460442Y-101994482D01*
X109394260Y-102001000D01*
X109305740Y-102001000D01*
X109239558Y-101994482D01*
X109173373Y-101987963D01*
X109060147Y-101953616D01*
X109003533Y-101936443D01*
X108847011Y-101852779D01*
X108847009Y-101852778D01*
X108811271Y-101823448D01*
X108709814Y-101740186D01*
X108626552Y-101638729D01*
X108597222Y-101602991D01*
X108587652Y-101585087D01*
X108513557Y-101446467D01*
X108496384Y-101389853D01*
X108462037Y-101276627D01*
X108444641Y-101100000D01*
X108462037Y-100923373D01*
X108513557Y-100753534D01*
X108513557Y-100753533D01*
X108597221Y-100597011D01*
X108597222Y-100597009D01*
X108626552Y-100561271D01*
X108709814Y-100459814D01*
X108811271Y-100376552D01*
X108847009Y-100347222D01*
X108864913Y-100337652D01*
X109003533Y-100263557D01*
X109060147Y-100246384D01*
X109173373Y-100212037D01*
X109239558Y-100205518D01*
X109305740Y-100199000D01*
X109394260Y-100199000D01*
X109460442Y-100205518D01*
X109460442Y-100205518D01*
G37*
G36*
X134860442Y-100205518D02*
X134926627Y-100212037D01*
X135039853Y-100246384D01*
X135096467Y-100263557D01*
X135235087Y-100337652D01*
X135252991Y-100347222D01*
X135288729Y-100376552D01*
X135390186Y-100459814D01*
X135473448Y-100561271D01*
X135502778Y-100597009D01*
X135502779Y-100597011D01*
X135586443Y-100753533D01*
X135586443Y-100753534D01*
X135637963Y-100923373D01*
X135655359Y-101100000D01*
X135637963Y-101276627D01*
X135603616Y-101389853D01*
X135586443Y-101446467D01*
X135512348Y-101585087D01*
X135502778Y-101602991D01*
X135473448Y-101638729D01*
X135390186Y-101740186D01*
X135288729Y-101823448D01*
X135252991Y-101852778D01*
X135252989Y-101852779D01*
X135096467Y-101936443D01*
X135039853Y-101953616D01*
X134926627Y-101987963D01*
X134860442Y-101994482D01*
X134794260Y-102001000D01*
X134705740Y-102001000D01*
X134639558Y-101994482D01*
X134573373Y-101987963D01*
X134460147Y-101953616D01*
X134403533Y-101936443D01*
X134247011Y-101852779D01*
X134247009Y-101852778D01*
X134211271Y-101823448D01*
X134109814Y-101740186D01*
X134026552Y-101638729D01*
X133997222Y-101602991D01*
X133987652Y-101585087D01*
X133913557Y-101446467D01*
X133896384Y-101389853D01*
X133862037Y-101276627D01*
X133844641Y-101100000D01*
X133862037Y-100923373D01*
X133913557Y-100753534D01*
X133913557Y-100753533D01*
X133997221Y-100597011D01*
X133997222Y-100597009D01*
X134026552Y-100561271D01*
X134109814Y-100459814D01*
X134211271Y-100376552D01*
X134247009Y-100347222D01*
X134264913Y-100337652D01*
X134403533Y-100263557D01*
X134460147Y-100246384D01*
X134573373Y-100212037D01*
X134639558Y-100205518D01*
X134705740Y-100199000D01*
X134794260Y-100199000D01*
X134860442Y-100205518D01*
X134860442Y-100205518D01*
G37*
G36*
X112000442Y-100205518D02*
X112066627Y-100212037D01*
X112179853Y-100246384D01*
X112236467Y-100263557D01*
X112375087Y-100337652D01*
X112392991Y-100347222D01*
X112428729Y-100376552D01*
X112530186Y-100459814D01*
X112613448Y-100561271D01*
X112642778Y-100597009D01*
X112642779Y-100597011D01*
X112726443Y-100753533D01*
X112726443Y-100753534D01*
X112777963Y-100923373D01*
X112795359Y-101100000D01*
X112777963Y-101276627D01*
X112743616Y-101389853D01*
X112726443Y-101446467D01*
X112652348Y-101585087D01*
X112642778Y-101602991D01*
X112613448Y-101638729D01*
X112530186Y-101740186D01*
X112428729Y-101823448D01*
X112392991Y-101852778D01*
X112392989Y-101852779D01*
X112236467Y-101936443D01*
X112179853Y-101953616D01*
X112066627Y-101987963D01*
X112000442Y-101994482D01*
X111934260Y-102001000D01*
X111845740Y-102001000D01*
X111779558Y-101994482D01*
X111713373Y-101987963D01*
X111600147Y-101953616D01*
X111543533Y-101936443D01*
X111387011Y-101852779D01*
X111387009Y-101852778D01*
X111351271Y-101823448D01*
X111249814Y-101740186D01*
X111166552Y-101638729D01*
X111137222Y-101602991D01*
X111127652Y-101585087D01*
X111053557Y-101446467D01*
X111036384Y-101389853D01*
X111002037Y-101276627D01*
X110984641Y-101100000D01*
X111002037Y-100923373D01*
X111053557Y-100753534D01*
X111053557Y-100753533D01*
X111137221Y-100597011D01*
X111137222Y-100597009D01*
X111166552Y-100561271D01*
X111249814Y-100459814D01*
X111351271Y-100376552D01*
X111387009Y-100347222D01*
X111404913Y-100337652D01*
X111543533Y-100263557D01*
X111600147Y-100246384D01*
X111713373Y-100212037D01*
X111779558Y-100205518D01*
X111845740Y-100199000D01*
X111934260Y-100199000D01*
X112000442Y-100205518D01*
X112000442Y-100205518D01*
G37*
G36*
X114540442Y-100205518D02*
X114606627Y-100212037D01*
X114719853Y-100246384D01*
X114776467Y-100263557D01*
X114915087Y-100337652D01*
X114932991Y-100347222D01*
X114968729Y-100376552D01*
X115070186Y-100459814D01*
X115153448Y-100561271D01*
X115182778Y-100597009D01*
X115182779Y-100597011D01*
X115266443Y-100753533D01*
X115266443Y-100753534D01*
X115317963Y-100923373D01*
X115335359Y-101100000D01*
X115317963Y-101276627D01*
X115283616Y-101389853D01*
X115266443Y-101446467D01*
X115192348Y-101585087D01*
X115182778Y-101602991D01*
X115153448Y-101638729D01*
X115070186Y-101740186D01*
X114968729Y-101823448D01*
X114932991Y-101852778D01*
X114932989Y-101852779D01*
X114776467Y-101936443D01*
X114719853Y-101953616D01*
X114606627Y-101987963D01*
X114540442Y-101994482D01*
X114474260Y-102001000D01*
X114385740Y-102001000D01*
X114319558Y-101994482D01*
X114253373Y-101987963D01*
X114140147Y-101953616D01*
X114083533Y-101936443D01*
X113927011Y-101852779D01*
X113927009Y-101852778D01*
X113891271Y-101823448D01*
X113789814Y-101740186D01*
X113706552Y-101638729D01*
X113677222Y-101602991D01*
X113667652Y-101585087D01*
X113593557Y-101446467D01*
X113576384Y-101389853D01*
X113542037Y-101276627D01*
X113524641Y-101100000D01*
X113542037Y-100923373D01*
X113593557Y-100753534D01*
X113593557Y-100753533D01*
X113677221Y-100597011D01*
X113677222Y-100597009D01*
X113706552Y-100561271D01*
X113789814Y-100459814D01*
X113891271Y-100376552D01*
X113927009Y-100347222D01*
X113944913Y-100337652D01*
X114083533Y-100263557D01*
X114140147Y-100246384D01*
X114253373Y-100212037D01*
X114319558Y-100205518D01*
X114385740Y-100199000D01*
X114474260Y-100199000D01*
X114540442Y-100205518D01*
X114540442Y-100205518D01*
G37*
G36*
X117080442Y-100205518D02*
X117146627Y-100212037D01*
X117259853Y-100246384D01*
X117316467Y-100263557D01*
X117455087Y-100337652D01*
X117472991Y-100347222D01*
X117508729Y-100376552D01*
X117610186Y-100459814D01*
X117693448Y-100561271D01*
X117722778Y-100597009D01*
X117722779Y-100597011D01*
X117806443Y-100753533D01*
X117806443Y-100753534D01*
X117857963Y-100923373D01*
X117875359Y-101100000D01*
X117857963Y-101276627D01*
X117823616Y-101389853D01*
X117806443Y-101446467D01*
X117732348Y-101585087D01*
X117722778Y-101602991D01*
X117693448Y-101638729D01*
X117610186Y-101740186D01*
X117508729Y-101823448D01*
X117472991Y-101852778D01*
X117472989Y-101852779D01*
X117316467Y-101936443D01*
X117259853Y-101953616D01*
X117146627Y-101987963D01*
X117080442Y-101994482D01*
X117014260Y-102001000D01*
X116925740Y-102001000D01*
X116859558Y-101994482D01*
X116793373Y-101987963D01*
X116680147Y-101953616D01*
X116623533Y-101936443D01*
X116467011Y-101852779D01*
X116467009Y-101852778D01*
X116431271Y-101823448D01*
X116329814Y-101740186D01*
X116246552Y-101638729D01*
X116217222Y-101602991D01*
X116207652Y-101585087D01*
X116133557Y-101446467D01*
X116116384Y-101389853D01*
X116082037Y-101276627D01*
X116064641Y-101100000D01*
X116082037Y-100923373D01*
X116133557Y-100753534D01*
X116133557Y-100753533D01*
X116217221Y-100597011D01*
X116217222Y-100597009D01*
X116246552Y-100561271D01*
X116329814Y-100459814D01*
X116431271Y-100376552D01*
X116467009Y-100347222D01*
X116484913Y-100337652D01*
X116623533Y-100263557D01*
X116680147Y-100246384D01*
X116793373Y-100212037D01*
X116859558Y-100205518D01*
X116925740Y-100199000D01*
X117014260Y-100199000D01*
X117080442Y-100205518D01*
X117080442Y-100205518D01*
G37*
G36*
X119620442Y-100205518D02*
X119686627Y-100212037D01*
X119799853Y-100246384D01*
X119856467Y-100263557D01*
X119995087Y-100337652D01*
X120012991Y-100347222D01*
X120048729Y-100376552D01*
X120150186Y-100459814D01*
X120233448Y-100561271D01*
X120262778Y-100597009D01*
X120262779Y-100597011D01*
X120346443Y-100753533D01*
X120346443Y-100753534D01*
X120397963Y-100923373D01*
X120415359Y-101100000D01*
X120397963Y-101276627D01*
X120363616Y-101389853D01*
X120346443Y-101446467D01*
X120272348Y-101585087D01*
X120262778Y-101602991D01*
X120233448Y-101638729D01*
X120150186Y-101740186D01*
X120048729Y-101823448D01*
X120012991Y-101852778D01*
X120012989Y-101852779D01*
X119856467Y-101936443D01*
X119799853Y-101953616D01*
X119686627Y-101987963D01*
X119620442Y-101994482D01*
X119554260Y-102001000D01*
X119465740Y-102001000D01*
X119399558Y-101994482D01*
X119333373Y-101987963D01*
X119220147Y-101953616D01*
X119163533Y-101936443D01*
X119007011Y-101852779D01*
X119007009Y-101852778D01*
X118971271Y-101823448D01*
X118869814Y-101740186D01*
X118786552Y-101638729D01*
X118757222Y-101602991D01*
X118747652Y-101585087D01*
X118673557Y-101446467D01*
X118656384Y-101389853D01*
X118622037Y-101276627D01*
X118604641Y-101100000D01*
X118622037Y-100923373D01*
X118673557Y-100753534D01*
X118673557Y-100753533D01*
X118757221Y-100597011D01*
X118757222Y-100597009D01*
X118786552Y-100561271D01*
X118869814Y-100459814D01*
X118971271Y-100376552D01*
X119007009Y-100347222D01*
X119024913Y-100337652D01*
X119163533Y-100263557D01*
X119220147Y-100246384D01*
X119333373Y-100212037D01*
X119399558Y-100205518D01*
X119465740Y-100199000D01*
X119554260Y-100199000D01*
X119620442Y-100205518D01*
X119620442Y-100205518D01*
G37*
G36*
X124700442Y-100205518D02*
X124766627Y-100212037D01*
X124879853Y-100246384D01*
X124936467Y-100263557D01*
X125075087Y-100337652D01*
X125092991Y-100347222D01*
X125128729Y-100376552D01*
X125230186Y-100459814D01*
X125313448Y-100561271D01*
X125342778Y-100597009D01*
X125342779Y-100597011D01*
X125426443Y-100753533D01*
X125426443Y-100753534D01*
X125477963Y-100923373D01*
X125495359Y-101100000D01*
X125477963Y-101276627D01*
X125443616Y-101389853D01*
X125426443Y-101446467D01*
X125352348Y-101585087D01*
X125342778Y-101602991D01*
X125313448Y-101638729D01*
X125230186Y-101740186D01*
X125128729Y-101823448D01*
X125092991Y-101852778D01*
X125092989Y-101852779D01*
X124936467Y-101936443D01*
X124879853Y-101953616D01*
X124766627Y-101987963D01*
X124700442Y-101994482D01*
X124634260Y-102001000D01*
X124545740Y-102001000D01*
X124479558Y-101994482D01*
X124413373Y-101987963D01*
X124300147Y-101953616D01*
X124243533Y-101936443D01*
X124087011Y-101852779D01*
X124087009Y-101852778D01*
X124051271Y-101823448D01*
X123949814Y-101740186D01*
X123866552Y-101638729D01*
X123837222Y-101602991D01*
X123827652Y-101585087D01*
X123753557Y-101446467D01*
X123736384Y-101389853D01*
X123702037Y-101276627D01*
X123684641Y-101100000D01*
X123702037Y-100923373D01*
X123753557Y-100753534D01*
X123753557Y-100753533D01*
X123837221Y-100597011D01*
X123837222Y-100597009D01*
X123866552Y-100561271D01*
X123949814Y-100459814D01*
X124051271Y-100376552D01*
X124087009Y-100347222D01*
X124104913Y-100337652D01*
X124243533Y-100263557D01*
X124300147Y-100246384D01*
X124413373Y-100212037D01*
X124479558Y-100205518D01*
X124545740Y-100199000D01*
X124634260Y-100199000D01*
X124700442Y-100205518D01*
X124700442Y-100205518D01*
G37*
G36*
X138191000Y-102001000D02*
X136389000Y-102001000D01*
X136389000Y-100199000D01*
X138191000Y-100199000D01*
X138191000Y-102001000D01*
X138191000Y-102001000D01*
G37*
G36*
X132320442Y-100205518D02*
X132386627Y-100212037D01*
X132499853Y-100246384D01*
X132556467Y-100263557D01*
X132695087Y-100337652D01*
X132712991Y-100347222D01*
X132748729Y-100376552D01*
X132850186Y-100459814D01*
X132933448Y-100561271D01*
X132962778Y-100597009D01*
X132962779Y-100597011D01*
X133046443Y-100753533D01*
X133046443Y-100753534D01*
X133097963Y-100923373D01*
X133115359Y-101100000D01*
X133097963Y-101276627D01*
X133063616Y-101389853D01*
X133046443Y-101446467D01*
X132972348Y-101585087D01*
X132962778Y-101602991D01*
X132933448Y-101638729D01*
X132850186Y-101740186D01*
X132748729Y-101823448D01*
X132712991Y-101852778D01*
X132712989Y-101852779D01*
X132556467Y-101936443D01*
X132499853Y-101953616D01*
X132386627Y-101987963D01*
X132320442Y-101994482D01*
X132254260Y-102001000D01*
X132165740Y-102001000D01*
X132099558Y-101994482D01*
X132033373Y-101987963D01*
X131920147Y-101953616D01*
X131863533Y-101936443D01*
X131707011Y-101852779D01*
X131707009Y-101852778D01*
X131671271Y-101823448D01*
X131569814Y-101740186D01*
X131486552Y-101638729D01*
X131457222Y-101602991D01*
X131447652Y-101585087D01*
X131373557Y-101446467D01*
X131356384Y-101389853D01*
X131322037Y-101276627D01*
X131304641Y-101100000D01*
X131322037Y-100923373D01*
X131373557Y-100753534D01*
X131373557Y-100753533D01*
X131457221Y-100597011D01*
X131457222Y-100597009D01*
X131486552Y-100561271D01*
X131569814Y-100459814D01*
X131671271Y-100376552D01*
X131707009Y-100347222D01*
X131724913Y-100337652D01*
X131863533Y-100263557D01*
X131920147Y-100246384D01*
X132033373Y-100212037D01*
X132099558Y-100205518D01*
X132165740Y-100199000D01*
X132254260Y-100199000D01*
X132320442Y-100205518D01*
X132320442Y-100205518D01*
G37*
G36*
X129780442Y-100205518D02*
X129846627Y-100212037D01*
X129959853Y-100246384D01*
X130016467Y-100263557D01*
X130155087Y-100337652D01*
X130172991Y-100347222D01*
X130208729Y-100376552D01*
X130310186Y-100459814D01*
X130393448Y-100561271D01*
X130422778Y-100597009D01*
X130422779Y-100597011D01*
X130506443Y-100753533D01*
X130506443Y-100753534D01*
X130557963Y-100923373D01*
X130575359Y-101100000D01*
X130557963Y-101276627D01*
X130523616Y-101389853D01*
X130506443Y-101446467D01*
X130432348Y-101585087D01*
X130422778Y-101602991D01*
X130393448Y-101638729D01*
X130310186Y-101740186D01*
X130208729Y-101823448D01*
X130172991Y-101852778D01*
X130172989Y-101852779D01*
X130016467Y-101936443D01*
X129959853Y-101953616D01*
X129846627Y-101987963D01*
X129780442Y-101994482D01*
X129714260Y-102001000D01*
X129625740Y-102001000D01*
X129559558Y-101994482D01*
X129493373Y-101987963D01*
X129380147Y-101953616D01*
X129323533Y-101936443D01*
X129167011Y-101852779D01*
X129167009Y-101852778D01*
X129131271Y-101823448D01*
X129029814Y-101740186D01*
X128946552Y-101638729D01*
X128917222Y-101602991D01*
X128907652Y-101585087D01*
X128833557Y-101446467D01*
X128816384Y-101389853D01*
X128782037Y-101276627D01*
X128764641Y-101100000D01*
X128782037Y-100923373D01*
X128833557Y-100753534D01*
X128833557Y-100753533D01*
X128917221Y-100597011D01*
X128917222Y-100597009D01*
X128946552Y-100561271D01*
X129029814Y-100459814D01*
X129131271Y-100376552D01*
X129167009Y-100347222D01*
X129184913Y-100337652D01*
X129323533Y-100263557D01*
X129380147Y-100246384D01*
X129493373Y-100212037D01*
X129559558Y-100205518D01*
X129625740Y-100199000D01*
X129714260Y-100199000D01*
X129780442Y-100205518D01*
X129780442Y-100205518D01*
G37*
G36*
X127240442Y-100205518D02*
X127306627Y-100212037D01*
X127419853Y-100246384D01*
X127476467Y-100263557D01*
X127615087Y-100337652D01*
X127632991Y-100347222D01*
X127668729Y-100376552D01*
X127770186Y-100459814D01*
X127853448Y-100561271D01*
X127882778Y-100597009D01*
X127882779Y-100597011D01*
X127966443Y-100753533D01*
X127966443Y-100753534D01*
X128017963Y-100923373D01*
X128035359Y-101100000D01*
X128017963Y-101276627D01*
X127983616Y-101389853D01*
X127966443Y-101446467D01*
X127892348Y-101585087D01*
X127882778Y-101602991D01*
X127853448Y-101638729D01*
X127770186Y-101740186D01*
X127668729Y-101823448D01*
X127632991Y-101852778D01*
X127632989Y-101852779D01*
X127476467Y-101936443D01*
X127419853Y-101953616D01*
X127306627Y-101987963D01*
X127240442Y-101994482D01*
X127174260Y-102001000D01*
X127085740Y-102001000D01*
X127019558Y-101994482D01*
X126953373Y-101987963D01*
X126840147Y-101953616D01*
X126783533Y-101936443D01*
X126627011Y-101852779D01*
X126627009Y-101852778D01*
X126591271Y-101823448D01*
X126489814Y-101740186D01*
X126406552Y-101638729D01*
X126377222Y-101602991D01*
X126367652Y-101585087D01*
X126293557Y-101446467D01*
X126276384Y-101389853D01*
X126242037Y-101276627D01*
X126224641Y-101100000D01*
X126242037Y-100923373D01*
X126293557Y-100753534D01*
X126293557Y-100753533D01*
X126377221Y-100597011D01*
X126377222Y-100597009D01*
X126406552Y-100561271D01*
X126489814Y-100459814D01*
X126591271Y-100376552D01*
X126627009Y-100347222D01*
X126644913Y-100337652D01*
X126783533Y-100263557D01*
X126840147Y-100246384D01*
X126953373Y-100212037D01*
X127019558Y-100205518D01*
X127085740Y-100199000D01*
X127174260Y-100199000D01*
X127240442Y-100205518D01*
X127240442Y-100205518D01*
G37*
G36*
X122160442Y-100205518D02*
X122226627Y-100212037D01*
X122339853Y-100246384D01*
X122396467Y-100263557D01*
X122535087Y-100337652D01*
X122552991Y-100347222D01*
X122588729Y-100376552D01*
X122690186Y-100459814D01*
X122773448Y-100561271D01*
X122802778Y-100597009D01*
X122802779Y-100597011D01*
X122886443Y-100753533D01*
X122886443Y-100753534D01*
X122937963Y-100923373D01*
X122955359Y-101100000D01*
X122937963Y-101276627D01*
X122903616Y-101389853D01*
X122886443Y-101446467D01*
X122812348Y-101585087D01*
X122802778Y-101602991D01*
X122773448Y-101638729D01*
X122690186Y-101740186D01*
X122588729Y-101823448D01*
X122552991Y-101852778D01*
X122552989Y-101852779D01*
X122396467Y-101936443D01*
X122339853Y-101953616D01*
X122226627Y-101987963D01*
X122160442Y-101994482D01*
X122094260Y-102001000D01*
X122005740Y-102001000D01*
X121939558Y-101994482D01*
X121873373Y-101987963D01*
X121760147Y-101953616D01*
X121703533Y-101936443D01*
X121547011Y-101852779D01*
X121547009Y-101852778D01*
X121511271Y-101823448D01*
X121409814Y-101740186D01*
X121326552Y-101638729D01*
X121297222Y-101602991D01*
X121287652Y-101585087D01*
X121213557Y-101446467D01*
X121196384Y-101389853D01*
X121162037Y-101276627D01*
X121144641Y-101100000D01*
X121162037Y-100923373D01*
X121213557Y-100753534D01*
X121213557Y-100753533D01*
X121297221Y-100597011D01*
X121297222Y-100597009D01*
X121326552Y-100561271D01*
X121409814Y-100459814D01*
X121511271Y-100376552D01*
X121547009Y-100347222D01*
X121564913Y-100337652D01*
X121703533Y-100263557D01*
X121760147Y-100246384D01*
X121873373Y-100212037D01*
X121939558Y-100205518D01*
X122005740Y-100199000D01*
X122094260Y-100199000D01*
X122160442Y-100205518D01*
X122160442Y-100205518D01*
G37*
G36*
X109460443Y-97425519D02*
X109526627Y-97432037D01*
X109630535Y-97463557D01*
X109696467Y-97483557D01*
X109815572Y-97547221D01*
X109852991Y-97567222D01*
X109888729Y-97596552D01*
X109990186Y-97679814D01*
X110073448Y-97781271D01*
X110102778Y-97817009D01*
X110102779Y-97817011D01*
X110186443Y-97973533D01*
X110186443Y-97973534D01*
X110237963Y-98143373D01*
X110255359Y-98320000D01*
X110237963Y-98496627D01*
X110203616Y-98609853D01*
X110186443Y-98666467D01*
X110113469Y-98802989D01*
X110102778Y-98822991D01*
X110073448Y-98858729D01*
X109990186Y-98960186D01*
X109888729Y-99043448D01*
X109852991Y-99072778D01*
X109852989Y-99072779D01*
X109696467Y-99156443D01*
X109639853Y-99173616D01*
X109526627Y-99207963D01*
X109460443Y-99214481D01*
X109394260Y-99221000D01*
X109305740Y-99221000D01*
X109239557Y-99214481D01*
X109173373Y-99207963D01*
X109060147Y-99173616D01*
X109003533Y-99156443D01*
X108847011Y-99072779D01*
X108847009Y-99072778D01*
X108811271Y-99043448D01*
X108709814Y-98960186D01*
X108626552Y-98858729D01*
X108597222Y-98822991D01*
X108586531Y-98802989D01*
X108513557Y-98666467D01*
X108496384Y-98609853D01*
X108462037Y-98496627D01*
X108444641Y-98320000D01*
X108462037Y-98143373D01*
X108513557Y-97973534D01*
X108513557Y-97973533D01*
X108597221Y-97817011D01*
X108597222Y-97817009D01*
X108626552Y-97781271D01*
X108709814Y-97679814D01*
X108811271Y-97596552D01*
X108847009Y-97567222D01*
X108884428Y-97547221D01*
X109003533Y-97483557D01*
X109069465Y-97463557D01*
X109173373Y-97432037D01*
X109239557Y-97425519D01*
X109305740Y-97419000D01*
X109394260Y-97419000D01*
X109460443Y-97425519D01*
X109460443Y-97425519D01*
G37*
G36*
X119600442Y-97405518D02*
X119666627Y-97412037D01*
X119779853Y-97446384D01*
X119836467Y-97463557D01*
X119975087Y-97537652D01*
X119992991Y-97547222D01*
X120017361Y-97567222D01*
X120130186Y-97659814D01*
X120213448Y-97761271D01*
X120242778Y-97797009D01*
X120242779Y-97797011D01*
X120326443Y-97953533D01*
X120326443Y-97953534D01*
X120377963Y-98123373D01*
X120395359Y-98300000D01*
X120377963Y-98476627D01*
X120371896Y-98496627D01*
X120326443Y-98646467D01*
X120252348Y-98785087D01*
X120242778Y-98802991D01*
X120226366Y-98822989D01*
X120130186Y-98940186D01*
X120028729Y-99023448D01*
X119992991Y-99052778D01*
X119992989Y-99052779D01*
X119836467Y-99136443D01*
X119779853Y-99153616D01*
X119666627Y-99187963D01*
X119600442Y-99194482D01*
X119534260Y-99201000D01*
X119445740Y-99201000D01*
X119379558Y-99194482D01*
X119313373Y-99187963D01*
X119200147Y-99153616D01*
X119143533Y-99136443D01*
X118987011Y-99052779D01*
X118987009Y-99052778D01*
X118951271Y-99023448D01*
X118849814Y-98940186D01*
X118753634Y-98822989D01*
X118737222Y-98802991D01*
X118727652Y-98785087D01*
X118653557Y-98646467D01*
X118608104Y-98496627D01*
X118602037Y-98476627D01*
X118584641Y-98300000D01*
X118602037Y-98123373D01*
X118653557Y-97953534D01*
X118653557Y-97953533D01*
X118737221Y-97797011D01*
X118737222Y-97797009D01*
X118766552Y-97761271D01*
X118849814Y-97659814D01*
X118962639Y-97567222D01*
X118987009Y-97547222D01*
X119004913Y-97537652D01*
X119143533Y-97463557D01*
X119200147Y-97446384D01*
X119313373Y-97412037D01*
X119379558Y-97405518D01*
X119445740Y-97399000D01*
X119534260Y-97399000D01*
X119600442Y-97405518D01*
X119600442Y-97405518D01*
G37*
G36*
X112771000Y-99201000D02*
X110969000Y-99201000D01*
X110969000Y-97399000D01*
X112771000Y-97399000D01*
X112771000Y-99201000D01*
X112771000Y-99201000D01*
G37*
G36*
X114520442Y-97405518D02*
X114586627Y-97412037D01*
X114699853Y-97446384D01*
X114756467Y-97463557D01*
X114895087Y-97537652D01*
X114912991Y-97547222D01*
X114937361Y-97567222D01*
X115050186Y-97659814D01*
X115133448Y-97761271D01*
X115162778Y-97797009D01*
X115162779Y-97797011D01*
X115246443Y-97953533D01*
X115246443Y-97953534D01*
X115297963Y-98123373D01*
X115315359Y-98300000D01*
X115297963Y-98476627D01*
X115291896Y-98496627D01*
X115246443Y-98646467D01*
X115172348Y-98785087D01*
X115162778Y-98802991D01*
X115146366Y-98822989D01*
X115050186Y-98940186D01*
X114948729Y-99023448D01*
X114912991Y-99052778D01*
X114912989Y-99052779D01*
X114756467Y-99136443D01*
X114699853Y-99153616D01*
X114586627Y-99187963D01*
X114520442Y-99194482D01*
X114454260Y-99201000D01*
X114365740Y-99201000D01*
X114299558Y-99194482D01*
X114233373Y-99187963D01*
X114120147Y-99153616D01*
X114063533Y-99136443D01*
X113907011Y-99052779D01*
X113907009Y-99052778D01*
X113871271Y-99023448D01*
X113769814Y-98940186D01*
X113673634Y-98822989D01*
X113657222Y-98802991D01*
X113647652Y-98785087D01*
X113573557Y-98646467D01*
X113528104Y-98496627D01*
X113522037Y-98476627D01*
X113504641Y-98300000D01*
X113522037Y-98123373D01*
X113573557Y-97953534D01*
X113573557Y-97953533D01*
X113657221Y-97797011D01*
X113657222Y-97797009D01*
X113686552Y-97761271D01*
X113769814Y-97659814D01*
X113882639Y-97567222D01*
X113907009Y-97547222D01*
X113924913Y-97537652D01*
X114063533Y-97463557D01*
X114120147Y-97446384D01*
X114233373Y-97412037D01*
X114299558Y-97405518D01*
X114365740Y-97399000D01*
X114454260Y-97399000D01*
X114520442Y-97405518D01*
X114520442Y-97405518D01*
G37*
G36*
X117060442Y-97405518D02*
X117126627Y-97412037D01*
X117239853Y-97446384D01*
X117296467Y-97463557D01*
X117435087Y-97537652D01*
X117452991Y-97547222D01*
X117477361Y-97567222D01*
X117590186Y-97659814D01*
X117673448Y-97761271D01*
X117702778Y-97797009D01*
X117702779Y-97797011D01*
X117786443Y-97953533D01*
X117786443Y-97953534D01*
X117837963Y-98123373D01*
X117855359Y-98300000D01*
X117837963Y-98476627D01*
X117831896Y-98496627D01*
X117786443Y-98646467D01*
X117712348Y-98785087D01*
X117702778Y-98802991D01*
X117686366Y-98822989D01*
X117590186Y-98940186D01*
X117488729Y-99023448D01*
X117452991Y-99052778D01*
X117452989Y-99052779D01*
X117296467Y-99136443D01*
X117239853Y-99153616D01*
X117126627Y-99187963D01*
X117060442Y-99194482D01*
X116994260Y-99201000D01*
X116905740Y-99201000D01*
X116839558Y-99194482D01*
X116773373Y-99187963D01*
X116660147Y-99153616D01*
X116603533Y-99136443D01*
X116447011Y-99052779D01*
X116447009Y-99052778D01*
X116411271Y-99023448D01*
X116309814Y-98940186D01*
X116213634Y-98822989D01*
X116197222Y-98802991D01*
X116187652Y-98785087D01*
X116113557Y-98646467D01*
X116068104Y-98496627D01*
X116062037Y-98476627D01*
X116044641Y-98300000D01*
X116062037Y-98123373D01*
X116113557Y-97953534D01*
X116113557Y-97953533D01*
X116197221Y-97797011D01*
X116197222Y-97797009D01*
X116226552Y-97761271D01*
X116309814Y-97659814D01*
X116422639Y-97567222D01*
X116447009Y-97547222D01*
X116464913Y-97537652D01*
X116603533Y-97463557D01*
X116660147Y-97446384D01*
X116773373Y-97412037D01*
X116839558Y-97405518D01*
X116905740Y-97399000D01*
X116994260Y-97399000D01*
X117060442Y-97405518D01*
X117060442Y-97405518D01*
G37*
G36*
X122140442Y-97405518D02*
X122206627Y-97412037D01*
X122319853Y-97446384D01*
X122376467Y-97463557D01*
X122515087Y-97537652D01*
X122532991Y-97547222D01*
X122557361Y-97567222D01*
X122670186Y-97659814D01*
X122753448Y-97761271D01*
X122782778Y-97797009D01*
X122782779Y-97797011D01*
X122866443Y-97953533D01*
X122866443Y-97953534D01*
X122917963Y-98123373D01*
X122935359Y-98300000D01*
X122917963Y-98476627D01*
X122911896Y-98496627D01*
X122866443Y-98646467D01*
X122792348Y-98785087D01*
X122782778Y-98802991D01*
X122766366Y-98822989D01*
X122670186Y-98940186D01*
X122568729Y-99023448D01*
X122532991Y-99052778D01*
X122532989Y-99052779D01*
X122376467Y-99136443D01*
X122319853Y-99153616D01*
X122206627Y-99187963D01*
X122140442Y-99194482D01*
X122074260Y-99201000D01*
X121985740Y-99201000D01*
X121919558Y-99194482D01*
X121853373Y-99187963D01*
X121740147Y-99153616D01*
X121683533Y-99136443D01*
X121527011Y-99052779D01*
X121527009Y-99052778D01*
X121491271Y-99023448D01*
X121389814Y-98940186D01*
X121293634Y-98822989D01*
X121277222Y-98802991D01*
X121267652Y-98785087D01*
X121193557Y-98646467D01*
X121148104Y-98496627D01*
X121142037Y-98476627D01*
X121124641Y-98300000D01*
X121142037Y-98123373D01*
X121193557Y-97953534D01*
X121193557Y-97953533D01*
X121277221Y-97797011D01*
X121277222Y-97797009D01*
X121306552Y-97761271D01*
X121389814Y-97659814D01*
X121502639Y-97567222D01*
X121527009Y-97547222D01*
X121544913Y-97537652D01*
X121683533Y-97463557D01*
X121740147Y-97446384D01*
X121853373Y-97412037D01*
X121919558Y-97405518D01*
X121985740Y-97399000D01*
X122074260Y-97399000D01*
X122140442Y-97405518D01*
X122140442Y-97405518D01*
G37*
G36*
X124680442Y-97405518D02*
X124746627Y-97412037D01*
X124859853Y-97446384D01*
X124916467Y-97463557D01*
X125055087Y-97537652D01*
X125072991Y-97547222D01*
X125097361Y-97567222D01*
X125210186Y-97659814D01*
X125293448Y-97761271D01*
X125322778Y-97797009D01*
X125322779Y-97797011D01*
X125406443Y-97953533D01*
X125406443Y-97953534D01*
X125457963Y-98123373D01*
X125475359Y-98300000D01*
X125457963Y-98476627D01*
X125451896Y-98496627D01*
X125406443Y-98646467D01*
X125332348Y-98785087D01*
X125322778Y-98802991D01*
X125306366Y-98822989D01*
X125210186Y-98940186D01*
X125108729Y-99023448D01*
X125072991Y-99052778D01*
X125072989Y-99052779D01*
X124916467Y-99136443D01*
X124859853Y-99153616D01*
X124746627Y-99187963D01*
X124680442Y-99194482D01*
X124614260Y-99201000D01*
X124525740Y-99201000D01*
X124459558Y-99194482D01*
X124393373Y-99187963D01*
X124280147Y-99153616D01*
X124223533Y-99136443D01*
X124067011Y-99052779D01*
X124067009Y-99052778D01*
X124031271Y-99023448D01*
X123929814Y-98940186D01*
X123833634Y-98822989D01*
X123817222Y-98802991D01*
X123807652Y-98785087D01*
X123733557Y-98646467D01*
X123688104Y-98496627D01*
X123682037Y-98476627D01*
X123664641Y-98300000D01*
X123682037Y-98123373D01*
X123733557Y-97953534D01*
X123733557Y-97953533D01*
X123817221Y-97797011D01*
X123817222Y-97797009D01*
X123846552Y-97761271D01*
X123929814Y-97659814D01*
X124042639Y-97567222D01*
X124067009Y-97547222D01*
X124084913Y-97537652D01*
X124223533Y-97463557D01*
X124280147Y-97446384D01*
X124393373Y-97412037D01*
X124459558Y-97405518D01*
X124525740Y-97399000D01*
X124614260Y-97399000D01*
X124680442Y-97405518D01*
X124680442Y-97405518D01*
G37*
G36*
X109460442Y-94885518D02*
X109526627Y-94892037D01*
X109639853Y-94926384D01*
X109696467Y-94943557D01*
X109835087Y-95017652D01*
X109852991Y-95027222D01*
X109888729Y-95056552D01*
X109990186Y-95139814D01*
X110073448Y-95241271D01*
X110102778Y-95277009D01*
X110102779Y-95277011D01*
X110186443Y-95433533D01*
X110186443Y-95433534D01*
X110237963Y-95603373D01*
X110255359Y-95780000D01*
X110237963Y-95956627D01*
X110203616Y-96069853D01*
X110186443Y-96126467D01*
X110112348Y-96265087D01*
X110102778Y-96282991D01*
X110073448Y-96318729D01*
X109990186Y-96420186D01*
X109888729Y-96503448D01*
X109852991Y-96532778D01*
X109852989Y-96532779D01*
X109696467Y-96616443D01*
X109639853Y-96633616D01*
X109526627Y-96667963D01*
X109460442Y-96674482D01*
X109394260Y-96681000D01*
X109305740Y-96681000D01*
X109239557Y-96674481D01*
X109173373Y-96667963D01*
X109060147Y-96633616D01*
X109003533Y-96616443D01*
X108847011Y-96532779D01*
X108847009Y-96532778D01*
X108811271Y-96503448D01*
X108709814Y-96420186D01*
X108626552Y-96318729D01*
X108597222Y-96282991D01*
X108587652Y-96265087D01*
X108513557Y-96126467D01*
X108496384Y-96069853D01*
X108462037Y-95956627D01*
X108444641Y-95780000D01*
X108462037Y-95603373D01*
X108513557Y-95433534D01*
X108513557Y-95433533D01*
X108597221Y-95277011D01*
X108597222Y-95277009D01*
X108626552Y-95241271D01*
X108709814Y-95139814D01*
X108811271Y-95056552D01*
X108847009Y-95027222D01*
X108864913Y-95017652D01*
X109003533Y-94943557D01*
X109060147Y-94926384D01*
X109173373Y-94892037D01*
X109239558Y-94885518D01*
X109305740Y-94879000D01*
X109394260Y-94879000D01*
X109460442Y-94885518D01*
X109460442Y-94885518D01*
G37*
G36*
X109460443Y-92345519D02*
X109526627Y-92352037D01*
X109639853Y-92386384D01*
X109696467Y-92403557D01*
X109835087Y-92477652D01*
X109852991Y-92487222D01*
X109888729Y-92516552D01*
X109990186Y-92599814D01*
X110073448Y-92701271D01*
X110102778Y-92737009D01*
X110102779Y-92737011D01*
X110186443Y-92893533D01*
X110186443Y-92893534D01*
X110237963Y-93063373D01*
X110255359Y-93240000D01*
X110237963Y-93416627D01*
X110203616Y-93529853D01*
X110186443Y-93586467D01*
X110112348Y-93725087D01*
X110102778Y-93742991D01*
X110073448Y-93778729D01*
X109990186Y-93880186D01*
X109888729Y-93963448D01*
X109852991Y-93992778D01*
X109852989Y-93992779D01*
X109696467Y-94076443D01*
X109639853Y-94093616D01*
X109526627Y-94127963D01*
X109460442Y-94134482D01*
X109394260Y-94141000D01*
X109305740Y-94141000D01*
X109239558Y-94134482D01*
X109173373Y-94127963D01*
X109060147Y-94093616D01*
X109003533Y-94076443D01*
X108847011Y-93992779D01*
X108847009Y-93992778D01*
X108811271Y-93963448D01*
X108709814Y-93880186D01*
X108626552Y-93778729D01*
X108597222Y-93742991D01*
X108587652Y-93725087D01*
X108513557Y-93586467D01*
X108496384Y-93529853D01*
X108462037Y-93416627D01*
X108444641Y-93240000D01*
X108462037Y-93063373D01*
X108513557Y-92893534D01*
X108513557Y-92893533D01*
X108597221Y-92737011D01*
X108597222Y-92737009D01*
X108626552Y-92701271D01*
X108709814Y-92599814D01*
X108811271Y-92516552D01*
X108847009Y-92487222D01*
X108864913Y-92477652D01*
X109003533Y-92403557D01*
X109060147Y-92386384D01*
X109173373Y-92352037D01*
X109239557Y-92345519D01*
X109305740Y-92339000D01*
X109394260Y-92339000D01*
X109460443Y-92345519D01*
X109460443Y-92345519D01*
G37*
G36*
X113394443Y-90291519D02*
X113460627Y-90298037D01*
X113573853Y-90332384D01*
X113630467Y-90349557D01*
X113769087Y-90423652D01*
X113786991Y-90433222D01*
X113822729Y-90462552D01*
X113924186Y-90545814D01*
X114007448Y-90647271D01*
X114036778Y-90683009D01*
X114036779Y-90683011D01*
X114120443Y-90839533D01*
X114131695Y-90876627D01*
X114171963Y-91009373D01*
X114189359Y-91186000D01*
X114171963Y-91362627D01*
X114144616Y-91452778D01*
X114120443Y-91532467D01*
X114090779Y-91587963D01*
X114036778Y-91688991D01*
X114007448Y-91724729D01*
X113924186Y-91826186D01*
X113822729Y-91909448D01*
X113786991Y-91938778D01*
X113786989Y-91938779D01*
X113630467Y-92022443D01*
X113573853Y-92039616D01*
X113460627Y-92073963D01*
X113394443Y-92080481D01*
X113328260Y-92087000D01*
X113239740Y-92087000D01*
X113173557Y-92080481D01*
X113107373Y-92073963D01*
X112994147Y-92039616D01*
X112937533Y-92022443D01*
X112781011Y-91938779D01*
X112781009Y-91938778D01*
X112745271Y-91909448D01*
X112643814Y-91826186D01*
X112560552Y-91724729D01*
X112531222Y-91688991D01*
X112477221Y-91587963D01*
X112447557Y-91532467D01*
X112423384Y-91452778D01*
X112396037Y-91362627D01*
X112378641Y-91186000D01*
X112396037Y-91009373D01*
X112436305Y-90876627D01*
X112447557Y-90839533D01*
X112531221Y-90683011D01*
X112531222Y-90683009D01*
X112560552Y-90647271D01*
X112643814Y-90545814D01*
X112745271Y-90462552D01*
X112781009Y-90433222D01*
X112798913Y-90423652D01*
X112937533Y-90349557D01*
X112994147Y-90332384D01*
X113107373Y-90298037D01*
X113173557Y-90291519D01*
X113239740Y-90285000D01*
X113328260Y-90285000D01*
X113394443Y-90291519D01*
X113394443Y-90291519D01*
G37*
G36*
X109460442Y-89805518D02*
X109526627Y-89812037D01*
X109639853Y-89846384D01*
X109696467Y-89863557D01*
X109835087Y-89937652D01*
X109852991Y-89947222D01*
X109888729Y-89976552D01*
X109990186Y-90059814D01*
X110073448Y-90161271D01*
X110102778Y-90197009D01*
X110102779Y-90197011D01*
X110186443Y-90353533D01*
X110186443Y-90353534D01*
X110237963Y-90523373D01*
X110255359Y-90700000D01*
X110237963Y-90876627D01*
X110203616Y-90989853D01*
X110186443Y-91046467D01*
X110112348Y-91185087D01*
X110102778Y-91202991D01*
X110073448Y-91238729D01*
X109990186Y-91340186D01*
X109888729Y-91423448D01*
X109852991Y-91452778D01*
X109852989Y-91452779D01*
X109696467Y-91536443D01*
X109639853Y-91553616D01*
X109526627Y-91587963D01*
X109460442Y-91594482D01*
X109394260Y-91601000D01*
X109305740Y-91601000D01*
X109239558Y-91594482D01*
X109173373Y-91587963D01*
X109060147Y-91553616D01*
X109003533Y-91536443D01*
X108847011Y-91452779D01*
X108847009Y-91452778D01*
X108811271Y-91423448D01*
X108709814Y-91340186D01*
X108626552Y-91238729D01*
X108597222Y-91202991D01*
X108587652Y-91185087D01*
X108513557Y-91046467D01*
X108496384Y-90989853D01*
X108462037Y-90876627D01*
X108444641Y-90700000D01*
X108462037Y-90523373D01*
X108513557Y-90353534D01*
X108513557Y-90353533D01*
X108597221Y-90197011D01*
X108597222Y-90197009D01*
X108626552Y-90161271D01*
X108709814Y-90059814D01*
X108811271Y-89976552D01*
X108847009Y-89947222D01*
X108864913Y-89937652D01*
X109003533Y-89863557D01*
X109060147Y-89846384D01*
X109173373Y-89812037D01*
X109239558Y-89805518D01*
X109305740Y-89799000D01*
X109394260Y-89799000D01*
X109460442Y-89805518D01*
X109460442Y-89805518D01*
G37*
G36*
X114185000Y-89547000D02*
X112383000Y-89547000D01*
X112383000Y-87745000D01*
X114185000Y-87745000D01*
X114185000Y-89547000D01*
X114185000Y-89547000D01*
G37*
G36*
X109460442Y-87265518D02*
X109526627Y-87272037D01*
X109639853Y-87306384D01*
X109696467Y-87323557D01*
X109835087Y-87397652D01*
X109852991Y-87407222D01*
X109888729Y-87436552D01*
X109990186Y-87519814D01*
X110073448Y-87621271D01*
X110102778Y-87657009D01*
X110102779Y-87657011D01*
X110186443Y-87813533D01*
X110186443Y-87813534D01*
X110237963Y-87983373D01*
X110255359Y-88160000D01*
X110237963Y-88336627D01*
X110203616Y-88449853D01*
X110186443Y-88506467D01*
X110112348Y-88645087D01*
X110102778Y-88662991D01*
X110073448Y-88698729D01*
X109990186Y-88800186D01*
X109888729Y-88883448D01*
X109852991Y-88912778D01*
X109852989Y-88912779D01*
X109696467Y-88996443D01*
X109639853Y-89013616D01*
X109526627Y-89047963D01*
X109460442Y-89054482D01*
X109394260Y-89061000D01*
X109305740Y-89061000D01*
X109239558Y-89054482D01*
X109173373Y-89047963D01*
X109060147Y-89013616D01*
X109003533Y-88996443D01*
X108847011Y-88912779D01*
X108847009Y-88912778D01*
X108811271Y-88883448D01*
X108709814Y-88800186D01*
X108626552Y-88698729D01*
X108597222Y-88662991D01*
X108587652Y-88645087D01*
X108513557Y-88506467D01*
X108496384Y-88449853D01*
X108462037Y-88336627D01*
X108444641Y-88160000D01*
X108462037Y-87983373D01*
X108513557Y-87813534D01*
X108513557Y-87813533D01*
X108597221Y-87657011D01*
X108597222Y-87657009D01*
X108626552Y-87621271D01*
X108709814Y-87519814D01*
X108811271Y-87436552D01*
X108847009Y-87407222D01*
X108864913Y-87397652D01*
X109003533Y-87323557D01*
X109060147Y-87306384D01*
X109173373Y-87272037D01*
X109239558Y-87265518D01*
X109305740Y-87259000D01*
X109394260Y-87259000D01*
X109460442Y-87265518D01*
X109460442Y-87265518D01*
G37*
G36*
X109460442Y-84725518D02*
X109526627Y-84732037D01*
X109639853Y-84766384D01*
X109696467Y-84783557D01*
X109835087Y-84857652D01*
X109852991Y-84867222D01*
X109888729Y-84896552D01*
X109990186Y-84979814D01*
X110073448Y-85081271D01*
X110102778Y-85117009D01*
X110102779Y-85117011D01*
X110186443Y-85273533D01*
X110186443Y-85273534D01*
X110237963Y-85443373D01*
X110255359Y-85620000D01*
X110237963Y-85796627D01*
X110203616Y-85909853D01*
X110186443Y-85966467D01*
X110112348Y-86105087D01*
X110102778Y-86122991D01*
X110073448Y-86158729D01*
X109990186Y-86260186D01*
X109888729Y-86343448D01*
X109852991Y-86372778D01*
X109852989Y-86372779D01*
X109696467Y-86456443D01*
X109639853Y-86473616D01*
X109526627Y-86507963D01*
X109460443Y-86514481D01*
X109394260Y-86521000D01*
X109305740Y-86521000D01*
X109239557Y-86514481D01*
X109173373Y-86507963D01*
X109060147Y-86473616D01*
X109003533Y-86456443D01*
X108847011Y-86372779D01*
X108847009Y-86372778D01*
X108811271Y-86343448D01*
X108709814Y-86260186D01*
X108626552Y-86158729D01*
X108597222Y-86122991D01*
X108587652Y-86105087D01*
X108513557Y-85966467D01*
X108496384Y-85909853D01*
X108462037Y-85796627D01*
X108444641Y-85620000D01*
X108462037Y-85443373D01*
X108513557Y-85273534D01*
X108513557Y-85273533D01*
X108597221Y-85117011D01*
X108597222Y-85117009D01*
X108626552Y-85081271D01*
X108709814Y-84979814D01*
X108811271Y-84896552D01*
X108847009Y-84867222D01*
X108864913Y-84857652D01*
X109003533Y-84783557D01*
X109060147Y-84766384D01*
X109173373Y-84732037D01*
X109239558Y-84725518D01*
X109305740Y-84719000D01*
X109394260Y-84719000D01*
X109460442Y-84725518D01*
X109460442Y-84725518D01*
G37*
G36*
X109460443Y-82185519D02*
X109526627Y-82192037D01*
X109639853Y-82226384D01*
X109696467Y-82243557D01*
X109835087Y-82317652D01*
X109852991Y-82327222D01*
X109888729Y-82356552D01*
X109990186Y-82439814D01*
X110073448Y-82541271D01*
X110102778Y-82577009D01*
X110102779Y-82577011D01*
X110186443Y-82733533D01*
X110186443Y-82733534D01*
X110237963Y-82903373D01*
X110255359Y-83080000D01*
X110237963Y-83256627D01*
X110203616Y-83369853D01*
X110186443Y-83426467D01*
X110112348Y-83565087D01*
X110102778Y-83582991D01*
X110073448Y-83618729D01*
X109990186Y-83720186D01*
X109888729Y-83803448D01*
X109852991Y-83832778D01*
X109852989Y-83832779D01*
X109696467Y-83916443D01*
X109639853Y-83933616D01*
X109526627Y-83967963D01*
X109460442Y-83974482D01*
X109394260Y-83981000D01*
X109305740Y-83981000D01*
X109239558Y-83974482D01*
X109173373Y-83967963D01*
X109060147Y-83933616D01*
X109003533Y-83916443D01*
X108847011Y-83832779D01*
X108847009Y-83832778D01*
X108811271Y-83803448D01*
X108709814Y-83720186D01*
X108626552Y-83618729D01*
X108597222Y-83582991D01*
X108587652Y-83565087D01*
X108513557Y-83426467D01*
X108496384Y-83369853D01*
X108462037Y-83256627D01*
X108444641Y-83080000D01*
X108462037Y-82903373D01*
X108513557Y-82733534D01*
X108513557Y-82733533D01*
X108597221Y-82577011D01*
X108597222Y-82577009D01*
X108626552Y-82541271D01*
X108709814Y-82439814D01*
X108811271Y-82356552D01*
X108847009Y-82327222D01*
X108864913Y-82317652D01*
X109003533Y-82243557D01*
X109060147Y-82226384D01*
X109173373Y-82192037D01*
X109239557Y-82185519D01*
X109305740Y-82179000D01*
X109394260Y-82179000D01*
X109460443Y-82185519D01*
X109460443Y-82185519D01*
G37*
G36*
X109460442Y-79645518D02*
X109526627Y-79652037D01*
X109639853Y-79686384D01*
X109696467Y-79703557D01*
X109835087Y-79777652D01*
X109852991Y-79787222D01*
X109888729Y-79816552D01*
X109990186Y-79899814D01*
X110073448Y-80001271D01*
X110102778Y-80037009D01*
X110102779Y-80037011D01*
X110186443Y-80193533D01*
X110186443Y-80193534D01*
X110237963Y-80363373D01*
X110255359Y-80540000D01*
X110237963Y-80716627D01*
X110203616Y-80829853D01*
X110186443Y-80886467D01*
X110112348Y-81025087D01*
X110102778Y-81042991D01*
X110073448Y-81078729D01*
X109990186Y-81180186D01*
X109888729Y-81263448D01*
X109852991Y-81292778D01*
X109852989Y-81292779D01*
X109696467Y-81376443D01*
X109639853Y-81393616D01*
X109526627Y-81427963D01*
X109460443Y-81434481D01*
X109394260Y-81441000D01*
X109305740Y-81441000D01*
X109239557Y-81434481D01*
X109173373Y-81427963D01*
X109060147Y-81393616D01*
X109003533Y-81376443D01*
X108847011Y-81292779D01*
X108847009Y-81292778D01*
X108811271Y-81263448D01*
X108709814Y-81180186D01*
X108626552Y-81078729D01*
X108597222Y-81042991D01*
X108587652Y-81025087D01*
X108513557Y-80886467D01*
X108496384Y-80829853D01*
X108462037Y-80716627D01*
X108444641Y-80540000D01*
X108462037Y-80363373D01*
X108513557Y-80193534D01*
X108513557Y-80193533D01*
X108597221Y-80037011D01*
X108597222Y-80037009D01*
X108626552Y-80001271D01*
X108709814Y-79899814D01*
X108811271Y-79816552D01*
X108847009Y-79787222D01*
X108864913Y-79777652D01*
X109003533Y-79703557D01*
X109060147Y-79686384D01*
X109173373Y-79652037D01*
X109239558Y-79645518D01*
X109305740Y-79639000D01*
X109394260Y-79639000D01*
X109460442Y-79645518D01*
X109460442Y-79645518D01*
G37*
G36*
X110251000Y-78901000D02*
X108449000Y-78901000D01*
X108449000Y-77099000D01*
X110251000Y-77099000D01*
X110251000Y-78901000D01*
X110251000Y-78901000D01*
G37*
G36*
X119570442Y-74305518D02*
X119636627Y-74312037D01*
X119749853Y-74346384D01*
X119806467Y-74363557D01*
X119945087Y-74437652D01*
X119962991Y-74447222D01*
X119998729Y-74476552D01*
X120100186Y-74559814D01*
X120183448Y-74661271D01*
X120212778Y-74697009D01*
X120212779Y-74697011D01*
X120296443Y-74853533D01*
X120296443Y-74853534D01*
X120347963Y-75023373D01*
X120365359Y-75200000D01*
X120347963Y-75376627D01*
X120313616Y-75489853D01*
X120296443Y-75546467D01*
X120222348Y-75685087D01*
X120212778Y-75702991D01*
X120183448Y-75738729D01*
X120100186Y-75840186D01*
X119998729Y-75923448D01*
X119962991Y-75952778D01*
X119962989Y-75952779D01*
X119806467Y-76036443D01*
X119749853Y-76053616D01*
X119636627Y-76087963D01*
X119570442Y-76094482D01*
X119504260Y-76101000D01*
X119415740Y-76101000D01*
X119349558Y-76094482D01*
X119283373Y-76087963D01*
X119170147Y-76053616D01*
X119113533Y-76036443D01*
X118957011Y-75952779D01*
X118957009Y-75952778D01*
X118921271Y-75923448D01*
X118819814Y-75840186D01*
X118736552Y-75738729D01*
X118707222Y-75702991D01*
X118697652Y-75685087D01*
X118623557Y-75546467D01*
X118606384Y-75489853D01*
X118572037Y-75376627D01*
X118554641Y-75200000D01*
X118572037Y-75023373D01*
X118623557Y-74853534D01*
X118623557Y-74853533D01*
X118707221Y-74697011D01*
X118707222Y-74697009D01*
X118736552Y-74661271D01*
X118819814Y-74559814D01*
X118921271Y-74476552D01*
X118957009Y-74447222D01*
X118974913Y-74437652D01*
X119113533Y-74363557D01*
X119170147Y-74346384D01*
X119283373Y-74312037D01*
X119349558Y-74305518D01*
X119415740Y-74299000D01*
X119504260Y-74299000D01*
X119570442Y-74305518D01*
X119570442Y-74305518D01*
G37*
G36*
X122110442Y-74305518D02*
X122176627Y-74312037D01*
X122289853Y-74346384D01*
X122346467Y-74363557D01*
X122485087Y-74437652D01*
X122502991Y-74447222D01*
X122538729Y-74476552D01*
X122640186Y-74559814D01*
X122723448Y-74661271D01*
X122752778Y-74697009D01*
X122752779Y-74697011D01*
X122836443Y-74853533D01*
X122836443Y-74853534D01*
X122887963Y-75023373D01*
X122905359Y-75200000D01*
X122887963Y-75376627D01*
X122853616Y-75489853D01*
X122836443Y-75546467D01*
X122762348Y-75685087D01*
X122752778Y-75702991D01*
X122723448Y-75738729D01*
X122640186Y-75840186D01*
X122538729Y-75923448D01*
X122502991Y-75952778D01*
X122502989Y-75952779D01*
X122346467Y-76036443D01*
X122289853Y-76053616D01*
X122176627Y-76087963D01*
X122110442Y-76094482D01*
X122044260Y-76101000D01*
X121955740Y-76101000D01*
X121889558Y-76094482D01*
X121823373Y-76087963D01*
X121710147Y-76053616D01*
X121653533Y-76036443D01*
X121497011Y-75952779D01*
X121497009Y-75952778D01*
X121461271Y-75923448D01*
X121359814Y-75840186D01*
X121276552Y-75738729D01*
X121247222Y-75702991D01*
X121237652Y-75685087D01*
X121163557Y-75546467D01*
X121146384Y-75489853D01*
X121112037Y-75376627D01*
X121094641Y-75200000D01*
X121112037Y-75023373D01*
X121163557Y-74853534D01*
X121163557Y-74853533D01*
X121247221Y-74697011D01*
X121247222Y-74697009D01*
X121276552Y-74661271D01*
X121359814Y-74559814D01*
X121461271Y-74476552D01*
X121497009Y-74447222D01*
X121514913Y-74437652D01*
X121653533Y-74363557D01*
X121710147Y-74346384D01*
X121823373Y-74312037D01*
X121889558Y-74305518D01*
X121955740Y-74299000D01*
X122044260Y-74299000D01*
X122110442Y-74305518D01*
X122110442Y-74305518D01*
G37*
G36*
X124650442Y-74305518D02*
X124716627Y-74312037D01*
X124829853Y-74346384D01*
X124886467Y-74363557D01*
X125025087Y-74437652D01*
X125042991Y-74447222D01*
X125078729Y-74476552D01*
X125180186Y-74559814D01*
X125263448Y-74661271D01*
X125292778Y-74697009D01*
X125292779Y-74697011D01*
X125376443Y-74853533D01*
X125376443Y-74853534D01*
X125427963Y-75023373D01*
X125445359Y-75200000D01*
X125427963Y-75376627D01*
X125393616Y-75489853D01*
X125376443Y-75546467D01*
X125302348Y-75685087D01*
X125292778Y-75702991D01*
X125263448Y-75738729D01*
X125180186Y-75840186D01*
X125078729Y-75923448D01*
X125042991Y-75952778D01*
X125042989Y-75952779D01*
X124886467Y-76036443D01*
X124829853Y-76053616D01*
X124716627Y-76087963D01*
X124650442Y-76094482D01*
X124584260Y-76101000D01*
X124495740Y-76101000D01*
X124429558Y-76094482D01*
X124363373Y-76087963D01*
X124250147Y-76053616D01*
X124193533Y-76036443D01*
X124037011Y-75952779D01*
X124037009Y-75952778D01*
X124001271Y-75923448D01*
X123899814Y-75840186D01*
X123816552Y-75738729D01*
X123787222Y-75702991D01*
X123777652Y-75685087D01*
X123703557Y-75546467D01*
X123686384Y-75489853D01*
X123652037Y-75376627D01*
X123634641Y-75200000D01*
X123652037Y-75023373D01*
X123703557Y-74853534D01*
X123703557Y-74853533D01*
X123787221Y-74697011D01*
X123787222Y-74697009D01*
X123816552Y-74661271D01*
X123899814Y-74559814D01*
X124001271Y-74476552D01*
X124037009Y-74447222D01*
X124054913Y-74437652D01*
X124193533Y-74363557D01*
X124250147Y-74346384D01*
X124363373Y-74312037D01*
X124429558Y-74305518D01*
X124495740Y-74299000D01*
X124584260Y-74299000D01*
X124650442Y-74305518D01*
X124650442Y-74305518D01*
G37*
G36*
X127190442Y-74305518D02*
X127256627Y-74312037D01*
X127369853Y-74346384D01*
X127426467Y-74363557D01*
X127565087Y-74437652D01*
X127582991Y-74447222D01*
X127618729Y-74476552D01*
X127720186Y-74559814D01*
X127803448Y-74661271D01*
X127832778Y-74697009D01*
X127832779Y-74697011D01*
X127916443Y-74853533D01*
X127916443Y-74853534D01*
X127967963Y-75023373D01*
X127985359Y-75200000D01*
X127967963Y-75376627D01*
X127933616Y-75489853D01*
X127916443Y-75546467D01*
X127842348Y-75685087D01*
X127832778Y-75702991D01*
X127803448Y-75738729D01*
X127720186Y-75840186D01*
X127618729Y-75923448D01*
X127582991Y-75952778D01*
X127582989Y-75952779D01*
X127426467Y-76036443D01*
X127369853Y-76053616D01*
X127256627Y-76087963D01*
X127190442Y-76094482D01*
X127124260Y-76101000D01*
X127035740Y-76101000D01*
X126969558Y-76094482D01*
X126903373Y-76087963D01*
X126790147Y-76053616D01*
X126733533Y-76036443D01*
X126577011Y-75952779D01*
X126577009Y-75952778D01*
X126541271Y-75923448D01*
X126439814Y-75840186D01*
X126356552Y-75738729D01*
X126327222Y-75702991D01*
X126317652Y-75685087D01*
X126243557Y-75546467D01*
X126226384Y-75489853D01*
X126192037Y-75376627D01*
X126174641Y-75200000D01*
X126192037Y-75023373D01*
X126243557Y-74853534D01*
X126243557Y-74853533D01*
X126327221Y-74697011D01*
X126327222Y-74697009D01*
X126356552Y-74661271D01*
X126439814Y-74559814D01*
X126541271Y-74476552D01*
X126577009Y-74447222D01*
X126594913Y-74437652D01*
X126733533Y-74363557D01*
X126790147Y-74346384D01*
X126903373Y-74312037D01*
X126969558Y-74305518D01*
X127035740Y-74299000D01*
X127124260Y-74299000D01*
X127190442Y-74305518D01*
X127190442Y-74305518D01*
G37*
G36*
X129730442Y-74305518D02*
X129796627Y-74312037D01*
X129909853Y-74346384D01*
X129966467Y-74363557D01*
X130105087Y-74437652D01*
X130122991Y-74447222D01*
X130158729Y-74476552D01*
X130260186Y-74559814D01*
X130343448Y-74661271D01*
X130372778Y-74697009D01*
X130372779Y-74697011D01*
X130456443Y-74853533D01*
X130456443Y-74853534D01*
X130507963Y-75023373D01*
X130525359Y-75200000D01*
X130507963Y-75376627D01*
X130473616Y-75489853D01*
X130456443Y-75546467D01*
X130382348Y-75685087D01*
X130372778Y-75702991D01*
X130343448Y-75738729D01*
X130260186Y-75840186D01*
X130158729Y-75923448D01*
X130122991Y-75952778D01*
X130122989Y-75952779D01*
X129966467Y-76036443D01*
X129909853Y-76053616D01*
X129796627Y-76087963D01*
X129730442Y-76094482D01*
X129664260Y-76101000D01*
X129575740Y-76101000D01*
X129509558Y-76094482D01*
X129443373Y-76087963D01*
X129330147Y-76053616D01*
X129273533Y-76036443D01*
X129117011Y-75952779D01*
X129117009Y-75952778D01*
X129081271Y-75923448D01*
X128979814Y-75840186D01*
X128896552Y-75738729D01*
X128867222Y-75702991D01*
X128857652Y-75685087D01*
X128783557Y-75546467D01*
X128766384Y-75489853D01*
X128732037Y-75376627D01*
X128714641Y-75200000D01*
X128732037Y-75023373D01*
X128783557Y-74853534D01*
X128783557Y-74853533D01*
X128867221Y-74697011D01*
X128867222Y-74697009D01*
X128896552Y-74661271D01*
X128979814Y-74559814D01*
X129081271Y-74476552D01*
X129117009Y-74447222D01*
X129134913Y-74437652D01*
X129273533Y-74363557D01*
X129330147Y-74346384D01*
X129443373Y-74312037D01*
X129509558Y-74305518D01*
X129575740Y-74299000D01*
X129664260Y-74299000D01*
X129730442Y-74305518D01*
X129730442Y-74305518D01*
G37*
G36*
X134810442Y-74305518D02*
X134876627Y-74312037D01*
X134989853Y-74346384D01*
X135046467Y-74363557D01*
X135185087Y-74437652D01*
X135202991Y-74447222D01*
X135238729Y-74476552D01*
X135340186Y-74559814D01*
X135423448Y-74661271D01*
X135452778Y-74697009D01*
X135452779Y-74697011D01*
X135536443Y-74853533D01*
X135536443Y-74853534D01*
X135587963Y-75023373D01*
X135605359Y-75200000D01*
X135587963Y-75376627D01*
X135553616Y-75489853D01*
X135536443Y-75546467D01*
X135462348Y-75685087D01*
X135452778Y-75702991D01*
X135423448Y-75738729D01*
X135340186Y-75840186D01*
X135238729Y-75923448D01*
X135202991Y-75952778D01*
X135202989Y-75952779D01*
X135046467Y-76036443D01*
X134989853Y-76053616D01*
X134876627Y-76087963D01*
X134810442Y-76094482D01*
X134744260Y-76101000D01*
X134655740Y-76101000D01*
X134589558Y-76094482D01*
X134523373Y-76087963D01*
X134410147Y-76053616D01*
X134353533Y-76036443D01*
X134197011Y-75952779D01*
X134197009Y-75952778D01*
X134161271Y-75923448D01*
X134059814Y-75840186D01*
X133976552Y-75738729D01*
X133947222Y-75702991D01*
X133937652Y-75685087D01*
X133863557Y-75546467D01*
X133846384Y-75489853D01*
X133812037Y-75376627D01*
X133794641Y-75200000D01*
X133812037Y-75023373D01*
X133863557Y-74853534D01*
X133863557Y-74853533D01*
X133947221Y-74697011D01*
X133947222Y-74697009D01*
X133976552Y-74661271D01*
X134059814Y-74559814D01*
X134161271Y-74476552D01*
X134197009Y-74447222D01*
X134214913Y-74437652D01*
X134353533Y-74363557D01*
X134410147Y-74346384D01*
X134523373Y-74312037D01*
X134589558Y-74305518D01*
X134655740Y-74299000D01*
X134744260Y-74299000D01*
X134810442Y-74305518D01*
X134810442Y-74305518D01*
G37*
G36*
X137350442Y-74305518D02*
X137416627Y-74312037D01*
X137529853Y-74346384D01*
X137586467Y-74363557D01*
X137725087Y-74437652D01*
X137742991Y-74447222D01*
X137778729Y-74476552D01*
X137880186Y-74559814D01*
X137963448Y-74661271D01*
X137992778Y-74697009D01*
X137992779Y-74697011D01*
X138076443Y-74853533D01*
X138076443Y-74853534D01*
X138127963Y-75023373D01*
X138145359Y-75200000D01*
X138127963Y-75376627D01*
X138093616Y-75489853D01*
X138076443Y-75546467D01*
X138002348Y-75685087D01*
X137992778Y-75702991D01*
X137963448Y-75738729D01*
X137880186Y-75840186D01*
X137778729Y-75923448D01*
X137742991Y-75952778D01*
X137742989Y-75952779D01*
X137586467Y-76036443D01*
X137529853Y-76053616D01*
X137416627Y-76087963D01*
X137350442Y-76094482D01*
X137284260Y-76101000D01*
X137195740Y-76101000D01*
X137129558Y-76094482D01*
X137063373Y-76087963D01*
X136950147Y-76053616D01*
X136893533Y-76036443D01*
X136737011Y-75952779D01*
X136737009Y-75952778D01*
X136701271Y-75923448D01*
X136599814Y-75840186D01*
X136516552Y-75738729D01*
X136487222Y-75702991D01*
X136477652Y-75685087D01*
X136403557Y-75546467D01*
X136386384Y-75489853D01*
X136352037Y-75376627D01*
X136334641Y-75200000D01*
X136352037Y-75023373D01*
X136403557Y-74853534D01*
X136403557Y-74853533D01*
X136487221Y-74697011D01*
X136487222Y-74697009D01*
X136516552Y-74661271D01*
X136599814Y-74559814D01*
X136701271Y-74476552D01*
X136737009Y-74447222D01*
X136754913Y-74437652D01*
X136893533Y-74363557D01*
X136950147Y-74346384D01*
X137063373Y-74312037D01*
X137129558Y-74305518D01*
X137195740Y-74299000D01*
X137284260Y-74299000D01*
X137350442Y-74305518D01*
X137350442Y-74305518D01*
G37*
G36*
X139890442Y-74305518D02*
X139956627Y-74312037D01*
X140069853Y-74346384D01*
X140126467Y-74363557D01*
X140265087Y-74437652D01*
X140282991Y-74447222D01*
X140318729Y-74476552D01*
X140420186Y-74559814D01*
X140503448Y-74661271D01*
X140532778Y-74697009D01*
X140532779Y-74697011D01*
X140616443Y-74853533D01*
X140616443Y-74853534D01*
X140667963Y-75023373D01*
X140685359Y-75200000D01*
X140667963Y-75376627D01*
X140633616Y-75489853D01*
X140616443Y-75546467D01*
X140542348Y-75685087D01*
X140532778Y-75702991D01*
X140503448Y-75738729D01*
X140420186Y-75840186D01*
X140318729Y-75923448D01*
X140282991Y-75952778D01*
X140282989Y-75952779D01*
X140126467Y-76036443D01*
X140069853Y-76053616D01*
X139956627Y-76087963D01*
X139890442Y-76094482D01*
X139824260Y-76101000D01*
X139735740Y-76101000D01*
X139669558Y-76094482D01*
X139603373Y-76087963D01*
X139490147Y-76053616D01*
X139433533Y-76036443D01*
X139277011Y-75952779D01*
X139277009Y-75952778D01*
X139241271Y-75923448D01*
X139139814Y-75840186D01*
X139056552Y-75738729D01*
X139027222Y-75702991D01*
X139017652Y-75685087D01*
X138943557Y-75546467D01*
X138926384Y-75489853D01*
X138892037Y-75376627D01*
X138874641Y-75200000D01*
X138892037Y-75023373D01*
X138943557Y-74853534D01*
X138943557Y-74853533D01*
X139027221Y-74697011D01*
X139027222Y-74697009D01*
X139056552Y-74661271D01*
X139139814Y-74559814D01*
X139241271Y-74476552D01*
X139277009Y-74447222D01*
X139294913Y-74437652D01*
X139433533Y-74363557D01*
X139490147Y-74346384D01*
X139603373Y-74312037D01*
X139669558Y-74305518D01*
X139735740Y-74299000D01*
X139824260Y-74299000D01*
X139890442Y-74305518D01*
X139890442Y-74305518D01*
G37*
G36*
X142430442Y-74305518D02*
X142496627Y-74312037D01*
X142609853Y-74346384D01*
X142666467Y-74363557D01*
X142805087Y-74437652D01*
X142822991Y-74447222D01*
X142858729Y-74476552D01*
X142960186Y-74559814D01*
X143043448Y-74661271D01*
X143072778Y-74697009D01*
X143072779Y-74697011D01*
X143156443Y-74853533D01*
X143156443Y-74853534D01*
X143207963Y-75023373D01*
X143225359Y-75200000D01*
X143207963Y-75376627D01*
X143173616Y-75489853D01*
X143156443Y-75546467D01*
X143082348Y-75685087D01*
X143072778Y-75702991D01*
X143043448Y-75738729D01*
X142960186Y-75840186D01*
X142858729Y-75923448D01*
X142822991Y-75952778D01*
X142822989Y-75952779D01*
X142666467Y-76036443D01*
X142609853Y-76053616D01*
X142496627Y-76087963D01*
X142430442Y-76094482D01*
X142364260Y-76101000D01*
X142275740Y-76101000D01*
X142209558Y-76094482D01*
X142143373Y-76087963D01*
X142030147Y-76053616D01*
X141973533Y-76036443D01*
X141817011Y-75952779D01*
X141817009Y-75952778D01*
X141781271Y-75923448D01*
X141679814Y-75840186D01*
X141596552Y-75738729D01*
X141567222Y-75702991D01*
X141557652Y-75685087D01*
X141483557Y-75546467D01*
X141466384Y-75489853D01*
X141432037Y-75376627D01*
X141414641Y-75200000D01*
X141432037Y-75023373D01*
X141483557Y-74853534D01*
X141483557Y-74853533D01*
X141567221Y-74697011D01*
X141567222Y-74697009D01*
X141596552Y-74661271D01*
X141679814Y-74559814D01*
X141781271Y-74476552D01*
X141817009Y-74447222D01*
X141834913Y-74437652D01*
X141973533Y-74363557D01*
X142030147Y-74346384D01*
X142143373Y-74312037D01*
X142209558Y-74305518D01*
X142275740Y-74299000D01*
X142364260Y-74299000D01*
X142430442Y-74305518D01*
X142430442Y-74305518D01*
G37*
G36*
X145761000Y-76101000D02*
X143959000Y-76101000D01*
X143959000Y-74299000D01*
X145761000Y-74299000D01*
X145761000Y-76101000D01*
X145761000Y-76101000D01*
G37*
G36*
X117030442Y-74305518D02*
X117096627Y-74312037D01*
X117209853Y-74346384D01*
X117266467Y-74363557D01*
X117405087Y-74437652D01*
X117422991Y-74447222D01*
X117458729Y-74476552D01*
X117560186Y-74559814D01*
X117643448Y-74661271D01*
X117672778Y-74697009D01*
X117672779Y-74697011D01*
X117756443Y-74853533D01*
X117756443Y-74853534D01*
X117807963Y-75023373D01*
X117825359Y-75200000D01*
X117807963Y-75376627D01*
X117773616Y-75489853D01*
X117756443Y-75546467D01*
X117682348Y-75685087D01*
X117672778Y-75702991D01*
X117643448Y-75738729D01*
X117560186Y-75840186D01*
X117458729Y-75923448D01*
X117422991Y-75952778D01*
X117422989Y-75952779D01*
X117266467Y-76036443D01*
X117209853Y-76053616D01*
X117096627Y-76087963D01*
X117030442Y-76094482D01*
X116964260Y-76101000D01*
X116875740Y-76101000D01*
X116809558Y-76094482D01*
X116743373Y-76087963D01*
X116630147Y-76053616D01*
X116573533Y-76036443D01*
X116417011Y-75952779D01*
X116417009Y-75952778D01*
X116381271Y-75923448D01*
X116279814Y-75840186D01*
X116196552Y-75738729D01*
X116167222Y-75702991D01*
X116157652Y-75685087D01*
X116083557Y-75546467D01*
X116066384Y-75489853D01*
X116032037Y-75376627D01*
X116014641Y-75200000D01*
X116032037Y-75023373D01*
X116083557Y-74853534D01*
X116083557Y-74853533D01*
X116167221Y-74697011D01*
X116167222Y-74697009D01*
X116196552Y-74661271D01*
X116279814Y-74559814D01*
X116381271Y-74476552D01*
X116417009Y-74447222D01*
X116434913Y-74437652D01*
X116573533Y-74363557D01*
X116630147Y-74346384D01*
X116743373Y-74312037D01*
X116809558Y-74305518D01*
X116875740Y-74299000D01*
X116964260Y-74299000D01*
X117030442Y-74305518D01*
X117030442Y-74305518D01*
G37*
G36*
X114490442Y-74305518D02*
X114556627Y-74312037D01*
X114669853Y-74346384D01*
X114726467Y-74363557D01*
X114865087Y-74437652D01*
X114882991Y-74447222D01*
X114918729Y-74476552D01*
X115020186Y-74559814D01*
X115103448Y-74661271D01*
X115132778Y-74697009D01*
X115132779Y-74697011D01*
X115216443Y-74853533D01*
X115216443Y-74853534D01*
X115267963Y-75023373D01*
X115285359Y-75200000D01*
X115267963Y-75376627D01*
X115233616Y-75489853D01*
X115216443Y-75546467D01*
X115142348Y-75685087D01*
X115132778Y-75702991D01*
X115103448Y-75738729D01*
X115020186Y-75840186D01*
X114918729Y-75923448D01*
X114882991Y-75952778D01*
X114882989Y-75952779D01*
X114726467Y-76036443D01*
X114669853Y-76053616D01*
X114556627Y-76087963D01*
X114490442Y-76094482D01*
X114424260Y-76101000D01*
X114335740Y-76101000D01*
X114269558Y-76094482D01*
X114203373Y-76087963D01*
X114090147Y-76053616D01*
X114033533Y-76036443D01*
X113877011Y-75952779D01*
X113877009Y-75952778D01*
X113841271Y-75923448D01*
X113739814Y-75840186D01*
X113656552Y-75738729D01*
X113627222Y-75702991D01*
X113617652Y-75685087D01*
X113543557Y-75546467D01*
X113526384Y-75489853D01*
X113492037Y-75376627D01*
X113474641Y-75200000D01*
X113492037Y-75023373D01*
X113543557Y-74853534D01*
X113543557Y-74853533D01*
X113627221Y-74697011D01*
X113627222Y-74697009D01*
X113656552Y-74661271D01*
X113739814Y-74559814D01*
X113841271Y-74476552D01*
X113877009Y-74447222D01*
X113894913Y-74437652D01*
X114033533Y-74363557D01*
X114090147Y-74346384D01*
X114203373Y-74312037D01*
X114269558Y-74305518D01*
X114335740Y-74299000D01*
X114424260Y-74299000D01*
X114490442Y-74305518D01*
X114490442Y-74305518D01*
G37*
G36*
X111950442Y-74305518D02*
X112016627Y-74312037D01*
X112129853Y-74346384D01*
X112186467Y-74363557D01*
X112325087Y-74437652D01*
X112342991Y-74447222D01*
X112378729Y-74476552D01*
X112480186Y-74559814D01*
X112563448Y-74661271D01*
X112592778Y-74697009D01*
X112592779Y-74697011D01*
X112676443Y-74853533D01*
X112676443Y-74853534D01*
X112727963Y-75023373D01*
X112745359Y-75200000D01*
X112727963Y-75376627D01*
X112693616Y-75489853D01*
X112676443Y-75546467D01*
X112602348Y-75685087D01*
X112592778Y-75702991D01*
X112563448Y-75738729D01*
X112480186Y-75840186D01*
X112378729Y-75923448D01*
X112342991Y-75952778D01*
X112342989Y-75952779D01*
X112186467Y-76036443D01*
X112129853Y-76053616D01*
X112016627Y-76087963D01*
X111950442Y-76094482D01*
X111884260Y-76101000D01*
X111795740Y-76101000D01*
X111729558Y-76094482D01*
X111663373Y-76087963D01*
X111550147Y-76053616D01*
X111493533Y-76036443D01*
X111337011Y-75952779D01*
X111337009Y-75952778D01*
X111301271Y-75923448D01*
X111199814Y-75840186D01*
X111116552Y-75738729D01*
X111087222Y-75702991D01*
X111077652Y-75685087D01*
X111003557Y-75546467D01*
X110986384Y-75489853D01*
X110952037Y-75376627D01*
X110934641Y-75200000D01*
X110952037Y-75023373D01*
X111003557Y-74853534D01*
X111003557Y-74853533D01*
X111087221Y-74697011D01*
X111087222Y-74697009D01*
X111116552Y-74661271D01*
X111199814Y-74559814D01*
X111301271Y-74476552D01*
X111337009Y-74447222D01*
X111354913Y-74437652D01*
X111493533Y-74363557D01*
X111550147Y-74346384D01*
X111663373Y-74312037D01*
X111729558Y-74305518D01*
X111795740Y-74299000D01*
X111884260Y-74299000D01*
X111950442Y-74305518D01*
X111950442Y-74305518D01*
G37*
G36*
X109410442Y-74305518D02*
X109476627Y-74312037D01*
X109589853Y-74346384D01*
X109646467Y-74363557D01*
X109785087Y-74437652D01*
X109802991Y-74447222D01*
X109838729Y-74476552D01*
X109940186Y-74559814D01*
X110023448Y-74661271D01*
X110052778Y-74697009D01*
X110052779Y-74697011D01*
X110136443Y-74853533D01*
X110136443Y-74853534D01*
X110187963Y-75023373D01*
X110205359Y-75200000D01*
X110187963Y-75376627D01*
X110153616Y-75489853D01*
X110136443Y-75546467D01*
X110062348Y-75685087D01*
X110052778Y-75702991D01*
X110023448Y-75738729D01*
X109940186Y-75840186D01*
X109838729Y-75923448D01*
X109802991Y-75952778D01*
X109802989Y-75952779D01*
X109646467Y-76036443D01*
X109589853Y-76053616D01*
X109476627Y-76087963D01*
X109410442Y-76094482D01*
X109344260Y-76101000D01*
X109255740Y-76101000D01*
X109189558Y-76094482D01*
X109123373Y-76087963D01*
X109010147Y-76053616D01*
X108953533Y-76036443D01*
X108797011Y-75952779D01*
X108797009Y-75952778D01*
X108761271Y-75923448D01*
X108659814Y-75840186D01*
X108576552Y-75738729D01*
X108547222Y-75702991D01*
X108537652Y-75685087D01*
X108463557Y-75546467D01*
X108446384Y-75489853D01*
X108412037Y-75376627D01*
X108394641Y-75200000D01*
X108412037Y-75023373D01*
X108463557Y-74853534D01*
X108463557Y-74853533D01*
X108547221Y-74697011D01*
X108547222Y-74697009D01*
X108576552Y-74661271D01*
X108659814Y-74559814D01*
X108761271Y-74476552D01*
X108797009Y-74447222D01*
X108814913Y-74437652D01*
X108953533Y-74363557D01*
X109010147Y-74346384D01*
X109123373Y-74312037D01*
X109189558Y-74305518D01*
X109255740Y-74299000D01*
X109344260Y-74299000D01*
X109410442Y-74305518D01*
X109410442Y-74305518D01*
G37*
G36*
X132270442Y-74305518D02*
X132336627Y-74312037D01*
X132449853Y-74346384D01*
X132506467Y-74363557D01*
X132645087Y-74437652D01*
X132662991Y-74447222D01*
X132698729Y-74476552D01*
X132800186Y-74559814D01*
X132883448Y-74661271D01*
X132912778Y-74697009D01*
X132912779Y-74697011D01*
X132996443Y-74853533D01*
X132996443Y-74853534D01*
X133047963Y-75023373D01*
X133065359Y-75200000D01*
X133047963Y-75376627D01*
X133013616Y-75489853D01*
X132996443Y-75546467D01*
X132922348Y-75685087D01*
X132912778Y-75702991D01*
X132883448Y-75738729D01*
X132800186Y-75840186D01*
X132698729Y-75923448D01*
X132662991Y-75952778D01*
X132662989Y-75952779D01*
X132506467Y-76036443D01*
X132449853Y-76053616D01*
X132336627Y-76087963D01*
X132270442Y-76094482D01*
X132204260Y-76101000D01*
X132115740Y-76101000D01*
X132049558Y-76094482D01*
X131983373Y-76087963D01*
X131870147Y-76053616D01*
X131813533Y-76036443D01*
X131657011Y-75952779D01*
X131657009Y-75952778D01*
X131621271Y-75923448D01*
X131519814Y-75840186D01*
X131436552Y-75738729D01*
X131407222Y-75702991D01*
X131397652Y-75685087D01*
X131323557Y-75546467D01*
X131306384Y-75489853D01*
X131272037Y-75376627D01*
X131254641Y-75200000D01*
X131272037Y-75023373D01*
X131323557Y-74853534D01*
X131323557Y-74853533D01*
X131407221Y-74697011D01*
X131407222Y-74697009D01*
X131436552Y-74661271D01*
X131519814Y-74559814D01*
X131621271Y-74476552D01*
X131657009Y-74447222D01*
X131674913Y-74437652D01*
X131813533Y-74363557D01*
X131870147Y-74346384D01*
X131983373Y-74312037D01*
X132049558Y-74305518D01*
X132115740Y-74299000D01*
X132204260Y-74299000D01*
X132270442Y-74305518D01*
X132270442Y-74305518D01*
G37*
M02*
