G04 #@! TF.GenerationSoftware,KiCad,Pcbnew,5.0.1-33cea8e~68~ubuntu14.04.1*
G04 #@! TF.CreationDate,2018-11-09T11:09:35-08:00*
G04 #@! TF.ProjectId,ga144-breakout,67613134342D627265616B6F75742E6B,rev?*
G04 #@! TF.SameCoordinates,Original*
G04 #@! TF.FileFunction,Copper,L2,Bot,Signal*
G04 #@! TF.FilePolarity,Positive*
%FSLAX46Y46*%
G04 Gerber Fmt 4.6, Leading zero omitted, Abs format (unit mm)*
G04 Created by KiCad (PCBNEW 5.0.1-33cea8e~68~ubuntu14.04.1) date Fri 09 Nov 2018 11:09:35 AM PST*
%MOMM*%
%LPD*%
G01*
G04 APERTURE LIST*
G04 #@! TA.AperFunction,ComponentPad*
%ADD10O,1.500000X1.100000*%
G04 #@! TD*
G04 #@! TA.AperFunction,ComponentPad*
%ADD11O,1.700000X1.350000*%
G04 #@! TD*
G04 #@! TA.AperFunction,ComponentPad*
%ADD12R,1.700000X1.700000*%
G04 #@! TD*
G04 #@! TA.AperFunction,ComponentPad*
%ADD13O,1.700000X1.700000*%
G04 #@! TD*
G04 #@! TA.AperFunction,ComponentPad*
%ADD14C,1.000000*%
G04 #@! TD*
G04 #@! TA.AperFunction,ViaPad*
%ADD15C,0.800000*%
G04 #@! TD*
G04 #@! TA.AperFunction,Conductor*
%ADD16C,0.250000*%
G04 #@! TD*
G04 #@! TA.AperFunction,Conductor*
%ADD17C,0.160000*%
G04 #@! TD*
G04 #@! TA.AperFunction,Conductor*
%ADD18C,0.200000*%
G04 #@! TD*
G04 APERTURE END LIST*
D10*
G04 #@! TO.P,J1,6*
G04 #@! TO.N,Net-(J1-Pad6)*
X96760000Y-80530000D03*
X96760000Y-85370000D03*
D11*
X93760000Y-80220000D03*
X93760000Y-85680000D03*
G04 #@! TD*
D12*
G04 #@! TO.P,J9,1*
G04 #@! TO.N,500.17*
X157289500Y-75184000D03*
D13*
G04 #@! TO.P,J9,2*
G04 #@! TO.N,600.17*
X157289500Y-77724000D03*
G04 #@! TO.P,J9,3*
G04 #@! TO.N,701.1*
X157289500Y-80264000D03*
G04 #@! TO.P,J9,4*
G04 #@! TO.N,701.17*
X157289500Y-82804000D03*
G04 #@! TO.P,J9,5*
G04 #@! TO.N,705.17*
X157289500Y-85344000D03*
G04 #@! TO.P,J9,6*
G04 #@! TO.N,705.5*
X157289500Y-87884000D03*
G04 #@! TO.P,J9,7*
G04 #@! TO.N,705.3*
X157289500Y-90424000D03*
G04 #@! TO.P,J9,8*
G04 #@! TO.N,705.1*
X157289500Y-92964000D03*
G04 #@! TO.P,J9,9*
G04 #@! TO.N,708.1*
X157289500Y-95504000D03*
G04 #@! TO.P,J9,10*
G04 #@! TO.N,708.17*
X157289500Y-98044000D03*
G04 #@! TO.P,J9,11*
G04 #@! TO.N,709.ao*
X157289500Y-100584000D03*
G04 #@! TO.P,J9,12*
G04 #@! TO.N,709.ai*
X157289500Y-103124000D03*
G04 #@! TO.P,J9,13*
G04 #@! TO.N,713ai*
X157289500Y-105664000D03*
G04 #@! TO.P,J9,14*
G04 #@! TO.N,713.ao*
X157289500Y-108204000D03*
G04 #@! TO.P,J9,15*
G04 #@! TO.N,715.17*
X157289500Y-110744000D03*
G04 #@! TO.P,J9,16*
G04 #@! TO.N,717.ao*
X157289500Y-113284000D03*
G04 #@! TO.P,J9,17*
G04 #@! TO.N,717.ai*
X157289500Y-115824000D03*
G04 #@! TD*
D14*
G04 #@! TO.P,Y1,1*
G04 #@! TO.N,517.17*
X143400000Y-104550000D03*
G04 #@! TO.P,Y1,2*
G04 #@! TO.N,GND*
X141500000Y-104550000D03*
G04 #@! TD*
D13*
G04 #@! TO.P,J2,2*
G04 #@! TO.N,708.17*
X96780000Y-89345600D03*
D12*
G04 #@! TO.P,J2,1*
G04 #@! TO.N,txd*
X94240000Y-89345600D03*
G04 #@! TD*
G04 #@! TO.P,J3,1*
G04 #@! TO.N,rxd*
X94240000Y-93054000D03*
D13*
G04 #@! TO.P,J3,2*
G04 #@! TO.N,708.1*
X96780000Y-93054000D03*
G04 #@! TD*
D12*
G04 #@! TO.P,J4,1*
G04 #@! TO.N,1.8v*
X94280000Y-102870000D03*
D13*
G04 #@! TO.P,J4,2*
G04 #@! TO.N,vccA*
X96820000Y-102870000D03*
G04 #@! TO.P,J4,3*
G04 #@! TO.N,vin*
X99360000Y-102870000D03*
G04 #@! TD*
G04 #@! TO.P,J5,3*
G04 #@! TO.N,vin*
X99360000Y-100070000D03*
G04 #@! TO.P,J5,2*
G04 #@! TO.N,vccI*
X96820000Y-100070000D03*
D12*
G04 #@! TO.P,J5,1*
G04 #@! TO.N,1.8v*
X94280000Y-100070000D03*
G04 #@! TD*
G04 #@! TO.P,J6,1*
G04 #@! TO.N,1.8v*
X94260800Y-97250400D03*
D13*
G04 #@! TO.P,J6,2*
G04 #@! TO.N,vccC*
X96800800Y-97250400D03*
G04 #@! TO.P,J6,3*
G04 #@! TO.N,vin*
X99340800Y-97250400D03*
G04 #@! TD*
D12*
G04 #@! TO.P,J11,1*
G04 #@! TO.N,617.ao*
X148945600Y-115874800D03*
D13*
G04 #@! TO.P,J11,2*
G04 #@! TO.N,617.a1*
X146405600Y-115874800D03*
G04 #@! TO.P,J11,3*
G04 #@! TO.N,517.17*
X143865600Y-115874800D03*
G04 #@! TO.P,J11,4*
G04 #@! TO.N,417.17*
X141325600Y-115874800D03*
G04 #@! TO.P,J11,5*
G04 #@! TO.N,317.17*
X138785600Y-115874800D03*
G04 #@! TO.P,J11,6*
G04 #@! TO.N,217.17*
X136245600Y-115874800D03*
G04 #@! TO.P,J11,7*
G04 #@! TO.N,117.ao*
X133705600Y-115874800D03*
G04 #@! TO.P,J11,8*
G04 #@! TO.N,117.ai*
X131165600Y-115874800D03*
G04 #@! TO.P,J11,9*
G04 #@! TO.N,008.1*
X128625600Y-115874800D03*
G04 #@! TO.P,J11,10*
G04 #@! TO.N,008.3*
X126085600Y-115874800D03*
G04 #@! TO.P,J11,11*
G04 #@! TO.N,008.5*
X123545600Y-115874800D03*
G04 #@! TO.P,J11,12*
G04 #@! TO.N,008.17*
X121005600Y-115874800D03*
G04 #@! TO.P,J11,13*
G04 #@! TO.N,001.17*
X118465600Y-115874800D03*
G04 #@! TO.P,J11,14*
G04 #@! TO.N,001.1*
X115925600Y-115874800D03*
G04 #@! TO.P,J11,15*
G04 #@! TO.N,100.17*
X113385600Y-115874800D03*
G04 #@! TO.P,J11,16*
G04 #@! TO.N,200.17*
X110845600Y-115874800D03*
G04 #@! TO.P,J11,17*
G04 #@! TO.N,300.1*
X108305600Y-115874800D03*
G04 #@! TO.P,J11,18*
G04 #@! TO.N,300.17*
X105765600Y-115874800D03*
G04 #@! TD*
D12*
G04 #@! TO.P,J7,1*
G04 #@! TO.N,d15*
X109350000Y-78000000D03*
D13*
G04 #@! TO.P,J7,2*
G04 #@! TO.N,d16*
X109350000Y-80540000D03*
G04 #@! TO.P,J7,3*
G04 #@! TO.N,d17*
X109350000Y-83080000D03*
G04 #@! TO.P,J7,4*
G04 #@! TO.N,a17*
X109350000Y-85620000D03*
G04 #@! TO.P,J7,5*
G04 #@! TO.N,a16*
X109350000Y-88160000D03*
G04 #@! TO.P,J7,6*
G04 #@! TO.N,a15*
X109350000Y-90700000D03*
G04 #@! TO.P,J7,7*
G04 #@! TO.N,a14*
X109350000Y-93240000D03*
G04 #@! TO.P,J7,8*
G04 #@! TO.N,a13*
X109350000Y-95780000D03*
G04 #@! TO.P,J7,9*
G04 #@! TO.N,a12*
X109350000Y-98320000D03*
G04 #@! TD*
D12*
G04 #@! TO.P,J12,1*
G04 #@! TO.N,d0*
X144860000Y-75200000D03*
D13*
G04 #@! TO.P,J12,2*
G04 #@! TO.N,d1*
X142320000Y-75200000D03*
G04 #@! TO.P,J12,3*
G04 #@! TO.N,d2*
X139780000Y-75200000D03*
G04 #@! TO.P,J12,4*
G04 #@! TO.N,d3*
X137240000Y-75200000D03*
G04 #@! TO.P,J12,5*
G04 #@! TO.N,d4*
X134700000Y-75200000D03*
G04 #@! TO.P,J12,6*
G04 #@! TO.N,d5*
X132160000Y-75200000D03*
G04 #@! TO.P,J12,7*
G04 #@! TO.N,d6*
X129620000Y-75200000D03*
G04 #@! TO.P,J12,8*
G04 #@! TO.N,d7*
X127080000Y-75200000D03*
G04 #@! TO.P,J12,9*
G04 #@! TO.N,d8*
X124540000Y-75200000D03*
G04 #@! TO.P,J12,10*
G04 #@! TO.N,d9*
X122000000Y-75200000D03*
G04 #@! TO.P,J12,11*
G04 #@! TO.N,d10*
X119460000Y-75200000D03*
G04 #@! TO.P,J12,12*
G04 #@! TO.N,d11*
X116920000Y-75200000D03*
G04 #@! TO.P,J12,13*
G04 #@! TO.N,d12*
X114380000Y-75200000D03*
G04 #@! TO.P,J12,14*
G04 #@! TO.N,d13*
X111840000Y-75200000D03*
G04 #@! TO.P,J12,15*
G04 #@! TO.N,d14*
X109300000Y-75200000D03*
G04 #@! TD*
D12*
G04 #@! TO.P,J10,1*
G04 #@! TO.N,a0*
X137290000Y-101100000D03*
D13*
G04 #@! TO.P,J10,2*
G04 #@! TO.N,a1*
X134750000Y-101100000D03*
G04 #@! TO.P,J10,3*
G04 #@! TO.N,a2*
X132210000Y-101100000D03*
G04 #@! TO.P,J10,4*
G04 #@! TO.N,a3*
X129670000Y-101100000D03*
G04 #@! TO.P,J10,5*
G04 #@! TO.N,a4*
X127130000Y-101100000D03*
G04 #@! TO.P,J10,6*
G04 #@! TO.N,a5*
X124590000Y-101100000D03*
G04 #@! TO.P,J10,7*
G04 #@! TO.N,a6*
X122050000Y-101100000D03*
G04 #@! TO.P,J10,8*
G04 #@! TO.N,a7*
X119510000Y-101100000D03*
G04 #@! TO.P,J10,9*
G04 #@! TO.N,a8*
X116970000Y-101100000D03*
G04 #@! TO.P,J10,10*
G04 #@! TO.N,a9*
X114430000Y-101100000D03*
G04 #@! TO.P,J10,11*
G04 #@! TO.N,a10*
X111890000Y-101100000D03*
G04 #@! TO.P,J10,12*
G04 #@! TO.N,a11*
X109350000Y-101100000D03*
G04 #@! TD*
D12*
G04 #@! TO.P,J8,1*
G04 #@! TO.N,vccC*
X111870000Y-98300000D03*
D13*
G04 #@! TO.P,J8,2*
G04 #@! TO.N,GND*
X114410000Y-98300000D03*
G04 #@! TO.P,J8,3*
G04 #@! TO.N,008.17*
X116950000Y-98300000D03*
G04 #@! TO.P,J8,4*
G04 #@! TO.N,008.5*
X119490000Y-98300000D03*
G04 #@! TO.P,J8,5*
G04 #@! TO.N,008.3*
X122030000Y-98300000D03*
G04 #@! TO.P,J8,6*
G04 #@! TO.N,008.1*
X124570000Y-98300000D03*
G04 #@! TD*
D12*
G04 #@! TO.P,J13,1*
G04 #@! TO.N,vccC*
X147500000Y-87850000D03*
D13*
G04 #@! TO.P,J13,2*
G04 #@! TO.N,RESET*
X147500000Y-90390000D03*
G04 #@! TO.P,J13,3*
G04 #@! TO.N,GND*
X147500000Y-92930000D03*
G04 #@! TD*
D12*
G04 #@! TO.P,J14,1*
G04 #@! TO.N,GND*
X96950000Y-110800000D03*
D13*
G04 #@! TO.P,J14,2*
G04 #@! TO.N,vin*
X96950000Y-113340000D03*
G04 #@! TO.P,J14,3*
G04 #@! TO.N,vcc*
X96950000Y-115880000D03*
G04 #@! TD*
D15*
G04 #@! TO.N,GND*
X116928900Y-83743800D03*
G04 #@! TO.N,vcc*
X104020000Y-79950000D03*
X105950000Y-86050000D03*
G04 #@! TO.N,GND*
X105000000Y-88660000D03*
X101170000Y-90720000D03*
G04 #@! TO.N,usb3*
X104850000Y-75994996D03*
X101210000Y-88320000D03*
X99500000Y-83030010D03*
G04 #@! TO.N,GND*
X127632700Y-89834375D03*
X128889936Y-88577140D03*
X126375464Y-91091611D03*
X127668621Y-84769511D03*
X122639678Y-89798454D03*
X125118228Y-87319904D03*
X126375464Y-86062668D03*
X123860993Y-88577140D03*
X126411385Y-83512275D03*
X121382442Y-88541219D03*
X123860993Y-86062668D03*
X128961778Y-86062668D03*
X123932835Y-91091611D03*
X126411385Y-88613061D03*
X140795000Y-87550000D03*
X140950000Y-85100000D03*
X135900000Y-84460000D03*
X101210000Y-86745000D03*
X93740000Y-77390000D03*
X133630000Y-91840000D03*
X102740000Y-94060000D03*
X113614200Y-89141300D03*
X125154150Y-92312926D03*
X130183093Y-87283983D03*
X123860993Y-83548196D03*
X121346521Y-86062668D03*
X120125206Y-87283983D03*
X125154150Y-82255039D03*
X122603757Y-84805432D03*
X125118228Y-84805432D03*
X122603757Y-87319904D03*
X125154150Y-89870296D03*
X127668621Y-87355825D03*
G04 #@! TO.N,usb2*
X102860000Y-76040010D03*
X101210000Y-82940000D03*
G04 #@! TO.N,vccA*
X134335000Y-84430000D03*
X114564330Y-87047831D03*
G04 #@! TO.N,vccI*
X118050000Y-84850000D03*
X119350000Y-94689924D03*
X115233072Y-89131737D03*
X131215801Y-80834754D03*
X113820000Y-86380000D03*
X132894556Y-89140289D03*
X124520000Y-78560000D03*
X128413425Y-97039925D03*
G04 #@! TO.N,vccC*
X116750001Y-80520000D03*
X131409988Y-89831233D03*
X134335000Y-82950000D03*
X129830394Y-97319709D03*
X127516210Y-97489936D03*
X112246929Y-84749041D03*
X130040058Y-80610120D03*
X113185768Y-90834813D03*
X123409506Y-79354924D03*
G04 #@! TO.N,1.8v*
X103962200Y-91313000D03*
X104050000Y-86050000D03*
G04 #@! TO.N,a17*
X114937348Y-94647469D03*
G04 #@! TO.N,a16*
X116550000Y-94689935D03*
G04 #@! TO.N,a15*
X117929857Y-94746761D03*
G04 #@! TO.N,a14*
X123040000Y-94170001D03*
G04 #@! TO.N,a13*
X124037148Y-94689937D03*
G04 #@! TO.N,a12*
X125080000Y-95049945D03*
G04 #@! TO.N,a11*
X126669990Y-95661653D03*
G04 #@! TO.N,a10*
X127407239Y-96422759D03*
G04 #@! TO.N,a9*
X131968199Y-97400054D03*
G04 #@! TO.N,a8*
X132965442Y-97325691D03*
G04 #@! TO.N,a7*
X133930567Y-97063858D03*
G04 #@! TO.N,a6*
X134778314Y-96533436D03*
G04 #@! TO.N,a5*
X135443547Y-95786784D03*
G04 #@! TO.N,a4*
X136021640Y-94970799D03*
G04 #@! TO.N,a3*
X135230000Y-89570000D03*
G04 #@! TO.N,a2*
X136090000Y-90200000D03*
G04 #@! TO.N,a1*
X136890000Y-91300000D03*
G04 #@! TO.N,a0*
X137047638Y-92532362D03*
G04 #@! TO.N,d15*
X112959809Y-91808962D03*
G04 #@! TO.N,d16*
X112617598Y-92748598D03*
G04 #@! TO.N,d17*
X112510021Y-93742806D03*
G04 #@! TO.N,RESET*
X146490000Y-77930000D03*
X93750000Y-74420000D03*
X93750000Y-74420000D03*
X101180000Y-92287500D03*
G04 #@! TO.N,708.17*
X108710043Y-106980000D03*
G04 #@! TO.N,708.1*
X108710043Y-105840000D03*
G04 #@! TO.N,600.17*
X122515937Y-79803851D03*
G04 #@! TO.N,500.17*
X121808885Y-80511029D03*
G04 #@! TO.N,300.17*
X118808025Y-78854740D03*
G04 #@! TO.N,300.1*
X117880000Y-79540002D03*
G04 #@! TO.N,217.17*
X136245600Y-115874800D03*
G04 #@! TO.N,705.1*
X142157514Y-93009166D03*
G04 #@! TO.N,705.3*
X144605000Y-87550000D03*
G04 #@! TO.N,705.5*
X140795000Y-92950000D03*
G04 #@! TO.N,705.17*
X143335000Y-87550000D03*
G04 #@! TO.N,100.17*
X114799999Y-82269999D03*
G04 #@! TO.N,200.17*
X115741555Y-81472395D03*
G04 #@! TO.N,vcc*
X104410000Y-93940000D03*
G04 #@! TD*
D16*
G04 #@! TO.N,vcc*
X104020000Y-79950000D02*
X104020000Y-84605000D01*
X104020000Y-84605000D02*
X105465000Y-86050000D01*
X105465000Y-86050000D02*
X105950000Y-86050000D01*
D17*
G04 #@! TO.N,usb3*
X99500000Y-86610000D02*
X99500000Y-83595695D01*
X99500000Y-83595695D02*
X99500000Y-83030010D01*
X104850000Y-75994996D02*
X104122504Y-75267500D01*
X101210000Y-88320000D02*
X99500000Y-86610000D01*
X99500000Y-82464325D02*
X99500000Y-83030010D01*
X99500000Y-78058596D02*
X99500000Y-82464325D01*
X102291096Y-75267500D02*
X99500000Y-78058596D01*
X104122504Y-75267500D02*
X102291096Y-75267500D01*
G04 #@! TO.N,GND*
X130449110Y-87550000D02*
X130183093Y-87283983D01*
X133630000Y-90093640D02*
X136173640Y-87550000D01*
X133630000Y-91840000D02*
X133630000Y-90093640D01*
X136173640Y-87550000D02*
X140335000Y-87550000D01*
X140335000Y-87550000D02*
X140795000Y-87550000D01*
G04 #@! TO.N,usb2*
X101210000Y-77690010D02*
X101210000Y-82402500D01*
X102860000Y-76040010D02*
X101210000Y-77690010D01*
X101210000Y-82402500D02*
X101210000Y-82940000D01*
G04 #@! TO.N,vccA*
X117852169Y-87047831D02*
X115130015Y-87047831D01*
X129894868Y-84430000D02*
X126939779Y-81474911D01*
X126939779Y-81474911D02*
X123425089Y-81474911D01*
X123425089Y-81474911D02*
X117852169Y-87047831D01*
X134335000Y-84430000D02*
X129894868Y-84430000D01*
X115130015Y-87047831D02*
X114564330Y-87047831D01*
G04 #@! TO.N,vccI*
X123045100Y-81114900D02*
X119310000Y-84850000D01*
X119310000Y-84850000D02*
X118050000Y-84850000D01*
X130670555Y-81380000D02*
X127354000Y-81380000D01*
X127354000Y-81380000D02*
X127088900Y-81114900D01*
X131215801Y-80834754D02*
X130670555Y-81380000D01*
X127088900Y-81114900D02*
X123045100Y-81114900D01*
X113820000Y-86945685D02*
X113820000Y-86380000D01*
X114219999Y-85980001D02*
X113820000Y-86380000D01*
X113820000Y-87718665D02*
X113820000Y-86945685D01*
X115350000Y-84850000D02*
X114219999Y-85980001D01*
X118050000Y-84850000D02*
X115350000Y-84850000D01*
X115233072Y-89131737D02*
X113820000Y-87718665D01*
X132328871Y-89140289D02*
X132894556Y-89140289D01*
X129100000Y-90000000D02*
X129959711Y-89140289D01*
X129959711Y-89140289D02*
X132328871Y-89140289D01*
D16*
X129506732Y-78560000D02*
X125085685Y-78560000D01*
X131215801Y-80269069D02*
X129506732Y-78560000D01*
X125085685Y-78560000D02*
X124520000Y-78560000D01*
X131215801Y-80834754D02*
X131215801Y-80269069D01*
D17*
X136750000Y-84163640D02*
X136750000Y-84719160D01*
X136750000Y-84719160D02*
X132894556Y-88574604D01*
X134011049Y-83630002D02*
X136216362Y-83630002D01*
X132894556Y-88574604D02*
X132894556Y-89140289D01*
X136216362Y-83630002D02*
X136750000Y-84163640D01*
X131215801Y-80834754D02*
X134011049Y-83630002D01*
X128413425Y-96474240D02*
X128413425Y-97039925D01*
X128413425Y-90686575D02*
X128413425Y-96474240D01*
X129100000Y-90000000D02*
X128413425Y-90686575D01*
X129100000Y-90000000D02*
X125740000Y-93360000D01*
X125740000Y-93360000D02*
X120679924Y-93360000D01*
X120679924Y-93360000D02*
X119749999Y-94289925D01*
X119749999Y-94289925D02*
X119350000Y-94689924D01*
D16*
G04 #@! TO.N,vccC*
X130230393Y-96919710D02*
X129830394Y-97319709D01*
X131409988Y-95740115D02*
X130230393Y-96919710D01*
X131409988Y-89831233D02*
X131409988Y-95740115D01*
D17*
X127756276Y-97730002D02*
X127516210Y-97489936D01*
X115147726Y-83383142D02*
X113612828Y-83383142D01*
X113612828Y-83383142D02*
X112646928Y-84349042D01*
X112646928Y-84349042D02*
X112246929Y-84749041D01*
X116750001Y-81780867D02*
X115147726Y-83383142D01*
X116750001Y-80520000D02*
X116750001Y-81780867D01*
X112785769Y-90434814D02*
X113185768Y-90834813D01*
X112646928Y-90295973D02*
X112785769Y-90434814D01*
X112646928Y-85149040D02*
X112646928Y-90295973D01*
X112246929Y-84749041D02*
X112646928Y-85149040D01*
D16*
X123409506Y-78547490D02*
X123409506Y-78789239D01*
D17*
X117459201Y-81229200D02*
X122100915Y-81229200D01*
D16*
X123809505Y-79754923D02*
X123409506Y-79354924D01*
X134335000Y-82950000D02*
X134335000Y-82375000D01*
X130040058Y-80610120D02*
X124664702Y-80610120D01*
X124221998Y-77734998D02*
X123409506Y-78547490D01*
D17*
X116750001Y-80520000D02*
X117459201Y-81229200D01*
D16*
X134335000Y-82375000D02*
X129694998Y-77734998D01*
D17*
X122100915Y-81229200D02*
X123409506Y-79920609D01*
X123409506Y-79920609D02*
X123409506Y-79354924D01*
D16*
X124664702Y-80610120D02*
X123809505Y-79754923D01*
X129694998Y-77734998D02*
X124221998Y-77734998D01*
X123409506Y-78789239D02*
X123409506Y-79354924D01*
X134872500Y-82950000D02*
X134335000Y-82950000D01*
X137270000Y-85371736D02*
X137270000Y-84110868D01*
X137270000Y-84110868D02*
X136109132Y-82950000D01*
X133860868Y-89290000D02*
X133860868Y-88780868D01*
X133050868Y-90100000D02*
X133860868Y-89290000D01*
X136109132Y-82950000D02*
X134872500Y-82950000D01*
X131678755Y-90100000D02*
X133050868Y-90100000D01*
X133860868Y-88780868D02*
X137270000Y-85371736D01*
X131409988Y-89831233D02*
X131678755Y-90100000D01*
X127791206Y-97764932D02*
X127756276Y-97730002D01*
X127791209Y-97764935D02*
X127791206Y-97764932D01*
X129830394Y-97319709D02*
X129385168Y-97764935D01*
X129385168Y-97764935D02*
X127791209Y-97764935D01*
G04 #@! TO.N,1.8v*
X103962200Y-91313000D02*
X103962200Y-86137800D01*
X103962200Y-86137800D02*
X104050000Y-86050000D01*
G04 #@! TO.N,vin*
X99360000Y-101667919D02*
X99360000Y-100070000D01*
X99360000Y-102870000D02*
X99360000Y-101667919D01*
X99360000Y-97269600D02*
X99340800Y-97250400D01*
X99360000Y-100070000D02*
X99360000Y-97269600D01*
X97799999Y-112490001D02*
X97821999Y-112490001D01*
X96950000Y-113340000D02*
X97799999Y-112490001D01*
X99360000Y-110952000D02*
X99360000Y-102870000D01*
X97821999Y-112490001D02*
X99360000Y-110952000D01*
D17*
G04 #@! TO.N,a17*
X111575554Y-92774892D02*
X111575554Y-94265980D01*
X110840012Y-92039350D02*
X111575554Y-92774892D01*
X110840012Y-87110012D02*
X110840012Y-92039350D01*
X114371663Y-94647469D02*
X114937348Y-94647469D01*
X111575554Y-94265980D02*
X111957043Y-94647469D01*
X109350000Y-85620000D02*
X110840012Y-87110012D01*
X111957043Y-94647469D02*
X114371663Y-94647469D01*
G04 #@! TO.N,a16*
X115263749Y-95327470D02*
X115901284Y-94689935D01*
X112127912Y-95327470D02*
X115263749Y-95327470D01*
X111215545Y-92924015D02*
X111215545Y-94415103D01*
X110480002Y-92188472D02*
X111215545Y-92924015D01*
X110480001Y-89290001D02*
X110480002Y-92188472D01*
X115901284Y-94689935D02*
X115984315Y-94689935D01*
X115984315Y-94689935D02*
X116550000Y-94689935D01*
X109350000Y-88160000D02*
X110480001Y-89290001D01*
X111215545Y-94415103D02*
X112127912Y-95327470D01*
G04 #@! TO.N,a15*
X117529858Y-95146760D02*
X117929857Y-94746761D01*
X115730406Y-95369945D02*
X117306673Y-95369945D01*
X109350000Y-91567602D02*
X110855534Y-93073136D01*
X112007079Y-95715769D02*
X115384582Y-95715769D01*
X110855534Y-93073136D02*
X110855535Y-94564225D01*
X109350000Y-90700000D02*
X109350000Y-91567602D01*
X115384582Y-95715769D02*
X115730406Y-95369945D01*
X110855535Y-94564225D02*
X112007079Y-95715769D01*
X117306673Y-95369945D02*
X117529858Y-95146760D01*
G04 #@! TO.N,a14*
X118201996Y-95369944D02*
X119796599Y-95369944D01*
X117841984Y-95729954D02*
X118201996Y-95369944D01*
X111872142Y-96089964D02*
X115519519Y-96089964D01*
X115879527Y-95729956D02*
X117841984Y-95729954D01*
X115519519Y-96089964D02*
X115879527Y-95729956D01*
X110199999Y-94417821D02*
X111872142Y-96089964D01*
X119796599Y-95369944D02*
X120996542Y-94170001D01*
X109350000Y-93240000D02*
X110199999Y-94089999D01*
X120996542Y-94170001D02*
X122474315Y-94170001D01*
X122474315Y-94170001D02*
X123040000Y-94170001D01*
X110199999Y-94089999D02*
X110199999Y-94417821D01*
G04 #@! TO.N,a13*
X123758060Y-94969025D02*
X124037148Y-94689937D01*
X120766628Y-94969025D02*
X123758060Y-94969025D01*
X120005698Y-95729955D02*
X120766628Y-94969025D01*
X118351117Y-95729955D02*
X120005698Y-95729955D01*
X117991106Y-96089964D02*
X118351117Y-95729955D01*
X115668641Y-96449974D02*
X116028650Y-96089965D01*
X111222055Y-96449974D02*
X115668641Y-96449974D01*
X110552081Y-95780000D02*
X111222055Y-96449974D01*
X116028650Y-96089965D02*
X117991106Y-96089964D01*
X109350000Y-95780000D02*
X110552081Y-95780000D01*
G04 #@! TO.N,a12*
X120180636Y-96089964D02*
X120900653Y-95369947D01*
X116177770Y-96449977D02*
X118140225Y-96449977D01*
X115817758Y-96809989D02*
X116177770Y-96449977D01*
X110646877Y-96809989D02*
X115817758Y-96809989D01*
X118500236Y-96089966D02*
X120180636Y-96089964D01*
X120900653Y-95369947D02*
X124759998Y-95369947D01*
X109350000Y-98320000D02*
X109350000Y-98106866D01*
X124759998Y-95369947D02*
X125080000Y-95049945D01*
X109350000Y-98106866D02*
X110646877Y-96809989D01*
X118140225Y-96449977D02*
X118500236Y-96089966D01*
G04 #@! TO.N,a11*
X120329758Y-96449974D02*
X121049774Y-95729958D01*
X118649359Y-96449975D02*
X120329758Y-96449974D01*
X110480001Y-99969999D02*
X110480001Y-97485997D01*
X110795998Y-97170000D02*
X115966879Y-97170000D01*
X115966879Y-97170000D02*
X116326891Y-96809988D01*
X118289347Y-96809987D02*
X118649359Y-96449975D01*
X116326891Y-96809988D02*
X118289347Y-96809987D01*
X121049774Y-95729958D02*
X126036000Y-95729958D01*
X126036000Y-95729958D02*
X126104305Y-95661653D01*
X126104305Y-95661653D02*
X126669990Y-95661653D01*
X110480001Y-97485997D02*
X110795998Y-97170000D01*
X109350000Y-101100000D02*
X110480001Y-99969999D01*
G04 #@! TO.N,a10*
X125892557Y-96422759D02*
X126841554Y-96422759D01*
X125559767Y-96089969D02*
X125892557Y-96422759D01*
X121198895Y-96089969D02*
X125559767Y-96089969D01*
X118798480Y-96809986D02*
X120478878Y-96809986D01*
X116476012Y-97169999D02*
X118438466Y-97170000D01*
X113020001Y-99969999D02*
X114630001Y-99969999D01*
X118438466Y-97170000D02*
X118798480Y-96809986D01*
X126841554Y-96422759D02*
X127407239Y-96422759D01*
X120478878Y-96809986D02*
X121198895Y-96089969D01*
X114630001Y-99969999D02*
X115819999Y-98780001D01*
X115819999Y-97826012D02*
X116476012Y-97169999D01*
X111890000Y-101100000D02*
X113020001Y-99969999D01*
X115819999Y-98780001D02*
X115819999Y-97826012D01*
G04 #@! TO.N,a9*
X118947603Y-97169997D02*
X120628000Y-97169996D01*
X131402514Y-97400054D02*
X131968199Y-97400054D01*
X130795156Y-97400054D02*
X131402514Y-97400054D01*
X127130609Y-98169943D02*
X130025267Y-98169943D01*
X125410645Y-96449979D02*
X127130609Y-98169943D01*
X120628000Y-97169996D02*
X121348017Y-96449979D01*
X118300000Y-97817600D02*
X118947603Y-97169997D01*
X114430000Y-101100000D02*
X115560001Y-99969999D01*
X116952403Y-99969999D02*
X118300000Y-98622402D01*
X115560001Y-99969999D02*
X116952403Y-99969999D01*
X121348017Y-96449979D02*
X125410645Y-96449979D01*
X130025267Y-98169943D02*
X130795156Y-97400054D01*
X118300000Y-98622402D02*
X118300000Y-97817600D01*
G04 #@! TO.N,a8*
X132686876Y-98169942D02*
X132965442Y-97891376D01*
X130534400Y-98169942D02*
X132686876Y-98169942D01*
X126981487Y-98529953D02*
X130174389Y-98529953D01*
X121847613Y-96809989D02*
X125261523Y-96809989D01*
X118100001Y-99969999D02*
X119492403Y-99969999D01*
X116970000Y-101100000D02*
X118100001Y-99969999D01*
X130174389Y-98529953D02*
X130534400Y-98169942D01*
X119492403Y-99969999D02*
X120800000Y-98662402D01*
X125261523Y-96809989D02*
X126981487Y-98529953D01*
X132965442Y-97891376D02*
X132965442Y-97325691D01*
X120800000Y-97857602D02*
X121847613Y-96809989D01*
X120800000Y-98662402D02*
X120800000Y-97857602D01*
G04 #@! TO.N,a7*
X130323509Y-98889965D02*
X130683521Y-98529953D01*
X130683521Y-98529953D02*
X133030157Y-98529953D01*
X125112401Y-97169999D02*
X126832367Y-98889965D01*
X126832367Y-98889965D02*
X130323509Y-98889965D01*
X124027599Y-97169999D02*
X125112401Y-97169999D01*
X123310000Y-97887599D02*
X124027599Y-97169999D01*
X123310000Y-99100000D02*
X123310000Y-97887599D01*
X122440001Y-99969999D02*
X123310000Y-99100000D01*
X120640001Y-99969999D02*
X122440001Y-99969999D01*
X119510000Y-101100000D02*
X120640001Y-99969999D01*
X133930567Y-97629543D02*
X133930567Y-97063858D01*
X133030157Y-98529953D02*
X133930567Y-97629543D01*
G04 #@! TO.N,a6*
X130832640Y-98889964D02*
X133251113Y-98889964D01*
X130472626Y-99249978D02*
X130832640Y-98889964D01*
X134778314Y-97099121D02*
X134778314Y-96533436D01*
X125930890Y-99249978D02*
X130472626Y-99249978D01*
X123440000Y-99710000D02*
X125470868Y-99710000D01*
X125470868Y-99710000D02*
X125930890Y-99249978D01*
X122050000Y-101100000D02*
X123440000Y-99710000D01*
X134778314Y-97362763D02*
X134778314Y-97099121D01*
X133251113Y-98889964D02*
X134778314Y-97362763D01*
G04 #@! TO.N,a5*
X133400233Y-99249976D02*
X135843546Y-96806663D01*
X135843546Y-96186783D02*
X135443547Y-95786784D01*
X123890000Y-101800000D02*
X126080011Y-99609989D01*
X135843546Y-96806663D02*
X135843546Y-96186783D01*
X130621747Y-99609989D02*
X130981759Y-99249977D01*
X126080011Y-99609989D02*
X130621747Y-99609989D01*
X130981759Y-99249977D02*
X133400233Y-99249976D01*
G04 #@! TO.N,a4*
X127130000Y-101100000D02*
X128260000Y-99970000D01*
X136389978Y-96780860D02*
X136389978Y-95339137D01*
X133560850Y-99609988D02*
X136389978Y-96780860D01*
X131130880Y-99609988D02*
X133560850Y-99609988D01*
X128260000Y-99970000D02*
X130770868Y-99970000D01*
X130770868Y-99970000D02*
X131130880Y-99609988D01*
X136389978Y-95339137D02*
X136021640Y-94970799D01*
G04 #@! TO.N,a3*
X133746388Y-99969999D02*
X136749989Y-96966398D01*
X130150000Y-101100000D02*
X131280001Y-99969999D01*
X129670000Y-101100000D02*
X130150000Y-101100000D01*
X135230000Y-92764668D02*
X135230000Y-90135685D01*
X135230000Y-90135685D02*
X135230000Y-89570000D01*
X136749989Y-94284657D02*
X135230000Y-92764668D01*
X136749989Y-96966398D02*
X136749989Y-94284657D01*
X131280001Y-99969999D02*
X133746388Y-99969999D01*
G04 #@! TO.N,a2*
X135801100Y-92826636D02*
X135801100Y-90488900D01*
X137110000Y-94135536D02*
X135801100Y-92826636D01*
X137110000Y-97138193D02*
X137110000Y-94135536D01*
X135801100Y-90488900D02*
X136090000Y-90200000D01*
X133148193Y-101100000D02*
X137110000Y-97138193D01*
X132210000Y-101100000D02*
X133148193Y-101100000D01*
G04 #@! TO.N,a1*
X136231705Y-92748109D02*
X136231705Y-91958295D01*
X138000020Y-94516424D02*
X136231705Y-92748109D01*
X136231705Y-91958295D02*
X136490001Y-91699999D01*
X138000020Y-97849980D02*
X138000020Y-94516424D01*
X136490001Y-91699999D02*
X136890000Y-91300000D01*
X134750000Y-101100000D02*
X138000020Y-97849980D01*
G04 #@! TO.N,a0*
X138360031Y-93844755D02*
X137447637Y-92932361D01*
X138360031Y-99019969D02*
X138360031Y-93844755D01*
X137290000Y-101100000D02*
X137290000Y-100090000D01*
X137290000Y-100090000D02*
X138360031Y-99019969D01*
X137447637Y-92932361D02*
X137047638Y-92532362D01*
G04 #@! TO.N,d15*
X112559810Y-91408963D02*
X112959809Y-91808962D01*
X111922143Y-90771296D02*
X112559810Y-91408963D01*
X111922143Y-85429043D02*
X111922143Y-90771296D01*
X111566927Y-79206927D02*
X111566927Y-85073827D01*
X110360000Y-78000000D02*
X111566927Y-79206927D01*
X111566927Y-85073827D02*
X111922143Y-85429043D01*
X109350000Y-78000000D02*
X110360000Y-78000000D01*
G04 #@! TO.N,d16*
X112217599Y-92348599D02*
X112617598Y-92748598D01*
X111562132Y-85579780D02*
X111562132Y-91693132D01*
X111060000Y-82250000D02*
X111060000Y-85077648D01*
X109350000Y-80540000D02*
X111060000Y-82250000D01*
X111562132Y-91693132D02*
X112217599Y-92348599D01*
X111060000Y-85077648D02*
X111562132Y-85579780D01*
G04 #@! TO.N,d17*
X109350000Y-83080000D02*
X110540000Y-84270000D01*
X111202123Y-91892329D02*
X111935565Y-92625771D01*
X111935565Y-93222611D02*
X112466456Y-93753502D01*
X112466456Y-93753502D02*
X112499325Y-93753502D01*
X111935565Y-92625771D02*
X111935565Y-93222611D01*
X110540000Y-84270000D02*
X110540000Y-85066780D01*
X111202121Y-85728901D02*
X111202123Y-91892329D01*
X110540000Y-85066780D02*
X111202121Y-85728901D01*
X112499325Y-93753502D02*
X112510021Y-93742806D01*
G04 #@! TO.N,RESET*
X144290000Y-90390000D02*
X147500000Y-90390000D01*
X142265400Y-88365400D02*
X144290000Y-90390000D01*
X142265400Y-85725000D02*
X142265400Y-88365400D01*
X146490000Y-81500400D02*
X142265400Y-85725000D01*
X146490000Y-77930000D02*
X146490000Y-81500400D01*
X99680000Y-90787500D02*
X101180000Y-92287500D01*
X99680000Y-87919800D02*
X99680000Y-90787500D01*
X98550000Y-86789800D02*
X99680000Y-87919800D01*
X98550000Y-78260000D02*
X98550000Y-86789800D01*
X94710000Y-74420000D02*
X98550000Y-78260000D01*
X93750000Y-74420000D02*
X94710000Y-74420000D01*
G04 #@! TO.N,708.17*
X157289500Y-98044000D02*
X148353500Y-106980000D01*
X148353500Y-106980000D02*
X109275728Y-106980000D01*
X109275728Y-106980000D02*
X108710043Y-106980000D01*
G04 #@! TO.N,708.1*
X157289500Y-95504000D02*
X146953500Y-105840000D01*
X146953500Y-105840000D02*
X109275728Y-105840000D01*
X109275728Y-105840000D02*
X108710043Y-105840000D01*
G04 #@! TO.N,600.17*
X122224800Y-79512714D02*
X122515937Y-79803851D01*
X122224800Y-78181200D02*
X122224800Y-79512714D01*
X123156002Y-77249998D02*
X122224800Y-78181200D01*
X150935398Y-77249998D02*
X123156002Y-77249998D01*
X151409400Y-77724000D02*
X150935398Y-77249998D01*
X157289500Y-77724000D02*
X151409400Y-77724000D01*
G04 #@! TO.N,500.17*
X121564400Y-80266544D02*
X121808885Y-80511029D01*
X121564400Y-78016100D02*
X121564400Y-80266544D01*
X122690512Y-76889988D02*
X121564400Y-78016100D01*
X150897212Y-76889988D02*
X122690512Y-76889988D01*
X152603200Y-75184000D02*
X150897212Y-76889988D01*
X157289500Y-75184000D02*
X152603200Y-75184000D01*
G04 #@! TO.N,300.17*
X118408026Y-78454741D02*
X118808025Y-78854740D01*
X118180000Y-78226715D02*
X118408026Y-78454741D01*
X118180000Y-74640000D02*
X118180000Y-78226715D01*
X117249989Y-73709989D02*
X118180000Y-74640000D01*
X106950000Y-75150868D02*
X108390880Y-73709988D01*
X108390880Y-73709988D02*
X117249989Y-73709989D01*
X106950000Y-114690400D02*
X106950000Y-75150868D01*
X105765600Y-115874800D02*
X106950000Y-114690400D01*
G04 #@! TO.N,300.1*
X117314315Y-79540002D02*
X117880000Y-79540002D01*
X107310011Y-75299989D02*
X108540001Y-74069999D01*
X107310011Y-114879211D02*
X107310011Y-75299989D01*
X114507600Y-79540002D02*
X117314315Y-79540002D01*
X110610000Y-75642402D02*
X114507600Y-79540002D01*
X110610000Y-74610000D02*
X110610000Y-75642402D01*
X110069999Y-74069999D02*
X110610000Y-74610000D01*
X108305600Y-115874800D02*
X107310011Y-114879211D01*
X108540001Y-74069999D02*
X110069999Y-74069999D01*
G04 #@! TO.N,705.1*
X142557513Y-93409165D02*
X142157514Y-93009166D01*
X144028348Y-94880000D02*
X142557513Y-93409165D01*
X155373500Y-94880000D02*
X144028348Y-94880000D01*
X157289500Y-92964000D02*
X155373500Y-94880000D01*
G04 #@! TO.N,705.3*
X144605000Y-87569300D02*
X144605000Y-87550000D01*
X146215700Y-89180000D02*
X144605000Y-87569300D01*
X154843419Y-89180000D02*
X146215700Y-89180000D01*
X156087419Y-90424000D02*
X154843419Y-89180000D01*
X157289500Y-90424000D02*
X156087419Y-90424000D01*
G04 #@! TO.N,705.5*
X140795000Y-92923100D02*
X140795000Y-92950000D01*
X143400000Y-92100000D02*
X141618100Y-92100000D01*
X145360001Y-94060001D02*
X143400000Y-92100000D01*
X150089999Y-94060001D02*
X145360001Y-94060001D01*
X152450000Y-91700000D02*
X150089999Y-94060001D01*
X157940000Y-91700000D02*
X152450000Y-91700000D01*
X158590000Y-91050000D02*
X157940000Y-91700000D01*
X141618100Y-92100000D02*
X140795000Y-92923100D01*
X158590000Y-89184500D02*
X158590000Y-91050000D01*
X157289500Y-87884000D02*
X158590000Y-89184500D01*
G04 #@! TO.N,705.17*
X145541000Y-85344000D02*
X143335000Y-87550000D01*
X157289500Y-85344000D02*
X145541000Y-85344000D01*
G04 #@! TO.N,100.17*
X114799999Y-81704314D02*
X114799999Y-82269999D01*
X114799999Y-81314314D02*
X114799999Y-81704314D01*
X108340001Y-76869999D02*
X110355684Y-76869999D01*
X108030033Y-77179967D02*
X108340001Y-76869999D01*
X108030033Y-110519233D02*
X108030033Y-77179967D01*
X110355684Y-76869999D02*
X114799999Y-81314314D01*
X113385600Y-115874800D02*
X108030033Y-110519233D01*
G04 #@! TO.N,200.17*
X107670022Y-76839110D02*
X108179131Y-76330001D01*
X110599161Y-76330001D02*
X115341556Y-81072396D01*
X107670022Y-112699222D02*
X107670022Y-76839110D01*
X110845600Y-115874800D02*
X107670022Y-112699222D01*
X115341556Y-81072396D02*
X115741555Y-81472395D01*
X108179131Y-76330001D02*
X110599161Y-76330001D01*
G04 #@! TO.N,vcc*
X97695634Y-115740000D02*
X96140000Y-115740000D01*
D16*
X96950000Y-115880000D02*
X103120000Y-109710000D01*
X103120000Y-109710000D02*
X103120000Y-97450000D01*
X104410000Y-93940000D02*
X104410000Y-94200000D01*
X104410000Y-94200000D02*
X103120000Y-95490000D01*
X103120000Y-95490000D02*
X103120000Y-97450000D01*
D17*
X103120000Y-97450000D02*
X103120000Y-97175000D01*
G04 #@! TD*
D18*
G04 #@! TO.N,GND*
G36*
X159164918Y-117805112D02*
X92365082Y-117824889D01*
X92365542Y-115740000D01*
X95752556Y-115740000D01*
X95778937Y-115872629D01*
X95777471Y-115880000D01*
X95866724Y-116328707D01*
X96120897Y-116709103D01*
X96501293Y-116963276D01*
X96836739Y-117030000D01*
X97063261Y-117030000D01*
X97398707Y-116963276D01*
X97779103Y-116709103D01*
X98033276Y-116328707D01*
X98122529Y-115880000D01*
X98033276Y-115431293D01*
X98019846Y-115411194D01*
X103390923Y-110040118D01*
X103426408Y-110016408D01*
X103520341Y-109875827D01*
X103545000Y-109751858D01*
X103545000Y-109751857D01*
X103553326Y-109710000D01*
X103545000Y-109668143D01*
X103545000Y-95666040D01*
X104586457Y-94624584D01*
X104806518Y-94533432D01*
X105003432Y-94336518D01*
X105110000Y-94079239D01*
X105110000Y-93800761D01*
X105003432Y-93543482D01*
X104806518Y-93346568D01*
X104549239Y-93240000D01*
X104270761Y-93240000D01*
X104013482Y-93346568D01*
X103816568Y-93543482D01*
X103710000Y-93800761D01*
X103710000Y-94079239D01*
X103774354Y-94234605D01*
X102849081Y-95159879D01*
X102813592Y-95183592D01*
X102733338Y-95303702D01*
X102719659Y-95324174D01*
X102686674Y-95490000D01*
X102695000Y-95531858D01*
X102695001Y-97408142D01*
X102695000Y-109533959D01*
X97418806Y-114810154D01*
X97398707Y-114796724D01*
X97063261Y-114730000D01*
X96836739Y-114730000D01*
X96501293Y-114796724D01*
X96120897Y-115050897D01*
X95866724Y-115431293D01*
X95857176Y-115479297D01*
X95782048Y-115591732D01*
X95752556Y-115740000D01*
X92365542Y-115740000D01*
X92366072Y-113340000D01*
X95777471Y-113340000D01*
X95866724Y-113788707D01*
X96120897Y-114169103D01*
X96501293Y-114423276D01*
X96836739Y-114490000D01*
X97063261Y-114490000D01*
X97398707Y-114423276D01*
X97779103Y-114169103D01*
X98033276Y-113788707D01*
X98122529Y-113340000D01*
X98033276Y-112891293D01*
X98019847Y-112871194D01*
X98026620Y-112864420D01*
X98128407Y-112796409D01*
X98152120Y-112760920D01*
X99630923Y-111282118D01*
X99666408Y-111258408D01*
X99760341Y-111117827D01*
X99785000Y-110993858D01*
X99785000Y-110993857D01*
X99793326Y-110952000D01*
X99785000Y-110910143D01*
X99785000Y-103957992D01*
X99808707Y-103953276D01*
X100189103Y-103699103D01*
X100443276Y-103318707D01*
X100532529Y-102870000D01*
X100443276Y-102421293D01*
X100189103Y-102040897D01*
X99808707Y-101786724D01*
X99785000Y-101782008D01*
X99785000Y-101157992D01*
X99808707Y-101153276D01*
X100189103Y-100899103D01*
X100443276Y-100518707D01*
X100532529Y-100070000D01*
X100443276Y-99621293D01*
X100189103Y-99240897D01*
X99808707Y-98986724D01*
X99785000Y-98982008D01*
X99785000Y-98334572D01*
X99789507Y-98333676D01*
X100169903Y-98079503D01*
X100424076Y-97699107D01*
X100513329Y-97250400D01*
X100424076Y-96801693D01*
X100169903Y-96421297D01*
X99789507Y-96167124D01*
X99454061Y-96100400D01*
X99227539Y-96100400D01*
X98892093Y-96167124D01*
X98511697Y-96421297D01*
X98257524Y-96801693D01*
X98168271Y-97250400D01*
X98257524Y-97699107D01*
X98511697Y-98079503D01*
X98892093Y-98333676D01*
X98935001Y-98342211D01*
X98935000Y-98982008D01*
X98911293Y-98986724D01*
X98530897Y-99240897D01*
X98276724Y-99621293D01*
X98187471Y-100070000D01*
X98276724Y-100518707D01*
X98530897Y-100899103D01*
X98911293Y-101153276D01*
X98935000Y-101157992D01*
X98935000Y-101709776D01*
X98935001Y-101709781D01*
X98935001Y-101782008D01*
X98911293Y-101786724D01*
X98530897Y-102040897D01*
X98276724Y-102421293D01*
X98187471Y-102870000D01*
X98276724Y-103318707D01*
X98530897Y-103699103D01*
X98911293Y-103953276D01*
X98935001Y-103957992D01*
X98935000Y-110775959D01*
X98100000Y-111610960D01*
X98100000Y-111029000D01*
X98025000Y-110954000D01*
X97104000Y-110954000D01*
X97104000Y-111875000D01*
X97179000Y-111950000D01*
X97760960Y-111950000D01*
X97595380Y-112115580D01*
X97493591Y-112183593D01*
X97469880Y-112219079D01*
X97418806Y-112270153D01*
X97398707Y-112256724D01*
X97063261Y-112190000D01*
X96836739Y-112190000D01*
X96501293Y-112256724D01*
X96120897Y-112510897D01*
X95866724Y-112891293D01*
X95777471Y-113340000D01*
X92366072Y-113340000D01*
X92366582Y-111029000D01*
X95800000Y-111029000D01*
X95800000Y-111709673D01*
X95845672Y-111819936D01*
X95930063Y-111904328D01*
X96040326Y-111950000D01*
X96721000Y-111950000D01*
X96796000Y-111875000D01*
X96796000Y-110954000D01*
X95875000Y-110954000D01*
X95800000Y-111029000D01*
X92366582Y-111029000D01*
X92366833Y-109890327D01*
X95800000Y-109890327D01*
X95800000Y-110571000D01*
X95875000Y-110646000D01*
X96796000Y-110646000D01*
X96796000Y-109725000D01*
X97104000Y-109725000D01*
X97104000Y-110646000D01*
X98025000Y-110646000D01*
X98100000Y-110571000D01*
X98100000Y-109890327D01*
X98054328Y-109780064D01*
X97969937Y-109695672D01*
X97859674Y-109650000D01*
X97179000Y-109650000D01*
X97104000Y-109725000D01*
X96796000Y-109725000D01*
X96721000Y-109650000D01*
X96040326Y-109650000D01*
X95930063Y-109695672D01*
X95845672Y-109780064D01*
X95800000Y-109890327D01*
X92366833Y-109890327D01*
X92368572Y-102020000D01*
X93124123Y-102020000D01*
X93124123Y-103720000D01*
X93147407Y-103837054D01*
X93213712Y-103936288D01*
X93312946Y-104002593D01*
X93430000Y-104025877D01*
X95130000Y-104025877D01*
X95247054Y-104002593D01*
X95346288Y-103936288D01*
X95412593Y-103837054D01*
X95435877Y-103720000D01*
X95435877Y-102870000D01*
X95647471Y-102870000D01*
X95736724Y-103318707D01*
X95990897Y-103699103D01*
X96371293Y-103953276D01*
X96706739Y-104020000D01*
X96933261Y-104020000D01*
X97268707Y-103953276D01*
X97649103Y-103699103D01*
X97903276Y-103318707D01*
X97992529Y-102870000D01*
X97903276Y-102421293D01*
X97649103Y-102040897D01*
X97268707Y-101786724D01*
X96933261Y-101720000D01*
X96706739Y-101720000D01*
X96371293Y-101786724D01*
X95990897Y-102040897D01*
X95736724Y-102421293D01*
X95647471Y-102870000D01*
X95435877Y-102870000D01*
X95435877Y-102020000D01*
X95412593Y-101902946D01*
X95346288Y-101803712D01*
X95247054Y-101737407D01*
X95130000Y-101714123D01*
X93430000Y-101714123D01*
X93312946Y-101737407D01*
X93213712Y-101803712D01*
X93147407Y-101902946D01*
X93124123Y-102020000D01*
X92368572Y-102020000D01*
X92369190Y-99220000D01*
X93124123Y-99220000D01*
X93124123Y-100920000D01*
X93147407Y-101037054D01*
X93213712Y-101136288D01*
X93312946Y-101202593D01*
X93430000Y-101225877D01*
X95130000Y-101225877D01*
X95247054Y-101202593D01*
X95346288Y-101136288D01*
X95412593Y-101037054D01*
X95435877Y-100920000D01*
X95435877Y-100070000D01*
X95647471Y-100070000D01*
X95736724Y-100518707D01*
X95990897Y-100899103D01*
X96371293Y-101153276D01*
X96706739Y-101220000D01*
X96933261Y-101220000D01*
X97268707Y-101153276D01*
X97649103Y-100899103D01*
X97903276Y-100518707D01*
X97992529Y-100070000D01*
X97903276Y-99621293D01*
X97649103Y-99240897D01*
X97268707Y-98986724D01*
X96933261Y-98920000D01*
X96706739Y-98920000D01*
X96371293Y-98986724D01*
X95990897Y-99240897D01*
X95736724Y-99621293D01*
X95647471Y-100070000D01*
X95435877Y-100070000D01*
X95435877Y-99220000D01*
X95412593Y-99102946D01*
X95346288Y-99003712D01*
X95247054Y-98937407D01*
X95130000Y-98914123D01*
X93430000Y-98914123D01*
X93312946Y-98937407D01*
X93213712Y-99003712D01*
X93147407Y-99102946D01*
X93124123Y-99220000D01*
X92369190Y-99220000D01*
X92369813Y-96400400D01*
X93104923Y-96400400D01*
X93104923Y-98100400D01*
X93128207Y-98217454D01*
X93194512Y-98316688D01*
X93293746Y-98382993D01*
X93410800Y-98406277D01*
X95110800Y-98406277D01*
X95227854Y-98382993D01*
X95327088Y-98316688D01*
X95393393Y-98217454D01*
X95416677Y-98100400D01*
X95416677Y-97250400D01*
X95628271Y-97250400D01*
X95717524Y-97699107D01*
X95971697Y-98079503D01*
X96352093Y-98333676D01*
X96687539Y-98400400D01*
X96914061Y-98400400D01*
X97249507Y-98333676D01*
X97629903Y-98079503D01*
X97884076Y-97699107D01*
X97973329Y-97250400D01*
X97884076Y-96801693D01*
X97629903Y-96421297D01*
X97249507Y-96167124D01*
X96914061Y-96100400D01*
X96687539Y-96100400D01*
X96352093Y-96167124D01*
X95971697Y-96421297D01*
X95717524Y-96801693D01*
X95628271Y-97250400D01*
X95416677Y-97250400D01*
X95416677Y-96400400D01*
X95393393Y-96283346D01*
X95327088Y-96184112D01*
X95227854Y-96117807D01*
X95110800Y-96094523D01*
X93410800Y-96094523D01*
X93293746Y-96117807D01*
X93194512Y-96184112D01*
X93128207Y-96283346D01*
X93104923Y-96400400D01*
X92369813Y-96400400D01*
X92370740Y-92204000D01*
X93084123Y-92204000D01*
X93084123Y-93904000D01*
X93107407Y-94021054D01*
X93173712Y-94120288D01*
X93272946Y-94186593D01*
X93390000Y-94209877D01*
X95090000Y-94209877D01*
X95207054Y-94186593D01*
X95306288Y-94120288D01*
X95372593Y-94021054D01*
X95395877Y-93904000D01*
X95395877Y-93054000D01*
X95607471Y-93054000D01*
X95696724Y-93502707D01*
X95950897Y-93883103D01*
X96331293Y-94137276D01*
X96666739Y-94204000D01*
X96893261Y-94204000D01*
X97228707Y-94137276D01*
X97609103Y-93883103D01*
X97863276Y-93502707D01*
X97952529Y-93054000D01*
X97863276Y-92605293D01*
X97609103Y-92224897D01*
X97228707Y-91970724D01*
X96893261Y-91904000D01*
X96666739Y-91904000D01*
X96331293Y-91970724D01*
X95950897Y-92224897D01*
X95696724Y-92605293D01*
X95607471Y-93054000D01*
X95395877Y-93054000D01*
X95395877Y-92204000D01*
X95372593Y-92086946D01*
X95306288Y-91987712D01*
X95207054Y-91921407D01*
X95090000Y-91898123D01*
X93390000Y-91898123D01*
X93272946Y-91921407D01*
X93173712Y-91987712D01*
X93107407Y-92086946D01*
X93084123Y-92204000D01*
X92370740Y-92204000D01*
X92371559Y-88495600D01*
X93084123Y-88495600D01*
X93084123Y-90195600D01*
X93107407Y-90312654D01*
X93173712Y-90411888D01*
X93272946Y-90478193D01*
X93390000Y-90501477D01*
X95090000Y-90501477D01*
X95207054Y-90478193D01*
X95306288Y-90411888D01*
X95372593Y-90312654D01*
X95395877Y-90195600D01*
X95395877Y-89345600D01*
X95607471Y-89345600D01*
X95696724Y-89794307D01*
X95950897Y-90174703D01*
X96331293Y-90428876D01*
X96666739Y-90495600D01*
X96893261Y-90495600D01*
X97228707Y-90428876D01*
X97609103Y-90174703D01*
X97863276Y-89794307D01*
X97952529Y-89345600D01*
X97863276Y-88896893D01*
X97609103Y-88516497D01*
X97228707Y-88262324D01*
X96893261Y-88195600D01*
X96666739Y-88195600D01*
X96331293Y-88262324D01*
X95950897Y-88516497D01*
X95696724Y-88896893D01*
X95607471Y-89345600D01*
X95395877Y-89345600D01*
X95395877Y-88495600D01*
X95372593Y-88378546D01*
X95306288Y-88279312D01*
X95207054Y-88213007D01*
X95090000Y-88189723D01*
X93390000Y-88189723D01*
X93272946Y-88213007D01*
X93173712Y-88279312D01*
X93107407Y-88378546D01*
X93084123Y-88495600D01*
X92371559Y-88495600D01*
X92372181Y-85680000D01*
X92590899Y-85680000D01*
X92666570Y-86060426D01*
X92882064Y-86382936D01*
X93204574Y-86598430D01*
X93488972Y-86655000D01*
X94031028Y-86655000D01*
X94315426Y-86598430D01*
X94637936Y-86382936D01*
X94853430Y-86060426D01*
X94929101Y-85680000D01*
X94867439Y-85370000D01*
X95693348Y-85370000D01*
X95759318Y-85701653D01*
X95947184Y-85982816D01*
X96228347Y-86170682D01*
X96476285Y-86220000D01*
X97043715Y-86220000D01*
X97291653Y-86170682D01*
X97572816Y-85982816D01*
X97760682Y-85701653D01*
X97826652Y-85370000D01*
X97760682Y-85038347D01*
X97572816Y-84757184D01*
X97291653Y-84569318D01*
X97043715Y-84520000D01*
X96476285Y-84520000D01*
X96228347Y-84569318D01*
X95947184Y-84757184D01*
X95759318Y-85038347D01*
X95693348Y-85370000D01*
X94867439Y-85370000D01*
X94853430Y-85299574D01*
X94637936Y-84977064D01*
X94315426Y-84761570D01*
X94031028Y-84705000D01*
X93488972Y-84705000D01*
X93204574Y-84761570D01*
X92882064Y-84977064D01*
X92666570Y-85299574D01*
X92590899Y-85680000D01*
X92372181Y-85680000D01*
X92373387Y-80220000D01*
X92590899Y-80220000D01*
X92666570Y-80600426D01*
X92882064Y-80922936D01*
X93204574Y-81138430D01*
X93488972Y-81195000D01*
X94031028Y-81195000D01*
X94315426Y-81138430D01*
X94637936Y-80922936D01*
X94853430Y-80600426D01*
X94867438Y-80530000D01*
X95693348Y-80530000D01*
X95759318Y-80861653D01*
X95947184Y-81142816D01*
X96228347Y-81330682D01*
X96476285Y-81380000D01*
X97043715Y-81380000D01*
X97291653Y-81330682D01*
X97572816Y-81142816D01*
X97760682Y-80861653D01*
X97826652Y-80530000D01*
X97760682Y-80198347D01*
X97572816Y-79917184D01*
X97291653Y-79729318D01*
X97043715Y-79680000D01*
X96476285Y-79680000D01*
X96228347Y-79729318D01*
X95947184Y-79917184D01*
X95759318Y-80198347D01*
X95693348Y-80530000D01*
X94867438Y-80530000D01*
X94929101Y-80220000D01*
X94853430Y-79839574D01*
X94637936Y-79517064D01*
X94315426Y-79301570D01*
X94031028Y-79245000D01*
X93488972Y-79245000D01*
X93204574Y-79301570D01*
X92882064Y-79517064D01*
X92666570Y-79839574D01*
X92590899Y-80220000D01*
X92373387Y-80220000D01*
X92374699Y-74280761D01*
X93050000Y-74280761D01*
X93050000Y-74559239D01*
X93156568Y-74816518D01*
X93353482Y-75013432D01*
X93610761Y-75120000D01*
X93889239Y-75120000D01*
X94146518Y-75013432D01*
X94343432Y-74816518D01*
X94350274Y-74800000D01*
X94552600Y-74800000D01*
X98170000Y-78417401D01*
X98170001Y-86752376D01*
X98162557Y-86789800D01*
X98192049Y-86938068D01*
X98254837Y-87032037D01*
X98254839Y-87032039D01*
X98276037Y-87063764D01*
X98307762Y-87084962D01*
X99300000Y-88077202D01*
X99300001Y-90750076D01*
X99292557Y-90787500D01*
X99322049Y-90935768D01*
X99384837Y-91029737D01*
X99384839Y-91029739D01*
X99406037Y-91061464D01*
X99437762Y-91082662D01*
X100486842Y-92131743D01*
X100480000Y-92148261D01*
X100480000Y-92426739D01*
X100586568Y-92684018D01*
X100783482Y-92880932D01*
X101040761Y-92987500D01*
X101319239Y-92987500D01*
X101576518Y-92880932D01*
X101773432Y-92684018D01*
X101880000Y-92426739D01*
X101880000Y-92148261D01*
X101773432Y-91890982D01*
X101576518Y-91694068D01*
X101319239Y-91587500D01*
X101040761Y-91587500D01*
X101024243Y-91594342D01*
X100603662Y-91173761D01*
X103262200Y-91173761D01*
X103262200Y-91452239D01*
X103368768Y-91709518D01*
X103565682Y-91906432D01*
X103822961Y-92013000D01*
X104101439Y-92013000D01*
X104358718Y-91906432D01*
X104555632Y-91709518D01*
X104662200Y-91452239D01*
X104662200Y-91173761D01*
X104555632Y-90916482D01*
X104387200Y-90748050D01*
X104387200Y-86668002D01*
X104446518Y-86643432D01*
X104643432Y-86446518D01*
X104750000Y-86189239D01*
X104750000Y-85936041D01*
X105134881Y-86320922D01*
X105158592Y-86356408D01*
X105299173Y-86450341D01*
X105375592Y-86465542D01*
X105553482Y-86643432D01*
X105810761Y-86750000D01*
X106089239Y-86750000D01*
X106346518Y-86643432D01*
X106543432Y-86446518D01*
X106570001Y-86382375D01*
X106570000Y-114532999D01*
X106272555Y-114830444D01*
X106214307Y-114791524D01*
X105878861Y-114724800D01*
X105652339Y-114724800D01*
X105316893Y-114791524D01*
X104936497Y-115045697D01*
X104682324Y-115426093D01*
X104593071Y-115874800D01*
X104682324Y-116323507D01*
X104936497Y-116703903D01*
X105316893Y-116958076D01*
X105652339Y-117024800D01*
X105878861Y-117024800D01*
X106214307Y-116958076D01*
X106594703Y-116703903D01*
X106848876Y-116323507D01*
X106938129Y-115874800D01*
X106848876Y-115426093D01*
X106809956Y-115367845D01*
X107031472Y-115146329D01*
X107036047Y-115153175D01*
X107067775Y-115174375D01*
X107261244Y-115367845D01*
X107222324Y-115426093D01*
X107133071Y-115874800D01*
X107222324Y-116323507D01*
X107476497Y-116703903D01*
X107856893Y-116958076D01*
X108192339Y-117024800D01*
X108418861Y-117024800D01*
X108754307Y-116958076D01*
X109134703Y-116703903D01*
X109388876Y-116323507D01*
X109478129Y-115874800D01*
X109388876Y-115426093D01*
X109134703Y-115045697D01*
X108754307Y-114791524D01*
X108418861Y-114724800D01*
X108192339Y-114724800D01*
X107856893Y-114791524D01*
X107798645Y-114830444D01*
X107690011Y-114721811D01*
X107690011Y-113256611D01*
X109801244Y-115367845D01*
X109762324Y-115426093D01*
X109673071Y-115874800D01*
X109762324Y-116323507D01*
X110016497Y-116703903D01*
X110396893Y-116958076D01*
X110732339Y-117024800D01*
X110958861Y-117024800D01*
X111294307Y-116958076D01*
X111674703Y-116703903D01*
X111928876Y-116323507D01*
X112018129Y-115874800D01*
X111928876Y-115426093D01*
X111674703Y-115045697D01*
X111294307Y-114791524D01*
X110958861Y-114724800D01*
X110732339Y-114724800D01*
X110396893Y-114791524D01*
X110338645Y-114830444D01*
X108050022Y-112541822D01*
X108050022Y-111076622D01*
X112341244Y-115367845D01*
X112302324Y-115426093D01*
X112213071Y-115874800D01*
X112302324Y-116323507D01*
X112556497Y-116703903D01*
X112936893Y-116958076D01*
X113272339Y-117024800D01*
X113498861Y-117024800D01*
X113834307Y-116958076D01*
X114214703Y-116703903D01*
X114468876Y-116323507D01*
X114558129Y-115874800D01*
X114753071Y-115874800D01*
X114842324Y-116323507D01*
X115096497Y-116703903D01*
X115476893Y-116958076D01*
X115812339Y-117024800D01*
X116038861Y-117024800D01*
X116374307Y-116958076D01*
X116754703Y-116703903D01*
X117008876Y-116323507D01*
X117098129Y-115874800D01*
X117293071Y-115874800D01*
X117382324Y-116323507D01*
X117636497Y-116703903D01*
X118016893Y-116958076D01*
X118352339Y-117024800D01*
X118578861Y-117024800D01*
X118914307Y-116958076D01*
X119294703Y-116703903D01*
X119548876Y-116323507D01*
X119638129Y-115874800D01*
X119833071Y-115874800D01*
X119922324Y-116323507D01*
X120176497Y-116703903D01*
X120556893Y-116958076D01*
X120892339Y-117024800D01*
X121118861Y-117024800D01*
X121454307Y-116958076D01*
X121834703Y-116703903D01*
X122088876Y-116323507D01*
X122178129Y-115874800D01*
X122373071Y-115874800D01*
X122462324Y-116323507D01*
X122716497Y-116703903D01*
X123096893Y-116958076D01*
X123432339Y-117024800D01*
X123658861Y-117024800D01*
X123994307Y-116958076D01*
X124374703Y-116703903D01*
X124628876Y-116323507D01*
X124718129Y-115874800D01*
X124913071Y-115874800D01*
X125002324Y-116323507D01*
X125256497Y-116703903D01*
X125636893Y-116958076D01*
X125972339Y-117024800D01*
X126198861Y-117024800D01*
X126534307Y-116958076D01*
X126914703Y-116703903D01*
X127168876Y-116323507D01*
X127258129Y-115874800D01*
X127453071Y-115874800D01*
X127542324Y-116323507D01*
X127796497Y-116703903D01*
X128176893Y-116958076D01*
X128512339Y-117024800D01*
X128738861Y-117024800D01*
X129074307Y-116958076D01*
X129454703Y-116703903D01*
X129708876Y-116323507D01*
X129798129Y-115874800D01*
X129993071Y-115874800D01*
X130082324Y-116323507D01*
X130336497Y-116703903D01*
X130716893Y-116958076D01*
X131052339Y-117024800D01*
X131278861Y-117024800D01*
X131614307Y-116958076D01*
X131994703Y-116703903D01*
X132248876Y-116323507D01*
X132338129Y-115874800D01*
X132533071Y-115874800D01*
X132622324Y-116323507D01*
X132876497Y-116703903D01*
X133256893Y-116958076D01*
X133592339Y-117024800D01*
X133818861Y-117024800D01*
X134154307Y-116958076D01*
X134534703Y-116703903D01*
X134788876Y-116323507D01*
X134878129Y-115874800D01*
X135073071Y-115874800D01*
X135162324Y-116323507D01*
X135416497Y-116703903D01*
X135796893Y-116958076D01*
X136132339Y-117024800D01*
X136358861Y-117024800D01*
X136694307Y-116958076D01*
X137074703Y-116703903D01*
X137328876Y-116323507D01*
X137418129Y-115874800D01*
X137613071Y-115874800D01*
X137702324Y-116323507D01*
X137956497Y-116703903D01*
X138336893Y-116958076D01*
X138672339Y-117024800D01*
X138898861Y-117024800D01*
X139234307Y-116958076D01*
X139614703Y-116703903D01*
X139868876Y-116323507D01*
X139958129Y-115874800D01*
X140153071Y-115874800D01*
X140242324Y-116323507D01*
X140496497Y-116703903D01*
X140876893Y-116958076D01*
X141212339Y-117024800D01*
X141438861Y-117024800D01*
X141774307Y-116958076D01*
X142154703Y-116703903D01*
X142408876Y-116323507D01*
X142498129Y-115874800D01*
X142693071Y-115874800D01*
X142782324Y-116323507D01*
X143036497Y-116703903D01*
X143416893Y-116958076D01*
X143752339Y-117024800D01*
X143978861Y-117024800D01*
X144314307Y-116958076D01*
X144694703Y-116703903D01*
X144948876Y-116323507D01*
X145038129Y-115874800D01*
X145233071Y-115874800D01*
X145322324Y-116323507D01*
X145576497Y-116703903D01*
X145956893Y-116958076D01*
X146292339Y-117024800D01*
X146518861Y-117024800D01*
X146854307Y-116958076D01*
X147234703Y-116703903D01*
X147488876Y-116323507D01*
X147578129Y-115874800D01*
X147488876Y-115426093D01*
X147234703Y-115045697D01*
X147203429Y-115024800D01*
X147789723Y-115024800D01*
X147789723Y-116724800D01*
X147813007Y-116841854D01*
X147879312Y-116941088D01*
X147978546Y-117007393D01*
X148095600Y-117030677D01*
X149795600Y-117030677D01*
X149912654Y-117007393D01*
X150011888Y-116941088D01*
X150078193Y-116841854D01*
X150101477Y-116724800D01*
X150101477Y-115824000D01*
X156116971Y-115824000D01*
X156206224Y-116272707D01*
X156460397Y-116653103D01*
X156840793Y-116907276D01*
X157176239Y-116974000D01*
X157402761Y-116974000D01*
X157738207Y-116907276D01*
X158118603Y-116653103D01*
X158372776Y-116272707D01*
X158462029Y-115824000D01*
X158372776Y-115375293D01*
X158118603Y-114994897D01*
X157738207Y-114740724D01*
X157402761Y-114674000D01*
X157176239Y-114674000D01*
X156840793Y-114740724D01*
X156460397Y-114994897D01*
X156206224Y-115375293D01*
X156116971Y-115824000D01*
X150101477Y-115824000D01*
X150101477Y-115024800D01*
X150078193Y-114907746D01*
X150011888Y-114808512D01*
X149912654Y-114742207D01*
X149795600Y-114718923D01*
X148095600Y-114718923D01*
X147978546Y-114742207D01*
X147879312Y-114808512D01*
X147813007Y-114907746D01*
X147789723Y-115024800D01*
X147203429Y-115024800D01*
X146854307Y-114791524D01*
X146518861Y-114724800D01*
X146292339Y-114724800D01*
X145956893Y-114791524D01*
X145576497Y-115045697D01*
X145322324Y-115426093D01*
X145233071Y-115874800D01*
X145038129Y-115874800D01*
X144948876Y-115426093D01*
X144694703Y-115045697D01*
X144314307Y-114791524D01*
X143978861Y-114724800D01*
X143752339Y-114724800D01*
X143416893Y-114791524D01*
X143036497Y-115045697D01*
X142782324Y-115426093D01*
X142693071Y-115874800D01*
X142498129Y-115874800D01*
X142408876Y-115426093D01*
X142154703Y-115045697D01*
X141774307Y-114791524D01*
X141438861Y-114724800D01*
X141212339Y-114724800D01*
X140876893Y-114791524D01*
X140496497Y-115045697D01*
X140242324Y-115426093D01*
X140153071Y-115874800D01*
X139958129Y-115874800D01*
X139868876Y-115426093D01*
X139614703Y-115045697D01*
X139234307Y-114791524D01*
X138898861Y-114724800D01*
X138672339Y-114724800D01*
X138336893Y-114791524D01*
X137956497Y-115045697D01*
X137702324Y-115426093D01*
X137613071Y-115874800D01*
X137418129Y-115874800D01*
X137328876Y-115426093D01*
X137074703Y-115045697D01*
X136694307Y-114791524D01*
X136358861Y-114724800D01*
X136132339Y-114724800D01*
X135796893Y-114791524D01*
X135416497Y-115045697D01*
X135162324Y-115426093D01*
X135073071Y-115874800D01*
X134878129Y-115874800D01*
X134788876Y-115426093D01*
X134534703Y-115045697D01*
X134154307Y-114791524D01*
X133818861Y-114724800D01*
X133592339Y-114724800D01*
X133256893Y-114791524D01*
X132876497Y-115045697D01*
X132622324Y-115426093D01*
X132533071Y-115874800D01*
X132338129Y-115874800D01*
X132248876Y-115426093D01*
X131994703Y-115045697D01*
X131614307Y-114791524D01*
X131278861Y-114724800D01*
X131052339Y-114724800D01*
X130716893Y-114791524D01*
X130336497Y-115045697D01*
X130082324Y-115426093D01*
X129993071Y-115874800D01*
X129798129Y-115874800D01*
X129708876Y-115426093D01*
X129454703Y-115045697D01*
X129074307Y-114791524D01*
X128738861Y-114724800D01*
X128512339Y-114724800D01*
X128176893Y-114791524D01*
X127796497Y-115045697D01*
X127542324Y-115426093D01*
X127453071Y-115874800D01*
X127258129Y-115874800D01*
X127168876Y-115426093D01*
X126914703Y-115045697D01*
X126534307Y-114791524D01*
X126198861Y-114724800D01*
X125972339Y-114724800D01*
X125636893Y-114791524D01*
X125256497Y-115045697D01*
X125002324Y-115426093D01*
X124913071Y-115874800D01*
X124718129Y-115874800D01*
X124628876Y-115426093D01*
X124374703Y-115045697D01*
X123994307Y-114791524D01*
X123658861Y-114724800D01*
X123432339Y-114724800D01*
X123096893Y-114791524D01*
X122716497Y-115045697D01*
X122462324Y-115426093D01*
X122373071Y-115874800D01*
X122178129Y-115874800D01*
X122088876Y-115426093D01*
X121834703Y-115045697D01*
X121454307Y-114791524D01*
X121118861Y-114724800D01*
X120892339Y-114724800D01*
X120556893Y-114791524D01*
X120176497Y-115045697D01*
X119922324Y-115426093D01*
X119833071Y-115874800D01*
X119638129Y-115874800D01*
X119548876Y-115426093D01*
X119294703Y-115045697D01*
X118914307Y-114791524D01*
X118578861Y-114724800D01*
X118352339Y-114724800D01*
X118016893Y-114791524D01*
X117636497Y-115045697D01*
X117382324Y-115426093D01*
X117293071Y-115874800D01*
X117098129Y-115874800D01*
X117008876Y-115426093D01*
X116754703Y-115045697D01*
X116374307Y-114791524D01*
X116038861Y-114724800D01*
X115812339Y-114724800D01*
X115476893Y-114791524D01*
X115096497Y-115045697D01*
X114842324Y-115426093D01*
X114753071Y-115874800D01*
X114558129Y-115874800D01*
X114468876Y-115426093D01*
X114214703Y-115045697D01*
X113834307Y-114791524D01*
X113498861Y-114724800D01*
X113272339Y-114724800D01*
X112936893Y-114791524D01*
X112878645Y-114830444D01*
X111332201Y-113284000D01*
X156116971Y-113284000D01*
X156206224Y-113732707D01*
X156460397Y-114113103D01*
X156840793Y-114367276D01*
X157176239Y-114434000D01*
X157402761Y-114434000D01*
X157738207Y-114367276D01*
X158118603Y-114113103D01*
X158372776Y-113732707D01*
X158462029Y-113284000D01*
X158372776Y-112835293D01*
X158118603Y-112454897D01*
X157738207Y-112200724D01*
X157402761Y-112134000D01*
X157176239Y-112134000D01*
X156840793Y-112200724D01*
X156460397Y-112454897D01*
X156206224Y-112835293D01*
X156116971Y-113284000D01*
X111332201Y-113284000D01*
X108792201Y-110744000D01*
X156116971Y-110744000D01*
X156206224Y-111192707D01*
X156460397Y-111573103D01*
X156840793Y-111827276D01*
X157176239Y-111894000D01*
X157402761Y-111894000D01*
X157738207Y-111827276D01*
X158118603Y-111573103D01*
X158372776Y-111192707D01*
X158462029Y-110744000D01*
X158372776Y-110295293D01*
X158118603Y-109914897D01*
X157738207Y-109660724D01*
X157402761Y-109594000D01*
X157176239Y-109594000D01*
X156840793Y-109660724D01*
X156460397Y-109914897D01*
X156206224Y-110295293D01*
X156116971Y-110744000D01*
X108792201Y-110744000D01*
X108410033Y-110361833D01*
X108410033Y-108204000D01*
X156116971Y-108204000D01*
X156206224Y-108652707D01*
X156460397Y-109033103D01*
X156840793Y-109287276D01*
X157176239Y-109354000D01*
X157402761Y-109354000D01*
X157738207Y-109287276D01*
X158118603Y-109033103D01*
X158372776Y-108652707D01*
X158462029Y-108204000D01*
X158372776Y-107755293D01*
X158118603Y-107374897D01*
X157738207Y-107120724D01*
X157402761Y-107054000D01*
X157176239Y-107054000D01*
X156840793Y-107120724D01*
X156460397Y-107374897D01*
X156206224Y-107755293D01*
X156116971Y-108204000D01*
X108410033Y-108204000D01*
X108410033Y-107613407D01*
X108570804Y-107680000D01*
X108849282Y-107680000D01*
X109106561Y-107573432D01*
X109303475Y-107376518D01*
X109310317Y-107360000D01*
X148316081Y-107360000D01*
X148353500Y-107367443D01*
X148390919Y-107360000D01*
X148390924Y-107360000D01*
X148501768Y-107337952D01*
X148627464Y-107253964D01*
X148648664Y-107222236D01*
X150206900Y-105664000D01*
X156116971Y-105664000D01*
X156206224Y-106112707D01*
X156460397Y-106493103D01*
X156840793Y-106747276D01*
X157176239Y-106814000D01*
X157402761Y-106814000D01*
X157738207Y-106747276D01*
X158118603Y-106493103D01*
X158372776Y-106112707D01*
X158462029Y-105664000D01*
X158372776Y-105215293D01*
X158118603Y-104834897D01*
X157738207Y-104580724D01*
X157402761Y-104514000D01*
X157176239Y-104514000D01*
X156840793Y-104580724D01*
X156460397Y-104834897D01*
X156206224Y-105215293D01*
X156116971Y-105664000D01*
X150206900Y-105664000D01*
X152746900Y-103124000D01*
X156116971Y-103124000D01*
X156206224Y-103572707D01*
X156460397Y-103953103D01*
X156840793Y-104207276D01*
X157176239Y-104274000D01*
X157402761Y-104274000D01*
X157738207Y-104207276D01*
X158118603Y-103953103D01*
X158372776Y-103572707D01*
X158462029Y-103124000D01*
X158372776Y-102675293D01*
X158118603Y-102294897D01*
X157738207Y-102040724D01*
X157402761Y-101974000D01*
X157176239Y-101974000D01*
X156840793Y-102040724D01*
X156460397Y-102294897D01*
X156206224Y-102675293D01*
X156116971Y-103124000D01*
X152746900Y-103124000D01*
X155286901Y-100584000D01*
X156116971Y-100584000D01*
X156206224Y-101032707D01*
X156460397Y-101413103D01*
X156840793Y-101667276D01*
X157176239Y-101734000D01*
X157402761Y-101734000D01*
X157738207Y-101667276D01*
X158118603Y-101413103D01*
X158372776Y-101032707D01*
X158462029Y-100584000D01*
X158372776Y-100135293D01*
X158118603Y-99754897D01*
X157738207Y-99500724D01*
X157402761Y-99434000D01*
X157176239Y-99434000D01*
X156840793Y-99500724D01*
X156460397Y-99754897D01*
X156206224Y-100135293D01*
X156116971Y-100584000D01*
X155286901Y-100584000D01*
X156782546Y-99088356D01*
X156840793Y-99127276D01*
X157176239Y-99194000D01*
X157402761Y-99194000D01*
X157738207Y-99127276D01*
X158118603Y-98873103D01*
X158372776Y-98492707D01*
X158462029Y-98044000D01*
X158372776Y-97595293D01*
X158118603Y-97214897D01*
X157738207Y-96960724D01*
X157402761Y-96894000D01*
X157176239Y-96894000D01*
X156840793Y-96960724D01*
X156460397Y-97214897D01*
X156206224Y-97595293D01*
X156116971Y-98044000D01*
X156206224Y-98492707D01*
X156245144Y-98550954D01*
X148196100Y-106600000D01*
X109310317Y-106600000D01*
X109303475Y-106583482D01*
X109129993Y-106410000D01*
X109303475Y-106236518D01*
X109310317Y-106220000D01*
X146916081Y-106220000D01*
X146953500Y-106227443D01*
X146990919Y-106220000D01*
X146990924Y-106220000D01*
X147101768Y-106197952D01*
X147227464Y-106113964D01*
X147248664Y-106082236D01*
X156782546Y-96548356D01*
X156840793Y-96587276D01*
X157176239Y-96654000D01*
X157402761Y-96654000D01*
X157738207Y-96587276D01*
X158118603Y-96333103D01*
X158372776Y-95952707D01*
X158462029Y-95504000D01*
X158372776Y-95055293D01*
X158118603Y-94674897D01*
X157738207Y-94420724D01*
X157402761Y-94354000D01*
X157176239Y-94354000D01*
X156840793Y-94420724D01*
X156460397Y-94674897D01*
X156206224Y-95055293D01*
X156116971Y-95504000D01*
X156206224Y-95952707D01*
X156245144Y-96010954D01*
X146796100Y-105460000D01*
X109310317Y-105460000D01*
X109303475Y-105443482D01*
X109106561Y-105246568D01*
X108924565Y-105171183D01*
X141096605Y-105171183D01*
X141153771Y-105288543D01*
X141462755Y-105364821D01*
X141777408Y-105317050D01*
X141846229Y-105288543D01*
X141903395Y-105171183D01*
X141500000Y-104767789D01*
X141096605Y-105171183D01*
X108924565Y-105171183D01*
X108849282Y-105140000D01*
X108570804Y-105140000D01*
X108410033Y-105206593D01*
X108410033Y-104512755D01*
X140685179Y-104512755D01*
X140732950Y-104827408D01*
X140761457Y-104896229D01*
X140878817Y-104953395D01*
X141282211Y-104550000D01*
X141717789Y-104550000D01*
X142121183Y-104953395D01*
X142238543Y-104896229D01*
X142314821Y-104587245D01*
X142285008Y-104390870D01*
X142600000Y-104390870D01*
X142600000Y-104709130D01*
X142721793Y-105003164D01*
X142946836Y-105228207D01*
X143240870Y-105350000D01*
X143559130Y-105350000D01*
X143853164Y-105228207D01*
X144078207Y-105003164D01*
X144200000Y-104709130D01*
X144200000Y-104390870D01*
X144078207Y-104096836D01*
X143853164Y-103871793D01*
X143559130Y-103750000D01*
X143240870Y-103750000D01*
X142946836Y-103871793D01*
X142721793Y-104096836D01*
X142600000Y-104390870D01*
X142285008Y-104390870D01*
X142267050Y-104272592D01*
X142238543Y-104203771D01*
X142121183Y-104146605D01*
X141717789Y-104550000D01*
X141282211Y-104550000D01*
X140878817Y-104146605D01*
X140761457Y-104203771D01*
X140685179Y-104512755D01*
X108410033Y-104512755D01*
X108410033Y-103928817D01*
X141096605Y-103928817D01*
X141500000Y-104332211D01*
X141903395Y-103928817D01*
X141846229Y-103811457D01*
X141537245Y-103735179D01*
X141222592Y-103782950D01*
X141153771Y-103811457D01*
X141096605Y-103928817D01*
X108410033Y-103928817D01*
X108410033Y-101763184D01*
X108520897Y-101929103D01*
X108901293Y-102183276D01*
X109236739Y-102250000D01*
X109463261Y-102250000D01*
X109798707Y-102183276D01*
X110179103Y-101929103D01*
X110433276Y-101548707D01*
X110522529Y-101100000D01*
X110433276Y-100651293D01*
X110394356Y-100593045D01*
X110722240Y-100265161D01*
X110753965Y-100243963D01*
X110837953Y-100118267D01*
X110860001Y-100007423D01*
X110860001Y-100007418D01*
X110867444Y-99969999D01*
X110860001Y-99932580D01*
X110860001Y-99403899D01*
X110902946Y-99432593D01*
X111020000Y-99455877D01*
X112720000Y-99455877D01*
X112837054Y-99432593D01*
X112936288Y-99366288D01*
X113002593Y-99267054D01*
X113025877Y-99150000D01*
X113025877Y-98630386D01*
X113308465Y-98630386D01*
X113518748Y-99026776D01*
X113864716Y-99312521D01*
X114079617Y-99401520D01*
X114256000Y-99363912D01*
X114256000Y-98454000D01*
X113345343Y-98454000D01*
X113308465Y-98630386D01*
X113025877Y-98630386D01*
X113025877Y-97550000D01*
X113546867Y-97550000D01*
X113518748Y-97573224D01*
X113308465Y-97969614D01*
X113345343Y-98146000D01*
X114256000Y-98146000D01*
X114256000Y-98126000D01*
X114564000Y-98126000D01*
X114564000Y-98146000D01*
X114584000Y-98146000D01*
X114584000Y-98454000D01*
X114564000Y-98454000D01*
X114564000Y-99363912D01*
X114675017Y-99387583D01*
X114472601Y-99589999D01*
X113057420Y-99589999D01*
X113020001Y-99582556D01*
X112982582Y-99589999D01*
X112982577Y-99589999D01*
X112871733Y-99612047D01*
X112746037Y-99696035D01*
X112724839Y-99727761D01*
X112396955Y-100055644D01*
X112338707Y-100016724D01*
X112003261Y-99950000D01*
X111776739Y-99950000D01*
X111441293Y-100016724D01*
X111060897Y-100270897D01*
X110806724Y-100651293D01*
X110717471Y-101100000D01*
X110806724Y-101548707D01*
X111060897Y-101929103D01*
X111441293Y-102183276D01*
X111776739Y-102250000D01*
X112003261Y-102250000D01*
X112338707Y-102183276D01*
X112719103Y-101929103D01*
X112973276Y-101548707D01*
X113062529Y-101100000D01*
X112973276Y-100651293D01*
X112934356Y-100593045D01*
X113177402Y-100349999D01*
X113548043Y-100349999D01*
X113346724Y-100651293D01*
X113257471Y-101100000D01*
X113346724Y-101548707D01*
X113600897Y-101929103D01*
X113981293Y-102183276D01*
X114316739Y-102250000D01*
X114543261Y-102250000D01*
X114878707Y-102183276D01*
X115259103Y-101929103D01*
X115513276Y-101548707D01*
X115602529Y-101100000D01*
X115513276Y-100651293D01*
X115474356Y-100593045D01*
X115717402Y-100349999D01*
X116088043Y-100349999D01*
X115886724Y-100651293D01*
X115797471Y-101100000D01*
X115886724Y-101548707D01*
X116140897Y-101929103D01*
X116521293Y-102183276D01*
X116856739Y-102250000D01*
X117083261Y-102250000D01*
X117418707Y-102183276D01*
X117799103Y-101929103D01*
X118053276Y-101548707D01*
X118142529Y-101100000D01*
X118053276Y-100651293D01*
X118014356Y-100593045D01*
X118257402Y-100349999D01*
X118628043Y-100349999D01*
X118426724Y-100651293D01*
X118337471Y-101100000D01*
X118426724Y-101548707D01*
X118680897Y-101929103D01*
X119061293Y-102183276D01*
X119396739Y-102250000D01*
X119623261Y-102250000D01*
X119958707Y-102183276D01*
X120339103Y-101929103D01*
X120593276Y-101548707D01*
X120682529Y-101100000D01*
X120593276Y-100651293D01*
X120554356Y-100593045D01*
X120797402Y-100349999D01*
X121168043Y-100349999D01*
X120966724Y-100651293D01*
X120877471Y-101100000D01*
X120966724Y-101548707D01*
X121220897Y-101929103D01*
X121601293Y-102183276D01*
X121936739Y-102250000D01*
X122163261Y-102250000D01*
X122498707Y-102183276D01*
X122879103Y-101929103D01*
X123133276Y-101548707D01*
X123222529Y-101100000D01*
X123133276Y-100651293D01*
X123094356Y-100593045D01*
X123597401Y-100090000D01*
X124031628Y-100090000D01*
X123760897Y-100270897D01*
X123506724Y-100651293D01*
X123417471Y-101100000D01*
X123506724Y-101548707D01*
X123553806Y-101619170D01*
X123532049Y-101651732D01*
X123502557Y-101800000D01*
X123532049Y-101948268D01*
X123616036Y-102073964D01*
X123741732Y-102157951D01*
X123890000Y-102187443D01*
X124038268Y-102157951D01*
X124070830Y-102136194D01*
X124141293Y-102183276D01*
X124476739Y-102250000D01*
X124703261Y-102250000D01*
X125038707Y-102183276D01*
X125419103Y-101929103D01*
X125673276Y-101548707D01*
X125762529Y-101100000D01*
X125673276Y-100651293D01*
X125634356Y-100593045D01*
X126237412Y-99989989D01*
X126815700Y-99989989D01*
X126681293Y-100016724D01*
X126300897Y-100270897D01*
X126046724Y-100651293D01*
X125957471Y-101100000D01*
X126046724Y-101548707D01*
X126300897Y-101929103D01*
X126681293Y-102183276D01*
X127016739Y-102250000D01*
X127243261Y-102250000D01*
X127578707Y-102183276D01*
X127959103Y-101929103D01*
X128213276Y-101548707D01*
X128302529Y-101100000D01*
X128213276Y-100651293D01*
X128174356Y-100593045D01*
X128417402Y-100350000D01*
X128788042Y-100350000D01*
X128586724Y-100651293D01*
X128497471Y-101100000D01*
X128586724Y-101548707D01*
X128840897Y-101929103D01*
X129221293Y-102183276D01*
X129556739Y-102250000D01*
X129783261Y-102250000D01*
X130118707Y-102183276D01*
X130499103Y-101929103D01*
X130753276Y-101548707D01*
X130842529Y-101100000D01*
X130816792Y-100970609D01*
X131124394Y-100663007D01*
X131037471Y-101100000D01*
X131126724Y-101548707D01*
X131380897Y-101929103D01*
X131761293Y-102183276D01*
X132096739Y-102250000D01*
X132323261Y-102250000D01*
X132658707Y-102183276D01*
X133039103Y-101929103D01*
X133293276Y-101548707D01*
X133313607Y-101446495D01*
X133422157Y-101373964D01*
X133443357Y-101342236D01*
X133595410Y-101190184D01*
X133666724Y-101548707D01*
X133920897Y-101929103D01*
X134301293Y-102183276D01*
X134636739Y-102250000D01*
X134863261Y-102250000D01*
X135198707Y-102183276D01*
X135579103Y-101929103D01*
X135833276Y-101548707D01*
X135922529Y-101100000D01*
X135833276Y-100651293D01*
X135794356Y-100593045D01*
X136134123Y-100253278D01*
X136134123Y-101950000D01*
X136157407Y-102067054D01*
X136223712Y-102166288D01*
X136322946Y-102232593D01*
X136440000Y-102255877D01*
X138140000Y-102255877D01*
X138257054Y-102232593D01*
X138356288Y-102166288D01*
X138422593Y-102067054D01*
X138445877Y-101950000D01*
X138445877Y-100250000D01*
X138422593Y-100132946D01*
X138356288Y-100033712D01*
X138257054Y-99967407D01*
X138140000Y-99944123D01*
X137973278Y-99944123D01*
X138602273Y-99315129D01*
X138633995Y-99293933D01*
X138655191Y-99262211D01*
X138655194Y-99262208D01*
X138717982Y-99168239D01*
X138717982Y-99168238D01*
X138717983Y-99168237D01*
X138740031Y-99057393D01*
X138740031Y-99057389D01*
X138747474Y-99019970D01*
X138740031Y-98982551D01*
X138740031Y-93882174D01*
X138747474Y-93844755D01*
X138740031Y-93807336D01*
X138740031Y-93807331D01*
X138717983Y-93696487D01*
X138657008Y-93605232D01*
X138655194Y-93602517D01*
X138655193Y-93602516D01*
X138633995Y-93570791D01*
X138602269Y-93549593D01*
X137742802Y-92690126D01*
X137742800Y-92690123D01*
X137740796Y-92688119D01*
X137747638Y-92671601D01*
X137747638Y-92393123D01*
X137641070Y-92135844D01*
X137444156Y-91938930D01*
X137300517Y-91879433D01*
X137483432Y-91696518D01*
X137590000Y-91439239D01*
X137590000Y-91160761D01*
X137483432Y-90903482D01*
X137286518Y-90706568D01*
X137029239Y-90600000D01*
X136750761Y-90600000D01*
X136629879Y-90650071D01*
X136683432Y-90596518D01*
X136790000Y-90339239D01*
X136790000Y-90060761D01*
X136683432Y-89803482D01*
X136486518Y-89606568D01*
X136229239Y-89500000D01*
X135950761Y-89500000D01*
X135930000Y-89508599D01*
X135930000Y-89430761D01*
X135823432Y-89173482D01*
X135626518Y-88976568D01*
X135369239Y-88870000D01*
X135090761Y-88870000D01*
X134833482Y-88976568D01*
X134636568Y-89173482D01*
X134530000Y-89430761D01*
X134530000Y-89709239D01*
X134636568Y-89966518D01*
X134833482Y-90163432D01*
X134850000Y-90170274D01*
X134850000Y-90173108D01*
X134850001Y-90173113D01*
X134850000Y-92727249D01*
X134842557Y-92764668D01*
X134850000Y-92802087D01*
X134850000Y-92802091D01*
X134872048Y-92912935D01*
X134956036Y-93038632D01*
X134987764Y-93059832D01*
X136225495Y-94297564D01*
X136160879Y-94270799D01*
X135882401Y-94270799D01*
X135625122Y-94377367D01*
X135428208Y-94574281D01*
X135321640Y-94831560D01*
X135321640Y-95086784D01*
X135304308Y-95086784D01*
X135047029Y-95193352D01*
X134850115Y-95390266D01*
X134743547Y-95647545D01*
X134743547Y-95833436D01*
X134639075Y-95833436D01*
X134381796Y-95940004D01*
X134184882Y-96136918D01*
X134087794Y-96371309D01*
X134069806Y-96363858D01*
X133791328Y-96363858D01*
X133534049Y-96470426D01*
X133337135Y-96667340D01*
X133317818Y-96713975D01*
X133104681Y-96625691D01*
X132826203Y-96625691D01*
X132568924Y-96732259D01*
X132429639Y-96871544D01*
X132364717Y-96806622D01*
X132107438Y-96700054D01*
X131828960Y-96700054D01*
X131571681Y-96806622D01*
X131374767Y-97003536D01*
X131367925Y-97020054D01*
X130832574Y-97020054D01*
X130795155Y-97012611D01*
X130757736Y-97020054D01*
X130757732Y-97020054D01*
X130724474Y-97026669D01*
X131680910Y-96070234D01*
X131716396Y-96046523D01*
X131810329Y-95905942D01*
X131825667Y-95828831D01*
X131843314Y-95740116D01*
X131834988Y-95698258D01*
X131834988Y-90525000D01*
X133009011Y-90525000D01*
X133050868Y-90533326D01*
X133092725Y-90525000D01*
X133092726Y-90525000D01*
X133216695Y-90500341D01*
X133357276Y-90406408D01*
X133380989Y-90370919D01*
X134131791Y-89620118D01*
X134167276Y-89596408D01*
X134261209Y-89455827D01*
X134285868Y-89331858D01*
X134285868Y-89331857D01*
X134294194Y-89290000D01*
X134285868Y-89248143D01*
X134285868Y-88956908D01*
X137540923Y-85701854D01*
X137576408Y-85678144D01*
X137670341Y-85537563D01*
X137695000Y-85413594D01*
X137695000Y-85413593D01*
X137703326Y-85371736D01*
X137695000Y-85329879D01*
X137695000Y-84152725D01*
X137703326Y-84110867D01*
X137670341Y-83945041D01*
X137600118Y-83839945D01*
X137576408Y-83804460D01*
X137540922Y-83780749D01*
X136439253Y-82679081D01*
X136415540Y-82643592D01*
X136274959Y-82549659D01*
X136150990Y-82525000D01*
X136150989Y-82525000D01*
X136109132Y-82516674D01*
X136067275Y-82525000D01*
X134899950Y-82525000D01*
X134765277Y-82390327D01*
X134768326Y-82375000D01*
X134735341Y-82209173D01*
X134665118Y-82104077D01*
X134641408Y-82068592D01*
X134605922Y-82044881D01*
X130191038Y-77629998D01*
X145856590Y-77629998D01*
X145790000Y-77790761D01*
X145790000Y-78069239D01*
X145896568Y-78326518D01*
X146093482Y-78523432D01*
X146110000Y-78530274D01*
X146110001Y-81342998D01*
X142023164Y-85429836D01*
X141991436Y-85451036D01*
X141907448Y-85576733D01*
X141885400Y-85687577D01*
X141885400Y-85687581D01*
X141877957Y-85725000D01*
X141885400Y-85762419D01*
X141885401Y-88327976D01*
X141877957Y-88365400D01*
X141907449Y-88513668D01*
X141970237Y-88607637D01*
X141970239Y-88607639D01*
X141991437Y-88639364D01*
X142023162Y-88660562D01*
X143994838Y-90632239D01*
X144016036Y-90663964D01*
X144047761Y-90685162D01*
X144047762Y-90685163D01*
X144058068Y-90692049D01*
X144141732Y-90747952D01*
X144252576Y-90770000D01*
X144252581Y-90770000D01*
X144290000Y-90777443D01*
X144327419Y-90770000D01*
X146403057Y-90770000D01*
X146416724Y-90838707D01*
X146670897Y-91219103D01*
X147051293Y-91473276D01*
X147386739Y-91540000D01*
X147613261Y-91540000D01*
X147948707Y-91473276D01*
X148329103Y-91219103D01*
X148583276Y-90838707D01*
X148672529Y-90390000D01*
X148583276Y-89941293D01*
X148329103Y-89560897D01*
X148327761Y-89560000D01*
X154686019Y-89560000D01*
X155792257Y-90666239D01*
X155813455Y-90697964D01*
X155939151Y-90781952D01*
X156049995Y-90804000D01*
X156050000Y-90804000D01*
X156087419Y-90811443D01*
X156124838Y-90804000D01*
X156192557Y-90804000D01*
X156206224Y-90872707D01*
X156460397Y-91253103D01*
X156560515Y-91320000D01*
X152487418Y-91320000D01*
X152449999Y-91312557D01*
X152412580Y-91320000D01*
X152412576Y-91320000D01*
X152301732Y-91342048D01*
X152301731Y-91342049D01*
X152301730Y-91342049D01*
X152207761Y-91404837D01*
X152207758Y-91404840D01*
X152176036Y-91426036D01*
X152154840Y-91457758D01*
X149932599Y-93680001D01*
X148343439Y-93680001D01*
X148512521Y-93475284D01*
X148601520Y-93260383D01*
X148563912Y-93084000D01*
X147654000Y-93084000D01*
X147654000Y-93104000D01*
X147346000Y-93104000D01*
X147346000Y-93084000D01*
X146436088Y-93084000D01*
X146398480Y-93260383D01*
X146487479Y-93475284D01*
X146656561Y-93680001D01*
X145517402Y-93680001D01*
X144437018Y-92599617D01*
X146398480Y-92599617D01*
X146436088Y-92776000D01*
X147346000Y-92776000D01*
X147346000Y-91865343D01*
X147654000Y-91865343D01*
X147654000Y-92776000D01*
X148563912Y-92776000D01*
X148601520Y-92599617D01*
X148512521Y-92384716D01*
X148226776Y-92038748D01*
X147830386Y-91828465D01*
X147654000Y-91865343D01*
X147346000Y-91865343D01*
X147169614Y-91828465D01*
X146773224Y-92038748D01*
X146487479Y-92384716D01*
X146398480Y-92599617D01*
X144437018Y-92599617D01*
X143695164Y-91857764D01*
X143673964Y-91826036D01*
X143548268Y-91742048D01*
X143437424Y-91720000D01*
X143437419Y-91720000D01*
X143400000Y-91712557D01*
X143362581Y-91720000D01*
X141655518Y-91720000D01*
X141618099Y-91712557D01*
X141580680Y-91720000D01*
X141580676Y-91720000D01*
X141469832Y-91742048D01*
X141469831Y-91742049D01*
X141469830Y-91742049D01*
X141408130Y-91783276D01*
X141344136Y-91826036D01*
X141322938Y-91857762D01*
X140930700Y-92250000D01*
X140655761Y-92250000D01*
X140398482Y-92356568D01*
X140201568Y-92553482D01*
X140095000Y-92810761D01*
X140095000Y-93089239D01*
X140201568Y-93346518D01*
X140398482Y-93543432D01*
X140655761Y-93650000D01*
X140934239Y-93650000D01*
X141191518Y-93543432D01*
X141388432Y-93346518D01*
X141464003Y-93164072D01*
X141564082Y-93405684D01*
X141760996Y-93602598D01*
X142018275Y-93709166D01*
X142296753Y-93709166D01*
X142313271Y-93702324D01*
X142315275Y-93704328D01*
X142315278Y-93704330D01*
X143733186Y-95122239D01*
X143754384Y-95153964D01*
X143786109Y-95175162D01*
X143786110Y-95175163D01*
X143792155Y-95179202D01*
X143880080Y-95237952D01*
X143990924Y-95260000D01*
X143990929Y-95260000D01*
X144028348Y-95267443D01*
X144065767Y-95260000D01*
X155336081Y-95260000D01*
X155373500Y-95267443D01*
X155410919Y-95260000D01*
X155410924Y-95260000D01*
X155521768Y-95237952D01*
X155647464Y-95153964D01*
X155668664Y-95122236D01*
X156782545Y-94008356D01*
X156840793Y-94047276D01*
X157176239Y-94114000D01*
X157402761Y-94114000D01*
X157738207Y-94047276D01*
X158118603Y-93793103D01*
X158372776Y-93412707D01*
X158462029Y-92964000D01*
X158372776Y-92515293D01*
X158118603Y-92134897D01*
X158022905Y-92070953D01*
X158088268Y-92057952D01*
X158213964Y-91973964D01*
X158235164Y-91942236D01*
X158832238Y-91345163D01*
X158863964Y-91323964D01*
X158947952Y-91198268D01*
X158970000Y-91087424D01*
X158970000Y-91087419D01*
X158977443Y-91050000D01*
X158970000Y-91012581D01*
X158970000Y-89221919D01*
X158977443Y-89184500D01*
X158970000Y-89147081D01*
X158970000Y-89147076D01*
X158947952Y-89036232D01*
X158909397Y-88978530D01*
X158885163Y-88942262D01*
X158885162Y-88942261D01*
X158863964Y-88910536D01*
X158832239Y-88889338D01*
X158333856Y-88390955D01*
X158372776Y-88332707D01*
X158462029Y-87884000D01*
X158372776Y-87435293D01*
X158118603Y-87054897D01*
X157738207Y-86800724D01*
X157402761Y-86734000D01*
X157176239Y-86734000D01*
X156840793Y-86800724D01*
X156460397Y-87054897D01*
X156206224Y-87435293D01*
X156116971Y-87884000D01*
X156206224Y-88332707D01*
X156460397Y-88713103D01*
X156840793Y-88967276D01*
X157176239Y-89034000D01*
X157402761Y-89034000D01*
X157738207Y-88967276D01*
X157796455Y-88928356D01*
X158210000Y-89341901D01*
X158210000Y-89731682D01*
X158118603Y-89594897D01*
X157738207Y-89340724D01*
X157402761Y-89274000D01*
X157176239Y-89274000D01*
X156840793Y-89340724D01*
X156460397Y-89594897D01*
X156206224Y-89975293D01*
X156201228Y-90000408D01*
X155138583Y-88937764D01*
X155117383Y-88906036D01*
X154991687Y-88822048D01*
X154880843Y-88800000D01*
X154880838Y-88800000D01*
X154843419Y-88792557D01*
X154806000Y-88800000D01*
X148635985Y-88800000D01*
X148655877Y-88700000D01*
X148655877Y-87000000D01*
X148632593Y-86882946D01*
X148566288Y-86783712D01*
X148467054Y-86717407D01*
X148350000Y-86694123D01*
X146650000Y-86694123D01*
X146532946Y-86717407D01*
X146433712Y-86783712D01*
X146367407Y-86882946D01*
X146344123Y-87000000D01*
X146344123Y-88700000D01*
X146361758Y-88788658D01*
X145292505Y-87719405D01*
X145305000Y-87689239D01*
X145305000Y-87410761D01*
X145198432Y-87153482D01*
X145001518Y-86956568D01*
X144744239Y-86850000D01*
X144572400Y-86850000D01*
X145698401Y-85724000D01*
X156192557Y-85724000D01*
X156206224Y-85792707D01*
X156460397Y-86173103D01*
X156840793Y-86427276D01*
X157176239Y-86494000D01*
X157402761Y-86494000D01*
X157738207Y-86427276D01*
X158118603Y-86173103D01*
X158372776Y-85792707D01*
X158462029Y-85344000D01*
X158372776Y-84895293D01*
X158118603Y-84514897D01*
X157738207Y-84260724D01*
X157402761Y-84194000D01*
X157176239Y-84194000D01*
X156840793Y-84260724D01*
X156460397Y-84514897D01*
X156206224Y-84895293D01*
X156192557Y-84964000D01*
X145578418Y-84964000D01*
X145540999Y-84956557D01*
X145503580Y-84964000D01*
X145503576Y-84964000D01*
X145392732Y-84986048D01*
X145392731Y-84986049D01*
X145392730Y-84986049D01*
X145309566Y-85041618D01*
X145267036Y-85070036D01*
X145245838Y-85101761D01*
X143490758Y-86856842D01*
X143474239Y-86850000D01*
X143195761Y-86850000D01*
X142938482Y-86956568D01*
X142741568Y-87153482D01*
X142645400Y-87385653D01*
X142645400Y-85882400D01*
X145723800Y-82804000D01*
X156116971Y-82804000D01*
X156206224Y-83252707D01*
X156460397Y-83633103D01*
X156840793Y-83887276D01*
X157176239Y-83954000D01*
X157402761Y-83954000D01*
X157738207Y-83887276D01*
X158118603Y-83633103D01*
X158372776Y-83252707D01*
X158462029Y-82804000D01*
X158372776Y-82355293D01*
X158118603Y-81974897D01*
X157738207Y-81720724D01*
X157402761Y-81654000D01*
X157176239Y-81654000D01*
X156840793Y-81720724D01*
X156460397Y-81974897D01*
X156206224Y-82355293D01*
X156116971Y-82804000D01*
X145723800Y-82804000D01*
X146732239Y-81795562D01*
X146763964Y-81774364D01*
X146847952Y-81648668D01*
X146870000Y-81537824D01*
X146870000Y-81537819D01*
X146877443Y-81500400D01*
X146870000Y-81462981D01*
X146870000Y-80264000D01*
X156116971Y-80264000D01*
X156206224Y-80712707D01*
X156460397Y-81093103D01*
X156840793Y-81347276D01*
X157176239Y-81414000D01*
X157402761Y-81414000D01*
X157738207Y-81347276D01*
X158118603Y-81093103D01*
X158372776Y-80712707D01*
X158462029Y-80264000D01*
X158372776Y-79815293D01*
X158118603Y-79434897D01*
X157738207Y-79180724D01*
X157402761Y-79114000D01*
X157176239Y-79114000D01*
X156840793Y-79180724D01*
X156460397Y-79434897D01*
X156206224Y-79815293D01*
X156116971Y-80264000D01*
X146870000Y-80264000D01*
X146870000Y-78530274D01*
X146886518Y-78523432D01*
X147083432Y-78326518D01*
X147190000Y-78069239D01*
X147190000Y-77790761D01*
X147123410Y-77629998D01*
X150777998Y-77629998D01*
X151114237Y-77966238D01*
X151135436Y-77997964D01*
X151167161Y-78019162D01*
X151167162Y-78019163D01*
X151261130Y-78081951D01*
X151261131Y-78081951D01*
X151261132Y-78081952D01*
X151371976Y-78104000D01*
X151371980Y-78104000D01*
X151409399Y-78111443D01*
X151446818Y-78104000D01*
X156192557Y-78104000D01*
X156206224Y-78172707D01*
X156460397Y-78553103D01*
X156840793Y-78807276D01*
X157176239Y-78874000D01*
X157402761Y-78874000D01*
X157738207Y-78807276D01*
X158118603Y-78553103D01*
X158372776Y-78172707D01*
X158462029Y-77724000D01*
X158372776Y-77275293D01*
X158118603Y-76894897D01*
X157738207Y-76640724D01*
X157402761Y-76574000D01*
X157176239Y-76574000D01*
X156840793Y-76640724D01*
X156460397Y-76894897D01*
X156206224Y-77275293D01*
X156192557Y-77344000D01*
X151566801Y-77344000D01*
X151273700Y-77050900D01*
X152760602Y-75564000D01*
X156133623Y-75564000D01*
X156133623Y-76034000D01*
X156156907Y-76151054D01*
X156223212Y-76250288D01*
X156322446Y-76316593D01*
X156439500Y-76339877D01*
X158139500Y-76339877D01*
X158256554Y-76316593D01*
X158355788Y-76250288D01*
X158422093Y-76151054D01*
X158445377Y-76034000D01*
X158445377Y-74334000D01*
X158422093Y-74216946D01*
X158355788Y-74117712D01*
X158256554Y-74051407D01*
X158139500Y-74028123D01*
X156439500Y-74028123D01*
X156322446Y-74051407D01*
X156223212Y-74117712D01*
X156156907Y-74216946D01*
X156133623Y-74334000D01*
X156133623Y-74804000D01*
X152640618Y-74804000D01*
X152603199Y-74796557D01*
X152565780Y-74804000D01*
X152565776Y-74804000D01*
X152454932Y-74826048D01*
X152454931Y-74826049D01*
X152454930Y-74826049D01*
X152360961Y-74888837D01*
X152360958Y-74888840D01*
X152329236Y-74910036D01*
X152308040Y-74941759D01*
X150739812Y-76509988D01*
X122727931Y-76509988D01*
X122690512Y-76502545D01*
X122653093Y-76509988D01*
X122653088Y-76509988D01*
X122542244Y-76532036D01*
X122416548Y-76616024D01*
X122395350Y-76647750D01*
X121322164Y-77720936D01*
X121290436Y-77742136D01*
X121206448Y-77867833D01*
X121184400Y-77978677D01*
X121184400Y-77978681D01*
X121176957Y-78016100D01*
X121184400Y-78053519D01*
X121184401Y-80189478D01*
X121108885Y-80371790D01*
X121108885Y-80650268D01*
X121191285Y-80849200D01*
X117616602Y-80849200D01*
X117443159Y-80675757D01*
X117450001Y-80659239D01*
X117450001Y-80380761D01*
X117343433Y-80123482D01*
X117146519Y-79926568D01*
X117130667Y-79920002D01*
X117279726Y-79920002D01*
X117286568Y-79936520D01*
X117483482Y-80133434D01*
X117740761Y-80240002D01*
X118019239Y-80240002D01*
X118276518Y-80133434D01*
X118473432Y-79936520D01*
X118580000Y-79679241D01*
X118580000Y-79517964D01*
X118668786Y-79554740D01*
X118947264Y-79554740D01*
X119204543Y-79448172D01*
X119401457Y-79251258D01*
X119508025Y-78993979D01*
X119508025Y-78715501D01*
X119401457Y-78458222D01*
X119204543Y-78261308D01*
X118947264Y-78154740D01*
X118668786Y-78154740D01*
X118652268Y-78161582D01*
X118560000Y-78069315D01*
X118560000Y-75922998D01*
X118630897Y-76029103D01*
X119011293Y-76283276D01*
X119346739Y-76350000D01*
X119573261Y-76350000D01*
X119908707Y-76283276D01*
X120289103Y-76029103D01*
X120543276Y-75648707D01*
X120632529Y-75200000D01*
X120827471Y-75200000D01*
X120916724Y-75648707D01*
X121170897Y-76029103D01*
X121551293Y-76283276D01*
X121886739Y-76350000D01*
X122113261Y-76350000D01*
X122448707Y-76283276D01*
X122829103Y-76029103D01*
X123083276Y-75648707D01*
X123172529Y-75200000D01*
X123367471Y-75200000D01*
X123456724Y-75648707D01*
X123710897Y-76029103D01*
X124091293Y-76283276D01*
X124426739Y-76350000D01*
X124653261Y-76350000D01*
X124988707Y-76283276D01*
X125369103Y-76029103D01*
X125623276Y-75648707D01*
X125712529Y-75200000D01*
X125907471Y-75200000D01*
X125996724Y-75648707D01*
X126250897Y-76029103D01*
X126631293Y-76283276D01*
X126966739Y-76350000D01*
X127193261Y-76350000D01*
X127528707Y-76283276D01*
X127909103Y-76029103D01*
X128163276Y-75648707D01*
X128252529Y-75200000D01*
X128447471Y-75200000D01*
X128536724Y-75648707D01*
X128790897Y-76029103D01*
X129171293Y-76283276D01*
X129506739Y-76350000D01*
X129733261Y-76350000D01*
X130068707Y-76283276D01*
X130449103Y-76029103D01*
X130703276Y-75648707D01*
X130792529Y-75200000D01*
X130987471Y-75200000D01*
X131076724Y-75648707D01*
X131330897Y-76029103D01*
X131711293Y-76283276D01*
X132046739Y-76350000D01*
X132273261Y-76350000D01*
X132608707Y-76283276D01*
X132989103Y-76029103D01*
X133243276Y-75648707D01*
X133332529Y-75200000D01*
X133527471Y-75200000D01*
X133616724Y-75648707D01*
X133870897Y-76029103D01*
X134251293Y-76283276D01*
X134586739Y-76350000D01*
X134813261Y-76350000D01*
X135148707Y-76283276D01*
X135529103Y-76029103D01*
X135783276Y-75648707D01*
X135872529Y-75200000D01*
X136067471Y-75200000D01*
X136156724Y-75648707D01*
X136410897Y-76029103D01*
X136791293Y-76283276D01*
X137126739Y-76350000D01*
X137353261Y-76350000D01*
X137688707Y-76283276D01*
X138069103Y-76029103D01*
X138323276Y-75648707D01*
X138412529Y-75200000D01*
X138607471Y-75200000D01*
X138696724Y-75648707D01*
X138950897Y-76029103D01*
X139331293Y-76283276D01*
X139666739Y-76350000D01*
X139893261Y-76350000D01*
X140228707Y-76283276D01*
X140609103Y-76029103D01*
X140863276Y-75648707D01*
X140952529Y-75200000D01*
X141147471Y-75200000D01*
X141236724Y-75648707D01*
X141490897Y-76029103D01*
X141871293Y-76283276D01*
X142206739Y-76350000D01*
X142433261Y-76350000D01*
X142768707Y-76283276D01*
X143149103Y-76029103D01*
X143403276Y-75648707D01*
X143492529Y-75200000D01*
X143403276Y-74751293D01*
X143149103Y-74370897D01*
X143117829Y-74350000D01*
X143704123Y-74350000D01*
X143704123Y-76050000D01*
X143727407Y-76167054D01*
X143793712Y-76266288D01*
X143892946Y-76332593D01*
X144010000Y-76355877D01*
X145710000Y-76355877D01*
X145827054Y-76332593D01*
X145926288Y-76266288D01*
X145992593Y-76167054D01*
X146015877Y-76050000D01*
X146015877Y-74350000D01*
X145992593Y-74232946D01*
X145926288Y-74133712D01*
X145827054Y-74067407D01*
X145710000Y-74044123D01*
X144010000Y-74044123D01*
X143892946Y-74067407D01*
X143793712Y-74133712D01*
X143727407Y-74232946D01*
X143704123Y-74350000D01*
X143117829Y-74350000D01*
X142768707Y-74116724D01*
X142433261Y-74050000D01*
X142206739Y-74050000D01*
X141871293Y-74116724D01*
X141490897Y-74370897D01*
X141236724Y-74751293D01*
X141147471Y-75200000D01*
X140952529Y-75200000D01*
X140863276Y-74751293D01*
X140609103Y-74370897D01*
X140228707Y-74116724D01*
X139893261Y-74050000D01*
X139666739Y-74050000D01*
X139331293Y-74116724D01*
X138950897Y-74370897D01*
X138696724Y-74751293D01*
X138607471Y-75200000D01*
X138412529Y-75200000D01*
X138323276Y-74751293D01*
X138069103Y-74370897D01*
X137688707Y-74116724D01*
X137353261Y-74050000D01*
X137126739Y-74050000D01*
X136791293Y-74116724D01*
X136410897Y-74370897D01*
X136156724Y-74751293D01*
X136067471Y-75200000D01*
X135872529Y-75200000D01*
X135783276Y-74751293D01*
X135529103Y-74370897D01*
X135148707Y-74116724D01*
X134813261Y-74050000D01*
X134586739Y-74050000D01*
X134251293Y-74116724D01*
X133870897Y-74370897D01*
X133616724Y-74751293D01*
X133527471Y-75200000D01*
X133332529Y-75200000D01*
X133243276Y-74751293D01*
X132989103Y-74370897D01*
X132608707Y-74116724D01*
X132273261Y-74050000D01*
X132046739Y-74050000D01*
X131711293Y-74116724D01*
X131330897Y-74370897D01*
X131076724Y-74751293D01*
X130987471Y-75200000D01*
X130792529Y-75200000D01*
X130703276Y-74751293D01*
X130449103Y-74370897D01*
X130068707Y-74116724D01*
X129733261Y-74050000D01*
X129506739Y-74050000D01*
X129171293Y-74116724D01*
X128790897Y-74370897D01*
X128536724Y-74751293D01*
X128447471Y-75200000D01*
X128252529Y-75200000D01*
X128163276Y-74751293D01*
X127909103Y-74370897D01*
X127528707Y-74116724D01*
X127193261Y-74050000D01*
X126966739Y-74050000D01*
X126631293Y-74116724D01*
X126250897Y-74370897D01*
X125996724Y-74751293D01*
X125907471Y-75200000D01*
X125712529Y-75200000D01*
X125623276Y-74751293D01*
X125369103Y-74370897D01*
X124988707Y-74116724D01*
X124653261Y-74050000D01*
X124426739Y-74050000D01*
X124091293Y-74116724D01*
X123710897Y-74370897D01*
X123456724Y-74751293D01*
X123367471Y-75200000D01*
X123172529Y-75200000D01*
X123083276Y-74751293D01*
X122829103Y-74370897D01*
X122448707Y-74116724D01*
X122113261Y-74050000D01*
X121886739Y-74050000D01*
X121551293Y-74116724D01*
X121170897Y-74370897D01*
X120916724Y-74751293D01*
X120827471Y-75200000D01*
X120632529Y-75200000D01*
X120543276Y-74751293D01*
X120289103Y-74370897D01*
X119908707Y-74116724D01*
X119573261Y-74050000D01*
X119346739Y-74050000D01*
X119011293Y-74116724D01*
X118630897Y-74370897D01*
X118540752Y-74505808D01*
X118537952Y-74491732D01*
X118517907Y-74461732D01*
X118475163Y-74397762D01*
X118475162Y-74397761D01*
X118453964Y-74366036D01*
X118422239Y-74344838D01*
X117545151Y-73467751D01*
X117523953Y-73436026D01*
X117492228Y-73414828D01*
X117492226Y-73414826D01*
X117398257Y-73352038D01*
X117249989Y-73322546D01*
X117212565Y-73329990D01*
X108428298Y-73329988D01*
X108390879Y-73322545D01*
X108353460Y-73329988D01*
X108353457Y-73329988D01*
X108242613Y-73352036D01*
X108242612Y-73352037D01*
X108242610Y-73352037D01*
X108148642Y-73414825D01*
X108148639Y-73414828D01*
X108116917Y-73436024D01*
X108095721Y-73467746D01*
X106707762Y-74855706D01*
X106676037Y-74876904D01*
X106654839Y-74908629D01*
X106654837Y-74908631D01*
X106592049Y-75002600D01*
X106562557Y-75150868D01*
X106570001Y-75188292D01*
X106570001Y-85717625D01*
X106543432Y-85653482D01*
X106346518Y-85456568D01*
X106089239Y-85350000D01*
X105810761Y-85350000D01*
X105553482Y-85456568D01*
X105513045Y-85497005D01*
X104445000Y-84428960D01*
X104445000Y-80514950D01*
X104613432Y-80346518D01*
X104720000Y-80089239D01*
X104720000Y-79810761D01*
X104613432Y-79553482D01*
X104416518Y-79356568D01*
X104159239Y-79250000D01*
X103880761Y-79250000D01*
X103623482Y-79356568D01*
X103426568Y-79553482D01*
X103320000Y-79810761D01*
X103320000Y-80089239D01*
X103426568Y-80346518D01*
X103595000Y-80514950D01*
X103595001Y-84563138D01*
X103586674Y-84605000D01*
X103619659Y-84770826D01*
X103684208Y-84867430D01*
X103713593Y-84911408D01*
X103749079Y-84935119D01*
X104163960Y-85350000D01*
X103910761Y-85350000D01*
X103653482Y-85456568D01*
X103456568Y-85653482D01*
X103350000Y-85910761D01*
X103350000Y-86189239D01*
X103456568Y-86446518D01*
X103537201Y-86527151D01*
X103537200Y-90748050D01*
X103368768Y-90916482D01*
X103262200Y-91173761D01*
X100603662Y-91173761D01*
X100060000Y-90630100D01*
X100060000Y-87957218D01*
X100067443Y-87919799D01*
X100060000Y-87882380D01*
X100060000Y-87882376D01*
X100037952Y-87771532D01*
X100037951Y-87771530D01*
X99975163Y-87677561D01*
X99975160Y-87677558D01*
X99953964Y-87645836D01*
X99922242Y-87624640D01*
X98930000Y-86632400D01*
X98930000Y-83449960D01*
X99103482Y-83623442D01*
X99120000Y-83630284D01*
X99120000Y-83633118D01*
X99120001Y-83633123D01*
X99120000Y-86572581D01*
X99112557Y-86610000D01*
X99120000Y-86647419D01*
X99120000Y-86647423D01*
X99142048Y-86758267D01*
X99226036Y-86883964D01*
X99257764Y-86905164D01*
X100516842Y-88164243D01*
X100510000Y-88180761D01*
X100510000Y-88459239D01*
X100616568Y-88716518D01*
X100813482Y-88913432D01*
X101070761Y-89020000D01*
X101349239Y-89020000D01*
X101606518Y-88913432D01*
X101803432Y-88716518D01*
X101910000Y-88459239D01*
X101910000Y-88180761D01*
X101803432Y-87923482D01*
X101606518Y-87726568D01*
X101349239Y-87620000D01*
X101070761Y-87620000D01*
X101054243Y-87626842D01*
X99880000Y-86452600D01*
X99880000Y-83630284D01*
X99896518Y-83623442D01*
X100093432Y-83426528D01*
X100200000Y-83169249D01*
X100200000Y-82890771D01*
X100093432Y-82633492D01*
X99896518Y-82436578D01*
X99880000Y-82429736D01*
X99880000Y-78215996D01*
X102160000Y-75935997D01*
X102160000Y-76179249D01*
X102166842Y-76195767D01*
X100967764Y-77394846D01*
X100936036Y-77416046D01*
X100852048Y-77541743D01*
X100830000Y-77652587D01*
X100830000Y-77652591D01*
X100822557Y-77690010D01*
X100830000Y-77727429D01*
X100830001Y-82339726D01*
X100813482Y-82346568D01*
X100616568Y-82543482D01*
X100510000Y-82800761D01*
X100510000Y-83079239D01*
X100616568Y-83336518D01*
X100813482Y-83533432D01*
X101070761Y-83640000D01*
X101349239Y-83640000D01*
X101606518Y-83533432D01*
X101803432Y-83336518D01*
X101910000Y-83079239D01*
X101910000Y-82800761D01*
X101803432Y-82543482D01*
X101606518Y-82346568D01*
X101590000Y-82339726D01*
X101590000Y-77847410D01*
X102704243Y-76733168D01*
X102720761Y-76740010D01*
X102999239Y-76740010D01*
X103256518Y-76633442D01*
X103453432Y-76436528D01*
X103560000Y-76179249D01*
X103560000Y-75900771D01*
X103455092Y-75647500D01*
X103965104Y-75647500D01*
X104156842Y-75839239D01*
X104150000Y-75855757D01*
X104150000Y-76134235D01*
X104256568Y-76391514D01*
X104453482Y-76588428D01*
X104710761Y-76694996D01*
X104989239Y-76694996D01*
X105246518Y-76588428D01*
X105443432Y-76391514D01*
X105550000Y-76134235D01*
X105550000Y-75855757D01*
X105443432Y-75598478D01*
X105246518Y-75401564D01*
X104989239Y-75294996D01*
X104710761Y-75294996D01*
X104694243Y-75301838D01*
X104417668Y-75025264D01*
X104396468Y-74993536D01*
X104270772Y-74909548D01*
X104159928Y-74887500D01*
X104159923Y-74887500D01*
X104122504Y-74880057D01*
X104085085Y-74887500D01*
X102328515Y-74887500D01*
X102291096Y-74880057D01*
X102253677Y-74887500D01*
X102253672Y-74887500D01*
X102142828Y-74909548D01*
X102017132Y-74993536D01*
X101995934Y-75025261D01*
X99257764Y-77763432D01*
X99226036Y-77784632D01*
X99142048Y-77910329D01*
X99120000Y-78021173D01*
X99120000Y-78021177D01*
X99112557Y-78058596D01*
X99120000Y-78096015D01*
X99120001Y-82426897D01*
X99120000Y-82426902D01*
X99120000Y-82429736D01*
X99103482Y-82436578D01*
X98930000Y-82610060D01*
X98930000Y-78297418D01*
X98937443Y-78259999D01*
X98930000Y-78222580D01*
X98930000Y-78222576D01*
X98907952Y-78111732D01*
X98888054Y-78081952D01*
X98845163Y-78017762D01*
X98845162Y-78017761D01*
X98823964Y-77986036D01*
X98792239Y-77964838D01*
X95005164Y-74177764D01*
X94983964Y-74146036D01*
X94858268Y-74062048D01*
X94747424Y-74040000D01*
X94747419Y-74040000D01*
X94710000Y-74032557D01*
X94672581Y-74040000D01*
X94350274Y-74040000D01*
X94343432Y-74023482D01*
X94146518Y-73826568D01*
X93889239Y-73720000D01*
X93610761Y-73720000D01*
X93353482Y-73826568D01*
X93156568Y-74023482D01*
X93050000Y-74280761D01*
X92374699Y-74280761D01*
X92374917Y-73294944D01*
X159155083Y-73285055D01*
X159164918Y-117805112D01*
X159164918Y-117805112D01*
G37*
X159164918Y-117805112D02*
X92365082Y-117824889D01*
X92365542Y-115740000D01*
X95752556Y-115740000D01*
X95778937Y-115872629D01*
X95777471Y-115880000D01*
X95866724Y-116328707D01*
X96120897Y-116709103D01*
X96501293Y-116963276D01*
X96836739Y-117030000D01*
X97063261Y-117030000D01*
X97398707Y-116963276D01*
X97779103Y-116709103D01*
X98033276Y-116328707D01*
X98122529Y-115880000D01*
X98033276Y-115431293D01*
X98019846Y-115411194D01*
X103390923Y-110040118D01*
X103426408Y-110016408D01*
X103520341Y-109875827D01*
X103545000Y-109751858D01*
X103545000Y-109751857D01*
X103553326Y-109710000D01*
X103545000Y-109668143D01*
X103545000Y-95666040D01*
X104586457Y-94624584D01*
X104806518Y-94533432D01*
X105003432Y-94336518D01*
X105110000Y-94079239D01*
X105110000Y-93800761D01*
X105003432Y-93543482D01*
X104806518Y-93346568D01*
X104549239Y-93240000D01*
X104270761Y-93240000D01*
X104013482Y-93346568D01*
X103816568Y-93543482D01*
X103710000Y-93800761D01*
X103710000Y-94079239D01*
X103774354Y-94234605D01*
X102849081Y-95159879D01*
X102813592Y-95183592D01*
X102733338Y-95303702D01*
X102719659Y-95324174D01*
X102686674Y-95490000D01*
X102695000Y-95531858D01*
X102695001Y-97408142D01*
X102695000Y-109533959D01*
X97418806Y-114810154D01*
X97398707Y-114796724D01*
X97063261Y-114730000D01*
X96836739Y-114730000D01*
X96501293Y-114796724D01*
X96120897Y-115050897D01*
X95866724Y-115431293D01*
X95857176Y-115479297D01*
X95782048Y-115591732D01*
X95752556Y-115740000D01*
X92365542Y-115740000D01*
X92366072Y-113340000D01*
X95777471Y-113340000D01*
X95866724Y-113788707D01*
X96120897Y-114169103D01*
X96501293Y-114423276D01*
X96836739Y-114490000D01*
X97063261Y-114490000D01*
X97398707Y-114423276D01*
X97779103Y-114169103D01*
X98033276Y-113788707D01*
X98122529Y-113340000D01*
X98033276Y-112891293D01*
X98019847Y-112871194D01*
X98026620Y-112864420D01*
X98128407Y-112796409D01*
X98152120Y-112760920D01*
X99630923Y-111282118D01*
X99666408Y-111258408D01*
X99760341Y-111117827D01*
X99785000Y-110993858D01*
X99785000Y-110993857D01*
X99793326Y-110952000D01*
X99785000Y-110910143D01*
X99785000Y-103957992D01*
X99808707Y-103953276D01*
X100189103Y-103699103D01*
X100443276Y-103318707D01*
X100532529Y-102870000D01*
X100443276Y-102421293D01*
X100189103Y-102040897D01*
X99808707Y-101786724D01*
X99785000Y-101782008D01*
X99785000Y-101157992D01*
X99808707Y-101153276D01*
X100189103Y-100899103D01*
X100443276Y-100518707D01*
X100532529Y-100070000D01*
X100443276Y-99621293D01*
X100189103Y-99240897D01*
X99808707Y-98986724D01*
X99785000Y-98982008D01*
X99785000Y-98334572D01*
X99789507Y-98333676D01*
X100169903Y-98079503D01*
X100424076Y-97699107D01*
X100513329Y-97250400D01*
X100424076Y-96801693D01*
X100169903Y-96421297D01*
X99789507Y-96167124D01*
X99454061Y-96100400D01*
X99227539Y-96100400D01*
X98892093Y-96167124D01*
X98511697Y-96421297D01*
X98257524Y-96801693D01*
X98168271Y-97250400D01*
X98257524Y-97699107D01*
X98511697Y-98079503D01*
X98892093Y-98333676D01*
X98935001Y-98342211D01*
X98935000Y-98982008D01*
X98911293Y-98986724D01*
X98530897Y-99240897D01*
X98276724Y-99621293D01*
X98187471Y-100070000D01*
X98276724Y-100518707D01*
X98530897Y-100899103D01*
X98911293Y-101153276D01*
X98935000Y-101157992D01*
X98935000Y-101709776D01*
X98935001Y-101709781D01*
X98935001Y-101782008D01*
X98911293Y-101786724D01*
X98530897Y-102040897D01*
X98276724Y-102421293D01*
X98187471Y-102870000D01*
X98276724Y-103318707D01*
X98530897Y-103699103D01*
X98911293Y-103953276D01*
X98935001Y-103957992D01*
X98935000Y-110775959D01*
X98100000Y-111610960D01*
X98100000Y-111029000D01*
X98025000Y-110954000D01*
X97104000Y-110954000D01*
X97104000Y-111875000D01*
X97179000Y-111950000D01*
X97760960Y-111950000D01*
X97595380Y-112115580D01*
X97493591Y-112183593D01*
X97469880Y-112219079D01*
X97418806Y-112270153D01*
X97398707Y-112256724D01*
X97063261Y-112190000D01*
X96836739Y-112190000D01*
X96501293Y-112256724D01*
X96120897Y-112510897D01*
X95866724Y-112891293D01*
X95777471Y-113340000D01*
X92366072Y-113340000D01*
X92366582Y-111029000D01*
X95800000Y-111029000D01*
X95800000Y-111709673D01*
X95845672Y-111819936D01*
X95930063Y-111904328D01*
X96040326Y-111950000D01*
X96721000Y-111950000D01*
X96796000Y-111875000D01*
X96796000Y-110954000D01*
X95875000Y-110954000D01*
X95800000Y-111029000D01*
X92366582Y-111029000D01*
X92366833Y-109890327D01*
X95800000Y-109890327D01*
X95800000Y-110571000D01*
X95875000Y-110646000D01*
X96796000Y-110646000D01*
X96796000Y-109725000D01*
X97104000Y-109725000D01*
X97104000Y-110646000D01*
X98025000Y-110646000D01*
X98100000Y-110571000D01*
X98100000Y-109890327D01*
X98054328Y-109780064D01*
X97969937Y-109695672D01*
X97859674Y-109650000D01*
X97179000Y-109650000D01*
X97104000Y-109725000D01*
X96796000Y-109725000D01*
X96721000Y-109650000D01*
X96040326Y-109650000D01*
X95930063Y-109695672D01*
X95845672Y-109780064D01*
X95800000Y-109890327D01*
X92366833Y-109890327D01*
X92368572Y-102020000D01*
X93124123Y-102020000D01*
X93124123Y-103720000D01*
X93147407Y-103837054D01*
X93213712Y-103936288D01*
X93312946Y-104002593D01*
X93430000Y-104025877D01*
X95130000Y-104025877D01*
X95247054Y-104002593D01*
X95346288Y-103936288D01*
X95412593Y-103837054D01*
X95435877Y-103720000D01*
X95435877Y-102870000D01*
X95647471Y-102870000D01*
X95736724Y-103318707D01*
X95990897Y-103699103D01*
X96371293Y-103953276D01*
X96706739Y-104020000D01*
X96933261Y-104020000D01*
X97268707Y-103953276D01*
X97649103Y-103699103D01*
X97903276Y-103318707D01*
X97992529Y-102870000D01*
X97903276Y-102421293D01*
X97649103Y-102040897D01*
X97268707Y-101786724D01*
X96933261Y-101720000D01*
X96706739Y-101720000D01*
X96371293Y-101786724D01*
X95990897Y-102040897D01*
X95736724Y-102421293D01*
X95647471Y-102870000D01*
X95435877Y-102870000D01*
X95435877Y-102020000D01*
X95412593Y-101902946D01*
X95346288Y-101803712D01*
X95247054Y-101737407D01*
X95130000Y-101714123D01*
X93430000Y-101714123D01*
X93312946Y-101737407D01*
X93213712Y-101803712D01*
X93147407Y-101902946D01*
X93124123Y-102020000D01*
X92368572Y-102020000D01*
X92369190Y-99220000D01*
X93124123Y-99220000D01*
X93124123Y-100920000D01*
X93147407Y-101037054D01*
X93213712Y-101136288D01*
X93312946Y-101202593D01*
X93430000Y-101225877D01*
X95130000Y-101225877D01*
X95247054Y-101202593D01*
X95346288Y-101136288D01*
X95412593Y-101037054D01*
X95435877Y-100920000D01*
X95435877Y-100070000D01*
X95647471Y-100070000D01*
X95736724Y-100518707D01*
X95990897Y-100899103D01*
X96371293Y-101153276D01*
X96706739Y-101220000D01*
X96933261Y-101220000D01*
X97268707Y-101153276D01*
X97649103Y-100899103D01*
X97903276Y-100518707D01*
X97992529Y-100070000D01*
X97903276Y-99621293D01*
X97649103Y-99240897D01*
X97268707Y-98986724D01*
X96933261Y-98920000D01*
X96706739Y-98920000D01*
X96371293Y-98986724D01*
X95990897Y-99240897D01*
X95736724Y-99621293D01*
X95647471Y-100070000D01*
X95435877Y-100070000D01*
X95435877Y-99220000D01*
X95412593Y-99102946D01*
X95346288Y-99003712D01*
X95247054Y-98937407D01*
X95130000Y-98914123D01*
X93430000Y-98914123D01*
X93312946Y-98937407D01*
X93213712Y-99003712D01*
X93147407Y-99102946D01*
X93124123Y-99220000D01*
X92369190Y-99220000D01*
X92369813Y-96400400D01*
X93104923Y-96400400D01*
X93104923Y-98100400D01*
X93128207Y-98217454D01*
X93194512Y-98316688D01*
X93293746Y-98382993D01*
X93410800Y-98406277D01*
X95110800Y-98406277D01*
X95227854Y-98382993D01*
X95327088Y-98316688D01*
X95393393Y-98217454D01*
X95416677Y-98100400D01*
X95416677Y-97250400D01*
X95628271Y-97250400D01*
X95717524Y-97699107D01*
X95971697Y-98079503D01*
X96352093Y-98333676D01*
X96687539Y-98400400D01*
X96914061Y-98400400D01*
X97249507Y-98333676D01*
X97629903Y-98079503D01*
X97884076Y-97699107D01*
X97973329Y-97250400D01*
X97884076Y-96801693D01*
X97629903Y-96421297D01*
X97249507Y-96167124D01*
X96914061Y-96100400D01*
X96687539Y-96100400D01*
X96352093Y-96167124D01*
X95971697Y-96421297D01*
X95717524Y-96801693D01*
X95628271Y-97250400D01*
X95416677Y-97250400D01*
X95416677Y-96400400D01*
X95393393Y-96283346D01*
X95327088Y-96184112D01*
X95227854Y-96117807D01*
X95110800Y-96094523D01*
X93410800Y-96094523D01*
X93293746Y-96117807D01*
X93194512Y-96184112D01*
X93128207Y-96283346D01*
X93104923Y-96400400D01*
X92369813Y-96400400D01*
X92370740Y-92204000D01*
X93084123Y-92204000D01*
X93084123Y-93904000D01*
X93107407Y-94021054D01*
X93173712Y-94120288D01*
X93272946Y-94186593D01*
X93390000Y-94209877D01*
X95090000Y-94209877D01*
X95207054Y-94186593D01*
X95306288Y-94120288D01*
X95372593Y-94021054D01*
X95395877Y-93904000D01*
X95395877Y-93054000D01*
X95607471Y-93054000D01*
X95696724Y-93502707D01*
X95950897Y-93883103D01*
X96331293Y-94137276D01*
X96666739Y-94204000D01*
X96893261Y-94204000D01*
X97228707Y-94137276D01*
X97609103Y-93883103D01*
X97863276Y-93502707D01*
X97952529Y-93054000D01*
X97863276Y-92605293D01*
X97609103Y-92224897D01*
X97228707Y-91970724D01*
X96893261Y-91904000D01*
X96666739Y-91904000D01*
X96331293Y-91970724D01*
X95950897Y-92224897D01*
X95696724Y-92605293D01*
X95607471Y-93054000D01*
X95395877Y-93054000D01*
X95395877Y-92204000D01*
X95372593Y-92086946D01*
X95306288Y-91987712D01*
X95207054Y-91921407D01*
X95090000Y-91898123D01*
X93390000Y-91898123D01*
X93272946Y-91921407D01*
X93173712Y-91987712D01*
X93107407Y-92086946D01*
X93084123Y-92204000D01*
X92370740Y-92204000D01*
X92371559Y-88495600D01*
X93084123Y-88495600D01*
X93084123Y-90195600D01*
X93107407Y-90312654D01*
X93173712Y-90411888D01*
X93272946Y-90478193D01*
X93390000Y-90501477D01*
X95090000Y-90501477D01*
X95207054Y-90478193D01*
X95306288Y-90411888D01*
X95372593Y-90312654D01*
X95395877Y-90195600D01*
X95395877Y-89345600D01*
X95607471Y-89345600D01*
X95696724Y-89794307D01*
X95950897Y-90174703D01*
X96331293Y-90428876D01*
X96666739Y-90495600D01*
X96893261Y-90495600D01*
X97228707Y-90428876D01*
X97609103Y-90174703D01*
X97863276Y-89794307D01*
X97952529Y-89345600D01*
X97863276Y-88896893D01*
X97609103Y-88516497D01*
X97228707Y-88262324D01*
X96893261Y-88195600D01*
X96666739Y-88195600D01*
X96331293Y-88262324D01*
X95950897Y-88516497D01*
X95696724Y-88896893D01*
X95607471Y-89345600D01*
X95395877Y-89345600D01*
X95395877Y-88495600D01*
X95372593Y-88378546D01*
X95306288Y-88279312D01*
X95207054Y-88213007D01*
X95090000Y-88189723D01*
X93390000Y-88189723D01*
X93272946Y-88213007D01*
X93173712Y-88279312D01*
X93107407Y-88378546D01*
X93084123Y-88495600D01*
X92371559Y-88495600D01*
X92372181Y-85680000D01*
X92590899Y-85680000D01*
X92666570Y-86060426D01*
X92882064Y-86382936D01*
X93204574Y-86598430D01*
X93488972Y-86655000D01*
X94031028Y-86655000D01*
X94315426Y-86598430D01*
X94637936Y-86382936D01*
X94853430Y-86060426D01*
X94929101Y-85680000D01*
X94867439Y-85370000D01*
X95693348Y-85370000D01*
X95759318Y-85701653D01*
X95947184Y-85982816D01*
X96228347Y-86170682D01*
X96476285Y-86220000D01*
X97043715Y-86220000D01*
X97291653Y-86170682D01*
X97572816Y-85982816D01*
X97760682Y-85701653D01*
X97826652Y-85370000D01*
X97760682Y-85038347D01*
X97572816Y-84757184D01*
X97291653Y-84569318D01*
X97043715Y-84520000D01*
X96476285Y-84520000D01*
X96228347Y-84569318D01*
X95947184Y-84757184D01*
X95759318Y-85038347D01*
X95693348Y-85370000D01*
X94867439Y-85370000D01*
X94853430Y-85299574D01*
X94637936Y-84977064D01*
X94315426Y-84761570D01*
X94031028Y-84705000D01*
X93488972Y-84705000D01*
X93204574Y-84761570D01*
X92882064Y-84977064D01*
X92666570Y-85299574D01*
X92590899Y-85680000D01*
X92372181Y-85680000D01*
X92373387Y-80220000D01*
X92590899Y-80220000D01*
X92666570Y-80600426D01*
X92882064Y-80922936D01*
X93204574Y-81138430D01*
X93488972Y-81195000D01*
X94031028Y-81195000D01*
X94315426Y-81138430D01*
X94637936Y-80922936D01*
X94853430Y-80600426D01*
X94867438Y-80530000D01*
X95693348Y-80530000D01*
X95759318Y-80861653D01*
X95947184Y-81142816D01*
X96228347Y-81330682D01*
X96476285Y-81380000D01*
X97043715Y-81380000D01*
X97291653Y-81330682D01*
X97572816Y-81142816D01*
X97760682Y-80861653D01*
X97826652Y-80530000D01*
X97760682Y-80198347D01*
X97572816Y-79917184D01*
X97291653Y-79729318D01*
X97043715Y-79680000D01*
X96476285Y-79680000D01*
X96228347Y-79729318D01*
X95947184Y-79917184D01*
X95759318Y-80198347D01*
X95693348Y-80530000D01*
X94867438Y-80530000D01*
X94929101Y-80220000D01*
X94853430Y-79839574D01*
X94637936Y-79517064D01*
X94315426Y-79301570D01*
X94031028Y-79245000D01*
X93488972Y-79245000D01*
X93204574Y-79301570D01*
X92882064Y-79517064D01*
X92666570Y-79839574D01*
X92590899Y-80220000D01*
X92373387Y-80220000D01*
X92374699Y-74280761D01*
X93050000Y-74280761D01*
X93050000Y-74559239D01*
X93156568Y-74816518D01*
X93353482Y-75013432D01*
X93610761Y-75120000D01*
X93889239Y-75120000D01*
X94146518Y-75013432D01*
X94343432Y-74816518D01*
X94350274Y-74800000D01*
X94552600Y-74800000D01*
X98170000Y-78417401D01*
X98170001Y-86752376D01*
X98162557Y-86789800D01*
X98192049Y-86938068D01*
X98254837Y-87032037D01*
X98254839Y-87032039D01*
X98276037Y-87063764D01*
X98307762Y-87084962D01*
X99300000Y-88077202D01*
X99300001Y-90750076D01*
X99292557Y-90787500D01*
X99322049Y-90935768D01*
X99384837Y-91029737D01*
X99384839Y-91029739D01*
X99406037Y-91061464D01*
X99437762Y-91082662D01*
X100486842Y-92131743D01*
X100480000Y-92148261D01*
X100480000Y-92426739D01*
X100586568Y-92684018D01*
X100783482Y-92880932D01*
X101040761Y-92987500D01*
X101319239Y-92987500D01*
X101576518Y-92880932D01*
X101773432Y-92684018D01*
X101880000Y-92426739D01*
X101880000Y-92148261D01*
X101773432Y-91890982D01*
X101576518Y-91694068D01*
X101319239Y-91587500D01*
X101040761Y-91587500D01*
X101024243Y-91594342D01*
X100603662Y-91173761D01*
X103262200Y-91173761D01*
X103262200Y-91452239D01*
X103368768Y-91709518D01*
X103565682Y-91906432D01*
X103822961Y-92013000D01*
X104101439Y-92013000D01*
X104358718Y-91906432D01*
X104555632Y-91709518D01*
X104662200Y-91452239D01*
X104662200Y-91173761D01*
X104555632Y-90916482D01*
X104387200Y-90748050D01*
X104387200Y-86668002D01*
X104446518Y-86643432D01*
X104643432Y-86446518D01*
X104750000Y-86189239D01*
X104750000Y-85936041D01*
X105134881Y-86320922D01*
X105158592Y-86356408D01*
X105299173Y-86450341D01*
X105375592Y-86465542D01*
X105553482Y-86643432D01*
X105810761Y-86750000D01*
X106089239Y-86750000D01*
X106346518Y-86643432D01*
X106543432Y-86446518D01*
X106570001Y-86382375D01*
X106570000Y-114532999D01*
X106272555Y-114830444D01*
X106214307Y-114791524D01*
X105878861Y-114724800D01*
X105652339Y-114724800D01*
X105316893Y-114791524D01*
X104936497Y-115045697D01*
X104682324Y-115426093D01*
X104593071Y-115874800D01*
X104682324Y-116323507D01*
X104936497Y-116703903D01*
X105316893Y-116958076D01*
X105652339Y-117024800D01*
X105878861Y-117024800D01*
X106214307Y-116958076D01*
X106594703Y-116703903D01*
X106848876Y-116323507D01*
X106938129Y-115874800D01*
X106848876Y-115426093D01*
X106809956Y-115367845D01*
X107031472Y-115146329D01*
X107036047Y-115153175D01*
X107067775Y-115174375D01*
X107261244Y-115367845D01*
X107222324Y-115426093D01*
X107133071Y-115874800D01*
X107222324Y-116323507D01*
X107476497Y-116703903D01*
X107856893Y-116958076D01*
X108192339Y-117024800D01*
X108418861Y-117024800D01*
X108754307Y-116958076D01*
X109134703Y-116703903D01*
X109388876Y-116323507D01*
X109478129Y-115874800D01*
X109388876Y-115426093D01*
X109134703Y-115045697D01*
X108754307Y-114791524D01*
X108418861Y-114724800D01*
X108192339Y-114724800D01*
X107856893Y-114791524D01*
X107798645Y-114830444D01*
X107690011Y-114721811D01*
X107690011Y-113256611D01*
X109801244Y-115367845D01*
X109762324Y-115426093D01*
X109673071Y-115874800D01*
X109762324Y-116323507D01*
X110016497Y-116703903D01*
X110396893Y-116958076D01*
X110732339Y-117024800D01*
X110958861Y-117024800D01*
X111294307Y-116958076D01*
X111674703Y-116703903D01*
X111928876Y-116323507D01*
X112018129Y-115874800D01*
X111928876Y-115426093D01*
X111674703Y-115045697D01*
X111294307Y-114791524D01*
X110958861Y-114724800D01*
X110732339Y-114724800D01*
X110396893Y-114791524D01*
X110338645Y-114830444D01*
X108050022Y-112541822D01*
X108050022Y-111076622D01*
X112341244Y-115367845D01*
X112302324Y-115426093D01*
X112213071Y-115874800D01*
X112302324Y-116323507D01*
X112556497Y-116703903D01*
X112936893Y-116958076D01*
X113272339Y-117024800D01*
X113498861Y-117024800D01*
X113834307Y-116958076D01*
X114214703Y-116703903D01*
X114468876Y-116323507D01*
X114558129Y-115874800D01*
X114753071Y-115874800D01*
X114842324Y-116323507D01*
X115096497Y-116703903D01*
X115476893Y-116958076D01*
X115812339Y-117024800D01*
X116038861Y-117024800D01*
X116374307Y-116958076D01*
X116754703Y-116703903D01*
X117008876Y-116323507D01*
X117098129Y-115874800D01*
X117293071Y-115874800D01*
X117382324Y-116323507D01*
X117636497Y-116703903D01*
X118016893Y-116958076D01*
X118352339Y-117024800D01*
X118578861Y-117024800D01*
X118914307Y-116958076D01*
X119294703Y-116703903D01*
X119548876Y-116323507D01*
X119638129Y-115874800D01*
X119833071Y-115874800D01*
X119922324Y-116323507D01*
X120176497Y-116703903D01*
X120556893Y-116958076D01*
X120892339Y-117024800D01*
X121118861Y-117024800D01*
X121454307Y-116958076D01*
X121834703Y-116703903D01*
X122088876Y-116323507D01*
X122178129Y-115874800D01*
X122373071Y-115874800D01*
X122462324Y-116323507D01*
X122716497Y-116703903D01*
X123096893Y-116958076D01*
X123432339Y-117024800D01*
X123658861Y-117024800D01*
X123994307Y-116958076D01*
X124374703Y-116703903D01*
X124628876Y-116323507D01*
X124718129Y-115874800D01*
X124913071Y-115874800D01*
X125002324Y-116323507D01*
X125256497Y-116703903D01*
X125636893Y-116958076D01*
X125972339Y-117024800D01*
X126198861Y-117024800D01*
X126534307Y-116958076D01*
X126914703Y-116703903D01*
X127168876Y-116323507D01*
X127258129Y-115874800D01*
X127453071Y-115874800D01*
X127542324Y-116323507D01*
X127796497Y-116703903D01*
X128176893Y-116958076D01*
X128512339Y-117024800D01*
X128738861Y-117024800D01*
X129074307Y-116958076D01*
X129454703Y-116703903D01*
X129708876Y-116323507D01*
X129798129Y-115874800D01*
X129993071Y-115874800D01*
X130082324Y-116323507D01*
X130336497Y-116703903D01*
X130716893Y-116958076D01*
X131052339Y-117024800D01*
X131278861Y-117024800D01*
X131614307Y-116958076D01*
X131994703Y-116703903D01*
X132248876Y-116323507D01*
X132338129Y-115874800D01*
X132533071Y-115874800D01*
X132622324Y-116323507D01*
X132876497Y-116703903D01*
X133256893Y-116958076D01*
X133592339Y-117024800D01*
X133818861Y-117024800D01*
X134154307Y-116958076D01*
X134534703Y-116703903D01*
X134788876Y-116323507D01*
X134878129Y-115874800D01*
X135073071Y-115874800D01*
X135162324Y-116323507D01*
X135416497Y-116703903D01*
X135796893Y-116958076D01*
X136132339Y-117024800D01*
X136358861Y-117024800D01*
X136694307Y-116958076D01*
X137074703Y-116703903D01*
X137328876Y-116323507D01*
X137418129Y-115874800D01*
X137613071Y-115874800D01*
X137702324Y-116323507D01*
X137956497Y-116703903D01*
X138336893Y-116958076D01*
X138672339Y-117024800D01*
X138898861Y-117024800D01*
X139234307Y-116958076D01*
X139614703Y-116703903D01*
X139868876Y-116323507D01*
X139958129Y-115874800D01*
X140153071Y-115874800D01*
X140242324Y-116323507D01*
X140496497Y-116703903D01*
X140876893Y-116958076D01*
X141212339Y-117024800D01*
X141438861Y-117024800D01*
X141774307Y-116958076D01*
X142154703Y-116703903D01*
X142408876Y-116323507D01*
X142498129Y-115874800D01*
X142693071Y-115874800D01*
X142782324Y-116323507D01*
X143036497Y-116703903D01*
X143416893Y-116958076D01*
X143752339Y-117024800D01*
X143978861Y-117024800D01*
X144314307Y-116958076D01*
X144694703Y-116703903D01*
X144948876Y-116323507D01*
X145038129Y-115874800D01*
X145233071Y-115874800D01*
X145322324Y-116323507D01*
X145576497Y-116703903D01*
X145956893Y-116958076D01*
X146292339Y-117024800D01*
X146518861Y-117024800D01*
X146854307Y-116958076D01*
X147234703Y-116703903D01*
X147488876Y-116323507D01*
X147578129Y-115874800D01*
X147488876Y-115426093D01*
X147234703Y-115045697D01*
X147203429Y-115024800D01*
X147789723Y-115024800D01*
X147789723Y-116724800D01*
X147813007Y-116841854D01*
X147879312Y-116941088D01*
X147978546Y-117007393D01*
X148095600Y-117030677D01*
X149795600Y-117030677D01*
X149912654Y-117007393D01*
X150011888Y-116941088D01*
X150078193Y-116841854D01*
X150101477Y-116724800D01*
X150101477Y-115824000D01*
X156116971Y-115824000D01*
X156206224Y-116272707D01*
X156460397Y-116653103D01*
X156840793Y-116907276D01*
X157176239Y-116974000D01*
X157402761Y-116974000D01*
X157738207Y-116907276D01*
X158118603Y-116653103D01*
X158372776Y-116272707D01*
X158462029Y-115824000D01*
X158372776Y-115375293D01*
X158118603Y-114994897D01*
X157738207Y-114740724D01*
X157402761Y-114674000D01*
X157176239Y-114674000D01*
X156840793Y-114740724D01*
X156460397Y-114994897D01*
X156206224Y-115375293D01*
X156116971Y-115824000D01*
X150101477Y-115824000D01*
X150101477Y-115024800D01*
X150078193Y-114907746D01*
X150011888Y-114808512D01*
X149912654Y-114742207D01*
X149795600Y-114718923D01*
X148095600Y-114718923D01*
X147978546Y-114742207D01*
X147879312Y-114808512D01*
X147813007Y-114907746D01*
X147789723Y-115024800D01*
X147203429Y-115024800D01*
X146854307Y-114791524D01*
X146518861Y-114724800D01*
X146292339Y-114724800D01*
X145956893Y-114791524D01*
X145576497Y-115045697D01*
X145322324Y-115426093D01*
X145233071Y-115874800D01*
X145038129Y-115874800D01*
X144948876Y-115426093D01*
X144694703Y-115045697D01*
X144314307Y-114791524D01*
X143978861Y-114724800D01*
X143752339Y-114724800D01*
X143416893Y-114791524D01*
X143036497Y-115045697D01*
X142782324Y-115426093D01*
X142693071Y-115874800D01*
X142498129Y-115874800D01*
X142408876Y-115426093D01*
X142154703Y-115045697D01*
X141774307Y-114791524D01*
X141438861Y-114724800D01*
X141212339Y-114724800D01*
X140876893Y-114791524D01*
X140496497Y-115045697D01*
X140242324Y-115426093D01*
X140153071Y-115874800D01*
X139958129Y-115874800D01*
X139868876Y-115426093D01*
X139614703Y-115045697D01*
X139234307Y-114791524D01*
X138898861Y-114724800D01*
X138672339Y-114724800D01*
X138336893Y-114791524D01*
X137956497Y-115045697D01*
X137702324Y-115426093D01*
X137613071Y-115874800D01*
X137418129Y-115874800D01*
X137328876Y-115426093D01*
X137074703Y-115045697D01*
X136694307Y-114791524D01*
X136358861Y-114724800D01*
X136132339Y-114724800D01*
X135796893Y-114791524D01*
X135416497Y-115045697D01*
X135162324Y-115426093D01*
X135073071Y-115874800D01*
X134878129Y-115874800D01*
X134788876Y-115426093D01*
X134534703Y-115045697D01*
X134154307Y-114791524D01*
X133818861Y-114724800D01*
X133592339Y-114724800D01*
X133256893Y-114791524D01*
X132876497Y-115045697D01*
X132622324Y-115426093D01*
X132533071Y-115874800D01*
X132338129Y-115874800D01*
X132248876Y-115426093D01*
X131994703Y-115045697D01*
X131614307Y-114791524D01*
X131278861Y-114724800D01*
X131052339Y-114724800D01*
X130716893Y-114791524D01*
X130336497Y-115045697D01*
X130082324Y-115426093D01*
X129993071Y-115874800D01*
X129798129Y-115874800D01*
X129708876Y-115426093D01*
X129454703Y-115045697D01*
X129074307Y-114791524D01*
X128738861Y-114724800D01*
X128512339Y-114724800D01*
X128176893Y-114791524D01*
X127796497Y-115045697D01*
X127542324Y-115426093D01*
X127453071Y-115874800D01*
X127258129Y-115874800D01*
X127168876Y-115426093D01*
X126914703Y-115045697D01*
X126534307Y-114791524D01*
X126198861Y-114724800D01*
X125972339Y-114724800D01*
X125636893Y-114791524D01*
X125256497Y-115045697D01*
X125002324Y-115426093D01*
X124913071Y-115874800D01*
X124718129Y-115874800D01*
X124628876Y-115426093D01*
X124374703Y-115045697D01*
X123994307Y-114791524D01*
X123658861Y-114724800D01*
X123432339Y-114724800D01*
X123096893Y-114791524D01*
X122716497Y-115045697D01*
X122462324Y-115426093D01*
X122373071Y-115874800D01*
X122178129Y-115874800D01*
X122088876Y-115426093D01*
X121834703Y-115045697D01*
X121454307Y-114791524D01*
X121118861Y-114724800D01*
X120892339Y-114724800D01*
X120556893Y-114791524D01*
X120176497Y-115045697D01*
X119922324Y-115426093D01*
X119833071Y-115874800D01*
X119638129Y-115874800D01*
X119548876Y-115426093D01*
X119294703Y-115045697D01*
X118914307Y-114791524D01*
X118578861Y-114724800D01*
X118352339Y-114724800D01*
X118016893Y-114791524D01*
X117636497Y-115045697D01*
X117382324Y-115426093D01*
X117293071Y-115874800D01*
X117098129Y-115874800D01*
X117008876Y-115426093D01*
X116754703Y-115045697D01*
X116374307Y-114791524D01*
X116038861Y-114724800D01*
X115812339Y-114724800D01*
X115476893Y-114791524D01*
X115096497Y-115045697D01*
X114842324Y-115426093D01*
X114753071Y-115874800D01*
X114558129Y-115874800D01*
X114468876Y-115426093D01*
X114214703Y-115045697D01*
X113834307Y-114791524D01*
X113498861Y-114724800D01*
X113272339Y-114724800D01*
X112936893Y-114791524D01*
X112878645Y-114830444D01*
X111332201Y-113284000D01*
X156116971Y-113284000D01*
X156206224Y-113732707D01*
X156460397Y-114113103D01*
X156840793Y-114367276D01*
X157176239Y-114434000D01*
X157402761Y-114434000D01*
X157738207Y-114367276D01*
X158118603Y-114113103D01*
X158372776Y-113732707D01*
X158462029Y-113284000D01*
X158372776Y-112835293D01*
X158118603Y-112454897D01*
X157738207Y-112200724D01*
X157402761Y-112134000D01*
X157176239Y-112134000D01*
X156840793Y-112200724D01*
X156460397Y-112454897D01*
X156206224Y-112835293D01*
X156116971Y-113284000D01*
X111332201Y-113284000D01*
X108792201Y-110744000D01*
X156116971Y-110744000D01*
X156206224Y-111192707D01*
X156460397Y-111573103D01*
X156840793Y-111827276D01*
X157176239Y-111894000D01*
X157402761Y-111894000D01*
X157738207Y-111827276D01*
X158118603Y-111573103D01*
X158372776Y-111192707D01*
X158462029Y-110744000D01*
X158372776Y-110295293D01*
X158118603Y-109914897D01*
X157738207Y-109660724D01*
X157402761Y-109594000D01*
X157176239Y-109594000D01*
X156840793Y-109660724D01*
X156460397Y-109914897D01*
X156206224Y-110295293D01*
X156116971Y-110744000D01*
X108792201Y-110744000D01*
X108410033Y-110361833D01*
X108410033Y-108204000D01*
X156116971Y-108204000D01*
X156206224Y-108652707D01*
X156460397Y-109033103D01*
X156840793Y-109287276D01*
X157176239Y-109354000D01*
X157402761Y-109354000D01*
X157738207Y-109287276D01*
X158118603Y-109033103D01*
X158372776Y-108652707D01*
X158462029Y-108204000D01*
X158372776Y-107755293D01*
X158118603Y-107374897D01*
X157738207Y-107120724D01*
X157402761Y-107054000D01*
X157176239Y-107054000D01*
X156840793Y-107120724D01*
X156460397Y-107374897D01*
X156206224Y-107755293D01*
X156116971Y-108204000D01*
X108410033Y-108204000D01*
X108410033Y-107613407D01*
X108570804Y-107680000D01*
X108849282Y-107680000D01*
X109106561Y-107573432D01*
X109303475Y-107376518D01*
X109310317Y-107360000D01*
X148316081Y-107360000D01*
X148353500Y-107367443D01*
X148390919Y-107360000D01*
X148390924Y-107360000D01*
X148501768Y-107337952D01*
X148627464Y-107253964D01*
X148648664Y-107222236D01*
X150206900Y-105664000D01*
X156116971Y-105664000D01*
X156206224Y-106112707D01*
X156460397Y-106493103D01*
X156840793Y-106747276D01*
X157176239Y-106814000D01*
X157402761Y-106814000D01*
X157738207Y-106747276D01*
X158118603Y-106493103D01*
X158372776Y-106112707D01*
X158462029Y-105664000D01*
X158372776Y-105215293D01*
X158118603Y-104834897D01*
X157738207Y-104580724D01*
X157402761Y-104514000D01*
X157176239Y-104514000D01*
X156840793Y-104580724D01*
X156460397Y-104834897D01*
X156206224Y-105215293D01*
X156116971Y-105664000D01*
X150206900Y-105664000D01*
X152746900Y-103124000D01*
X156116971Y-103124000D01*
X156206224Y-103572707D01*
X156460397Y-103953103D01*
X156840793Y-104207276D01*
X157176239Y-104274000D01*
X157402761Y-104274000D01*
X157738207Y-104207276D01*
X158118603Y-103953103D01*
X158372776Y-103572707D01*
X158462029Y-103124000D01*
X158372776Y-102675293D01*
X158118603Y-102294897D01*
X157738207Y-102040724D01*
X157402761Y-101974000D01*
X157176239Y-101974000D01*
X156840793Y-102040724D01*
X156460397Y-102294897D01*
X156206224Y-102675293D01*
X156116971Y-103124000D01*
X152746900Y-103124000D01*
X155286901Y-100584000D01*
X156116971Y-100584000D01*
X156206224Y-101032707D01*
X156460397Y-101413103D01*
X156840793Y-101667276D01*
X157176239Y-101734000D01*
X157402761Y-101734000D01*
X157738207Y-101667276D01*
X158118603Y-101413103D01*
X158372776Y-101032707D01*
X158462029Y-100584000D01*
X158372776Y-100135293D01*
X158118603Y-99754897D01*
X157738207Y-99500724D01*
X157402761Y-99434000D01*
X157176239Y-99434000D01*
X156840793Y-99500724D01*
X156460397Y-99754897D01*
X156206224Y-100135293D01*
X156116971Y-100584000D01*
X155286901Y-100584000D01*
X156782546Y-99088356D01*
X156840793Y-99127276D01*
X157176239Y-99194000D01*
X157402761Y-99194000D01*
X157738207Y-99127276D01*
X158118603Y-98873103D01*
X158372776Y-98492707D01*
X158462029Y-98044000D01*
X158372776Y-97595293D01*
X158118603Y-97214897D01*
X157738207Y-96960724D01*
X157402761Y-96894000D01*
X157176239Y-96894000D01*
X156840793Y-96960724D01*
X156460397Y-97214897D01*
X156206224Y-97595293D01*
X156116971Y-98044000D01*
X156206224Y-98492707D01*
X156245144Y-98550954D01*
X148196100Y-106600000D01*
X109310317Y-106600000D01*
X109303475Y-106583482D01*
X109129993Y-106410000D01*
X109303475Y-106236518D01*
X109310317Y-106220000D01*
X146916081Y-106220000D01*
X146953500Y-106227443D01*
X146990919Y-106220000D01*
X146990924Y-106220000D01*
X147101768Y-106197952D01*
X147227464Y-106113964D01*
X147248664Y-106082236D01*
X156782546Y-96548356D01*
X156840793Y-96587276D01*
X157176239Y-96654000D01*
X157402761Y-96654000D01*
X157738207Y-96587276D01*
X158118603Y-96333103D01*
X158372776Y-95952707D01*
X158462029Y-95504000D01*
X158372776Y-95055293D01*
X158118603Y-94674897D01*
X157738207Y-94420724D01*
X157402761Y-94354000D01*
X157176239Y-94354000D01*
X156840793Y-94420724D01*
X156460397Y-94674897D01*
X156206224Y-95055293D01*
X156116971Y-95504000D01*
X156206224Y-95952707D01*
X156245144Y-96010954D01*
X146796100Y-105460000D01*
X109310317Y-105460000D01*
X109303475Y-105443482D01*
X109106561Y-105246568D01*
X108924565Y-105171183D01*
X141096605Y-105171183D01*
X141153771Y-105288543D01*
X141462755Y-105364821D01*
X141777408Y-105317050D01*
X141846229Y-105288543D01*
X141903395Y-105171183D01*
X141500000Y-104767789D01*
X141096605Y-105171183D01*
X108924565Y-105171183D01*
X108849282Y-105140000D01*
X108570804Y-105140000D01*
X108410033Y-105206593D01*
X108410033Y-104512755D01*
X140685179Y-104512755D01*
X140732950Y-104827408D01*
X140761457Y-104896229D01*
X140878817Y-104953395D01*
X141282211Y-104550000D01*
X141717789Y-104550000D01*
X142121183Y-104953395D01*
X142238543Y-104896229D01*
X142314821Y-104587245D01*
X142285008Y-104390870D01*
X142600000Y-104390870D01*
X142600000Y-104709130D01*
X142721793Y-105003164D01*
X142946836Y-105228207D01*
X143240870Y-105350000D01*
X143559130Y-105350000D01*
X143853164Y-105228207D01*
X144078207Y-105003164D01*
X144200000Y-104709130D01*
X144200000Y-104390870D01*
X144078207Y-104096836D01*
X143853164Y-103871793D01*
X143559130Y-103750000D01*
X143240870Y-103750000D01*
X142946836Y-103871793D01*
X142721793Y-104096836D01*
X142600000Y-104390870D01*
X142285008Y-104390870D01*
X142267050Y-104272592D01*
X142238543Y-104203771D01*
X142121183Y-104146605D01*
X141717789Y-104550000D01*
X141282211Y-104550000D01*
X140878817Y-104146605D01*
X140761457Y-104203771D01*
X140685179Y-104512755D01*
X108410033Y-104512755D01*
X108410033Y-103928817D01*
X141096605Y-103928817D01*
X141500000Y-104332211D01*
X141903395Y-103928817D01*
X141846229Y-103811457D01*
X141537245Y-103735179D01*
X141222592Y-103782950D01*
X141153771Y-103811457D01*
X141096605Y-103928817D01*
X108410033Y-103928817D01*
X108410033Y-101763184D01*
X108520897Y-101929103D01*
X108901293Y-102183276D01*
X109236739Y-102250000D01*
X109463261Y-102250000D01*
X109798707Y-102183276D01*
X110179103Y-101929103D01*
X110433276Y-101548707D01*
X110522529Y-101100000D01*
X110433276Y-100651293D01*
X110394356Y-100593045D01*
X110722240Y-100265161D01*
X110753965Y-100243963D01*
X110837953Y-100118267D01*
X110860001Y-100007423D01*
X110860001Y-100007418D01*
X110867444Y-99969999D01*
X110860001Y-99932580D01*
X110860001Y-99403899D01*
X110902946Y-99432593D01*
X111020000Y-99455877D01*
X112720000Y-99455877D01*
X112837054Y-99432593D01*
X112936288Y-99366288D01*
X113002593Y-99267054D01*
X113025877Y-99150000D01*
X113025877Y-98630386D01*
X113308465Y-98630386D01*
X113518748Y-99026776D01*
X113864716Y-99312521D01*
X114079617Y-99401520D01*
X114256000Y-99363912D01*
X114256000Y-98454000D01*
X113345343Y-98454000D01*
X113308465Y-98630386D01*
X113025877Y-98630386D01*
X113025877Y-97550000D01*
X113546867Y-97550000D01*
X113518748Y-97573224D01*
X113308465Y-97969614D01*
X113345343Y-98146000D01*
X114256000Y-98146000D01*
X114256000Y-98126000D01*
X114564000Y-98126000D01*
X114564000Y-98146000D01*
X114584000Y-98146000D01*
X114584000Y-98454000D01*
X114564000Y-98454000D01*
X114564000Y-99363912D01*
X114675017Y-99387583D01*
X114472601Y-99589999D01*
X113057420Y-99589999D01*
X113020001Y-99582556D01*
X112982582Y-99589999D01*
X112982577Y-99589999D01*
X112871733Y-99612047D01*
X112746037Y-99696035D01*
X112724839Y-99727761D01*
X112396955Y-100055644D01*
X112338707Y-100016724D01*
X112003261Y-99950000D01*
X111776739Y-99950000D01*
X111441293Y-100016724D01*
X111060897Y-100270897D01*
X110806724Y-100651293D01*
X110717471Y-101100000D01*
X110806724Y-101548707D01*
X111060897Y-101929103D01*
X111441293Y-102183276D01*
X111776739Y-102250000D01*
X112003261Y-102250000D01*
X112338707Y-102183276D01*
X112719103Y-101929103D01*
X112973276Y-101548707D01*
X113062529Y-101100000D01*
X112973276Y-100651293D01*
X112934356Y-100593045D01*
X113177402Y-100349999D01*
X113548043Y-100349999D01*
X113346724Y-100651293D01*
X113257471Y-101100000D01*
X113346724Y-101548707D01*
X113600897Y-101929103D01*
X113981293Y-102183276D01*
X114316739Y-102250000D01*
X114543261Y-102250000D01*
X114878707Y-102183276D01*
X115259103Y-101929103D01*
X115513276Y-101548707D01*
X115602529Y-101100000D01*
X115513276Y-100651293D01*
X115474356Y-100593045D01*
X115717402Y-100349999D01*
X116088043Y-100349999D01*
X115886724Y-100651293D01*
X115797471Y-101100000D01*
X115886724Y-101548707D01*
X116140897Y-101929103D01*
X116521293Y-102183276D01*
X116856739Y-102250000D01*
X117083261Y-102250000D01*
X117418707Y-102183276D01*
X117799103Y-101929103D01*
X118053276Y-101548707D01*
X118142529Y-101100000D01*
X118053276Y-100651293D01*
X118014356Y-100593045D01*
X118257402Y-100349999D01*
X118628043Y-100349999D01*
X118426724Y-100651293D01*
X118337471Y-101100000D01*
X118426724Y-101548707D01*
X118680897Y-101929103D01*
X119061293Y-102183276D01*
X119396739Y-102250000D01*
X119623261Y-102250000D01*
X119958707Y-102183276D01*
X120339103Y-101929103D01*
X120593276Y-101548707D01*
X120682529Y-101100000D01*
X120593276Y-100651293D01*
X120554356Y-100593045D01*
X120797402Y-100349999D01*
X121168043Y-100349999D01*
X120966724Y-100651293D01*
X120877471Y-101100000D01*
X120966724Y-101548707D01*
X121220897Y-101929103D01*
X121601293Y-102183276D01*
X121936739Y-102250000D01*
X122163261Y-102250000D01*
X122498707Y-102183276D01*
X122879103Y-101929103D01*
X123133276Y-101548707D01*
X123222529Y-101100000D01*
X123133276Y-100651293D01*
X123094356Y-100593045D01*
X123597401Y-100090000D01*
X124031628Y-100090000D01*
X123760897Y-100270897D01*
X123506724Y-100651293D01*
X123417471Y-101100000D01*
X123506724Y-101548707D01*
X123553806Y-101619170D01*
X123532049Y-101651732D01*
X123502557Y-101800000D01*
X123532049Y-101948268D01*
X123616036Y-102073964D01*
X123741732Y-102157951D01*
X123890000Y-102187443D01*
X124038268Y-102157951D01*
X124070830Y-102136194D01*
X124141293Y-102183276D01*
X124476739Y-102250000D01*
X124703261Y-102250000D01*
X125038707Y-102183276D01*
X125419103Y-101929103D01*
X125673276Y-101548707D01*
X125762529Y-101100000D01*
X125673276Y-100651293D01*
X125634356Y-100593045D01*
X126237412Y-99989989D01*
X126815700Y-99989989D01*
X126681293Y-100016724D01*
X126300897Y-100270897D01*
X126046724Y-100651293D01*
X125957471Y-101100000D01*
X126046724Y-101548707D01*
X126300897Y-101929103D01*
X126681293Y-102183276D01*
X127016739Y-102250000D01*
X127243261Y-102250000D01*
X127578707Y-102183276D01*
X127959103Y-101929103D01*
X128213276Y-101548707D01*
X128302529Y-101100000D01*
X128213276Y-100651293D01*
X128174356Y-100593045D01*
X128417402Y-100350000D01*
X128788042Y-100350000D01*
X128586724Y-100651293D01*
X128497471Y-101100000D01*
X128586724Y-101548707D01*
X128840897Y-101929103D01*
X129221293Y-102183276D01*
X129556739Y-102250000D01*
X129783261Y-102250000D01*
X130118707Y-102183276D01*
X130499103Y-101929103D01*
X130753276Y-101548707D01*
X130842529Y-101100000D01*
X130816792Y-100970609D01*
X131124394Y-100663007D01*
X131037471Y-101100000D01*
X131126724Y-101548707D01*
X131380897Y-101929103D01*
X131761293Y-102183276D01*
X132096739Y-102250000D01*
X132323261Y-102250000D01*
X132658707Y-102183276D01*
X133039103Y-101929103D01*
X133293276Y-101548707D01*
X133313607Y-101446495D01*
X133422157Y-101373964D01*
X133443357Y-101342236D01*
X133595410Y-101190184D01*
X133666724Y-101548707D01*
X133920897Y-101929103D01*
X134301293Y-102183276D01*
X134636739Y-102250000D01*
X134863261Y-102250000D01*
X135198707Y-102183276D01*
X135579103Y-101929103D01*
X135833276Y-101548707D01*
X135922529Y-101100000D01*
X135833276Y-100651293D01*
X135794356Y-100593045D01*
X136134123Y-100253278D01*
X136134123Y-101950000D01*
X136157407Y-102067054D01*
X136223712Y-102166288D01*
X136322946Y-102232593D01*
X136440000Y-102255877D01*
X138140000Y-102255877D01*
X138257054Y-102232593D01*
X138356288Y-102166288D01*
X138422593Y-102067054D01*
X138445877Y-101950000D01*
X138445877Y-100250000D01*
X138422593Y-100132946D01*
X138356288Y-100033712D01*
X138257054Y-99967407D01*
X138140000Y-99944123D01*
X137973278Y-99944123D01*
X138602273Y-99315129D01*
X138633995Y-99293933D01*
X138655191Y-99262211D01*
X138655194Y-99262208D01*
X138717982Y-99168239D01*
X138717982Y-99168238D01*
X138717983Y-99168237D01*
X138740031Y-99057393D01*
X138740031Y-99057389D01*
X138747474Y-99019970D01*
X138740031Y-98982551D01*
X138740031Y-93882174D01*
X138747474Y-93844755D01*
X138740031Y-93807336D01*
X138740031Y-93807331D01*
X138717983Y-93696487D01*
X138657008Y-93605232D01*
X138655194Y-93602517D01*
X138655193Y-93602516D01*
X138633995Y-93570791D01*
X138602269Y-93549593D01*
X137742802Y-92690126D01*
X137742800Y-92690123D01*
X137740796Y-92688119D01*
X137747638Y-92671601D01*
X137747638Y-92393123D01*
X137641070Y-92135844D01*
X137444156Y-91938930D01*
X137300517Y-91879433D01*
X137483432Y-91696518D01*
X137590000Y-91439239D01*
X137590000Y-91160761D01*
X137483432Y-90903482D01*
X137286518Y-90706568D01*
X137029239Y-90600000D01*
X136750761Y-90600000D01*
X136629879Y-90650071D01*
X136683432Y-90596518D01*
X136790000Y-90339239D01*
X136790000Y-90060761D01*
X136683432Y-89803482D01*
X136486518Y-89606568D01*
X136229239Y-89500000D01*
X135950761Y-89500000D01*
X135930000Y-89508599D01*
X135930000Y-89430761D01*
X135823432Y-89173482D01*
X135626518Y-88976568D01*
X135369239Y-88870000D01*
X135090761Y-88870000D01*
X134833482Y-88976568D01*
X134636568Y-89173482D01*
X134530000Y-89430761D01*
X134530000Y-89709239D01*
X134636568Y-89966518D01*
X134833482Y-90163432D01*
X134850000Y-90170274D01*
X134850000Y-90173108D01*
X134850001Y-90173113D01*
X134850000Y-92727249D01*
X134842557Y-92764668D01*
X134850000Y-92802087D01*
X134850000Y-92802091D01*
X134872048Y-92912935D01*
X134956036Y-93038632D01*
X134987764Y-93059832D01*
X136225495Y-94297564D01*
X136160879Y-94270799D01*
X135882401Y-94270799D01*
X135625122Y-94377367D01*
X135428208Y-94574281D01*
X135321640Y-94831560D01*
X135321640Y-95086784D01*
X135304308Y-95086784D01*
X135047029Y-95193352D01*
X134850115Y-95390266D01*
X134743547Y-95647545D01*
X134743547Y-95833436D01*
X134639075Y-95833436D01*
X134381796Y-95940004D01*
X134184882Y-96136918D01*
X134087794Y-96371309D01*
X134069806Y-96363858D01*
X133791328Y-96363858D01*
X133534049Y-96470426D01*
X133337135Y-96667340D01*
X133317818Y-96713975D01*
X133104681Y-96625691D01*
X132826203Y-96625691D01*
X132568924Y-96732259D01*
X132429639Y-96871544D01*
X132364717Y-96806622D01*
X132107438Y-96700054D01*
X131828960Y-96700054D01*
X131571681Y-96806622D01*
X131374767Y-97003536D01*
X131367925Y-97020054D01*
X130832574Y-97020054D01*
X130795155Y-97012611D01*
X130757736Y-97020054D01*
X130757732Y-97020054D01*
X130724474Y-97026669D01*
X131680910Y-96070234D01*
X131716396Y-96046523D01*
X131810329Y-95905942D01*
X131825667Y-95828831D01*
X131843314Y-95740116D01*
X131834988Y-95698258D01*
X131834988Y-90525000D01*
X133009011Y-90525000D01*
X133050868Y-90533326D01*
X133092725Y-90525000D01*
X133092726Y-90525000D01*
X133216695Y-90500341D01*
X133357276Y-90406408D01*
X133380989Y-90370919D01*
X134131791Y-89620118D01*
X134167276Y-89596408D01*
X134261209Y-89455827D01*
X134285868Y-89331858D01*
X134285868Y-89331857D01*
X134294194Y-89290000D01*
X134285868Y-89248143D01*
X134285868Y-88956908D01*
X137540923Y-85701854D01*
X137576408Y-85678144D01*
X137670341Y-85537563D01*
X137695000Y-85413594D01*
X137695000Y-85413593D01*
X137703326Y-85371736D01*
X137695000Y-85329879D01*
X137695000Y-84152725D01*
X137703326Y-84110867D01*
X137670341Y-83945041D01*
X137600118Y-83839945D01*
X137576408Y-83804460D01*
X137540922Y-83780749D01*
X136439253Y-82679081D01*
X136415540Y-82643592D01*
X136274959Y-82549659D01*
X136150990Y-82525000D01*
X136150989Y-82525000D01*
X136109132Y-82516674D01*
X136067275Y-82525000D01*
X134899950Y-82525000D01*
X134765277Y-82390327D01*
X134768326Y-82375000D01*
X134735341Y-82209173D01*
X134665118Y-82104077D01*
X134641408Y-82068592D01*
X134605922Y-82044881D01*
X130191038Y-77629998D01*
X145856590Y-77629998D01*
X145790000Y-77790761D01*
X145790000Y-78069239D01*
X145896568Y-78326518D01*
X146093482Y-78523432D01*
X146110000Y-78530274D01*
X146110001Y-81342998D01*
X142023164Y-85429836D01*
X141991436Y-85451036D01*
X141907448Y-85576733D01*
X141885400Y-85687577D01*
X141885400Y-85687581D01*
X141877957Y-85725000D01*
X141885400Y-85762419D01*
X141885401Y-88327976D01*
X141877957Y-88365400D01*
X141907449Y-88513668D01*
X141970237Y-88607637D01*
X141970239Y-88607639D01*
X141991437Y-88639364D01*
X142023162Y-88660562D01*
X143994838Y-90632239D01*
X144016036Y-90663964D01*
X144047761Y-90685162D01*
X144047762Y-90685163D01*
X144058068Y-90692049D01*
X144141732Y-90747952D01*
X144252576Y-90770000D01*
X144252581Y-90770000D01*
X144290000Y-90777443D01*
X144327419Y-90770000D01*
X146403057Y-90770000D01*
X146416724Y-90838707D01*
X146670897Y-91219103D01*
X147051293Y-91473276D01*
X147386739Y-91540000D01*
X147613261Y-91540000D01*
X147948707Y-91473276D01*
X148329103Y-91219103D01*
X148583276Y-90838707D01*
X148672529Y-90390000D01*
X148583276Y-89941293D01*
X148329103Y-89560897D01*
X148327761Y-89560000D01*
X154686019Y-89560000D01*
X155792257Y-90666239D01*
X155813455Y-90697964D01*
X155939151Y-90781952D01*
X156049995Y-90804000D01*
X156050000Y-90804000D01*
X156087419Y-90811443D01*
X156124838Y-90804000D01*
X156192557Y-90804000D01*
X156206224Y-90872707D01*
X156460397Y-91253103D01*
X156560515Y-91320000D01*
X152487418Y-91320000D01*
X152449999Y-91312557D01*
X152412580Y-91320000D01*
X152412576Y-91320000D01*
X152301732Y-91342048D01*
X152301731Y-91342049D01*
X152301730Y-91342049D01*
X152207761Y-91404837D01*
X152207758Y-91404840D01*
X152176036Y-91426036D01*
X152154840Y-91457758D01*
X149932599Y-93680001D01*
X148343439Y-93680001D01*
X148512521Y-93475284D01*
X148601520Y-93260383D01*
X148563912Y-93084000D01*
X147654000Y-93084000D01*
X147654000Y-93104000D01*
X147346000Y-93104000D01*
X147346000Y-93084000D01*
X146436088Y-93084000D01*
X146398480Y-93260383D01*
X146487479Y-93475284D01*
X146656561Y-93680001D01*
X145517402Y-93680001D01*
X144437018Y-92599617D01*
X146398480Y-92599617D01*
X146436088Y-92776000D01*
X147346000Y-92776000D01*
X147346000Y-91865343D01*
X147654000Y-91865343D01*
X147654000Y-92776000D01*
X148563912Y-92776000D01*
X148601520Y-92599617D01*
X148512521Y-92384716D01*
X148226776Y-92038748D01*
X147830386Y-91828465D01*
X147654000Y-91865343D01*
X147346000Y-91865343D01*
X147169614Y-91828465D01*
X146773224Y-92038748D01*
X146487479Y-92384716D01*
X146398480Y-92599617D01*
X144437018Y-92599617D01*
X143695164Y-91857764D01*
X143673964Y-91826036D01*
X143548268Y-91742048D01*
X143437424Y-91720000D01*
X143437419Y-91720000D01*
X143400000Y-91712557D01*
X143362581Y-91720000D01*
X141655518Y-91720000D01*
X141618099Y-91712557D01*
X141580680Y-91720000D01*
X141580676Y-91720000D01*
X141469832Y-91742048D01*
X141469831Y-91742049D01*
X141469830Y-91742049D01*
X141408130Y-91783276D01*
X141344136Y-91826036D01*
X141322938Y-91857762D01*
X140930700Y-92250000D01*
X140655761Y-92250000D01*
X140398482Y-92356568D01*
X140201568Y-92553482D01*
X140095000Y-92810761D01*
X140095000Y-93089239D01*
X140201568Y-93346518D01*
X140398482Y-93543432D01*
X140655761Y-93650000D01*
X140934239Y-93650000D01*
X141191518Y-93543432D01*
X141388432Y-93346518D01*
X141464003Y-93164072D01*
X141564082Y-93405684D01*
X141760996Y-93602598D01*
X142018275Y-93709166D01*
X142296753Y-93709166D01*
X142313271Y-93702324D01*
X142315275Y-93704328D01*
X142315278Y-93704330D01*
X143733186Y-95122239D01*
X143754384Y-95153964D01*
X143786109Y-95175162D01*
X143786110Y-95175163D01*
X143792155Y-95179202D01*
X143880080Y-95237952D01*
X143990924Y-95260000D01*
X143990929Y-95260000D01*
X144028348Y-95267443D01*
X144065767Y-95260000D01*
X155336081Y-95260000D01*
X155373500Y-95267443D01*
X155410919Y-95260000D01*
X155410924Y-95260000D01*
X155521768Y-95237952D01*
X155647464Y-95153964D01*
X155668664Y-95122236D01*
X156782545Y-94008356D01*
X156840793Y-94047276D01*
X157176239Y-94114000D01*
X157402761Y-94114000D01*
X157738207Y-94047276D01*
X158118603Y-93793103D01*
X158372776Y-93412707D01*
X158462029Y-92964000D01*
X158372776Y-92515293D01*
X158118603Y-92134897D01*
X158022905Y-92070953D01*
X158088268Y-92057952D01*
X158213964Y-91973964D01*
X158235164Y-91942236D01*
X158832238Y-91345163D01*
X158863964Y-91323964D01*
X158947952Y-91198268D01*
X158970000Y-91087424D01*
X158970000Y-91087419D01*
X158977443Y-91050000D01*
X158970000Y-91012581D01*
X158970000Y-89221919D01*
X158977443Y-89184500D01*
X158970000Y-89147081D01*
X158970000Y-89147076D01*
X158947952Y-89036232D01*
X158909397Y-88978530D01*
X158885163Y-88942262D01*
X158885162Y-88942261D01*
X158863964Y-88910536D01*
X158832239Y-88889338D01*
X158333856Y-88390955D01*
X158372776Y-88332707D01*
X158462029Y-87884000D01*
X158372776Y-87435293D01*
X158118603Y-87054897D01*
X157738207Y-86800724D01*
X157402761Y-86734000D01*
X157176239Y-86734000D01*
X156840793Y-86800724D01*
X156460397Y-87054897D01*
X156206224Y-87435293D01*
X156116971Y-87884000D01*
X156206224Y-88332707D01*
X156460397Y-88713103D01*
X156840793Y-88967276D01*
X157176239Y-89034000D01*
X157402761Y-89034000D01*
X157738207Y-88967276D01*
X157796455Y-88928356D01*
X158210000Y-89341901D01*
X158210000Y-89731682D01*
X158118603Y-89594897D01*
X157738207Y-89340724D01*
X157402761Y-89274000D01*
X157176239Y-89274000D01*
X156840793Y-89340724D01*
X156460397Y-89594897D01*
X156206224Y-89975293D01*
X156201228Y-90000408D01*
X155138583Y-88937764D01*
X155117383Y-88906036D01*
X154991687Y-88822048D01*
X154880843Y-88800000D01*
X154880838Y-88800000D01*
X154843419Y-88792557D01*
X154806000Y-88800000D01*
X148635985Y-88800000D01*
X148655877Y-88700000D01*
X148655877Y-87000000D01*
X148632593Y-86882946D01*
X148566288Y-86783712D01*
X148467054Y-86717407D01*
X148350000Y-86694123D01*
X146650000Y-86694123D01*
X146532946Y-86717407D01*
X146433712Y-86783712D01*
X146367407Y-86882946D01*
X146344123Y-87000000D01*
X146344123Y-88700000D01*
X146361758Y-88788658D01*
X145292505Y-87719405D01*
X145305000Y-87689239D01*
X145305000Y-87410761D01*
X145198432Y-87153482D01*
X145001518Y-86956568D01*
X144744239Y-86850000D01*
X144572400Y-86850000D01*
X145698401Y-85724000D01*
X156192557Y-85724000D01*
X156206224Y-85792707D01*
X156460397Y-86173103D01*
X156840793Y-86427276D01*
X157176239Y-86494000D01*
X157402761Y-86494000D01*
X157738207Y-86427276D01*
X158118603Y-86173103D01*
X158372776Y-85792707D01*
X158462029Y-85344000D01*
X158372776Y-84895293D01*
X158118603Y-84514897D01*
X157738207Y-84260724D01*
X157402761Y-84194000D01*
X157176239Y-84194000D01*
X156840793Y-84260724D01*
X156460397Y-84514897D01*
X156206224Y-84895293D01*
X156192557Y-84964000D01*
X145578418Y-84964000D01*
X145540999Y-84956557D01*
X145503580Y-84964000D01*
X145503576Y-84964000D01*
X145392732Y-84986048D01*
X145392731Y-84986049D01*
X145392730Y-84986049D01*
X145309566Y-85041618D01*
X145267036Y-85070036D01*
X145245838Y-85101761D01*
X143490758Y-86856842D01*
X143474239Y-86850000D01*
X143195761Y-86850000D01*
X142938482Y-86956568D01*
X142741568Y-87153482D01*
X142645400Y-87385653D01*
X142645400Y-85882400D01*
X145723800Y-82804000D01*
X156116971Y-82804000D01*
X156206224Y-83252707D01*
X156460397Y-83633103D01*
X156840793Y-83887276D01*
X157176239Y-83954000D01*
X157402761Y-83954000D01*
X157738207Y-83887276D01*
X158118603Y-83633103D01*
X158372776Y-83252707D01*
X158462029Y-82804000D01*
X158372776Y-82355293D01*
X158118603Y-81974897D01*
X157738207Y-81720724D01*
X157402761Y-81654000D01*
X157176239Y-81654000D01*
X156840793Y-81720724D01*
X156460397Y-81974897D01*
X156206224Y-82355293D01*
X156116971Y-82804000D01*
X145723800Y-82804000D01*
X146732239Y-81795562D01*
X146763964Y-81774364D01*
X146847952Y-81648668D01*
X146870000Y-81537824D01*
X146870000Y-81537819D01*
X146877443Y-81500400D01*
X146870000Y-81462981D01*
X146870000Y-80264000D01*
X156116971Y-80264000D01*
X156206224Y-80712707D01*
X156460397Y-81093103D01*
X156840793Y-81347276D01*
X157176239Y-81414000D01*
X157402761Y-81414000D01*
X157738207Y-81347276D01*
X158118603Y-81093103D01*
X158372776Y-80712707D01*
X158462029Y-80264000D01*
X158372776Y-79815293D01*
X158118603Y-79434897D01*
X157738207Y-79180724D01*
X157402761Y-79114000D01*
X157176239Y-79114000D01*
X156840793Y-79180724D01*
X156460397Y-79434897D01*
X156206224Y-79815293D01*
X156116971Y-80264000D01*
X146870000Y-80264000D01*
X146870000Y-78530274D01*
X146886518Y-78523432D01*
X147083432Y-78326518D01*
X147190000Y-78069239D01*
X147190000Y-77790761D01*
X147123410Y-77629998D01*
X150777998Y-77629998D01*
X151114237Y-77966238D01*
X151135436Y-77997964D01*
X151167161Y-78019162D01*
X151167162Y-78019163D01*
X151261130Y-78081951D01*
X151261131Y-78081951D01*
X151261132Y-78081952D01*
X151371976Y-78104000D01*
X151371980Y-78104000D01*
X151409399Y-78111443D01*
X151446818Y-78104000D01*
X156192557Y-78104000D01*
X156206224Y-78172707D01*
X156460397Y-78553103D01*
X156840793Y-78807276D01*
X157176239Y-78874000D01*
X157402761Y-78874000D01*
X157738207Y-78807276D01*
X158118603Y-78553103D01*
X158372776Y-78172707D01*
X158462029Y-77724000D01*
X158372776Y-77275293D01*
X158118603Y-76894897D01*
X157738207Y-76640724D01*
X157402761Y-76574000D01*
X157176239Y-76574000D01*
X156840793Y-76640724D01*
X156460397Y-76894897D01*
X156206224Y-77275293D01*
X156192557Y-77344000D01*
X151566801Y-77344000D01*
X151273700Y-77050900D01*
X152760602Y-75564000D01*
X156133623Y-75564000D01*
X156133623Y-76034000D01*
X156156907Y-76151054D01*
X156223212Y-76250288D01*
X156322446Y-76316593D01*
X156439500Y-76339877D01*
X158139500Y-76339877D01*
X158256554Y-76316593D01*
X158355788Y-76250288D01*
X158422093Y-76151054D01*
X158445377Y-76034000D01*
X158445377Y-74334000D01*
X158422093Y-74216946D01*
X158355788Y-74117712D01*
X158256554Y-74051407D01*
X158139500Y-74028123D01*
X156439500Y-74028123D01*
X156322446Y-74051407D01*
X156223212Y-74117712D01*
X156156907Y-74216946D01*
X156133623Y-74334000D01*
X156133623Y-74804000D01*
X152640618Y-74804000D01*
X152603199Y-74796557D01*
X152565780Y-74804000D01*
X152565776Y-74804000D01*
X152454932Y-74826048D01*
X152454931Y-74826049D01*
X152454930Y-74826049D01*
X152360961Y-74888837D01*
X152360958Y-74888840D01*
X152329236Y-74910036D01*
X152308040Y-74941759D01*
X150739812Y-76509988D01*
X122727931Y-76509988D01*
X122690512Y-76502545D01*
X122653093Y-76509988D01*
X122653088Y-76509988D01*
X122542244Y-76532036D01*
X122416548Y-76616024D01*
X122395350Y-76647750D01*
X121322164Y-77720936D01*
X121290436Y-77742136D01*
X121206448Y-77867833D01*
X121184400Y-77978677D01*
X121184400Y-77978681D01*
X121176957Y-78016100D01*
X121184400Y-78053519D01*
X121184401Y-80189478D01*
X121108885Y-80371790D01*
X121108885Y-80650268D01*
X121191285Y-80849200D01*
X117616602Y-80849200D01*
X117443159Y-80675757D01*
X117450001Y-80659239D01*
X117450001Y-80380761D01*
X117343433Y-80123482D01*
X117146519Y-79926568D01*
X117130667Y-79920002D01*
X117279726Y-79920002D01*
X117286568Y-79936520D01*
X117483482Y-80133434D01*
X117740761Y-80240002D01*
X118019239Y-80240002D01*
X118276518Y-80133434D01*
X118473432Y-79936520D01*
X118580000Y-79679241D01*
X118580000Y-79517964D01*
X118668786Y-79554740D01*
X118947264Y-79554740D01*
X119204543Y-79448172D01*
X119401457Y-79251258D01*
X119508025Y-78993979D01*
X119508025Y-78715501D01*
X119401457Y-78458222D01*
X119204543Y-78261308D01*
X118947264Y-78154740D01*
X118668786Y-78154740D01*
X118652268Y-78161582D01*
X118560000Y-78069315D01*
X118560000Y-75922998D01*
X118630897Y-76029103D01*
X119011293Y-76283276D01*
X119346739Y-76350000D01*
X119573261Y-76350000D01*
X119908707Y-76283276D01*
X120289103Y-76029103D01*
X120543276Y-75648707D01*
X120632529Y-75200000D01*
X120827471Y-75200000D01*
X120916724Y-75648707D01*
X121170897Y-76029103D01*
X121551293Y-76283276D01*
X121886739Y-76350000D01*
X122113261Y-76350000D01*
X122448707Y-76283276D01*
X122829103Y-76029103D01*
X123083276Y-75648707D01*
X123172529Y-75200000D01*
X123367471Y-75200000D01*
X123456724Y-75648707D01*
X123710897Y-76029103D01*
X124091293Y-76283276D01*
X124426739Y-76350000D01*
X124653261Y-76350000D01*
X124988707Y-76283276D01*
X125369103Y-76029103D01*
X125623276Y-75648707D01*
X125712529Y-75200000D01*
X125907471Y-75200000D01*
X125996724Y-75648707D01*
X126250897Y-76029103D01*
X126631293Y-76283276D01*
X126966739Y-76350000D01*
X127193261Y-76350000D01*
X127528707Y-76283276D01*
X127909103Y-76029103D01*
X128163276Y-75648707D01*
X128252529Y-75200000D01*
X128447471Y-75200000D01*
X128536724Y-75648707D01*
X128790897Y-76029103D01*
X129171293Y-76283276D01*
X129506739Y-76350000D01*
X129733261Y-76350000D01*
X130068707Y-76283276D01*
X130449103Y-76029103D01*
X130703276Y-75648707D01*
X130792529Y-75200000D01*
X130987471Y-75200000D01*
X131076724Y-75648707D01*
X131330897Y-76029103D01*
X131711293Y-76283276D01*
X132046739Y-76350000D01*
X132273261Y-76350000D01*
X132608707Y-76283276D01*
X132989103Y-76029103D01*
X133243276Y-75648707D01*
X133332529Y-75200000D01*
X133527471Y-75200000D01*
X133616724Y-75648707D01*
X133870897Y-76029103D01*
X134251293Y-76283276D01*
X134586739Y-76350000D01*
X134813261Y-76350000D01*
X135148707Y-76283276D01*
X135529103Y-76029103D01*
X135783276Y-75648707D01*
X135872529Y-75200000D01*
X136067471Y-75200000D01*
X136156724Y-75648707D01*
X136410897Y-76029103D01*
X136791293Y-76283276D01*
X137126739Y-76350000D01*
X137353261Y-76350000D01*
X137688707Y-76283276D01*
X138069103Y-76029103D01*
X138323276Y-75648707D01*
X138412529Y-75200000D01*
X138607471Y-75200000D01*
X138696724Y-75648707D01*
X138950897Y-76029103D01*
X139331293Y-76283276D01*
X139666739Y-76350000D01*
X139893261Y-76350000D01*
X140228707Y-76283276D01*
X140609103Y-76029103D01*
X140863276Y-75648707D01*
X140952529Y-75200000D01*
X141147471Y-75200000D01*
X141236724Y-75648707D01*
X141490897Y-76029103D01*
X141871293Y-76283276D01*
X142206739Y-76350000D01*
X142433261Y-76350000D01*
X142768707Y-76283276D01*
X143149103Y-76029103D01*
X143403276Y-75648707D01*
X143492529Y-75200000D01*
X143403276Y-74751293D01*
X143149103Y-74370897D01*
X143117829Y-74350000D01*
X143704123Y-74350000D01*
X143704123Y-76050000D01*
X143727407Y-76167054D01*
X143793712Y-76266288D01*
X143892946Y-76332593D01*
X144010000Y-76355877D01*
X145710000Y-76355877D01*
X145827054Y-76332593D01*
X145926288Y-76266288D01*
X145992593Y-76167054D01*
X146015877Y-76050000D01*
X146015877Y-74350000D01*
X145992593Y-74232946D01*
X145926288Y-74133712D01*
X145827054Y-74067407D01*
X145710000Y-74044123D01*
X144010000Y-74044123D01*
X143892946Y-74067407D01*
X143793712Y-74133712D01*
X143727407Y-74232946D01*
X143704123Y-74350000D01*
X143117829Y-74350000D01*
X142768707Y-74116724D01*
X142433261Y-74050000D01*
X142206739Y-74050000D01*
X141871293Y-74116724D01*
X141490897Y-74370897D01*
X141236724Y-74751293D01*
X141147471Y-75200000D01*
X140952529Y-75200000D01*
X140863276Y-74751293D01*
X140609103Y-74370897D01*
X140228707Y-74116724D01*
X139893261Y-74050000D01*
X139666739Y-74050000D01*
X139331293Y-74116724D01*
X138950897Y-74370897D01*
X138696724Y-74751293D01*
X138607471Y-75200000D01*
X138412529Y-75200000D01*
X138323276Y-74751293D01*
X138069103Y-74370897D01*
X137688707Y-74116724D01*
X137353261Y-74050000D01*
X137126739Y-74050000D01*
X136791293Y-74116724D01*
X136410897Y-74370897D01*
X136156724Y-74751293D01*
X136067471Y-75200000D01*
X135872529Y-75200000D01*
X135783276Y-74751293D01*
X135529103Y-74370897D01*
X135148707Y-74116724D01*
X134813261Y-74050000D01*
X134586739Y-74050000D01*
X134251293Y-74116724D01*
X133870897Y-74370897D01*
X133616724Y-74751293D01*
X133527471Y-75200000D01*
X133332529Y-75200000D01*
X133243276Y-74751293D01*
X132989103Y-74370897D01*
X132608707Y-74116724D01*
X132273261Y-74050000D01*
X132046739Y-74050000D01*
X131711293Y-74116724D01*
X131330897Y-74370897D01*
X131076724Y-74751293D01*
X130987471Y-75200000D01*
X130792529Y-75200000D01*
X130703276Y-74751293D01*
X130449103Y-74370897D01*
X130068707Y-74116724D01*
X129733261Y-74050000D01*
X129506739Y-74050000D01*
X129171293Y-74116724D01*
X128790897Y-74370897D01*
X128536724Y-74751293D01*
X128447471Y-75200000D01*
X128252529Y-75200000D01*
X128163276Y-74751293D01*
X127909103Y-74370897D01*
X127528707Y-74116724D01*
X127193261Y-74050000D01*
X126966739Y-74050000D01*
X126631293Y-74116724D01*
X126250897Y-74370897D01*
X125996724Y-74751293D01*
X125907471Y-75200000D01*
X125712529Y-75200000D01*
X125623276Y-74751293D01*
X125369103Y-74370897D01*
X124988707Y-74116724D01*
X124653261Y-74050000D01*
X124426739Y-74050000D01*
X124091293Y-74116724D01*
X123710897Y-74370897D01*
X123456724Y-74751293D01*
X123367471Y-75200000D01*
X123172529Y-75200000D01*
X123083276Y-74751293D01*
X122829103Y-74370897D01*
X122448707Y-74116724D01*
X122113261Y-74050000D01*
X121886739Y-74050000D01*
X121551293Y-74116724D01*
X121170897Y-74370897D01*
X120916724Y-74751293D01*
X120827471Y-75200000D01*
X120632529Y-75200000D01*
X120543276Y-74751293D01*
X120289103Y-74370897D01*
X119908707Y-74116724D01*
X119573261Y-74050000D01*
X119346739Y-74050000D01*
X119011293Y-74116724D01*
X118630897Y-74370897D01*
X118540752Y-74505808D01*
X118537952Y-74491732D01*
X118517907Y-74461732D01*
X118475163Y-74397762D01*
X118475162Y-74397761D01*
X118453964Y-74366036D01*
X118422239Y-74344838D01*
X117545151Y-73467751D01*
X117523953Y-73436026D01*
X117492228Y-73414828D01*
X117492226Y-73414826D01*
X117398257Y-73352038D01*
X117249989Y-73322546D01*
X117212565Y-73329990D01*
X108428298Y-73329988D01*
X108390879Y-73322545D01*
X108353460Y-73329988D01*
X108353457Y-73329988D01*
X108242613Y-73352036D01*
X108242612Y-73352037D01*
X108242610Y-73352037D01*
X108148642Y-73414825D01*
X108148639Y-73414828D01*
X108116917Y-73436024D01*
X108095721Y-73467746D01*
X106707762Y-74855706D01*
X106676037Y-74876904D01*
X106654839Y-74908629D01*
X106654837Y-74908631D01*
X106592049Y-75002600D01*
X106562557Y-75150868D01*
X106570001Y-75188292D01*
X106570001Y-85717625D01*
X106543432Y-85653482D01*
X106346518Y-85456568D01*
X106089239Y-85350000D01*
X105810761Y-85350000D01*
X105553482Y-85456568D01*
X105513045Y-85497005D01*
X104445000Y-84428960D01*
X104445000Y-80514950D01*
X104613432Y-80346518D01*
X104720000Y-80089239D01*
X104720000Y-79810761D01*
X104613432Y-79553482D01*
X104416518Y-79356568D01*
X104159239Y-79250000D01*
X103880761Y-79250000D01*
X103623482Y-79356568D01*
X103426568Y-79553482D01*
X103320000Y-79810761D01*
X103320000Y-80089239D01*
X103426568Y-80346518D01*
X103595000Y-80514950D01*
X103595001Y-84563138D01*
X103586674Y-84605000D01*
X103619659Y-84770826D01*
X103684208Y-84867430D01*
X103713593Y-84911408D01*
X103749079Y-84935119D01*
X104163960Y-85350000D01*
X103910761Y-85350000D01*
X103653482Y-85456568D01*
X103456568Y-85653482D01*
X103350000Y-85910761D01*
X103350000Y-86189239D01*
X103456568Y-86446518D01*
X103537201Y-86527151D01*
X103537200Y-90748050D01*
X103368768Y-90916482D01*
X103262200Y-91173761D01*
X100603662Y-91173761D01*
X100060000Y-90630100D01*
X100060000Y-87957218D01*
X100067443Y-87919799D01*
X100060000Y-87882380D01*
X100060000Y-87882376D01*
X100037952Y-87771532D01*
X100037951Y-87771530D01*
X99975163Y-87677561D01*
X99975160Y-87677558D01*
X99953964Y-87645836D01*
X99922242Y-87624640D01*
X98930000Y-86632400D01*
X98930000Y-83449960D01*
X99103482Y-83623442D01*
X99120000Y-83630284D01*
X99120000Y-83633118D01*
X99120001Y-83633123D01*
X99120000Y-86572581D01*
X99112557Y-86610000D01*
X99120000Y-86647419D01*
X99120000Y-86647423D01*
X99142048Y-86758267D01*
X99226036Y-86883964D01*
X99257764Y-86905164D01*
X100516842Y-88164243D01*
X100510000Y-88180761D01*
X100510000Y-88459239D01*
X100616568Y-88716518D01*
X100813482Y-88913432D01*
X101070761Y-89020000D01*
X101349239Y-89020000D01*
X101606518Y-88913432D01*
X101803432Y-88716518D01*
X101910000Y-88459239D01*
X101910000Y-88180761D01*
X101803432Y-87923482D01*
X101606518Y-87726568D01*
X101349239Y-87620000D01*
X101070761Y-87620000D01*
X101054243Y-87626842D01*
X99880000Y-86452600D01*
X99880000Y-83630284D01*
X99896518Y-83623442D01*
X100093432Y-83426528D01*
X100200000Y-83169249D01*
X100200000Y-82890771D01*
X100093432Y-82633492D01*
X99896518Y-82436578D01*
X99880000Y-82429736D01*
X99880000Y-78215996D01*
X102160000Y-75935997D01*
X102160000Y-76179249D01*
X102166842Y-76195767D01*
X100967764Y-77394846D01*
X100936036Y-77416046D01*
X100852048Y-77541743D01*
X100830000Y-77652587D01*
X100830000Y-77652591D01*
X100822557Y-77690010D01*
X100830000Y-77727429D01*
X100830001Y-82339726D01*
X100813482Y-82346568D01*
X100616568Y-82543482D01*
X100510000Y-82800761D01*
X100510000Y-83079239D01*
X100616568Y-83336518D01*
X100813482Y-83533432D01*
X101070761Y-83640000D01*
X101349239Y-83640000D01*
X101606518Y-83533432D01*
X101803432Y-83336518D01*
X101910000Y-83079239D01*
X101910000Y-82800761D01*
X101803432Y-82543482D01*
X101606518Y-82346568D01*
X101590000Y-82339726D01*
X101590000Y-77847410D01*
X102704243Y-76733168D01*
X102720761Y-76740010D01*
X102999239Y-76740010D01*
X103256518Y-76633442D01*
X103453432Y-76436528D01*
X103560000Y-76179249D01*
X103560000Y-75900771D01*
X103455092Y-75647500D01*
X103965104Y-75647500D01*
X104156842Y-75839239D01*
X104150000Y-75855757D01*
X104150000Y-76134235D01*
X104256568Y-76391514D01*
X104453482Y-76588428D01*
X104710761Y-76694996D01*
X104989239Y-76694996D01*
X105246518Y-76588428D01*
X105443432Y-76391514D01*
X105550000Y-76134235D01*
X105550000Y-75855757D01*
X105443432Y-75598478D01*
X105246518Y-75401564D01*
X104989239Y-75294996D01*
X104710761Y-75294996D01*
X104694243Y-75301838D01*
X104417668Y-75025264D01*
X104396468Y-74993536D01*
X104270772Y-74909548D01*
X104159928Y-74887500D01*
X104159923Y-74887500D01*
X104122504Y-74880057D01*
X104085085Y-74887500D01*
X102328515Y-74887500D01*
X102291096Y-74880057D01*
X102253677Y-74887500D01*
X102253672Y-74887500D01*
X102142828Y-74909548D01*
X102017132Y-74993536D01*
X101995934Y-75025261D01*
X99257764Y-77763432D01*
X99226036Y-77784632D01*
X99142048Y-77910329D01*
X99120000Y-78021173D01*
X99120000Y-78021177D01*
X99112557Y-78058596D01*
X99120000Y-78096015D01*
X99120001Y-82426897D01*
X99120000Y-82426902D01*
X99120000Y-82429736D01*
X99103482Y-82436578D01*
X98930000Y-82610060D01*
X98930000Y-78297418D01*
X98937443Y-78259999D01*
X98930000Y-78222580D01*
X98930000Y-78222576D01*
X98907952Y-78111732D01*
X98888054Y-78081952D01*
X98845163Y-78017762D01*
X98845162Y-78017761D01*
X98823964Y-77986036D01*
X98792239Y-77964838D01*
X95005164Y-74177764D01*
X94983964Y-74146036D01*
X94858268Y-74062048D01*
X94747424Y-74040000D01*
X94747419Y-74040000D01*
X94710000Y-74032557D01*
X94672581Y-74040000D01*
X94350274Y-74040000D01*
X94343432Y-74023482D01*
X94146518Y-73826568D01*
X93889239Y-73720000D01*
X93610761Y-73720000D01*
X93353482Y-73826568D01*
X93156568Y-74023482D01*
X93050000Y-74280761D01*
X92374699Y-74280761D01*
X92374917Y-73294944D01*
X159155083Y-73285055D01*
X159164918Y-117805112D01*
G36*
X117164038Y-81471438D02*
X117185237Y-81503164D01*
X117216962Y-81524362D01*
X117216963Y-81524363D01*
X117310931Y-81587151D01*
X117310932Y-81587151D01*
X117310933Y-81587152D01*
X117421777Y-81609200D01*
X117421781Y-81609200D01*
X117459200Y-81616643D01*
X117496619Y-81609200D01*
X122013399Y-81609200D01*
X119152600Y-84470000D01*
X118650274Y-84470000D01*
X118643432Y-84453482D01*
X118446518Y-84256568D01*
X118189239Y-84150000D01*
X117910761Y-84150000D01*
X117653482Y-84256568D01*
X117456568Y-84453482D01*
X117449726Y-84470000D01*
X115387419Y-84470000D01*
X115350000Y-84462557D01*
X115312581Y-84470000D01*
X115312576Y-84470000D01*
X115201732Y-84492048D01*
X115159899Y-84520000D01*
X115113381Y-84551083D01*
X115076036Y-84576036D01*
X115054838Y-84607762D01*
X113977764Y-85684836D01*
X113977761Y-85684838D01*
X113975757Y-85686842D01*
X113959239Y-85680000D01*
X113680761Y-85680000D01*
X113423482Y-85786568D01*
X113226568Y-85983482D01*
X113120000Y-86240761D01*
X113120000Y-86519239D01*
X113226568Y-86776518D01*
X113423482Y-86973432D01*
X113440000Y-86980274D01*
X113440000Y-86983108D01*
X113440001Y-86983113D01*
X113440000Y-87681246D01*
X113432557Y-87718665D01*
X113440000Y-87756084D01*
X113440000Y-87756088D01*
X113462048Y-87866932D01*
X113546036Y-87992629D01*
X113577764Y-88013829D01*
X114539914Y-88975980D01*
X114533072Y-88992498D01*
X114533072Y-89270976D01*
X114639640Y-89528255D01*
X114836554Y-89725169D01*
X115093833Y-89831737D01*
X115372311Y-89831737D01*
X115629590Y-89725169D01*
X115826504Y-89528255D01*
X115933072Y-89270976D01*
X115933072Y-88992498D01*
X115826504Y-88735219D01*
X115629590Y-88538305D01*
X115372311Y-88431737D01*
X115093833Y-88431737D01*
X115077315Y-88438579D01*
X114359325Y-87720590D01*
X114425091Y-87747831D01*
X114703569Y-87747831D01*
X114960848Y-87641263D01*
X115157762Y-87444349D01*
X115164604Y-87427831D01*
X117814750Y-87427831D01*
X117852169Y-87435274D01*
X117889588Y-87427831D01*
X117889593Y-87427831D01*
X118000437Y-87405783D01*
X118126133Y-87321795D01*
X118147333Y-87290067D01*
X123582490Y-81854911D01*
X126782379Y-81854911D01*
X129599706Y-84672239D01*
X129620904Y-84703964D01*
X129746600Y-84787952D01*
X129857444Y-84810000D01*
X129857449Y-84810000D01*
X129894868Y-84817443D01*
X129932287Y-84810000D01*
X133734726Y-84810000D01*
X133741568Y-84826518D01*
X133938482Y-85023432D01*
X134195761Y-85130000D01*
X134474239Y-85130000D01*
X134731518Y-85023432D01*
X134928432Y-84826518D01*
X135035000Y-84569239D01*
X135035000Y-84290761D01*
X134928432Y-84033482D01*
X134904952Y-84010002D01*
X136058962Y-84010002D01*
X136370000Y-84321041D01*
X136370001Y-84561758D01*
X132652320Y-88279440D01*
X132620592Y-88300640D01*
X132536604Y-88426337D01*
X132514556Y-88537181D01*
X132514556Y-88537185D01*
X132513943Y-88540269D01*
X132498038Y-88546857D01*
X132301124Y-88743771D01*
X132294282Y-88760289D01*
X129997130Y-88760289D01*
X129959711Y-88752846D01*
X129922292Y-88760289D01*
X129922287Y-88760289D01*
X129811443Y-88782337D01*
X129685747Y-88866325D01*
X129664549Y-88898051D01*
X128857765Y-89704835D01*
X128857762Y-89704837D01*
X128171187Y-90391412D01*
X128139461Y-90412611D01*
X128118263Y-90444337D01*
X125582600Y-92980000D01*
X120717343Y-92980000D01*
X120679924Y-92972557D01*
X120642505Y-92980000D01*
X120642500Y-92980000D01*
X120531656Y-93002048D01*
X120405960Y-93086036D01*
X120384762Y-93117762D01*
X119507764Y-93994760D01*
X119507761Y-93994762D01*
X119505757Y-93996766D01*
X119489239Y-93989924D01*
X119210761Y-93989924D01*
X118953482Y-94096492D01*
X118756568Y-94293406D01*
X118650000Y-94550685D01*
X118650000Y-94829163D01*
X118716597Y-94989944D01*
X118586802Y-94989944D01*
X118629857Y-94886000D01*
X118629857Y-94607522D01*
X118523289Y-94350243D01*
X118326375Y-94153329D01*
X118069096Y-94046761D01*
X117790618Y-94046761D01*
X117533339Y-94153329D01*
X117336425Y-94350243D01*
X117250000Y-94558892D01*
X117250000Y-94550696D01*
X117143432Y-94293417D01*
X116946518Y-94096503D01*
X116689239Y-93989935D01*
X116410761Y-93989935D01*
X116153482Y-94096503D01*
X115956568Y-94293417D01*
X115949726Y-94309935D01*
X115938703Y-94309935D01*
X115901284Y-94302492D01*
X115863865Y-94309935D01*
X115863860Y-94309935D01*
X115753016Y-94331983D01*
X115712107Y-94359318D01*
X115673429Y-94385162D01*
X115627320Y-94415971D01*
X115609920Y-94442012D01*
X115530780Y-94250951D01*
X115333866Y-94054037D01*
X115076587Y-93947469D01*
X114798109Y-93947469D01*
X114540830Y-94054037D01*
X114343916Y-94250951D01*
X114337074Y-94267469D01*
X112975308Y-94267469D01*
X113103453Y-94139324D01*
X113210021Y-93882045D01*
X113210021Y-93603567D01*
X113103453Y-93346288D01*
X113056656Y-93299491D01*
X113211030Y-93145116D01*
X113317598Y-92887837D01*
X113317598Y-92609359D01*
X113250097Y-92446396D01*
X113356327Y-92402394D01*
X113553241Y-92205480D01*
X113659809Y-91948201D01*
X113659809Y-91669723D01*
X113563081Y-91436200D01*
X113582286Y-91428245D01*
X113779200Y-91231331D01*
X113885768Y-90974052D01*
X113885768Y-90695574D01*
X113779200Y-90438295D01*
X113582286Y-90241381D01*
X113325007Y-90134813D01*
X113046529Y-90134813D01*
X113030010Y-90141655D01*
X113026928Y-90138573D01*
X113026928Y-85186458D01*
X113034371Y-85149039D01*
X113026928Y-85111620D01*
X113026928Y-85111616D01*
X113004880Y-85000772D01*
X112949915Y-84918512D01*
X112942091Y-84906802D01*
X112942090Y-84906801D01*
X112940341Y-84904184D01*
X112946929Y-84888280D01*
X112946929Y-84609802D01*
X112940087Y-84593284D01*
X112942091Y-84591280D01*
X112942093Y-84591277D01*
X113770229Y-83763142D01*
X115110307Y-83763142D01*
X115147726Y-83770585D01*
X115185145Y-83763142D01*
X115185150Y-83763142D01*
X115295994Y-83741094D01*
X115421690Y-83657106D01*
X115442890Y-83625378D01*
X116992240Y-82076029D01*
X117023965Y-82054831D01*
X117062791Y-81996724D01*
X117107952Y-81929137D01*
X117107952Y-81929136D01*
X117107953Y-81929135D01*
X117130001Y-81818291D01*
X117130001Y-81818287D01*
X117137444Y-81780868D01*
X117130001Y-81743449D01*
X117130001Y-81437401D01*
X117164038Y-81471438D01*
X117164038Y-81471438D01*
G37*
X117164038Y-81471438D02*
X117185237Y-81503164D01*
X117216962Y-81524362D01*
X117216963Y-81524363D01*
X117310931Y-81587151D01*
X117310932Y-81587151D01*
X117310933Y-81587152D01*
X117421777Y-81609200D01*
X117421781Y-81609200D01*
X117459200Y-81616643D01*
X117496619Y-81609200D01*
X122013399Y-81609200D01*
X119152600Y-84470000D01*
X118650274Y-84470000D01*
X118643432Y-84453482D01*
X118446518Y-84256568D01*
X118189239Y-84150000D01*
X117910761Y-84150000D01*
X117653482Y-84256568D01*
X117456568Y-84453482D01*
X117449726Y-84470000D01*
X115387419Y-84470000D01*
X115350000Y-84462557D01*
X115312581Y-84470000D01*
X115312576Y-84470000D01*
X115201732Y-84492048D01*
X115159899Y-84520000D01*
X115113381Y-84551083D01*
X115076036Y-84576036D01*
X115054838Y-84607762D01*
X113977764Y-85684836D01*
X113977761Y-85684838D01*
X113975757Y-85686842D01*
X113959239Y-85680000D01*
X113680761Y-85680000D01*
X113423482Y-85786568D01*
X113226568Y-85983482D01*
X113120000Y-86240761D01*
X113120000Y-86519239D01*
X113226568Y-86776518D01*
X113423482Y-86973432D01*
X113440000Y-86980274D01*
X113440000Y-86983108D01*
X113440001Y-86983113D01*
X113440000Y-87681246D01*
X113432557Y-87718665D01*
X113440000Y-87756084D01*
X113440000Y-87756088D01*
X113462048Y-87866932D01*
X113546036Y-87992629D01*
X113577764Y-88013829D01*
X114539914Y-88975980D01*
X114533072Y-88992498D01*
X114533072Y-89270976D01*
X114639640Y-89528255D01*
X114836554Y-89725169D01*
X115093833Y-89831737D01*
X115372311Y-89831737D01*
X115629590Y-89725169D01*
X115826504Y-89528255D01*
X115933072Y-89270976D01*
X115933072Y-88992498D01*
X115826504Y-88735219D01*
X115629590Y-88538305D01*
X115372311Y-88431737D01*
X115093833Y-88431737D01*
X115077315Y-88438579D01*
X114359325Y-87720590D01*
X114425091Y-87747831D01*
X114703569Y-87747831D01*
X114960848Y-87641263D01*
X115157762Y-87444349D01*
X115164604Y-87427831D01*
X117814750Y-87427831D01*
X117852169Y-87435274D01*
X117889588Y-87427831D01*
X117889593Y-87427831D01*
X118000437Y-87405783D01*
X118126133Y-87321795D01*
X118147333Y-87290067D01*
X123582490Y-81854911D01*
X126782379Y-81854911D01*
X129599706Y-84672239D01*
X129620904Y-84703964D01*
X129746600Y-84787952D01*
X129857444Y-84810000D01*
X129857449Y-84810000D01*
X129894868Y-84817443D01*
X129932287Y-84810000D01*
X133734726Y-84810000D01*
X133741568Y-84826518D01*
X133938482Y-85023432D01*
X134195761Y-85130000D01*
X134474239Y-85130000D01*
X134731518Y-85023432D01*
X134928432Y-84826518D01*
X135035000Y-84569239D01*
X135035000Y-84290761D01*
X134928432Y-84033482D01*
X134904952Y-84010002D01*
X136058962Y-84010002D01*
X136370000Y-84321041D01*
X136370001Y-84561758D01*
X132652320Y-88279440D01*
X132620592Y-88300640D01*
X132536604Y-88426337D01*
X132514556Y-88537181D01*
X132514556Y-88537185D01*
X132513943Y-88540269D01*
X132498038Y-88546857D01*
X132301124Y-88743771D01*
X132294282Y-88760289D01*
X129997130Y-88760289D01*
X129959711Y-88752846D01*
X129922292Y-88760289D01*
X129922287Y-88760289D01*
X129811443Y-88782337D01*
X129685747Y-88866325D01*
X129664549Y-88898051D01*
X128857765Y-89704835D01*
X128857762Y-89704837D01*
X128171187Y-90391412D01*
X128139461Y-90412611D01*
X128118263Y-90444337D01*
X125582600Y-92980000D01*
X120717343Y-92980000D01*
X120679924Y-92972557D01*
X120642505Y-92980000D01*
X120642500Y-92980000D01*
X120531656Y-93002048D01*
X120405960Y-93086036D01*
X120384762Y-93117762D01*
X119507764Y-93994760D01*
X119507761Y-93994762D01*
X119505757Y-93996766D01*
X119489239Y-93989924D01*
X119210761Y-93989924D01*
X118953482Y-94096492D01*
X118756568Y-94293406D01*
X118650000Y-94550685D01*
X118650000Y-94829163D01*
X118716597Y-94989944D01*
X118586802Y-94989944D01*
X118629857Y-94886000D01*
X118629857Y-94607522D01*
X118523289Y-94350243D01*
X118326375Y-94153329D01*
X118069096Y-94046761D01*
X117790618Y-94046761D01*
X117533339Y-94153329D01*
X117336425Y-94350243D01*
X117250000Y-94558892D01*
X117250000Y-94550696D01*
X117143432Y-94293417D01*
X116946518Y-94096503D01*
X116689239Y-93989935D01*
X116410761Y-93989935D01*
X116153482Y-94096503D01*
X115956568Y-94293417D01*
X115949726Y-94309935D01*
X115938703Y-94309935D01*
X115901284Y-94302492D01*
X115863865Y-94309935D01*
X115863860Y-94309935D01*
X115753016Y-94331983D01*
X115712107Y-94359318D01*
X115673429Y-94385162D01*
X115627320Y-94415971D01*
X115609920Y-94442012D01*
X115530780Y-94250951D01*
X115333866Y-94054037D01*
X115076587Y-93947469D01*
X114798109Y-93947469D01*
X114540830Y-94054037D01*
X114343916Y-94250951D01*
X114337074Y-94267469D01*
X112975308Y-94267469D01*
X113103453Y-94139324D01*
X113210021Y-93882045D01*
X113210021Y-93603567D01*
X113103453Y-93346288D01*
X113056656Y-93299491D01*
X113211030Y-93145116D01*
X113317598Y-92887837D01*
X113317598Y-92609359D01*
X113250097Y-92446396D01*
X113356327Y-92402394D01*
X113553241Y-92205480D01*
X113659809Y-91948201D01*
X113659809Y-91669723D01*
X113563081Y-91436200D01*
X113582286Y-91428245D01*
X113779200Y-91231331D01*
X113885768Y-90974052D01*
X113885768Y-90695574D01*
X113779200Y-90438295D01*
X113582286Y-90241381D01*
X113325007Y-90134813D01*
X113046529Y-90134813D01*
X113030010Y-90141655D01*
X113026928Y-90138573D01*
X113026928Y-85186458D01*
X113034371Y-85149039D01*
X113026928Y-85111620D01*
X113026928Y-85111616D01*
X113004880Y-85000772D01*
X112949915Y-84918512D01*
X112942091Y-84906802D01*
X112942090Y-84906801D01*
X112940341Y-84904184D01*
X112946929Y-84888280D01*
X112946929Y-84609802D01*
X112940087Y-84593284D01*
X112942091Y-84591280D01*
X112942093Y-84591277D01*
X113770229Y-83763142D01*
X115110307Y-83763142D01*
X115147726Y-83770585D01*
X115185145Y-83763142D01*
X115185150Y-83763142D01*
X115295994Y-83741094D01*
X115421690Y-83657106D01*
X115442890Y-83625378D01*
X116992240Y-82076029D01*
X117023965Y-82054831D01*
X117062791Y-81996724D01*
X117107952Y-81929137D01*
X117107952Y-81929136D01*
X117107953Y-81929135D01*
X117130001Y-81818291D01*
X117130001Y-81818287D01*
X117137444Y-81780868D01*
X117130001Y-81743449D01*
X117130001Y-81437401D01*
X117164038Y-81471438D01*
G04 #@! TD*
M02*
