G04 #@! TF.GenerationSoftware,KiCad,Pcbnew,5.0.2-bee76a0~70~ubuntu14.04.1*
G04 #@! TF.CreationDate,2018-12-07T19:09:08-07:00*
G04 #@! TF.ProjectId,flash-addon,666c6173-682d-4616-9464-6f6e2e6b6963,rev?*
G04 #@! TF.SameCoordinates,Original*
G04 #@! TF.FileFunction,Legend,Top*
G04 #@! TF.FilePolarity,Positive*
%FSLAX46Y46*%
G04 Gerber Fmt 4.6, Leading zero omitted, Abs format (unit mm)*
G04 Created by KiCad (PCBNEW 5.0.2-bee76a0~70~ubuntu14.04.1) date Fri 07 Dec 2018 07:09:08 PM MST*
%MOMM*%
%LPD*%
G01*
G04 APERTURE LIST*
%ADD10C,0.300000*%
%ADD11C,0.120000*%
%ADD12C,0.150000*%
G04 APERTURE END LIST*
D10*
X146717688Y-84673931D02*
X146151021Y-84673931D01*
X146151021Y-85564407D02*
X146151021Y-83864407D01*
X146960545Y-83864407D01*
X147851021Y-85564407D02*
X147689117Y-85483455D01*
X147608164Y-85321550D01*
X147608164Y-83864407D01*
X149227212Y-85564407D02*
X149227212Y-84673931D01*
X149146260Y-84512026D01*
X148984355Y-84431074D01*
X148660545Y-84431074D01*
X148498640Y-84512026D01*
X149227212Y-85483455D02*
X149065307Y-85564407D01*
X148660545Y-85564407D01*
X148498640Y-85483455D01*
X148417688Y-85321550D01*
X148417688Y-85159645D01*
X148498640Y-84997740D01*
X148660545Y-84916788D01*
X149065307Y-84916788D01*
X149227212Y-84835836D01*
X149955783Y-85483455D02*
X150117688Y-85564407D01*
X150441498Y-85564407D01*
X150603402Y-85483455D01*
X150684355Y-85321550D01*
X150684355Y-85240598D01*
X150603402Y-85078693D01*
X150441498Y-84997740D01*
X150198640Y-84997740D01*
X150036736Y-84916788D01*
X149955783Y-84754883D01*
X149955783Y-84673931D01*
X150036736Y-84512026D01*
X150198640Y-84431074D01*
X150441498Y-84431074D01*
X150603402Y-84512026D01*
X151412926Y-85564407D02*
X151412926Y-83864407D01*
X152141498Y-85564407D02*
X152141498Y-84673931D01*
X152060545Y-84512026D01*
X151898640Y-84431074D01*
X151655783Y-84431074D01*
X151493879Y-84512026D01*
X151412926Y-84592979D01*
D11*
G04 #@! TO.C,J13*
X146170000Y-94260000D02*
X148830000Y-94260000D01*
X146170000Y-89120000D02*
X146170000Y-94260000D01*
X148830000Y-89120000D02*
X148830000Y-94260000D01*
X146170000Y-89120000D02*
X148830000Y-89120000D01*
X146170000Y-87850000D02*
X146170000Y-86520000D01*
X146170000Y-86520000D02*
X147500000Y-86520000D01*
D12*
G04 #@! TO.C,U4*
X149791980Y-91955440D02*
X149841980Y-91955440D01*
X149791980Y-87805440D02*
X149936980Y-87805440D01*
X154941980Y-87805440D02*
X154796980Y-87805440D01*
X154941980Y-91955440D02*
X154796980Y-91955440D01*
X149791980Y-91955440D02*
X149791980Y-87805440D01*
X154941980Y-91955440D02*
X154941980Y-87805440D01*
X149841980Y-91955440D02*
X149841980Y-93355440D01*
D11*
G04 #@! TO.C,J1*
X155972200Y-94294000D02*
X158632200Y-94294000D01*
X155972200Y-86614000D02*
X155972200Y-94294000D01*
X158632200Y-86614000D02*
X158632200Y-94294000D01*
X155972200Y-86614000D02*
X158632200Y-86614000D01*
X155972200Y-85344000D02*
X155972200Y-84014000D01*
X155972200Y-84014000D02*
X157302200Y-84014000D01*
G04 #@! TO.C,J13*
D12*
X147021300Y-93753203D02*
X147735586Y-93753203D01*
X147878443Y-93800822D01*
X147973681Y-93896060D01*
X148021300Y-94038918D01*
X148021300Y-94134156D01*
X148021300Y-92753203D02*
X148021300Y-93324632D01*
X148021300Y-93038918D02*
X147021300Y-93038918D01*
X147164158Y-93134156D01*
X147259396Y-93229394D01*
X147307015Y-93324632D01*
X147021300Y-92419870D02*
X147021300Y-91800822D01*
X147402253Y-92134156D01*
X147402253Y-91991299D01*
X147449872Y-91896060D01*
X147497491Y-91848441D01*
X147592729Y-91800822D01*
X147830824Y-91800822D01*
X147926062Y-91848441D01*
X147973681Y-91896060D01*
X148021300Y-91991299D01*
X148021300Y-92277013D01*
X147973681Y-92372251D01*
X147926062Y-92419870D01*
G04 #@! TO.C,U4*
X151902255Y-89381080D02*
X151902255Y-90190604D01*
X151949874Y-90285842D01*
X151997493Y-90333461D01*
X152092731Y-90381080D01*
X152283207Y-90381080D01*
X152378445Y-90333461D01*
X152426064Y-90285842D01*
X152473683Y-90190604D01*
X152473683Y-89381080D01*
X153378445Y-89714414D02*
X153378445Y-90381080D01*
X153140350Y-89333461D02*
X152902255Y-90047747D01*
X153521302Y-90047747D01*
G04 #@! TO.C,J1*
X156996806Y-91283540D02*
X156996806Y-91997826D01*
X156949187Y-92140683D01*
X156853949Y-92235921D01*
X156711092Y-92283540D01*
X156615854Y-92283540D01*
X157996806Y-92283540D02*
X157425378Y-92283540D01*
X157711092Y-92283540D02*
X157711092Y-91283540D01*
X157615854Y-91426398D01*
X157520616Y-91521636D01*
X157425378Y-91569255D01*
G04 #@! TD*
M02*
