G04 #@! TF.GenerationSoftware,KiCad,Pcbnew,5.0.1-33cea8e~68~ubuntu14.04.1*
G04 #@! TF.CreationDate,2018-11-10T00:57:04-08:00*
G04 #@! TF.ProjectId,flash-addon,666C6173682D6164646F6E2E6B696361,rev?*
G04 #@! TF.SameCoordinates,Original*
G04 #@! TF.FileFunction,Copper,L1,Top,Signal*
G04 #@! TF.FilePolarity,Positive*
%FSLAX46Y46*%
G04 Gerber Fmt 4.6, Leading zero omitted, Abs format (unit mm)*
G04 Created by KiCad (PCBNEW 5.0.1-33cea8e~68~ubuntu14.04.1) date Sat 10 Nov 2018 12:57:04 AM PST*
%MOMM*%
%LPD*%
G01*
G04 APERTURE LIST*
G04 #@! TA.AperFunction,ComponentPad*
%ADD10R,1.700000X1.700000*%
G04 #@! TD*
G04 #@! TA.AperFunction,ComponentPad*
%ADD11O,1.700000X1.700000*%
G04 #@! TD*
G04 #@! TA.AperFunction,SMDPad,CuDef*
%ADD12R,0.600000X1.550000*%
G04 #@! TD*
G04 #@! TA.AperFunction,SMDPad,CuDef*
%ADD13R,2.350000X2.350000*%
G04 #@! TD*
G04 #@! TA.AperFunction,Conductor*
%ADD14C,0.160000*%
G04 #@! TD*
G04 APERTURE END LIST*
D10*
G04 #@! TO.P,J13,1*
G04 #@! TO.N,vccC*
X147500000Y-87850000D03*
D11*
G04 #@! TO.P,J13,2*
G04 #@! TO.N,RESET*
X147500000Y-90390000D03*
G04 #@! TO.P,J13,3*
G04 #@! TO.N,GND*
X147500000Y-92930000D03*
G04 #@! TD*
D12*
G04 #@! TO.P,U4,1*
G04 #@! TO.N,705.3*
X150461980Y-92580440D03*
G04 #@! TO.P,U4,2*
G04 #@! TO.N,705.17*
X151731980Y-92580440D03*
G04 #@! TO.P,U4,3*
G04 #@! TO.N,vccC*
X153001980Y-92580440D03*
G04 #@! TO.P,U4,4*
G04 #@! TO.N,GND*
X154271980Y-92580440D03*
G04 #@! TO.P,U4,5*
G04 #@! TO.N,705.5*
X154271980Y-87180440D03*
G04 #@! TO.P,U4,6*
G04 #@! TO.N,705.1*
X153001980Y-87180440D03*
G04 #@! TO.P,U4,7*
G04 #@! TO.N,RESET*
X151731980Y-87180440D03*
G04 #@! TO.P,U4,8*
G04 #@! TO.N,vccC*
X150461980Y-87180440D03*
D13*
G04 #@! TO.P,U4,9*
G04 #@! TO.N,N/C*
X152366980Y-89880440D03*
G04 #@! TD*
D10*
G04 #@! TO.P,J1,1*
G04 #@! TO.N,705.17*
X157302200Y-85344000D03*
D11*
G04 #@! TO.P,J1,2*
G04 #@! TO.N,705.5*
X157302200Y-87884000D03*
G04 #@! TO.P,J1,3*
G04 #@! TO.N,705.3*
X157302200Y-90424000D03*
G04 #@! TO.P,J1,4*
G04 #@! TO.N,705.1*
X157302200Y-92964000D03*
G04 #@! TD*
D14*
G04 #@! TO.N,GND*
X147794000Y-92930000D02*
X147500000Y-92930000D01*
X153279510Y-94047910D02*
X148911910Y-94047910D01*
X154271980Y-93055440D02*
X153279510Y-94047910D01*
X148911910Y-94047910D02*
X147794000Y-92930000D01*
X154271980Y-92580440D02*
X154271980Y-93055440D01*
G04 #@! TO.N,vccC*
X148169560Y-87180440D02*
X147500000Y-87850000D01*
X150461980Y-87180440D02*
X148169560Y-87180440D01*
X153001980Y-93202760D02*
X153001980Y-92580440D01*
X152516840Y-93687900D02*
X153001980Y-93202760D01*
X151260438Y-93687900D02*
X152516840Y-93687900D01*
X151102060Y-93529522D02*
X151260438Y-93687900D01*
X150461980Y-91001438D02*
X151102060Y-91641518D01*
X151102060Y-91641518D02*
X151102060Y-93529522D01*
X150461980Y-87180440D02*
X150461980Y-91001438D01*
G04 #@! TO.N,RESET*
X146650001Y-89540001D02*
X147500000Y-90390000D01*
X146230340Y-89120340D02*
X146650001Y-89540001D01*
X146230340Y-86575900D02*
X146230340Y-89120340D01*
X147373340Y-85432900D02*
X146230340Y-86575900D01*
X150919440Y-85432900D02*
X147373340Y-85432900D01*
X151731980Y-86245440D02*
X150919440Y-85432900D01*
X151731980Y-87180440D02*
X151731980Y-86245440D01*
G04 #@! TO.N,705.1*
X158376201Y-84213999D02*
X154490121Y-84213999D01*
X158432201Y-84269999D02*
X158376201Y-84213999D01*
X158432201Y-91833999D02*
X158432201Y-84269999D01*
X157302200Y-92964000D02*
X158432201Y-91833999D01*
X153001980Y-85702140D02*
X153001980Y-87180440D01*
X154490121Y-84213999D02*
X153001980Y-85702140D01*
G04 #@! TO.N,705.3*
X155463240Y-92262960D02*
X157302200Y-90424000D01*
X150461980Y-92580440D02*
X150461980Y-92105440D01*
X150461980Y-92105440D02*
X150001980Y-91645440D01*
X150001980Y-91645440D02*
X146835160Y-91645440D01*
X146835160Y-91645440D02*
X146369999Y-92110601D01*
X146400520Y-93974920D02*
X146860260Y-94434660D01*
X146369999Y-93974920D02*
X146400520Y-93974920D01*
X146860260Y-94434660D02*
X153996762Y-94434660D01*
X146369999Y-92110601D02*
X146369999Y-93974920D01*
X155463240Y-92968182D02*
X155463240Y-92262960D01*
X153996762Y-94434660D02*
X155463240Y-92968182D01*
G04 #@! TO.N,705.5*
X154421860Y-87180440D02*
X154271980Y-87180440D01*
X155125420Y-87884000D02*
X154421860Y-87180440D01*
X157302200Y-87884000D02*
X155125420Y-87884000D01*
G04 #@! TO.N,705.17*
X153979880Y-88467342D02*
X153636980Y-88124442D01*
X153979880Y-91121542D02*
X153979880Y-88467342D01*
X153636980Y-86236438D02*
X154529418Y-85344000D01*
X153684282Y-91417140D02*
X153979880Y-91121542D01*
X154529418Y-85344000D02*
X157302200Y-85344000D01*
X152420280Y-91417140D02*
X153684282Y-91417140D01*
X153636980Y-88124442D02*
X153636980Y-86236438D01*
X151731980Y-92105440D02*
X152420280Y-91417140D01*
X151731980Y-92580440D02*
X151731980Y-92105440D01*
G04 #@! TD*
M02*
