G04 #@! TF.GenerationSoftware,KiCad,Pcbnew,5.0.2-bee76a0~70~ubuntu14.04.1*
G04 #@! TF.CreationDate,2018-12-07T19:03:52-07:00*
G04 #@! TF.ProjectId,lcd-addon,6c63642d-6164-4646-9f6e-2e6b69636164,rev?*
G04 #@! TF.SameCoordinates,Original*
G04 #@! TF.FileFunction,Soldermask,Top*
G04 #@! TF.FilePolarity,Negative*
%FSLAX46Y46*%
G04 Gerber Fmt 4.6, Leading zero omitted, Abs format (unit mm)*
G04 Created by KiCad (PCBNEW 5.0.2-bee76a0~70~ubuntu14.04.1) date Fri 07 Dec 2018 07:03:52 PM MST*
%MOMM*%
%LPD*%
G01*
G04 APERTURE LIST*
%ADD10C,0.100000*%
G04 APERTURE END LIST*
D10*
G36*
X127400443Y-97455519D02*
X127466627Y-97462037D01*
X127579853Y-97496384D01*
X127636467Y-97513557D01*
X127775087Y-97587652D01*
X127792991Y-97597222D01*
X127828729Y-97626552D01*
X127930186Y-97709814D01*
X128013448Y-97811271D01*
X128042778Y-97847009D01*
X128042779Y-97847011D01*
X128126443Y-98003533D01*
X128126443Y-98003534D01*
X128177963Y-98173373D01*
X128195359Y-98350000D01*
X128177963Y-98526627D01*
X128143616Y-98639853D01*
X128126443Y-98696467D01*
X128052348Y-98835087D01*
X128042778Y-98852991D01*
X128013448Y-98888729D01*
X127930186Y-98990186D01*
X127828729Y-99073448D01*
X127792991Y-99102778D01*
X127792989Y-99102779D01*
X127636467Y-99186443D01*
X127579853Y-99203616D01*
X127466627Y-99237963D01*
X127400443Y-99244481D01*
X127334260Y-99251000D01*
X127245740Y-99251000D01*
X127179557Y-99244481D01*
X127113373Y-99237963D01*
X127000147Y-99203616D01*
X126943533Y-99186443D01*
X126787011Y-99102779D01*
X126787009Y-99102778D01*
X126751271Y-99073448D01*
X126649814Y-98990186D01*
X126566552Y-98888729D01*
X126537222Y-98852991D01*
X126527652Y-98835087D01*
X126453557Y-98696467D01*
X126436384Y-98639853D01*
X126402037Y-98526627D01*
X126384641Y-98350000D01*
X126402037Y-98173373D01*
X126453557Y-98003534D01*
X126453557Y-98003533D01*
X126537221Y-97847011D01*
X126537222Y-97847009D01*
X126566552Y-97811271D01*
X126649814Y-97709814D01*
X126751271Y-97626552D01*
X126787009Y-97597222D01*
X126804913Y-97587652D01*
X126943533Y-97513557D01*
X127000147Y-97496384D01*
X127113373Y-97462037D01*
X127179557Y-97455519D01*
X127245740Y-97449000D01*
X127334260Y-97449000D01*
X127400443Y-97455519D01*
X127400443Y-97455519D01*
G37*
G36*
X122320443Y-97455519D02*
X122386627Y-97462037D01*
X122499853Y-97496384D01*
X122556467Y-97513557D01*
X122695087Y-97587652D01*
X122712991Y-97597222D01*
X122748729Y-97626552D01*
X122850186Y-97709814D01*
X122933448Y-97811271D01*
X122962778Y-97847009D01*
X122962779Y-97847011D01*
X123046443Y-98003533D01*
X123046443Y-98003534D01*
X123097963Y-98173373D01*
X123115359Y-98350000D01*
X123097963Y-98526627D01*
X123063616Y-98639853D01*
X123046443Y-98696467D01*
X122972348Y-98835087D01*
X122962778Y-98852991D01*
X122933448Y-98888729D01*
X122850186Y-98990186D01*
X122748729Y-99073448D01*
X122712991Y-99102778D01*
X122712989Y-99102779D01*
X122556467Y-99186443D01*
X122499853Y-99203616D01*
X122386627Y-99237963D01*
X122320443Y-99244481D01*
X122254260Y-99251000D01*
X122165740Y-99251000D01*
X122099557Y-99244481D01*
X122033373Y-99237963D01*
X121920147Y-99203616D01*
X121863533Y-99186443D01*
X121707011Y-99102779D01*
X121707009Y-99102778D01*
X121671271Y-99073448D01*
X121569814Y-98990186D01*
X121486552Y-98888729D01*
X121457222Y-98852991D01*
X121447652Y-98835087D01*
X121373557Y-98696467D01*
X121356384Y-98639853D01*
X121322037Y-98526627D01*
X121304641Y-98350000D01*
X121322037Y-98173373D01*
X121373557Y-98003534D01*
X121373557Y-98003533D01*
X121457221Y-97847011D01*
X121457222Y-97847009D01*
X121486552Y-97811271D01*
X121569814Y-97709814D01*
X121671271Y-97626552D01*
X121707009Y-97597222D01*
X121724913Y-97587652D01*
X121863533Y-97513557D01*
X121920147Y-97496384D01*
X122033373Y-97462037D01*
X122099557Y-97455519D01*
X122165740Y-97449000D01*
X122254260Y-97449000D01*
X122320443Y-97455519D01*
X122320443Y-97455519D01*
G37*
G36*
X119780443Y-97455519D02*
X119846627Y-97462037D01*
X119959853Y-97496384D01*
X120016467Y-97513557D01*
X120155087Y-97587652D01*
X120172991Y-97597222D01*
X120208729Y-97626552D01*
X120310186Y-97709814D01*
X120393448Y-97811271D01*
X120422778Y-97847009D01*
X120422779Y-97847011D01*
X120506443Y-98003533D01*
X120506443Y-98003534D01*
X120557963Y-98173373D01*
X120575359Y-98350000D01*
X120557963Y-98526627D01*
X120523616Y-98639853D01*
X120506443Y-98696467D01*
X120432348Y-98835087D01*
X120422778Y-98852991D01*
X120393448Y-98888729D01*
X120310186Y-98990186D01*
X120208729Y-99073448D01*
X120172991Y-99102778D01*
X120172989Y-99102779D01*
X120016467Y-99186443D01*
X119959853Y-99203616D01*
X119846627Y-99237963D01*
X119780443Y-99244481D01*
X119714260Y-99251000D01*
X119625740Y-99251000D01*
X119559557Y-99244481D01*
X119493373Y-99237963D01*
X119380147Y-99203616D01*
X119323533Y-99186443D01*
X119167011Y-99102779D01*
X119167009Y-99102778D01*
X119131271Y-99073448D01*
X119029814Y-98990186D01*
X118946552Y-98888729D01*
X118917222Y-98852991D01*
X118907652Y-98835087D01*
X118833557Y-98696467D01*
X118816384Y-98639853D01*
X118782037Y-98526627D01*
X118764641Y-98350000D01*
X118782037Y-98173373D01*
X118833557Y-98003534D01*
X118833557Y-98003533D01*
X118917221Y-97847011D01*
X118917222Y-97847009D01*
X118946552Y-97811271D01*
X119029814Y-97709814D01*
X119131271Y-97626552D01*
X119167009Y-97597222D01*
X119184913Y-97587652D01*
X119323533Y-97513557D01*
X119380147Y-97496384D01*
X119493373Y-97462037D01*
X119559557Y-97455519D01*
X119625740Y-97449000D01*
X119714260Y-97449000D01*
X119780443Y-97455519D01*
X119780443Y-97455519D01*
G37*
G36*
X117240443Y-97455519D02*
X117306627Y-97462037D01*
X117419853Y-97496384D01*
X117476467Y-97513557D01*
X117615087Y-97587652D01*
X117632991Y-97597222D01*
X117668729Y-97626552D01*
X117770186Y-97709814D01*
X117853448Y-97811271D01*
X117882778Y-97847009D01*
X117882779Y-97847011D01*
X117966443Y-98003533D01*
X117966443Y-98003534D01*
X118017963Y-98173373D01*
X118035359Y-98350000D01*
X118017963Y-98526627D01*
X117983616Y-98639853D01*
X117966443Y-98696467D01*
X117892348Y-98835087D01*
X117882778Y-98852991D01*
X117853448Y-98888729D01*
X117770186Y-98990186D01*
X117668729Y-99073448D01*
X117632991Y-99102778D01*
X117632989Y-99102779D01*
X117476467Y-99186443D01*
X117419853Y-99203616D01*
X117306627Y-99237963D01*
X117240443Y-99244481D01*
X117174260Y-99251000D01*
X117085740Y-99251000D01*
X117019557Y-99244481D01*
X116953373Y-99237963D01*
X116840147Y-99203616D01*
X116783533Y-99186443D01*
X116627011Y-99102779D01*
X116627009Y-99102778D01*
X116591271Y-99073448D01*
X116489814Y-98990186D01*
X116406552Y-98888729D01*
X116377222Y-98852991D01*
X116367652Y-98835087D01*
X116293557Y-98696467D01*
X116276384Y-98639853D01*
X116242037Y-98526627D01*
X116224641Y-98350000D01*
X116242037Y-98173373D01*
X116293557Y-98003534D01*
X116293557Y-98003533D01*
X116377221Y-97847011D01*
X116377222Y-97847009D01*
X116406552Y-97811271D01*
X116489814Y-97709814D01*
X116591271Y-97626552D01*
X116627009Y-97597222D01*
X116644913Y-97587652D01*
X116783533Y-97513557D01*
X116840147Y-97496384D01*
X116953373Y-97462037D01*
X117019557Y-97455519D01*
X117085740Y-97449000D01*
X117174260Y-97449000D01*
X117240443Y-97455519D01*
X117240443Y-97455519D01*
G37*
G36*
X114700443Y-97455519D02*
X114766627Y-97462037D01*
X114879853Y-97496384D01*
X114936467Y-97513557D01*
X115075087Y-97587652D01*
X115092991Y-97597222D01*
X115128729Y-97626552D01*
X115230186Y-97709814D01*
X115313448Y-97811271D01*
X115342778Y-97847009D01*
X115342779Y-97847011D01*
X115426443Y-98003533D01*
X115426443Y-98003534D01*
X115477963Y-98173373D01*
X115495359Y-98350000D01*
X115477963Y-98526627D01*
X115443616Y-98639853D01*
X115426443Y-98696467D01*
X115352348Y-98835087D01*
X115342778Y-98852991D01*
X115313448Y-98888729D01*
X115230186Y-98990186D01*
X115128729Y-99073448D01*
X115092991Y-99102778D01*
X115092989Y-99102779D01*
X114936467Y-99186443D01*
X114879853Y-99203616D01*
X114766627Y-99237963D01*
X114700443Y-99244481D01*
X114634260Y-99251000D01*
X114545740Y-99251000D01*
X114479557Y-99244481D01*
X114413373Y-99237963D01*
X114300147Y-99203616D01*
X114243533Y-99186443D01*
X114087011Y-99102779D01*
X114087009Y-99102778D01*
X114051271Y-99073448D01*
X113949814Y-98990186D01*
X113866552Y-98888729D01*
X113837222Y-98852991D01*
X113827652Y-98835087D01*
X113753557Y-98696467D01*
X113736384Y-98639853D01*
X113702037Y-98526627D01*
X113684641Y-98350000D01*
X113702037Y-98173373D01*
X113753557Y-98003534D01*
X113753557Y-98003533D01*
X113837221Y-97847011D01*
X113837222Y-97847009D01*
X113866552Y-97811271D01*
X113949814Y-97709814D01*
X114051271Y-97626552D01*
X114087009Y-97597222D01*
X114104913Y-97587652D01*
X114243533Y-97513557D01*
X114300147Y-97496384D01*
X114413373Y-97462037D01*
X114479557Y-97455519D01*
X114545740Y-97449000D01*
X114634260Y-97449000D01*
X114700443Y-97455519D01*
X114700443Y-97455519D01*
G37*
G36*
X112951000Y-99251000D02*
X111149000Y-99251000D01*
X111149000Y-97449000D01*
X112951000Y-97449000D01*
X112951000Y-99251000D01*
X112951000Y-99251000D01*
G37*
G36*
X124860443Y-97455519D02*
X124926627Y-97462037D01*
X125039853Y-97496384D01*
X125096467Y-97513557D01*
X125235087Y-97587652D01*
X125252991Y-97597222D01*
X125288729Y-97626552D01*
X125390186Y-97709814D01*
X125473448Y-97811271D01*
X125502778Y-97847009D01*
X125502779Y-97847011D01*
X125586443Y-98003533D01*
X125586443Y-98003534D01*
X125637963Y-98173373D01*
X125655359Y-98350000D01*
X125637963Y-98526627D01*
X125603616Y-98639853D01*
X125586443Y-98696467D01*
X125512348Y-98835087D01*
X125502778Y-98852991D01*
X125473448Y-98888729D01*
X125390186Y-98990186D01*
X125288729Y-99073448D01*
X125252991Y-99102778D01*
X125252989Y-99102779D01*
X125096467Y-99186443D01*
X125039853Y-99203616D01*
X124926627Y-99237963D01*
X124860443Y-99244481D01*
X124794260Y-99251000D01*
X124705740Y-99251000D01*
X124639557Y-99244481D01*
X124573373Y-99237963D01*
X124460147Y-99203616D01*
X124403533Y-99186443D01*
X124247011Y-99102779D01*
X124247009Y-99102778D01*
X124211271Y-99073448D01*
X124109814Y-98990186D01*
X124026552Y-98888729D01*
X123997222Y-98852991D01*
X123987652Y-98835087D01*
X123913557Y-98696467D01*
X123896384Y-98639853D01*
X123862037Y-98526627D01*
X123844641Y-98350000D01*
X123862037Y-98173373D01*
X123913557Y-98003534D01*
X123913557Y-98003533D01*
X123997221Y-97847011D01*
X123997222Y-97847009D01*
X124026552Y-97811271D01*
X124109814Y-97709814D01*
X124211271Y-97626552D01*
X124247009Y-97597222D01*
X124264913Y-97587652D01*
X124403533Y-97513557D01*
X124460147Y-97496384D01*
X124573373Y-97462037D01*
X124639557Y-97455519D01*
X124705740Y-97449000D01*
X124794260Y-97449000D01*
X124860443Y-97455519D01*
X124860443Y-97455519D01*
G37*
G36*
X114979591Y-94540585D02*
X115013569Y-94550893D01*
X115044887Y-94567633D01*
X115072339Y-94590161D01*
X115094867Y-94617613D01*
X115111607Y-94648931D01*
X115121915Y-94682909D01*
X115126000Y-94724390D01*
X115126000Y-95325610D01*
X115121915Y-95367091D01*
X115111607Y-95401069D01*
X115094867Y-95432387D01*
X115072339Y-95459839D01*
X115044887Y-95482367D01*
X115013569Y-95499107D01*
X114979591Y-95509415D01*
X114938110Y-95513500D01*
X114261890Y-95513500D01*
X114220409Y-95509415D01*
X114186431Y-95499107D01*
X114155113Y-95482367D01*
X114127661Y-95459839D01*
X114105133Y-95432387D01*
X114088393Y-95401069D01*
X114078085Y-95367091D01*
X114074000Y-95325610D01*
X114074000Y-94724390D01*
X114078085Y-94682909D01*
X114088393Y-94648931D01*
X114105133Y-94617613D01*
X114127661Y-94590161D01*
X114155113Y-94567633D01*
X114186431Y-94550893D01*
X114220409Y-94540585D01*
X114261890Y-94536500D01*
X114938110Y-94536500D01*
X114979591Y-94540585D01*
X114979591Y-94540585D01*
G37*
G36*
X110151000Y-95251000D02*
X108349000Y-95251000D01*
X108349000Y-93449000D01*
X110151000Y-93449000D01*
X110151000Y-95251000D01*
X110151000Y-95251000D01*
G37*
G36*
X111900442Y-93455518D02*
X111966627Y-93462037D01*
X112079853Y-93496384D01*
X112136467Y-93513557D01*
X112275087Y-93587652D01*
X112292991Y-93597222D01*
X112328729Y-93626552D01*
X112430186Y-93709814D01*
X112497708Y-93792091D01*
X112542778Y-93847009D01*
X112542779Y-93847011D01*
X112626443Y-94003533D01*
X112626443Y-94003534D01*
X112677963Y-94173373D01*
X112695359Y-94350000D01*
X112677963Y-94526627D01*
X112673544Y-94541193D01*
X112626443Y-94696467D01*
X112606862Y-94733099D01*
X112542778Y-94852991D01*
X112513448Y-94888729D01*
X112430186Y-94990186D01*
X112328729Y-95073448D01*
X112292991Y-95102778D01*
X112292989Y-95102779D01*
X112136467Y-95186443D01*
X112079853Y-95203616D01*
X111966627Y-95237963D01*
X111900443Y-95244481D01*
X111834260Y-95251000D01*
X111745740Y-95251000D01*
X111679558Y-95244482D01*
X111613373Y-95237963D01*
X111500147Y-95203616D01*
X111443533Y-95186443D01*
X111287011Y-95102779D01*
X111287009Y-95102778D01*
X111251271Y-95073448D01*
X111149814Y-94990186D01*
X111066552Y-94888729D01*
X111037222Y-94852991D01*
X110973138Y-94733099D01*
X110953557Y-94696467D01*
X110906456Y-94541193D01*
X110902037Y-94526627D01*
X110884641Y-94350000D01*
X110902037Y-94173373D01*
X110953557Y-94003534D01*
X110953557Y-94003533D01*
X111037221Y-93847011D01*
X111037222Y-93847009D01*
X111082292Y-93792091D01*
X111149814Y-93709814D01*
X111251271Y-93626552D01*
X111287009Y-93597222D01*
X111304913Y-93587652D01*
X111443533Y-93513557D01*
X111500147Y-93496384D01*
X111613373Y-93462037D01*
X111679558Y-93455518D01*
X111745740Y-93449000D01*
X111834260Y-93449000D01*
X111900442Y-93455518D01*
X111900442Y-93455518D01*
G37*
G36*
X114979591Y-92965585D02*
X115013569Y-92975893D01*
X115044887Y-92992633D01*
X115072339Y-93015161D01*
X115094867Y-93042613D01*
X115111607Y-93073931D01*
X115121915Y-93107909D01*
X115126000Y-93149390D01*
X115126000Y-93750610D01*
X115121915Y-93792091D01*
X115111607Y-93826069D01*
X115094867Y-93857387D01*
X115072339Y-93884839D01*
X115044887Y-93907367D01*
X115013569Y-93924107D01*
X114979591Y-93934415D01*
X114938110Y-93938500D01*
X114261890Y-93938500D01*
X114220409Y-93934415D01*
X114186431Y-93924107D01*
X114155113Y-93907367D01*
X114127661Y-93884839D01*
X114105133Y-93857387D01*
X114088393Y-93826069D01*
X114078085Y-93792091D01*
X114074000Y-93750610D01*
X114074000Y-93149390D01*
X114078085Y-93107909D01*
X114088393Y-93073931D01*
X114105133Y-93042613D01*
X114127661Y-93015161D01*
X114155113Y-92992633D01*
X114186431Y-92975893D01*
X114220409Y-92965585D01*
X114261890Y-92961500D01*
X114938110Y-92961500D01*
X114979591Y-92965585D01*
X114979591Y-92965585D01*
G37*
G36*
X113601000Y-91651000D02*
X111299000Y-91651000D01*
X111299000Y-89749000D01*
X113601000Y-89749000D01*
X113601000Y-91651000D01*
X113601000Y-91651000D01*
G37*
G36*
X109901000Y-89001000D02*
X108499000Y-89001000D01*
X108499000Y-84099000D01*
X109901000Y-84099000D01*
X109901000Y-89001000D01*
X109901000Y-89001000D01*
G37*
G36*
X113601000Y-83351000D02*
X111299000Y-83351000D01*
X111299000Y-81449000D01*
X113601000Y-81449000D01*
X113601000Y-83351000D01*
X113601000Y-83351000D01*
G37*
G36*
X114979591Y-78840585D02*
X115013569Y-78850893D01*
X115044887Y-78867633D01*
X115072339Y-78890161D01*
X115094867Y-78917613D01*
X115111607Y-78948931D01*
X115121915Y-78982909D01*
X115126000Y-79024390D01*
X115126000Y-79625610D01*
X115121915Y-79667091D01*
X115111607Y-79701069D01*
X115094867Y-79732387D01*
X115072339Y-79759839D01*
X115044887Y-79782367D01*
X115013569Y-79799107D01*
X114979591Y-79809415D01*
X114938110Y-79813500D01*
X114261890Y-79813500D01*
X114220409Y-79809415D01*
X114186431Y-79799107D01*
X114155113Y-79782367D01*
X114127661Y-79759839D01*
X114105133Y-79732387D01*
X114088393Y-79701069D01*
X114078085Y-79667091D01*
X114074000Y-79625610D01*
X114074000Y-79024390D01*
X114078085Y-78982909D01*
X114088393Y-78948931D01*
X114105133Y-78917613D01*
X114127661Y-78890161D01*
X114155113Y-78867633D01*
X114186431Y-78850893D01*
X114220409Y-78840585D01*
X114261890Y-78836500D01*
X114938110Y-78836500D01*
X114979591Y-78840585D01*
X114979591Y-78840585D01*
G37*
G36*
X112701000Y-79451000D02*
X110899000Y-79451000D01*
X110899000Y-77649000D01*
X112701000Y-77649000D01*
X112701000Y-79451000D01*
X112701000Y-79451000D01*
G37*
G36*
X109370443Y-77655519D02*
X109436627Y-77662037D01*
X109549853Y-77696384D01*
X109606467Y-77713557D01*
X109745087Y-77787652D01*
X109762991Y-77797222D01*
X109798729Y-77826552D01*
X109900186Y-77909814D01*
X109969480Y-77994250D01*
X110012778Y-78047009D01*
X110012779Y-78047011D01*
X110096443Y-78203533D01*
X110096443Y-78203534D01*
X110147963Y-78373373D01*
X110165359Y-78550000D01*
X110147963Y-78726627D01*
X110114633Y-78836500D01*
X110096443Y-78896467D01*
X110085140Y-78917613D01*
X110012778Y-79052991D01*
X109983448Y-79088729D01*
X109900186Y-79190186D01*
X109798729Y-79273448D01*
X109762991Y-79302778D01*
X109762989Y-79302779D01*
X109606467Y-79386443D01*
X109549853Y-79403616D01*
X109436627Y-79437963D01*
X109370442Y-79444482D01*
X109304260Y-79451000D01*
X109215740Y-79451000D01*
X109149558Y-79444482D01*
X109083373Y-79437963D01*
X108970147Y-79403616D01*
X108913533Y-79386443D01*
X108757011Y-79302779D01*
X108757009Y-79302778D01*
X108721271Y-79273448D01*
X108619814Y-79190186D01*
X108536552Y-79088729D01*
X108507222Y-79052991D01*
X108434860Y-78917613D01*
X108423557Y-78896467D01*
X108405367Y-78836500D01*
X108372037Y-78726627D01*
X108354641Y-78550000D01*
X108372037Y-78373373D01*
X108423557Y-78203534D01*
X108423557Y-78203533D01*
X108507221Y-78047011D01*
X108507222Y-78047009D01*
X108550520Y-77994250D01*
X108619814Y-77909814D01*
X108721271Y-77826552D01*
X108757009Y-77797222D01*
X108774913Y-77787652D01*
X108913533Y-77713557D01*
X108970147Y-77696384D01*
X109083373Y-77662037D01*
X109149557Y-77655519D01*
X109215740Y-77649000D01*
X109304260Y-77649000D01*
X109370443Y-77655519D01*
X109370443Y-77655519D01*
G37*
G36*
X114979591Y-77265585D02*
X115013569Y-77275893D01*
X115044887Y-77292633D01*
X115072339Y-77315161D01*
X115094867Y-77342613D01*
X115111607Y-77373931D01*
X115121915Y-77407909D01*
X115126000Y-77449390D01*
X115126000Y-78050610D01*
X115121915Y-78092091D01*
X115111607Y-78126069D01*
X115094867Y-78157387D01*
X115072339Y-78184839D01*
X115044887Y-78207367D01*
X115013569Y-78224107D01*
X114979591Y-78234415D01*
X114938110Y-78238500D01*
X114261890Y-78238500D01*
X114220409Y-78234415D01*
X114186431Y-78224107D01*
X114155113Y-78207367D01*
X114127661Y-78184839D01*
X114105133Y-78157387D01*
X114088393Y-78126069D01*
X114078085Y-78092091D01*
X114074000Y-78050610D01*
X114074000Y-77449390D01*
X114078085Y-77407909D01*
X114088393Y-77373931D01*
X114105133Y-77342613D01*
X114127661Y-77315161D01*
X114155113Y-77292633D01*
X114186431Y-77275893D01*
X114220409Y-77265585D01*
X114261890Y-77261500D01*
X114938110Y-77261500D01*
X114979591Y-77265585D01*
X114979591Y-77265585D01*
G37*
G36*
X145761000Y-76101000D02*
X143959000Y-76101000D01*
X143959000Y-74299000D01*
X145761000Y-74299000D01*
X145761000Y-76101000D01*
X145761000Y-76101000D01*
G37*
G36*
X115301000Y-76101000D02*
X113499000Y-76101000D01*
X113499000Y-74299000D01*
X115301000Y-74299000D01*
X115301000Y-76101000D01*
X115301000Y-76101000D01*
G37*
G36*
X111970442Y-74305518D02*
X112036627Y-74312037D01*
X112149853Y-74346384D01*
X112206467Y-74363557D01*
X112345087Y-74437652D01*
X112362991Y-74447222D01*
X112398729Y-74476552D01*
X112500186Y-74559814D01*
X112583448Y-74661271D01*
X112612778Y-74697009D01*
X112612779Y-74697011D01*
X112696443Y-74853533D01*
X112696443Y-74853534D01*
X112747963Y-75023373D01*
X112765359Y-75200000D01*
X112747963Y-75376627D01*
X112713616Y-75489853D01*
X112696443Y-75546467D01*
X112622348Y-75685087D01*
X112612778Y-75702991D01*
X112583448Y-75738729D01*
X112500186Y-75840186D01*
X112398729Y-75923448D01*
X112362991Y-75952778D01*
X112362989Y-75952779D01*
X112206467Y-76036443D01*
X112149853Y-76053616D01*
X112036627Y-76087963D01*
X111970442Y-76094482D01*
X111904260Y-76101000D01*
X111815740Y-76101000D01*
X111749558Y-76094482D01*
X111683373Y-76087963D01*
X111570147Y-76053616D01*
X111513533Y-76036443D01*
X111357011Y-75952779D01*
X111357009Y-75952778D01*
X111321271Y-75923448D01*
X111219814Y-75840186D01*
X111136552Y-75738729D01*
X111107222Y-75702991D01*
X111097652Y-75685087D01*
X111023557Y-75546467D01*
X111006384Y-75489853D01*
X110972037Y-75376627D01*
X110954641Y-75200000D01*
X110972037Y-75023373D01*
X111023557Y-74853534D01*
X111023557Y-74853533D01*
X111107221Y-74697011D01*
X111107222Y-74697009D01*
X111136552Y-74661271D01*
X111219814Y-74559814D01*
X111321271Y-74476552D01*
X111357009Y-74447222D01*
X111374913Y-74437652D01*
X111513533Y-74363557D01*
X111570147Y-74346384D01*
X111683373Y-74312037D01*
X111749558Y-74305518D01*
X111815740Y-74299000D01*
X111904260Y-74299000D01*
X111970442Y-74305518D01*
X111970442Y-74305518D01*
G37*
M02*
