G04 #@! TF.GenerationSoftware,KiCad,Pcbnew,5.0.1-33cea8e~68~ubuntu14.04.1*
G04 #@! TF.CreationDate,2018-11-21T03:18:17-08:00*
G04 #@! TF.ProjectId,lcd-addon,6C63642D6164646F6E2E6B696361645F,rev?*
G04 #@! TF.SameCoordinates,Original*
G04 #@! TF.FileFunction,Paste,Top*
G04 #@! TF.FilePolarity,Positive*
%FSLAX46Y46*%
G04 Gerber Fmt 4.6, Leading zero omitted, Abs format (unit mm)*
G04 Created by KiCad (PCBNEW 5.0.1-33cea8e~68~ubuntu14.04.1) date Wed 21 Nov 2018 03:18:17 AM PST*
%MOMM*%
%LPD*%
G01*
G04 APERTURE LIST*
%ADD10C,0.100000*%
%ADD11C,0.875000*%
%ADD12R,2.200000X1.800000*%
%ADD13R,1.300000X0.300000*%
G04 APERTURE END LIST*
D10*
G04 #@! TO.C,C1*
G36*
X114877691Y-93013553D02*
X114898926Y-93016703D01*
X114919750Y-93021919D01*
X114939962Y-93029151D01*
X114959368Y-93038330D01*
X114977781Y-93049366D01*
X114995024Y-93062154D01*
X115010930Y-93076570D01*
X115025346Y-93092476D01*
X115038134Y-93109719D01*
X115049170Y-93128132D01*
X115058349Y-93147538D01*
X115065581Y-93167750D01*
X115070797Y-93188574D01*
X115073947Y-93209809D01*
X115075000Y-93231250D01*
X115075000Y-93668750D01*
X115073947Y-93690191D01*
X115070797Y-93711426D01*
X115065581Y-93732250D01*
X115058349Y-93752462D01*
X115049170Y-93771868D01*
X115038134Y-93790281D01*
X115025346Y-93807524D01*
X115010930Y-93823430D01*
X114995024Y-93837846D01*
X114977781Y-93850634D01*
X114959368Y-93861670D01*
X114939962Y-93870849D01*
X114919750Y-93878081D01*
X114898926Y-93883297D01*
X114877691Y-93886447D01*
X114856250Y-93887500D01*
X114343750Y-93887500D01*
X114322309Y-93886447D01*
X114301074Y-93883297D01*
X114280250Y-93878081D01*
X114260038Y-93870849D01*
X114240632Y-93861670D01*
X114222219Y-93850634D01*
X114204976Y-93837846D01*
X114189070Y-93823430D01*
X114174654Y-93807524D01*
X114161866Y-93790281D01*
X114150830Y-93771868D01*
X114141651Y-93752462D01*
X114134419Y-93732250D01*
X114129203Y-93711426D01*
X114126053Y-93690191D01*
X114125000Y-93668750D01*
X114125000Y-93231250D01*
X114126053Y-93209809D01*
X114129203Y-93188574D01*
X114134419Y-93167750D01*
X114141651Y-93147538D01*
X114150830Y-93128132D01*
X114161866Y-93109719D01*
X114174654Y-93092476D01*
X114189070Y-93076570D01*
X114204976Y-93062154D01*
X114222219Y-93049366D01*
X114240632Y-93038330D01*
X114260038Y-93029151D01*
X114280250Y-93021919D01*
X114301074Y-93016703D01*
X114322309Y-93013553D01*
X114343750Y-93012500D01*
X114856250Y-93012500D01*
X114877691Y-93013553D01*
X114877691Y-93013553D01*
G37*
D11*
X114600000Y-93450000D03*
D10*
G36*
X114877691Y-94588553D02*
X114898926Y-94591703D01*
X114919750Y-94596919D01*
X114939962Y-94604151D01*
X114959368Y-94613330D01*
X114977781Y-94624366D01*
X114995024Y-94637154D01*
X115010930Y-94651570D01*
X115025346Y-94667476D01*
X115038134Y-94684719D01*
X115049170Y-94703132D01*
X115058349Y-94722538D01*
X115065581Y-94742750D01*
X115070797Y-94763574D01*
X115073947Y-94784809D01*
X115075000Y-94806250D01*
X115075000Y-95243750D01*
X115073947Y-95265191D01*
X115070797Y-95286426D01*
X115065581Y-95307250D01*
X115058349Y-95327462D01*
X115049170Y-95346868D01*
X115038134Y-95365281D01*
X115025346Y-95382524D01*
X115010930Y-95398430D01*
X114995024Y-95412846D01*
X114977781Y-95425634D01*
X114959368Y-95436670D01*
X114939962Y-95445849D01*
X114919750Y-95453081D01*
X114898926Y-95458297D01*
X114877691Y-95461447D01*
X114856250Y-95462500D01*
X114343750Y-95462500D01*
X114322309Y-95461447D01*
X114301074Y-95458297D01*
X114280250Y-95453081D01*
X114260038Y-95445849D01*
X114240632Y-95436670D01*
X114222219Y-95425634D01*
X114204976Y-95412846D01*
X114189070Y-95398430D01*
X114174654Y-95382524D01*
X114161866Y-95365281D01*
X114150830Y-95346868D01*
X114141651Y-95327462D01*
X114134419Y-95307250D01*
X114129203Y-95286426D01*
X114126053Y-95265191D01*
X114125000Y-95243750D01*
X114125000Y-94806250D01*
X114126053Y-94784809D01*
X114129203Y-94763574D01*
X114134419Y-94742750D01*
X114141651Y-94722538D01*
X114150830Y-94703132D01*
X114161866Y-94684719D01*
X114174654Y-94667476D01*
X114189070Y-94651570D01*
X114204976Y-94637154D01*
X114222219Y-94624366D01*
X114240632Y-94613330D01*
X114260038Y-94604151D01*
X114280250Y-94596919D01*
X114301074Y-94591703D01*
X114322309Y-94588553D01*
X114343750Y-94587500D01*
X114856250Y-94587500D01*
X114877691Y-94588553D01*
X114877691Y-94588553D01*
G37*
D11*
X114600000Y-95025000D03*
G04 #@! TD*
D10*
G04 #@! TO.C,C2*
G36*
X114877691Y-78888553D02*
X114898926Y-78891703D01*
X114919750Y-78896919D01*
X114939962Y-78904151D01*
X114959368Y-78913330D01*
X114977781Y-78924366D01*
X114995024Y-78937154D01*
X115010930Y-78951570D01*
X115025346Y-78967476D01*
X115038134Y-78984719D01*
X115049170Y-79003132D01*
X115058349Y-79022538D01*
X115065581Y-79042750D01*
X115070797Y-79063574D01*
X115073947Y-79084809D01*
X115075000Y-79106250D01*
X115075000Y-79543750D01*
X115073947Y-79565191D01*
X115070797Y-79586426D01*
X115065581Y-79607250D01*
X115058349Y-79627462D01*
X115049170Y-79646868D01*
X115038134Y-79665281D01*
X115025346Y-79682524D01*
X115010930Y-79698430D01*
X114995024Y-79712846D01*
X114977781Y-79725634D01*
X114959368Y-79736670D01*
X114939962Y-79745849D01*
X114919750Y-79753081D01*
X114898926Y-79758297D01*
X114877691Y-79761447D01*
X114856250Y-79762500D01*
X114343750Y-79762500D01*
X114322309Y-79761447D01*
X114301074Y-79758297D01*
X114280250Y-79753081D01*
X114260038Y-79745849D01*
X114240632Y-79736670D01*
X114222219Y-79725634D01*
X114204976Y-79712846D01*
X114189070Y-79698430D01*
X114174654Y-79682524D01*
X114161866Y-79665281D01*
X114150830Y-79646868D01*
X114141651Y-79627462D01*
X114134419Y-79607250D01*
X114129203Y-79586426D01*
X114126053Y-79565191D01*
X114125000Y-79543750D01*
X114125000Y-79106250D01*
X114126053Y-79084809D01*
X114129203Y-79063574D01*
X114134419Y-79042750D01*
X114141651Y-79022538D01*
X114150830Y-79003132D01*
X114161866Y-78984719D01*
X114174654Y-78967476D01*
X114189070Y-78951570D01*
X114204976Y-78937154D01*
X114222219Y-78924366D01*
X114240632Y-78913330D01*
X114260038Y-78904151D01*
X114280250Y-78896919D01*
X114301074Y-78891703D01*
X114322309Y-78888553D01*
X114343750Y-78887500D01*
X114856250Y-78887500D01*
X114877691Y-78888553D01*
X114877691Y-78888553D01*
G37*
D11*
X114600000Y-79325000D03*
D10*
G36*
X114877691Y-77313553D02*
X114898926Y-77316703D01*
X114919750Y-77321919D01*
X114939962Y-77329151D01*
X114959368Y-77338330D01*
X114977781Y-77349366D01*
X114995024Y-77362154D01*
X115010930Y-77376570D01*
X115025346Y-77392476D01*
X115038134Y-77409719D01*
X115049170Y-77428132D01*
X115058349Y-77447538D01*
X115065581Y-77467750D01*
X115070797Y-77488574D01*
X115073947Y-77509809D01*
X115075000Y-77531250D01*
X115075000Y-77968750D01*
X115073947Y-77990191D01*
X115070797Y-78011426D01*
X115065581Y-78032250D01*
X115058349Y-78052462D01*
X115049170Y-78071868D01*
X115038134Y-78090281D01*
X115025346Y-78107524D01*
X115010930Y-78123430D01*
X114995024Y-78137846D01*
X114977781Y-78150634D01*
X114959368Y-78161670D01*
X114939962Y-78170849D01*
X114919750Y-78178081D01*
X114898926Y-78183297D01*
X114877691Y-78186447D01*
X114856250Y-78187500D01*
X114343750Y-78187500D01*
X114322309Y-78186447D01*
X114301074Y-78183297D01*
X114280250Y-78178081D01*
X114260038Y-78170849D01*
X114240632Y-78161670D01*
X114222219Y-78150634D01*
X114204976Y-78137846D01*
X114189070Y-78123430D01*
X114174654Y-78107524D01*
X114161866Y-78090281D01*
X114150830Y-78071868D01*
X114141651Y-78052462D01*
X114134419Y-78032250D01*
X114129203Y-78011426D01*
X114126053Y-77990191D01*
X114125000Y-77968750D01*
X114125000Y-77531250D01*
X114126053Y-77509809D01*
X114129203Y-77488574D01*
X114134419Y-77467750D01*
X114141651Y-77447538D01*
X114150830Y-77428132D01*
X114161866Y-77409719D01*
X114174654Y-77392476D01*
X114189070Y-77376570D01*
X114204976Y-77362154D01*
X114222219Y-77349366D01*
X114240632Y-77338330D01*
X114260038Y-77329151D01*
X114280250Y-77321919D01*
X114301074Y-77316703D01*
X114322309Y-77313553D01*
X114343750Y-77312500D01*
X114856250Y-77312500D01*
X114877691Y-77313553D01*
X114877691Y-77313553D01*
G37*
D11*
X114600000Y-77750000D03*
G04 #@! TD*
D12*
G04 #@! TO.C,J4*
X112450000Y-82400000D03*
X112450000Y-90700000D03*
D13*
X109200000Y-88800000D03*
X109200000Y-88300000D03*
X109200000Y-87800000D03*
X109200000Y-87300000D03*
X109200000Y-86800000D03*
X109200000Y-86300000D03*
X109200000Y-85800000D03*
X109200000Y-85300000D03*
X109200000Y-84800000D03*
X109200000Y-84300000D03*
G04 #@! TD*
M02*
