G04 #@! TF.GenerationSoftware,KiCad,Pcbnew,5.0.1-33cea8e~68~ubuntu14.04.1*
G04 #@! TF.CreationDate,2018-11-21T03:18:17-08:00*
G04 #@! TF.ProjectId,lcd-addon,6C63642D6164646F6E2E6B696361645F,rev?*
G04 #@! TF.SameCoordinates,Original*
G04 #@! TF.FileFunction,Copper,L2,Bot,Signal*
G04 #@! TF.FilePolarity,Positive*
%FSLAX46Y46*%
G04 Gerber Fmt 4.6, Leading zero omitted, Abs format (unit mm)*
G04 Created by KiCad (PCBNEW 5.0.1-33cea8e~68~ubuntu14.04.1) date Wed 21 Nov 2018 03:18:17 AM PST*
%MOMM*%
%LPD*%
G01*
G04 APERTURE LIST*
G04 #@! TA.AperFunction,ComponentPad*
%ADD10R,1.700000X1.700000*%
G04 #@! TD*
G04 #@! TA.AperFunction,ComponentPad*
%ADD11O,1.700000X1.700000*%
G04 #@! TD*
G04 #@! TA.AperFunction,ViaPad*
%ADD12C,0.400000*%
G04 #@! TD*
G04 #@! TA.AperFunction,Conductor*
%ADD13C,0.200000*%
G04 #@! TD*
G04 APERTURE END LIST*
D10*
G04 #@! TO.P,J2,1*
G04 #@! TO.N,vccC*
X112050000Y-98350000D03*
D11*
G04 #@! TO.P,J2,2*
G04 #@! TO.N,vcc*
X114590000Y-98350000D03*
G04 #@! TO.P,J2,3*
G04 #@! TO.N,GND*
X117130000Y-98350000D03*
G04 #@! TO.P,J2,4*
G04 #@! TO.N,008.17*
X119670000Y-98350000D03*
G04 #@! TO.P,J2,5*
G04 #@! TO.N,008.5*
X122210000Y-98350000D03*
G04 #@! TO.P,J2,6*
G04 #@! TO.N,008.3*
X124750000Y-98350000D03*
G04 #@! TO.P,J2,7*
G04 #@! TO.N,008.1*
X127290000Y-98350000D03*
G04 #@! TD*
D10*
G04 #@! TO.P,J5,1*
G04 #@! TO.N,Net-(J5-Pad1)*
X144860000Y-75200000D03*
G04 #@! TD*
G04 #@! TO.P,J6,1*
G04 #@! TO.N,d12*
X114400000Y-75200000D03*
D11*
G04 #@! TO.P,J6,2*
G04 #@! TO.N,d13*
X111860000Y-75200000D03*
G04 #@! TD*
D10*
G04 #@! TO.P,J1,1*
G04 #@! TO.N,vccC*
X109250000Y-94350000D03*
D11*
G04 #@! TO.P,J1,2*
G04 #@! TO.N,_vccC*
X111790000Y-94350000D03*
G04 #@! TD*
G04 #@! TO.P,J8,2*
G04 #@! TO.N,_vcc*
X109260000Y-78550000D03*
D10*
G04 #@! TO.P,J8,1*
G04 #@! TO.N,vcc*
X111800000Y-78550000D03*
G04 #@! TD*
D12*
G04 #@! TO.N,GND*
X114600000Y-79325000D03*
G04 #@! TO.N,008.5*
X117700000Y-95350000D03*
G04 #@! TO.N,_vccC*
X110927359Y-85727359D03*
G04 #@! TD*
D13*
G04 #@! TO.N,GND*
X117130000Y-98350000D02*
X117130000Y-88580000D01*
X117130000Y-81855000D02*
X114600000Y-79325000D01*
X117130000Y-88580000D02*
X117130000Y-81855000D01*
G04 #@! TO.N,008.5*
X119210000Y-95350000D02*
X122210000Y-98350000D01*
X117700000Y-95350000D02*
X119210000Y-95350000D01*
G04 #@! TO.N,_vccC*
X111127358Y-85927358D02*
X110927359Y-85727359D01*
X111790000Y-94350000D02*
X111790000Y-86590000D01*
X111790000Y-86590000D02*
X111127358Y-85927358D01*
G04 #@! TO.N,vcc*
X114590000Y-98350000D02*
X112290000Y-96050000D01*
X111800000Y-79600000D02*
X111800000Y-78550000D01*
X112867001Y-80667001D02*
X111800000Y-79600000D01*
X112867001Y-95472999D02*
X112867001Y-80667001D01*
X112290000Y-96050000D02*
X112867001Y-95472999D01*
G04 #@! TD*
M02*
